ISO-10303-21;
HEADER;
/* Generated by software containing ST-Developer
 * from STEP Tools, Inc. (www.steptools.com) 
 */

FILE_DESCRIPTION(
/* description */ (''),
/* implementation_level */ '2;1');

FILE_NAME(
/* name */ '12 bottle holder.step',
/* time_stamp */ '2026-06-16T09:40:35+08:00',
/* author */ (''),
/* organization */ (''),
/* preprocessor_version */ 'ST-DEVELOPER v20.1',
/* originating_system */ 'Autodesk Translation Framework v15.8.0.0',
/* authorisation */ '');

FILE_SCHEMA (('AUTOMOTIVE_DESIGN { 1 0 10303 214 3 1 1 }'));
ENDSEC;

DATA;
#10=MECHANICAL_DESIGN_GEOMETRIC_PRESENTATION_REPRESENTATION('',(#25),#1505);
#11=ITEM_DEFINED_TRANSFORMATION($,$,#847,#962);
#12=ITEM_DEFINED_TRANSFORMATION($,$,#846,#963);
#13=ITEM_DEFINED_TRANSFORMATION($,$,#845,#964);
#14=(
REPRESENTATION_RELATIONSHIP($,$,#1524,#1523)
REPRESENTATION_RELATIONSHIP_WITH_TRANSFORMATION(#11)
SHAPE_REPRESENTATION_RELATIONSHIP()
);
#15=(
REPRESENTATION_RELATIONSHIP($,$,#1523,#1522)
REPRESENTATION_RELATIONSHIP_WITH_TRANSFORMATION(#12)
SHAPE_REPRESENTATION_RELATIONSHIP()
);
#16=(
REPRESENTATION_RELATIONSHIP($,$,#1522,#1521)
REPRESENTATION_RELATIONSHIP_WITH_TRANSFORMATION(#13)
SHAPE_REPRESENTATION_RELATIONSHIP()
);
#17=CONTEXT_DEPENDENT_SHAPE_REPRESENTATION(#14,#1518);
#18=CONTEXT_DEPENDENT_SHAPE_REPRESENTATION(#15,#1519);
#19=CONTEXT_DEPENDENT_SHAPE_REPRESENTATION(#16,#1520);
#20=NEXT_ASSEMBLY_USAGE_OCCURRENCE('10 bottle holder:1',
'10 bottle holder:1','10 bottle holder:1',#1528,#1529,
'10 bottle holder:1');
#21=NEXT_ASSEMBLY_USAGE_OCCURRENCE(
'FINAL FIXTURE DESIGN_07.09.2025_Smaller Pipette Tip:1',
'FINAL FIXTURE DESIGN_07.09.2025_Smaller Pipette Tip:1',
'FINAL FIXTURE DESIGN_07.09.2025_Smaller Pipette Tip:1',#1527,#1528,
'FINAL FIXTURE DESIGN_07.09.2025_Smaller Pipette Tip:1');
#22=NEXT_ASSEMBLY_USAGE_OCCURRENCE('accesories_sd:1','accesories_sd:1',
'accesories_sd:1',#1526,#1527,'accesories_sd:1');
#23=SHAPE_REPRESENTATION_RELATIONSHIP('SRR','None',#1524,#24);
#24=ADVANCED_BREP_SHAPE_REPRESENTATION('',(#26),#1504);
#25=STYLED_ITEM('',(#1545),#26);
#26=MANIFOLD_SOLID_BREP('Body1',#831);
#27=CONICAL_SURFACE('',#876,8.75,0.78539816339745);
#28=CONICAL_SURFACE('',#881,8.75000000000001,0.78539816339745);
#29=CONICAL_SURFACE('',#886,8.75000000000001,0.78539816339745);
#30=CONICAL_SURFACE('',#891,8.75000000000001,0.78539816339745);
#31=CONICAL_SURFACE('',#896,8.75000000000001,0.78539816339745);
#32=CONICAL_SURFACE('',#901,8.75,0.78539816339745);
#33=CONICAL_SURFACE('',#906,8.75,0.78539816339745);
#34=CONICAL_SURFACE('',#911,8.75000000000001,0.78539816339745);
#35=CONICAL_SURFACE('',#916,8.75000000000001,0.78539816339745);
#36=CONICAL_SURFACE('',#921,8.75000000000001,0.78539816339745);
#37=CONICAL_SURFACE('',#926,8.75000000000001,0.78539816339745);
#38=CONICAL_SURFACE('',#931,8.75,0.78539816339745);
#39=FACE_BOUND('',#130,.T.);
#40=FACE_BOUND('',#131,.T.);
#41=FACE_BOUND('',#132,.T.);
#42=FACE_BOUND('',#133,.T.);
#43=FACE_BOUND('',#134,.T.);
#44=FACE_BOUND('',#135,.T.);
#45=FACE_BOUND('',#136,.T.);
#46=FACE_BOUND('',#137,.T.);
#47=FACE_BOUND('',#138,.T.);
#48=FACE_BOUND('',#139,.T.);
#49=FACE_BOUND('',#140,.T.);
#50=FACE_BOUND('',#141,.T.);
#51=PLANE('',#851);
#52=PLANE('',#852);
#53=PLANE('',#870);
#54=PLANE('',#873);
#55=PLANE('',#948);
#56=PLANE('',#949);
#57=PLANE('',#950);
#58=PLANE('',#951);
#59=PLANE('',#952);
#60=PLANE('',#953);
#61=PLANE('',#954);
#62=PLANE('',#955);
#63=PLANE('',#956);
#64=PLANE('',#957);
#65=PLANE('',#958);
#66=PLANE('',#959);
#67=PLANE('',#960);
#68=PLANE('',#961);
#69=FACE_OUTER_BOUND('',#127,.T.);
#70=FACE_OUTER_BOUND('',#128,.T.);
#71=FACE_OUTER_BOUND('',#129,.T.);
#72=FACE_OUTER_BOUND('',#142,.T.);
#73=FACE_OUTER_BOUND('',#143,.T.);
#74=FACE_OUTER_BOUND('',#144,.T.);
#75=FACE_OUTER_BOUND('',#145,.T.);
#76=FACE_OUTER_BOUND('',#146,.T.);
#77=FACE_OUTER_BOUND('',#147,.T.);
#78=FACE_OUTER_BOUND('',#148,.T.);
#79=FACE_OUTER_BOUND('',#149,.T.);
#80=FACE_OUTER_BOUND('',#150,.T.);
#81=FACE_OUTER_BOUND('',#151,.T.);
#82=FACE_OUTER_BOUND('',#152,.T.);
#83=FACE_OUTER_BOUND('',#153,.T.);
#84=FACE_OUTER_BOUND('',#154,.T.);
#85=FACE_OUTER_BOUND('',#155,.T.);
#86=FACE_OUTER_BOUND('',#156,.T.);
#87=FACE_OUTER_BOUND('',#157,.T.);
#88=FACE_OUTER_BOUND('',#158,.T.);
#89=FACE_OUTER_BOUND('',#159,.T.);
#90=FACE_OUTER_BOUND('',#160,.T.);
#91=FACE_OUTER_BOUND('',#161,.T.);
#92=FACE_OUTER_BOUND('',#162,.T.);
#93=FACE_OUTER_BOUND('',#163,.T.);
#94=FACE_OUTER_BOUND('',#164,.T.);
#95=FACE_OUTER_BOUND('',#165,.T.);
#96=FACE_OUTER_BOUND('',#166,.T.);
#97=FACE_OUTER_BOUND('',#167,.T.);
#98=FACE_OUTER_BOUND('',#168,.T.);
#99=FACE_OUTER_BOUND('',#169,.T.);
#100=FACE_OUTER_BOUND('',#170,.T.);
#101=FACE_OUTER_BOUND('',#171,.T.);
#102=FACE_OUTER_BOUND('',#172,.T.);
#103=FACE_OUTER_BOUND('',#173,.T.);
#104=FACE_OUTER_BOUND('',#174,.T.);
#105=FACE_OUTER_BOUND('',#175,.T.);
#106=FACE_OUTER_BOUND('',#176,.T.);
#107=FACE_OUTER_BOUND('',#177,.T.);
#108=FACE_OUTER_BOUND('',#178,.T.);
#109=FACE_OUTER_BOUND('',#179,.T.);
#110=FACE_OUTER_BOUND('',#180,.T.);
#111=FACE_OUTER_BOUND('',#181,.T.);
#112=FACE_OUTER_BOUND('',#182,.T.);
#113=FACE_OUTER_BOUND('',#183,.T.);
#114=FACE_OUTER_BOUND('',#184,.T.);
#115=FACE_OUTER_BOUND('',#185,.T.);
#116=FACE_OUTER_BOUND('',#186,.T.);
#117=FACE_OUTER_BOUND('',#187,.T.);
#118=FACE_OUTER_BOUND('',#188,.T.);
#119=FACE_OUTER_BOUND('',#189,.T.);
#120=FACE_OUTER_BOUND('',#190,.T.);
#121=FACE_OUTER_BOUND('',#191,.T.);
#122=FACE_OUTER_BOUND('',#192,.T.);
#123=FACE_OUTER_BOUND('',#193,.T.);
#124=FACE_OUTER_BOUND('',#194,.T.);
#125=FACE_OUTER_BOUND('',#195,.T.);
#126=FACE_OUTER_BOUND('',#196,.T.);
#127=EDGE_LOOP('',(#529,#530,#531,#532));
#128=EDGE_LOOP('',(#533,#534,#535,#536));
#129=EDGE_LOOP('',(#537,#538,#539,#540,#541,#542,#543,#544));
#130=EDGE_LOOP('',(#545));
#131=EDGE_LOOP('',(#546));
#132=EDGE_LOOP('',(#547));
#133=EDGE_LOOP('',(#548));
#134=EDGE_LOOP('',(#549));
#135=EDGE_LOOP('',(#550));
#136=EDGE_LOOP('',(#551));
#137=EDGE_LOOP('',(#552));
#138=EDGE_LOOP('',(#553));
#139=EDGE_LOOP('',(#554));
#140=EDGE_LOOP('',(#555));
#141=EDGE_LOOP('',(#556));
#142=EDGE_LOOP('',(#557,#558,#559,#560));
#143=EDGE_LOOP('',(#561,#562,#563,#564));
#144=EDGE_LOOP('',(#565,#566,#567,#568));
#145=EDGE_LOOP('',(#569,#570,#571,#572));
#146=EDGE_LOOP('',(#573,#574,#575,#576));
#147=EDGE_LOOP('',(#577,#578,#579,#580));
#148=EDGE_LOOP('',(#581,#582,#583,#584));
#149=EDGE_LOOP('',(#585,#586,#587,#588));
#150=EDGE_LOOP('',(#589,#590,#591,#592));
#151=EDGE_LOOP('',(#593,#594,#595,#596));
#152=EDGE_LOOP('',(#597,#598,#599,#600));
#153=EDGE_LOOP('',(#601,#602,#603,#604));
#154=EDGE_LOOP('',(#605,#606,#607,#608));
#155=EDGE_LOOP('',(#609,#610,#611,#612));
#156=EDGE_LOOP('',(#613,#614,#615,#616));
#157=EDGE_LOOP('',(#617,#618,#619,#620));
#158=EDGE_LOOP('',(#621,#622,#623,#624));
#159=EDGE_LOOP('',(#625,#626,#627,#628));
#160=EDGE_LOOP('',(#629,#630,#631,#632));
#161=EDGE_LOOP('',(#633,#634,#635,#636));
#162=EDGE_LOOP('',(#637,#638,#639,#640));
#163=EDGE_LOOP('',(#641,#642,#643,#644));
#164=EDGE_LOOP('',(#645,#646,#647,#648));
#165=EDGE_LOOP('',(#649,#650,#651,#652));
#166=EDGE_LOOP('',(#653,#654,#655,#656));
#167=EDGE_LOOP('',(#657,#658,#659,#660));
#168=EDGE_LOOP('',(#661,#662,#663,#664));
#169=EDGE_LOOP('',(#665,#666,#667,#668));
#170=EDGE_LOOP('',(#669,#670,#671,#672));
#171=EDGE_LOOP('',(#673,#674,#675,#676));
#172=EDGE_LOOP('',(#677,#678,#679,#680));
#173=EDGE_LOOP('',(#681,#682,#683,#684));
#174=EDGE_LOOP('',(#685,#686,#687,#688));
#175=EDGE_LOOP('',(#689,#690,#691,#692));
#176=EDGE_LOOP('',(#693,#694,#695,#696));
#177=EDGE_LOOP('',(#697,#698,#699,#700));
#178=EDGE_LOOP('',(#701,#702,#703,#704));
#179=EDGE_LOOP('',(#705,#706,#707,#708));
#180=EDGE_LOOP('',(#709,#710,#711,#712));
#181=EDGE_LOOP('',(#713,#714,#715,#716));
#182=EDGE_LOOP('',(#717,#718,#719,#720));
#183=EDGE_LOOP('',(#721));
#184=EDGE_LOOP('',(#722));
#185=EDGE_LOOP('',(#723));
#186=EDGE_LOOP('',(#724));
#187=EDGE_LOOP('',(#725));
#188=EDGE_LOOP('',(#726));
#189=EDGE_LOOP('',(#727));
#190=EDGE_LOOP('',(#728));
#191=EDGE_LOOP('',(#729));
#192=EDGE_LOOP('',(#730));
#193=EDGE_LOOP('',(#731));
#194=EDGE_LOOP('',(#732));
#195=EDGE_LOOP('',(#733,#734,#735,#736));
#196=EDGE_LOOP('',(#737,#738,#739,#740,#741,#742,#743,#744));
#197=LINE('',#1268,#249);
#198=LINE('',#1271,#250);
#199=LINE('',#1274,#251);
#200=LINE('',#1276,#252);
#201=LINE('',#1277,#253);
#202=LINE('',#1280,#254);
#203=LINE('',#1284,#255);
#204=LINE('',#1288,#256);
#205=LINE('',#1316,#257);
#206=LINE('',#1320,#258);
#207=LINE('',#1321,#259);
#208=LINE('',#1324,#260);
#209=LINE('',#1327,#261);
#210=LINE('',#1330,#262);
#211=LINE('',#1331,#263);
#212=LINE('',#1338,#264);
#213=LINE('',#1342,#265);
#214=LINE('',#1348,#266);
#215=LINE('',#1352,#267);
#216=LINE('',#1358,#268);
#217=LINE('',#1362,#269);
#218=LINE('',#1368,#270);
#219=LINE('',#1372,#271);
#220=LINE('',#1378,#272);
#221=LINE('',#1382,#273);
#222=LINE('',#1388,#274);
#223=LINE('',#1392,#275);
#224=LINE('',#1398,#276);
#225=LINE('',#1402,#277);
#226=LINE('',#1408,#278);
#227=LINE('',#1412,#279);
#228=LINE('',#1418,#280);
#229=LINE('',#1422,#281);
#230=LINE('',#1428,#282);
#231=LINE('',#1432,#283);
#232=LINE('',#1438,#284);
#233=LINE('',#1442,#285);
#234=LINE('',#1448,#286);
#235=LINE('',#1452,#287);
#236=LINE('',#1455,#288);
#237=LINE('',#1457,#289);
#238=LINE('',#1459,#290);
#239=LINE('',#1461,#291);
#240=LINE('',#1463,#292);
#241=LINE('',#1465,#293);
#242=LINE('',#1467,#294);
#243=LINE('',#1469,#295);
#244=LINE('',#1471,#296);
#245=LINE('',#1473,#297);
#246=LINE('',#1475,#298);
#247=LINE('',#1477,#299);
#248=LINE('',#1491,#300);
#249=VECTOR('',#977,10.);
#250=VECTOR('',#980,10.);
#251=VECTOR('',#983,10.);
#252=VECTOR('',#984,10.);
#253=VECTOR('',#985,10.);
#254=VECTOR('',#988,10.);
#255=VECTOR('',#991,10.);
#256=VECTOR('',#994,10.);
#257=VECTOR('',#1023,10.);
#258=VECTOR('',#1028,10.);
#259=VECTOR('',#1029,10.);
#260=VECTOR('',#1032,10.);
#261=VECTOR('',#1035,10.);
#262=VECTOR('',#1038,10.);
#263=VECTOR('',#1039,10.);
#264=VECTOR('',#1048,8.75);
#265=VECTOR('',#1053,8.);
#266=VECTOR('',#1060,8.75000000000001);
#267=VECTOR('',#1065,8.00000000000001);
#268=VECTOR('',#1072,8.75000000000001);
#269=VECTOR('',#1077,8.00000000000001);
#270=VECTOR('',#1084,8.75000000000001);
#271=VECTOR('',#1089,8.00000000000001);
#272=VECTOR('',#1096,8.75000000000001);
#273=VECTOR('',#1101,8.00000000000001);
#274=VECTOR('',#1108,8.75);
#275=VECTOR('',#1113,8.);
#276=VECTOR('',#1120,8.75);
#277=VECTOR('',#1125,8.);
#278=VECTOR('',#1132,8.75000000000001);
#279=VECTOR('',#1137,8.00000000000001);
#280=VECTOR('',#1144,8.75000000000001);
#281=VECTOR('',#1149,8.00000000000001);
#282=VECTOR('',#1156,8.75000000000001);
#283=VECTOR('',#1161,8.00000000000001);
#284=VECTOR('',#1168,8.75000000000001);
#285=VECTOR('',#1173,8.00000000000001);
#286=VECTOR('',#1180,8.75);
#287=VECTOR('',#1185,8.);
#288=VECTOR('',#1190,9.49999999999999);
#289=VECTOR('',#1193,9.5);
#290=VECTOR('',#1196,9.49999999999999);
#291=VECTOR('',#1199,9.5);
#292=VECTOR('',#1202,9.49999999999999);
#293=VECTOR('',#1205,9.5);
#294=VECTOR('',#1208,9.49999999999999);
#295=VECTOR('',#1211,9.49999999999999);
#296=VECTOR('',#1214,9.5);
#297=VECTOR('',#1217,9.49999999999999);
#298=VECTOR('',#1220,9.49999999999999);
#299=VECTOR('',#1223,9.49999999999999);
#300=VECTOR('',#1250,10.);
#301=CIRCLE('',#849,5.);
#302=CIRCLE('',#850,5.);
#303=CIRCLE('',#853,5.);
#304=CIRCLE('',#854,5.);
#305=CIRCLE('',#855,5.);
#306=CIRCLE('',#856,9.49999999999999);
#307=CIRCLE('',#857,9.49999999999999);
#308=CIRCLE('',#858,9.49999999999999);
#309=CIRCLE('',#859,9.5);
#310=CIRCLE('',#860,9.49999999999999);
#311=CIRCLE('',#861,9.49999999999999);
#312=CIRCLE('',#862,9.5);
#313=CIRCLE('',#863,9.49999999999999);
#314=CIRCLE('',#864,9.5);
#315=CIRCLE('',#865,9.49999999999999);
#316=CIRCLE('',#866,9.5);
#317=CIRCLE('',#867,9.49999999999999);
#318=CIRCLE('',#869,5.);
#319=CIRCLE('',#872,5.);
#320=CIRCLE('',#875,5.);
#321=CIRCLE('',#877,9.5);
#322=CIRCLE('',#878,8.);
#323=CIRCLE('',#880,8.);
#324=CIRCLE('',#882,9.49999999999999);
#325=CIRCLE('',#883,8.00000000000001);
#326=CIRCLE('',#885,8.00000000000001);
#327=CIRCLE('',#887,9.49999999999999);
#328=CIRCLE('',#888,8.00000000000001);
#329=CIRCLE('',#890,8.00000000000001);
#330=CIRCLE('',#892,9.49999999999999);
#331=CIRCLE('',#893,8.00000000000001);
#332=CIRCLE('',#895,8.00000000000001);
#333=CIRCLE('',#897,9.49999999999999);
#334=CIRCLE('',#898,8.00000000000001);
#335=CIRCLE('',#900,8.00000000000001);
#336=CIRCLE('',#902,9.5);
#337=CIRCLE('',#903,8.);
#338=CIRCLE('',#905,8.);
#339=CIRCLE('',#907,9.5);
#340=CIRCLE('',#908,8.);
#341=CIRCLE('',#910,8.);
#342=CIRCLE('',#912,9.49999999999999);
#343=CIRCLE('',#913,8.00000000000001);
#344=CIRCLE('',#915,8.00000000000001);
#345=CIRCLE('',#917,9.49999999999999);
#346=CIRCLE('',#918,8.00000000000001);
#347=CIRCLE('',#920,8.00000000000001);
#348=CIRCLE('',#922,9.49999999999999);
#349=CIRCLE('',#923,8.00000000000001);
#350=CIRCLE('',#925,8.00000000000001);
#351=CIRCLE('',#927,9.49999999999999);
#352=CIRCLE('',#928,8.00000000000001);
#353=CIRCLE('',#930,8.00000000000001);
#354=CIRCLE('',#932,9.5);
#355=CIRCLE('',#933,8.);
#356=CIRCLE('',#935,8.);
#357=VERTEX_POINT('',#1264);
#358=VERTEX_POINT('',#1265);
#359=VERTEX_POINT('',#1267);
#360=VERTEX_POINT('',#1269);
#361=VERTEX_POINT('',#1273);
#362=VERTEX_POINT('',#1275);
#363=VERTEX_POINT('',#1279);
#364=VERTEX_POINT('',#1281);
#365=VERTEX_POINT('',#1283);
#366=VERTEX_POINT('',#1285);
#367=VERTEX_POINT('',#1287);
#368=VERTEX_POINT('',#1290);
#369=VERTEX_POINT('',#1292);
#370=VERTEX_POINT('',#1294);
#371=VERTEX_POINT('',#1296);
#372=VERTEX_POINT('',#1298);
#373=VERTEX_POINT('',#1300);
#374=VERTEX_POINT('',#1302);
#375=VERTEX_POINT('',#1304);
#376=VERTEX_POINT('',#1306);
#377=VERTEX_POINT('',#1308);
#378=VERTEX_POINT('',#1310);
#379=VERTEX_POINT('',#1312);
#380=VERTEX_POINT('',#1315);
#381=VERTEX_POINT('',#1319);
#382=VERTEX_POINT('',#1323);
#383=VERTEX_POINT('',#1325);
#384=VERTEX_POINT('',#1329);
#385=VERTEX_POINT('',#1335);
#386=VERTEX_POINT('',#1337);
#387=VERTEX_POINT('',#1341);
#388=VERTEX_POINT('',#1345);
#389=VERTEX_POINT('',#1347);
#390=VERTEX_POINT('',#1351);
#391=VERTEX_POINT('',#1355);
#392=VERTEX_POINT('',#1357);
#393=VERTEX_POINT('',#1361);
#394=VERTEX_POINT('',#1365);
#395=VERTEX_POINT('',#1367);
#396=VERTEX_POINT('',#1371);
#397=VERTEX_POINT('',#1375);
#398=VERTEX_POINT('',#1377);
#399=VERTEX_POINT('',#1381);
#400=VERTEX_POINT('',#1385);
#401=VERTEX_POINT('',#1387);
#402=VERTEX_POINT('',#1391);
#403=VERTEX_POINT('',#1395);
#404=VERTEX_POINT('',#1397);
#405=VERTEX_POINT('',#1401);
#406=VERTEX_POINT('',#1405);
#407=VERTEX_POINT('',#1407);
#408=VERTEX_POINT('',#1411);
#409=VERTEX_POINT('',#1415);
#410=VERTEX_POINT('',#1417);
#411=VERTEX_POINT('',#1421);
#412=VERTEX_POINT('',#1425);
#413=VERTEX_POINT('',#1427);
#414=VERTEX_POINT('',#1431);
#415=VERTEX_POINT('',#1435);
#416=VERTEX_POINT('',#1437);
#417=VERTEX_POINT('',#1441);
#418=VERTEX_POINT('',#1445);
#419=VERTEX_POINT('',#1447);
#420=VERTEX_POINT('',#1451);
#421=EDGE_CURVE('',#357,#358,#301,.T.);
#422=EDGE_CURVE('',#358,#359,#197,.T.);
#423=EDGE_CURVE('',#359,#360,#302,.T.);
#424=EDGE_CURVE('',#360,#357,#198,.T.);
#425=EDGE_CURVE('',#361,#358,#199,.T.);
#426=EDGE_CURVE('',#362,#361,#200,.T.);
#427=EDGE_CURVE('',#359,#362,#201,.T.);
#428=EDGE_CURVE('',#357,#363,#202,.T.);
#429=EDGE_CURVE('',#364,#363,#303,.T.);
#430=EDGE_CURVE('',#364,#365,#203,.T.);
#431=EDGE_CURVE('',#366,#365,#304,.T.);
#432=EDGE_CURVE('',#366,#367,#204,.T.);
#433=EDGE_CURVE('',#361,#367,#305,.T.);
#434=EDGE_CURVE('',#368,#368,#306,.T.);
#435=EDGE_CURVE('',#369,#369,#307,.T.);
#436=EDGE_CURVE('',#370,#370,#308,.T.);
#437=EDGE_CURVE('',#371,#371,#309,.T.);
#438=EDGE_CURVE('',#372,#372,#310,.T.);
#439=EDGE_CURVE('',#373,#373,#311,.T.);
#440=EDGE_CURVE('',#374,#374,#312,.T.);
#441=EDGE_CURVE('',#375,#375,#313,.T.);
#442=EDGE_CURVE('',#376,#376,#314,.T.);
#443=EDGE_CURVE('',#377,#377,#315,.T.);
#444=EDGE_CURVE('',#378,#378,#316,.T.);
#445=EDGE_CURVE('',#379,#379,#317,.T.);
#446=EDGE_CURVE('',#367,#380,#205,.T.);
#447=EDGE_CURVE('',#380,#362,#318,.T.);
#448=EDGE_CURVE('',#381,#366,#206,.T.);
#449=EDGE_CURVE('',#380,#381,#207,.T.);
#450=EDGE_CURVE('',#363,#382,#208,.T.);
#451=EDGE_CURVE('',#382,#383,#319,.T.);
#452=EDGE_CURVE('',#383,#364,#209,.T.);
#453=EDGE_CURVE('',#384,#383,#210,.T.);
#454=EDGE_CURVE('',#365,#384,#211,.T.);
#455=EDGE_CURVE('',#384,#381,#320,.T.);
#456=EDGE_CURVE('',#385,#385,#321,.T.);
#457=EDGE_CURVE('',#385,#386,#212,.T.);
#458=EDGE_CURVE('',#386,#386,#322,.T.);
#459=EDGE_CURVE('',#386,#387,#213,.T.);
#460=EDGE_CURVE('',#387,#387,#323,.T.);
#461=EDGE_CURVE('',#388,#388,#324,.T.);
#462=EDGE_CURVE('',#388,#389,#214,.T.);
#463=EDGE_CURVE('',#389,#389,#325,.T.);
#464=EDGE_CURVE('',#389,#390,#215,.T.);
#465=EDGE_CURVE('',#390,#390,#326,.T.);
#466=EDGE_CURVE('',#391,#391,#327,.T.);
#467=EDGE_CURVE('',#391,#392,#216,.T.);
#468=EDGE_CURVE('',#392,#392,#328,.T.);
#469=EDGE_CURVE('',#392,#393,#217,.T.);
#470=EDGE_CURVE('',#393,#393,#329,.T.);
#471=EDGE_CURVE('',#394,#394,#330,.T.);
#472=EDGE_CURVE('',#394,#395,#218,.T.);
#473=EDGE_CURVE('',#395,#395,#331,.T.);
#474=EDGE_CURVE('',#395,#396,#219,.T.);
#475=EDGE_CURVE('',#396,#396,#332,.T.);
#476=EDGE_CURVE('',#397,#397,#333,.T.);
#477=EDGE_CURVE('',#397,#398,#220,.T.);
#478=EDGE_CURVE('',#398,#398,#334,.T.);
#479=EDGE_CURVE('',#398,#399,#221,.T.);
#480=EDGE_CURVE('',#399,#399,#335,.T.);
#481=EDGE_CURVE('',#400,#400,#336,.T.);
#482=EDGE_CURVE('',#400,#401,#222,.T.);
#483=EDGE_CURVE('',#401,#401,#337,.T.);
#484=EDGE_CURVE('',#401,#402,#223,.T.);
#485=EDGE_CURVE('',#402,#402,#338,.T.);
#486=EDGE_CURVE('',#403,#403,#339,.T.);
#487=EDGE_CURVE('',#403,#404,#224,.T.);
#488=EDGE_CURVE('',#404,#404,#340,.T.);
#489=EDGE_CURVE('',#404,#405,#225,.T.);
#490=EDGE_CURVE('',#405,#405,#341,.T.);
#491=EDGE_CURVE('',#406,#406,#342,.T.);
#492=EDGE_CURVE('',#406,#407,#226,.T.);
#493=EDGE_CURVE('',#407,#407,#343,.T.);
#494=EDGE_CURVE('',#407,#408,#227,.T.);
#495=EDGE_CURVE('',#408,#408,#344,.T.);
#496=EDGE_CURVE('',#409,#409,#345,.T.);
#497=EDGE_CURVE('',#409,#410,#228,.T.);
#498=EDGE_CURVE('',#410,#410,#346,.T.);
#499=EDGE_CURVE('',#410,#411,#229,.T.);
#500=EDGE_CURVE('',#411,#411,#347,.T.);
#501=EDGE_CURVE('',#412,#412,#348,.T.);
#502=EDGE_CURVE('',#412,#413,#230,.T.);
#503=EDGE_CURVE('',#413,#413,#349,.T.);
#504=EDGE_CURVE('',#413,#414,#231,.T.);
#505=EDGE_CURVE('',#414,#414,#350,.T.);
#506=EDGE_CURVE('',#415,#415,#351,.T.);
#507=EDGE_CURVE('',#415,#416,#232,.T.);
#508=EDGE_CURVE('',#416,#416,#352,.T.);
#509=EDGE_CURVE('',#416,#417,#233,.T.);
#510=EDGE_CURVE('',#417,#417,#353,.T.);
#511=EDGE_CURVE('',#418,#418,#354,.T.);
#512=EDGE_CURVE('',#418,#419,#234,.T.);
#513=EDGE_CURVE('',#419,#419,#355,.T.);
#514=EDGE_CURVE('',#419,#420,#235,.T.);
#515=EDGE_CURVE('',#420,#420,#356,.T.);
#516=EDGE_CURVE('',#379,#409,#236,.T.);
#517=EDGE_CURVE('',#378,#400,#237,.T.);
#518=EDGE_CURVE('',#377,#412,#238,.T.);
#519=EDGE_CURVE('',#376,#403,#239,.T.);
#520=EDGE_CURVE('',#375,#415,#240,.T.);
#521=EDGE_CURVE('',#374,#418,#241,.T.);
#522=EDGE_CURVE('',#373,#388,#242,.T.);
#523=EDGE_CURVE('',#372,#397,#243,.T.);
#524=EDGE_CURVE('',#371,#385,#244,.T.);
#525=EDGE_CURVE('',#370,#391,#245,.T.);
#526=EDGE_CURVE('',#369,#406,#246,.T.);
#527=EDGE_CURVE('',#368,#394,#247,.T.);
#528=EDGE_CURVE('',#382,#360,#248,.T.);
#529=ORIENTED_EDGE('',*,*,#421,.T.);
#530=ORIENTED_EDGE('',*,*,#422,.T.);
#531=ORIENTED_EDGE('',*,*,#423,.T.);
#532=ORIENTED_EDGE('',*,*,#424,.T.);
#533=ORIENTED_EDGE('',*,*,#422,.F.);
#534=ORIENTED_EDGE('',*,*,#425,.F.);
#535=ORIENTED_EDGE('',*,*,#426,.F.);
#536=ORIENTED_EDGE('',*,*,#427,.F.);
#537=ORIENTED_EDGE('',*,*,#421,.F.);
#538=ORIENTED_EDGE('',*,*,#428,.T.);
#539=ORIENTED_EDGE('',*,*,#429,.F.);
#540=ORIENTED_EDGE('',*,*,#430,.T.);
#541=ORIENTED_EDGE('',*,*,#431,.F.);
#542=ORIENTED_EDGE('',*,*,#432,.T.);
#543=ORIENTED_EDGE('',*,*,#433,.F.);
#544=ORIENTED_EDGE('',*,*,#425,.T.);
#545=ORIENTED_EDGE('',*,*,#434,.T.);
#546=ORIENTED_EDGE('',*,*,#435,.T.);
#547=ORIENTED_EDGE('',*,*,#436,.T.);
#548=ORIENTED_EDGE('',*,*,#437,.T.);
#549=ORIENTED_EDGE('',*,*,#438,.T.);
#550=ORIENTED_EDGE('',*,*,#439,.T.);
#551=ORIENTED_EDGE('',*,*,#440,.T.);
#552=ORIENTED_EDGE('',*,*,#441,.T.);
#553=ORIENTED_EDGE('',*,*,#442,.T.);
#554=ORIENTED_EDGE('',*,*,#443,.T.);
#555=ORIENTED_EDGE('',*,*,#444,.T.);
#556=ORIENTED_EDGE('',*,*,#445,.T.);
#557=ORIENTED_EDGE('',*,*,#433,.T.);
#558=ORIENTED_EDGE('',*,*,#446,.T.);
#559=ORIENTED_EDGE('',*,*,#447,.T.);
#560=ORIENTED_EDGE('',*,*,#426,.T.);
#561=ORIENTED_EDGE('',*,*,#446,.F.);
#562=ORIENTED_EDGE('',*,*,#432,.F.);
#563=ORIENTED_EDGE('',*,*,#448,.F.);
#564=ORIENTED_EDGE('',*,*,#449,.F.);
#565=ORIENTED_EDGE('',*,*,#429,.T.);
#566=ORIENTED_EDGE('',*,*,#450,.T.);
#567=ORIENTED_EDGE('',*,*,#451,.T.);
#568=ORIENTED_EDGE('',*,*,#452,.T.);
#569=ORIENTED_EDGE('',*,*,#452,.F.);
#570=ORIENTED_EDGE('',*,*,#453,.F.);
#571=ORIENTED_EDGE('',*,*,#454,.F.);
#572=ORIENTED_EDGE('',*,*,#430,.F.);
#573=ORIENTED_EDGE('',*,*,#431,.T.);
#574=ORIENTED_EDGE('',*,*,#454,.T.);
#575=ORIENTED_EDGE('',*,*,#455,.T.);
#576=ORIENTED_EDGE('',*,*,#448,.T.);
#577=ORIENTED_EDGE('',*,*,#456,.T.);
#578=ORIENTED_EDGE('',*,*,#457,.T.);
#579=ORIENTED_EDGE('',*,*,#458,.T.);
#580=ORIENTED_EDGE('',*,*,#457,.F.);
#581=ORIENTED_EDGE('',*,*,#458,.F.);
#582=ORIENTED_EDGE('',*,*,#459,.T.);
#583=ORIENTED_EDGE('',*,*,#460,.F.);
#584=ORIENTED_EDGE('',*,*,#459,.F.);
#585=ORIENTED_EDGE('',*,*,#461,.T.);
#586=ORIENTED_EDGE('',*,*,#462,.T.);
#587=ORIENTED_EDGE('',*,*,#463,.T.);
#588=ORIENTED_EDGE('',*,*,#462,.F.);
#589=ORIENTED_EDGE('',*,*,#463,.F.);
#590=ORIENTED_EDGE('',*,*,#464,.T.);
#591=ORIENTED_EDGE('',*,*,#465,.F.);
#592=ORIENTED_EDGE('',*,*,#464,.F.);
#593=ORIENTED_EDGE('',*,*,#466,.T.);
#594=ORIENTED_EDGE('',*,*,#467,.T.);
#595=ORIENTED_EDGE('',*,*,#468,.T.);
#596=ORIENTED_EDGE('',*,*,#467,.F.);
#597=ORIENTED_EDGE('',*,*,#468,.F.);
#598=ORIENTED_EDGE('',*,*,#469,.T.);
#599=ORIENTED_EDGE('',*,*,#470,.F.);
#600=ORIENTED_EDGE('',*,*,#469,.F.);
#601=ORIENTED_EDGE('',*,*,#471,.T.);
#602=ORIENTED_EDGE('',*,*,#472,.T.);
#603=ORIENTED_EDGE('',*,*,#473,.T.);
#604=ORIENTED_EDGE('',*,*,#472,.F.);
#605=ORIENTED_EDGE('',*,*,#473,.F.);
#606=ORIENTED_EDGE('',*,*,#474,.T.);
#607=ORIENTED_EDGE('',*,*,#475,.F.);
#608=ORIENTED_EDGE('',*,*,#474,.F.);
#609=ORIENTED_EDGE('',*,*,#476,.T.);
#610=ORIENTED_EDGE('',*,*,#477,.T.);
#611=ORIENTED_EDGE('',*,*,#478,.T.);
#612=ORIENTED_EDGE('',*,*,#477,.F.);
#613=ORIENTED_EDGE('',*,*,#478,.F.);
#614=ORIENTED_EDGE('',*,*,#479,.T.);
#615=ORIENTED_EDGE('',*,*,#480,.F.);
#616=ORIENTED_EDGE('',*,*,#479,.F.);
#617=ORIENTED_EDGE('',*,*,#481,.T.);
#618=ORIENTED_EDGE('',*,*,#482,.T.);
#619=ORIENTED_EDGE('',*,*,#483,.T.);
#620=ORIENTED_EDGE('',*,*,#482,.F.);
#621=ORIENTED_EDGE('',*,*,#483,.F.);
#622=ORIENTED_EDGE('',*,*,#484,.T.);
#623=ORIENTED_EDGE('',*,*,#485,.F.);
#624=ORIENTED_EDGE('',*,*,#484,.F.);
#625=ORIENTED_EDGE('',*,*,#486,.T.);
#626=ORIENTED_EDGE('',*,*,#487,.T.);
#627=ORIENTED_EDGE('',*,*,#488,.T.);
#628=ORIENTED_EDGE('',*,*,#487,.F.);
#629=ORIENTED_EDGE('',*,*,#488,.F.);
#630=ORIENTED_EDGE('',*,*,#489,.T.);
#631=ORIENTED_EDGE('',*,*,#490,.F.);
#632=ORIENTED_EDGE('',*,*,#489,.F.);
#633=ORIENTED_EDGE('',*,*,#491,.T.);
#634=ORIENTED_EDGE('',*,*,#492,.T.);
#635=ORIENTED_EDGE('',*,*,#493,.T.);
#636=ORIENTED_EDGE('',*,*,#492,.F.);
#637=ORIENTED_EDGE('',*,*,#493,.F.);
#638=ORIENTED_EDGE('',*,*,#494,.T.);
#639=ORIENTED_EDGE('',*,*,#495,.F.);
#640=ORIENTED_EDGE('',*,*,#494,.F.);
#641=ORIENTED_EDGE('',*,*,#496,.T.);
#642=ORIENTED_EDGE('',*,*,#497,.T.);
#643=ORIENTED_EDGE('',*,*,#498,.T.);
#644=ORIENTED_EDGE('',*,*,#497,.F.);
#645=ORIENTED_EDGE('',*,*,#498,.F.);
#646=ORIENTED_EDGE('',*,*,#499,.T.);
#647=ORIENTED_EDGE('',*,*,#500,.F.);
#648=ORIENTED_EDGE('',*,*,#499,.F.);
#649=ORIENTED_EDGE('',*,*,#501,.T.);
#650=ORIENTED_EDGE('',*,*,#502,.T.);
#651=ORIENTED_EDGE('',*,*,#503,.T.);
#652=ORIENTED_EDGE('',*,*,#502,.F.);
#653=ORIENTED_EDGE('',*,*,#503,.F.);
#654=ORIENTED_EDGE('',*,*,#504,.T.);
#655=ORIENTED_EDGE('',*,*,#505,.F.);
#656=ORIENTED_EDGE('',*,*,#504,.F.);
#657=ORIENTED_EDGE('',*,*,#506,.T.);
#658=ORIENTED_EDGE('',*,*,#507,.T.);
#659=ORIENTED_EDGE('',*,*,#508,.T.);
#660=ORIENTED_EDGE('',*,*,#507,.F.);
#661=ORIENTED_EDGE('',*,*,#508,.F.);
#662=ORIENTED_EDGE('',*,*,#509,.T.);
#663=ORIENTED_EDGE('',*,*,#510,.F.);
#664=ORIENTED_EDGE('',*,*,#509,.F.);
#665=ORIENTED_EDGE('',*,*,#511,.T.);
#666=ORIENTED_EDGE('',*,*,#512,.T.);
#667=ORIENTED_EDGE('',*,*,#513,.T.);
#668=ORIENTED_EDGE('',*,*,#512,.F.);
#669=ORIENTED_EDGE('',*,*,#513,.F.);
#670=ORIENTED_EDGE('',*,*,#514,.T.);
#671=ORIENTED_EDGE('',*,*,#515,.F.);
#672=ORIENTED_EDGE('',*,*,#514,.F.);
#673=ORIENTED_EDGE('',*,*,#445,.F.);
#674=ORIENTED_EDGE('',*,*,#516,.T.);
#675=ORIENTED_EDGE('',*,*,#496,.F.);
#676=ORIENTED_EDGE('',*,*,#516,.F.);
#677=ORIENTED_EDGE('',*,*,#444,.F.);
#678=ORIENTED_EDGE('',*,*,#517,.T.);
#679=ORIENTED_EDGE('',*,*,#481,.F.);
#680=ORIENTED_EDGE('',*,*,#517,.F.);
#681=ORIENTED_EDGE('',*,*,#443,.F.);
#682=ORIENTED_EDGE('',*,*,#518,.T.);
#683=ORIENTED_EDGE('',*,*,#501,.F.);
#684=ORIENTED_EDGE('',*,*,#518,.F.);
#685=ORIENTED_EDGE('',*,*,#442,.F.);
#686=ORIENTED_EDGE('',*,*,#519,.T.);
#687=ORIENTED_EDGE('',*,*,#486,.F.);
#688=ORIENTED_EDGE('',*,*,#519,.F.);
#689=ORIENTED_EDGE('',*,*,#441,.F.);
#690=ORIENTED_EDGE('',*,*,#520,.T.);
#691=ORIENTED_EDGE('',*,*,#506,.F.);
#692=ORIENTED_EDGE('',*,*,#520,.F.);
#693=ORIENTED_EDGE('',*,*,#440,.F.);
#694=ORIENTED_EDGE('',*,*,#521,.T.);
#695=ORIENTED_EDGE('',*,*,#511,.F.);
#696=ORIENTED_EDGE('',*,*,#521,.F.);
#697=ORIENTED_EDGE('',*,*,#439,.F.);
#698=ORIENTED_EDGE('',*,*,#522,.T.);
#699=ORIENTED_EDGE('',*,*,#461,.F.);
#700=ORIENTED_EDGE('',*,*,#522,.F.);
#701=ORIENTED_EDGE('',*,*,#438,.F.);
#702=ORIENTED_EDGE('',*,*,#523,.T.);
#703=ORIENTED_EDGE('',*,*,#476,.F.);
#704=ORIENTED_EDGE('',*,*,#523,.F.);
#705=ORIENTED_EDGE('',*,*,#437,.F.);
#706=ORIENTED_EDGE('',*,*,#524,.T.);
#707=ORIENTED_EDGE('',*,*,#456,.F.);
#708=ORIENTED_EDGE('',*,*,#524,.F.);
#709=ORIENTED_EDGE('',*,*,#436,.F.);
#710=ORIENTED_EDGE('',*,*,#525,.T.);
#711=ORIENTED_EDGE('',*,*,#466,.F.);
#712=ORIENTED_EDGE('',*,*,#525,.F.);
#713=ORIENTED_EDGE('',*,*,#435,.F.);
#714=ORIENTED_EDGE('',*,*,#526,.T.);
#715=ORIENTED_EDGE('',*,*,#491,.F.);
#716=ORIENTED_EDGE('',*,*,#526,.F.);
#717=ORIENTED_EDGE('',*,*,#434,.F.);
#718=ORIENTED_EDGE('',*,*,#527,.T.);
#719=ORIENTED_EDGE('',*,*,#471,.F.);
#720=ORIENTED_EDGE('',*,*,#527,.F.);
#721=ORIENTED_EDGE('',*,*,#470,.T.);
#722=ORIENTED_EDGE('',*,*,#480,.T.);
#723=ORIENTED_EDGE('',*,*,#515,.T.);
#724=ORIENTED_EDGE('',*,*,#510,.T.);
#725=ORIENTED_EDGE('',*,*,#505,.T.);
#726=ORIENTED_EDGE('',*,*,#465,.T.);
#727=ORIENTED_EDGE('',*,*,#485,.T.);
#728=ORIENTED_EDGE('',*,*,#500,.T.);
#729=ORIENTED_EDGE('',*,*,#490,.T.);
#730=ORIENTED_EDGE('',*,*,#475,.T.);
#731=ORIENTED_EDGE('',*,*,#460,.T.);
#732=ORIENTED_EDGE('',*,*,#495,.T.);
#733=ORIENTED_EDGE('',*,*,#424,.F.);
#734=ORIENTED_EDGE('',*,*,#528,.F.);
#735=ORIENTED_EDGE('',*,*,#450,.F.);
#736=ORIENTED_EDGE('',*,*,#428,.F.);
#737=ORIENTED_EDGE('',*,*,#423,.F.);
#738=ORIENTED_EDGE('',*,*,#427,.T.);
#739=ORIENTED_EDGE('',*,*,#447,.F.);
#740=ORIENTED_EDGE('',*,*,#449,.T.);
#741=ORIENTED_EDGE('',*,*,#455,.F.);
#742=ORIENTED_EDGE('',*,*,#453,.T.);
#743=ORIENTED_EDGE('',*,*,#451,.F.);
#744=ORIENTED_EDGE('',*,*,#528,.T.);
#745=CYLINDRICAL_SURFACE('',#848,5.);
#746=CYLINDRICAL_SURFACE('',#868,5.);
#747=CYLINDRICAL_SURFACE('',#871,5.);
#748=CYLINDRICAL_SURFACE('',#874,5.);
#749=CYLINDRICAL_SURFACE('',#879,8.);
#750=CYLINDRICAL_SURFACE('',#884,8.00000000000001);
#751=CYLINDRICAL_SURFACE('',#889,8.00000000000001);
#752=CYLINDRICAL_SURFACE('',#894,8.00000000000001);
#753=CYLINDRICAL_SURFACE('',#899,8.00000000000001);
#754=CYLINDRICAL_SURFACE('',#904,8.);
#755=CYLINDRICAL_SURFACE('',#909,8.);
#756=CYLINDRICAL_SURFACE('',#914,8.00000000000001);
#757=CYLINDRICAL_SURFACE('',#919,8.00000000000001);
#758=CYLINDRICAL_SURFACE('',#924,8.00000000000001);
#759=CYLINDRICAL_SURFACE('',#929,8.00000000000001);
#760=CYLINDRICAL_SURFACE('',#934,8.);
#761=CYLINDRICAL_SURFACE('',#936,9.49999999999999);
#762=CYLINDRICAL_SURFACE('',#937,9.5);
#763=CYLINDRICAL_SURFACE('',#938,9.49999999999999);
#764=CYLINDRICAL_SURFACE('',#939,9.5);
#765=CYLINDRICAL_SURFACE('',#940,9.49999999999999);
#766=CYLINDRICAL_SURFACE('',#941,9.5);
#767=CYLINDRICAL_SURFACE('',#942,9.49999999999999);
#768=CYLINDRICAL_SURFACE('',#943,9.49999999999999);
#769=CYLINDRICAL_SURFACE('',#944,9.5);
#770=CYLINDRICAL_SURFACE('',#945,9.49999999999999);
#771=CYLINDRICAL_SURFACE('',#946,9.49999999999999);
#772=CYLINDRICAL_SURFACE('',#947,9.49999999999999);
#773=ADVANCED_FACE('',(#69),#745,.T.);
#774=ADVANCED_FACE('',(#70),#51,.T.);
#775=ADVANCED_FACE('',(#71,#39,#40,#41,#42,#43,#44,#45,#46,#47,#48,#49,
#50),#52,.T.);
#776=ADVANCED_FACE('',(#72),#746,.T.);
#777=ADVANCED_FACE('',(#73),#53,.T.);
#778=ADVANCED_FACE('',(#74),#747,.T.);
#779=ADVANCED_FACE('',(#75),#54,.T.);
#780=ADVANCED_FACE('',(#76),#748,.T.);
#781=ADVANCED_FACE('',(#77),#27,.F.);
#782=ADVANCED_FACE('',(#78),#749,.F.);
#783=ADVANCED_FACE('',(#79),#28,.F.);
#784=ADVANCED_FACE('',(#80),#750,.F.);
#785=ADVANCED_FACE('',(#81),#29,.F.);
#786=ADVANCED_FACE('',(#82),#751,.F.);
#787=ADVANCED_FACE('',(#83),#30,.F.);
#788=ADVANCED_FACE('',(#84),#752,.F.);
#789=ADVANCED_FACE('',(#85),#31,.F.);
#790=ADVANCED_FACE('',(#86),#753,.F.);
#791=ADVANCED_FACE('',(#87),#32,.F.);
#792=ADVANCED_FACE('',(#88),#754,.F.);
#793=ADVANCED_FACE('',(#89),#33,.F.);
#794=ADVANCED_FACE('',(#90),#755,.F.);
#795=ADVANCED_FACE('',(#91),#34,.F.);
#796=ADVANCED_FACE('',(#92),#756,.F.);
#797=ADVANCED_FACE('',(#93),#35,.F.);
#798=ADVANCED_FACE('',(#94),#757,.F.);
#799=ADVANCED_FACE('',(#95),#36,.F.);
#800=ADVANCED_FACE('',(#96),#758,.F.);
#801=ADVANCED_FACE('',(#97),#37,.F.);
#802=ADVANCED_FACE('',(#98),#759,.F.);
#803=ADVANCED_FACE('',(#99),#38,.F.);
#804=ADVANCED_FACE('',(#100),#760,.F.);
#805=ADVANCED_FACE('',(#101),#761,.F.);
#806=ADVANCED_FACE('',(#102),#762,.F.);
#807=ADVANCED_FACE('',(#103),#763,.F.);
#808=ADVANCED_FACE('',(#104),#764,.F.);
#809=ADVANCED_FACE('',(#105),#765,.F.);
#810=ADVANCED_FACE('',(#106),#766,.F.);
#811=ADVANCED_FACE('',(#107),#767,.F.);
#812=ADVANCED_FACE('',(#108),#768,.F.);
#813=ADVANCED_FACE('',(#109),#769,.F.);
#814=ADVANCED_FACE('',(#110),#770,.F.);
#815=ADVANCED_FACE('',(#111),#771,.F.);
#816=ADVANCED_FACE('',(#112),#772,.F.);
#817=ADVANCED_FACE('',(#113),#55,.T.);
#818=ADVANCED_FACE('',(#114),#56,.T.);
#819=ADVANCED_FACE('',(#115),#57,.T.);
#820=ADVANCED_FACE('',(#116),#58,.T.);
#821=ADVANCED_FACE('',(#117),#59,.T.);
#822=ADVANCED_FACE('',(#118),#60,.T.);
#823=ADVANCED_FACE('',(#119),#61,.T.);
#824=ADVANCED_FACE('',(#120),#62,.T.);
#825=ADVANCED_FACE('',(#121),#63,.T.);
#826=ADVANCED_FACE('',(#122),#64,.T.);
#827=ADVANCED_FACE('',(#123),#65,.T.);
#828=ADVANCED_FACE('',(#124),#66,.T.);
#829=ADVANCED_FACE('',(#125),#67,.T.);
#830=ADVANCED_FACE('',(#126),#68,.F.);
#831=CLOSED_SHELL('',(#773,#774,#775,#776,#777,#778,#779,#780,#781,#782,
#783,#784,#785,#786,#787,#788,#789,#790,#791,#792,#793,#794,#795,#796,#797,
#798,#799,#800,#801,#802,#803,#804,#805,#806,#807,#808,#809,#810,#811,#812,
#813,#814,#815,#816,#817,#818,#819,#820,#821,#822,#823,#824,#825,#826,#827,
#828,#829,#830));
#832=DERIVED_UNIT_ELEMENT(#834,1.);
#833=DERIVED_UNIT_ELEMENT(#1507,-3.);
#834=(
MASS_UNIT()
NAMED_UNIT(*)
SI_UNIT(.KILO.,.GRAM.)
);
#835=DERIVED_UNIT((#832,#833));
#836=MEASURE_REPRESENTATION_ITEM('density measure',
POSITIVE_RATIO_MEASURE(7850.),#835);
#837=PROPERTY_DEFINITION_REPRESENTATION(#842,#839);
#838=PROPERTY_DEFINITION_REPRESENTATION(#843,#840);
#839=REPRESENTATION('material name',(#841),#1504);
#840=REPRESENTATION('density',(#836),#1504);
#841=DESCRIPTIVE_REPRESENTATION_ITEM('Steel','Steel');
#842=PROPERTY_DEFINITION('material property','material name',#1529);
#843=PROPERTY_DEFINITION('material property','density of part',#1529);
#844=AXIS2_PLACEMENT_3D('',#1259,#965,#966);
#845=AXIS2_PLACEMENT_3D('',#1260,#967,#968);
#846=AXIS2_PLACEMENT_3D('',#1261,#969,#970);
#847=AXIS2_PLACEMENT_3D('',#1262,#971,#972);
#848=AXIS2_PLACEMENT_3D('',#1263,#973,#974);
#849=AXIS2_PLACEMENT_3D('',#1266,#975,#976);
#850=AXIS2_PLACEMENT_3D('',#1270,#978,#979);
#851=AXIS2_PLACEMENT_3D('',#1272,#981,#982);
#852=AXIS2_PLACEMENT_3D('',#1278,#986,#987);
#853=AXIS2_PLACEMENT_3D('',#1282,#989,#990);
#854=AXIS2_PLACEMENT_3D('',#1286,#992,#993);
#855=AXIS2_PLACEMENT_3D('',#1289,#995,#996);
#856=AXIS2_PLACEMENT_3D('',#1291,#997,#998);
#857=AXIS2_PLACEMENT_3D('',#1293,#999,#1000);
#858=AXIS2_PLACEMENT_3D('',#1295,#1001,#1002);
#859=AXIS2_PLACEMENT_3D('',#1297,#1003,#1004);
#860=AXIS2_PLACEMENT_3D('',#1299,#1005,#1006);
#861=AXIS2_PLACEMENT_3D('',#1301,#1007,#1008);
#862=AXIS2_PLACEMENT_3D('',#1303,#1009,#1010);
#863=AXIS2_PLACEMENT_3D('',#1305,#1011,#1012);
#864=AXIS2_PLACEMENT_3D('',#1307,#1013,#1014);
#865=AXIS2_PLACEMENT_3D('',#1309,#1015,#1016);
#866=AXIS2_PLACEMENT_3D('',#1311,#1017,#1018);
#867=AXIS2_PLACEMENT_3D('',#1313,#1019,#1020);
#868=AXIS2_PLACEMENT_3D('',#1314,#1021,#1022);
#869=AXIS2_PLACEMENT_3D('',#1317,#1024,#1025);
#870=AXIS2_PLACEMENT_3D('',#1318,#1026,#1027);
#871=AXIS2_PLACEMENT_3D('',#1322,#1030,#1031);
#872=AXIS2_PLACEMENT_3D('',#1326,#1033,#1034);
#873=AXIS2_PLACEMENT_3D('',#1328,#1036,#1037);
#874=AXIS2_PLACEMENT_3D('',#1332,#1040,#1041);
#875=AXIS2_PLACEMENT_3D('',#1333,#1042,#1043);
#876=AXIS2_PLACEMENT_3D('',#1334,#1044,#1045);
#877=AXIS2_PLACEMENT_3D('',#1336,#1046,#1047);
#878=AXIS2_PLACEMENT_3D('',#1339,#1049,#1050);
#879=AXIS2_PLACEMENT_3D('',#1340,#1051,#1052);
#880=AXIS2_PLACEMENT_3D('',#1343,#1054,#1055);
#881=AXIS2_PLACEMENT_3D('',#1344,#1056,#1057);
#882=AXIS2_PLACEMENT_3D('',#1346,#1058,#1059);
#883=AXIS2_PLACEMENT_3D('',#1349,#1061,#1062);
#884=AXIS2_PLACEMENT_3D('',#1350,#1063,#1064);
#885=AXIS2_PLACEMENT_3D('',#1353,#1066,#1067);
#886=AXIS2_PLACEMENT_3D('',#1354,#1068,#1069);
#887=AXIS2_PLACEMENT_3D('',#1356,#1070,#1071);
#888=AXIS2_PLACEMENT_3D('',#1359,#1073,#1074);
#889=AXIS2_PLACEMENT_3D('',#1360,#1075,#1076);
#890=AXIS2_PLACEMENT_3D('',#1363,#1078,#1079);
#891=AXIS2_PLACEMENT_3D('',#1364,#1080,#1081);
#892=AXIS2_PLACEMENT_3D('',#1366,#1082,#1083);
#893=AXIS2_PLACEMENT_3D('',#1369,#1085,#1086);
#894=AXIS2_PLACEMENT_3D('',#1370,#1087,#1088);
#895=AXIS2_PLACEMENT_3D('',#1373,#1090,#1091);
#896=AXIS2_PLACEMENT_3D('',#1374,#1092,#1093);
#897=AXIS2_PLACEMENT_3D('',#1376,#1094,#1095);
#898=AXIS2_PLACEMENT_3D('',#1379,#1097,#1098);
#899=AXIS2_PLACEMENT_3D('',#1380,#1099,#1100);
#900=AXIS2_PLACEMENT_3D('',#1383,#1102,#1103);
#901=AXIS2_PLACEMENT_3D('',#1384,#1104,#1105);
#902=AXIS2_PLACEMENT_3D('',#1386,#1106,#1107);
#903=AXIS2_PLACEMENT_3D('',#1389,#1109,#1110);
#904=AXIS2_PLACEMENT_3D('',#1390,#1111,#1112);
#905=AXIS2_PLACEMENT_3D('',#1393,#1114,#1115);
#906=AXIS2_PLACEMENT_3D('',#1394,#1116,#1117);
#907=AXIS2_PLACEMENT_3D('',#1396,#1118,#1119);
#908=AXIS2_PLACEMENT_3D('',#1399,#1121,#1122);
#909=AXIS2_PLACEMENT_3D('',#1400,#1123,#1124);
#910=AXIS2_PLACEMENT_3D('',#1403,#1126,#1127);
#911=AXIS2_PLACEMENT_3D('',#1404,#1128,#1129);
#912=AXIS2_PLACEMENT_3D('',#1406,#1130,#1131);
#913=AXIS2_PLACEMENT_3D('',#1409,#1133,#1134);
#914=AXIS2_PLACEMENT_3D('',#1410,#1135,#1136);
#915=AXIS2_PLACEMENT_3D('',#1413,#1138,#1139);
#916=AXIS2_PLACEMENT_3D('',#1414,#1140,#1141);
#917=AXIS2_PLACEMENT_3D('',#1416,#1142,#1143);
#918=AXIS2_PLACEMENT_3D('',#1419,#1145,#1146);
#919=AXIS2_PLACEMENT_3D('',#1420,#1147,#1148);
#920=AXIS2_PLACEMENT_3D('',#1423,#1150,#1151);
#921=AXIS2_PLACEMENT_3D('',#1424,#1152,#1153);
#922=AXIS2_PLACEMENT_3D('',#1426,#1154,#1155);
#923=AXIS2_PLACEMENT_3D('',#1429,#1157,#1158);
#924=AXIS2_PLACEMENT_3D('',#1430,#1159,#1160);
#925=AXIS2_PLACEMENT_3D('',#1433,#1162,#1163);
#926=AXIS2_PLACEMENT_3D('',#1434,#1164,#1165);
#927=AXIS2_PLACEMENT_3D('',#1436,#1166,#1167);
#928=AXIS2_PLACEMENT_3D('',#1439,#1169,#1170);
#929=AXIS2_PLACEMENT_3D('',#1440,#1171,#1172);
#930=AXIS2_PLACEMENT_3D('',#1443,#1174,#1175);
#931=AXIS2_PLACEMENT_3D('',#1444,#1176,#1177);
#932=AXIS2_PLACEMENT_3D('',#1446,#1178,#1179);
#933=AXIS2_PLACEMENT_3D('',#1449,#1181,#1182);
#934=AXIS2_PLACEMENT_3D('',#1450,#1183,#1184);
#935=AXIS2_PLACEMENT_3D('',#1453,#1186,#1187);
#936=AXIS2_PLACEMENT_3D('',#1454,#1188,#1189);
#937=AXIS2_PLACEMENT_3D('',#1456,#1191,#1192);
#938=AXIS2_PLACEMENT_3D('',#1458,#1194,#1195);
#939=AXIS2_PLACEMENT_3D('',#1460,#1197,#1198);
#940=AXIS2_PLACEMENT_3D('',#1462,#1200,#1201);
#941=AXIS2_PLACEMENT_3D('',#1464,#1203,#1204);
#942=AXIS2_PLACEMENT_3D('',#1466,#1206,#1207);
#943=AXIS2_PLACEMENT_3D('',#1468,#1209,#1210);
#944=AXIS2_PLACEMENT_3D('',#1470,#1212,#1213);
#945=AXIS2_PLACEMENT_3D('',#1472,#1215,#1216);
#946=AXIS2_PLACEMENT_3D('',#1474,#1218,#1219);
#947=AXIS2_PLACEMENT_3D('',#1476,#1221,#1222);
#948=AXIS2_PLACEMENT_3D('',#1478,#1224,#1225);
#949=AXIS2_PLACEMENT_3D('',#1479,#1226,#1227);
#950=AXIS2_PLACEMENT_3D('',#1480,#1228,#1229);
#951=AXIS2_PLACEMENT_3D('',#1481,#1230,#1231);
#952=AXIS2_PLACEMENT_3D('',#1482,#1232,#1233);
#953=AXIS2_PLACEMENT_3D('',#1483,#1234,#1235);
#954=AXIS2_PLACEMENT_3D('',#1484,#1236,#1237);
#955=AXIS2_PLACEMENT_3D('',#1485,#1238,#1239);
#956=AXIS2_PLACEMENT_3D('',#1486,#1240,#1241);
#957=AXIS2_PLACEMENT_3D('',#1487,#1242,#1243);
#958=AXIS2_PLACEMENT_3D('',#1488,#1244,#1245);
#959=AXIS2_PLACEMENT_3D('',#1489,#1246,#1247);
#960=AXIS2_PLACEMENT_3D('',#1490,#1248,#1249);
#961=AXIS2_PLACEMENT_3D('',#1492,#1251,#1252);
#962=AXIS2_PLACEMENT_3D('',#1493,#1253,#1254);
#963=AXIS2_PLACEMENT_3D('',#1494,#1255,#1256);
#964=AXIS2_PLACEMENT_3D('',#1495,#1257,#1258);
#965=DIRECTION('axis',(0.,0.,1.));
#966=DIRECTION('refdir',(1.,0.,0.));
#967=DIRECTION('axis',(0.,0.,1.));
#968=DIRECTION('refdir',(1.,0.,0.));
#969=DIRECTION('axis',(0.,0.,1.));
#970=DIRECTION('refdir',(1.,0.,0.));
#971=DIRECTION('axis',(0.,0.,1.));
#972=DIRECTION('refdir',(1.,0.,0.));
#973=DIRECTION('center_axis',(0.,0.,1.));
#974=DIRECTION('ref_axis',(0.707106781186547,-0.707106781186547,0.));
#975=DIRECTION('center_axis',(0.,0.,-1.));
#976=DIRECTION('ref_axis',(0.707106781186547,-0.707106781186547,0.));
#977=DIRECTION('',(0.,0.,-1.));
#978=DIRECTION('center_axis',(0.,0.,1.));
#979=DIRECTION('ref_axis',(0.707106781186547,-0.707106781186547,0.));
#980=DIRECTION('',(0.,0.,1.));
#981=DIRECTION('center_axis',(4.62592926927159E-17,-1.,0.));
#982=DIRECTION('ref_axis',(1.,4.62592926927159E-17,0.));
#983=DIRECTION('',(1.,4.62592926927159E-17,0.));
#984=DIRECTION('',(0.,0.,1.));
#985=DIRECTION('',(-1.,-4.62592926927159E-17,0.));
#986=DIRECTION('center_axis',(0.,0.,1.));
#987=DIRECTION('ref_axis',(1.,0.,0.));
#988=DIRECTION('',(0.,1.,0.));
#989=DIRECTION('center_axis',(0.,0.,-1.));
#990=DIRECTION('ref_axis',(0.707106781186547,0.707106781186547,0.));
#991=DIRECTION('',(-1.,0.,0.));
#992=DIRECTION('center_axis',(0.,0.,-1.));
#993=DIRECTION('ref_axis',(-0.707106781186547,0.707106781186547,0.));
#994=DIRECTION('',(0.,-1.,0.));
#995=DIRECTION('center_axis',(0.,0.,-1.));
#996=DIRECTION('ref_axis',(-0.707106781186547,-0.707106781186547,0.));
#997=DIRECTION('center_axis',(0.,0.,-1.));
#998=DIRECTION('ref_axis',(1.,0.,0.));
#999=DIRECTION('center_axis',(0.,0.,-1.));
#1000=DIRECTION('ref_axis',(1.,0.,0.));
#1001=DIRECTION('center_axis',(0.,0.,-1.));
#1002=DIRECTION('ref_axis',(1.,0.,0.));
#1003=DIRECTION('center_axis',(0.,0.,-1.));
#1004=DIRECTION('ref_axis',(1.,0.,0.));
#1005=DIRECTION('center_axis',(0.,0.,-1.));
#1006=DIRECTION('ref_axis',(1.,0.,0.));
#1007=DIRECTION('center_axis',(0.,0.,-1.));
#1008=DIRECTION('ref_axis',(1.,0.,0.));
#1009=DIRECTION('center_axis',(0.,0.,-1.));
#1010=DIRECTION('ref_axis',(1.,0.,0.));
#1011=DIRECTION('center_axis',(0.,0.,-1.));
#1012=DIRECTION('ref_axis',(1.,0.,0.));
#1013=DIRECTION('center_axis',(0.,0.,-1.));
#1014=DIRECTION('ref_axis',(1.,0.,0.));
#1015=DIRECTION('center_axis',(0.,0.,-1.));
#1016=DIRECTION('ref_axis',(1.,0.,0.));
#1017=DIRECTION('center_axis',(0.,0.,-1.));
#1018=DIRECTION('ref_axis',(1.,0.,0.));
#1019=DIRECTION('center_axis',(0.,0.,-1.));
#1020=DIRECTION('ref_axis',(1.,0.,0.));
#1021=DIRECTION('center_axis',(0.,0.,1.));
#1022=DIRECTION('ref_axis',(-0.707106781186547,-0.707106781186547,0.));
#1023=DIRECTION('',(0.,0.,-1.));
#1024=DIRECTION('center_axis',(0.,0.,1.));
#1025=DIRECTION('ref_axis',(-0.707106781186547,-0.707106781186547,0.));
#1026=DIRECTION('center_axis',(-1.,0.,0.));
#1027=DIRECTION('ref_axis',(0.,-1.,0.));
#1028=DIRECTION('',(0.,0.,1.));
#1029=DIRECTION('',(0.,1.,0.));
#1030=DIRECTION('center_axis',(0.,0.,1.));
#1031=DIRECTION('ref_axis',(0.707106781186547,0.707106781186547,0.));
#1032=DIRECTION('',(0.,0.,-1.));
#1033=DIRECTION('center_axis',(0.,0.,1.));
#1034=DIRECTION('ref_axis',(0.707106781186547,0.707106781186547,0.));
#1035=DIRECTION('',(0.,0.,1.));
#1036=DIRECTION('center_axis',(0.,1.,0.));
#1037=DIRECTION('ref_axis',(-1.,0.,0.));
#1038=DIRECTION('',(1.,0.,0.));
#1039=DIRECTION('',(0.,0.,-1.));
#1040=DIRECTION('center_axis',(0.,0.,1.));
#1041=DIRECTION('ref_axis',(-0.707106781186547,0.707106781186547,0.));
#1042=DIRECTION('center_axis',(0.,0.,1.));
#1043=DIRECTION('ref_axis',(-0.707106781186547,0.707106781186547,0.));
#1044=DIRECTION('center_axis',(0.,0.,1.));
#1045=DIRECTION('ref_axis',(1.,0.,0.));
#1046=DIRECTION('center_axis',(0.,0.,1.));
#1047=DIRECTION('ref_axis',(1.,0.,0.));
#1048=DIRECTION('',(0.707106781186548,8.65956056235494E-17,-0.707106781186547));
#1049=DIRECTION('center_axis',(0.,0.,-1.));
#1050=DIRECTION('ref_axis',(1.,0.,0.));
#1051=DIRECTION('center_axis',(0.,0.,1.));
#1052=DIRECTION('ref_axis',(1.,0.,0.));
#1053=DIRECTION('',(0.,0.,-1.));
#1054=DIRECTION('center_axis',(0.,0.,1.));
#1055=DIRECTION('ref_axis',(1.,0.,0.));
#1056=DIRECTION('center_axis',(0.,0.,1.));
#1057=DIRECTION('ref_axis',(1.,0.,0.));
#1058=DIRECTION('center_axis',(0.,0.,1.));
#1059=DIRECTION('ref_axis',(1.,0.,0.));
#1060=DIRECTION('',(0.707106781186548,8.65956056235494E-17,-0.707106781186547));
#1061=DIRECTION('center_axis',(0.,0.,-1.));
#1062=DIRECTION('ref_axis',(1.,0.,0.));
#1063=DIRECTION('center_axis',(0.,0.,1.));
#1064=DIRECTION('ref_axis',(1.,0.,0.));
#1065=DIRECTION('',(0.,0.,-1.));
#1066=DIRECTION('center_axis',(0.,0.,1.));
#1067=DIRECTION('ref_axis',(1.,0.,0.));
#1068=DIRECTION('center_axis',(0.,0.,1.));
#1069=DIRECTION('ref_axis',(1.,0.,0.));
#1070=DIRECTION('center_axis',(0.,0.,1.));
#1071=DIRECTION('ref_axis',(1.,0.,0.));
#1072=DIRECTION('',(0.707106781186548,8.65956056235494E-17,-0.707106781186547));
#1073=DIRECTION('center_axis',(0.,0.,-1.));
#1074=DIRECTION('ref_axis',(1.,0.,0.));
#1075=DIRECTION('center_axis',(0.,0.,1.));
#1076=DIRECTION('ref_axis',(1.,0.,0.));
#1077=DIRECTION('',(0.,0.,-1.));
#1078=DIRECTION('center_axis',(0.,0.,1.));
#1079=DIRECTION('ref_axis',(1.,0.,0.));
#1080=DIRECTION('center_axis',(0.,0.,1.));
#1081=DIRECTION('ref_axis',(1.,0.,0.));
#1082=DIRECTION('center_axis',(0.,0.,1.));
#1083=DIRECTION('ref_axis',(1.,0.,0.));
#1084=DIRECTION('',(0.707106781186548,8.65956056235494E-17,-0.707106781186547));
#1085=DIRECTION('center_axis',(0.,0.,-1.));
#1086=DIRECTION('ref_axis',(1.,0.,0.));
#1087=DIRECTION('center_axis',(0.,0.,1.));
#1088=DIRECTION('ref_axis',(1.,0.,0.));
#1089=DIRECTION('',(0.,0.,-1.));
#1090=DIRECTION('center_axis',(0.,0.,1.));
#1091=DIRECTION('ref_axis',(1.,0.,0.));
#1092=DIRECTION('center_axis',(0.,0.,1.));
#1093=DIRECTION('ref_axis',(1.,0.,0.));
#1094=DIRECTION('center_axis',(0.,0.,1.));
#1095=DIRECTION('ref_axis',(1.,0.,0.));
#1096=DIRECTION('',(0.707106781186548,8.65956056235494E-17,-0.707106781186547));
#1097=DIRECTION('center_axis',(0.,0.,-1.));
#1098=DIRECTION('ref_axis',(1.,0.,0.));
#1099=DIRECTION('center_axis',(0.,0.,1.));
#1100=DIRECTION('ref_axis',(1.,0.,0.));
#1101=DIRECTION('',(0.,0.,-1.));
#1102=DIRECTION('center_axis',(0.,0.,1.));
#1103=DIRECTION('ref_axis',(1.,0.,0.));
#1104=DIRECTION('center_axis',(0.,0.,1.));
#1105=DIRECTION('ref_axis',(1.,0.,0.));
#1106=DIRECTION('center_axis',(0.,0.,1.));
#1107=DIRECTION('ref_axis',(1.,0.,0.));
#1108=DIRECTION('',(0.707106781186548,8.65956056235494E-17,-0.707106781186547));
#1109=DIRECTION('center_axis',(0.,0.,-1.));
#1110=DIRECTION('ref_axis',(1.,0.,0.));
#1111=DIRECTION('center_axis',(0.,0.,1.));
#1112=DIRECTION('ref_axis',(1.,0.,0.));
#1113=DIRECTION('',(0.,0.,-1.));
#1114=DIRECTION('center_axis',(0.,0.,1.));
#1115=DIRECTION('ref_axis',(1.,0.,0.));
#1116=DIRECTION('center_axis',(0.,0.,1.));
#1117=DIRECTION('ref_axis',(1.,0.,0.));
#1118=DIRECTION('center_axis',(0.,0.,1.));
#1119=DIRECTION('ref_axis',(1.,0.,0.));
#1120=DIRECTION('',(0.707106781186548,8.65956056235494E-17,-0.707106781186547));
#1121=DIRECTION('center_axis',(0.,0.,-1.));
#1122=DIRECTION('ref_axis',(1.,0.,0.));
#1123=DIRECTION('center_axis',(0.,0.,1.));
#1124=DIRECTION('ref_axis',(1.,0.,0.));
#1125=DIRECTION('',(0.,0.,-1.));
#1126=DIRECTION('center_axis',(0.,0.,1.));
#1127=DIRECTION('ref_axis',(1.,0.,0.));
#1128=DIRECTION('center_axis',(0.,0.,1.));
#1129=DIRECTION('ref_axis',(1.,0.,0.));
#1130=DIRECTION('center_axis',(0.,0.,1.));
#1131=DIRECTION('ref_axis',(1.,0.,0.));
#1132=DIRECTION('',(0.707106781186548,8.65956056235494E-17,-0.707106781186547));
#1133=DIRECTION('center_axis',(0.,0.,-1.));
#1134=DIRECTION('ref_axis',(1.,0.,0.));
#1135=DIRECTION('center_axis',(0.,0.,1.));
#1136=DIRECTION('ref_axis',(1.,0.,0.));
#1137=DIRECTION('',(0.,0.,-1.));
#1138=DIRECTION('center_axis',(0.,0.,1.));
#1139=DIRECTION('ref_axis',(1.,0.,0.));
#1140=DIRECTION('center_axis',(0.,0.,1.));
#1141=DIRECTION('ref_axis',(1.,0.,0.));
#1142=DIRECTION('center_axis',(0.,0.,1.));
#1143=DIRECTION('ref_axis',(1.,0.,0.));
#1144=DIRECTION('',(0.707106781186548,8.65956056235494E-17,-0.707106781186547));
#1145=DIRECTION('center_axis',(0.,0.,-1.));
#1146=DIRECTION('ref_axis',(1.,0.,0.));
#1147=DIRECTION('center_axis',(0.,0.,1.));
#1148=DIRECTION('ref_axis',(1.,0.,0.));
#1149=DIRECTION('',(0.,0.,-1.));
#1150=DIRECTION('center_axis',(0.,0.,1.));
#1151=DIRECTION('ref_axis',(1.,0.,0.));
#1152=DIRECTION('center_axis',(0.,0.,1.));
#1153=DIRECTION('ref_axis',(1.,0.,0.));
#1154=DIRECTION('center_axis',(0.,0.,1.));
#1155=DIRECTION('ref_axis',(1.,0.,0.));
#1156=DIRECTION('',(0.707106781186548,8.65956056235494E-17,-0.707106781186547));
#1157=DIRECTION('center_axis',(0.,0.,-1.));
#1158=DIRECTION('ref_axis',(1.,0.,0.));
#1159=DIRECTION('center_axis',(0.,0.,1.));
#1160=DIRECTION('ref_axis',(1.,0.,0.));
#1161=DIRECTION('',(0.,0.,-1.));
#1162=DIRECTION('center_axis',(0.,0.,1.));
#1163=DIRECTION('ref_axis',(1.,0.,0.));
#1164=DIRECTION('center_axis',(0.,0.,1.));
#1165=DIRECTION('ref_axis',(1.,0.,0.));
#1166=DIRECTION('center_axis',(0.,0.,1.));
#1167=DIRECTION('ref_axis',(1.,0.,0.));
#1168=DIRECTION('',(0.707106781186548,8.65956056235494E-17,-0.707106781186547));
#1169=DIRECTION('center_axis',(0.,0.,-1.));
#1170=DIRECTION('ref_axis',(1.,0.,0.));
#1171=DIRECTION('center_axis',(0.,0.,1.));
#1172=DIRECTION('ref_axis',(1.,0.,0.));
#1173=DIRECTION('',(0.,0.,-1.));
#1174=DIRECTION('center_axis',(0.,0.,1.));
#1175=DIRECTION('ref_axis',(1.,0.,0.));
#1176=DIRECTION('center_axis',(0.,0.,1.));
#1177=DIRECTION('ref_axis',(1.,0.,0.));
#1178=DIRECTION('center_axis',(0.,0.,1.));
#1179=DIRECTION('ref_axis',(1.,0.,0.));
#1180=DIRECTION('',(0.707106781186548,8.65956056235494E-17,-0.707106781186547));
#1181=DIRECTION('center_axis',(0.,0.,-1.));
#1182=DIRECTION('ref_axis',(1.,0.,0.));
#1183=DIRECTION('center_axis',(0.,0.,1.));
#1184=DIRECTION('ref_axis',(1.,0.,0.));
#1185=DIRECTION('',(0.,0.,-1.));
#1186=DIRECTION('center_axis',(0.,0.,1.));
#1187=DIRECTION('ref_axis',(1.,0.,0.));
#1188=DIRECTION('center_axis',(0.,0.,1.));
#1189=DIRECTION('ref_axis',(1.,0.,0.));
#1190=DIRECTION('',(0.,0.,-1.));
#1191=DIRECTION('center_axis',(0.,0.,1.));
#1192=DIRECTION('ref_axis',(1.,0.,0.));
#1193=DIRECTION('',(0.,0.,-1.));
#1194=DIRECTION('center_axis',(0.,0.,1.));
#1195=DIRECTION('ref_axis',(1.,0.,0.));
#1196=DIRECTION('',(0.,0.,-1.));
#1197=DIRECTION('center_axis',(0.,0.,1.));
#1198=DIRECTION('ref_axis',(1.,0.,0.));
#1199=DIRECTION('',(0.,0.,-1.));
#1200=DIRECTION('center_axis',(0.,0.,1.));
#1201=DIRECTION('ref_axis',(1.,0.,0.));
#1202=DIRECTION('',(0.,0.,-1.));
#1203=DIRECTION('center_axis',(0.,0.,1.));
#1204=DIRECTION('ref_axis',(1.,0.,0.));
#1205=DIRECTION('',(0.,0.,-1.));
#1206=DIRECTION('center_axis',(0.,0.,1.));
#1207=DIRECTION('ref_axis',(1.,0.,0.));
#1208=DIRECTION('',(0.,0.,-1.));
#1209=DIRECTION('center_axis',(0.,0.,1.));
#1210=DIRECTION('ref_axis',(1.,0.,0.));
#1211=DIRECTION('',(0.,0.,-1.));
#1212=DIRECTION('center_axis',(0.,0.,1.));
#1213=DIRECTION('ref_axis',(1.,0.,0.));
#1214=DIRECTION('',(0.,0.,-1.));
#1215=DIRECTION('center_axis',(0.,0.,1.));
#1216=DIRECTION('ref_axis',(1.,0.,0.));
#1217=DIRECTION('',(0.,0.,-1.));
#1218=DIRECTION('center_axis',(0.,0.,1.));
#1219=DIRECTION('ref_axis',(1.,0.,0.));
#1220=DIRECTION('',(0.,0.,-1.));
#1221=DIRECTION('center_axis',(0.,0.,1.));
#1222=DIRECTION('ref_axis',(1.,0.,0.));
#1223=DIRECTION('',(0.,0.,-1.));
#1224=DIRECTION('center_axis',(0.,0.,1.));
#1225=DIRECTION('ref_axis',(1.,0.,0.));
#1226=DIRECTION('center_axis',(0.,0.,1.));
#1227=DIRECTION('ref_axis',(1.,0.,0.));
#1228=DIRECTION('center_axis',(0.,0.,1.));
#1229=DIRECTION('ref_axis',(1.,0.,0.));
#1230=DIRECTION('center_axis',(0.,0.,1.));
#1231=DIRECTION('ref_axis',(1.,0.,0.));
#1232=DIRECTION('center_axis',(0.,0.,1.));
#1233=DIRECTION('ref_axis',(1.,0.,0.));
#1234=DIRECTION('center_axis',(0.,0.,1.));
#1235=DIRECTION('ref_axis',(1.,0.,0.));
#1236=DIRECTION('center_axis',(0.,0.,1.));
#1237=DIRECTION('ref_axis',(1.,0.,0.));
#1238=DIRECTION('center_axis',(0.,0.,1.));
#1239=DIRECTION('ref_axis',(1.,0.,0.));
#1240=DIRECTION('center_axis',(0.,0.,1.));
#1241=DIRECTION('ref_axis',(1.,0.,0.));
#1242=DIRECTION('center_axis',(0.,0.,1.));
#1243=DIRECTION('ref_axis',(1.,0.,0.));
#1244=DIRECTION('center_axis',(0.,0.,1.));
#1245=DIRECTION('ref_axis',(1.,0.,0.));
#1246=DIRECTION('center_axis',(0.,0.,1.));
#1247=DIRECTION('ref_axis',(1.,0.,0.));
#1248=DIRECTION('center_axis',(1.,0.,0.));
#1249=DIRECTION('ref_axis',(0.,1.,0.));
#1250=DIRECTION('',(0.,-1.,0.));
#1251=DIRECTION('center_axis',(0.,0.,1.));
#1252=DIRECTION('ref_axis',(1.,0.,0.));
#1253=DIRECTION('',(0.,0.,1.));
#1254=DIRECTION('',(1.,0.,0.));
#1255=DIRECTION('',(0.,0.,1.));
#1256=DIRECTION('',(1.,0.,0.));
#1257=DIRECTION('',(0.,0.,1.));
#1258=DIRECTION('',(1.,0.,0.));
#1259=CARTESIAN_POINT('',(0.,0.,0.));
#1260=CARTESIAN_POINT('',(0.,0.,0.));
#1261=CARTESIAN_POINT('',(0.,0.,0.));
#1262=CARTESIAN_POINT('',(0.,0.,0.));
#1263=CARTESIAN_POINT('Origin',(125.009577160261,-32.0297723083986,0.));
#1264=CARTESIAN_POINT('',(130.009577160261,-32.0297723083986,30.));
#1265=CARTESIAN_POINT('',(125.009577160261,-37.0297723083986,30.));
#1266=CARTESIAN_POINT('Origin',(125.009577160261,-32.0297723083986,30.));
#1267=CARTESIAN_POINT('',(125.009577160261,-37.0297723083986,0.));
#1268=CARTESIAN_POINT('',(125.009577160261,-37.0297723083986,0.));
#1269=CARTESIAN_POINT('',(130.009577160261,-32.0297723083986,0.));
#1270=CARTESIAN_POINT('Origin',(125.009577160261,-32.0297723083986,0.));
#1271=CARTESIAN_POINT('',(130.009577160261,-32.0297723083986,0.));
#1272=CARTESIAN_POINT('Origin',(34.0095771602629,-37.0297723083986,0.));
#1273=CARTESIAN_POINT('',(39.0095771602629,-37.0297723083986,30.));
#1274=CARTESIAN_POINT('',(58.0095771602624,-37.0297723083986,30.));
#1275=CARTESIAN_POINT('',(39.0095771602629,-37.0297723083986,0.));
#1276=CARTESIAN_POINT('',(39.0095771602629,-37.0297723083986,0.));
#1277=CARTESIAN_POINT('',(130.009577160261,-37.0297723083986,0.));
#1278=CARTESIAN_POINT('Origin',(82.0095771602619,31.9702276916007,30.));
#1279=CARTESIAN_POINT('',(130.009577160261,95.9702276915999,30.));
#1280=CARTESIAN_POINT('',(130.009577160261,-2.52977230839897,30.));
#1281=CARTESIAN_POINT('',(125.009577160261,100.9702276916,30.));
#1282=CARTESIAN_POINT('Origin',(125.009577160261,95.9702276915999,30.));
#1283=CARTESIAN_POINT('',(39.0095771602629,100.9702276916,30.));
#1284=CARTESIAN_POINT('',(106.009577160261,100.9702276916,30.));
#1285=CARTESIAN_POINT('',(34.0095771602629,95.9702276915999,30.));
#1286=CARTESIAN_POINT('Origin',(39.0095771602629,95.9702276915999,30.));
#1287=CARTESIAN_POINT('',(34.0095771602629,-32.0297723083986,30.));
#1288=CARTESIAN_POINT('',(34.0095771602629,66.4702276916003,30.));
#1289=CARTESIAN_POINT('Origin',(39.0095771602629,-32.0297723083986,30.));
#1290=CARTESIAN_POINT('',(102.509577160262,14.9391325096359,30.));
#1291=CARTESIAN_POINT('Origin',(112.009577160262,14.9391325096359,30.));
#1292=CARTESIAN_POINT('',(72.5095771602619,48.2724658429692,30.));
#1293=CARTESIAN_POINT('Origin',(82.0095771602619,48.2724658429692,30.));
#1294=CARTESIAN_POINT('',(102.509577160262,-18.3942008236974,30.));
#1295=CARTESIAN_POINT('Origin',(112.009577160262,-18.3942008236974,30.));
#1296=CARTESIAN_POINT('',(42.5095771602619,-18.3942008236974,30.));
#1297=CARTESIAN_POINT('Origin',(52.0095771602619,-18.3942008236974,30.));
#1298=CARTESIAN_POINT('',(72.5095771602619,14.9391325096359,30.));
#1299=CARTESIAN_POINT('Origin',(82.0095771602619,14.9391325096359,30.));
#1300=CARTESIAN_POINT('',(72.5095771602619,-18.3942008236974,30.));
#1301=CARTESIAN_POINT('Origin',(82.0095771602619,-18.3942008236974,30.));
#1302=CARTESIAN_POINT('',(42.5095771602619,81.6057991763026,30.));
#1303=CARTESIAN_POINT('Origin',(52.0095771602619,81.6057991763026,30.));
#1304=CARTESIAN_POINT('',(72.5095771602619,81.6057991763026,30.));
#1305=CARTESIAN_POINT('Origin',(82.0095771602619,81.6057991763026,30.));
#1306=CARTESIAN_POINT('',(42.5095771602619,48.2724658429692,30.));
#1307=CARTESIAN_POINT('Origin',(52.0095771602619,48.2724658429692,30.));
#1308=CARTESIAN_POINT('',(102.509577160262,81.6057991763026,30.));
#1309=CARTESIAN_POINT('Origin',(112.009577160262,81.6057991763026,30.));
#1310=CARTESIAN_POINT('',(42.5095771602619,14.9391325096359,30.));
#1311=CARTESIAN_POINT('Origin',(52.0095771602619,14.9391325096359,30.));
#1312=CARTESIAN_POINT('',(102.509577160262,48.2724658429692,30.));
#1313=CARTESIAN_POINT('Origin',(112.009577160262,48.2724658429692,30.));
#1314=CARTESIAN_POINT('Origin',(39.0095771602629,-32.0297723083986,0.));
#1315=CARTESIAN_POINT('',(34.0095771602629,-32.0297723083986,0.));
#1316=CARTESIAN_POINT('',(34.0095771602629,-32.0297723083986,0.));
#1317=CARTESIAN_POINT('Origin',(39.0095771602629,-32.0297723083986,0.));
#1318=CARTESIAN_POINT('Origin',(34.0095771602629,100.9702276916,0.));
#1319=CARTESIAN_POINT('',(34.0095771602629,95.9702276915999,0.));
#1320=CARTESIAN_POINT('',(34.0095771602629,95.9702276915999,0.));
#1321=CARTESIAN_POINT('',(34.0095771602629,-37.0297723083986,0.));
#1322=CARTESIAN_POINT('Origin',(125.009577160261,95.9702276915999,0.));
#1323=CARTESIAN_POINT('',(130.009577160261,95.9702276915999,0.));
#1324=CARTESIAN_POINT('',(130.009577160261,95.9702276915999,0.));
#1325=CARTESIAN_POINT('',(125.009577160261,100.9702276916,0.));
#1326=CARTESIAN_POINT('Origin',(125.009577160261,95.9702276915999,0.));
#1327=CARTESIAN_POINT('',(125.009577160261,100.9702276916,0.));
#1328=CARTESIAN_POINT('Origin',(130.009577160261,100.9702276916,0.));
#1329=CARTESIAN_POINT('',(39.0095771602629,100.9702276916,0.));
#1330=CARTESIAN_POINT('',(34.0095771602629,100.9702276916,0.));
#1331=CARTESIAN_POINT('',(39.0095771602629,100.9702276916,0.));
#1332=CARTESIAN_POINT('Origin',(39.0095771602629,95.9702276915999,0.));
#1333=CARTESIAN_POINT('Origin',(39.0095771602629,95.9702276915999,0.));
#1334=CARTESIAN_POINT('Origin',(52.0095771602619,-18.3942008236974,6.25));
#1335=CARTESIAN_POINT('',(42.5095771602619,-18.3942008236974,7.));
#1336=CARTESIAN_POINT('Origin',(52.0095771602619,-18.3942008236974,7.));
#1337=CARTESIAN_POINT('',(44.0095771602619,-18.3942008236974,5.5));
#1338=CARTESIAN_POINT('',(43.2595771602619,-18.3942008236974,6.25));
#1339=CARTESIAN_POINT('Origin',(52.0095771602619,-18.3942008236974,5.5));
#1340=CARTESIAN_POINT('Origin',(52.0095771602619,-18.3942008236974,3.));
#1341=CARTESIAN_POINT('',(44.0095771602619,-18.3942008236974,3.));
#1342=CARTESIAN_POINT('',(44.0095771602619,-18.3942008236974,3.));
#1343=CARTESIAN_POINT('Origin',(52.0095771602619,-18.3942008236974,3.));
#1344=CARTESIAN_POINT('Origin',(82.0095771602619,-18.3942008236974,6.25));
#1345=CARTESIAN_POINT('',(72.5095771602619,-18.3942008236974,7.));
#1346=CARTESIAN_POINT('Origin',(82.0095771602619,-18.3942008236974,7.));
#1347=CARTESIAN_POINT('',(74.0095771602619,-18.3942008236974,5.5));
#1348=CARTESIAN_POINT('',(73.2595771602619,-18.3942008236974,6.25));
#1349=CARTESIAN_POINT('Origin',(82.0095771602619,-18.3942008236974,5.5));
#1350=CARTESIAN_POINT('Origin',(82.0095771602619,-18.3942008236974,3.));
#1351=CARTESIAN_POINT('',(74.0095771602619,-18.3942008236974,3.));
#1352=CARTESIAN_POINT('',(74.0095771602619,-18.3942008236974,3.));
#1353=CARTESIAN_POINT('Origin',(82.0095771602619,-18.3942008236974,3.));
#1354=CARTESIAN_POINT('Origin',(112.009577160262,-18.3942008236974,6.25));
#1355=CARTESIAN_POINT('',(102.509577160262,-18.3942008236974,7.));
#1356=CARTESIAN_POINT('Origin',(112.009577160262,-18.3942008236974,7.));
#1357=CARTESIAN_POINT('',(104.009577160262,-18.3942008236974,5.5));
#1358=CARTESIAN_POINT('',(103.259577160262,-18.3942008236974,6.25));
#1359=CARTESIAN_POINT('Origin',(112.009577160262,-18.3942008236974,5.5));
#1360=CARTESIAN_POINT('Origin',(112.009577160262,-18.3942008236974,3.));
#1361=CARTESIAN_POINT('',(104.009577160262,-18.3942008236974,3.));
#1362=CARTESIAN_POINT('',(104.009577160262,-18.3942008236974,3.));
#1363=CARTESIAN_POINT('Origin',(112.009577160262,-18.3942008236974,3.));
#1364=CARTESIAN_POINT('Origin',(112.009577160262,14.9391325096359,6.25));
#1365=CARTESIAN_POINT('',(102.509577160262,14.9391325096359,7.));
#1366=CARTESIAN_POINT('Origin',(112.009577160262,14.9391325096359,7.));
#1367=CARTESIAN_POINT('',(104.009577160262,14.9391325096359,5.5));
#1368=CARTESIAN_POINT('',(103.259577160262,14.9391325096359,6.25));
#1369=CARTESIAN_POINT('Origin',(112.009577160262,14.9391325096359,5.5));
#1370=CARTESIAN_POINT('Origin',(112.009577160262,14.9391325096359,3.));
#1371=CARTESIAN_POINT('',(104.009577160262,14.9391325096359,3.));
#1372=CARTESIAN_POINT('',(104.009577160262,14.9391325096359,3.));
#1373=CARTESIAN_POINT('Origin',(112.009577160262,14.9391325096359,3.));
#1374=CARTESIAN_POINT('Origin',(82.0095771602619,14.9391325096359,6.25));
#1375=CARTESIAN_POINT('',(72.5095771602619,14.9391325096359,7.));
#1376=CARTESIAN_POINT('Origin',(82.0095771602619,14.9391325096359,7.));
#1377=CARTESIAN_POINT('',(74.0095771602619,14.9391325096359,5.5));
#1378=CARTESIAN_POINT('',(73.2595771602619,14.9391325096359,6.25));
#1379=CARTESIAN_POINT('Origin',(82.0095771602619,14.9391325096359,5.5));
#1380=CARTESIAN_POINT('Origin',(82.0095771602619,14.9391325096359,3.));
#1381=CARTESIAN_POINT('',(74.0095771602619,14.9391325096359,3.));
#1382=CARTESIAN_POINT('',(74.0095771602619,14.9391325096359,3.));
#1383=CARTESIAN_POINT('Origin',(82.0095771602619,14.9391325096359,3.));
#1384=CARTESIAN_POINT('Origin',(52.0095771602619,14.9391325096359,6.25));
#1385=CARTESIAN_POINT('',(42.5095771602619,14.9391325096359,7.));
#1386=CARTESIAN_POINT('Origin',(52.0095771602619,14.9391325096359,7.));
#1387=CARTESIAN_POINT('',(44.0095771602619,14.9391325096359,5.5));
#1388=CARTESIAN_POINT('',(43.2595771602619,14.9391325096359,6.25));
#1389=CARTESIAN_POINT('Origin',(52.0095771602619,14.9391325096359,5.5));
#1390=CARTESIAN_POINT('Origin',(52.0095771602619,14.9391325096359,3.));
#1391=CARTESIAN_POINT('',(44.0095771602619,14.9391325096359,3.));
#1392=CARTESIAN_POINT('',(44.0095771602619,14.9391325096359,3.));
#1393=CARTESIAN_POINT('Origin',(52.0095771602619,14.9391325096359,3.));
#1394=CARTESIAN_POINT('Origin',(52.0095771602619,48.2724658429692,6.25));
#1395=CARTESIAN_POINT('',(42.5095771602619,48.2724658429692,7.));
#1396=CARTESIAN_POINT('Origin',(52.0095771602619,48.2724658429692,7.));
#1397=CARTESIAN_POINT('',(44.0095771602619,48.2724658429692,5.5));
#1398=CARTESIAN_POINT('',(43.2595771602619,48.2724658429692,6.25));
#1399=CARTESIAN_POINT('Origin',(52.0095771602619,48.2724658429692,5.5));
#1400=CARTESIAN_POINT('Origin',(52.0095771602619,48.2724658429692,3.));
#1401=CARTESIAN_POINT('',(44.0095771602619,48.2724658429692,3.));
#1402=CARTESIAN_POINT('',(44.0095771602619,48.2724658429692,3.));
#1403=CARTESIAN_POINT('Origin',(52.0095771602619,48.2724658429692,3.));
#1404=CARTESIAN_POINT('Origin',(82.0095771602619,48.2724658429692,6.25));
#1405=CARTESIAN_POINT('',(72.5095771602619,48.2724658429692,7.));
#1406=CARTESIAN_POINT('Origin',(82.0095771602619,48.2724658429692,7.));
#1407=CARTESIAN_POINT('',(74.0095771602619,48.2724658429692,5.5));
#1408=CARTESIAN_POINT('',(73.2595771602619,48.2724658429692,6.25));
#1409=CARTESIAN_POINT('Origin',(82.0095771602619,48.2724658429692,5.5));
#1410=CARTESIAN_POINT('Origin',(82.0095771602619,48.2724658429692,3.));
#1411=CARTESIAN_POINT('',(74.0095771602619,48.2724658429692,3.));
#1412=CARTESIAN_POINT('',(74.0095771602619,48.2724658429692,3.));
#1413=CARTESIAN_POINT('Origin',(82.0095771602619,48.2724658429692,3.));
#1414=CARTESIAN_POINT('Origin',(112.009577160262,48.2724658429692,6.25));
#1415=CARTESIAN_POINT('',(102.509577160262,48.2724658429692,7.));
#1416=CARTESIAN_POINT('Origin',(112.009577160262,48.2724658429692,7.));
#1417=CARTESIAN_POINT('',(104.009577160262,48.2724658429692,5.5));
#1418=CARTESIAN_POINT('',(103.259577160262,48.2724658429692,6.25));
#1419=CARTESIAN_POINT('Origin',(112.009577160262,48.2724658429692,5.5));
#1420=CARTESIAN_POINT('Origin',(112.009577160262,48.2724658429692,3.));
#1421=CARTESIAN_POINT('',(104.009577160262,48.2724658429692,3.));
#1422=CARTESIAN_POINT('',(104.009577160262,48.2724658429692,3.));
#1423=CARTESIAN_POINT('Origin',(112.009577160262,48.2724658429692,3.));
#1424=CARTESIAN_POINT('Origin',(112.009577160262,81.6057991763026,6.25));
#1425=CARTESIAN_POINT('',(102.509577160262,81.6057991763026,7.));
#1426=CARTESIAN_POINT('Origin',(112.009577160262,81.6057991763026,7.));
#1427=CARTESIAN_POINT('',(104.009577160262,81.6057991763026,5.5));
#1428=CARTESIAN_POINT('',(103.259577160262,81.6057991763026,6.25));
#1429=CARTESIAN_POINT('Origin',(112.009577160262,81.6057991763026,5.5));
#1430=CARTESIAN_POINT('Origin',(112.009577160262,81.6057991763026,3.));
#1431=CARTESIAN_POINT('',(104.009577160262,81.6057991763026,3.));
#1432=CARTESIAN_POINT('',(104.009577160262,81.6057991763026,3.));
#1433=CARTESIAN_POINT('Origin',(112.009577160262,81.6057991763026,3.));
#1434=CARTESIAN_POINT('Origin',(82.0095771602619,81.6057991763026,6.25));
#1435=CARTESIAN_POINT('',(72.5095771602619,81.6057991763026,7.));
#1436=CARTESIAN_POINT('Origin',(82.0095771602619,81.6057991763026,7.));
#1437=CARTESIAN_POINT('',(74.0095771602619,81.6057991763026,5.5));
#1438=CARTESIAN_POINT('',(73.2595771602619,81.6057991763026,6.25));
#1439=CARTESIAN_POINT('Origin',(82.0095771602619,81.6057991763026,5.5));
#1440=CARTESIAN_POINT('Origin',(82.0095771602619,81.6057991763026,3.));
#1441=CARTESIAN_POINT('',(74.0095771602619,81.6057991763026,3.));
#1442=CARTESIAN_POINT('',(74.0095771602619,81.6057991763026,3.));
#1443=CARTESIAN_POINT('Origin',(82.0095771602619,81.6057991763026,3.));
#1444=CARTESIAN_POINT('Origin',(52.0095771602619,81.6057991763026,6.25));
#1445=CARTESIAN_POINT('',(42.5095771602619,81.6057991763026,7.));
#1446=CARTESIAN_POINT('Origin',(52.0095771602619,81.6057991763026,7.));
#1447=CARTESIAN_POINT('',(44.0095771602619,81.6057991763026,5.5));
#1448=CARTESIAN_POINT('',(43.2595771602619,81.6057991763026,6.25));
#1449=CARTESIAN_POINT('Origin',(52.0095771602619,81.6057991763026,5.5));
#1450=CARTESIAN_POINT('Origin',(52.0095771602619,81.6057991763026,3.));
#1451=CARTESIAN_POINT('',(44.0095771602619,81.6057991763026,3.));
#1452=CARTESIAN_POINT('',(44.0095771602619,81.6057991763026,3.));
#1453=CARTESIAN_POINT('Origin',(52.0095771602619,81.6057991763026,3.));
#1454=CARTESIAN_POINT('Origin',(112.009577160262,48.2724658429692,7.));
#1455=CARTESIAN_POINT('',(102.509577160262,48.2724658429692,7.));
#1456=CARTESIAN_POINT('Origin',(52.0095771602619,14.9391325096359,7.));
#1457=CARTESIAN_POINT('',(42.5095771602619,14.9391325096359,7.));
#1458=CARTESIAN_POINT('Origin',(112.009577160262,81.6057991763026,7.));
#1459=CARTESIAN_POINT('',(102.509577160262,81.6057991763026,7.));
#1460=CARTESIAN_POINT('Origin',(52.0095771602619,48.2724658429692,7.));
#1461=CARTESIAN_POINT('',(42.5095771602619,48.2724658429692,7.));
#1462=CARTESIAN_POINT('Origin',(82.0095771602619,81.6057991763026,7.));
#1463=CARTESIAN_POINT('',(72.5095771602619,81.6057991763026,7.));
#1464=CARTESIAN_POINT('Origin',(52.0095771602619,81.6057991763026,7.));
#1465=CARTESIAN_POINT('',(42.5095771602619,81.6057991763026,7.));
#1466=CARTESIAN_POINT('Origin',(82.0095771602619,-18.3942008236974,7.));
#1467=CARTESIAN_POINT('',(72.5095771602619,-18.3942008236974,7.));
#1468=CARTESIAN_POINT('Origin',(82.0095771602619,14.9391325096359,7.));
#1469=CARTESIAN_POINT('',(72.5095771602619,14.9391325096359,7.));
#1470=CARTESIAN_POINT('Origin',(52.0095771602619,-18.3942008236974,7.));
#1471=CARTESIAN_POINT('',(42.5095771602619,-18.3942008236974,7.));
#1472=CARTESIAN_POINT('Origin',(112.009577160262,-18.3942008236974,7.));
#1473=CARTESIAN_POINT('',(102.509577160262,-18.3942008236974,7.));
#1474=CARTESIAN_POINT('Origin',(82.0095771602619,48.2724658429692,7.));
#1475=CARTESIAN_POINT('',(72.5095771602619,48.2724658429692,7.));
#1476=CARTESIAN_POINT('Origin',(112.009577160262,14.9391325096359,7.));
#1477=CARTESIAN_POINT('',(102.509577160262,14.9391325096359,7.));
#1478=CARTESIAN_POINT('Origin',(82.0095771602619,31.9702276916007,3.));
#1479=CARTESIAN_POINT('Origin',(82.0095771602619,31.9702276916007,3.));
#1480=CARTESIAN_POINT('Origin',(82.0095771602619,31.9702276916007,3.));
#1481=CARTESIAN_POINT('Origin',(82.0095771602619,31.9702276916007,3.));
#1482=CARTESIAN_POINT('Origin',(82.0095771602619,31.9702276916007,3.));
#1483=CARTESIAN_POINT('Origin',(82.0095771602619,31.9702276916007,3.));
#1484=CARTESIAN_POINT('Origin',(82.0095771602619,31.9702276916007,3.));
#1485=CARTESIAN_POINT('Origin',(82.0095771602619,31.9702276916007,3.));
#1486=CARTESIAN_POINT('Origin',(82.0095771602619,31.9702276916007,3.));
#1487=CARTESIAN_POINT('Origin',(82.0095771602619,31.9702276916007,3.));
#1488=CARTESIAN_POINT('Origin',(82.0095771602619,31.9702276916007,3.));
#1489=CARTESIAN_POINT('Origin',(82.0095771602619,31.9702276916007,3.));
#1490=CARTESIAN_POINT('Origin',(130.009577160261,-37.0297723083986,0.));
#1491=CARTESIAN_POINT('',(130.009577160261,100.9702276916,0.));
#1492=CARTESIAN_POINT('Origin',(82.0095771602619,31.9702276916007,0.));
#1493=CARTESIAN_POINT('',(0.,0.,0.));
#1494=CARTESIAN_POINT('',(0.,0.,0.));
#1495=CARTESIAN_POINT('',(0.,0.,0.));
#1496=UNCERTAINTY_MEASURE_WITH_UNIT(LENGTH_MEASURE(0.01),#1506,
'DISTANCE_ACCURACY_VALUE',
'Maximum model space distance between geometric entities at asserted c
onnectivities');
#1497=UNCERTAINTY_MEASURE_WITH_UNIT(LENGTH_MEASURE(0.01),#1506,
'DISTANCE_ACCURACY_VALUE',
'Maximum model space distance between geometric entities at asserted c
onnectivities');
#1498=UNCERTAINTY_MEASURE_WITH_UNIT(LENGTH_MEASURE(0.01),#1506,
'DISTANCE_ACCURACY_VALUE',
'Maximum model space distance between geometric entities at asserted c
onnectivities');
#1499=UNCERTAINTY_MEASURE_WITH_UNIT(LENGTH_MEASURE(0.01),#1506,
'DISTANCE_ACCURACY_VALUE',
'Maximum model space distance between geometric entities at asserted c
onnectivities');
#1500=UNCERTAINTY_MEASURE_WITH_UNIT(LENGTH_MEASURE(0.01),#1506,
'DISTANCE_ACCURACY_VALUE',
'Maximum model space distance between geometric entities at asserted c
onnectivities');
#1501=(
GEOMETRIC_REPRESENTATION_CONTEXT(3)
GLOBAL_UNCERTAINTY_ASSIGNED_CONTEXT((#1496))
GLOBAL_UNIT_ASSIGNED_CONTEXT((#1506,#1508,#1509))
REPRESENTATION_CONTEXT('','3D')
);
#1502=(
GEOMETRIC_REPRESENTATION_CONTEXT(3)
GLOBAL_UNCERTAINTY_ASSIGNED_CONTEXT((#1497))
GLOBAL_UNIT_ASSIGNED_CONTEXT((#1506,#1508,#1509))
REPRESENTATION_CONTEXT('','3D')
);
#1503=(
GEOMETRIC_REPRESENTATION_CONTEXT(3)
GLOBAL_UNCERTAINTY_ASSIGNED_CONTEXT((#1498))
GLOBAL_UNIT_ASSIGNED_CONTEXT((#1506,#1508,#1509))
REPRESENTATION_CONTEXT('','3D')
);
#1504=(
GEOMETRIC_REPRESENTATION_CONTEXT(3)
GLOBAL_UNCERTAINTY_ASSIGNED_CONTEXT((#1499))
GLOBAL_UNIT_ASSIGNED_CONTEXT((#1506,#1508,#1509))
REPRESENTATION_CONTEXT('','3D')
);
#1505=(
GEOMETRIC_REPRESENTATION_CONTEXT(3)
GLOBAL_UNCERTAINTY_ASSIGNED_CONTEXT((#1500))
GLOBAL_UNIT_ASSIGNED_CONTEXT((#1506,#1508,#1509))
REPRESENTATION_CONTEXT('','3D')
);
#1506=(
LENGTH_UNIT()
NAMED_UNIT(*)
SI_UNIT(.MILLI.,.METRE.)
);
#1507=(
LENGTH_UNIT()
NAMED_UNIT(*)
SI_UNIT($,.METRE.)
);
#1508=(
NAMED_UNIT(*)
PLANE_ANGLE_UNIT()
SI_UNIT($,.RADIAN.)
);
#1509=(
NAMED_UNIT(*)
SI_UNIT($,.STERADIAN.)
SOLID_ANGLE_UNIT()
);
#1510=SHAPE_DEFINITION_REPRESENTATION(#1514,#1521);
#1511=SHAPE_DEFINITION_REPRESENTATION(#1515,#1522);
#1512=SHAPE_DEFINITION_REPRESENTATION(#1516,#1523);
#1513=SHAPE_DEFINITION_REPRESENTATION(#1517,#1524);
#1514=PRODUCT_DEFINITION_SHAPE('',$,#1526);
#1515=PRODUCT_DEFINITION_SHAPE('',$,#1527);
#1516=PRODUCT_DEFINITION_SHAPE('',$,#1528);
#1517=PRODUCT_DEFINITION_SHAPE('',$,#1529);
#1518=PRODUCT_DEFINITION_SHAPE($,$,#20);
#1519=PRODUCT_DEFINITION_SHAPE($,$,#21);
#1520=PRODUCT_DEFINITION_SHAPE($,$,#22);
#1521=SHAPE_REPRESENTATION('',(#844,#964),#1501);
#1522=SHAPE_REPRESENTATION('',(#845,#963),#1502);
#1523=SHAPE_REPRESENTATION('',(#846,#962),#1503);
#1524=SHAPE_REPRESENTATION('',(#847),#1504);
#1525=PRODUCT_DEFINITION_CONTEXT('part definition',#1539,'design');
#1526=PRODUCT_DEFINITION('2026-05-06-02-11-17-818','Bed_plate_assembly',
#1530,#1525);
#1527=PRODUCT_DEFINITION('2026-05-06-02-11-17-819','accesories_sd',#1531,
#1525);
#1528=PRODUCT_DEFINITION('2026-05-06-02-11-17-820',
'FINAL FIXTURE DESIGN_07.09.2025_Smaller Pipette Tip',#1532,#1525);
#1529=PRODUCT_DEFINITION('2026-05-18-17-30-38-061','10 bottle holder',#1533,
#1525);
#1530=PRODUCT_DEFINITION_FORMATION('',$,#1541);
#1531=PRODUCT_DEFINITION_FORMATION('',$,#1542);
#1532=PRODUCT_DEFINITION_FORMATION('',$,#1543);
#1533=PRODUCT_DEFINITION_FORMATION('',$,#1544);
#1534=PRODUCT_RELATED_PRODUCT_CATEGORY('Bed_plate_assembly',
'Bed_plate_assembly',(#1541));
#1535=PRODUCT_RELATED_PRODUCT_CATEGORY('accesories_sd','accesories_sd',
(#1542));
#1536=PRODUCT_RELATED_PRODUCT_CATEGORY(
'FINAL FIXTURE DESIGN_07.09.2025_Smaller Pipette Tip',
'FINAL FIXTURE DESIGN_07.09.2025_Smaller Pipette Tip',(#1543));
#1537=PRODUCT_RELATED_PRODUCT_CATEGORY('10 bottle holder',
'10 bottle holder',(#1544));
#1538=APPLICATION_PROTOCOL_DEFINITION('international standard',
'automotive_design',2009,#1539);
#1539=APPLICATION_CONTEXT(
'Core Data for Automotive Mechanical Design Process');
#1540=PRODUCT_CONTEXT('part definition',#1539,'mechanical');
#1541=PRODUCT('2026-05-06-02-11-17-818','Bed_plate_assembly',$,(#1540));
#1542=PRODUCT('2026-05-06-02-11-17-819','accesories_sd',$,(#1540));
#1543=PRODUCT('2026-05-06-02-11-17-820',
'FINAL FIXTURE DESIGN_07.09.2025_Smaller Pipette Tip',$,(#1540));
#1544=PRODUCT('2026-05-18-17-30-38-061','10 bottle holder',$,(#1540));
#1545=PRESENTATION_STYLE_ASSIGNMENT((#1546));
#1546=SURFACE_STYLE_USAGE(.BOTH.,#1547);
#1547=SURFACE_SIDE_STYLE('',(#1548));
#1548=SURFACE_STYLE_FILL_AREA(#1549);
#1549=FILL_AREA_STYLE('Steel - Satin',(#1550));
#1550=FILL_AREA_STYLE_COLOUR('Steel - Satin',#1551);
#1551=COLOUR_RGB('Steel - Satin',0.627450980392157,0.627450980392157,0.627450980392157);
ENDSEC;
END-ISO-10303-21;
