ISO-10303-21;
HEADER;
/* Generated by software containing ST-Developer
 * from STEP Tools, Inc. (www.steptools.com) 
 */

FILE_DESCRIPTION(
/* description */ (''),
/* implementation_level */ '2;1');

FILE_NAME(
/* name */ '8 sample holder.step',
/* time_stamp */ '2026-06-16T09:46:59+08:00',
/* author */ (''),
/* organization */ (''),
/* preprocessor_version */ 'ST-DEVELOPER v20.1',
/* originating_system */ 'Autodesk Translation Framework v15.8.0.0',
/* authorisation */ '');

FILE_SCHEMA (('AUTOMOTIVE_DESIGN { 1 0 10303 214 3 1 1 }'));
ENDSEC;

DATA;
#10=MECHANICAL_DESIGN_GEOMETRIC_PRESENTATION_REPRESENTATION('',(#25),#725);
#11=ITEM_DEFINED_TRANSFORMATION($,$,#411,#462);
#12=ITEM_DEFINED_TRANSFORMATION($,$,#410,#463);
#13=ITEM_DEFINED_TRANSFORMATION($,$,#409,#464);
#14=(
REPRESENTATION_RELATIONSHIP($,$,#744,#743)
REPRESENTATION_RELATIONSHIP_WITH_TRANSFORMATION(#11)
SHAPE_REPRESENTATION_RELATIONSHIP()
);
#15=(
REPRESENTATION_RELATIONSHIP($,$,#743,#742)
REPRESENTATION_RELATIONSHIP_WITH_TRANSFORMATION(#12)
SHAPE_REPRESENTATION_RELATIONSHIP()
);
#16=(
REPRESENTATION_RELATIONSHIP($,$,#742,#741)
REPRESENTATION_RELATIONSHIP_WITH_TRANSFORMATION(#13)
SHAPE_REPRESENTATION_RELATIONSHIP()
);
#17=CONTEXT_DEPENDENT_SHAPE_REPRESENTATION(#14,#738);
#18=CONTEXT_DEPENDENT_SHAPE_REPRESENTATION(#15,#739);
#19=CONTEXT_DEPENDENT_SHAPE_REPRESENTATION(#16,#740);
#20=NEXT_ASSEMBLY_USAGE_OCCURRENCE(
'Compartments for stock chemical solutions:1',
'Compartments for stock chemical solutions:1',
'Compartments for stock chemical solutions:1',#748,#749,
'Compartments for stock chemical solutions:1');
#21=NEXT_ASSEMBLY_USAGE_OCCURRENCE(
'FINAL FIXTURE DESIGN_07.09.2025_Smaller Pipette Tip:1',
'FINAL FIXTURE DESIGN_07.09.2025_Smaller Pipette Tip:1',
'FINAL FIXTURE DESIGN_07.09.2025_Smaller Pipette Tip:1',#747,#748,
'FINAL FIXTURE DESIGN_07.09.2025_Smaller Pipette Tip:1');
#22=NEXT_ASSEMBLY_USAGE_OCCURRENCE('accesories_sd:1','accesories_sd:1',
'accesories_sd:1',#746,#747,'accesories_sd:1');
#23=SHAPE_REPRESENTATION_RELATIONSHIP('SRR','None',#744,#24);
#24=ADVANCED_BREP_SHAPE_REPRESENTATION('',(#26),#724);
#25=STYLED_ITEM('',(#766),#26);
#26=MANIFOLD_SOLID_BREP('Body1',#395);
#27=FACE_BOUND('',#77,.T.);
#28=FACE_BOUND('',#78,.T.);
#29=FACE_BOUND('',#79,.T.);
#30=FACE_BOUND('',#80,.T.);
#31=FACE_BOUND('',#81,.T.);
#32=FACE_BOUND('',#82,.T.);
#33=FACE_BOUND('',#83,.T.);
#34=FACE_BOUND('',#84,.T.);
#35=PLANE('',#415);
#36=PLANE('',#427);
#37=PLANE('',#432);
#38=PLANE('',#434);
#39=PLANE('',#438);
#40=PLANE('',#441);
#41=PLANE('',#444);
#42=PLANE('',#447);
#43=PLANE('',#450);
#44=PLANE('',#453);
#45=PLANE('',#456);
#46=PLANE('',#459);
#47=PLANE('',#460);
#48=PLANE('',#461);
#49=FACE_OUTER_BOUND('',#75,.T.);
#50=FACE_OUTER_BOUND('',#76,.T.);
#51=FACE_OUTER_BOUND('',#85,.T.);
#52=FACE_OUTER_BOUND('',#86,.T.);
#53=FACE_OUTER_BOUND('',#87,.T.);
#54=FACE_OUTER_BOUND('',#88,.T.);
#55=FACE_OUTER_BOUND('',#89,.T.);
#56=FACE_OUTER_BOUND('',#90,.T.);
#57=FACE_OUTER_BOUND('',#91,.T.);
#58=FACE_OUTER_BOUND('',#92,.T.);
#59=FACE_OUTER_BOUND('',#93,.T.);
#60=FACE_OUTER_BOUND('',#94,.T.);
#61=FACE_OUTER_BOUND('',#95,.T.);
#62=FACE_OUTER_BOUND('',#96,.T.);
#63=FACE_OUTER_BOUND('',#97,.T.);
#64=FACE_OUTER_BOUND('',#98,.T.);
#65=FACE_OUTER_BOUND('',#99,.T.);
#66=FACE_OUTER_BOUND('',#100,.T.);
#67=FACE_OUTER_BOUND('',#101,.T.);
#68=FACE_OUTER_BOUND('',#102,.T.);
#69=FACE_OUTER_BOUND('',#103,.T.);
#70=FACE_OUTER_BOUND('',#104,.T.);
#71=FACE_OUTER_BOUND('',#105,.T.);
#72=FACE_OUTER_BOUND('',#106,.T.);
#73=FACE_OUTER_BOUND('',#107,.T.);
#74=FACE_OUTER_BOUND('',#108,.T.);
#75=EDGE_LOOP('',(#261,#262,#263,#264));
#76=EDGE_LOOP('',(#265,#266,#267,#268,#269,#270,#271,#272));
#77=EDGE_LOOP('',(#273));
#78=EDGE_LOOP('',(#274));
#79=EDGE_LOOP('',(#275));
#80=EDGE_LOOP('',(#276));
#81=EDGE_LOOP('',(#277));
#82=EDGE_LOOP('',(#278));
#83=EDGE_LOOP('',(#279));
#84=EDGE_LOOP('',(#280));
#85=EDGE_LOOP('',(#281,#282,#283,#284));
#86=EDGE_LOOP('',(#285,#286,#287,#288));
#87=EDGE_LOOP('',(#289,#290,#291,#292));
#88=EDGE_LOOP('',(#293,#294,#295,#296,#297,#298,#299,#300));
#89=EDGE_LOOP('',(#301,#302,#303,#304));
#90=EDGE_LOOP('',(#305,#306,#307,#308));
#91=EDGE_LOOP('',(#309,#310,#311,#312));
#92=EDGE_LOOP('',(#313));
#93=EDGE_LOOP('',(#314,#315,#316,#317));
#94=EDGE_LOOP('',(#318));
#95=EDGE_LOOP('',(#319,#320,#321,#322));
#96=EDGE_LOOP('',(#323));
#97=EDGE_LOOP('',(#324,#325,#326,#327));
#98=EDGE_LOOP('',(#328));
#99=EDGE_LOOP('',(#329,#330,#331,#332));
#100=EDGE_LOOP('',(#333));
#101=EDGE_LOOP('',(#334,#335,#336,#337));
#102=EDGE_LOOP('',(#338));
#103=EDGE_LOOP('',(#339,#340,#341,#342));
#104=EDGE_LOOP('',(#343));
#105=EDGE_LOOP('',(#344,#345,#346,#347));
#106=EDGE_LOOP('',(#348));
#107=EDGE_LOOP('',(#349,#350,#351,#352));
#108=EDGE_LOOP('',(#353,#354,#355,#356));
#109=LINE('',#612,#133);
#110=LINE('',#615,#134);
#111=LINE('',#618,#135);
#112=LINE('',#622,#136);
#113=LINE('',#626,#137);
#114=LINE('',#629,#138);
#115=LINE('',#648,#139);
#116=LINE('',#649,#140);
#117=LINE('',#653,#141);
#118=LINE('',#658,#142);
#119=LINE('',#659,#143);
#120=LINE('',#661,#144);
#121=LINE('',#663,#145);
#122=LINE('',#666,#146);
#123=LINE('',#668,#147);
#124=LINE('',#670,#148);
#125=LINE('',#673,#149);
#126=LINE('',#678,#150);
#127=LINE('',#683,#151);
#128=LINE('',#688,#152);
#129=LINE('',#693,#153);
#130=LINE('',#698,#154);
#131=LINE('',#703,#155);
#132=LINE('',#708,#156);
#133=VECTOR('',#477,10.);
#134=VECTOR('',#480,10.);
#135=VECTOR('',#483,10.);
#136=VECTOR('',#486,10.);
#137=VECTOR('',#489,10.);
#138=VECTOR('',#492,10.);
#139=VECTOR('',#511,10.);
#140=VECTOR('',#512,10.);
#141=VECTOR('',#517,10.);
#142=VECTOR('',#522,10.);
#143=VECTOR('',#523,10.);
#144=VECTOR('',#526,10.);
#145=VECTOR('',#527,10.);
#146=VECTOR('',#530,10.);
#147=VECTOR('',#533,10.);
#148=VECTOR('',#536,10.);
#149=VECTOR('',#539,14.25);
#150=VECTOR('',#546,14.25);
#151=VECTOR('',#553,9.5);
#152=VECTOR('',#560,9.5);
#153=VECTOR('',#567,9.5);
#154=VECTOR('',#574,9.5);
#155=VECTOR('',#581,9.5);
#156=VECTOR('',#588,9.5);
#157=CIRCLE('',#413,1.);
#158=CIRCLE('',#414,1.);
#159=CIRCLE('',#416,1.);
#160=CIRCLE('',#417,1.);
#161=CIRCLE('',#418,1.);
#162=CIRCLE('',#419,14.25);
#163=CIRCLE('',#420,14.25);
#164=CIRCLE('',#421,9.5);
#165=CIRCLE('',#422,9.5);
#166=CIRCLE('',#423,9.5);
#167=CIRCLE('',#424,9.5);
#168=CIRCLE('',#425,9.5);
#169=CIRCLE('',#426,9.5);
#170=CIRCLE('',#429,1.);
#171=CIRCLE('',#431,1.);
#172=CIRCLE('',#433,1.);
#173=CIRCLE('',#437,14.25);
#174=CIRCLE('',#440,14.25);
#175=CIRCLE('',#443,9.5);
#176=CIRCLE('',#446,9.5);
#177=CIRCLE('',#449,9.5);
#178=CIRCLE('',#452,9.5);
#179=CIRCLE('',#455,9.5);
#180=CIRCLE('',#458,9.5);
#181=VERTEX_POINT('',#608);
#182=VERTEX_POINT('',#609);
#183=VERTEX_POINT('',#611);
#184=VERTEX_POINT('',#613);
#185=VERTEX_POINT('',#617);
#186=VERTEX_POINT('',#619);
#187=VERTEX_POINT('',#621);
#188=VERTEX_POINT('',#623);
#189=VERTEX_POINT('',#625);
#190=VERTEX_POINT('',#627);
#191=VERTEX_POINT('',#630);
#192=VERTEX_POINT('',#632);
#193=VERTEX_POINT('',#634);
#194=VERTEX_POINT('',#636);
#195=VERTEX_POINT('',#638);
#196=VERTEX_POINT('',#640);
#197=VERTEX_POINT('',#642);
#198=VERTEX_POINT('',#644);
#199=VERTEX_POINT('',#647);
#200=VERTEX_POINT('',#651);
#201=VERTEX_POINT('',#655);
#202=VERTEX_POINT('',#656);
#203=VERTEX_POINT('',#662);
#204=VERTEX_POINT('',#664);
#205=VERTEX_POINT('',#672);
#206=VERTEX_POINT('',#677);
#207=VERTEX_POINT('',#682);
#208=VERTEX_POINT('',#687);
#209=VERTEX_POINT('',#692);
#210=VERTEX_POINT('',#697);
#211=VERTEX_POINT('',#702);
#212=VERTEX_POINT('',#707);
#213=EDGE_CURVE('',#181,#182,#157,.T.);
#214=EDGE_CURVE('',#182,#183,#109,.T.);
#215=EDGE_CURVE('',#183,#184,#158,.T.);
#216=EDGE_CURVE('',#184,#181,#110,.T.);
#217=EDGE_CURVE('',#183,#185,#111,.T.);
#218=EDGE_CURVE('',#186,#185,#159,.T.);
#219=EDGE_CURVE('',#186,#187,#112,.T.);
#220=EDGE_CURVE('',#188,#187,#160,.T.);
#221=EDGE_CURVE('',#188,#189,#113,.T.);
#222=EDGE_CURVE('',#190,#189,#161,.T.);
#223=EDGE_CURVE('',#190,#184,#114,.T.);
#224=EDGE_CURVE('',#191,#191,#162,.T.);
#225=EDGE_CURVE('',#192,#192,#163,.T.);
#226=EDGE_CURVE('',#193,#193,#164,.T.);
#227=EDGE_CURVE('',#194,#194,#165,.T.);
#228=EDGE_CURVE('',#195,#195,#166,.T.);
#229=EDGE_CURVE('',#196,#196,#167,.T.);
#230=EDGE_CURVE('',#197,#197,#168,.T.);
#231=EDGE_CURVE('',#198,#198,#169,.T.);
#232=EDGE_CURVE('',#199,#182,#115,.T.);
#233=EDGE_CURVE('',#185,#199,#116,.T.);
#234=EDGE_CURVE('',#199,#200,#170,.T.);
#235=EDGE_CURVE('',#200,#186,#117,.T.);
#236=EDGE_CURVE('',#201,#202,#171,.T.);
#237=EDGE_CURVE('',#202,#190,#118,.T.);
#238=EDGE_CURVE('',#189,#201,#119,.T.);
#239=EDGE_CURVE('',#181,#202,#120,.T.);
#240=EDGE_CURVE('',#201,#203,#121,.T.);
#241=EDGE_CURVE('',#204,#203,#172,.T.);
#242=EDGE_CURVE('',#204,#200,#122,.T.);
#243=EDGE_CURVE('',#203,#188,#123,.T.);
#244=EDGE_CURVE('',#187,#204,#124,.T.);
#245=EDGE_CURVE('',#191,#205,#125,.T.);
#246=EDGE_CURVE('',#205,#205,#173,.T.);
#247=EDGE_CURVE('',#192,#206,#126,.T.);
#248=EDGE_CURVE('',#206,#206,#174,.T.);
#249=EDGE_CURVE('',#193,#207,#127,.T.);
#250=EDGE_CURVE('',#207,#207,#175,.T.);
#251=EDGE_CURVE('',#194,#208,#128,.T.);
#252=EDGE_CURVE('',#208,#208,#176,.T.);
#253=EDGE_CURVE('',#195,#209,#129,.T.);
#254=EDGE_CURVE('',#209,#209,#177,.T.);
#255=EDGE_CURVE('',#196,#210,#130,.T.);
#256=EDGE_CURVE('',#210,#210,#178,.T.);
#257=EDGE_CURVE('',#197,#211,#131,.T.);
#258=EDGE_CURVE('',#211,#211,#179,.T.);
#259=EDGE_CURVE('',#198,#212,#132,.T.);
#260=EDGE_CURVE('',#212,#212,#180,.T.);
#261=ORIENTED_EDGE('',*,*,#213,.T.);
#262=ORIENTED_EDGE('',*,*,#214,.T.);
#263=ORIENTED_EDGE('',*,*,#215,.T.);
#264=ORIENTED_EDGE('',*,*,#216,.T.);
#265=ORIENTED_EDGE('',*,*,#215,.F.);
#266=ORIENTED_EDGE('',*,*,#217,.T.);
#267=ORIENTED_EDGE('',*,*,#218,.F.);
#268=ORIENTED_EDGE('',*,*,#219,.T.);
#269=ORIENTED_EDGE('',*,*,#220,.F.);
#270=ORIENTED_EDGE('',*,*,#221,.T.);
#271=ORIENTED_EDGE('',*,*,#222,.F.);
#272=ORIENTED_EDGE('',*,*,#223,.T.);
#273=ORIENTED_EDGE('',*,*,#224,.T.);
#274=ORIENTED_EDGE('',*,*,#225,.T.);
#275=ORIENTED_EDGE('',*,*,#226,.T.);
#276=ORIENTED_EDGE('',*,*,#227,.T.);
#277=ORIENTED_EDGE('',*,*,#228,.T.);
#278=ORIENTED_EDGE('',*,*,#229,.T.);
#279=ORIENTED_EDGE('',*,*,#230,.T.);
#280=ORIENTED_EDGE('',*,*,#231,.T.);
#281=ORIENTED_EDGE('',*,*,#214,.F.);
#282=ORIENTED_EDGE('',*,*,#232,.F.);
#283=ORIENTED_EDGE('',*,*,#233,.F.);
#284=ORIENTED_EDGE('',*,*,#217,.F.);
#285=ORIENTED_EDGE('',*,*,#234,.T.);
#286=ORIENTED_EDGE('',*,*,#235,.T.);
#287=ORIENTED_EDGE('',*,*,#218,.T.);
#288=ORIENTED_EDGE('',*,*,#233,.T.);
#289=ORIENTED_EDGE('',*,*,#236,.T.);
#290=ORIENTED_EDGE('',*,*,#237,.T.);
#291=ORIENTED_EDGE('',*,*,#222,.T.);
#292=ORIENTED_EDGE('',*,*,#238,.T.);
#293=ORIENTED_EDGE('',*,*,#213,.F.);
#294=ORIENTED_EDGE('',*,*,#239,.T.);
#295=ORIENTED_EDGE('',*,*,#236,.F.);
#296=ORIENTED_EDGE('',*,*,#240,.T.);
#297=ORIENTED_EDGE('',*,*,#241,.F.);
#298=ORIENTED_EDGE('',*,*,#242,.T.);
#299=ORIENTED_EDGE('',*,*,#234,.F.);
#300=ORIENTED_EDGE('',*,*,#232,.T.);
#301=ORIENTED_EDGE('',*,*,#238,.F.);
#302=ORIENTED_EDGE('',*,*,#221,.F.);
#303=ORIENTED_EDGE('',*,*,#243,.F.);
#304=ORIENTED_EDGE('',*,*,#240,.F.);
#305=ORIENTED_EDGE('',*,*,#241,.T.);
#306=ORIENTED_EDGE('',*,*,#243,.T.);
#307=ORIENTED_EDGE('',*,*,#220,.T.);
#308=ORIENTED_EDGE('',*,*,#244,.T.);
#309=ORIENTED_EDGE('',*,*,#224,.F.);
#310=ORIENTED_EDGE('',*,*,#245,.T.);
#311=ORIENTED_EDGE('',*,*,#246,.T.);
#312=ORIENTED_EDGE('',*,*,#245,.F.);
#313=ORIENTED_EDGE('',*,*,#246,.F.);
#314=ORIENTED_EDGE('',*,*,#225,.F.);
#315=ORIENTED_EDGE('',*,*,#247,.T.);
#316=ORIENTED_EDGE('',*,*,#248,.T.);
#317=ORIENTED_EDGE('',*,*,#247,.F.);
#318=ORIENTED_EDGE('',*,*,#248,.F.);
#319=ORIENTED_EDGE('',*,*,#226,.F.);
#320=ORIENTED_EDGE('',*,*,#249,.T.);
#321=ORIENTED_EDGE('',*,*,#250,.T.);
#322=ORIENTED_EDGE('',*,*,#249,.F.);
#323=ORIENTED_EDGE('',*,*,#250,.F.);
#324=ORIENTED_EDGE('',*,*,#227,.F.);
#325=ORIENTED_EDGE('',*,*,#251,.T.);
#326=ORIENTED_EDGE('',*,*,#252,.T.);
#327=ORIENTED_EDGE('',*,*,#251,.F.);
#328=ORIENTED_EDGE('',*,*,#252,.F.);
#329=ORIENTED_EDGE('',*,*,#228,.F.);
#330=ORIENTED_EDGE('',*,*,#253,.T.);
#331=ORIENTED_EDGE('',*,*,#254,.T.);
#332=ORIENTED_EDGE('',*,*,#253,.F.);
#333=ORIENTED_EDGE('',*,*,#254,.F.);
#334=ORIENTED_EDGE('',*,*,#229,.F.);
#335=ORIENTED_EDGE('',*,*,#255,.T.);
#336=ORIENTED_EDGE('',*,*,#256,.T.);
#337=ORIENTED_EDGE('',*,*,#255,.F.);
#338=ORIENTED_EDGE('',*,*,#256,.F.);
#339=ORIENTED_EDGE('',*,*,#230,.F.);
#340=ORIENTED_EDGE('',*,*,#257,.T.);
#341=ORIENTED_EDGE('',*,*,#258,.T.);
#342=ORIENTED_EDGE('',*,*,#257,.F.);
#343=ORIENTED_EDGE('',*,*,#258,.F.);
#344=ORIENTED_EDGE('',*,*,#231,.F.);
#345=ORIENTED_EDGE('',*,*,#259,.T.);
#346=ORIENTED_EDGE('',*,*,#260,.T.);
#347=ORIENTED_EDGE('',*,*,#259,.F.);
#348=ORIENTED_EDGE('',*,*,#260,.F.);
#349=ORIENTED_EDGE('',*,*,#235,.F.);
#350=ORIENTED_EDGE('',*,*,#242,.F.);
#351=ORIENTED_EDGE('',*,*,#244,.F.);
#352=ORIENTED_EDGE('',*,*,#219,.F.);
#353=ORIENTED_EDGE('',*,*,#216,.F.);
#354=ORIENTED_EDGE('',*,*,#223,.F.);
#355=ORIENTED_EDGE('',*,*,#237,.F.);
#356=ORIENTED_EDGE('',*,*,#239,.F.);
#357=CYLINDRICAL_SURFACE('',#412,1.);
#358=CYLINDRICAL_SURFACE('',#428,1.);
#359=CYLINDRICAL_SURFACE('',#430,1.);
#360=CYLINDRICAL_SURFACE('',#435,1.);
#361=CYLINDRICAL_SURFACE('',#436,14.25);
#362=CYLINDRICAL_SURFACE('',#439,14.25);
#363=CYLINDRICAL_SURFACE('',#442,9.5);
#364=CYLINDRICAL_SURFACE('',#445,9.5);
#365=CYLINDRICAL_SURFACE('',#448,9.5);
#366=CYLINDRICAL_SURFACE('',#451,9.5);
#367=CYLINDRICAL_SURFACE('',#454,9.5);
#368=CYLINDRICAL_SURFACE('',#457,9.5);
#369=ADVANCED_FACE('',(#49),#357,.T.);
#370=ADVANCED_FACE('',(#50,#27,#28,#29,#30,#31,#32,#33,#34),#35,.T.);
#371=ADVANCED_FACE('',(#51),#36,.F.);
#372=ADVANCED_FACE('',(#52),#358,.T.);
#373=ADVANCED_FACE('',(#53),#359,.T.);
#374=ADVANCED_FACE('',(#54),#37,.F.);
#375=ADVANCED_FACE('',(#55),#38,.F.);
#376=ADVANCED_FACE('',(#56),#360,.T.);
#377=ADVANCED_FACE('',(#57),#361,.F.);
#378=ADVANCED_FACE('',(#58),#39,.T.);
#379=ADVANCED_FACE('',(#59),#362,.F.);
#380=ADVANCED_FACE('',(#60),#40,.T.);
#381=ADVANCED_FACE('',(#61),#363,.F.);
#382=ADVANCED_FACE('',(#62),#41,.T.);
#383=ADVANCED_FACE('',(#63),#364,.F.);
#384=ADVANCED_FACE('',(#64),#42,.T.);
#385=ADVANCED_FACE('',(#65),#365,.F.);
#386=ADVANCED_FACE('',(#66),#43,.T.);
#387=ADVANCED_FACE('',(#67),#366,.F.);
#388=ADVANCED_FACE('',(#68),#44,.T.);
#389=ADVANCED_FACE('',(#69),#367,.F.);
#390=ADVANCED_FACE('',(#70),#45,.T.);
#391=ADVANCED_FACE('',(#71),#368,.F.);
#392=ADVANCED_FACE('',(#72),#46,.T.);
#393=ADVANCED_FACE('',(#73),#47,.F.);
#394=ADVANCED_FACE('',(#74),#48,.F.);
#395=CLOSED_SHELL('',(#369,#370,#371,#372,#373,#374,#375,#376,#377,#378,
#379,#380,#381,#382,#383,#384,#385,#386,#387,#388,#389,#390,#391,#392,#393,
#394));
#396=DERIVED_UNIT_ELEMENT(#398,1.);
#397=DERIVED_UNIT_ELEMENT(#727,-3.);
#398=(
MASS_UNIT()
NAMED_UNIT(*)
SI_UNIT(.KILO.,.GRAM.)
);
#399=DERIVED_UNIT((#396,#397));
#400=MEASURE_REPRESENTATION_ITEM('density measure',
POSITIVE_RATIO_MEASURE(7850.),#399);
#401=PROPERTY_DEFINITION_REPRESENTATION(#406,#403);
#402=PROPERTY_DEFINITION_REPRESENTATION(#407,#404);
#403=REPRESENTATION('material name',(#405),#724);
#404=REPRESENTATION('density',(#400),#724);
#405=DESCRIPTIVE_REPRESENTATION_ITEM('Steel','Steel');
#406=PROPERTY_DEFINITION('material property','material name',#749);
#407=PROPERTY_DEFINITION('material property','density of part',#749);
#408=AXIS2_PLACEMENT_3D('',#603,#465,#466);
#409=AXIS2_PLACEMENT_3D('',#604,#467,#468);
#410=AXIS2_PLACEMENT_3D('',#605,#469,#470);
#411=AXIS2_PLACEMENT_3D('',#606,#471,#472);
#412=AXIS2_PLACEMENT_3D('',#607,#473,#474);
#413=AXIS2_PLACEMENT_3D('',#610,#475,#476);
#414=AXIS2_PLACEMENT_3D('',#614,#478,#479);
#415=AXIS2_PLACEMENT_3D('',#616,#481,#482);
#416=AXIS2_PLACEMENT_3D('',#620,#484,#485);
#417=AXIS2_PLACEMENT_3D('',#624,#487,#488);
#418=AXIS2_PLACEMENT_3D('',#628,#490,#491);
#419=AXIS2_PLACEMENT_3D('',#631,#493,#494);
#420=AXIS2_PLACEMENT_3D('',#633,#495,#496);
#421=AXIS2_PLACEMENT_3D('',#635,#497,#498);
#422=AXIS2_PLACEMENT_3D('',#637,#499,#500);
#423=AXIS2_PLACEMENT_3D('',#639,#501,#502);
#424=AXIS2_PLACEMENT_3D('',#641,#503,#504);
#425=AXIS2_PLACEMENT_3D('',#643,#505,#506);
#426=AXIS2_PLACEMENT_3D('',#645,#507,#508);
#427=AXIS2_PLACEMENT_3D('',#646,#509,#510);
#428=AXIS2_PLACEMENT_3D('',#650,#513,#514);
#429=AXIS2_PLACEMENT_3D('',#652,#515,#516);
#430=AXIS2_PLACEMENT_3D('',#654,#518,#519);
#431=AXIS2_PLACEMENT_3D('',#657,#520,#521);
#432=AXIS2_PLACEMENT_3D('',#660,#524,#525);
#433=AXIS2_PLACEMENT_3D('',#665,#528,#529);
#434=AXIS2_PLACEMENT_3D('',#667,#531,#532);
#435=AXIS2_PLACEMENT_3D('',#669,#534,#535);
#436=AXIS2_PLACEMENT_3D('',#671,#537,#538);
#437=AXIS2_PLACEMENT_3D('',#674,#540,#541);
#438=AXIS2_PLACEMENT_3D('',#675,#542,#543);
#439=AXIS2_PLACEMENT_3D('',#676,#544,#545);
#440=AXIS2_PLACEMENT_3D('',#679,#547,#548);
#441=AXIS2_PLACEMENT_3D('',#680,#549,#550);
#442=AXIS2_PLACEMENT_3D('',#681,#551,#552);
#443=AXIS2_PLACEMENT_3D('',#684,#554,#555);
#444=AXIS2_PLACEMENT_3D('',#685,#556,#557);
#445=AXIS2_PLACEMENT_3D('',#686,#558,#559);
#446=AXIS2_PLACEMENT_3D('',#689,#561,#562);
#447=AXIS2_PLACEMENT_3D('',#690,#563,#564);
#448=AXIS2_PLACEMENT_3D('',#691,#565,#566);
#449=AXIS2_PLACEMENT_3D('',#694,#568,#569);
#450=AXIS2_PLACEMENT_3D('',#695,#570,#571);
#451=AXIS2_PLACEMENT_3D('',#696,#572,#573);
#452=AXIS2_PLACEMENT_3D('',#699,#575,#576);
#453=AXIS2_PLACEMENT_3D('',#700,#577,#578);
#454=AXIS2_PLACEMENT_3D('',#701,#579,#580);
#455=AXIS2_PLACEMENT_3D('',#704,#582,#583);
#456=AXIS2_PLACEMENT_3D('',#705,#584,#585);
#457=AXIS2_PLACEMENT_3D('',#706,#586,#587);
#458=AXIS2_PLACEMENT_3D('',#709,#589,#590);
#459=AXIS2_PLACEMENT_3D('',#710,#591,#592);
#460=AXIS2_PLACEMENT_3D('',#711,#593,#594);
#461=AXIS2_PLACEMENT_3D('',#712,#595,#596);
#462=AXIS2_PLACEMENT_3D('',#713,#597,#598);
#463=AXIS2_PLACEMENT_3D('',#714,#599,#600);
#464=AXIS2_PLACEMENT_3D('',#715,#601,#602);
#465=DIRECTION('axis',(0.,0.,1.));
#466=DIRECTION('refdir',(1.,0.,0.));
#467=DIRECTION('axis',(0.,0.,1.));
#468=DIRECTION('refdir',(1.,0.,0.));
#469=DIRECTION('axis',(0.,0.,1.));
#470=DIRECTION('refdir',(1.,0.,0.));
#471=DIRECTION('axis',(0.,0.,1.));
#472=DIRECTION('refdir',(1.,0.,0.));
#473=DIRECTION('center_axis',(0.,0.,-1.));
#474=DIRECTION('ref_axis',(0.707106781186541,0.707106781186554,0.));
#475=DIRECTION('center_axis',(0.,0.,1.));
#476=DIRECTION('ref_axis',(0.707106781186541,0.707106781186554,0.));
#477=DIRECTION('',(0.,0.,1.));
#478=DIRECTION('center_axis',(0.,0.,-1.));
#479=DIRECTION('ref_axis',(0.707106781186541,0.707106781186554,0.));
#480=DIRECTION('',(0.,0.,-1.));
#481=DIRECTION('center_axis',(0.,0.,1.));
#482=DIRECTION('ref_axis',(0.,-1.,0.));
#483=DIRECTION('',(-1.,0.,0.));
#484=DIRECTION('center_axis',(0.,0.,-1.));
#485=DIRECTION('ref_axis',(-0.707106781186548,0.707106781186548,0.));
#486=DIRECTION('',(0.,-1.,0.));
#487=DIRECTION('center_axis',(0.,0.,-1.));
#488=DIRECTION('ref_axis',(-0.707106781186543,-0.707106781186552,0.));
#489=DIRECTION('',(1.,0.,0.));
#490=DIRECTION('center_axis',(0.,0.,-1.));
#491=DIRECTION('ref_axis',(0.707106781186548,-0.707106781186548,0.));
#492=DIRECTION('',(0.,1.,0.));
#493=DIRECTION('center_axis',(0.,0.,-1.));
#494=DIRECTION('ref_axis',(-1.,0.,0.));
#495=DIRECTION('center_axis',(0.,0.,-1.));
#496=DIRECTION('ref_axis',(-1.,0.,0.));
#497=DIRECTION('center_axis',(0.,0.,-1.));
#498=DIRECTION('ref_axis',(-1.,0.,0.));
#499=DIRECTION('center_axis',(0.,0.,-1.));
#500=DIRECTION('ref_axis',(-1.,0.,0.));
#501=DIRECTION('center_axis',(0.,0.,-1.));
#502=DIRECTION('ref_axis',(-1.,0.,0.));
#503=DIRECTION('center_axis',(0.,0.,-1.));
#504=DIRECTION('ref_axis',(-1.,0.,0.));
#505=DIRECTION('center_axis',(0.,0.,-1.));
#506=DIRECTION('ref_axis',(-1.,0.,0.));
#507=DIRECTION('center_axis',(0.,0.,-1.));
#508=DIRECTION('ref_axis',(-1.,0.,0.));
#509=DIRECTION('center_axis',(0.,-1.,0.));
#510=DIRECTION('ref_axis',(0.,0.,-1.));
#511=DIRECTION('',(1.,0.,0.));
#512=DIRECTION('',(0.,0.,-1.));
#513=DIRECTION('center_axis',(0.,0.,-1.));
#514=DIRECTION('ref_axis',(-0.707106781186548,0.707106781186548,0.));
#515=DIRECTION('center_axis',(0.,0.,1.));
#516=DIRECTION('ref_axis',(-0.707106781186548,0.707106781186548,0.));
#517=DIRECTION('',(0.,0.,1.));
#518=DIRECTION('center_axis',(0.,0.,-1.));
#519=DIRECTION('ref_axis',(0.707106781186548,-0.707106781186548,0.));
#520=DIRECTION('center_axis',(0.,0.,1.));
#521=DIRECTION('ref_axis',(0.707106781186548,-0.707106781186548,0.));
#522=DIRECTION('',(0.,0.,1.));
#523=DIRECTION('',(0.,0.,-1.));
#524=DIRECTION('center_axis',(0.,0.,1.));
#525=DIRECTION('ref_axis',(0.,-1.,0.));
#526=DIRECTION('',(0.,-1.,0.));
#527=DIRECTION('',(-1.,0.,0.));
#528=DIRECTION('center_axis',(0.,0.,1.));
#529=DIRECTION('ref_axis',(-0.707106781186543,-0.707106781186552,0.));
#530=DIRECTION('',(0.,1.,0.));
#531=DIRECTION('center_axis',(0.,1.,0.));
#532=DIRECTION('ref_axis',(0.,0.,1.));
#533=DIRECTION('',(0.,0.,1.));
#534=DIRECTION('center_axis',(0.,0.,-1.));
#535=DIRECTION('ref_axis',(-0.707106781186543,-0.707106781186552,0.));
#536=DIRECTION('',(0.,0.,-1.));
#537=DIRECTION('center_axis',(0.,0.,-1.));
#538=DIRECTION('ref_axis',(-1.,0.,0.));
#539=DIRECTION('',(0.,0.,-1.));
#540=DIRECTION('center_axis',(0.,0.,-1.));
#541=DIRECTION('ref_axis',(-1.,0.,0.));
#542=DIRECTION('center_axis',(0.,0.,1.));
#543=DIRECTION('ref_axis',(-1.,0.,0.));
#544=DIRECTION('center_axis',(0.,0.,-1.));
#545=DIRECTION('ref_axis',(-1.,0.,0.));
#546=DIRECTION('',(0.,0.,-1.));
#547=DIRECTION('center_axis',(0.,0.,-1.));
#548=DIRECTION('ref_axis',(-1.,0.,0.));
#549=DIRECTION('center_axis',(0.,0.,1.));
#550=DIRECTION('ref_axis',(-1.,0.,0.));
#551=DIRECTION('center_axis',(0.,0.,-1.));
#552=DIRECTION('ref_axis',(-1.,0.,0.));
#553=DIRECTION('',(0.,0.,-1.));
#554=DIRECTION('center_axis',(0.,0.,-1.));
#555=DIRECTION('ref_axis',(-1.,0.,0.));
#556=DIRECTION('center_axis',(0.,0.,1.));
#557=DIRECTION('ref_axis',(-1.,0.,0.));
#558=DIRECTION('center_axis',(0.,0.,-1.));
#559=DIRECTION('ref_axis',(-1.,0.,0.));
#560=DIRECTION('',(0.,0.,-1.));
#561=DIRECTION('center_axis',(0.,0.,-1.));
#562=DIRECTION('ref_axis',(-1.,0.,0.));
#563=DIRECTION('center_axis',(0.,0.,1.));
#564=DIRECTION('ref_axis',(-1.,0.,0.));
#565=DIRECTION('center_axis',(0.,0.,-1.));
#566=DIRECTION('ref_axis',(-1.,0.,0.));
#567=DIRECTION('',(0.,0.,-1.));
#568=DIRECTION('center_axis',(0.,0.,-1.));
#569=DIRECTION('ref_axis',(-1.,0.,0.));
#570=DIRECTION('center_axis',(0.,0.,1.));
#571=DIRECTION('ref_axis',(-1.,0.,0.));
#572=DIRECTION('center_axis',(0.,0.,-1.));
#573=DIRECTION('ref_axis',(-1.,0.,0.));
#574=DIRECTION('',(0.,0.,-1.));
#575=DIRECTION('center_axis',(0.,0.,-1.));
#576=DIRECTION('ref_axis',(-1.,0.,0.));
#577=DIRECTION('center_axis',(0.,0.,1.));
#578=DIRECTION('ref_axis',(-1.,0.,0.));
#579=DIRECTION('center_axis',(0.,0.,-1.));
#580=DIRECTION('ref_axis',(-1.,0.,0.));
#581=DIRECTION('',(0.,0.,-1.));
#582=DIRECTION('center_axis',(0.,0.,-1.));
#583=DIRECTION('ref_axis',(-1.,0.,0.));
#584=DIRECTION('center_axis',(0.,0.,1.));
#585=DIRECTION('ref_axis',(-1.,0.,0.));
#586=DIRECTION('center_axis',(0.,0.,-1.));
#587=DIRECTION('ref_axis',(-1.,0.,0.));
#588=DIRECTION('',(0.,0.,-1.));
#589=DIRECTION('center_axis',(0.,0.,-1.));
#590=DIRECTION('ref_axis',(-1.,0.,0.));
#591=DIRECTION('center_axis',(0.,0.,1.));
#592=DIRECTION('ref_axis',(-1.,0.,0.));
#593=DIRECTION('center_axis',(1.,0.,0.));
#594=DIRECTION('ref_axis',(0.,0.,1.));
#595=DIRECTION('center_axis',(-1.,0.,0.));
#596=DIRECTION('ref_axis',(0.,0.,-1.));
#597=DIRECTION('',(1.39698012160676E-15,-1.55728481422386E-15,0.999999999999999));
#598=DIRECTION('',(1.,7.21644966006351E-16,1.11022302462516E-16));
#599=DIRECTION('',(0.,0.,1.));
#600=DIRECTION('',(1.,0.,0.));
#601=DIRECTION('',(0.,0.,1.));
#602=DIRECTION('',(1.,0.,0.));
#603=CARTESIAN_POINT('',(0.,0.,0.));
#604=CARTESIAN_POINT('',(0.,0.,0.));
#605=CARTESIAN_POINT('',(0.,0.,0.));
#606=CARTESIAN_POINT('',(0.,0.,0.));
#607=CARTESIAN_POINT('Origin',(84.,-0.999999999999996,25.));
#608=CARTESIAN_POINT('',(85.,-0.999999999999996,10.));
#609=CARTESIAN_POINT('',(84.,0.,10.));
#610=CARTESIAN_POINT('Origin',(84.,-0.999999999999996,10.));
#611=CARTESIAN_POINT('',(84.,0.,40.));
#612=CARTESIAN_POINT('',(84.,0.,25.));
#613=CARTESIAN_POINT('',(85.,-0.999999999999996,40.));
#614=CARTESIAN_POINT('Origin',(84.,-0.999999999999996,40.));
#615=CARTESIAN_POINT('',(85.,-0.999999999999996,25.));
#616=CARTESIAN_POINT('Origin',(49.5,-60.,40.));
#617=CARTESIAN_POINT('',(15.,0.,40.));
#618=CARTESIAN_POINT('',(49.5,0.,40.));
#619=CARTESIAN_POINT('',(14.,-0.999999999999996,40.));
#620=CARTESIAN_POINT('Origin',(15.,-1.,40.));
#621=CARTESIAN_POINT('',(14.,-119.,40.));
#622=CARTESIAN_POINT('',(14.,-60.,40.));
#623=CARTESIAN_POINT('',(15.,-120.,40.));
#624=CARTESIAN_POINT('Origin',(15.,-119.,40.));
#625=CARTESIAN_POINT('',(84.,-120.,40.));
#626=CARTESIAN_POINT('',(49.5,-120.,40.));
#627=CARTESIAN_POINT('',(85.,-119.,40.));
#628=CARTESIAN_POINT('Origin',(84.,-119.,40.));
#629=CARTESIAN_POINT('',(85.,-60.,40.));
#630=CARTESIAN_POINT('',(47.25,-91.,40.));
#631=CARTESIAN_POINT('Origin',(33.,-91.,40.));
#632=CARTESIAN_POINT('',(80.2500000000001,-91.,40.));
#633=CARTESIAN_POINT('Origin',(66.0000000000001,-91.,40.));
#634=CARTESIAN_POINT('',(75.5,-38.5,40.));
#635=CARTESIAN_POINT('Origin',(66.,-38.5,40.));
#636=CARTESIAN_POINT('',(42.5,-14.5,40.));
#637=CARTESIAN_POINT('Origin',(33.,-14.5,40.));
#638=CARTESIAN_POINT('',(42.5,-62.5,40.));
#639=CARTESIAN_POINT('Origin',(33.,-62.5,40.));
#640=CARTESIAN_POINT('',(42.5,-38.5,40.));
#641=CARTESIAN_POINT('Origin',(33.,-38.5,40.));
#642=CARTESIAN_POINT('',(75.5,-14.5,40.));
#643=CARTESIAN_POINT('Origin',(66.,-14.5,40.));
#644=CARTESIAN_POINT('',(75.5,-62.5,40.));
#645=CARTESIAN_POINT('Origin',(66.,-62.5,40.));
#646=CARTESIAN_POINT('Origin',(49.5,0.,25.));
#647=CARTESIAN_POINT('',(15.,0.,10.));
#648=CARTESIAN_POINT('',(49.5,0.,10.));
#649=CARTESIAN_POINT('',(15.,0.,25.));
#650=CARTESIAN_POINT('Origin',(15.,-1.,25.));
#651=CARTESIAN_POINT('',(14.,-0.999999999999996,10.));
#652=CARTESIAN_POINT('Origin',(15.,-1.,10.));
#653=CARTESIAN_POINT('',(14.,-1.,25.));
#654=CARTESIAN_POINT('Origin',(84.,-119.,25.));
#655=CARTESIAN_POINT('',(84.,-120.,10.));
#656=CARTESIAN_POINT('',(85.,-119.,10.));
#657=CARTESIAN_POINT('Origin',(84.,-119.,10.));
#658=CARTESIAN_POINT('',(85.,-119.,25.));
#659=CARTESIAN_POINT('',(84.,-120.,25.));
#660=CARTESIAN_POINT('Origin',(49.5,-60.,10.));
#661=CARTESIAN_POINT('',(85.,-60.,10.));
#662=CARTESIAN_POINT('',(15.,-120.,10.));
#663=CARTESIAN_POINT('',(49.5,-120.,10.));
#664=CARTESIAN_POINT('',(14.,-119.,10.));
#665=CARTESIAN_POINT('Origin',(15.,-119.,10.));
#666=CARTESIAN_POINT('',(14.,-60.,10.));
#667=CARTESIAN_POINT('Origin',(49.5,-120.,25.));
#668=CARTESIAN_POINT('',(15.,-120.,25.));
#669=CARTESIAN_POINT('Origin',(15.,-119.,25.));
#670=CARTESIAN_POINT('',(14.,-119.,25.));
#671=CARTESIAN_POINT('Origin',(33.,-91.,40.));
#672=CARTESIAN_POINT('',(47.25,-91.,18.));
#673=CARTESIAN_POINT('',(47.25,-91.,40.));
#674=CARTESIAN_POINT('Origin',(33.,-91.,18.));
#675=CARTESIAN_POINT('Origin',(33.,-91.,18.));
#676=CARTESIAN_POINT('Origin',(66.0000000000001,-91.,40.));
#677=CARTESIAN_POINT('',(80.2500000000001,-91.,18.));
#678=CARTESIAN_POINT('',(80.2500000000001,-91.,40.));
#679=CARTESIAN_POINT('Origin',(66.0000000000001,-91.,18.));
#680=CARTESIAN_POINT('Origin',(66.0000000000001,-91.,18.));
#681=CARTESIAN_POINT('Origin',(66.,-38.5,40.));
#682=CARTESIAN_POINT('',(75.5,-38.5,25.));
#683=CARTESIAN_POINT('',(75.5,-38.5,40.));
#684=CARTESIAN_POINT('Origin',(66.,-38.5,25.));
#685=CARTESIAN_POINT('Origin',(66.,-38.5,25.));
#686=CARTESIAN_POINT('Origin',(33.,-14.5,40.));
#687=CARTESIAN_POINT('',(42.5,-14.5,25.));
#688=CARTESIAN_POINT('',(42.5,-14.5,40.));
#689=CARTESIAN_POINT('Origin',(33.,-14.5,25.));
#690=CARTESIAN_POINT('Origin',(33.,-14.5,25.));
#691=CARTESIAN_POINT('Origin',(33.,-62.5,40.));
#692=CARTESIAN_POINT('',(42.5,-62.5,25.));
#693=CARTESIAN_POINT('',(42.5,-62.5,40.));
#694=CARTESIAN_POINT('Origin',(33.,-62.5,25.));
#695=CARTESIAN_POINT('Origin',(33.,-62.5,25.));
#696=CARTESIAN_POINT('Origin',(33.,-38.5,40.));
#697=CARTESIAN_POINT('',(42.5,-38.5,25.));
#698=CARTESIAN_POINT('',(42.5,-38.5,40.));
#699=CARTESIAN_POINT('Origin',(33.,-38.5,25.));
#700=CARTESIAN_POINT('Origin',(33.,-38.5,25.));
#701=CARTESIAN_POINT('Origin',(66.,-14.5,40.));
#702=CARTESIAN_POINT('',(75.5,-14.5,25.));
#703=CARTESIAN_POINT('',(75.5,-14.5,40.));
#704=CARTESIAN_POINT('Origin',(66.,-14.5,25.));
#705=CARTESIAN_POINT('Origin',(66.,-14.5,25.));
#706=CARTESIAN_POINT('Origin',(66.,-62.5,40.));
#707=CARTESIAN_POINT('',(75.5,-62.5,25.));
#708=CARTESIAN_POINT('',(75.5,-62.5,40.));
#709=CARTESIAN_POINT('Origin',(66.,-62.5,25.));
#710=CARTESIAN_POINT('Origin',(66.,-62.5,25.));
#711=CARTESIAN_POINT('Origin',(14.,-60.,25.));
#712=CARTESIAN_POINT('Origin',(85.,-60.,25.));
#713=CARTESIAN_POINT('',(145.790033373319,-22.7525928367036,-72.1066502177835));
#714=CARTESIAN_POINT('',(0.,0.,0.));
#715=CARTESIAN_POINT('',(0.,0.,0.));
#716=UNCERTAINTY_MEASURE_WITH_UNIT(LENGTH_MEASURE(0.01),#726,
'DISTANCE_ACCURACY_VALUE',
'Maximum model space distance between geometric entities at asserted c
onnectivities');
#717=UNCERTAINTY_MEASURE_WITH_UNIT(LENGTH_MEASURE(0.01),#726,
'DISTANCE_ACCURACY_VALUE',
'Maximum model space distance between geometric entities at asserted c
onnectivities');
#718=UNCERTAINTY_MEASURE_WITH_UNIT(LENGTH_MEASURE(0.01),#726,
'DISTANCE_ACCURACY_VALUE',
'Maximum model space distance between geometric entities at asserted c
onnectivities');
#719=UNCERTAINTY_MEASURE_WITH_UNIT(LENGTH_MEASURE(0.01),#726,
'DISTANCE_ACCURACY_VALUE',
'Maximum model space distance between geometric entities at asserted c
onnectivities');
#720=UNCERTAINTY_MEASURE_WITH_UNIT(LENGTH_MEASURE(0.01),#726,
'DISTANCE_ACCURACY_VALUE',
'Maximum model space distance between geometric entities at asserted c
onnectivities');
#721=(
GEOMETRIC_REPRESENTATION_CONTEXT(3)
GLOBAL_UNCERTAINTY_ASSIGNED_CONTEXT((#716))
GLOBAL_UNIT_ASSIGNED_CONTEXT((#726,#728,#729))
REPRESENTATION_CONTEXT('','3D')
);
#722=(
GEOMETRIC_REPRESENTATION_CONTEXT(3)
GLOBAL_UNCERTAINTY_ASSIGNED_CONTEXT((#717))
GLOBAL_UNIT_ASSIGNED_CONTEXT((#726,#728,#729))
REPRESENTATION_CONTEXT('','3D')
);
#723=(
GEOMETRIC_REPRESENTATION_CONTEXT(3)
GLOBAL_UNCERTAINTY_ASSIGNED_CONTEXT((#718))
GLOBAL_UNIT_ASSIGNED_CONTEXT((#726,#728,#729))
REPRESENTATION_CONTEXT('','3D')
);
#724=(
GEOMETRIC_REPRESENTATION_CONTEXT(3)
GLOBAL_UNCERTAINTY_ASSIGNED_CONTEXT((#719))
GLOBAL_UNIT_ASSIGNED_CONTEXT((#726,#728,#729))
REPRESENTATION_CONTEXT('','3D')
);
#725=(
GEOMETRIC_REPRESENTATION_CONTEXT(3)
GLOBAL_UNCERTAINTY_ASSIGNED_CONTEXT((#720))
GLOBAL_UNIT_ASSIGNED_CONTEXT((#726,#728,#729))
REPRESENTATION_CONTEXT('','3D')
);
#726=(
LENGTH_UNIT()
NAMED_UNIT(*)
SI_UNIT(.MILLI.,.METRE.)
);
#727=(
LENGTH_UNIT()
NAMED_UNIT(*)
SI_UNIT($,.METRE.)
);
#728=(
NAMED_UNIT(*)
PLANE_ANGLE_UNIT()
SI_UNIT($,.RADIAN.)
);
#729=(
NAMED_UNIT(*)
SI_UNIT($,.STERADIAN.)
SOLID_ANGLE_UNIT()
);
#730=SHAPE_DEFINITION_REPRESENTATION(#734,#741);
#731=SHAPE_DEFINITION_REPRESENTATION(#735,#742);
#732=SHAPE_DEFINITION_REPRESENTATION(#736,#743);
#733=SHAPE_DEFINITION_REPRESENTATION(#737,#744);
#734=PRODUCT_DEFINITION_SHAPE('',$,#746);
#735=PRODUCT_DEFINITION_SHAPE('',$,#747);
#736=PRODUCT_DEFINITION_SHAPE('',$,#748);
#737=PRODUCT_DEFINITION_SHAPE('',$,#749);
#738=PRODUCT_DEFINITION_SHAPE($,$,#20);
#739=PRODUCT_DEFINITION_SHAPE($,$,#21);
#740=PRODUCT_DEFINITION_SHAPE($,$,#22);
#741=SHAPE_REPRESENTATION('',(#408,#464),#721);
#742=SHAPE_REPRESENTATION('',(#409,#463),#722);
#743=SHAPE_REPRESENTATION('',(#410,#462),#723);
#744=SHAPE_REPRESENTATION('',(#411),#724);
#745=PRODUCT_DEFINITION_CONTEXT('part definition',#759,'design');
#746=PRODUCT_DEFINITION('2026-05-06-02-11-17-818','Bed_plate_assembly',
#750,#745);
#747=PRODUCT_DEFINITION('2026-05-06-02-11-17-819','accesories_sd',#751,
#745);
#748=PRODUCT_DEFINITION('2026-05-06-02-11-17-820',
'FINAL FIXTURE DESIGN_07.09.2025_Smaller Pipette Tip',#752,#745);
#749=PRODUCT_DEFINITION('2026-05-06-02-11-17-822',
'Compartments for stock chemical solutions',#753,#745);
#750=PRODUCT_DEFINITION_FORMATION('',$,#761);
#751=PRODUCT_DEFINITION_FORMATION('',$,#762);
#752=PRODUCT_DEFINITION_FORMATION('',$,#763);
#753=PRODUCT_DEFINITION_FORMATION('',$,#764);
#754=PRODUCT_RELATED_PRODUCT_CATEGORY('Bed_plate_assembly',
'Bed_plate_assembly',(#761));
#755=PRODUCT_RELATED_PRODUCT_CATEGORY('accesories_sd','accesories_sd',(#762));
#756=PRODUCT_RELATED_PRODUCT_CATEGORY(
'FINAL FIXTURE DESIGN_07.09.2025_Smaller Pipette Tip',
'FINAL FIXTURE DESIGN_07.09.2025_Smaller Pipette Tip',(#763));
#757=PRODUCT_RELATED_PRODUCT_CATEGORY(
'Compartments for stock chemical solutions',
'Compartments for stock chemical solutions',(#764));
#758=APPLICATION_PROTOCOL_DEFINITION('international standard',
'automotive_design',2009,#759);
#759=APPLICATION_CONTEXT(
'Core Data for Automotive Mechanical Design Process');
#760=PRODUCT_CONTEXT('part definition',#759,'mechanical');
#761=PRODUCT('2026-05-06-02-11-17-818','Bed_plate_assembly',$,(#760));
#762=PRODUCT('2026-05-06-02-11-17-819','accesories_sd',$,(#760));
#763=PRODUCT('2026-05-06-02-11-17-820',
'FINAL FIXTURE DESIGN_07.09.2025_Smaller Pipette Tip',$,(#760));
#764=PRODUCT('2026-05-06-02-11-17-822',
'Compartments for stock chemical solutions',$,(#760));
#765=PRESENTATION_STYLE_ASSIGNMENT((#767));
#766=PRESENTATION_STYLE_ASSIGNMENT((#768));
#767=SURFACE_STYLE_USAGE(.BOTH.,#769);
#768=SURFACE_STYLE_USAGE(.BOTH.,#770);
#769=SURFACE_SIDE_STYLE('',(#771));
#770=SURFACE_SIDE_STYLE('',(#772));
#771=SURFACE_STYLE_FILL_AREA(#773);
#772=SURFACE_STYLE_FILL_AREA(#774);
#773=FILL_AREA_STYLE('Steel - Satin',(#775));
#774=FILL_AREA_STYLE('Plastic - Glossy (Green)',(#776));
#775=FILL_AREA_STYLE_COLOUR('Steel - Satin',#777);
#776=FILL_AREA_STYLE_COLOUR('Plastic - Glossy (Green)',#778);
#777=COLOUR_RGB('Steel - Satin',0.627450980392157,0.627450980392157,0.627450980392157);
#778=COLOUR_RGB('Plastic - Glossy (Green)',0.266666666666667,0.588235294117647,
0.282352941176471);
ENDSEC;
END-ISO-10303-21;
