ISO-10303-21;
HEADER;
/* Generated by software containing ST-Developer
 * from STEP Tools, Inc. (www.steptools.com) 
 */

FILE_DESCRIPTION(
/* description */ (''),
/* implementation_level */ '2;1');

FILE_NAME(
/* name */ '96 wellplate holder.step',
/* time_stamp */ '2026-06-16T09:49:59+08:00',
/* author */ (''),
/* organization */ (''),
/* preprocessor_version */ 'ST-DEVELOPER v20.1',
/* originating_system */ 'Autodesk Translation Framework v15.8.0.0',
/* authorisation */ '');

FILE_SCHEMA (('AUTOMOTIVE_DESIGN { 1 0 10303 214 3 1 1 }'));
ENDSEC;

DATA;
#10=MECHANICAL_DESIGN_GEOMETRIC_PRESENTATION_REPRESENTATION('',(#25),#621);
#11=ITEM_DEFINED_TRANSFORMATION($,$,#387,#406);
#12=ITEM_DEFINED_TRANSFORMATION($,$,#386,#407);
#13=ITEM_DEFINED_TRANSFORMATION($,$,#385,#408);
#14=(
REPRESENTATION_RELATIONSHIP($,$,#640,#639)
REPRESENTATION_RELATIONSHIP_WITH_TRANSFORMATION(#11)
SHAPE_REPRESENTATION_RELATIONSHIP()
);
#15=(
REPRESENTATION_RELATIONSHIP($,$,#639,#638)
REPRESENTATION_RELATIONSHIP_WITH_TRANSFORMATION(#12)
SHAPE_REPRESENTATION_RELATIONSHIP()
);
#16=(
REPRESENTATION_RELATIONSHIP($,$,#638,#637)
REPRESENTATION_RELATIONSHIP_WITH_TRANSFORMATION(#13)
SHAPE_REPRESENTATION_RELATIONSHIP()
);
#17=CONTEXT_DEPENDENT_SHAPE_REPRESENTATION(#14,#634);
#18=CONTEXT_DEPENDENT_SHAPE_REPRESENTATION(#15,#635);
#19=CONTEXT_DEPENDENT_SHAPE_REPRESENTATION(#16,#636);
#20=NEXT_ASSEMBLY_USAGE_OCCURRENCE(
'Holder for a standard 96-well plate:1',
'Holder for a standard 96-well plate:1',
'Holder for a standard 96-well plate:1',#644,#645,
'Holder for a standard 96-well plate:1');
#21=NEXT_ASSEMBLY_USAGE_OCCURRENCE(
'FINAL FIXTURE DESIGN_07.09.2025_Smaller Pipette Tip:1',
'FINAL FIXTURE DESIGN_07.09.2025_Smaller Pipette Tip:1',
'FINAL FIXTURE DESIGN_07.09.2025_Smaller Pipette Tip:1',#643,#644,
'FINAL FIXTURE DESIGN_07.09.2025_Smaller Pipette Tip:1');
#22=NEXT_ASSEMBLY_USAGE_OCCURRENCE('accesories_sd:1','accesories_sd:1',
'accesories_sd:1',#642,#643,'accesories_sd:1');
#23=SHAPE_REPRESENTATION_RELATIONSHIP('SRR','None',#640,#24);
#24=ADVANCED_BREP_SHAPE_REPRESENTATION('',(#26),#620);
#25=STYLED_ITEM('',(#662),#26);
#26=MANIFOLD_SOLID_BREP('Body1',#371);
#27=FACE_OUTER_BOUND('',#45,.T.);
#28=FACE_OUTER_BOUND('',#46,.T.);
#29=FACE_OUTER_BOUND('',#47,.T.);
#30=FACE_OUTER_BOUND('',#48,.T.);
#31=FACE_OUTER_BOUND('',#49,.T.);
#32=FACE_OUTER_BOUND('',#50,.T.);
#33=FACE_OUTER_BOUND('',#51,.T.);
#34=FACE_OUTER_BOUND('',#52,.T.);
#35=FACE_OUTER_BOUND('',#53,.T.);
#36=FACE_OUTER_BOUND('',#54,.T.);
#37=FACE_OUTER_BOUND('',#55,.T.);
#38=FACE_OUTER_BOUND('',#56,.T.);
#39=FACE_OUTER_BOUND('',#57,.T.);
#40=FACE_OUTER_BOUND('',#58,.T.);
#41=FACE_OUTER_BOUND('',#59,.T.);
#42=FACE_OUTER_BOUND('',#60,.T.);
#43=FACE_OUTER_BOUND('',#61,.T.);
#44=FACE_OUTER_BOUND('',#62,.T.);
#45=EDGE_LOOP('',(#239,#240,#241,#242));
#46=EDGE_LOOP('',(#243,#244,#245,#246));
#47=EDGE_LOOP('',(#247,#248,#249,#250));
#48=EDGE_LOOP('',(#251,#252,#253,#254));
#49=EDGE_LOOP('',(#255,#256,#257,#258));
#50=EDGE_LOOP('',(#259,#260,#261,#262));
#51=EDGE_LOOP('',(#263,#264,#265,#266,#267,#268,#269,#270));
#52=EDGE_LOOP('',(#271,#272,#273,#274,#275,#276,#277,#278));
#53=EDGE_LOOP('',(#279,#280,#281,#282));
#54=EDGE_LOOP('',(#283,#284,#285,#286));
#55=EDGE_LOOP('',(#287,#288,#289,#290));
#56=EDGE_LOOP('',(#291,#292,#293,#294));
#57=EDGE_LOOP('',(#295,#296,#297,#298,#299,#300,#301,#302,#303,#304,#305,
#306));
#58=EDGE_LOOP('',(#307,#308,#309,#310));
#59=EDGE_LOOP('',(#311,#312,#313,#314));
#60=EDGE_LOOP('',(#315,#316,#317,#318,#319,#320,#321,#322));
#61=EDGE_LOOP('',(#323,#324,#325,#326));
#62=EDGE_LOOP('',(#327,#328,#329,#330,#331,#332,#333,#334));
#63=LINE('',#514,#111);
#64=LINE('',#516,#112);
#65=LINE('',#518,#113);
#66=LINE('',#519,#114);
#67=LINE('',#523,#115);
#68=LINE('',#525,#116);
#69=LINE('',#527,#117);
#70=LINE('',#528,#118);
#71=LINE('',#532,#119);
#72=LINE('',#534,#120);
#73=LINE('',#536,#121);
#74=LINE('',#537,#122);
#75=LINE('',#541,#123);
#76=LINE('',#543,#124);
#77=LINE('',#545,#125);
#78=LINE('',#546,#126);
#79=LINE('',#549,#127);
#80=LINE('',#551,#128);
#81=LINE('',#552,#129);
#82=LINE('',#555,#130);
#83=LINE('',#557,#131);
#84=LINE('',#558,#132);
#85=LINE('',#561,#133);
#86=LINE('',#563,#134);
#87=LINE('',#564,#135);
#88=LINE('',#566,#136);
#89=LINE('',#567,#137);
#90=LINE('',#570,#138);
#91=LINE('',#571,#139);
#92=LINE('',#573,#140);
#93=LINE('',#575,#141);
#94=LINE('',#576,#142);
#95=LINE('',#579,#143);
#96=LINE('',#580,#144);
#97=LINE('',#583,#145);
#98=LINE('',#584,#146);
#99=LINE('',#586,#147);
#100=LINE('',#588,#148);
#101=LINE('',#590,#149);
#102=LINE('',#591,#150);
#103=LINE('',#595,#151);
#104=LINE('',#597,#152);
#105=LINE('',#599,#153);
#106=LINE('',#600,#154);
#107=LINE('',#602,#155);
#108=LINE('',#603,#156);
#109=LINE('',#605,#157);
#110=LINE('',#607,#158);
#111=VECTOR('',#419,10.);
#112=VECTOR('',#420,10.);
#113=VECTOR('',#421,10.);
#114=VECTOR('',#422,10.);
#115=VECTOR('',#425,10.);
#116=VECTOR('',#426,10.);
#117=VECTOR('',#427,10.);
#118=VECTOR('',#428,10.);
#119=VECTOR('',#431,10.);
#120=VECTOR('',#432,10.);
#121=VECTOR('',#433,10.);
#122=VECTOR('',#434,10.);
#123=VECTOR('',#437,10.);
#124=VECTOR('',#438,10.);
#125=VECTOR('',#439,10.);
#126=VECTOR('',#440,10.);
#127=VECTOR('',#443,10.);
#128=VECTOR('',#444,10.);
#129=VECTOR('',#445,10.);
#130=VECTOR('',#448,10.);
#131=VECTOR('',#449,10.);
#132=VECTOR('',#450,10.);
#133=VECTOR('',#453,10.);
#134=VECTOR('',#454,10.);
#135=VECTOR('',#455,10.);
#136=VECTOR('',#456,10.);
#137=VECTOR('',#457,10.);
#138=VECTOR('',#460,10.);
#139=VECTOR('',#461,10.);
#140=VECTOR('',#462,10.);
#141=VECTOR('',#463,10.);
#142=VECTOR('',#464,10.);
#143=VECTOR('',#467,10.);
#144=VECTOR('',#468,10.);
#145=VECTOR('',#471,10.);
#146=VECTOR('',#472,10.);
#147=VECTOR('',#475,10.);
#148=VECTOR('',#478,10.);
#149=VECTOR('',#481,10.);
#150=VECTOR('',#482,10.);
#151=VECTOR('',#485,10.);
#152=VECTOR('',#486,10.);
#153=VECTOR('',#487,10.);
#154=VECTOR('',#488,10.);
#155=VECTOR('',#491,10.);
#156=VECTOR('',#492,10.);
#157=VECTOR('',#495,10.);
#158=VECTOR('',#498,10.);
#159=VERTEX_POINT('',#512);
#160=VERTEX_POINT('',#513);
#161=VERTEX_POINT('',#515);
#162=VERTEX_POINT('',#517);
#163=VERTEX_POINT('',#521);
#164=VERTEX_POINT('',#522);
#165=VERTEX_POINT('',#524);
#166=VERTEX_POINT('',#526);
#167=VERTEX_POINT('',#530);
#168=VERTEX_POINT('',#531);
#169=VERTEX_POINT('',#533);
#170=VERTEX_POINT('',#535);
#171=VERTEX_POINT('',#539);
#172=VERTEX_POINT('',#540);
#173=VERTEX_POINT('',#542);
#174=VERTEX_POINT('',#544);
#175=VERTEX_POINT('',#548);
#176=VERTEX_POINT('',#550);
#177=VERTEX_POINT('',#554);
#178=VERTEX_POINT('',#556);
#179=VERTEX_POINT('',#560);
#180=VERTEX_POINT('',#562);
#181=VERTEX_POINT('',#565);
#182=VERTEX_POINT('',#569);
#183=VERTEX_POINT('',#572);
#184=VERTEX_POINT('',#574);
#185=VERTEX_POINT('',#578);
#186=VERTEX_POINT('',#582);
#187=VERTEX_POINT('',#593);
#188=VERTEX_POINT('',#594);
#189=VERTEX_POINT('',#596);
#190=VERTEX_POINT('',#598);
#191=EDGE_CURVE('',#159,#160,#63,.T.);
#192=EDGE_CURVE('',#161,#159,#64,.T.);
#193=EDGE_CURVE('',#161,#162,#65,.T.);
#194=EDGE_CURVE('',#160,#162,#66,.T.);
#195=EDGE_CURVE('',#163,#164,#67,.T.);
#196=EDGE_CURVE('',#165,#163,#68,.T.);
#197=EDGE_CURVE('',#165,#166,#69,.T.);
#198=EDGE_CURVE('',#164,#166,#70,.T.);
#199=EDGE_CURVE('',#167,#168,#71,.T.);
#200=EDGE_CURVE('',#169,#167,#72,.T.);
#201=EDGE_CURVE('',#169,#170,#73,.T.);
#202=EDGE_CURVE('',#168,#170,#74,.T.);
#203=EDGE_CURVE('',#171,#172,#75,.T.);
#204=EDGE_CURVE('',#173,#171,#76,.T.);
#205=EDGE_CURVE('',#173,#174,#77,.T.);
#206=EDGE_CURVE('',#172,#174,#78,.T.);
#207=EDGE_CURVE('',#175,#159,#79,.T.);
#208=EDGE_CURVE('',#175,#176,#80,.T.);
#209=EDGE_CURVE('',#176,#161,#81,.T.);
#210=EDGE_CURVE('',#166,#177,#82,.T.);
#211=EDGE_CURVE('',#178,#177,#83,.T.);
#212=EDGE_CURVE('',#164,#178,#84,.T.);
#213=EDGE_CURVE('',#160,#179,#85,.T.);
#214=EDGE_CURVE('',#179,#180,#86,.T.);
#215=EDGE_CURVE('',#180,#167,#87,.T.);
#216=EDGE_CURVE('',#168,#181,#88,.T.);
#217=EDGE_CURVE('',#181,#175,#89,.T.);
#218=EDGE_CURVE('',#178,#182,#90,.T.);
#219=EDGE_CURVE('',#182,#171,#91,.T.);
#220=EDGE_CURVE('',#172,#183,#92,.T.);
#221=EDGE_CURVE('',#183,#184,#93,.T.);
#222=EDGE_CURVE('',#184,#163,#94,.T.);
#223=EDGE_CURVE('',#182,#185,#95,.T.);
#224=EDGE_CURVE('',#185,#173,#96,.T.);
#225=EDGE_CURVE('',#170,#186,#97,.T.);
#226=EDGE_CURVE('',#181,#186,#98,.T.);
#227=EDGE_CURVE('',#186,#176,#99,.T.);
#228=EDGE_CURVE('',#177,#185,#100,.T.);
#229=EDGE_CURVE('',#174,#169,#101,.T.);
#230=EDGE_CURVE('',#162,#165,#102,.T.);
#231=EDGE_CURVE('',#187,#188,#103,.T.);
#232=EDGE_CURVE('',#188,#189,#104,.T.);
#233=EDGE_CURVE('',#189,#190,#105,.T.);
#234=EDGE_CURVE('',#190,#187,#106,.T.);
#235=EDGE_CURVE('',#179,#189,#107,.T.);
#236=EDGE_CURVE('',#180,#188,#108,.T.);
#237=EDGE_CURVE('',#184,#190,#109,.T.);
#238=EDGE_CURVE('',#183,#187,#110,.T.);
#239=ORIENTED_EDGE('',*,*,#191,.F.);
#240=ORIENTED_EDGE('',*,*,#192,.F.);
#241=ORIENTED_EDGE('',*,*,#193,.T.);
#242=ORIENTED_EDGE('',*,*,#194,.F.);
#243=ORIENTED_EDGE('',*,*,#195,.F.);
#244=ORIENTED_EDGE('',*,*,#196,.F.);
#245=ORIENTED_EDGE('',*,*,#197,.T.);
#246=ORIENTED_EDGE('',*,*,#198,.F.);
#247=ORIENTED_EDGE('',*,*,#199,.F.);
#248=ORIENTED_EDGE('',*,*,#200,.F.);
#249=ORIENTED_EDGE('',*,*,#201,.T.);
#250=ORIENTED_EDGE('',*,*,#202,.F.);
#251=ORIENTED_EDGE('',*,*,#203,.F.);
#252=ORIENTED_EDGE('',*,*,#204,.F.);
#253=ORIENTED_EDGE('',*,*,#205,.T.);
#254=ORIENTED_EDGE('',*,*,#206,.F.);
#255=ORIENTED_EDGE('',*,*,#192,.T.);
#256=ORIENTED_EDGE('',*,*,#207,.F.);
#257=ORIENTED_EDGE('',*,*,#208,.T.);
#258=ORIENTED_EDGE('',*,*,#209,.T.);
#259=ORIENTED_EDGE('',*,*,#198,.T.);
#260=ORIENTED_EDGE('',*,*,#210,.T.);
#261=ORIENTED_EDGE('',*,*,#211,.F.);
#262=ORIENTED_EDGE('',*,*,#212,.F.);
#263=ORIENTED_EDGE('',*,*,#191,.T.);
#264=ORIENTED_EDGE('',*,*,#213,.T.);
#265=ORIENTED_EDGE('',*,*,#214,.T.);
#266=ORIENTED_EDGE('',*,*,#215,.T.);
#267=ORIENTED_EDGE('',*,*,#199,.T.);
#268=ORIENTED_EDGE('',*,*,#216,.T.);
#269=ORIENTED_EDGE('',*,*,#217,.T.);
#270=ORIENTED_EDGE('',*,*,#207,.T.);
#271=ORIENTED_EDGE('',*,*,#195,.T.);
#272=ORIENTED_EDGE('',*,*,#212,.T.);
#273=ORIENTED_EDGE('',*,*,#218,.T.);
#274=ORIENTED_EDGE('',*,*,#219,.T.);
#275=ORIENTED_EDGE('',*,*,#203,.T.);
#276=ORIENTED_EDGE('',*,*,#220,.T.);
#277=ORIENTED_EDGE('',*,*,#221,.T.);
#278=ORIENTED_EDGE('',*,*,#222,.T.);
#279=ORIENTED_EDGE('',*,*,#204,.T.);
#280=ORIENTED_EDGE('',*,*,#219,.F.);
#281=ORIENTED_EDGE('',*,*,#223,.T.);
#282=ORIENTED_EDGE('',*,*,#224,.T.);
#283=ORIENTED_EDGE('',*,*,#202,.T.);
#284=ORIENTED_EDGE('',*,*,#225,.T.);
#285=ORIENTED_EDGE('',*,*,#226,.F.);
#286=ORIENTED_EDGE('',*,*,#216,.F.);
#287=ORIENTED_EDGE('',*,*,#217,.F.);
#288=ORIENTED_EDGE('',*,*,#226,.T.);
#289=ORIENTED_EDGE('',*,*,#227,.T.);
#290=ORIENTED_EDGE('',*,*,#208,.F.);
#291=ORIENTED_EDGE('',*,*,#218,.F.);
#292=ORIENTED_EDGE('',*,*,#211,.T.);
#293=ORIENTED_EDGE('',*,*,#228,.T.);
#294=ORIENTED_EDGE('',*,*,#223,.F.);
#295=ORIENTED_EDGE('',*,*,#209,.F.);
#296=ORIENTED_EDGE('',*,*,#227,.F.);
#297=ORIENTED_EDGE('',*,*,#225,.F.);
#298=ORIENTED_EDGE('',*,*,#201,.F.);
#299=ORIENTED_EDGE('',*,*,#229,.F.);
#300=ORIENTED_EDGE('',*,*,#205,.F.);
#301=ORIENTED_EDGE('',*,*,#224,.F.);
#302=ORIENTED_EDGE('',*,*,#228,.F.);
#303=ORIENTED_EDGE('',*,*,#210,.F.);
#304=ORIENTED_EDGE('',*,*,#197,.F.);
#305=ORIENTED_EDGE('',*,*,#230,.F.);
#306=ORIENTED_EDGE('',*,*,#193,.F.);
#307=ORIENTED_EDGE('',*,*,#231,.T.);
#308=ORIENTED_EDGE('',*,*,#232,.T.);
#309=ORIENTED_EDGE('',*,*,#233,.T.);
#310=ORIENTED_EDGE('',*,*,#234,.T.);
#311=ORIENTED_EDGE('',*,*,#235,.T.);
#312=ORIENTED_EDGE('',*,*,#232,.F.);
#313=ORIENTED_EDGE('',*,*,#236,.F.);
#314=ORIENTED_EDGE('',*,*,#214,.F.);
#315=ORIENTED_EDGE('',*,*,#196,.T.);
#316=ORIENTED_EDGE('',*,*,#222,.F.);
#317=ORIENTED_EDGE('',*,*,#237,.T.);
#318=ORIENTED_EDGE('',*,*,#233,.F.);
#319=ORIENTED_EDGE('',*,*,#235,.F.);
#320=ORIENTED_EDGE('',*,*,#213,.F.);
#321=ORIENTED_EDGE('',*,*,#194,.T.);
#322=ORIENTED_EDGE('',*,*,#230,.T.);
#323=ORIENTED_EDGE('',*,*,#238,.T.);
#324=ORIENTED_EDGE('',*,*,#234,.F.);
#325=ORIENTED_EDGE('',*,*,#237,.F.);
#326=ORIENTED_EDGE('',*,*,#221,.F.);
#327=ORIENTED_EDGE('',*,*,#200,.T.);
#328=ORIENTED_EDGE('',*,*,#215,.F.);
#329=ORIENTED_EDGE('',*,*,#236,.T.);
#330=ORIENTED_EDGE('',*,*,#231,.F.);
#331=ORIENTED_EDGE('',*,*,#238,.F.);
#332=ORIENTED_EDGE('',*,*,#220,.F.);
#333=ORIENTED_EDGE('',*,*,#206,.T.);
#334=ORIENTED_EDGE('',*,*,#229,.T.);
#335=PLANE('',#388);
#336=PLANE('',#389);
#337=PLANE('',#390);
#338=PLANE('',#391);
#339=PLANE('',#392);
#340=PLANE('',#393);
#341=PLANE('',#394);
#342=PLANE('',#395);
#343=PLANE('',#396);
#344=PLANE('',#397);
#345=PLANE('',#398);
#346=PLANE('',#399);
#347=PLANE('',#400);
#348=PLANE('',#401);
#349=PLANE('',#402);
#350=PLANE('',#403);
#351=PLANE('',#404);
#352=PLANE('',#405);
#353=ADVANCED_FACE('',(#27),#335,.F.);
#354=ADVANCED_FACE('',(#28),#336,.F.);
#355=ADVANCED_FACE('',(#29),#337,.F.);
#356=ADVANCED_FACE('',(#30),#338,.F.);
#357=ADVANCED_FACE('',(#31),#339,.F.);
#358=ADVANCED_FACE('',(#32),#340,.F.);
#359=ADVANCED_FACE('',(#33),#341,.T.);
#360=ADVANCED_FACE('',(#34),#342,.T.);
#361=ADVANCED_FACE('',(#35),#343,.F.);
#362=ADVANCED_FACE('',(#36),#344,.F.);
#363=ADVANCED_FACE('',(#37),#345,.F.);
#364=ADVANCED_FACE('',(#38),#346,.F.);
#365=ADVANCED_FACE('',(#39),#347,.F.);
#366=ADVANCED_FACE('',(#40),#348,.F.);
#367=ADVANCED_FACE('',(#41),#349,.F.);
#368=ADVANCED_FACE('',(#42),#350,.F.);
#369=ADVANCED_FACE('',(#43),#351,.F.);
#370=ADVANCED_FACE('',(#44),#352,.F.);
#371=CLOSED_SHELL('',(#353,#354,#355,#356,#357,#358,#359,#360,#361,#362,
#363,#364,#365,#366,#367,#368,#369,#370));
#372=DERIVED_UNIT_ELEMENT(#374,1.);
#373=DERIVED_UNIT_ELEMENT(#623,-3.);
#374=(
MASS_UNIT()
NAMED_UNIT(*)
SI_UNIT(.KILO.,.GRAM.)
);
#375=DERIVED_UNIT((#372,#373));
#376=MEASURE_REPRESENTATION_ITEM('density measure',
POSITIVE_RATIO_MEASURE(7850.),#375);
#377=PROPERTY_DEFINITION_REPRESENTATION(#382,#379);
#378=PROPERTY_DEFINITION_REPRESENTATION(#383,#380);
#379=REPRESENTATION('material name',(#381),#620);
#380=REPRESENTATION('density',(#376),#620);
#381=DESCRIPTIVE_REPRESENTATION_ITEM('Steel','Steel');
#382=PROPERTY_DEFINITION('material property','material name',#645);
#383=PROPERTY_DEFINITION('material property','density of part',#645);
#384=AXIS2_PLACEMENT_3D('',#507,#409,#410);
#385=AXIS2_PLACEMENT_3D('',#508,#411,#412);
#386=AXIS2_PLACEMENT_3D('',#509,#413,#414);
#387=AXIS2_PLACEMENT_3D('',#510,#415,#416);
#388=AXIS2_PLACEMENT_3D('',#511,#417,#418);
#389=AXIS2_PLACEMENT_3D('',#520,#423,#424);
#390=AXIS2_PLACEMENT_3D('',#529,#429,#430);
#391=AXIS2_PLACEMENT_3D('',#538,#435,#436);
#392=AXIS2_PLACEMENT_3D('',#547,#441,#442);
#393=AXIS2_PLACEMENT_3D('',#553,#446,#447);
#394=AXIS2_PLACEMENT_3D('',#559,#451,#452);
#395=AXIS2_PLACEMENT_3D('',#568,#458,#459);
#396=AXIS2_PLACEMENT_3D('',#577,#465,#466);
#397=AXIS2_PLACEMENT_3D('',#581,#469,#470);
#398=AXIS2_PLACEMENT_3D('',#585,#473,#474);
#399=AXIS2_PLACEMENT_3D('',#587,#476,#477);
#400=AXIS2_PLACEMENT_3D('',#589,#479,#480);
#401=AXIS2_PLACEMENT_3D('',#592,#483,#484);
#402=AXIS2_PLACEMENT_3D('',#601,#489,#490);
#403=AXIS2_PLACEMENT_3D('',#604,#493,#494);
#404=AXIS2_PLACEMENT_3D('',#606,#496,#497);
#405=AXIS2_PLACEMENT_3D('',#608,#499,#500);
#406=AXIS2_PLACEMENT_3D('',#609,#501,#502);
#407=AXIS2_PLACEMENT_3D('',#610,#503,#504);
#408=AXIS2_PLACEMENT_3D('',#611,#505,#506);
#409=DIRECTION('axis',(0.,0.,1.));
#410=DIRECTION('refdir',(1.,0.,0.));
#411=DIRECTION('axis',(0.,0.,1.));
#412=DIRECTION('refdir',(1.,0.,0.));
#413=DIRECTION('axis',(0.,0.,1.));
#414=DIRECTION('refdir',(1.,0.,0.));
#415=DIRECTION('axis',(0.,0.,1.));
#416=DIRECTION('refdir',(1.,0.,0.));
#417=DIRECTION('center_axis',(-1.,0.,0.));
#418=DIRECTION('ref_axis',(0.,1.,0.));
#419=DIRECTION('',(0.,1.,0.));
#420=DIRECTION('',(0.,0.,1.));
#421=DIRECTION('',(0.,1.,0.));
#422=DIRECTION('',(0.,0.,-1.));
#423=DIRECTION('center_axis',(1.,0.,0.));
#424=DIRECTION('ref_axis',(0.,-1.,0.));
#425=DIRECTION('',(0.,-1.,0.));
#426=DIRECTION('',(0.,0.,1.));
#427=DIRECTION('',(0.,-1.,0.));
#428=DIRECTION('',(0.,0.,-1.));
#429=DIRECTION('center_axis',(-1.,0.,0.));
#430=DIRECTION('ref_axis',(0.,1.,0.));
#431=DIRECTION('',(0.,1.,0.));
#432=DIRECTION('',(0.,0.,1.));
#433=DIRECTION('',(0.,1.,0.));
#434=DIRECTION('',(0.,0.,-1.));
#435=DIRECTION('center_axis',(1.,0.,0.));
#436=DIRECTION('ref_axis',(0.,-1.,0.));
#437=DIRECTION('',(0.,-1.,0.));
#438=DIRECTION('',(0.,0.,1.));
#439=DIRECTION('',(0.,-1.,0.));
#440=DIRECTION('',(0.,0.,-1.));
#441=DIRECTION('center_axis',(0.,1.,0.));
#442=DIRECTION('ref_axis',(1.,0.,0.));
#443=DIRECTION('',(1.,0.,0.));
#444=DIRECTION('',(0.,0.,-1.));
#445=DIRECTION('',(1.,0.,0.));
#446=DIRECTION('center_axis',(0.,1.,0.));
#447=DIRECTION('ref_axis',(1.,0.,0.));
#448=DIRECTION('',(1.,0.,0.));
#449=DIRECTION('',(0.,0.,-1.));
#450=DIRECTION('',(1.,0.,0.));
#451=DIRECTION('center_axis',(0.,0.,1.));
#452=DIRECTION('ref_axis',(0.,-1.,0.));
#453=DIRECTION('',(-1.,0.,0.));
#454=DIRECTION('',(0.,-1.,0.));
#455=DIRECTION('',(1.,0.,0.));
#456=DIRECTION('',(-1.,-1.03276560430247E-16,0.));
#457=DIRECTION('',(-1.04083408558608E-16,1.,0.));
#458=DIRECTION('center_axis',(0.,0.,1.));
#459=DIRECTION('ref_axis',(0.,-1.,0.));
#460=DIRECTION('',(1.38777878078145E-16,-1.,0.));
#461=DIRECTION('',(-1.,-1.03276560430247E-16,0.));
#462=DIRECTION('',(1.,0.,0.));
#463=DIRECTION('',(0.,1.,0.));
#464=DIRECTION('',(-1.,0.,0.));
#465=DIRECTION('center_axis',(1.03276560430247E-16,-1.,0.));
#466=DIRECTION('ref_axis',(-1.,-1.03276560430247E-16,0.));
#467=DIRECTION('',(0.,0.,-1.));
#468=DIRECTION('',(-1.,-1.03276560430247E-16,0.));
#469=DIRECTION('center_axis',(1.03276560430247E-16,-1.,0.));
#470=DIRECTION('ref_axis',(-1.,-1.03276560430247E-16,0.));
#471=DIRECTION('',(-1.,-1.03276560430247E-16,0.));
#472=DIRECTION('',(0.,0.,-1.));
#473=DIRECTION('center_axis',(-1.,-1.04083408558608E-16,0.));
#474=DIRECTION('ref_axis',(-1.04083408558608E-16,1.,0.));
#475=DIRECTION('',(-1.04083408558608E-16,1.,0.));
#476=DIRECTION('center_axis',(1.,1.38777878078145E-16,0.));
#477=DIRECTION('ref_axis',(1.38777878078145E-16,-1.,0.));
#478=DIRECTION('',(1.38777878078145E-16,-1.,0.));
#479=DIRECTION('center_axis',(0.,0.,-1.));
#480=DIRECTION('ref_axis',(-1.,0.,0.));
#481=DIRECTION('',(-1.,0.,0.));
#482=DIRECTION('',(1.,0.,0.));
#483=DIRECTION('center_axis',(0.,0.,1.));
#484=DIRECTION('ref_axis',(0.,-1.,0.));
#485=DIRECTION('',(-1.,0.,0.));
#486=DIRECTION('',(0.,1.,0.));
#487=DIRECTION('',(1.,0.,0.));
#488=DIRECTION('',(0.,-1.,0.));
#489=DIRECTION('center_axis',(1.,0.,0.));
#490=DIRECTION('ref_axis',(0.,0.,1.));
#491=DIRECTION('',(0.,0.,-1.));
#492=DIRECTION('',(0.,0.,-1.));
#493=DIRECTION('center_axis',(0.,-1.,0.));
#494=DIRECTION('ref_axis',(0.,0.,-1.));
#495=DIRECTION('',(0.,0.,-1.));
#496=DIRECTION('center_axis',(-1.,0.,0.));
#497=DIRECTION('ref_axis',(0.,0.,-1.));
#498=DIRECTION('',(0.,0.,-1.));
#499=DIRECTION('center_axis',(0.,1.,0.));
#500=DIRECTION('ref_axis',(0.,0.,1.));
#501=DIRECTION('',(5.16577145568088E-15,-7.69043967609771E-15,0.999999999999961));
#502=DIRECTION('',(1.,-2.77555756156289E-15,7.49400541621939E-16));
#503=DIRECTION('',(0.,0.,1.));
#504=DIRECTION('',(1.,0.,0.));
#505=DIRECTION('',(0.,0.,1.));
#506=DIRECTION('',(1.,0.,0.));
#507=CARTESIAN_POINT('',(0.,0.,0.));
#508=CARTESIAN_POINT('',(0.,0.,0.));
#509=CARTESIAN_POINT('',(0.,0.,0.));
#510=CARTESIAN_POINT('',(0.,0.,0.));
#511=CARTESIAN_POINT('Origin',(22.1060578208863,61.4879231861843,30.));
#512=CARTESIAN_POINT('',(22.1060578208863,61.4879231861843,30.));
#513=CARTESIAN_POINT('',(22.1060578208863,66.4879231861843,30.));
#514=CARTESIAN_POINT('',(22.1060578208863,29.4879231861843,30.));
#515=CARTESIAN_POINT('',(22.1060578208863,61.4879231861843,20.));
#516=CARTESIAN_POINT('',(22.1060578208863,61.4879231861843,30.));
#517=CARTESIAN_POINT('',(22.1060578208863,66.4879231861843,20.));
#518=CARTESIAN_POINT('',(22.1060578208863,51.4879231861843,20.));
#519=CARTESIAN_POINT('',(22.1060578208863,66.4879231861843,25.));
#520=CARTESIAN_POINT('Origin',(42.1060578208863,66.4879231861843,30.));
#521=CARTESIAN_POINT('',(42.1060578208863,66.4879231861843,30.));
#522=CARTESIAN_POINT('',(42.1060578208863,61.4879231861843,30.));
#523=CARTESIAN_POINT('',(42.1060578208863,31.9879231861843,30.));
#524=CARTESIAN_POINT('',(42.1060578208863,66.4879231861843,20.));
#525=CARTESIAN_POINT('',(42.1060578208863,66.4879231861843,25.));
#526=CARTESIAN_POINT('',(42.1060578208863,61.4879231861843,20.));
#527=CARTESIAN_POINT('',(42.1060578208863,71.4879231861843,20.));
#528=CARTESIAN_POINT('',(42.1060578208863,61.4879231861843,30.));
#529=CARTESIAN_POINT('Origin',(22.1060578208863,-71.5120768138157,30.));
#530=CARTESIAN_POINT('',(22.1060578208863,-71.5120768138157,30.));
#531=CARTESIAN_POINT('',(22.1060578208863,-66.5120768138157,30.));
#532=CARTESIAN_POINT('',(22.1060578208863,-37.0120768138157,30.));
#533=CARTESIAN_POINT('',(22.1060578208863,-71.5120768138157,20.));
#534=CARTESIAN_POINT('',(22.1060578208863,-71.5120768138157,25.));
#535=CARTESIAN_POINT('',(22.1060578208863,-66.5120768138157,20.));
#536=CARTESIAN_POINT('',(22.1060578208863,-81.5120768138157,20.));
#537=CARTESIAN_POINT('',(22.1060578208863,-66.5120768138157,30.));
#538=CARTESIAN_POINT('Origin',(42.1060578208863,-66.5120768138157,30.));
#539=CARTESIAN_POINT('',(42.1060578208863,-66.5120768138157,30.));
#540=CARTESIAN_POINT('',(42.1060578208863,-71.5120768138157,30.));
#541=CARTESIAN_POINT('',(42.1060578208863,-34.5120768138157,30.));
#542=CARTESIAN_POINT('',(42.1060578208863,-66.5120768138157,20.));
#543=CARTESIAN_POINT('',(42.1060578208863,-66.5120768138157,30.));
#544=CARTESIAN_POINT('',(42.1060578208863,-71.5120768138157,20.));
#545=CARTESIAN_POINT('',(42.1060578208863,-61.5120768138157,20.));
#546=CARTESIAN_POINT('',(42.1060578208863,-71.5120768138157,25.));
#547=CARTESIAN_POINT('Origin',(-10.8939421791137,61.4879231861843,30.));
#548=CARTESIAN_POINT('',(-10.8939421791137,61.4879231861843,30.));
#549=CARTESIAN_POINT('',(10.6060578208863,61.4879231861843,30.));
#550=CARTESIAN_POINT('',(-10.8939421791137,61.4879231861843,20.));
#551=CARTESIAN_POINT('',(-10.8939421791137,61.4879231861843,30.));
#552=CARTESIAN_POINT('',(-10.8939421791137,61.4879231861843,20.));
#553=CARTESIAN_POINT('Origin',(-10.8939421791137,61.4879231861843,30.));
#554=CARTESIAN_POINT('',(75.1060578208863,61.4879231861843,20.));
#555=CARTESIAN_POINT('',(-10.8939421791137,61.4879231861843,20.));
#556=CARTESIAN_POINT('',(75.1060578208863,61.4879231861843,30.));
#557=CARTESIAN_POINT('',(75.1060578208863,61.4879231861843,30.));
#558=CARTESIAN_POINT('',(10.6060578208863,61.4879231861843,30.));
#559=CARTESIAN_POINT('Origin',(32.1060578208863,-2.51207681381567,30.));
#560=CARTESIAN_POINT('',(-15.8939421791137,66.4879231861843,30.));
#561=CARTESIAN_POINT('',(32.1060578208863,66.4879231861843,30.));
#562=CARTESIAN_POINT('',(-15.8939421791137,-71.5120768138157,30.));
#563=CARTESIAN_POINT('',(-15.8939421791137,-2.51207681381567,30.));
#564=CARTESIAN_POINT('',(32.1060578208863,-71.5120768138157,30.));
#565=CARTESIAN_POINT('',(-10.8939421791137,-66.5120768138157,30.));
#566=CARTESIAN_POINT('',(53.6060578208863,-66.5120768138157,30.));
#567=CARTESIAN_POINT('',(-10.8939421791137,-34.5120768138157,30.));
#568=CARTESIAN_POINT('Origin',(32.1060578208863,-2.51207681381567,30.));
#569=CARTESIAN_POINT('',(75.1060578208863,-66.5120768138157,30.));
#570=CARTESIAN_POINT('',(75.1060578208863,29.4879231861843,30.));
#571=CARTESIAN_POINT('',(53.6060578208863,-66.5120768138157,30.));
#572=CARTESIAN_POINT('',(80.1060578208863,-71.5120768138157,30.));
#573=CARTESIAN_POINT('',(32.1060578208863,-71.5120768138157,30.));
#574=CARTESIAN_POINT('',(80.1060578208863,66.4879231861843,30.));
#575=CARTESIAN_POINT('',(80.1060578208863,-2.51207681381567,30.));
#576=CARTESIAN_POINT('',(32.1060578208863,66.4879231861843,30.));
#577=CARTESIAN_POINT('Origin',(75.1060578208863,-66.5120768138157,30.));
#578=CARTESIAN_POINT('',(75.1060578208863,-66.5120768138157,20.));
#579=CARTESIAN_POINT('',(75.1060578208863,-66.5120768138157,30.));
#580=CARTESIAN_POINT('',(75.1060578208863,-66.5120768138157,20.));
#581=CARTESIAN_POINT('Origin',(75.1060578208863,-66.5120768138157,30.));
#582=CARTESIAN_POINT('',(-10.8939421791137,-66.5120768138157,20.));
#583=CARTESIAN_POINT('',(75.1060578208863,-66.5120768138157,20.));
#584=CARTESIAN_POINT('',(-10.8939421791137,-66.5120768138157,30.));
#585=CARTESIAN_POINT('Origin',(-10.8939421791137,-66.5120768138157,30.));
#586=CARTESIAN_POINT('',(-10.8939421791137,-66.5120768138157,20.));
#587=CARTESIAN_POINT('Origin',(75.1060578208863,61.4879231861843,30.));
#588=CARTESIAN_POINT('',(75.1060578208863,61.4879231861843,20.));
#589=CARTESIAN_POINT('Origin',(32.1060578208863,-2.51207681381569,20.));
#590=CARTESIAN_POINT('',(32.1060578208863,-71.5120768138157,20.));
#591=CARTESIAN_POINT('',(32.1060578208863,66.4879231861843,20.));
#592=CARTESIAN_POINT('Origin',(32.1060578208863,-2.51207681381567,10.));
#593=CARTESIAN_POINT('',(80.1060578208863,-71.5120768138157,10.));
#594=CARTESIAN_POINT('',(-15.8939421791137,-71.5120768138157,10.));
#595=CARTESIAN_POINT('',(32.1060578208863,-71.5120768138157,10.));
#596=CARTESIAN_POINT('',(-15.8939421791137,66.4879231861843,10.));
#597=CARTESIAN_POINT('',(-15.8939421791137,-2.51207681381567,10.));
#598=CARTESIAN_POINT('',(80.1060578208863,66.4879231861843,10.));
#599=CARTESIAN_POINT('',(32.1060578208863,66.4879231861843,10.));
#600=CARTESIAN_POINT('',(80.1060578208863,-2.51207681381567,10.));
#601=CARTESIAN_POINT('Origin',(-15.8939421791137,-2.51207681381567,20.));
#602=CARTESIAN_POINT('',(-15.8939421791137,66.4879231861843,20.));
#603=CARTESIAN_POINT('',(-15.8939421791137,-71.5120768138157,20.));
#604=CARTESIAN_POINT('Origin',(32.1060578208863,66.4879231861843,20.));
#605=CARTESIAN_POINT('',(80.1060578208863,66.4879231861843,20.));
#606=CARTESIAN_POINT('Origin',(80.1060578208863,-2.51207681381567,20.));
#607=CARTESIAN_POINT('',(80.1060578208863,-71.5120768138157,20.));
#608=CARTESIAN_POINT('Origin',(32.1060578208863,-71.5120768138157,20.));
#609=CARTESIAN_POINT('',(158.01754770752,47.3595339391195,-4.48391692294656));
#610=CARTESIAN_POINT('',(0.,0.,0.));
#611=CARTESIAN_POINT('',(0.,0.,0.));
#612=UNCERTAINTY_MEASURE_WITH_UNIT(LENGTH_MEASURE(0.01),#622,
'DISTANCE_ACCURACY_VALUE',
'Maximum model space distance between geometric entities at asserted c
onnectivities');
#613=UNCERTAINTY_MEASURE_WITH_UNIT(LENGTH_MEASURE(0.01),#622,
'DISTANCE_ACCURACY_VALUE',
'Maximum model space distance between geometric entities at asserted c
onnectivities');
#614=UNCERTAINTY_MEASURE_WITH_UNIT(LENGTH_MEASURE(0.01),#622,
'DISTANCE_ACCURACY_VALUE',
'Maximum model space distance between geometric entities at asserted c
onnectivities');
#615=UNCERTAINTY_MEASURE_WITH_UNIT(LENGTH_MEASURE(0.01),#622,
'DISTANCE_ACCURACY_VALUE',
'Maximum model space distance between geometric entities at asserted c
onnectivities');
#616=UNCERTAINTY_MEASURE_WITH_UNIT(LENGTH_MEASURE(0.01),#622,
'DISTANCE_ACCURACY_VALUE',
'Maximum model space distance between geometric entities at asserted c
onnectivities');
#617=(
GEOMETRIC_REPRESENTATION_CONTEXT(3)
GLOBAL_UNCERTAINTY_ASSIGNED_CONTEXT((#612))
GLOBAL_UNIT_ASSIGNED_CONTEXT((#622,#624,#625))
REPRESENTATION_CONTEXT('','3D')
);
#618=(
GEOMETRIC_REPRESENTATION_CONTEXT(3)
GLOBAL_UNCERTAINTY_ASSIGNED_CONTEXT((#613))
GLOBAL_UNIT_ASSIGNED_CONTEXT((#622,#624,#625))
REPRESENTATION_CONTEXT('','3D')
);
#619=(
GEOMETRIC_REPRESENTATION_CONTEXT(3)
GLOBAL_UNCERTAINTY_ASSIGNED_CONTEXT((#614))
GLOBAL_UNIT_ASSIGNED_CONTEXT((#622,#624,#625))
REPRESENTATION_CONTEXT('','3D')
);
#620=(
GEOMETRIC_REPRESENTATION_CONTEXT(3)
GLOBAL_UNCERTAINTY_ASSIGNED_CONTEXT((#615))
GLOBAL_UNIT_ASSIGNED_CONTEXT((#622,#624,#625))
REPRESENTATION_CONTEXT('','3D')
);
#621=(
GEOMETRIC_REPRESENTATION_CONTEXT(3)
GLOBAL_UNCERTAINTY_ASSIGNED_CONTEXT((#616))
GLOBAL_UNIT_ASSIGNED_CONTEXT((#622,#624,#625))
REPRESENTATION_CONTEXT('','3D')
);
#622=(
LENGTH_UNIT()
NAMED_UNIT(*)
SI_UNIT(.MILLI.,.METRE.)
);
#623=(
LENGTH_UNIT()
NAMED_UNIT(*)
SI_UNIT($,.METRE.)
);
#624=(
NAMED_UNIT(*)
PLANE_ANGLE_UNIT()
SI_UNIT($,.RADIAN.)
);
#625=(
NAMED_UNIT(*)
SI_UNIT($,.STERADIAN.)
SOLID_ANGLE_UNIT()
);
#626=SHAPE_DEFINITION_REPRESENTATION(#630,#637);
#627=SHAPE_DEFINITION_REPRESENTATION(#631,#638);
#628=SHAPE_DEFINITION_REPRESENTATION(#632,#639);
#629=SHAPE_DEFINITION_REPRESENTATION(#633,#640);
#630=PRODUCT_DEFINITION_SHAPE('',$,#642);
#631=PRODUCT_DEFINITION_SHAPE('',$,#643);
#632=PRODUCT_DEFINITION_SHAPE('',$,#644);
#633=PRODUCT_DEFINITION_SHAPE('',$,#645);
#634=PRODUCT_DEFINITION_SHAPE($,$,#20);
#635=PRODUCT_DEFINITION_SHAPE($,$,#21);
#636=PRODUCT_DEFINITION_SHAPE($,$,#22);
#637=SHAPE_REPRESENTATION('',(#384,#408),#617);
#638=SHAPE_REPRESENTATION('',(#385,#407),#618);
#639=SHAPE_REPRESENTATION('',(#386,#406),#619);
#640=SHAPE_REPRESENTATION('',(#387),#620);
#641=PRODUCT_DEFINITION_CONTEXT('part definition',#655,'design');
#642=PRODUCT_DEFINITION('2026-05-06-02-11-17-818','Bed_plate_assembly',
#646,#641);
#643=PRODUCT_DEFINITION('2026-05-06-02-11-17-819','accesories_sd',#647,
#641);
#644=PRODUCT_DEFINITION('2026-05-06-02-11-17-820',
'FINAL FIXTURE DESIGN_07.09.2025_Smaller Pipette Tip',#648,#641);
#645=PRODUCT_DEFINITION('2026-05-06-02-11-17-821',
'Holder for a standard 96-well plate',#649,#641);
#646=PRODUCT_DEFINITION_FORMATION('',$,#657);
#647=PRODUCT_DEFINITION_FORMATION('',$,#658);
#648=PRODUCT_DEFINITION_FORMATION('',$,#659);
#649=PRODUCT_DEFINITION_FORMATION('',$,#660);
#650=PRODUCT_RELATED_PRODUCT_CATEGORY('Bed_plate_assembly',
'Bed_plate_assembly',(#657));
#651=PRODUCT_RELATED_PRODUCT_CATEGORY('accesories_sd','accesories_sd',(#658));
#652=PRODUCT_RELATED_PRODUCT_CATEGORY(
'FINAL FIXTURE DESIGN_07.09.2025_Smaller Pipette Tip',
'FINAL FIXTURE DESIGN_07.09.2025_Smaller Pipette Tip',(#659));
#653=PRODUCT_RELATED_PRODUCT_CATEGORY(
'Holder for a standard 96-well plate',
'Holder for a standard 96-well plate',(#660));
#654=APPLICATION_PROTOCOL_DEFINITION('international standard',
'automotive_design',2009,#655);
#655=APPLICATION_CONTEXT(
'Core Data for Automotive Mechanical Design Process');
#656=PRODUCT_CONTEXT('part definition',#655,'mechanical');
#657=PRODUCT('2026-05-06-02-11-17-818','Bed_plate_assembly',$,(#656));
#658=PRODUCT('2026-05-06-02-11-17-819','accesories_sd',$,(#656));
#659=PRODUCT('2026-05-06-02-11-17-820',
'FINAL FIXTURE DESIGN_07.09.2025_Smaller Pipette Tip',$,(#656));
#660=PRODUCT('2026-05-06-02-11-17-821',
'Holder for a standard 96-well plate',$,(#656));
#661=PRESENTATION_STYLE_ASSIGNMENT((#663));
#662=PRESENTATION_STYLE_ASSIGNMENT((#664));
#663=SURFACE_STYLE_USAGE(.BOTH.,#665);
#664=SURFACE_STYLE_USAGE(.BOTH.,#666);
#665=SURFACE_SIDE_STYLE('',(#667));
#666=SURFACE_SIDE_STYLE('',(#668));
#667=SURFACE_STYLE_FILL_AREA(#669);
#668=SURFACE_STYLE_FILL_AREA(#670);
#669=FILL_AREA_STYLE('Steel - Satin',(#671));
#670=FILL_AREA_STYLE('Plastic - Glossy (Green)',(#672));
#671=FILL_AREA_STYLE_COLOUR('Steel - Satin',#673);
#672=FILL_AREA_STYLE_COLOUR('Plastic - Glossy (Green)',#674);
#673=COLOUR_RGB('Steel - Satin',0.627450980392157,0.627450980392157,0.627450980392157);
#674=COLOUR_RGB('Plastic - Glossy (Green)',0.266666666666667,0.588235294117647,
0.282352941176471);
ENDSEC;
END-ISO-10303-21;
