ISO-10303-21;
HEADER;
/* Generated by software containing ST-Developer
 * from STEP Tools, Inc. (www.steptools.com) 
 */
/* OPTION: using custom renumber hook */

FILE_DESCRIPTION(
/* description */ ('STEP AP242 Edition 2',
'CAx-IF Rec.Pracs.---Representation and Presentation of Product Manufa
cturing Information (PMI)---4.0---2014-10-13',
'CAx-IF Rec.Pracs.---3D Tessellated Geometry---0.4---2014-09-14','2;1',
'CAx-IF Rec.Pracs.---User Defined Attributes---1.5---2016-08-15'),
/* implementation_level */ '2;1');

FILE_NAME(
/* name */ 'board_camera_holder',
/* time_stamp */ '2026-06-16T05:09:37Z',
/* author */ (''),
/* organization */ (''),
/* preprocessor_version */ 'ST-DEVELOPER v20',
/* originating_system */ 'ONSHAPE BY PTC INC, 1.216',
/* authorisation */ '  ');

FILE_SCHEMA (('AP242_MANAGED_MODEL_BASED_3D_ENGINEERING_MIM_LF { 1 0 10303 442 3 1 4 }'));
ENDSEC;

DATA;
#10=SHAPE_REPRESENTATION_RELATIONSHIP('','',#656,#11);
#11=ADVANCED_BREP_SHAPE_REPRESENTATION('',(#654),#1102);
#12=ELLIPSE('',#713,0.00141421356237309,0.001);
#13=ELLIPSE('',#714,0.00141421356237309,0.001);
#14=CYLINDRICAL_SURFACE('',#702,0.0014);
#15=CYLINDRICAL_SURFACE('',#707,0.0014);
#16=CYLINDRICAL_SURFACE('',#708,0.0014);
#17=CYLINDRICAL_SURFACE('',#709,0.0014);
#18=CYLINDRICAL_SURFACE('',#710,0.0024);
#19=CYLINDRICAL_SURFACE('',#711,0.0024);
#20=CYLINDRICAL_SURFACE('',#715,0.001);
#21=CYLINDRICAL_SURFACE('',#716,0.001);
#22=CYLINDRICAL_SURFACE('',#717,0.001);
#23=CYLINDRICAL_SURFACE('',#718,0.001);
#24=CYLINDRICAL_SURFACE('',#719,0.001);
#25=CYLINDRICAL_SURFACE('',#720,0.001);
#26=CYLINDRICAL_SURFACE('',#721,0.001);
#27=CYLINDRICAL_SURFACE('',#722,0.001);
#28=CYLINDRICAL_SURFACE('',#723,0.001);
#29=CYLINDRICAL_SURFACE('',#724,0.001);
#30=CYLINDRICAL_SURFACE('',#725,0.001);
#31=CYLINDRICAL_SURFACE('',#726,0.001);
#32=LINE('',#922,#83);
#33=LINE('',#927,#84);
#34=LINE('',#931,#85);
#35=LINE('',#935,#86);
#36=LINE('',#940,#87);
#37=LINE('',#945,#88);
#38=LINE('',#949,#89);
#39=LINE('',#953,#90);
#40=LINE('',#957,#91);
#41=LINE('',#961,#92);
#42=LINE('',#975,#93);
#43=LINE('',#980,#94);
#44=LINE('',#984,#95);
#45=LINE('',#988,#96);
#46=LINE('',#993,#97);
#47=LINE('',#998,#98);
#48=LINE('',#1002,#99);
#49=LINE('',#1006,#100);
#50=LINE('',#1010,#101);
#51=LINE('',#1012,#102);
#52=LINE('',#1022,#103);
#53=LINE('',#1027,#104);
#54=LINE('',#1031,#105);
#55=LINE('',#1035,#106);
#56=LINE('',#1039,#107);
#57=LINE('',#1041,#108);
#58=LINE('',#1043,#109);
#59=LINE('',#1045,#110);
#60=LINE('',#1046,#111);
#61=LINE('',#1048,#112);
#62=LINE('',#1049,#113);
#63=LINE('',#1051,#114);
#64=LINE('',#1052,#115);
#65=LINE('',#1054,#116);
#66=LINE('',#1055,#117);
#67=LINE('',#1056,#118);
#68=LINE('',#1058,#119);
#69=LINE('',#1060,#120);
#70=LINE('',#1061,#121);
#71=LINE('',#1063,#122);
#72=LINE('',#1064,#123);
#73=LINE('',#1066,#124);
#74=LINE('',#1067,#125);
#75=LINE('',#1070,#126);
#76=LINE('',#1071,#127);
#77=LINE('',#1073,#128);
#78=LINE('',#1074,#129);
#79=LINE('',#1076,#130);
#80=LINE('',#1077,#131);
#81=LINE('',#1079,#132);
#82=LINE('',#1080,#133);
#83=VECTOR('',#733,1.);
#84=VECTOR('',#736,1.);
#85=VECTOR('',#739,1.);
#86=VECTOR('',#742,1.);
#87=VECTOR('',#747,1.);
#88=VECTOR('',#750,1.);
#89=VECTOR('',#753,1.);
#90=VECTOR('',#756,1.);
#91=VECTOR('',#759,1.);
#92=VECTOR('',#762,1.);
#93=VECTOR('',#777,1.);
#94=VECTOR('',#780,1.);
#95=VECTOR('',#783,1.);
#96=VECTOR('',#786,1.);
#97=VECTOR('',#791,1.);
#98=VECTOR('',#794,1.);
#99=VECTOR('',#797,1.);
#100=VECTOR('',#800,1.);
#101=VECTOR('',#803,1.);
#102=VECTOR('',#804,1.);
#103=VECTOR('',#815,1.);
#104=VECTOR('',#818,1.);
#105=VECTOR('',#821,1.);
#106=VECTOR('',#824,1.);
#107=VECTOR('',#829,1.);
#108=VECTOR('',#830,1.);
#109=VECTOR('',#831,1.);
#110=VECTOR('',#834,1.);
#111=VECTOR('',#835,1.);
#112=VECTOR('',#838,1.);
#113=VECTOR('',#839,1.);
#114=VECTOR('',#840,1.);
#115=VECTOR('',#841,1.);
#116=VECTOR('',#844,1.);
#117=VECTOR('',#845,1.);
#118=VECTOR('',#846,1.);
#119=VECTOR('',#847,1.);
#120=VECTOR('',#850,1.);
#121=VECTOR('',#851,1.);
#122=VECTOR('',#854,1.);
#123=VECTOR('',#855,1.);
#124=VECTOR('',#858,1.);
#125=VECTOR('',#859,1.);
#126=VECTOR('',#864,1.);
#127=VECTOR('',#865,1.);
#128=VECTOR('',#868,1.);
#129=VECTOR('',#869,1.);
#130=VECTOR('',#872,1.);
#131=VECTOR('',#873,1.);
#132=VECTOR('',#876,1.);
#133=VECTOR('',#877,1.);
#134=ORIENTED_EDGE('',*,*,#308,.T.);
#135=ORIENTED_EDGE('',*,*,#309,.F.);
#136=ORIENTED_EDGE('',*,*,#310,.T.);
#137=ORIENTED_EDGE('',*,*,#311,.T.);
#138=ORIENTED_EDGE('',*,*,#312,.T.);
#139=ORIENTED_EDGE('',*,*,#313,.T.);
#140=ORIENTED_EDGE('',*,*,#314,.T.);
#141=ORIENTED_EDGE('',*,*,#315,.F.);
#142=ORIENTED_EDGE('',*,*,#316,.T.);
#143=ORIENTED_EDGE('',*,*,#317,.T.);
#144=ORIENTED_EDGE('',*,*,#318,.F.);
#145=ORIENTED_EDGE('',*,*,#319,.T.);
#146=ORIENTED_EDGE('',*,*,#320,.F.);
#147=ORIENTED_EDGE('',*,*,#321,.T.);
#148=ORIENTED_EDGE('',*,*,#322,.T.);
#149=ORIENTED_EDGE('',*,*,#323,.T.);
#150=ORIENTED_EDGE('',*,*,#324,.F.);
#151=ORIENTED_EDGE('',*,*,#325,.T.);
#152=ORIENTED_EDGE('',*,*,#326,.T.);
#153=ORIENTED_EDGE('',*,*,#327,.T.);
#154=ORIENTED_EDGE('',*,*,#328,.T.);
#155=ORIENTED_EDGE('',*,*,#329,.T.);
#156=ORIENTED_EDGE('',*,*,#330,.F.);
#157=ORIENTED_EDGE('',*,*,#331,.F.);
#158=ORIENTED_EDGE('',*,*,#332,.F.);
#159=ORIENTED_EDGE('',*,*,#333,.F.);
#160=ORIENTED_EDGE('',*,*,#334,.T.);
#161=ORIENTED_EDGE('',*,*,#335,.F.);
#162=ORIENTED_EDGE('',*,*,#336,.T.);
#163=ORIENTED_EDGE('',*,*,#337,.T.);
#164=ORIENTED_EDGE('',*,*,#338,.T.);
#165=ORIENTED_EDGE('',*,*,#339,.T.);
#166=ORIENTED_EDGE('',*,*,#340,.T.);
#167=ORIENTED_EDGE('',*,*,#341,.F.);
#168=ORIENTED_EDGE('',*,*,#342,.T.);
#169=ORIENTED_EDGE('',*,*,#343,.T.);
#170=ORIENTED_EDGE('',*,*,#344,.F.);
#171=ORIENTED_EDGE('',*,*,#345,.T.);
#172=ORIENTED_EDGE('',*,*,#346,.F.);
#173=ORIENTED_EDGE('',*,*,#347,.T.);
#174=ORIENTED_EDGE('',*,*,#348,.T.);
#175=ORIENTED_EDGE('',*,*,#349,.T.);
#176=ORIENTED_EDGE('',*,*,#350,.T.);
#177=ORIENTED_EDGE('',*,*,#351,.T.);
#178=ORIENTED_EDGE('',*,*,#352,.T.);
#179=ORIENTED_EDGE('',*,*,#353,.T.);
#180=ORIENTED_EDGE('',*,*,#354,.F.);
#181=ORIENTED_EDGE('',*,*,#355,.F.);
#182=ORIENTED_EDGE('',*,*,#356,.F.);
#183=ORIENTED_EDGE('',*,*,#357,.F.);
#184=ORIENTED_EDGE('',*,*,#358,.T.);
#185=ORIENTED_EDGE('',*,*,#359,.T.);
#186=ORIENTED_EDGE('',*,*,#360,.F.);
#187=ORIENTED_EDGE('',*,*,#361,.T.);
#188=ORIENTED_EDGE('',*,*,#362,.F.);
#189=ORIENTED_EDGE('',*,*,#363,.T.);
#190=ORIENTED_EDGE('',*,*,#364,.T.);
#191=ORIENTED_EDGE('',*,*,#365,.T.);
#192=ORIENTED_EDGE('',*,*,#362,.T.);
#193=ORIENTED_EDGE('',*,*,#366,.T.);
#194=ORIENTED_EDGE('',*,*,#367,.T.);
#195=ORIENTED_EDGE('',*,*,#368,.T.);
#196=ORIENTED_EDGE('',*,*,#320,.T.);
#197=ORIENTED_EDGE('',*,*,#369,.T.);
#198=ORIENTED_EDGE('',*,*,#358,.F.);
#199=ORIENTED_EDGE('',*,*,#370,.T.);
#200=ORIENTED_EDGE('',*,*,#322,.F.);
#201=ORIENTED_EDGE('',*,*,#371,.T.);
#202=ORIENTED_EDGE('',*,*,#364,.F.);
#203=ORIENTED_EDGE('',*,*,#372,.T.);
#204=ORIENTED_EDGE('',*,*,#373,.T.);
#205=ORIENTED_EDGE('',*,*,#352,.F.);
#206=ORIENTED_EDGE('',*,*,#374,.T.);
#207=ORIENTED_EDGE('',*,*,#360,.T.);
#208=ORIENTED_EDGE('',*,*,#375,.T.);
#209=ORIENTED_EDGE('',*,*,#318,.T.);
#210=ORIENTED_EDGE('',*,*,#376,.T.);
#211=ORIENTED_EDGE('',*,*,#344,.T.);
#212=ORIENTED_EDGE('',*,*,#377,.T.);
#213=ORIENTED_EDGE('',*,*,#378,.T.);
#214=ORIENTED_EDGE('',*,*,#346,.T.);
#215=ORIENTED_EDGE('',*,*,#379,.T.);
#216=ORIENTED_EDGE('',*,*,#328,.F.);
#217=ORIENTED_EDGE('',*,*,#380,.T.);
#218=ORIENTED_EDGE('',*,*,#324,.T.);
#219=ORIENTED_EDGE('',*,*,#381,.T.);
#220=ORIENTED_EDGE('',*,*,#350,.F.);
#221=ORIENTED_EDGE('',*,*,#382,.T.);
#222=ORIENTED_EDGE('',*,*,#348,.F.);
#223=ORIENTED_EDGE('',*,*,#383,.T.);
#224=ORIENTED_EDGE('',*,*,#326,.F.);
#225=ORIENTED_EDGE('',*,*,#384,.T.);
#226=ORIENTED_EDGE('',*,*,#343,.F.);
#227=ORIENTED_EDGE('',*,*,#317,.F.);
#228=ORIENTED_EDGE('',*,*,#339,.F.);
#229=ORIENTED_EDGE('',*,*,#385,.T.);
#230=ORIENTED_EDGE('',*,*,#311,.F.);
#231=ORIENTED_EDGE('',*,*,#386,.T.);
#232=ORIENTED_EDGE('',*,*,#309,.T.);
#233=ORIENTED_EDGE('',*,*,#387,.T.);
#234=ORIENTED_EDGE('',*,*,#341,.T.);
#235=ORIENTED_EDGE('',*,*,#388,.T.);
#236=ORIENTED_EDGE('',*,*,#335,.T.);
#237=ORIENTED_EDGE('',*,*,#389,.T.);
#238=ORIENTED_EDGE('',*,*,#315,.T.);
#239=ORIENTED_EDGE('',*,*,#390,.T.);
#240=ORIENTED_EDGE('',*,*,#337,.F.);
#241=ORIENTED_EDGE('',*,*,#391,.T.);
#242=ORIENTED_EDGE('',*,*,#313,.F.);
#243=ORIENTED_EDGE('',*,*,#392,.T.);
#244=ORIENTED_EDGE('',*,*,#354,.T.);
#245=ORIENTED_EDGE('',*,*,#332,.T.);
#246=ORIENTED_EDGE('',*,*,#334,.F.);
#247=ORIENTED_EDGE('',*,*,#308,.F.);
#248=ORIENTED_EDGE('',*,*,#355,.T.);
#249=ORIENTED_EDGE('',*,*,#333,.T.);
#250=ORIENTED_EDGE('',*,*,#357,.T.);
#251=ORIENTED_EDGE('',*,*,#330,.T.);
#252=ORIENTED_EDGE('',*,*,#356,.T.);
#253=ORIENTED_EDGE('',*,*,#331,.T.);
#254=ORIENTED_EDGE('',*,*,#373,.F.);
#255=ORIENTED_EDGE('',*,*,#393,.T.);
#256=ORIENTED_EDGE('',*,*,#367,.F.);
#257=ORIENTED_EDGE('',*,*,#394,.T.);
#258=ORIENTED_EDGE('',*,*,#377,.F.);
#259=ORIENTED_EDGE('',*,*,#353,.F.);
#260=ORIENTED_EDGE('',*,*,#342,.F.);
#261=ORIENTED_EDGE('',*,*,#387,.F.);
#262=ORIENTED_EDGE('',*,*,#316,.F.);
#263=ORIENTED_EDGE('',*,*,#389,.F.);
#264=ORIENTED_EDGE('',*,*,#336,.F.);
#265=ORIENTED_EDGE('',*,*,#390,.F.);
#266=ORIENTED_EDGE('',*,*,#314,.F.);
#267=ORIENTED_EDGE('',*,*,#391,.F.);
#268=ORIENTED_EDGE('',*,*,#338,.F.);
#269=ORIENTED_EDGE('',*,*,#392,.F.);
#270=ORIENTED_EDGE('',*,*,#312,.F.);
#271=ORIENTED_EDGE('',*,*,#385,.F.);
#272=ORIENTED_EDGE('',*,*,#340,.F.);
#273=ORIENTED_EDGE('',*,*,#386,.F.);
#274=ORIENTED_EDGE('',*,*,#310,.F.);
#275=ORIENTED_EDGE('',*,*,#388,.F.);
#276=ORIENTED_EDGE('',*,*,#359,.F.);
#277=ORIENTED_EDGE('',*,*,#369,.F.);
#278=ORIENTED_EDGE('',*,*,#319,.F.);
#279=ORIENTED_EDGE('',*,*,#375,.F.);
#280=ORIENTED_EDGE('',*,*,#365,.F.);
#281=ORIENTED_EDGE('',*,*,#371,.F.);
#282=ORIENTED_EDGE('',*,*,#321,.F.);
#283=ORIENTED_EDGE('',*,*,#370,.F.);
#284=ORIENTED_EDGE('',*,*,#394,.F.);
#285=ORIENTED_EDGE('',*,*,#366,.F.);
#286=ORIENTED_EDGE('',*,*,#361,.F.);
#287=ORIENTED_EDGE('',*,*,#378,.F.);
#288=ORIENTED_EDGE('',*,*,#393,.F.);
#289=ORIENTED_EDGE('',*,*,#372,.F.);
#290=ORIENTED_EDGE('',*,*,#363,.F.);
#291=ORIENTED_EDGE('',*,*,#368,.F.);
#292=ORIENTED_EDGE('',*,*,#323,.F.);
#293=ORIENTED_EDGE('',*,*,#374,.F.);
#294=ORIENTED_EDGE('',*,*,#351,.F.);
#295=ORIENTED_EDGE('',*,*,#381,.F.);
#296=ORIENTED_EDGE('',*,*,#329,.F.);
#297=ORIENTED_EDGE('',*,*,#379,.F.);
#298=ORIENTED_EDGE('',*,*,#345,.F.);
#299=ORIENTED_EDGE('',*,*,#376,.F.);
#300=ORIENTED_EDGE('',*,*,#327,.F.);
#301=ORIENTED_EDGE('',*,*,#383,.F.);
#302=ORIENTED_EDGE('',*,*,#347,.F.);
#303=ORIENTED_EDGE('',*,*,#380,.F.);
#304=ORIENTED_EDGE('',*,*,#349,.F.);
#305=ORIENTED_EDGE('',*,*,#384,.F.);
#306=ORIENTED_EDGE('',*,*,#325,.F.);
#307=ORIENTED_EDGE('',*,*,#382,.F.);
#308=EDGE_CURVE('',#395,#395,#457,.T.);
#309=EDGE_CURVE('',#396,#397,#32,.T.);
#310=EDGE_CURVE('',#396,#398,#458,.F.);
#311=EDGE_CURVE('',#398,#399,#33,.T.);
#312=EDGE_CURVE('',#399,#400,#459,.F.);
#313=EDGE_CURVE('',#400,#401,#34,.T.);
#314=EDGE_CURVE('',#401,#402,#460,.F.);
#315=EDGE_CURVE('',#403,#402,#35,.T.);
#316=EDGE_CURVE('',#403,#397,#461,.F.);
#317=EDGE_CURVE('',#404,#404,#462,.T.);
#318=EDGE_CURVE('',#405,#406,#36,.T.);
#319=EDGE_CURVE('',#405,#407,#463,.T.);
#320=EDGE_CURVE('',#408,#407,#37,.T.);
#321=EDGE_CURVE('',#408,#409,#464,.T.);
#322=EDGE_CURVE('',#409,#410,#38,.T.);
#323=EDGE_CURVE('',#410,#411,#465,.F.);
#324=EDGE_CURVE('',#412,#411,#39,.T.);
#325=EDGE_CURVE('',#412,#413,#466,.T.);
#326=EDGE_CURVE('',#413,#414,#40,.T.);
#327=EDGE_CURVE('',#414,#415,#467,.T.);
#328=EDGE_CURVE('',#415,#416,#41,.T.);
#329=EDGE_CURVE('',#416,#406,#468,.T.);
#330=EDGE_CURVE('',#417,#417,#469,.T.);
#331=EDGE_CURVE('',#418,#418,#470,.T.);
#332=EDGE_CURVE('',#419,#419,#471,.T.);
#333=EDGE_CURVE('',#420,#420,#472,.T.);
#334=EDGE_CURVE('',#421,#421,#473,.F.);
#335=EDGE_CURVE('',#422,#423,#42,.T.);
#336=EDGE_CURVE('',#422,#424,#474,.F.);
#337=EDGE_CURVE('',#424,#425,#43,.T.);
#338=EDGE_CURVE('',#425,#426,#475,.F.);
#339=EDGE_CURVE('',#426,#427,#44,.T.);
#340=EDGE_CURVE('',#427,#428,#476,.F.);
#341=EDGE_CURVE('',#429,#428,#45,.T.);
#342=EDGE_CURVE('',#429,#423,#477,.F.);
#343=EDGE_CURVE('',#430,#430,#478,.F.);
#344=EDGE_CURVE('',#431,#432,#46,.T.);
#345=EDGE_CURVE('',#431,#433,#479,.T.);
#346=EDGE_CURVE('',#434,#433,#47,.T.);
#347=EDGE_CURVE('',#434,#435,#480,.T.);
#348=EDGE_CURVE('',#435,#436,#48,.T.);
#349=EDGE_CURVE('',#436,#437,#481,.T.);
#350=EDGE_CURVE('',#437,#438,#49,.T.);
#351=EDGE_CURVE('',#438,#439,#482,.F.);
#352=EDGE_CURVE('',#439,#440,#50,.T.);
#353=EDGE_CURVE('',#440,#432,#51,.T.);
#354=EDGE_CURVE('',#441,#441,#483,.T.);
#355=EDGE_CURVE('',#442,#442,#484,.T.);
#356=EDGE_CURVE('',#443,#443,#485,.T.);
#357=EDGE_CURVE('',#444,#444,#486,.T.);
#358=EDGE_CURVE('',#445,#446,#52,.T.);
#359=EDGE_CURVE('',#446,#447,#487,.T.);
#360=EDGE_CURVE('',#448,#447,#53,.T.);
#361=EDGE_CURVE('',#448,#449,#488,.T.);
#362=EDGE_CURVE('',#450,#449,#54,.T.);
#363=EDGE_CURVE('',#450,#451,#489,.T.);
#364=EDGE_CURVE('',#451,#452,#55,.T.);
#365=EDGE_CURVE('',#452,#445,#490,.T.);
#366=EDGE_CURVE('',#449,#453,#56,.F.);
#367=EDGE_CURVE('',#453,#454,#57,.T.);
#368=EDGE_CURVE('',#454,#450,#58,.T.);
#369=EDGE_CURVE('',#407,#446,#59,.F.);
#370=EDGE_CURVE('',#445,#408,#60,.T.);
#371=EDGE_CURVE('',#409,#452,#61,.F.);
#372=EDGE_CURVE('',#451,#455,#62,.F.);
#373=EDGE_CURVE('',#455,#440,#63,.F.);
#374=EDGE_CURVE('',#439,#410,#64,.F.);
#375=EDGE_CURVE('',#447,#405,#65,.T.);
#376=EDGE_CURVE('',#406,#431,#66,.T.);
#377=EDGE_CURVE('',#432,#456,#67,.F.);
#378=EDGE_CURVE('',#456,#448,#68,.T.);
#379=EDGE_CURVE('',#433,#416,#69,.F.);
#380=EDGE_CURVE('',#415,#434,#70,.T.);
#381=EDGE_CURVE('',#411,#438,#71,.T.);
#382=EDGE_CURVE('',#437,#412,#72,.T.);
#383=EDGE_CURVE('',#435,#414,#73,.F.);
#384=EDGE_CURVE('',#413,#436,#74,.F.);
#385=EDGE_CURVE('',#426,#399,#75,.T.);
#386=EDGE_CURVE('',#398,#427,#76,.F.);
#387=EDGE_CURVE('',#397,#429,#77,.F.);
#388=EDGE_CURVE('',#428,#396,#78,.T.);
#389=EDGE_CURVE('',#423,#403,#79,.T.);
#390=EDGE_CURVE('',#402,#422,#80,.F.);
#391=EDGE_CURVE('',#424,#401,#81,.T.);
#392=EDGE_CURVE('',#400,#425,#82,.F.);
#393=EDGE_CURVE('',#455,#454,#12,.F.);
#394=EDGE_CURVE('',#453,#456,#13,.F.);
#395=VERTEX_POINT('',#921);
#396=VERTEX_POINT('',#923);
#397=VERTEX_POINT('',#924);
#398=VERTEX_POINT('',#926);
#399=VERTEX_POINT('',#928);
#400=VERTEX_POINT('',#930);
#401=VERTEX_POINT('',#932);
#402=VERTEX_POINT('',#934);
#403=VERTEX_POINT('',#936);
#404=VERTEX_POINT('',#939);
#405=VERTEX_POINT('',#941);
#406=VERTEX_POINT('',#942);
#407=VERTEX_POINT('',#944);
#408=VERTEX_POINT('',#946);
#409=VERTEX_POINT('',#948);
#410=VERTEX_POINT('',#950);
#411=VERTEX_POINT('',#952);
#412=VERTEX_POINT('',#954);
#413=VERTEX_POINT('',#956);
#414=VERTEX_POINT('',#958);
#415=VERTEX_POINT('',#960);
#416=VERTEX_POINT('',#962);
#417=VERTEX_POINT('',#965);
#418=VERTEX_POINT('',#967);
#419=VERTEX_POINT('',#969);
#420=VERTEX_POINT('',#971);
#421=VERTEX_POINT('',#974);
#422=VERTEX_POINT('',#976);
#423=VERTEX_POINT('',#977);
#424=VERTEX_POINT('',#979);
#425=VERTEX_POINT('',#981);
#426=VERTEX_POINT('',#983);
#427=VERTEX_POINT('',#985);
#428=VERTEX_POINT('',#987);
#429=VERTEX_POINT('',#989);
#430=VERTEX_POINT('',#992);
#431=VERTEX_POINT('',#994);
#432=VERTEX_POINT('',#995);
#433=VERTEX_POINT('',#997);
#434=VERTEX_POINT('',#999);
#435=VERTEX_POINT('',#1001);
#436=VERTEX_POINT('',#1003);
#437=VERTEX_POINT('',#1005);
#438=VERTEX_POINT('',#1007);
#439=VERTEX_POINT('',#1009);
#440=VERTEX_POINT('',#1011);
#441=VERTEX_POINT('',#1014);
#442=VERTEX_POINT('',#1016);
#443=VERTEX_POINT('',#1019);
#444=VERTEX_POINT('',#1021);
#445=VERTEX_POINT('',#1023);
#446=VERTEX_POINT('',#1024);
#447=VERTEX_POINT('',#1026);
#448=VERTEX_POINT('',#1028);
#449=VERTEX_POINT('',#1030);
#450=VERTEX_POINT('',#1032);
#451=VERTEX_POINT('',#1034);
#452=VERTEX_POINT('',#1036);
#453=VERTEX_POINT('',#1040);
#454=VERTEX_POINT('',#1042);
#455=VERTEX_POINT('',#1050);
#456=VERTEX_POINT('',#1057);
#457=CIRCLE('',#659,0.0014);
#458=CIRCLE('',#660,0.001);
#459=CIRCLE('',#661,0.001);
#460=CIRCLE('',#662,0.001);
#461=CIRCLE('',#663,0.001);
#462=CIRCLE('',#664,0.0014);
#463=CIRCLE('',#665,0.001);
#464=CIRCLE('',#666,0.001);
#465=CIRCLE('',#667,0.001);
#466=CIRCLE('',#668,0.001);
#467=CIRCLE('',#669,0.001);
#468=CIRCLE('',#670,0.001);
#469=CIRCLE('',#671,0.0024);
#470=CIRCLE('',#672,0.0024);
#471=CIRCLE('',#673,0.0014);
#472=CIRCLE('',#674,0.0014);
#473=CIRCLE('',#676,0.0014);
#474=CIRCLE('',#677,0.001);
#475=CIRCLE('',#678,0.001);
#476=CIRCLE('',#679,0.001);
#477=CIRCLE('',#680,0.001);
#478=CIRCLE('',#681,0.0014);
#479=CIRCLE('',#682,0.001);
#480=CIRCLE('',#683,0.001);
#481=CIRCLE('',#684,0.001);
#482=CIRCLE('',#685,0.001);
#483=CIRCLE('',#686,0.0014);
#484=CIRCLE('',#687,0.0014);
#485=CIRCLE('',#689,0.0024);
#486=CIRCLE('',#690,0.0024);
#487=CIRCLE('',#691,0.001);
#488=CIRCLE('',#692,0.001);
#489=CIRCLE('',#693,0.001);
#490=CIRCLE('',#694,0.001);
#491=EDGE_LOOP('',(#134));
#492=EDGE_LOOP('',(#135,#136,#137,#138,#139,#140,#141,#142));
#493=EDGE_LOOP('',(#143));
#494=EDGE_LOOP('',(#144,#145,#146,#147,#148,#149,#150,#151,#152,#153,#154,
#155));
#495=EDGE_LOOP('',(#156));
#496=EDGE_LOOP('',(#157));
#497=EDGE_LOOP('',(#158));
#498=EDGE_LOOP('',(#159));
#499=EDGE_LOOP('',(#160));
#500=EDGE_LOOP('',(#161,#162,#163,#164,#165,#166,#167,#168));
#501=EDGE_LOOP('',(#169));
#502=EDGE_LOOP('',(#170,#171,#172,#173,#174,#175,#176,#177,#178,#179));
#503=EDGE_LOOP('',(#180));
#504=EDGE_LOOP('',(#181));
#505=EDGE_LOOP('',(#182));
#506=EDGE_LOOP('',(#183));
#507=EDGE_LOOP('',(#184,#185,#186,#187,#188,#189,#190,#191));
#508=EDGE_LOOP('',(#192,#193,#194,#195));
#509=EDGE_LOOP('',(#196,#197,#198,#199));
#510=EDGE_LOOP('',(#200,#201,#202,#203,#204,#205,#206));
#511=EDGE_LOOP('',(#207,#208,#209,#210,#211,#212,#213));
#512=EDGE_LOOP('',(#214,#215,#216,#217));
#513=EDGE_LOOP('',(#218,#219,#220,#221));
#514=EDGE_LOOP('',(#222,#223,#224,#225));
#515=EDGE_LOOP('',(#226));
#516=EDGE_LOOP('',(#227));
#517=EDGE_LOOP('',(#228,#229,#230,#231));
#518=EDGE_LOOP('',(#232,#233,#234,#235));
#519=EDGE_LOOP('',(#236,#237,#238,#239));
#520=EDGE_LOOP('',(#240,#241,#242,#243));
#521=EDGE_LOOP('',(#244));
#522=EDGE_LOOP('',(#245));
#523=EDGE_LOOP('',(#246));
#524=EDGE_LOOP('',(#247));
#525=EDGE_LOOP('',(#248));
#526=EDGE_LOOP('',(#249));
#527=EDGE_LOOP('',(#250));
#528=EDGE_LOOP('',(#251));
#529=EDGE_LOOP('',(#252));
#530=EDGE_LOOP('',(#253));
#531=EDGE_LOOP('',(#254,#255,#256,#257,#258,#259));
#532=EDGE_LOOP('',(#260,#261,#262,#263));
#533=EDGE_LOOP('',(#264,#265,#266,#267));
#534=EDGE_LOOP('',(#268,#269,#270,#271));
#535=EDGE_LOOP('',(#272,#273,#274,#275));
#536=EDGE_LOOP('',(#276,#277,#278,#279));
#537=EDGE_LOOP('',(#280,#281,#282,#283));
#538=EDGE_LOOP('',(#284,#285,#286,#287));
#539=EDGE_LOOP('',(#288,#289,#290,#291));
#540=EDGE_LOOP('',(#292,#293,#294,#295));
#541=EDGE_LOOP('',(#296,#297,#298,#299));
#542=EDGE_LOOP('',(#300,#301,#302,#303));
#543=EDGE_LOOP('',(#304,#305,#306,#307));
#544=FACE_BOUND('',#491,.T.);
#545=FACE_BOUND('',#492,.T.);
#546=FACE_BOUND('',#493,.T.);
#547=FACE_BOUND('',#494,.T.);
#548=FACE_BOUND('',#495,.T.);
#549=FACE_BOUND('',#496,.T.);
#550=FACE_BOUND('',#497,.T.);
#551=FACE_BOUND('',#498,.T.);
#552=FACE_BOUND('',#499,.T.);
#553=FACE_BOUND('',#500,.T.);
#554=FACE_BOUND('',#501,.T.);
#555=FACE_BOUND('',#502,.T.);
#556=FACE_BOUND('',#503,.T.);
#557=FACE_BOUND('',#504,.T.);
#558=FACE_BOUND('',#505,.T.);
#559=FACE_BOUND('',#506,.T.);
#560=FACE_BOUND('',#507,.T.);
#561=FACE_BOUND('',#508,.T.);
#562=FACE_BOUND('',#509,.T.);
#563=FACE_BOUND('',#510,.T.);
#564=FACE_BOUND('',#511,.T.);
#565=FACE_BOUND('',#512,.T.);
#566=FACE_BOUND('',#513,.T.);
#567=FACE_BOUND('',#514,.T.);
#568=FACE_BOUND('',#515,.T.);
#569=FACE_BOUND('',#516,.T.);
#570=FACE_BOUND('',#517,.T.);
#571=FACE_BOUND('',#518,.T.);
#572=FACE_BOUND('',#519,.T.);
#573=FACE_BOUND('',#520,.T.);
#574=FACE_BOUND('',#521,.T.);
#575=FACE_BOUND('',#522,.T.);
#576=FACE_BOUND('',#523,.T.);
#577=FACE_BOUND('',#524,.T.);
#578=FACE_BOUND('',#525,.T.);
#579=FACE_BOUND('',#526,.T.);
#580=FACE_BOUND('',#527,.T.);
#581=FACE_BOUND('',#528,.T.);
#582=FACE_BOUND('',#529,.T.);
#583=FACE_BOUND('',#530,.T.);
#584=FACE_BOUND('',#531,.T.);
#585=FACE_BOUND('',#532,.T.);
#586=FACE_BOUND('',#533,.T.);
#587=FACE_BOUND('',#534,.T.);
#588=FACE_BOUND('',#535,.T.);
#589=FACE_BOUND('',#536,.T.);
#590=FACE_BOUND('',#537,.T.);
#591=FACE_BOUND('',#538,.T.);
#592=FACE_BOUND('',#539,.T.);
#593=FACE_BOUND('',#540,.T.);
#594=FACE_BOUND('',#541,.T.);
#595=FACE_BOUND('',#542,.T.);
#596=FACE_BOUND('',#543,.T.);
#597=PLANE('',#658);
#598=PLANE('',#675);
#599=PLANE('',#688);
#600=PLANE('',#695);
#601=PLANE('',#696);
#602=PLANE('',#697);
#603=PLANE('',#698);
#604=PLANE('',#699);
#605=PLANE('',#700);
#606=PLANE('',#701);
#607=PLANE('',#703);
#608=PLANE('',#704);
#609=PLANE('',#705);
#610=PLANE('',#706);
#611=PLANE('',#712);
#612=ADVANCED_FACE('',(#544,#545,#546,#547,#548,#549,#550,#551),#597,.T.);
#613=ADVANCED_FACE('',(#552,#553,#554,#555,#556,#557),#598,.T.);
#614=ADVANCED_FACE('',(#558,#559,#560),#599,.T.);
#615=ADVANCED_FACE('',(#561),#600,.T.);
#616=ADVANCED_FACE('',(#562),#601,.T.);
#617=ADVANCED_FACE('',(#563),#602,.T.);
#618=ADVANCED_FACE('',(#564),#603,.F.);
#619=ADVANCED_FACE('',(#565),#604,.T.);
#620=ADVANCED_FACE('',(#566),#605,.T.);
#621=ADVANCED_FACE('',(#567),#606,.T.);
#622=ADVANCED_FACE('',(#568,#569),#14,.F.);
#623=ADVANCED_FACE('',(#570),#607,.T.);
#624=ADVANCED_FACE('',(#571),#608,.F.);
#625=ADVANCED_FACE('',(#572),#609,.F.);
#626=ADVANCED_FACE('',(#573),#610,.T.);
#627=ADVANCED_FACE('',(#574,#575),#15,.F.);
#628=ADVANCED_FACE('',(#576,#577),#16,.F.);
#629=ADVANCED_FACE('',(#578,#579),#17,.F.);
#630=ADVANCED_FACE('',(#580,#581),#18,.F.);
#631=ADVANCED_FACE('',(#582,#583),#19,.F.);
#632=ADVANCED_FACE('',(#584),#611,.T.);
#633=ADVANCED_FACE('',(#585),#20,.F.);
#634=ADVANCED_FACE('',(#586),#21,.F.);
#635=ADVANCED_FACE('',(#587),#22,.F.);
#636=ADVANCED_FACE('',(#588),#23,.F.);
#637=ADVANCED_FACE('',(#589),#24,.T.);
#638=ADVANCED_FACE('',(#590),#25,.T.);
#639=ADVANCED_FACE('',(#591),#26,.T.);
#640=ADVANCED_FACE('',(#592),#27,.T.);
#641=ADVANCED_FACE('',(#593),#28,.F.);
#642=ADVANCED_FACE('',(#594),#29,.T.);
#643=ADVANCED_FACE('',(#595),#30,.T.);
#644=ADVANCED_FACE('',(#596),#31,.T.);
#645=CLOSED_SHELL('',(#612,#613,#614,#615,#616,#617,#618,#619,#620,#621,
#622,#623,#624,#625,#626,#627,#628,#629,#630,#631,#632,#633,#634,#635,#636,
#637,#638,#639,#640,#641,#642,#643,#644));
#646=STYLED_ITEM('',(#647),#654);
#647=PRESENTATION_STYLE_ASSIGNMENT((#648));
#648=SURFACE_STYLE_USAGE(.BOTH.,#649);
#649=SURFACE_SIDE_STYLE('',(#650));
#650=SURFACE_STYLE_FILL_AREA(#651);
#651=FILL_AREA_STYLE('',(#652));
#652=FILL_AREA_STYLE_COLOUR('',#653);
#653=COLOUR_RGB('',0.615686274509804,0.811764705882353,0.929411764705882);
#654=MANIFOLD_SOLID_BREP('Part 1',#645);
#655=SHAPE_DEFINITION_REPRESENTATION(#1107,#656);
#656=SHAPE_REPRESENTATION('Part 1',(#657),#1102);
#657=AXIS2_PLACEMENT_3D('',#918,#727,#728);
#658=AXIS2_PLACEMENT_3D('',#919,#729,#730);
#659=AXIS2_PLACEMENT_3D('',#920,#731,#732);
#660=AXIS2_PLACEMENT_3D('',#925,#734,#735);
#661=AXIS2_PLACEMENT_3D('',#929,#737,#738);
#662=AXIS2_PLACEMENT_3D('',#933,#740,#741);
#663=AXIS2_PLACEMENT_3D('',#937,#743,#744);
#664=AXIS2_PLACEMENT_3D('',#938,#745,#746);
#665=AXIS2_PLACEMENT_3D('',#943,#748,#749);
#666=AXIS2_PLACEMENT_3D('',#947,#751,#752);
#667=AXIS2_PLACEMENT_3D('',#951,#754,#755);
#668=AXIS2_PLACEMENT_3D('',#955,#757,#758);
#669=AXIS2_PLACEMENT_3D('',#959,#760,#761);
#670=AXIS2_PLACEMENT_3D('',#963,#763,#764);
#671=AXIS2_PLACEMENT_3D('',#964,#765,#766);
#672=AXIS2_PLACEMENT_3D('',#966,#767,#768);
#673=AXIS2_PLACEMENT_3D('',#968,#769,#770);
#674=AXIS2_PLACEMENT_3D('',#970,#771,#772);
#675=AXIS2_PLACEMENT_3D('',#972,#773,#774);
#676=AXIS2_PLACEMENT_3D('',#973,#775,#776);
#677=AXIS2_PLACEMENT_3D('',#978,#778,#779);
#678=AXIS2_PLACEMENT_3D('',#982,#781,#782);
#679=AXIS2_PLACEMENT_3D('',#986,#784,#785);
#680=AXIS2_PLACEMENT_3D('',#990,#787,#788);
#681=AXIS2_PLACEMENT_3D('',#991,#789,#790);
#682=AXIS2_PLACEMENT_3D('',#996,#792,#793);
#683=AXIS2_PLACEMENT_3D('',#1000,#795,#796);
#684=AXIS2_PLACEMENT_3D('',#1004,#798,#799);
#685=AXIS2_PLACEMENT_3D('',#1008,#801,#802);
#686=AXIS2_PLACEMENT_3D('',#1013,#805,#806);
#687=AXIS2_PLACEMENT_3D('',#1015,#807,#808);
#688=AXIS2_PLACEMENT_3D('',#1017,#809,#810);
#689=AXIS2_PLACEMENT_3D('',#1018,#811,#812);
#690=AXIS2_PLACEMENT_3D('',#1020,#813,#814);
#691=AXIS2_PLACEMENT_3D('',#1025,#816,#817);
#692=AXIS2_PLACEMENT_3D('',#1029,#819,#820);
#693=AXIS2_PLACEMENT_3D('',#1033,#822,#823);
#694=AXIS2_PLACEMENT_3D('',#1037,#825,#826);
#695=AXIS2_PLACEMENT_3D('',#1038,#827,#828);
#696=AXIS2_PLACEMENT_3D('',#1044,#832,#833);
#697=AXIS2_PLACEMENT_3D('',#1047,#836,#837);
#698=AXIS2_PLACEMENT_3D('',#1053,#842,#843);
#699=AXIS2_PLACEMENT_3D('',#1059,#848,#849);
#700=AXIS2_PLACEMENT_3D('',#1062,#852,#853);
#701=AXIS2_PLACEMENT_3D('',#1065,#856,#857);
#702=AXIS2_PLACEMENT_3D('',#1068,#860,#861);
#703=AXIS2_PLACEMENT_3D('',#1069,#862,#863);
#704=AXIS2_PLACEMENT_3D('',#1072,#866,#867);
#705=AXIS2_PLACEMENT_3D('',#1075,#870,#871);
#706=AXIS2_PLACEMENT_3D('',#1078,#874,#875);
#707=AXIS2_PLACEMENT_3D('',#1081,#878,#879);
#708=AXIS2_PLACEMENT_3D('',#1082,#880,#881);
#709=AXIS2_PLACEMENT_3D('',#1083,#882,#883);
#710=AXIS2_PLACEMENT_3D('',#1084,#884,#885);
#711=AXIS2_PLACEMENT_3D('',#1085,#886,#887);
#712=AXIS2_PLACEMENT_3D('',#1086,#888,#889);
#713=AXIS2_PLACEMENT_3D('',#1087,#890,#891);
#714=AXIS2_PLACEMENT_3D('',#1088,#892,#893);
#715=AXIS2_PLACEMENT_3D('',#1089,#894,#895);
#716=AXIS2_PLACEMENT_3D('',#1090,#896,#897);
#717=AXIS2_PLACEMENT_3D('',#1091,#898,#899);
#718=AXIS2_PLACEMENT_3D('',#1092,#900,#901);
#719=AXIS2_PLACEMENT_3D('',#1093,#902,#903);
#720=AXIS2_PLACEMENT_3D('',#1094,#904,#905);
#721=AXIS2_PLACEMENT_3D('',#1095,#906,#907);
#722=AXIS2_PLACEMENT_3D('',#1096,#908,#909);
#723=AXIS2_PLACEMENT_3D('',#1097,#910,#911);
#724=AXIS2_PLACEMENT_3D('',#1098,#912,#913);
#725=AXIS2_PLACEMENT_3D('',#1099,#914,#915);
#726=AXIS2_PLACEMENT_3D('',#1100,#916,#917);
#727=DIRECTION('',(0.,0.,1.));
#728=DIRECTION('',(1.,0.,0.));
#729=DIRECTION('',(1.3010426069826E-16,-1.,0.));
#730=DIRECTION('',(1.,1.3010426069826E-16,0.));
#731=DIRECTION('',(-1.3010426069826E-16,1.,0.));
#732=DIRECTION('',(1.,1.3010426069826E-16,0.));
#733=DIRECTION('',(0.,0.,-1.));
#734=DIRECTION('',(1.3010426069826E-16,-1.,0.));
#735=DIRECTION('',(1.,1.3010426069826E-16,0.));
#736=DIRECTION('',(1.,1.3010426069826E-16,3.01691039300315E-16));
#737=DIRECTION('',(1.3010426069826E-16,-1.,0.));
#738=DIRECTION('',(1.,1.3010426069826E-16,0.));
#739=DIRECTION('',(0.,0.,-1.));
#740=DIRECTION('',(1.3010426069826E-16,-1.,0.));
#741=DIRECTION('',(1.,1.3010426069826E-16,0.));
#742=DIRECTION('',(1.,1.3010426069826E-16,0.));
#743=DIRECTION('',(1.3010426069826E-16,-1.,0.));
#744=DIRECTION('',(1.,1.3010426069826E-16,0.));
#745=DIRECTION('',(-1.3010426069826E-16,1.,0.));
#746=DIRECTION('',(1.,1.3010426069826E-16,0.));
#747=DIRECTION('',(-1.,-1.3010426069826E-16,0.));
#748=DIRECTION('',(1.3010426069826E-16,-1.,0.));
#749=DIRECTION('',(1.,1.3010426069826E-16,0.));
#750=DIRECTION('',(0.,0.,-1.));
#751=DIRECTION('',(1.3010426069826E-16,-1.,0.));
#752=DIRECTION('',(1.,1.3010426069826E-16,0.));
#753=DIRECTION('',(-1.,-1.3010426069826E-16,0.));
#754=DIRECTION('',(1.3010426069826E-16,-1.,0.));
#755=DIRECTION('',(1.,1.3010426069826E-16,0.));
#756=DIRECTION('',(0.,0.,-1.));
#757=DIRECTION('',(1.3010426069826E-16,-1.,0.));
#758=DIRECTION('',(1.,1.3010426069826E-16,0.));
#759=DIRECTION('',(-1.,-1.05134756119806E-16,0.));
#760=DIRECTION('',(1.3010426069826E-16,-1.,0.));
#761=DIRECTION('',(1.,1.3010426069826E-16,0.));
#762=DIRECTION('',(0.,0.,-1.));
#763=DIRECTION('',(1.3010426069826E-16,-1.,0.));
#764=DIRECTION('',(1.,1.3010426069826E-16,0.));
#765=DIRECTION('',(1.3010426069826E-16,-1.,0.));
#766=DIRECTION('',(1.,1.3010426069826E-16,0.));
#767=DIRECTION('',(1.3010426069826E-16,-1.,0.));
#768=DIRECTION('',(1.,1.3010426069826E-16,0.));
#769=DIRECTION('',(1.3010426069826E-16,-1.,0.));
#770=DIRECTION('',(1.,1.3010426069826E-16,0.));
#771=DIRECTION('',(1.3010426069826E-16,-1.,0.));
#772=DIRECTION('',(1.,1.3010426069826E-16,0.));
#773=DIRECTION('',(0.,1.,0.));
#774=DIRECTION('',(0.,0.,1.));
#775=DIRECTION('',(0.,1.,0.));
#776=DIRECTION('',(0.,0.,1.));
#777=DIRECTION('',(-1.,0.,0.));
#778=DIRECTION('',(0.,1.,0.));
#779=DIRECTION('',(0.,0.,1.));
#780=DIRECTION('',(0.,0.,1.));
#781=DIRECTION('',(0.,1.,0.));
#782=DIRECTION('',(0.,0.,1.));
#783=DIRECTION('',(-1.,1.935237991663E-63,-3.01691039300315E-16));
#784=DIRECTION('',(0.,1.,0.));
#785=DIRECTION('',(0.,0.,1.));
#786=DIRECTION('',(0.,0.,1.));
#787=DIRECTION('',(0.,1.,0.));
#788=DIRECTION('',(0.,0.,1.));
#789=DIRECTION('',(0.,1.,0.));
#790=DIRECTION('',(0.,0.,1.));
#791=DIRECTION('',(1.,0.,0.));
#792=DIRECTION('',(0.,1.,0.));
#793=DIRECTION('',(0.,0.,1.));
#794=DIRECTION('',(0.,0.,-1.));
#795=DIRECTION('',(0.,1.,0.));
#796=DIRECTION('',(0.,0.,1.));
#797=DIRECTION('',(1.,0.,0.));
#798=DIRECTION('',(0.,1.,0.));
#799=DIRECTION('',(0.,0.,1.));
#800=DIRECTION('',(0.,0.,-1.));
#801=DIRECTION('',(0.,1.,0.));
#802=DIRECTION('',(0.,0.,1.));
#803=DIRECTION('',(1.,0.,0.));
#804=DIRECTION('',(0.,0.,-1.));
#805=DIRECTION('',(0.,1.,0.));
#806=DIRECTION('',(0.,0.,1.));
#807=DIRECTION('',(0.,1.,0.));
#808=DIRECTION('',(0.,0.,1.));
#809=DIRECTION('',(0.,1.,0.));
#810=DIRECTION('',(0.,0.,1.));
#811=DIRECTION('',(0.,1.,0.));
#812=DIRECTION('',(0.,0.,1.));
#813=DIRECTION('',(0.,1.,0.));
#814=DIRECTION('',(0.,0.,1.));
#815=DIRECTION('',(0.,0.,-1.));
#816=DIRECTION('',(0.,1.,0.));
#817=DIRECTION('',(0.,0.,1.));
#818=DIRECTION('',(1.,0.,0.));
#819=DIRECTION('',(0.,1.,0.));
#820=DIRECTION('',(0.,0.,1.));
#821=DIRECTION('',(0.,0.,-1.));
#822=DIRECTION('',(0.,1.,0.));
#823=DIRECTION('',(0.,0.,1.));
#824=DIRECTION('',(1.,0.,0.));
#825=DIRECTION('',(0.,1.,0.));
#826=DIRECTION('',(0.,0.,1.));
#827=DIRECTION('',(-1.,0.,0.));
#828=DIRECTION('',(0.,0.,1.));
#829=DIRECTION('',(0.,1.,0.));
#830=DIRECTION('',(0.,0.,1.));
#831=DIRECTION('',(0.,1.,0.));
#832=DIRECTION('',(1.,0.,0.));
#833=DIRECTION('',(0.,0.,-1.));
#834=DIRECTION('',(0.,-1.,0.));
#835=DIRECTION('',(0.,-1.,0.));
#836=DIRECTION('',(0.,0.,1.));
#837=DIRECTION('',(1.,0.,0.));
#838=DIRECTION('',(0.,-1.,0.));
#839=DIRECTION('',(0.,1.,0.));
#840=DIRECTION('',(0.707106781186548,0.707106781186547,0.));
#841=DIRECTION('',(0.,1.,0.));
#842=DIRECTION('',(0.,0.,1.));
#843=DIRECTION('',(1.,0.,0.));
#844=DIRECTION('',(0.,-1.,0.));
#845=DIRECTION('',(0.,1.,0.));
#846=DIRECTION('',(-0.707106781186548,-0.707106781186547,0.));
#847=DIRECTION('',(0.,1.,0.));
#848=DIRECTION('',(-1.,0.,0.));
#849=DIRECTION('',(0.,0.,1.));
#850=DIRECTION('',(0.,1.,0.));
#851=DIRECTION('',(0.,1.,0.));
#852=DIRECTION('',(1.,0.,0.));
#853=DIRECTION('',(0.,0.,-1.));
#854=DIRECTION('',(0.,1.,0.));
#855=DIRECTION('',(0.,-1.,0.));
#856=DIRECTION('',(0.,0.,1.));
#857=DIRECTION('',(1.,0.,0.));
#858=DIRECTION('',(0.,1.,0.));
#859=DIRECTION('',(0.,-1.,0.));
#860=DIRECTION('',(1.3010426069826E-16,-1.,0.));
#861=DIRECTION('',(1.,1.30104260698261E-16,0.));
#862=DIRECTION('',(3.01691039300315E-16,3.92512896274572E-32,-1.));
#863=DIRECTION('',(-1.,0.,-3.01691039300315E-16));
#864=DIRECTION('',(1.30104260698261E-16,-1.,5.47382212626882E-48));
#865=DIRECTION('',(1.30104260698261E-16,-1.,5.47382212626882E-48));
#866=DIRECTION('',(-1.,-1.3010426069826E-16,0.));
#867=DIRECTION('',(1.30104260698261E-16,-1.,0.));
#868=DIRECTION('',(1.30104260698261E-16,-1.,0.));
#869=DIRECTION('',(1.30104260698261E-16,-1.,1.09476442525376E-47));
#870=DIRECTION('',(0.,0.,-1.));
#871=DIRECTION('',(-1.,0.,0.));
#872=DIRECTION('',(1.30104260698261E-16,-1.,0.));
#873=DIRECTION('',(1.30104260698261E-16,-1.,0.));
#874=DIRECTION('',(-1.,-1.3010426069826E-16,0.));
#875=DIRECTION('',(1.30104260698261E-16,-1.,0.));
#876=DIRECTION('',(1.30104260698261E-16,-1.,0.));
#877=DIRECTION('',(1.30104260698261E-16,-1.,5.47382212626882E-48));
#878=DIRECTION('',(1.3010426069826E-16,-1.,0.));
#879=DIRECTION('',(1.,1.30104260698261E-16,0.));
#880=DIRECTION('',(1.3010426069826E-16,-1.,0.));
#881=DIRECTION('',(1.,1.30104260698261E-16,0.));
#882=DIRECTION('',(1.3010426069826E-16,-1.,0.));
#883=DIRECTION('',(1.,1.30104260698261E-16,0.));
#884=DIRECTION('',(1.3010426069826E-16,-1.,0.));
#885=DIRECTION('',(1.,1.30104260698261E-16,0.));
#886=DIRECTION('',(1.3010426069826E-16,-1.,0.));
#887=DIRECTION('',(1.,1.30104260698261E-16,0.));
#888=DIRECTION('',(-0.707106781186547,0.707106781186548,0.));
#889=DIRECTION('',(0.,0.,1.));
#890=DIRECTION('',(-0.707106781186547,0.707106781186548,0.));
#891=DIRECTION('',(0.707106781186548,0.707106781186547,0.));
#892=DIRECTION('',(-0.707106781186547,0.707106781186548,0.));
#893=DIRECTION('',(-0.707106781186548,-0.707106781186547,0.));
#894=DIRECTION('',(-1.30104260698261E-16,1.,0.));
#895=DIRECTION('',(-1.,-1.30104260698261E-16,0.));
#896=DIRECTION('',(1.30104260698261E-16,-1.,0.));
#897=DIRECTION('',(1.,1.30104260698261E-16,0.));
#898=DIRECTION('',(-1.30104260698261E-16,1.,-5.47382212626882E-48));
#899=DIRECTION('',(-1.,-1.30104260698261E-16,0.));
#900=DIRECTION('',(1.30104260698261E-16,-1.,1.09476442525376E-47));
#901=DIRECTION('',(1.,1.30104260698261E-16,0.));
#902=DIRECTION('',(0.,1.,0.));
#903=DIRECTION('',(0.,0.,1.));
#904=DIRECTION('',(0.,-1.,0.));
#905=DIRECTION('',(0.,0.,-1.));
#906=DIRECTION('',(0.,-1.,0.));
#907=DIRECTION('',(0.,0.,-1.));
#908=DIRECTION('',(0.,1.,0.));
#909=DIRECTION('',(0.,0.,1.));
#910=DIRECTION('',(0.,-1.,0.));
#911=DIRECTION('',(0.,0.,-1.));
#912=DIRECTION('',(0.,-1.,0.));
#913=DIRECTION('',(0.,0.,-1.));
#914=DIRECTION('',(0.,1.,0.));
#915=DIRECTION('',(0.,0.,1.));
#916=DIRECTION('',(0.,-1.,0.));
#917=DIRECTION('',(0.,0.,-1.));
#918=CARTESIAN_POINT('',(0.,0.,0.));
#919=CARTESIAN_POINT('',(0.02,-0.004,0.015));
#920=CARTESIAN_POINT('',(-0.0683,-0.004,0.004));
#921=CARTESIAN_POINT('',(-0.0669,-0.004,0.004));
#922=CARTESIAN_POINT('',(-0.068,-0.004,0.0165));
#923=CARTESIAN_POINT('',(-0.068,-0.004,0.023));
#924=CARTESIAN_POINT('',(-0.068,-0.004,0.01));
#925=CARTESIAN_POINT('',(-0.067,-0.004,0.023));
#926=CARTESIAN_POINT('',(-0.067,-0.004,0.024));
#927=CARTESIAN_POINT('',(-0.0565,-0.004,0.024));
#928=CARTESIAN_POINT('',(-0.046,-0.004,0.024));
#929=CARTESIAN_POINT('',(-0.046,-0.004,0.023));
#930=CARTESIAN_POINT('',(-0.045,-0.004,0.023));
#931=CARTESIAN_POINT('',(-0.045,-0.004,0.0165));
#932=CARTESIAN_POINT('',(-0.045,-0.004,0.01));
#933=CARTESIAN_POINT('',(-0.046,-0.004,0.01));
#934=CARTESIAN_POINT('',(-0.046,-0.004,0.009));
#935=CARTESIAN_POINT('',(-0.0565,-0.004,0.009));
#936=CARTESIAN_POINT('',(-0.067,-0.004,0.009));
#937=CARTESIAN_POINT('',(-0.067,-0.004,0.01));
#938=CARTESIAN_POINT('',(-0.0447,-0.004,0.029));
#939=CARTESIAN_POINT('',(-0.0433,-0.004,0.029));
#940=CARTESIAN_POINT('',(0.02,-0.004,0.));
#941=CARTESIAN_POINT('',(0.039,-0.004,0.));
#942=CARTESIAN_POINT('',(-0.072,-0.004,0.));
#943=CARTESIAN_POINT('',(0.039,-0.004,0.001));
#944=CARTESIAN_POINT('',(0.04,-0.004,0.001));
#945=CARTESIAN_POINT('',(0.04,-0.004,0.015));
#946=CARTESIAN_POINT('',(0.04,-0.004,0.014));
#947=CARTESIAN_POINT('',(0.039,-0.004,0.014));
#948=CARTESIAN_POINT('',(0.039,-0.004,0.015));
#949=CARTESIAN_POINT('',(0.02,-0.004,0.015));
#950=CARTESIAN_POINT('',(-0.039,-0.004,0.015));
#951=CARTESIAN_POINT('',(-0.039,-0.004,0.016));
#952=CARTESIAN_POINT('',(-0.04,-0.004,0.016));
#953=CARTESIAN_POINT('',(-0.04,-0.004,0.033));
#954=CARTESIAN_POINT('',(-0.04,-0.004,0.032));
#955=CARTESIAN_POINT('',(-0.041,-0.004,0.032));
#956=CARTESIAN_POINT('',(-0.041,-0.004,0.033));
#957=CARTESIAN_POINT('',(-0.0565,-0.004,0.033));
#958=CARTESIAN_POINT('',(-0.072,-0.004,0.033));
#959=CARTESIAN_POINT('',(-0.072,-0.004,0.032));
#960=CARTESIAN_POINT('',(-0.073,-0.004,0.032));
#961=CARTESIAN_POINT('',(-0.073,-0.004,0.015002));
#962=CARTESIAN_POINT('',(-0.073,-0.004,0.001));
#963=CARTESIAN_POINT('',(-0.072,-0.004,0.001));
#964=CARTESIAN_POINT('',(0.0075,-0.004,0.00753835216164589));
#965=CARTESIAN_POINT('',(0.0099,-0.004,0.00753835216164589));
#966=CARTESIAN_POINT('',(0.0325,-0.004,0.00753835216164589));
#967=CARTESIAN_POINT('',(0.0349,-0.004,0.00753835216164589));
#968=CARTESIAN_POINT('',(-0.0447,-0.004,0.004));
#969=CARTESIAN_POINT('',(-0.0433,-0.004,0.004));
#970=CARTESIAN_POINT('',(-0.0683,-0.004,0.029));
#971=CARTESIAN_POINT('',(-0.0669,-0.004,0.029));
#972=CARTESIAN_POINT('',(-0.02,0.,0.015002));
#973=CARTESIAN_POINT('',(-0.0683,0.,0.004));
#974=CARTESIAN_POINT('',(-0.0683,0.,0.0054));
#975=CARTESIAN_POINT('',(-0.02,0.,0.009));
#976=CARTESIAN_POINT('',(-0.046,0.,0.009));
#977=CARTESIAN_POINT('',(-0.067,0.,0.009));
#978=CARTESIAN_POINT('',(-0.046,0.,0.01));
#979=CARTESIAN_POINT('',(-0.045,0.,0.01));
#980=CARTESIAN_POINT('',(-0.045,0.,0.015002));
#981=CARTESIAN_POINT('',(-0.045,0.,0.023));
#982=CARTESIAN_POINT('',(-0.046,0.,0.023));
#983=CARTESIAN_POINT('',(-0.046,5.03161877832381E-65,0.024));
#984=CARTESIAN_POINT('',(-0.02,0.,0.024));
#985=CARTESIAN_POINT('',(-0.067,9.09561856081612E-65,0.024));
#986=CARTESIAN_POINT('',(-0.067,0.,0.023));
#987=CARTESIAN_POINT('',(-0.068,0.,0.023));
#988=CARTESIAN_POINT('',(-0.068,0.,0.015002));
#989=CARTESIAN_POINT('',(-0.068,0.,0.01));
#990=CARTESIAN_POINT('',(-0.067,0.,0.01));
#991=CARTESIAN_POINT('',(-0.0447,0.,0.029));
#992=CARTESIAN_POINT('',(-0.0447,0.,0.0304));
#993=CARTESIAN_POINT('',(-0.02,0.,0.));
#994=CARTESIAN_POINT('',(-0.072,0.,0.));
#995=CARTESIAN_POINT('',(-0.005,0.,0.));
#996=CARTESIAN_POINT('',(-0.072,0.,0.001));
#997=CARTESIAN_POINT('',(-0.073,0.,0.001));
#998=CARTESIAN_POINT('',(-0.073,0.,0.015002));
#999=CARTESIAN_POINT('',(-0.073,0.,0.032));
#1000=CARTESIAN_POINT('',(-0.072,0.,0.032));
#1001=CARTESIAN_POINT('',(-0.072,0.,0.033));
#1002=CARTESIAN_POINT('',(-0.0565,0.,0.033));
#1003=CARTESIAN_POINT('',(-0.041,0.,0.033));
#1004=CARTESIAN_POINT('',(-0.041,0.,0.032));
#1005=CARTESIAN_POINT('',(-0.04,0.,0.032));
#1006=CARTESIAN_POINT('',(-0.04,0.,0.033));
#1007=CARTESIAN_POINT('',(-0.04,0.,0.016));
#1008=CARTESIAN_POINT('',(-0.039,0.,0.016));
#1009=CARTESIAN_POINT('',(-0.039,0.,0.015));
#1010=CARTESIAN_POINT('',(-0.02,0.,0.015));
#1011=CARTESIAN_POINT('',(-0.005,0.,0.015));
#1012=CARTESIAN_POINT('',(-0.005,0.,0.));
#1013=CARTESIAN_POINT('',(-0.0447,0.,0.004));
#1014=CARTESIAN_POINT('',(-0.0447,0.,0.0054));
#1015=CARTESIAN_POINT('',(-0.0683,0.,0.029));
#1016=CARTESIAN_POINT('',(-0.0683,0.,0.0304));
#1017=CARTESIAN_POINT('',(0.02,0.032,0.015));
#1018=CARTESIAN_POINT('',(0.0325,0.032,0.00753835216164589));
#1019=CARTESIAN_POINT('',(0.0325,0.032,0.00993835216164589));
#1020=CARTESIAN_POINT('',(0.0075,0.032,0.00753835216164589));
#1021=CARTESIAN_POINT('',(0.0075,0.032,0.00993835216164589));
#1022=CARTESIAN_POINT('',(0.04,0.032,0.015));
#1023=CARTESIAN_POINT('',(0.04,0.032,0.014));
#1024=CARTESIAN_POINT('',(0.04,0.032,0.001));
#1025=CARTESIAN_POINT('',(0.039,0.032,0.001));
#1026=CARTESIAN_POINT('',(0.039,0.032,0.));
#1027=CARTESIAN_POINT('',(0.02,0.032,0.));
#1028=CARTESIAN_POINT('',(0.001,0.032,0.));
#1029=CARTESIAN_POINT('',(0.001,0.032,0.001));
#1030=CARTESIAN_POINT('',(0.,0.032,0.001));
#1031=CARTESIAN_POINT('',(0.,0.032,0.015));
#1032=CARTESIAN_POINT('',(0.,0.032,0.014));
#1033=CARTESIAN_POINT('',(0.001,0.032,0.014));
#1034=CARTESIAN_POINT('',(0.001,0.032,0.015));
#1035=CARTESIAN_POINT('',(0.02,0.032,0.015));
#1036=CARTESIAN_POINT('',(0.039,0.032,0.015));
#1037=CARTESIAN_POINT('',(0.039,0.032,0.014));
#1038=CARTESIAN_POINT('',(0.,0.016,0.015));
#1039=CARTESIAN_POINT('',(0.,0.005,0.001));
#1040=CARTESIAN_POINT('',(0.,0.005,0.001));
#1041=CARTESIAN_POINT('',(0.,0.005,0.015));
#1042=CARTESIAN_POINT('',(0.,0.005,0.014));
#1043=CARTESIAN_POINT('',(0.,0.016,0.014));
#1044=CARTESIAN_POINT('',(0.04,0.014,0.015));
#1045=CARTESIAN_POINT('',(0.04,0.032,0.001));
#1046=CARTESIAN_POINT('',(0.04,0.014,0.014));
#1047=CARTESIAN_POINT('',(-0.0165,0.014,0.015));
#1048=CARTESIAN_POINT('',(0.039,0.014,0.015));
#1049=CARTESIAN_POINT('',(0.001,0.014,0.015));
#1050=CARTESIAN_POINT('',(0.001,0.006,0.015));
#1051=CARTESIAN_POINT('',(-0.005,0.,0.015));
#1052=CARTESIAN_POINT('',(-0.039,-0.004,0.015));
#1053=CARTESIAN_POINT('',(-0.0165,0.014,0.));
#1054=CARTESIAN_POINT('',(0.039,-0.004,0.));
#1055=CARTESIAN_POINT('',(-0.072,0.,0.));
#1056=CARTESIAN_POINT('',(-0.00375,0.00125,0.));
#1057=CARTESIAN_POINT('',(0.001,0.006,0.));
#1058=CARTESIAN_POINT('',(0.001,0.032,0.));
#1059=CARTESIAN_POINT('',(-0.073,-0.002,0.015002));
#1060=CARTESIAN_POINT('',(-0.073,-0.004,0.001));
#1061=CARTESIAN_POINT('',(-0.073,-0.002,0.032));
#1062=CARTESIAN_POINT('',(-0.04,-0.002,0.033));
#1063=CARTESIAN_POINT('',(-0.04,0.,0.016));
#1064=CARTESIAN_POINT('',(-0.04,-0.002,0.032));
#1065=CARTESIAN_POINT('',(-0.0165,0.014,0.033));
#1066=CARTESIAN_POINT('',(-0.072,0.014,0.033));
#1067=CARTESIAN_POINT('',(-0.041,0.014,0.033));
#1068=CARTESIAN_POINT('',(-0.0447,0.119111584067793,0.029));
#1069=CARTESIAN_POINT('',(-0.0565,0.119111584067793,0.024));
#1070=CARTESIAN_POINT('',(-0.046,-0.004,0.024));
#1071=CARTESIAN_POINT('',(-0.067,0.119111584067793,0.024));
#1072=CARTESIAN_POINT('',(-0.068,0.119111584067793,0.0165));
#1073=CARTESIAN_POINT('',(-0.068,2.76254713549306E-17,0.01));
#1074=CARTESIAN_POINT('',(-0.068,0.119111584067793,0.023));
#1075=CARTESIAN_POINT('',(-0.0565,0.119111584067793,0.009));
#1076=CARTESIAN_POINT('',(-0.067,-0.004,0.009));
#1077=CARTESIAN_POINT('',(-0.046,0.119111584067793,0.009));
#1078=CARTESIAN_POINT('',(-0.045,0.119111584067793,0.0165));
#1079=CARTESIAN_POINT('',(-0.045,0.119111584067793,0.01));
#1080=CARTESIAN_POINT('',(-0.045,1.30104260698261E-19,0.023));
#1081=CARTESIAN_POINT('',(-0.0447,0.119111584067793,0.004));
#1082=CARTESIAN_POINT('',(-0.0683,0.119111584067793,0.004));
#1083=CARTESIAN_POINT('',(-0.0683,0.119111584067793,0.029));
#1084=CARTESIAN_POINT('',(0.0075,0.119111584067793,0.00753835216164589));
#1085=CARTESIAN_POINT('',(0.0325,0.119111584067793,0.00753835216164589));
#1086=CARTESIAN_POINT('',(-0.005,0.,0.015002));
#1087=CARTESIAN_POINT('',(0.001,0.006,0.014));
#1088=CARTESIAN_POINT('',(0.001,0.006,0.001));
#1089=CARTESIAN_POINT('',(-0.067,0.119111584067793,0.01));
#1090=CARTESIAN_POINT('',(-0.046,0.119111584067793,0.01));
#1091=CARTESIAN_POINT('',(-0.046,0.119111584067793,0.023));
#1092=CARTESIAN_POINT('',(-0.067,0.119111584067793,0.023));
#1093=CARTESIAN_POINT('',(0.039,0.014,0.001));
#1094=CARTESIAN_POINT('',(0.039,0.014,0.014));
#1095=CARTESIAN_POINT('',(0.001,0.014,0.001));
#1096=CARTESIAN_POINT('',(0.001,0.016,0.014));
#1097=CARTESIAN_POINT('',(-0.039,-0.002,0.016));
#1098=CARTESIAN_POINT('',(-0.072,0.014,0.001));
#1099=CARTESIAN_POINT('',(-0.072,-0.002,0.032));
#1100=CARTESIAN_POINT('',(-0.041,-0.002,0.032));
#1101=MECHANICAL_DESIGN_GEOMETRIC_PRESENTATION_REPRESENTATION('',(#646),
#1102);
#1102=(
GEOMETRIC_REPRESENTATION_CONTEXT(3)
GLOBAL_UNCERTAINTY_ASSIGNED_CONTEXT((#1103))
GLOBAL_UNIT_ASSIGNED_CONTEXT((#1106,#1105,#1104))
REPRESENTATION_CONTEXT('Part 1','TOP_LEVEL_ASSEMBLY_PART')
);
#1103=UNCERTAINTY_MEASURE_WITH_UNIT(LENGTH_MEASURE(1.E-8),#1106,
'DISTANCE_ACCURACY_VALUE','Maximum Tolerance applied to model');
#1104=(
NAMED_UNIT(*)
SI_UNIT($,.STERADIAN.)
SOLID_ANGLE_UNIT()
);
#1105=(
NAMED_UNIT(*)
PLANE_ANGLE_UNIT()
SI_UNIT($,.RADIAN.)
);
#1106=(
LENGTH_UNIT()
NAMED_UNIT(*)
SI_UNIT($,.METRE.)
);
#1107=PRODUCT_DEFINITION_SHAPE('','',#1108);
#1108=PRODUCT_DEFINITION('','',#1110,#1109);
#1109=PRODUCT_DEFINITION_CONTEXT('',#1116,'design');
#1110=PRODUCT_DEFINITION_FORMATION_WITH_SPECIFIED_SOURCE('','',#1112,
 .NOT_KNOWN.);
#1111=PRODUCT_RELATED_PRODUCT_CATEGORY('','',(#1112));
#1112=PRODUCT('Part 1','Part 1','Part 1',(#1114));
#1113=PRODUCT_CATEGORY('','');
#1114=PRODUCT_CONTEXT('',#1116,'mechanical');
#1115=APPLICATION_PROTOCOL_DEFINITION('international standard',
'ap242_managed_model_based_3d_engineering',2020,#1116);
#1116=APPLICATION_CONTEXT('managed model based 3d engineering');
ENDSEC;
END-ISO-10303-21;
