ISO-10303-21;
HEADER;
/* Generated by software containing ST-Developer
 * from STEP Tools, Inc. (www.steptools.com) 
 */

FILE_DESCRIPTION(
/* description */ (''),
/* implementation_level */ '2;1');

FILE_NAME(
/* name */ 'camera mount.step',
/* time_stamp */ '2026-06-16T12:18:41+08:00',
/* author */ (''),
/* organization */ (''),
/* preprocessor_version */ 'ST-DEVELOPER v20.1',
/* originating_system */ 'Autodesk Translation Framework v15.8.0.0',
/* authorisation */ '');

FILE_SCHEMA (('AUTOMOTIVE_DESIGN { 1 0 10303 214 3 1 1 }'));
ENDSEC;

DATA;
#10=MECHANICAL_DESIGN_GEOMETRIC_PRESENTATION_REPRESENTATION('',(#13),#1212);
#11=SHAPE_REPRESENTATION_RELATIONSHIP('SRR','None',#1218,#12);
#12=ADVANCED_BREP_SHAPE_REPRESENTATION('',(#14),#1211);
#13=STYLED_ITEM('',(#1227),#14);
#14=MANIFOLD_SOLID_BREP('Body1',#752);
#15=CYLINDRICAL_SURFACE('',#774,3.25);
#16=CYLINDRICAL_SURFACE('',#776,3.25);
#17=CYLINDRICAL_SURFACE('',#786,3.25);
#18=CYLINDRICAL_SURFACE('',#787,3.25);
#19=CYLINDRICAL_SURFACE('',#799,2.5);
#20=CYLINDRICAL_SURFACE('',#801,2.5);
#21=CYLINDRICAL_SURFACE('',#802,9.);
#22=FACE_BOUND('',#98,.T.);
#23=FACE_BOUND('',#100,.T.);
#24=FACE_BOUND('',#108,.T.);
#25=FACE_BOUND('',#110,.T.);
#26=FACE_BOUND('',#115,.T.);
#27=FACE_BOUND('',#119,.T.);
#28=FACE_BOUND('',#120,.T.);
#29=FACE_BOUND('',#125,.T.);
#30=FACE_BOUND('',#126,.T.);
#31=FACE_BOUND('',#129,.T.);
#32=FACE_BOUND('',#132,.T.);
#33=FACE_BOUND('',#135,.T.);
#34=FACE_BOUND('',#140,.T.);
#35=FACE_BOUND('',#142,.T.);
#36=FACE_BOUND('',#144,.T.);
#37=CIRCLE('',#761,3.25);
#38=CIRCLE('',#763,3.25);
#39=CIRCLE('',#771,3.25);
#40=CIRCLE('',#773,3.25);
#41=CIRCLE('',#775,3.25);
#42=CIRCLE('',#777,3.25);
#43=CIRCLE('',#780,2.5);
#44=CIRCLE('',#784,3.25);
#45=CIRCLE('',#785,3.25);
#46=CIRCLE('',#792,2.5);
#47=CIRCLE('',#795,2.5);
#48=CIRCLE('',#798,9.);
#49=CIRCLE('',#800,2.5);
#50=CIRCLE('',#803,9.);
#51=FACE_OUTER_BOUND('',#91,.T.);
#52=FACE_OUTER_BOUND('',#92,.T.);
#53=FACE_OUTER_BOUND('',#93,.T.);
#54=FACE_OUTER_BOUND('',#94,.T.);
#55=FACE_OUTER_BOUND('',#95,.T.);
#56=FACE_OUTER_BOUND('',#96,.T.);
#57=FACE_OUTER_BOUND('',#97,.T.);
#58=FACE_OUTER_BOUND('',#99,.T.);
#59=FACE_OUTER_BOUND('',#101,.T.);
#60=FACE_OUTER_BOUND('',#102,.T.);
#61=FACE_OUTER_BOUND('',#103,.T.);
#62=FACE_OUTER_BOUND('',#104,.T.);
#63=FACE_OUTER_BOUND('',#105,.T.);
#64=FACE_OUTER_BOUND('',#106,.T.);
#65=FACE_OUTER_BOUND('',#107,.T.);
#66=FACE_OUTER_BOUND('',#109,.T.);
#67=FACE_OUTER_BOUND('',#111,.T.);
#68=FACE_OUTER_BOUND('',#112,.T.);
#69=FACE_OUTER_BOUND('',#113,.T.);
#70=FACE_OUTER_BOUND('',#114,.T.);
#71=FACE_OUTER_BOUND('',#116,.T.);
#72=FACE_OUTER_BOUND('',#117,.T.);
#73=FACE_OUTER_BOUND('',#118,.T.);
#74=FACE_OUTER_BOUND('',#121,.T.);
#75=FACE_OUTER_BOUND('',#122,.T.);
#76=FACE_OUTER_BOUND('',#123,.T.);
#77=FACE_OUTER_BOUND('',#124,.T.);
#78=FACE_OUTER_BOUND('',#127,.T.);
#79=FACE_OUTER_BOUND('',#128,.T.);
#80=FACE_OUTER_BOUND('',#130,.T.);
#81=FACE_OUTER_BOUND('',#131,.T.);
#82=FACE_OUTER_BOUND('',#133,.T.);
#83=FACE_OUTER_BOUND('',#134,.T.);
#84=FACE_OUTER_BOUND('',#136,.T.);
#85=FACE_OUTER_BOUND('',#137,.T.);
#86=FACE_OUTER_BOUND('',#138,.T.);
#87=FACE_OUTER_BOUND('',#139,.T.);
#88=FACE_OUTER_BOUND('',#141,.T.);
#89=FACE_OUTER_BOUND('',#143,.T.);
#90=FACE_OUTER_BOUND('',#145,.T.);
#91=EDGE_LOOP('',(#481,#482,#483,#484));
#92=EDGE_LOOP('',(#485,#486,#487,#488));
#93=EDGE_LOOP('',(#489,#490,#491,#492));
#94=EDGE_LOOP('',(#493,#494,#495,#496));
#95=EDGE_LOOP('',(#497,#498,#499,#500));
#96=EDGE_LOOP('',(#501,#502,#503,#504));
#97=EDGE_LOOP('',(#505,#506,#507,#508,#509,#510));
#98=EDGE_LOOP('',(#511));
#99=EDGE_LOOP('',(#512,#513,#514,#515,#516,#517));
#100=EDGE_LOOP('',(#518));
#101=EDGE_LOOP('',(#519,#520,#521,#522));
#102=EDGE_LOOP('',(#523,#524,#525,#526));
#103=EDGE_LOOP('',(#527,#528,#529,#530));
#104=EDGE_LOOP('',(#531,#532,#533,#534));
#105=EDGE_LOOP('',(#535,#536,#537,#538));
#106=EDGE_LOOP('',(#539,#540,#541,#542));
#107=EDGE_LOOP('',(#543,#544,#545,#546,#547,#548));
#108=EDGE_LOOP('',(#549));
#109=EDGE_LOOP('',(#550,#551,#552,#553,#554,#555));
#110=EDGE_LOOP('',(#556));
#111=EDGE_LOOP('',(#557,#558,#559,#560));
#112=EDGE_LOOP('',(#561,#562,#563,#564));
#113=EDGE_LOOP('',(#565,#566,#567,#568,#569,#570));
#114=EDGE_LOOP('',(#571,#572,#573,#574,#575,#576,#577,#578));
#115=EDGE_LOOP('',(#579));
#116=EDGE_LOOP('',(#580,#581,#582,#583,#584,#585,#586,#587,#588,#589));
#117=EDGE_LOOP('',(#590,#591,#592,#593));
#118=EDGE_LOOP('',(#594,#595,#596,#597));
#119=EDGE_LOOP('',(#598));
#120=EDGE_LOOP('',(#599));
#121=EDGE_LOOP('',(#600,#601,#602,#603));
#122=EDGE_LOOP('',(#604,#605,#606,#607));
#123=EDGE_LOOP('',(#608,#609,#610,#611));
#124=EDGE_LOOP('',(#612,#613,#614,#615));
#125=EDGE_LOOP('',(#616));
#126=EDGE_LOOP('',(#617));
#127=EDGE_LOOP('',(#618,#619,#620,#621));
#128=EDGE_LOOP('',(#622,#623,#624,#625));
#129=EDGE_LOOP('',(#626));
#130=EDGE_LOOP('',(#627,#628,#629,#630));
#131=EDGE_LOOP('',(#631,#632,#633,#634));
#132=EDGE_LOOP('',(#635));
#133=EDGE_LOOP('',(#636,#637,#638,#639));
#134=EDGE_LOOP('',(#640,#641,#642,#643));
#135=EDGE_LOOP('',(#644));
#136=EDGE_LOOP('',(#645,#646,#647,#648));
#137=EDGE_LOOP('',(#649,#650,#651,#652));
#138=EDGE_LOOP('',(#653,#654,#655,#656));
#139=EDGE_LOOP('',(#657,#658,#659,#660));
#140=EDGE_LOOP('',(#661));
#141=EDGE_LOOP('',(#662,#663,#664,#665));
#142=EDGE_LOOP('',(#666));
#143=EDGE_LOOP('',(#667,#668,#669,#670));
#144=EDGE_LOOP('',(#671,#672,#673,#674));
#145=EDGE_LOOP('',(#675,#676,#677,#678));
#146=LINE('',#1007,#231);
#147=LINE('',#1009,#232);
#148=LINE('',#1011,#233);
#149=LINE('',#1012,#234);
#150=LINE('',#1015,#235);
#151=LINE('',#1017,#236);
#152=LINE('',#1018,#237);
#153=LINE('',#1021,#238);
#154=LINE('',#1023,#239);
#155=LINE('',#1024,#240);
#156=LINE('',#1027,#241);
#157=LINE('',#1029,#242);
#158=LINE('',#1030,#243);
#159=LINE('',#1033,#244);
#160=LINE('',#1035,#245);
#161=LINE('',#1036,#246);
#162=LINE('',#1038,#247);
#163=LINE('',#1039,#248);
#164=LINE('',#1049,#249);
#165=LINE('',#1051,#250);
#166=LINE('',#1053,#251);
#167=LINE('',#1054,#252);
#168=LINE('',#1057,#253);
#169=LINE('',#1059,#254);
#170=LINE('',#1060,#255);
#171=LINE('',#1063,#256);
#172=LINE('',#1065,#257);
#173=LINE('',#1066,#258);
#174=LINE('',#1069,#259);
#175=LINE('',#1071,#260);
#176=LINE('',#1072,#261);
#177=LINE('',#1075,#262);
#178=LINE('',#1077,#263);
#179=LINE('',#1078,#264);
#180=LINE('',#1080,#265);
#181=LINE('',#1081,#266);
#182=LINE('',#1091,#267);
#183=LINE('',#1095,#268);
#184=LINE('',#1099,#269);
#185=LINE('',#1101,#270);
#186=LINE('',#1103,#271);
#187=LINE('',#1105,#272);
#188=LINE('',#1107,#273);
#189=LINE('',#1108,#274);
#190=LINE('',#1111,#275);
#191=LINE('',#1113,#276);
#192=LINE('',#1115,#277);
#193=LINE('',#1117,#278);
#194=LINE('',#1119,#279);
#195=LINE('',#1121,#280);
#196=LINE('',#1122,#281);
#197=LINE('',#1127,#282);
#198=LINE('',#1129,#283);
#199=LINE('',#1130,#284);
#200=LINE('',#1132,#285);
#201=LINE('',#1134,#286);
#202=LINE('',#1136,#287);
#203=LINE('',#1138,#288);
#204=LINE('',#1139,#289);
#205=LINE('',#1141,#290);
#206=LINE('',#1142,#291);
#207=LINE('',#1144,#292);
#208=LINE('',#1150,#293);
#209=LINE('',#1152,#294);
#210=LINE('',#1155,#295);
#211=LINE('',#1160,#296);
#212=LINE('',#1162,#297);
#213=LINE('',#1164,#298);
#214=LINE('',#1165,#299);
#215=LINE('',#1170,#300);
#216=LINE('',#1172,#301);
#217=LINE('',#1173,#302);
#218=LINE('',#1176,#303);
#219=LINE('',#1178,#304);
#220=LINE('',#1179,#305);
#221=LINE('',#1183,#306);
#222=LINE('',#1184,#307);
#223=LINE('',#1191,#308);
#224=LINE('',#1193,#309);
#225=LINE('',#1197,#310);
#226=LINE('',#1200,#311);
#227=LINE('',#1201,#312);
#228=LINE('',#1204,#313);
#229=LINE('',#1205,#314);
#230=LINE('',#1207,#315);
#231=VECTOR('',#812,10.);
#232=VECTOR('',#813,10.);
#233=VECTOR('',#814,10.);
#234=VECTOR('',#815,10.);
#235=VECTOR('',#818,10.);
#236=VECTOR('',#819,10.);
#237=VECTOR('',#820,10.);
#238=VECTOR('',#823,10.);
#239=VECTOR('',#824,10.);
#240=VECTOR('',#825,10.);
#241=VECTOR('',#828,10.);
#242=VECTOR('',#829,10.);
#243=VECTOR('',#830,10.);
#244=VECTOR('',#833,10.);
#245=VECTOR('',#834,10.);
#246=VECTOR('',#835,10.);
#247=VECTOR('',#838,10.);
#248=VECTOR('',#839,10.);
#249=VECTOR('',#850,10.);
#250=VECTOR('',#851,10.);
#251=VECTOR('',#852,10.);
#252=VECTOR('',#853,10.);
#253=VECTOR('',#856,10.);
#254=VECTOR('',#857,10.);
#255=VECTOR('',#858,10.);
#256=VECTOR('',#861,10.);
#257=VECTOR('',#862,10.);
#258=VECTOR('',#863,10.);
#259=VECTOR('',#866,10.);
#260=VECTOR('',#867,10.);
#261=VECTOR('',#868,10.);
#262=VECTOR('',#871,10.);
#263=VECTOR('',#872,10.);
#264=VECTOR('',#873,10.);
#265=VECTOR('',#876,10.);
#266=VECTOR('',#877,10.);
#267=VECTOR('',#890,3.25);
#268=VECTOR('',#895,3.25);
#269=VECTOR('',#898,10.);
#270=VECTOR('',#899,10.);
#271=VECTOR('',#900,10.);
#272=VECTOR('',#901,10.);
#273=VECTOR('',#902,10.);
#274=VECTOR('',#903,10.);
#275=VECTOR('',#906,10.);
#276=VECTOR('',#907,10.);
#277=VECTOR('',#908,10.);
#278=VECTOR('',#909,10.);
#279=VECTOR('',#910,10.);
#280=VECTOR('',#911,10.);
#281=VECTOR('',#912,10.);
#282=VECTOR('',#917,10.);
#283=VECTOR('',#918,10.);
#284=VECTOR('',#919,10.);
#285=VECTOR('',#920,10.);
#286=VECTOR('',#921,10.);
#287=VECTOR('',#922,10.);
#288=VECTOR('',#923,10.);
#289=VECTOR('',#924,10.);
#290=VECTOR('',#927,10.);
#291=VECTOR('',#928,10.);
#292=VECTOR('',#931,10.);
#293=VECTOR('',#938,3.25);
#294=VECTOR('',#941,3.25);
#295=VECTOR('',#946,10.);
#296=VECTOR('',#951,10.);
#297=VECTOR('',#952,10.);
#298=VECTOR('',#953,10.);
#299=VECTOR('',#954,10.);
#300=VECTOR('',#959,10.);
#301=VECTOR('',#960,10.);
#302=VECTOR('',#961,10.);
#303=VECTOR('',#964,10.);
#304=VECTOR('',#965,10.);
#305=VECTOR('',#966,10.);
#306=VECTOR('',#971,10.);
#307=VECTOR('',#972,10.);
#308=VECTOR('',#981,2.5);
#309=VECTOR('',#984,2.5);
#310=VECTOR('',#989,9.);
#311=VECTOR('',#992,10.);
#312=VECTOR('',#993,10.);
#313=VECTOR('',#996,10.);
#314=VECTOR('',#997,10.);
#315=VECTOR('',#1000,10.);
#316=VERTEX_POINT('',#1005);
#317=VERTEX_POINT('',#1006);
#318=VERTEX_POINT('',#1008);
#319=VERTEX_POINT('',#1010);
#320=VERTEX_POINT('',#1014);
#321=VERTEX_POINT('',#1016);
#322=VERTEX_POINT('',#1020);
#323=VERTEX_POINT('',#1022);
#324=VERTEX_POINT('',#1026);
#325=VERTEX_POINT('',#1028);
#326=VERTEX_POINT('',#1032);
#327=VERTEX_POINT('',#1034);
#328=VERTEX_POINT('',#1041);
#329=VERTEX_POINT('',#1044);
#330=VERTEX_POINT('',#1047);
#331=VERTEX_POINT('',#1048);
#332=VERTEX_POINT('',#1050);
#333=VERTEX_POINT('',#1052);
#334=VERTEX_POINT('',#1056);
#335=VERTEX_POINT('',#1058);
#336=VERTEX_POINT('',#1062);
#337=VERTEX_POINT('',#1064);
#338=VERTEX_POINT('',#1068);
#339=VERTEX_POINT('',#1070);
#340=VERTEX_POINT('',#1074);
#341=VERTEX_POINT('',#1076);
#342=VERTEX_POINT('',#1083);
#343=VERTEX_POINT('',#1086);
#344=VERTEX_POINT('',#1089);
#345=VERTEX_POINT('',#1093);
#346=VERTEX_POINT('',#1097);
#347=VERTEX_POINT('',#1098);
#348=VERTEX_POINT('',#1100);
#349=VERTEX_POINT('',#1102);
#350=VERTEX_POINT('',#1104);
#351=VERTEX_POINT('',#1106);
#352=VERTEX_POINT('',#1110);
#353=VERTEX_POINT('',#1112);
#354=VERTEX_POINT('',#1114);
#355=VERTEX_POINT('',#1116);
#356=VERTEX_POINT('',#1118);
#357=VERTEX_POINT('',#1120);
#358=VERTEX_POINT('',#1123);
#359=VERTEX_POINT('',#1126);
#360=VERTEX_POINT('',#1128);
#361=VERTEX_POINT('',#1131);
#362=VERTEX_POINT('',#1133);
#363=VERTEX_POINT('',#1135);
#364=VERTEX_POINT('',#1137);
#365=VERTEX_POINT('',#1145);
#366=VERTEX_POINT('',#1147);
#367=VERTEX_POINT('',#1158);
#368=VERTEX_POINT('',#1159);
#369=VERTEX_POINT('',#1161);
#370=VERTEX_POINT('',#1163);
#371=VERTEX_POINT('',#1166);
#372=VERTEX_POINT('',#1169);
#373=VERTEX_POINT('',#1171);
#374=VERTEX_POINT('',#1175);
#375=VERTEX_POINT('',#1177);
#376=VERTEX_POINT('',#1180);
#377=VERTEX_POINT('',#1186);
#378=VERTEX_POINT('',#1189);
#379=VERTEX_POINT('',#1195);
#380=VERTEX_POINT('',#1199);
#381=VERTEX_POINT('',#1203);
#382=EDGE_CURVE('',#316,#317,#146,.T.);
#383=EDGE_CURVE('',#317,#318,#147,.T.);
#384=EDGE_CURVE('',#318,#319,#148,.T.);
#385=EDGE_CURVE('',#316,#319,#149,.T.);
#386=EDGE_CURVE('',#317,#320,#150,.T.);
#387=EDGE_CURVE('',#320,#321,#151,.T.);
#388=EDGE_CURVE('',#321,#318,#152,.T.);
#389=EDGE_CURVE('',#320,#322,#153,.T.);
#390=EDGE_CURVE('',#322,#323,#154,.T.);
#391=EDGE_CURVE('',#323,#321,#155,.T.);
#392=EDGE_CURVE('',#322,#324,#156,.T.);
#393=EDGE_CURVE('',#324,#325,#157,.T.);
#394=EDGE_CURVE('',#325,#323,#158,.T.);
#395=EDGE_CURVE('',#324,#326,#159,.T.);
#396=EDGE_CURVE('',#326,#327,#160,.T.);
#397=EDGE_CURVE('',#327,#325,#161,.T.);
#398=EDGE_CURVE('',#326,#316,#162,.T.);
#399=EDGE_CURVE('',#319,#327,#163,.T.);
#400=EDGE_CURVE('',#328,#328,#37,.T.);
#401=EDGE_CURVE('',#329,#329,#38,.T.);
#402=EDGE_CURVE('',#330,#331,#164,.T.);
#403=EDGE_CURVE('',#331,#332,#165,.T.);
#404=EDGE_CURVE('',#332,#333,#166,.T.);
#405=EDGE_CURVE('',#330,#333,#167,.T.);
#406=EDGE_CURVE('',#331,#334,#168,.T.);
#407=EDGE_CURVE('',#334,#335,#169,.T.);
#408=EDGE_CURVE('',#335,#332,#170,.T.);
#409=EDGE_CURVE('',#334,#336,#171,.T.);
#410=EDGE_CURVE('',#336,#337,#172,.T.);
#411=EDGE_CURVE('',#337,#335,#173,.T.);
#412=EDGE_CURVE('',#336,#338,#174,.T.);
#413=EDGE_CURVE('',#338,#339,#175,.T.);
#414=EDGE_CURVE('',#339,#337,#176,.T.);
#415=EDGE_CURVE('',#338,#340,#177,.T.);
#416=EDGE_CURVE('',#340,#341,#178,.T.);
#417=EDGE_CURVE('',#341,#339,#179,.T.);
#418=EDGE_CURVE('',#340,#330,#180,.T.);
#419=EDGE_CURVE('',#333,#341,#181,.T.);
#420=EDGE_CURVE('',#342,#342,#39,.T.);
#421=EDGE_CURVE('',#343,#343,#40,.T.);
#422=EDGE_CURVE('',#344,#344,#41,.T.);
#423=EDGE_CURVE('',#344,#329,#182,.T.);
#424=EDGE_CURVE('',#345,#345,#42,.T.);
#425=EDGE_CURVE('',#345,#343,#183,.T.);
#426=EDGE_CURVE('',#346,#347,#184,.T.);
#427=EDGE_CURVE('',#346,#348,#185,.T.);
#428=EDGE_CURVE('',#348,#349,#186,.T.);
#429=EDGE_CURVE('',#349,#350,#187,.T.);
#430=EDGE_CURVE('',#350,#351,#188,.T.);
#431=EDGE_CURVE('',#351,#347,#189,.T.);
#432=EDGE_CURVE('',#352,#346,#190,.T.);
#433=EDGE_CURVE('',#347,#353,#191,.T.);
#434=EDGE_CURVE('',#354,#353,#192,.T.);
#435=EDGE_CURVE('',#354,#355,#193,.T.);
#436=EDGE_CURVE('',#356,#355,#194,.T.);
#437=EDGE_CURVE('',#356,#357,#195,.T.);
#438=EDGE_CURVE('',#352,#357,#196,.T.);
#439=EDGE_CURVE('',#358,#358,#43,.T.);
#440=EDGE_CURVE('',#357,#359,#197,.T.);
#441=EDGE_CURVE('',#359,#360,#198,.T.);
#442=EDGE_CURVE('',#360,#354,#199,.T.);
#443=EDGE_CURVE('',#353,#361,#200,.T.);
#444=EDGE_CURVE('',#361,#362,#201,.T.);
#445=EDGE_CURVE('',#362,#363,#202,.T.);
#446=EDGE_CURVE('',#363,#364,#203,.T.);
#447=EDGE_CURVE('',#364,#352,#204,.T.);
#448=EDGE_CURVE('',#351,#361,#205,.T.);
#449=EDGE_CURVE('',#350,#362,#206,.T.);
#450=EDGE_CURVE('',#363,#349,#207,.T.);
#451=EDGE_CURVE('',#365,#365,#44,.T.);
#452=EDGE_CURVE('',#366,#366,#45,.T.);
#453=EDGE_CURVE('',#342,#365,#208,.T.);
#454=EDGE_CURVE('',#328,#366,#209,.T.);
#455=EDGE_CURVE('',#364,#348,#210,.T.);
#456=EDGE_CURVE('',#367,#368,#211,.T.);
#457=EDGE_CURVE('',#367,#369,#212,.T.);
#458=EDGE_CURVE('',#369,#370,#213,.T.);
#459=EDGE_CURVE('',#368,#370,#214,.T.);
#460=EDGE_CURVE('',#371,#371,#46,.T.);
#461=EDGE_CURVE('',#372,#367,#215,.T.);
#462=EDGE_CURVE('',#372,#373,#216,.T.);
#463=EDGE_CURVE('',#373,#369,#217,.T.);
#464=EDGE_CURVE('',#374,#372,#218,.T.);
#465=EDGE_CURVE('',#374,#375,#219,.T.);
#466=EDGE_CURVE('',#375,#373,#220,.T.);
#467=EDGE_CURVE('',#376,#376,#47,.T.);
#468=EDGE_CURVE('',#368,#374,#221,.T.);
#469=EDGE_CURVE('',#370,#375,#222,.T.);
#470=EDGE_CURVE('',#377,#377,#48,.T.);
#471=EDGE_CURVE('',#378,#378,#49,.T.);
#472=EDGE_CURVE('',#378,#376,#223,.T.);
#473=EDGE_CURVE('',#371,#358,#224,.T.);
#474=EDGE_CURVE('',#379,#379,#50,.T.);
#475=EDGE_CURVE('',#379,#377,#225,.T.);
#476=EDGE_CURVE('',#380,#356,#226,.T.);
#477=EDGE_CURVE('',#359,#380,#227,.T.);
#478=EDGE_CURVE('',#381,#380,#228,.T.);
#479=EDGE_CURVE('',#360,#381,#229,.T.);
#480=EDGE_CURVE('',#355,#381,#230,.T.);
#481=ORIENTED_EDGE('',*,*,#382,.T.);
#482=ORIENTED_EDGE('',*,*,#383,.T.);
#483=ORIENTED_EDGE('',*,*,#384,.T.);
#484=ORIENTED_EDGE('',*,*,#385,.F.);
#485=ORIENTED_EDGE('',*,*,#386,.T.);
#486=ORIENTED_EDGE('',*,*,#387,.T.);
#487=ORIENTED_EDGE('',*,*,#388,.T.);
#488=ORIENTED_EDGE('',*,*,#383,.F.);
#489=ORIENTED_EDGE('',*,*,#389,.T.);
#490=ORIENTED_EDGE('',*,*,#390,.T.);
#491=ORIENTED_EDGE('',*,*,#391,.T.);
#492=ORIENTED_EDGE('',*,*,#387,.F.);
#493=ORIENTED_EDGE('',*,*,#392,.T.);
#494=ORIENTED_EDGE('',*,*,#393,.T.);
#495=ORIENTED_EDGE('',*,*,#394,.T.);
#496=ORIENTED_EDGE('',*,*,#390,.F.);
#497=ORIENTED_EDGE('',*,*,#395,.T.);
#498=ORIENTED_EDGE('',*,*,#396,.T.);
#499=ORIENTED_EDGE('',*,*,#397,.T.);
#500=ORIENTED_EDGE('',*,*,#393,.F.);
#501=ORIENTED_EDGE('',*,*,#398,.T.);
#502=ORIENTED_EDGE('',*,*,#385,.T.);
#503=ORIENTED_EDGE('',*,*,#399,.T.);
#504=ORIENTED_EDGE('',*,*,#396,.F.);
#505=ORIENTED_EDGE('',*,*,#398,.F.);
#506=ORIENTED_EDGE('',*,*,#395,.F.);
#507=ORIENTED_EDGE('',*,*,#392,.F.);
#508=ORIENTED_EDGE('',*,*,#389,.F.);
#509=ORIENTED_EDGE('',*,*,#386,.F.);
#510=ORIENTED_EDGE('',*,*,#382,.F.);
#511=ORIENTED_EDGE('',*,*,#400,.F.);
#512=ORIENTED_EDGE('',*,*,#399,.F.);
#513=ORIENTED_EDGE('',*,*,#384,.F.);
#514=ORIENTED_EDGE('',*,*,#388,.F.);
#515=ORIENTED_EDGE('',*,*,#391,.F.);
#516=ORIENTED_EDGE('',*,*,#394,.F.);
#517=ORIENTED_EDGE('',*,*,#397,.F.);
#518=ORIENTED_EDGE('',*,*,#401,.F.);
#519=ORIENTED_EDGE('',*,*,#402,.T.);
#520=ORIENTED_EDGE('',*,*,#403,.T.);
#521=ORIENTED_EDGE('',*,*,#404,.T.);
#522=ORIENTED_EDGE('',*,*,#405,.F.);
#523=ORIENTED_EDGE('',*,*,#406,.T.);
#524=ORIENTED_EDGE('',*,*,#407,.T.);
#525=ORIENTED_EDGE('',*,*,#408,.T.);
#526=ORIENTED_EDGE('',*,*,#403,.F.);
#527=ORIENTED_EDGE('',*,*,#409,.T.);
#528=ORIENTED_EDGE('',*,*,#410,.T.);
#529=ORIENTED_EDGE('',*,*,#411,.T.);
#530=ORIENTED_EDGE('',*,*,#407,.F.);
#531=ORIENTED_EDGE('',*,*,#412,.T.);
#532=ORIENTED_EDGE('',*,*,#413,.T.);
#533=ORIENTED_EDGE('',*,*,#414,.T.);
#534=ORIENTED_EDGE('',*,*,#410,.F.);
#535=ORIENTED_EDGE('',*,*,#415,.T.);
#536=ORIENTED_EDGE('',*,*,#416,.T.);
#537=ORIENTED_EDGE('',*,*,#417,.T.);
#538=ORIENTED_EDGE('',*,*,#413,.F.);
#539=ORIENTED_EDGE('',*,*,#418,.T.);
#540=ORIENTED_EDGE('',*,*,#405,.T.);
#541=ORIENTED_EDGE('',*,*,#419,.T.);
#542=ORIENTED_EDGE('',*,*,#416,.F.);
#543=ORIENTED_EDGE('',*,*,#418,.F.);
#544=ORIENTED_EDGE('',*,*,#415,.F.);
#545=ORIENTED_EDGE('',*,*,#412,.F.);
#546=ORIENTED_EDGE('',*,*,#409,.F.);
#547=ORIENTED_EDGE('',*,*,#406,.F.);
#548=ORIENTED_EDGE('',*,*,#402,.F.);
#549=ORIENTED_EDGE('',*,*,#420,.F.);
#550=ORIENTED_EDGE('',*,*,#419,.F.);
#551=ORIENTED_EDGE('',*,*,#404,.F.);
#552=ORIENTED_EDGE('',*,*,#408,.F.);
#553=ORIENTED_EDGE('',*,*,#411,.F.);
#554=ORIENTED_EDGE('',*,*,#414,.F.);
#555=ORIENTED_EDGE('',*,*,#417,.F.);
#556=ORIENTED_EDGE('',*,*,#421,.F.);
#557=ORIENTED_EDGE('',*,*,#422,.F.);
#558=ORIENTED_EDGE('',*,*,#423,.T.);
#559=ORIENTED_EDGE('',*,*,#401,.T.);
#560=ORIENTED_EDGE('',*,*,#423,.F.);
#561=ORIENTED_EDGE('',*,*,#424,.F.);
#562=ORIENTED_EDGE('',*,*,#425,.T.);
#563=ORIENTED_EDGE('',*,*,#421,.T.);
#564=ORIENTED_EDGE('',*,*,#425,.F.);
#565=ORIENTED_EDGE('',*,*,#426,.F.);
#566=ORIENTED_EDGE('',*,*,#427,.T.);
#567=ORIENTED_EDGE('',*,*,#428,.T.);
#568=ORIENTED_EDGE('',*,*,#429,.T.);
#569=ORIENTED_EDGE('',*,*,#430,.T.);
#570=ORIENTED_EDGE('',*,*,#431,.T.);
#571=ORIENTED_EDGE('',*,*,#432,.T.);
#572=ORIENTED_EDGE('',*,*,#426,.T.);
#573=ORIENTED_EDGE('',*,*,#433,.T.);
#574=ORIENTED_EDGE('',*,*,#434,.F.);
#575=ORIENTED_EDGE('',*,*,#435,.T.);
#576=ORIENTED_EDGE('',*,*,#436,.F.);
#577=ORIENTED_EDGE('',*,*,#437,.T.);
#578=ORIENTED_EDGE('',*,*,#438,.F.);
#579=ORIENTED_EDGE('',*,*,#439,.T.);
#580=ORIENTED_EDGE('',*,*,#438,.T.);
#581=ORIENTED_EDGE('',*,*,#440,.T.);
#582=ORIENTED_EDGE('',*,*,#441,.T.);
#583=ORIENTED_EDGE('',*,*,#442,.T.);
#584=ORIENTED_EDGE('',*,*,#434,.T.);
#585=ORIENTED_EDGE('',*,*,#443,.T.);
#586=ORIENTED_EDGE('',*,*,#444,.T.);
#587=ORIENTED_EDGE('',*,*,#445,.T.);
#588=ORIENTED_EDGE('',*,*,#446,.T.);
#589=ORIENTED_EDGE('',*,*,#447,.T.);
#590=ORIENTED_EDGE('',*,*,#448,.F.);
#591=ORIENTED_EDGE('',*,*,#430,.F.);
#592=ORIENTED_EDGE('',*,*,#449,.T.);
#593=ORIENTED_EDGE('',*,*,#444,.F.);
#594=ORIENTED_EDGE('',*,*,#450,.F.);
#595=ORIENTED_EDGE('',*,*,#445,.F.);
#596=ORIENTED_EDGE('',*,*,#449,.F.);
#597=ORIENTED_EDGE('',*,*,#429,.F.);
#598=ORIENTED_EDGE('',*,*,#451,.T.);
#599=ORIENTED_EDGE('',*,*,#452,.T.);
#600=ORIENTED_EDGE('',*,*,#420,.T.);
#601=ORIENTED_EDGE('',*,*,#453,.T.);
#602=ORIENTED_EDGE('',*,*,#451,.F.);
#603=ORIENTED_EDGE('',*,*,#453,.F.);
#604=ORIENTED_EDGE('',*,*,#400,.T.);
#605=ORIENTED_EDGE('',*,*,#454,.T.);
#606=ORIENTED_EDGE('',*,*,#452,.F.);
#607=ORIENTED_EDGE('',*,*,#454,.F.);
#608=ORIENTED_EDGE('',*,*,#448,.T.);
#609=ORIENTED_EDGE('',*,*,#443,.F.);
#610=ORIENTED_EDGE('',*,*,#433,.F.);
#611=ORIENTED_EDGE('',*,*,#431,.F.);
#612=ORIENTED_EDGE('',*,*,#432,.F.);
#613=ORIENTED_EDGE('',*,*,#447,.F.);
#614=ORIENTED_EDGE('',*,*,#455,.T.);
#615=ORIENTED_EDGE('',*,*,#427,.F.);
#616=ORIENTED_EDGE('',*,*,#424,.T.);
#617=ORIENTED_EDGE('',*,*,#422,.T.);
#618=ORIENTED_EDGE('',*,*,#455,.F.);
#619=ORIENTED_EDGE('',*,*,#446,.F.);
#620=ORIENTED_EDGE('',*,*,#450,.T.);
#621=ORIENTED_EDGE('',*,*,#428,.F.);
#622=ORIENTED_EDGE('',*,*,#456,.F.);
#623=ORIENTED_EDGE('',*,*,#457,.T.);
#624=ORIENTED_EDGE('',*,*,#458,.T.);
#625=ORIENTED_EDGE('',*,*,#459,.F.);
#626=ORIENTED_EDGE('',*,*,#460,.F.);
#627=ORIENTED_EDGE('',*,*,#461,.F.);
#628=ORIENTED_EDGE('',*,*,#462,.T.);
#629=ORIENTED_EDGE('',*,*,#463,.T.);
#630=ORIENTED_EDGE('',*,*,#457,.F.);
#631=ORIENTED_EDGE('',*,*,#464,.F.);
#632=ORIENTED_EDGE('',*,*,#465,.T.);
#633=ORIENTED_EDGE('',*,*,#466,.T.);
#634=ORIENTED_EDGE('',*,*,#462,.F.);
#635=ORIENTED_EDGE('',*,*,#467,.F.);
#636=ORIENTED_EDGE('',*,*,#468,.F.);
#637=ORIENTED_EDGE('',*,*,#459,.T.);
#638=ORIENTED_EDGE('',*,*,#469,.T.);
#639=ORIENTED_EDGE('',*,*,#465,.F.);
#640=ORIENTED_EDGE('',*,*,#469,.F.);
#641=ORIENTED_EDGE('',*,*,#458,.F.);
#642=ORIENTED_EDGE('',*,*,#463,.F.);
#643=ORIENTED_EDGE('',*,*,#466,.F.);
#644=ORIENTED_EDGE('',*,*,#470,.F.);
#645=ORIENTED_EDGE('',*,*,#471,.F.);
#646=ORIENTED_EDGE('',*,*,#472,.T.);
#647=ORIENTED_EDGE('',*,*,#467,.T.);
#648=ORIENTED_EDGE('',*,*,#472,.F.);
#649=ORIENTED_EDGE('',*,*,#460,.T.);
#650=ORIENTED_EDGE('',*,*,#473,.T.);
#651=ORIENTED_EDGE('',*,*,#439,.F.);
#652=ORIENTED_EDGE('',*,*,#473,.F.);
#653=ORIENTED_EDGE('',*,*,#474,.F.);
#654=ORIENTED_EDGE('',*,*,#475,.T.);
#655=ORIENTED_EDGE('',*,*,#470,.T.);
#656=ORIENTED_EDGE('',*,*,#475,.F.);
#657=ORIENTED_EDGE('',*,*,#437,.F.);
#658=ORIENTED_EDGE('',*,*,#476,.F.);
#659=ORIENTED_EDGE('',*,*,#477,.F.);
#660=ORIENTED_EDGE('',*,*,#440,.F.);
#661=ORIENTED_EDGE('',*,*,#474,.T.);
#662=ORIENTED_EDGE('',*,*,#477,.T.);
#663=ORIENTED_EDGE('',*,*,#478,.F.);
#664=ORIENTED_EDGE('',*,*,#479,.F.);
#665=ORIENTED_EDGE('',*,*,#441,.F.);
#666=ORIENTED_EDGE('',*,*,#471,.T.);
#667=ORIENTED_EDGE('',*,*,#479,.T.);
#668=ORIENTED_EDGE('',*,*,#480,.F.);
#669=ORIENTED_EDGE('',*,*,#435,.F.);
#670=ORIENTED_EDGE('',*,*,#442,.F.);
#671=ORIENTED_EDGE('',*,*,#456,.T.);
#672=ORIENTED_EDGE('',*,*,#468,.T.);
#673=ORIENTED_EDGE('',*,*,#464,.T.);
#674=ORIENTED_EDGE('',*,*,#461,.T.);
#675=ORIENTED_EDGE('',*,*,#436,.T.);
#676=ORIENTED_EDGE('',*,*,#480,.T.);
#677=ORIENTED_EDGE('',*,*,#478,.T.);
#678=ORIENTED_EDGE('',*,*,#476,.T.);
#679=PLANE('',#754);
#680=PLANE('',#755);
#681=PLANE('',#756);
#682=PLANE('',#757);
#683=PLANE('',#758);
#684=PLANE('',#759);
#685=PLANE('',#760);
#686=PLANE('',#762);
#687=PLANE('',#764);
#688=PLANE('',#765);
#689=PLANE('',#766);
#690=PLANE('',#767);
#691=PLANE('',#768);
#692=PLANE('',#769);
#693=PLANE('',#770);
#694=PLANE('',#772);
#695=PLANE('',#778);
#696=PLANE('',#779);
#697=PLANE('',#781);
#698=PLANE('',#782);
#699=PLANE('',#783);
#700=PLANE('',#788);
#701=PLANE('',#789);
#702=PLANE('',#790);
#703=PLANE('',#791);
#704=PLANE('',#793);
#705=PLANE('',#794);
#706=PLANE('',#796);
#707=PLANE('',#797);
#708=PLANE('',#804);
#709=PLANE('',#805);
#710=PLANE('',#806);
#711=PLANE('',#807);
#712=ADVANCED_FACE('',(#51),#679,.F.);
#713=ADVANCED_FACE('',(#52),#680,.F.);
#714=ADVANCED_FACE('',(#53),#681,.F.);
#715=ADVANCED_FACE('',(#54),#682,.F.);
#716=ADVANCED_FACE('',(#55),#683,.F.);
#717=ADVANCED_FACE('',(#56),#684,.F.);
#718=ADVANCED_FACE('',(#57,#22),#685,.F.);
#719=ADVANCED_FACE('',(#58,#23),#686,.T.);
#720=ADVANCED_FACE('',(#59),#687,.F.);
#721=ADVANCED_FACE('',(#60),#688,.F.);
#722=ADVANCED_FACE('',(#61),#689,.F.);
#723=ADVANCED_FACE('',(#62),#690,.F.);
#724=ADVANCED_FACE('',(#63),#691,.F.);
#725=ADVANCED_FACE('',(#64),#692,.F.);
#726=ADVANCED_FACE('',(#65,#24),#693,.F.);
#727=ADVANCED_FACE('',(#66,#25),#694,.T.);
#728=ADVANCED_FACE('',(#67),#15,.F.);
#729=ADVANCED_FACE('',(#68),#16,.F.);
#730=ADVANCED_FACE('',(#69),#695,.T.);
#731=ADVANCED_FACE('',(#70,#26),#696,.T.);
#732=ADVANCED_FACE('',(#71),#697,.T.);
#733=ADVANCED_FACE('',(#72),#698,.T.);
#734=ADVANCED_FACE('',(#73,#27,#28),#699,.T.);
#735=ADVANCED_FACE('',(#74),#17,.F.);
#736=ADVANCED_FACE('',(#75),#18,.F.);
#737=ADVANCED_FACE('',(#76),#700,.T.);
#738=ADVANCED_FACE('',(#77,#29,#30),#701,.T.);
#739=ADVANCED_FACE('',(#78),#702,.T.);
#740=ADVANCED_FACE('',(#79,#31),#703,.F.);
#741=ADVANCED_FACE('',(#80),#704,.F.);
#742=ADVANCED_FACE('',(#81,#32),#705,.F.);
#743=ADVANCED_FACE('',(#82),#706,.F.);
#744=ADVANCED_FACE('',(#83,#33),#707,.F.);
#745=ADVANCED_FACE('',(#84),#19,.F.);
#746=ADVANCED_FACE('',(#85),#20,.F.);
#747=ADVANCED_FACE('',(#86),#21,.F.);
#748=ADVANCED_FACE('',(#87,#34),#708,.T.);
#749=ADVANCED_FACE('',(#88,#35),#709,.T.);
#750=ADVANCED_FACE('',(#89,#36),#710,.T.);
#751=ADVANCED_FACE('',(#90),#711,.T.);
#752=CLOSED_SHELL('',(#712,#713,#714,#715,#716,#717,#718,#719,#720,#721,
#722,#723,#724,#725,#726,#727,#728,#729,#730,#731,#732,#733,#734,#735,#736,
#737,#738,#739,#740,#741,#742,#743,#744,#745,#746,#747,#748,#749,#750,#751));
#753=AXIS2_PLACEMENT_3D('',#1003,#808,#809);
#754=AXIS2_PLACEMENT_3D('',#1004,#810,#811);
#755=AXIS2_PLACEMENT_3D('',#1013,#816,#817);
#756=AXIS2_PLACEMENT_3D('',#1019,#821,#822);
#757=AXIS2_PLACEMENT_3D('',#1025,#826,#827);
#758=AXIS2_PLACEMENT_3D('',#1031,#831,#832);
#759=AXIS2_PLACEMENT_3D('',#1037,#836,#837);
#760=AXIS2_PLACEMENT_3D('',#1040,#840,#841);
#761=AXIS2_PLACEMENT_3D('',#1042,#842,#843);
#762=AXIS2_PLACEMENT_3D('',#1043,#844,#845);
#763=AXIS2_PLACEMENT_3D('',#1045,#846,#847);
#764=AXIS2_PLACEMENT_3D('',#1046,#848,#849);
#765=AXIS2_PLACEMENT_3D('',#1055,#854,#855);
#766=AXIS2_PLACEMENT_3D('',#1061,#859,#860);
#767=AXIS2_PLACEMENT_3D('',#1067,#864,#865);
#768=AXIS2_PLACEMENT_3D('',#1073,#869,#870);
#769=AXIS2_PLACEMENT_3D('',#1079,#874,#875);
#770=AXIS2_PLACEMENT_3D('',#1082,#878,#879);
#771=AXIS2_PLACEMENT_3D('',#1084,#880,#881);
#772=AXIS2_PLACEMENT_3D('',#1085,#882,#883);
#773=AXIS2_PLACEMENT_3D('',#1087,#884,#885);
#774=AXIS2_PLACEMENT_3D('',#1088,#886,#887);
#775=AXIS2_PLACEMENT_3D('',#1090,#888,#889);
#776=AXIS2_PLACEMENT_3D('',#1092,#891,#892);
#777=AXIS2_PLACEMENT_3D('',#1094,#893,#894);
#778=AXIS2_PLACEMENT_3D('',#1096,#896,#897);
#779=AXIS2_PLACEMENT_3D('',#1109,#904,#905);
#780=AXIS2_PLACEMENT_3D('',#1124,#913,#914);
#781=AXIS2_PLACEMENT_3D('',#1125,#915,#916);
#782=AXIS2_PLACEMENT_3D('',#1140,#925,#926);
#783=AXIS2_PLACEMENT_3D('',#1143,#929,#930);
#784=AXIS2_PLACEMENT_3D('',#1146,#932,#933);
#785=AXIS2_PLACEMENT_3D('',#1148,#934,#935);
#786=AXIS2_PLACEMENT_3D('',#1149,#936,#937);
#787=AXIS2_PLACEMENT_3D('',#1151,#939,#940);
#788=AXIS2_PLACEMENT_3D('',#1153,#942,#943);
#789=AXIS2_PLACEMENT_3D('',#1154,#944,#945);
#790=AXIS2_PLACEMENT_3D('',#1156,#947,#948);
#791=AXIS2_PLACEMENT_3D('',#1157,#949,#950);
#792=AXIS2_PLACEMENT_3D('',#1167,#955,#956);
#793=AXIS2_PLACEMENT_3D('',#1168,#957,#958);
#794=AXIS2_PLACEMENT_3D('',#1174,#962,#963);
#795=AXIS2_PLACEMENT_3D('',#1181,#967,#968);
#796=AXIS2_PLACEMENT_3D('',#1182,#969,#970);
#797=AXIS2_PLACEMENT_3D('',#1185,#973,#974);
#798=AXIS2_PLACEMENT_3D('',#1187,#975,#976);
#799=AXIS2_PLACEMENT_3D('',#1188,#977,#978);
#800=AXIS2_PLACEMENT_3D('',#1190,#979,#980);
#801=AXIS2_PLACEMENT_3D('',#1192,#982,#983);
#802=AXIS2_PLACEMENT_3D('',#1194,#985,#986);
#803=AXIS2_PLACEMENT_3D('',#1196,#987,#988);
#804=AXIS2_PLACEMENT_3D('',#1198,#990,#991);
#805=AXIS2_PLACEMENT_3D('',#1202,#994,#995);
#806=AXIS2_PLACEMENT_3D('',#1206,#998,#999);
#807=AXIS2_PLACEMENT_3D('',#1208,#1001,#1002);
#808=DIRECTION('axis',(0.,0.,1.));
#809=DIRECTION('refdir',(1.,0.,0.));
#810=DIRECTION('center_axis',(0.,-0.866025403784439,0.5));
#811=DIRECTION('ref_axis',(0.,0.5,0.866025403784439));
#812=DIRECTION('',(0.,-0.5,-0.866025403784439));
#813=DIRECTION('',(-1.,0.,0.));
#814=DIRECTION('',(0.,0.5,0.866025403784439));
#815=DIRECTION('',(-1.,0.,0.));
#816=DIRECTION('center_axis',(0.,-0.866025403784439,-0.5));
#817=DIRECTION('ref_axis',(0.,-0.5,0.866025403784439));
#818=DIRECTION('',(0.,0.5,-0.866025403784439));
#819=DIRECTION('',(-1.,0.,0.));
#820=DIRECTION('',(0.,-0.5,0.866025403784439));
#821=DIRECTION('center_axis',(0.,0.,-1.));
#822=DIRECTION('ref_axis',(0.,-1.,0.));
#823=DIRECTION('',(0.,1.,0.));
#824=DIRECTION('',(-1.,0.,0.));
#825=DIRECTION('',(0.,-1.,0.));
#826=DIRECTION('center_axis',(0.,0.866025403784439,-0.5));
#827=DIRECTION('ref_axis',(0.,-0.5,-0.866025403784439));
#828=DIRECTION('',(0.,0.5,0.866025403784439));
#829=DIRECTION('',(-1.,0.,0.));
#830=DIRECTION('',(0.,-0.5,-0.866025403784439));
#831=DIRECTION('center_axis',(0.,0.866025403784439,0.5));
#832=DIRECTION('ref_axis',(0.,0.5,-0.866025403784439));
#833=DIRECTION('',(0.,-0.5,0.866025403784439));
#834=DIRECTION('',(-1.,0.,0.));
#835=DIRECTION('',(0.,0.5,-0.866025403784439));
#836=DIRECTION('center_axis',(0.,0.,1.));
#837=DIRECTION('ref_axis',(0.,1.,0.));
#838=DIRECTION('',(0.,-1.,0.));
#839=DIRECTION('',(0.,1.,0.));
#840=DIRECTION('center_axis',(1.,0.,0.));
#841=DIRECTION('ref_axis',(0.,1.,0.));
#842=DIRECTION('center_axis',(-1.,0.,0.));
#843=DIRECTION('ref_axis',(8.88178419700125E-16,-1.,4.72837643780249E-17));
#844=DIRECTION('center_axis',(1.,0.,0.));
#845=DIRECTION('ref_axis',(0.,1.,0.));
#846=DIRECTION('center_axis',(1.,0.,0.));
#847=DIRECTION('ref_axis',(8.88178419700125E-16,-1.,4.72837643780249E-17));
#848=DIRECTION('center_axis',(0.,-0.866025403784439,0.5));
#849=DIRECTION('ref_axis',(0.,0.5,0.866025403784439));
#850=DIRECTION('',(0.,-0.5,-0.866025403784439));
#851=DIRECTION('',(-1.,0.,0.));
#852=DIRECTION('',(0.,0.5,0.866025403784439));
#853=DIRECTION('',(-1.,0.,0.));
#854=DIRECTION('center_axis',(0.,-0.866025403784439,-0.5));
#855=DIRECTION('ref_axis',(0.,-0.5,0.866025403784439));
#856=DIRECTION('',(0.,0.5,-0.866025403784439));
#857=DIRECTION('',(-1.,0.,0.));
#858=DIRECTION('',(0.,-0.5,0.866025403784439));
#859=DIRECTION('center_axis',(0.,0.,-1.));
#860=DIRECTION('ref_axis',(0.,-1.,0.));
#861=DIRECTION('',(0.,1.,0.));
#862=DIRECTION('',(-1.,0.,0.));
#863=DIRECTION('',(0.,-1.,0.));
#864=DIRECTION('center_axis',(0.,0.866025403784439,-0.5));
#865=DIRECTION('ref_axis',(0.,-0.5,-0.866025403784439));
#866=DIRECTION('',(0.,0.5,0.866025403784439));
#867=DIRECTION('',(-1.,0.,0.));
#868=DIRECTION('',(0.,-0.5,-0.866025403784439));
#869=DIRECTION('center_axis',(0.,0.866025403784439,0.5));
#870=DIRECTION('ref_axis',(0.,0.5,-0.866025403784439));
#871=DIRECTION('',(0.,-0.5,0.866025403784439));
#872=DIRECTION('',(-1.,0.,0.));
#873=DIRECTION('',(0.,0.5,-0.866025403784439));
#874=DIRECTION('center_axis',(0.,0.,1.));
#875=DIRECTION('ref_axis',(0.,1.,0.));
#876=DIRECTION('',(0.,-1.,0.));
#877=DIRECTION('',(0.,1.,0.));
#878=DIRECTION('center_axis',(1.,0.,0.));
#879=DIRECTION('ref_axis',(0.,1.,0.));
#880=DIRECTION('center_axis',(-1.,0.,0.));
#881=DIRECTION('ref_axis',(8.88178419700125E-16,-1.,4.72837643780249E-17));
#882=DIRECTION('center_axis',(1.,0.,0.));
#883=DIRECTION('ref_axis',(0.,1.,0.));
#884=DIRECTION('center_axis',(1.,0.,0.));
#885=DIRECTION('ref_axis',(8.88178419700125E-16,-1.,4.72837643780249E-17));
#886=DIRECTION('center_axis',(1.,8.88178419700125E-16,8.28303950482062E-30));
#887=DIRECTION('ref_axis',(8.88178419700125E-16,-1.,4.72837643780249E-17));
#888=DIRECTION('center_axis',(1.,0.,-1.99840144432527E-15));
#889=DIRECTION('ref_axis',(8.88178419700125E-16,-1.,4.72837643780249E-17));
#890=DIRECTION('',(1.,8.88178419700125E-16,8.28303950482062E-30));
#891=DIRECTION('center_axis',(1.,8.88178419700125E-16,8.28303950482062E-30));
#892=DIRECTION('ref_axis',(8.88178419700125E-16,-1.,4.72837643780249E-17));
#893=DIRECTION('center_axis',(1.,0.,-1.99840144432527E-15));
#894=DIRECTION('ref_axis',(8.88178419700125E-16,-1.,4.72837643780249E-17));
#895=DIRECTION('',(1.,8.88178419700125E-16,8.28303950482062E-30));
#896=DIRECTION('center_axis',(0.,0.,1.));
#897=DIRECTION('ref_axis',(1.,0.,0.));
#898=DIRECTION('',(1.,2.88889491658007E-33,0.));
#899=DIRECTION('',(-7.88230386182707E-46,-1.,-3.94430452610506E-31));
#900=DIRECTION('',(1.,0.,-1.94722591329159E-15));
#901=DIRECTION('',(8.75811540203011E-47,1.,-4.90909346529766E-91));
#902=DIRECTION('',(-1.,0.,1.94722591329159E-15));
#903=DIRECTION('',(7.88230386182707E-46,1.,3.94430452610506E-31));
#904=DIRECTION('center_axis',(2.88889491658007E-33,-1.,-3.94430452610506E-31));
#905=DIRECTION('ref_axis',(1.,2.88889491658085E-33,-1.99840144432527E-15));
#906=DIRECTION('',(-3.10902067983399E-76,-3.94430452610506E-31,1.));
#907=DIRECTION('',(3.10902067983399E-76,3.94430452610506E-31,-1.));
#908=DIRECTION('',(-1.,-2.88889491658085E-33,1.99840144432527E-15));
#909=DIRECTION('',(1.99840144432527E-15,-3.94430452610506E-31,1.));
#910=DIRECTION('',(1.,2.88889491658085E-33,-1.99840144432527E-15));
#911=DIRECTION('',(0.,0.,-1.));
#912=DIRECTION('',(-1.,-2.88889491658085E-33,1.99840144432527E-15));
#913=DIRECTION('center_axis',(-2.88889491658007E-33,1.,3.94430452610506E-31));
#914=DIRECTION('ref_axis',(-1.,1.55575381946529E-61,1.99840144432527E-15));
#915=DIRECTION('center_axis',(0.,0.,-1.));
#916=DIRECTION('ref_axis',(-1.,0.,0.));
#917=DIRECTION('',(7.88230386182707E-46,1.,3.94430452610506E-31));
#918=DIRECTION('',(1.,-1.55575381946529E-61,-1.99840144432527E-15));
#919=DIRECTION('',(2.88889491658007E-33,-1.,-3.94430452610506E-31));
#920=DIRECTION('',(-7.88230386182707E-46,-1.,-3.94430452610506E-31));
#921=DIRECTION('',(1.,0.,-1.94722591329159E-15));
#922=DIRECTION('',(-8.75811540203011E-47,-1.,0.));
#923=DIRECTION('',(-1.,3.79411283881768E-32,1.99840144432527E-15));
#924=DIRECTION('',(7.88230386182707E-46,1.,3.94430452610506E-31));
#925=DIRECTION('center_axis',(3.02940415196515E-76,1.,1.55575381946528E-61));
#926=DIRECTION('ref_axis',(1.77635683940024E-15,-1.55575381946528E-61,1.));
#927=DIRECTION('',(-1.77635683940024E-15,1.55575381946528E-61,-1.));
#928=DIRECTION('',(0.,0.,-1.));
#929=DIRECTION('center_axis',(1.,-8.75811540203011E-47,-1.77635683940024E-15));
#930=DIRECTION('ref_axis',(8.75811540203011E-47,1.,-4.90909346529766E-91));
#931=DIRECTION('',(0.,0.,1.));
#932=DIRECTION('center_axis',(-1.,-6.7711181989313E-32,1.77635683940024E-15));
#933=DIRECTION('ref_axis',(-6.7711181989313E-32,1.,1.20279221230591E-46));
#934=DIRECTION('center_axis',(-1.,-6.7711181989313E-32,1.77635683940024E-15));
#935=DIRECTION('ref_axis',(-6.7711181989313E-32,1.,1.20279221230591E-46));
#936=DIRECTION('center_axis',(1.,8.88178419700125E-16,8.28303950482062E-30));
#937=DIRECTION('ref_axis',(8.88178419700125E-16,-1.,4.72837643780249E-17));
#938=DIRECTION('',(1.,8.88178419700125E-16,8.28303950482062E-30));
#939=DIRECTION('center_axis',(1.,8.88178419700125E-16,8.28303950482062E-30));
#940=DIRECTION('ref_axis',(8.88178419700125E-16,-1.,4.72837643780249E-17));
#941=DIRECTION('',(1.,8.88178419700125E-16,8.28303950482062E-30));
#942=DIRECTION('center_axis',(1.,-8.75811540203011E-47,-1.77635683940024E-15));
#943=DIRECTION('ref_axis',(1.77635683940024E-15,-3.97511940521526E-31,1.));
#944=DIRECTION('center_axis',(-1.,0.,1.99840144432527E-15));
#945=DIRECTION('ref_axis',(-1.99840144432527E-15,3.97511940521526E-31,-1.));
#946=DIRECTION('',(0.,0.,1.));
#947=DIRECTION('center_axis',(-7.88230386182707E-46,-1.,-3.94430452610506E-31));
#948=DIRECTION('ref_axis',(1.99840144432527E-15,-3.94430452610506E-31,1.));
#949=DIRECTION('center_axis',(-3.53701221090942E-31,-1.,-1.76992076389518E-16));
#950=DIRECTION('ref_axis',(1.99840144432527E-15,-1.76992076389518E-16,1.));
#951=DIRECTION('',(1.99840144432527E-15,-1.76992076389518E-16,1.));
#952=DIRECTION('',(-1.,1.55575381946529E-61,1.99840144432527E-15));
#953=DIRECTION('',(1.99840144432527E-15,-1.76992076389518E-16,1.));
#954=DIRECTION('',(-1.,1.55575381946529E-61,1.99840144432527E-15));
#955=DIRECTION('center_axis',(3.53701221090942E-31,1.,1.76992076389518E-16));
#956=DIRECTION('ref_axis',(-1.,1.55575381946529E-61,1.99840144432527E-15));
#957=DIRECTION('center_axis',(-1.99840144432527E-15,3.94430452610506E-31,
-1.));
#958=DIRECTION('ref_axis',(-7.88230386182707E-46,-1.,-3.94430452610506E-31));
#959=DIRECTION('',(2.88889491658007E-33,-1.,-3.94430452610506E-31));
#960=DIRECTION('',(-1.,1.55575381946529E-61,1.99840144432527E-15));
#961=DIRECTION('',(-7.88230386182707E-46,-1.,-3.94430452610506E-31));
#962=DIRECTION('center_axis',(-2.57237251702502E-31,1.,-1.28721510101467E-16));
#963=DIRECTION('ref_axis',(-1.99840144432527E-15,-1.28721510101467E-16,
-1.));
#964=DIRECTION('',(-1.99840144432527E-15,-1.28721510101467E-16,-1.));
#965=DIRECTION('',(-1.,1.55575381946529E-61,1.99840144432527E-15));
#966=DIRECTION('',(-1.99840144432527E-15,-1.28721510101467E-16,-1.));
#967=DIRECTION('center_axis',(2.57237251702502E-31,-1.,1.28721510101467E-16));
#968=DIRECTION('ref_axis',(-1.,1.55575381946529E-61,1.99840144432527E-15));
#969=DIRECTION('center_axis',(1.99840144432527E-15,-3.94430452610506E-31,
1.));
#970=DIRECTION('ref_axis',(7.88230386182707E-46,1.,3.94430452610506E-31));
#971=DIRECTION('',(-2.88889491658007E-33,1.,3.94430452610506E-31));
#972=DIRECTION('',(7.88230386182707E-46,1.,3.94430452610506E-31));
#973=DIRECTION('center_axis',(-1.,1.55575381946529E-61,1.99840144432527E-15));
#974=DIRECTION('ref_axis',(1.99840144432527E-15,-3.94430452610506E-31,1.));
#975=DIRECTION('center_axis',(1.,-1.55575381946529E-61,-1.99840144432527E-15));
#976=DIRECTION('ref_axis',(-7.88230386182706E-46,-1.,-3.94430452610506E-31));
#977=DIRECTION('center_axis',(-7.88230386182707E-46,-1.,-3.94430452610506E-31));
#978=DIRECTION('ref_axis',(-1.,1.55575381946529E-61,1.99840144432527E-15));
#979=DIRECTION('center_axis',(-7.88230386182707E-46,-1.,-3.94430452610506E-31));
#980=DIRECTION('ref_axis',(-1.,1.55575381946529E-61,1.99840144432527E-15));
#981=DIRECTION('',(-7.88230386182707E-46,-1.,-3.94430452610506E-31));
#982=DIRECTION('center_axis',(-7.88230386182707E-46,-1.,-3.94430452610506E-31));
#983=DIRECTION('ref_axis',(-1.,1.55575381946529E-61,1.99840144432527E-15));
#984=DIRECTION('',(-7.88230386182707E-46,-1.,-3.94430452610506E-31));
#985=DIRECTION('center_axis',(1.,-1.55575381946529E-61,-1.99840144432527E-15));
#986=DIRECTION('ref_axis',(-7.88230386182706E-46,-1.,-3.94430452610506E-31));
#987=DIRECTION('center_axis',(1.,-1.55575381946529E-61,-1.99840144432527E-15));
#988=DIRECTION('ref_axis',(-7.88230386182706E-46,-1.,-3.94430452610506E-31));
#989=DIRECTION('',(1.,-1.55575381946529E-61,-1.99840144432527E-15));
#990=DIRECTION('center_axis',(-1.,1.55575381946529E-61,1.99840144432527E-15));
#991=DIRECTION('ref_axis',(-7.88230386182707E-46,-1.,-3.94430452610506E-31));
#992=DIRECTION('',(-7.88230386182707E-46,-1.,-3.94430452610506E-31));
#993=DIRECTION('',(1.99840144432527E-15,-3.94430452610506E-31,1.));
#994=DIRECTION('center_axis',(7.88230386182707E-46,1.,3.94430452610506E-31));
#995=DIRECTION('ref_axis',(-1.,1.55575381946529E-61,1.99840144432527E-15));
#996=DIRECTION('',(-1.,1.55575381946529E-61,1.99840144432527E-15));
#997=DIRECTION('',(1.99840144432527E-15,-3.94430452610506E-31,1.));
#998=DIRECTION('center_axis',(1.,2.88889491658085E-33,-1.99840144432527E-15));
#999=DIRECTION('ref_axis',(-2.88889491658007E-33,1.,3.94430452610506E-31));
#1000=DIRECTION('',(-2.88889491658007E-33,1.,3.94430452610506E-31));
#1001=DIRECTION('center_axis',(1.99840144432527E-15,-3.94430452610506E-31,
1.));
#1002=DIRECTION('ref_axis',(7.88230386182707E-46,1.,3.94430452610506E-31));
#1003=CARTESIAN_POINT('',(0.,0.,0.));
#1004=CARTESIAN_POINT('Origin',(-56.7,26.6687622811848,241.57));
#1005=CARTESIAN_POINT('',(-56.7,29.5843811405924,246.62));
#1006=CARTESIAN_POINT('',(-56.7,26.6687622811848,241.57));
#1007=CARTESIAN_POINT('',(-56.7,29.5843811405924,246.62));
#1008=CARTESIAN_POINT('',(-61.53,26.6687622811848,241.57));
#1009=CARTESIAN_POINT('',(-56.7,26.6687622811848,241.57));
#1010=CARTESIAN_POINT('',(-61.53,29.5843811405924,246.62));
#1011=CARTESIAN_POINT('',(-61.53,29.5843811405924,246.62));
#1012=CARTESIAN_POINT('',(-56.7,29.5843811405924,246.62));
#1013=CARTESIAN_POINT('Origin',(-56.7,29.5843811405924,236.52));
#1014=CARTESIAN_POINT('',(-56.7,29.5843811405924,236.52));
#1015=CARTESIAN_POINT('',(-56.7,26.6687622811848,241.57));
#1016=CARTESIAN_POINT('',(-61.53,29.5843811405924,236.52));
#1017=CARTESIAN_POINT('',(-56.7,29.5843811405924,236.52));
#1018=CARTESIAN_POINT('',(-61.53,26.6687622811848,241.57));
#1019=CARTESIAN_POINT('Origin',(-56.7,35.4156188594076,236.52));
#1020=CARTESIAN_POINT('',(-56.7,35.4156188594076,236.52));
#1021=CARTESIAN_POINT('',(-56.7,29.5843811405924,236.52));
#1022=CARTESIAN_POINT('',(-61.53,35.4156188594076,236.52));
#1023=CARTESIAN_POINT('',(-56.7,35.4156188594076,236.52));
#1024=CARTESIAN_POINT('',(-61.53,29.5843811405924,236.52));
#1025=CARTESIAN_POINT('Origin',(-56.7,38.3312377188152,241.57));
#1026=CARTESIAN_POINT('',(-56.7,38.3312377188152,241.57));
#1027=CARTESIAN_POINT('',(-56.7,35.4156188594076,236.52));
#1028=CARTESIAN_POINT('',(-61.53,38.3312377188152,241.57));
#1029=CARTESIAN_POINT('',(-56.7,38.3312377188152,241.57));
#1030=CARTESIAN_POINT('',(-61.53,35.4156188594076,236.52));
#1031=CARTESIAN_POINT('Origin',(-56.7,35.4156188594076,246.62));
#1032=CARTESIAN_POINT('',(-56.7,35.4156188594076,246.62));
#1033=CARTESIAN_POINT('',(-56.7,38.3312377188152,241.57));
#1034=CARTESIAN_POINT('',(-61.53,35.4156188594076,246.62));
#1035=CARTESIAN_POINT('',(-56.7,35.4156188594076,246.62));
#1036=CARTESIAN_POINT('',(-61.53,38.3312377188152,241.57));
#1037=CARTESIAN_POINT('Origin',(-56.7,29.5843811405924,246.62));
#1038=CARTESIAN_POINT('',(-56.7,35.4156188594076,246.62));
#1039=CARTESIAN_POINT('',(-61.53,35.4156188594076,246.62));
#1040=CARTESIAN_POINT('Origin',(-56.7,32.5,241.57));
#1041=CARTESIAN_POINT('',(-56.7,35.75,241.57));
#1042=CARTESIAN_POINT('Origin',(-56.7,32.5,241.57));
#1043=CARTESIAN_POINT('Origin',(-61.53,32.5,241.57));
#1044=CARTESIAN_POINT('',(-61.53,35.75,241.57));
#1045=CARTESIAN_POINT('Origin',(-61.53,32.5,241.57));
#1046=CARTESIAN_POINT('Origin',(-56.7,51.6687622811848,241.57));
#1047=CARTESIAN_POINT('',(-56.7,54.5843811405924,246.62));
#1048=CARTESIAN_POINT('',(-56.7,51.6687622811848,241.57));
#1049=CARTESIAN_POINT('',(-56.7,54.5843811405924,246.62));
#1050=CARTESIAN_POINT('',(-61.53,51.6687622811848,241.57));
#1051=CARTESIAN_POINT('',(-56.7,51.6687622811848,241.57));
#1052=CARTESIAN_POINT('',(-61.53,54.5843811405924,246.62));
#1053=CARTESIAN_POINT('',(-61.53,54.5843811405924,246.62));
#1054=CARTESIAN_POINT('',(-56.7,54.5843811405924,246.62));
#1055=CARTESIAN_POINT('Origin',(-56.7,54.5843811405924,236.52));
#1056=CARTESIAN_POINT('',(-56.7,54.5843811405924,236.52));
#1057=CARTESIAN_POINT('',(-56.7,51.6687622811848,241.57));
#1058=CARTESIAN_POINT('',(-61.53,54.5843811405924,236.52));
#1059=CARTESIAN_POINT('',(-56.7,54.5843811405924,236.52));
#1060=CARTESIAN_POINT('',(-61.53,51.6687622811848,241.57));
#1061=CARTESIAN_POINT('Origin',(-56.7,60.4156188594076,236.52));
#1062=CARTESIAN_POINT('',(-56.7,60.4156188594076,236.52));
#1063=CARTESIAN_POINT('',(-56.7,54.5843811405924,236.52));
#1064=CARTESIAN_POINT('',(-61.53,60.4156188594076,236.52));
#1065=CARTESIAN_POINT('',(-56.7,60.4156188594076,236.52));
#1066=CARTESIAN_POINT('',(-61.53,54.5843811405924,236.52));
#1067=CARTESIAN_POINT('Origin',(-56.7,63.3312377188152,241.57));
#1068=CARTESIAN_POINT('',(-56.7,63.3312377188152,241.57));
#1069=CARTESIAN_POINT('',(-56.7,60.4156188594076,236.52));
#1070=CARTESIAN_POINT('',(-61.53,63.3312377188152,241.57));
#1071=CARTESIAN_POINT('',(-56.7,63.3312377188152,241.57));
#1072=CARTESIAN_POINT('',(-61.53,60.4156188594076,236.52));
#1073=CARTESIAN_POINT('Origin',(-56.7,60.4156188594076,246.62));
#1074=CARTESIAN_POINT('',(-56.7,60.4156188594076,246.62));
#1075=CARTESIAN_POINT('',(-56.7,63.3312377188152,241.57));
#1076=CARTESIAN_POINT('',(-61.53,60.4156188594076,246.62));
#1077=CARTESIAN_POINT('',(-56.7,60.4156188594076,246.62));
#1078=CARTESIAN_POINT('',(-61.53,63.3312377188152,241.57));
#1079=CARTESIAN_POINT('Origin',(-56.7,54.5843811405924,246.62));
#1080=CARTESIAN_POINT('',(-56.7,60.4156188594076,246.62));
#1081=CARTESIAN_POINT('',(-61.53,60.4156188594076,246.62));
#1082=CARTESIAN_POINT('Origin',(-56.7,57.5,241.57));
#1083=CARTESIAN_POINT('',(-56.7,60.75,241.57));
#1084=CARTESIAN_POINT('Origin',(-56.7,57.5,241.57));
#1085=CARTESIAN_POINT('Origin',(-61.53,57.5,241.57));
#1086=CARTESIAN_POINT('',(-61.53,60.75,241.57));
#1087=CARTESIAN_POINT('Origin',(-61.53,57.5,241.57));
#1088=CARTESIAN_POINT('Origin',(-96.5,32.5,241.57));
#1089=CARTESIAN_POINT('',(-96.5,35.75,241.57));
#1090=CARTESIAN_POINT('Origin',(-96.5,32.5,241.57));
#1091=CARTESIAN_POINT('',(-96.5,35.75,241.57));
#1092=CARTESIAN_POINT('Origin',(-96.5000000000001,57.5,241.57));
#1093=CARTESIAN_POINT('',(-96.5000000000001,60.75,241.57));
#1094=CARTESIAN_POINT('Origin',(-96.5,57.5,241.57));
#1095=CARTESIAN_POINT('',(-96.5000000000001,60.75,241.57));
#1096=CARTESIAN_POINT('Origin',(-86.5000000000001,105.,248.57));
#1097=CARTESIAN_POINT('',(-96.5000000000001,105.,248.57));
#1098=CARTESIAN_POINT('',(-86.5000000000001,105.,248.57));
#1099=CARTESIAN_POINT('',(-99.7500000000001,105.,248.57));
#1100=CARTESIAN_POINT('',(-96.5000000000001,25.,248.57));
#1101=CARTESIAN_POINT('',(-96.5000000000001,105.,248.57));
#1102=CARTESIAN_POINT('',(-50.01,25.,248.57));
#1103=CARTESIAN_POINT('',(-86.5,25.,248.57));
#1104=CARTESIAN_POINT('',(-50.01,65.,248.57));
#1105=CARTESIAN_POINT('',(-50.01,105.,248.57));
#1106=CARTESIAN_POINT('',(-86.5,65.,248.57));
#1107=CARTESIAN_POINT('',(-86.5,65.,248.57));
#1108=CARTESIAN_POINT('',(-86.5000000000001,105.,248.57));
#1109=CARTESIAN_POINT('Origin',(-113.,105.,236.57));
#1110=CARTESIAN_POINT('',(-96.5000000000001,105.,234.57));
#1111=CARTESIAN_POINT('',(-96.5000000000001,105.,241.57));
#1112=CARTESIAN_POINT('',(-86.5000000000001,105.,234.57));
#1113=CARTESIAN_POINT('',(-86.5000000000001,105.,241.57));
#1114=CARTESIAN_POINT('',(-73.0000000000001,105.,234.57));
#1115=CARTESIAN_POINT('',(-113.,105.,234.57));
#1116=CARTESIAN_POINT('',(-73.,105.,276.57));
#1117=CARTESIAN_POINT('',(-73.0000000000001,105.,236.57));
#1118=CARTESIAN_POINT('',(-113.,105.,276.57));
#1119=CARTESIAN_POINT('',(-113.,105.,276.57));
#1120=CARTESIAN_POINT('',(-113.,105.,234.57));
#1121=CARTESIAN_POINT('',(-113.,105.,236.57));
#1122=CARTESIAN_POINT('',(-113.,105.,234.57));
#1123=CARTESIAN_POINT('',(-89.,105.,255.07));
#1124=CARTESIAN_POINT('Origin',(-91.5,105.,255.07));
#1125=CARTESIAN_POINT('Origin',(-93.0000000000001,125.,234.57));
#1126=CARTESIAN_POINT('',(-113.,145.,234.57));
#1127=CARTESIAN_POINT('',(-113.,145.,234.57));
#1128=CARTESIAN_POINT('',(-73.0000000000001,145.,234.57));
#1129=CARTESIAN_POINT('',(-73.0000000000001,145.,234.57));
#1130=CARTESIAN_POINT('',(-73.0000000000001,105.,234.57));
#1131=CARTESIAN_POINT('',(-86.5000000000001,65.,234.57));
#1132=CARTESIAN_POINT('',(-86.5000000000001,105.,234.57));
#1133=CARTESIAN_POINT('',(-50.01,65.,234.57));
#1134=CARTESIAN_POINT('',(-86.5000000000001,65.,234.57));
#1135=CARTESIAN_POINT('',(-50.01,25.,234.57));
#1136=CARTESIAN_POINT('',(-50.01,25.,234.57));
#1137=CARTESIAN_POINT('',(-96.5000000000001,25.,234.57));
#1138=CARTESIAN_POINT('',(-113.,25.,234.57));
#1139=CARTESIAN_POINT('',(-96.5000000000001,105.,234.57));
#1140=CARTESIAN_POINT('Origin',(-86.5000000000001,65.,236.57));
#1141=CARTESIAN_POINT('',(-86.5000000000001,65.,236.57));
#1142=CARTESIAN_POINT('',(-50.01,65.,236.57));
#1143=CARTESIAN_POINT('Origin',(-50.01,45.,241.57));
#1144=CARTESIAN_POINT('',(-50.01,25.,246.57));
#1145=CARTESIAN_POINT('',(-50.01,60.75,241.57));
#1146=CARTESIAN_POINT('Origin',(-50.01,57.5,241.57));
#1147=CARTESIAN_POINT('',(-50.01,35.75,241.57));
#1148=CARTESIAN_POINT('Origin',(-50.01,32.5,241.57));
#1149=CARTESIAN_POINT('Origin',(-96.5000000000001,57.5,241.57));
#1150=CARTESIAN_POINT('',(-96.5000000000001,60.75,241.57));
#1151=CARTESIAN_POINT('Origin',(-96.5,32.5,241.57));
#1152=CARTESIAN_POINT('',(-96.5,35.75,241.57));
#1153=CARTESIAN_POINT('Origin',(-86.5000000000001,105.,236.57));
#1154=CARTESIAN_POINT('Origin',(-96.5000000000001,105.,246.57));
#1155=CARTESIAN_POINT('',(-96.5000000000001,25.,246.57));
#1156=CARTESIAN_POINT('Origin',(-91.5000000000001,25.,241.57));
#1157=CARTESIAN_POINT('Origin',(-73.0000000000001,107.25,239.32));
#1158=CARTESIAN_POINT('',(-73.0000000000001,107.25,239.32));
#1159=CARTESIAN_POINT('',(-73.,107.25,273.82));
#1160=CARTESIAN_POINT('',(-73.0000000000001,107.25,237.945));
#1161=CARTESIAN_POINT('',(-103.,107.25,239.32));
#1162=CARTESIAN_POINT('',(-73.0000000000001,107.25,239.32));
#1163=CARTESIAN_POINT('',(-103.,107.25,273.82));
#1164=CARTESIAN_POINT('',(-103.,107.25,239.32));
#1165=CARTESIAN_POINT('',(-73.,107.25,273.82));
#1166=CARTESIAN_POINT('',(-89.,107.25,255.07));
#1167=CARTESIAN_POINT('Origin',(-91.5,107.25,255.07));
#1168=CARTESIAN_POINT('Origin',(-73.0000000000001,142.75,239.32));
#1169=CARTESIAN_POINT('',(-73.0000000000001,142.75,239.32));
#1170=CARTESIAN_POINT('',(-73.0000000000001,123.875,239.32));
#1171=CARTESIAN_POINT('',(-103.,142.75,239.32));
#1172=CARTESIAN_POINT('',(-73.0000000000001,142.75,239.32));
#1173=CARTESIAN_POINT('',(-103.,142.75,239.32));
#1174=CARTESIAN_POINT('Origin',(-73.,142.75,273.82));
#1175=CARTESIAN_POINT('',(-73.,142.75,273.82));
#1176=CARTESIAN_POINT('',(-73.,142.75,255.195));
#1177=CARTESIAN_POINT('',(-103.,142.75,273.82));
#1178=CARTESIAN_POINT('',(-73.,142.75,273.82));
#1179=CARTESIAN_POINT('',(-103.,142.75,273.82));
#1180=CARTESIAN_POINT('',(-89.,142.75,255.07));
#1181=CARTESIAN_POINT('Origin',(-91.5,142.75,255.07));
#1182=CARTESIAN_POINT('Origin',(-73.,107.25,273.82));
#1183=CARTESIAN_POINT('',(-73.,106.125,273.82));
#1184=CARTESIAN_POINT('',(-103.,107.25,273.82));
#1185=CARTESIAN_POINT('Origin',(-103.,125.,256.57));
#1186=CARTESIAN_POINT('',(-103.,134.,255.07));
#1187=CARTESIAN_POINT('Origin',(-103.,125.,255.07));
#1188=CARTESIAN_POINT('Origin',(-91.5,145.,255.07));
#1189=CARTESIAN_POINT('',(-89.,145.,255.07));
#1190=CARTESIAN_POINT('Origin',(-91.5,145.,255.07));
#1191=CARTESIAN_POINT('',(-89.,145.,255.07));
#1192=CARTESIAN_POINT('Origin',(-91.5,145.,255.07));
#1193=CARTESIAN_POINT('',(-89.,145.,255.07));
#1194=CARTESIAN_POINT('Origin',(-113.,125.,255.07));
#1195=CARTESIAN_POINT('',(-113.,134.,255.07));
#1196=CARTESIAN_POINT('Origin',(-113.,125.,255.07));
#1197=CARTESIAN_POINT('',(-113.,134.,255.07));
#1198=CARTESIAN_POINT('Origin',(-113.,145.,236.57));
#1199=CARTESIAN_POINT('',(-113.,145.,276.57));
#1200=CARTESIAN_POINT('',(-113.,145.,276.57));
#1201=CARTESIAN_POINT('',(-113.,145.,236.57));
#1202=CARTESIAN_POINT('Origin',(-73.0000000000001,145.,236.57));
#1203=CARTESIAN_POINT('',(-73.,145.,276.57));
#1204=CARTESIAN_POINT('',(-73.,145.,276.57));
#1205=CARTESIAN_POINT('',(-73.0000000000001,145.,236.57));
#1206=CARTESIAN_POINT('Origin',(-73.0000000000001,105.,236.57));
#1207=CARTESIAN_POINT('',(-73.,105.,276.57));
#1208=CARTESIAN_POINT('Origin',(-93.,125.,276.57));
#1209=UNCERTAINTY_MEASURE_WITH_UNIT(LENGTH_MEASURE(0.01),#1213,
'DISTANCE_ACCURACY_VALUE',
'Maximum model space distance between geometric entities at asserted c
onnectivities');
#1210=UNCERTAINTY_MEASURE_WITH_UNIT(LENGTH_MEASURE(0.01),#1213,
'DISTANCE_ACCURACY_VALUE',
'Maximum model space distance between geometric entities at asserted c
onnectivities');
#1211=(
GEOMETRIC_REPRESENTATION_CONTEXT(3)
GLOBAL_UNCERTAINTY_ASSIGNED_CONTEXT((#1209))
GLOBAL_UNIT_ASSIGNED_CONTEXT((#1213,#1214,#1215))
REPRESENTATION_CONTEXT('','3D')
);
#1212=(
GEOMETRIC_REPRESENTATION_CONTEXT(3)
GLOBAL_UNCERTAINTY_ASSIGNED_CONTEXT((#1210))
GLOBAL_UNIT_ASSIGNED_CONTEXT((#1213,#1214,#1215))
REPRESENTATION_CONTEXT('','3D')
);
#1213=(
LENGTH_UNIT()
NAMED_UNIT(*)
SI_UNIT(.MILLI.,.METRE.)
);
#1214=(
NAMED_UNIT(*)
PLANE_ANGLE_UNIT()
SI_UNIT($,.RADIAN.)
);
#1215=(
NAMED_UNIT(*)
SI_UNIT($,.STERADIAN.)
SOLID_ANGLE_UNIT()
);
#1216=SHAPE_DEFINITION_REPRESENTATION(#1217,#1218);
#1217=PRODUCT_DEFINITION_SHAPE('',$,#1220);
#1218=SHAPE_REPRESENTATION('',(#753),#1211);
#1219=PRODUCT_DEFINITION_CONTEXT('part definition',#1224,'design');
#1220=PRODUCT_DEFINITION('2026-05-29-02-27-41-020','camera mount',#1221,
#1219);
#1221=PRODUCT_DEFINITION_FORMATION('',$,#1226);
#1222=PRODUCT_RELATED_PRODUCT_CATEGORY('camera mount','camera mount',(#1226));
#1223=APPLICATION_PROTOCOL_DEFINITION('international standard',
'automotive_design',2009,#1224);
#1224=APPLICATION_CONTEXT(
'Core Data for Automotive Mechanical Design Process');
#1225=PRODUCT_CONTEXT('part definition',#1224,'mechanical');
#1226=PRODUCT('2026-05-29-02-27-41-020','camera mount',$,(#1225));
#1227=PRESENTATION_STYLE_ASSIGNMENT((#1228));
#1228=SURFACE_STYLE_USAGE(.BOTH.,#1229);
#1229=SURFACE_SIDE_STYLE('',(#1230));
#1230=SURFACE_STYLE_FILL_AREA(#1231);
#1231=FILL_AREA_STYLE('Steel - Satin',(#1232));
#1232=FILL_AREA_STYLE_COLOUR('Steel - Satin',#1233);
#1233=COLOUR_RGB('Steel - Satin',0.627450980392157,0.627450980392157,0.627450980392157);
ENDSEC;
END-ISO-10303-21;
