ISO-10303-21;
HEADER;
/* Generated by software containing ST-Developer
 * from STEP Tools, Inc. (www.steptools.com) 
 */

FILE_DESCRIPTION(
/* description */ (''),
/* implementation_level */ '2;1');

FILE_NAME(
/* name */ 'Frame Linear Actuator Mount.step',
/* time_stamp */ '2026-06-16T10:20:27+08:00',
/* author */ (''),
/* organization */ (''),
/* preprocessor_version */ 'ST-DEVELOPER v20.1',
/* originating_system */ 'Autodesk Translation Framework v15.8.0.0',
/* authorisation */ '');

FILE_SCHEMA (('AUTOMOTIVE_DESIGN { 1 0 10303 214 3 1 1 }'));
ENDSEC;

DATA;
#10=MECHANICAL_DESIGN_GEOMETRIC_PRESENTATION_REPRESENTATION('',(#17),#1042);
#11=ITEM_DEFINED_TRANSFORMATION($,$,#642,#694);
#12=(
REPRESENTATION_RELATIONSHIP($,$,#1053,#1052)
REPRESENTATION_RELATIONSHIP_WITH_TRANSFORMATION(#11)
SHAPE_REPRESENTATION_RELATIONSHIP()
);
#13=CONTEXT_DEPENDENT_SHAPE_REPRESENTATION(#12,#1051);
#14=NEXT_ASSEMBLY_USAGE_OCCURRENCE('MOUNTING PLATE:1',
'MOUNTING PLATE:1','MOUNTING PLATE:1',#1055,#1056,'MOUNTING PLATE:1');
#15=SHAPE_REPRESENTATION_RELATIONSHIP('SRR','None',#1053,#16);
#16=ADVANCED_BREP_SHAPE_REPRESENTATION('',(#18),#1041);
#17=STYLED_ITEM('',(#1068),#18);
#18=MANIFOLD_SOLID_BREP('Body1',#628);
#19=CYLINDRICAL_SURFACE('',#663,2.75);
#20=CYLINDRICAL_SURFACE('',#665,2.75);
#21=CYLINDRICAL_SURFACE('',#667,11.5);
#22=CYLINDRICAL_SURFACE('',#670,1.75);
#23=CYLINDRICAL_SURFACE('',#673,1.75);
#24=CYLINDRICAL_SURFACE('',#676,1.75);
#25=CYLINDRICAL_SURFACE('',#679,1.75);
#26=CYLINDRICAL_SURFACE('',#682,2.75);
#27=CYLINDRICAL_SURFACE('',#684,2.75);
#28=FACE_BOUND('',#104,.T.);
#29=FACE_BOUND('',#106,.T.);
#30=FACE_BOUND('',#114,.T.);
#31=FACE_BOUND('',#116,.T.);
#32=FACE_BOUND('',#127,.T.);
#33=FACE_BOUND('',#128,.T.);
#34=FACE_BOUND('',#133,.T.);
#35=FACE_BOUND('',#134,.T.);
#36=FACE_BOUND('',#137,.T.);
#37=FACE_BOUND('',#138,.T.);
#38=FACE_BOUND('',#139,.T.);
#39=FACE_BOUND('',#140,.T.);
#40=FACE_BOUND('',#141,.T.);
#41=FACE_BOUND('',#143,.T.);
#42=FACE_BOUND('',#144,.T.);
#43=FACE_BOUND('',#145,.T.);
#44=FACE_BOUND('',#146,.T.);
#45=FACE_BOUND('',#147,.T.);
#46=CIRCLE('',#650,2.75);
#47=CIRCLE('',#652,2.75);
#48=CIRCLE('',#660,2.75);
#49=CIRCLE('',#662,2.75);
#50=CIRCLE('',#664,2.75);
#51=CIRCLE('',#666,2.75);
#52=CIRCLE('',#668,11.5);
#53=CIRCLE('',#669,11.5);
#54=CIRCLE('',#671,1.75);
#55=CIRCLE('',#672,1.75);
#56=CIRCLE('',#674,1.75);
#57=CIRCLE('',#675,1.75);
#58=CIRCLE('',#677,1.75);
#59=CIRCLE('',#678,1.75);
#60=CIRCLE('',#680,1.75);
#61=CIRCLE('',#681,1.75);
#62=CIRCLE('',#683,2.75);
#63=CIRCLE('',#685,2.75);
#64=FACE_OUTER_BOUND('',#97,.T.);
#65=FACE_OUTER_BOUND('',#98,.T.);
#66=FACE_OUTER_BOUND('',#99,.T.);
#67=FACE_OUTER_BOUND('',#100,.T.);
#68=FACE_OUTER_BOUND('',#101,.T.);
#69=FACE_OUTER_BOUND('',#102,.T.);
#70=FACE_OUTER_BOUND('',#103,.T.);
#71=FACE_OUTER_BOUND('',#105,.T.);
#72=FACE_OUTER_BOUND('',#107,.T.);
#73=FACE_OUTER_BOUND('',#108,.T.);
#74=FACE_OUTER_BOUND('',#109,.T.);
#75=FACE_OUTER_BOUND('',#110,.T.);
#76=FACE_OUTER_BOUND('',#111,.T.);
#77=FACE_OUTER_BOUND('',#112,.T.);
#78=FACE_OUTER_BOUND('',#113,.T.);
#79=FACE_OUTER_BOUND('',#115,.T.);
#80=FACE_OUTER_BOUND('',#117,.T.);
#81=FACE_OUTER_BOUND('',#118,.T.);
#82=FACE_OUTER_BOUND('',#119,.T.);
#83=FACE_OUTER_BOUND('',#120,.T.);
#84=FACE_OUTER_BOUND('',#121,.T.);
#85=FACE_OUTER_BOUND('',#122,.T.);
#86=FACE_OUTER_BOUND('',#123,.T.);
#87=FACE_OUTER_BOUND('',#124,.T.);
#88=FACE_OUTER_BOUND('',#125,.T.);
#89=FACE_OUTER_BOUND('',#126,.T.);
#90=FACE_OUTER_BOUND('',#129,.T.);
#91=FACE_OUTER_BOUND('',#130,.T.);
#92=FACE_OUTER_BOUND('',#131,.T.);
#93=FACE_OUTER_BOUND('',#132,.T.);
#94=FACE_OUTER_BOUND('',#135,.T.);
#95=FACE_OUTER_BOUND('',#136,.T.);
#96=FACE_OUTER_BOUND('',#142,.T.);
#97=EDGE_LOOP('',(#409,#410,#411,#412));
#98=EDGE_LOOP('',(#413,#414,#415,#416));
#99=EDGE_LOOP('',(#417,#418,#419,#420));
#100=EDGE_LOOP('',(#421,#422,#423,#424));
#101=EDGE_LOOP('',(#425,#426,#427,#428));
#102=EDGE_LOOP('',(#429,#430,#431,#432));
#103=EDGE_LOOP('',(#433,#434,#435,#436,#437,#438));
#104=EDGE_LOOP('',(#439));
#105=EDGE_LOOP('',(#440,#441,#442,#443,#444,#445));
#106=EDGE_LOOP('',(#446));
#107=EDGE_LOOP('',(#447,#448,#449,#450));
#108=EDGE_LOOP('',(#451,#452,#453,#454));
#109=EDGE_LOOP('',(#455,#456,#457,#458));
#110=EDGE_LOOP('',(#459,#460,#461,#462));
#111=EDGE_LOOP('',(#463,#464,#465,#466));
#112=EDGE_LOOP('',(#467,#468,#469,#470));
#113=EDGE_LOOP('',(#471,#472,#473,#474,#475,#476));
#114=EDGE_LOOP('',(#477));
#115=EDGE_LOOP('',(#478,#479,#480,#481,#482,#483));
#116=EDGE_LOOP('',(#484));
#117=EDGE_LOOP('',(#485,#486,#487,#488));
#118=EDGE_LOOP('',(#489,#490,#491,#492));
#119=EDGE_LOOP('',(#493,#494,#495,#496));
#120=EDGE_LOOP('',(#497,#498,#499,#500));
#121=EDGE_LOOP('',(#501,#502,#503,#504));
#122=EDGE_LOOP('',(#505,#506,#507,#508));
#123=EDGE_LOOP('',(#509,#510,#511,#512));
#124=EDGE_LOOP('',(#513,#514,#515,#516));
#125=EDGE_LOOP('',(#517,#518,#519,#520));
#126=EDGE_LOOP('',(#521,#522,#523,#524));
#127=EDGE_LOOP('',(#525));
#128=EDGE_LOOP('',(#526));
#129=EDGE_LOOP('',(#527,#528,#529,#530));
#130=EDGE_LOOP('',(#531,#532,#533,#534));
#131=EDGE_LOOP('',(#535,#536,#537,#538,#539,#540));
#132=EDGE_LOOP('',(#541,#542,#543,#544));
#133=EDGE_LOOP('',(#545));
#134=EDGE_LOOP('',(#546));
#135=EDGE_LOOP('',(#547,#548,#549,#550,#551,#552));
#136=EDGE_LOOP('',(#553,#554,#555,#556));
#137=EDGE_LOOP('',(#557));
#138=EDGE_LOOP('',(#558));
#139=EDGE_LOOP('',(#559));
#140=EDGE_LOOP('',(#560));
#141=EDGE_LOOP('',(#561));
#142=EDGE_LOOP('',(#562,#563,#564,#565));
#143=EDGE_LOOP('',(#566));
#144=EDGE_LOOP('',(#567));
#145=EDGE_LOOP('',(#568));
#146=EDGE_LOOP('',(#569));
#147=EDGE_LOOP('',(#570));
#148=LINE('',#871,#211);
#149=LINE('',#873,#212);
#150=LINE('',#875,#213);
#151=LINE('',#876,#214);
#152=LINE('',#879,#215);
#153=LINE('',#881,#216);
#154=LINE('',#882,#217);
#155=LINE('',#885,#218);
#156=LINE('',#887,#219);
#157=LINE('',#888,#220);
#158=LINE('',#891,#221);
#159=LINE('',#893,#222);
#160=LINE('',#894,#223);
#161=LINE('',#897,#224);
#162=LINE('',#899,#225);
#163=LINE('',#900,#226);
#164=LINE('',#902,#227);
#165=LINE('',#903,#228);
#166=LINE('',#913,#229);
#167=LINE('',#915,#230);
#168=LINE('',#917,#231);
#169=LINE('',#918,#232);
#170=LINE('',#921,#233);
#171=LINE('',#923,#234);
#172=LINE('',#924,#235);
#173=LINE('',#927,#236);
#174=LINE('',#929,#237);
#175=LINE('',#930,#238);
#176=LINE('',#933,#239);
#177=LINE('',#935,#240);
#178=LINE('',#936,#241);
#179=LINE('',#939,#242);
#180=LINE('',#941,#243);
#181=LINE('',#942,#244);
#182=LINE('',#944,#245);
#183=LINE('',#945,#246);
#184=LINE('',#954,#247);
#185=LINE('',#958,#248);
#186=LINE('',#964,#249);
#187=LINE('',#970,#250);
#188=LINE('',#976,#251);
#189=LINE('',#982,#252);
#190=LINE('',#988,#253);
#191=LINE('',#993,#254);
#192=LINE('',#997,#255);
#193=LINE('',#1001,#256);
#194=LINE('',#1003,#257);
#195=LINE('',#1005,#258);
#196=LINE('',#1006,#259);
#197=LINE('',#1010,#260);
#198=LINE('',#1011,#261);
#199=LINE('',#1012,#262);
#200=LINE('',#1016,#263);
#201=LINE('',#1018,#264);
#202=LINE('',#1020,#265);
#203=LINE('',#1021,#266);
#204=LINE('',#1024,#267);
#205=LINE('',#1025,#268);
#206=LINE('',#1026,#269);
#207=LINE('',#1029,#270);
#208=LINE('',#1030,#271);
#209=LINE('',#1032,#272);
#210=LINE('',#1033,#273);
#211=VECTOR('',#701,10.);
#212=VECTOR('',#702,10.);
#213=VECTOR('',#703,10.);
#214=VECTOR('',#704,10.);
#215=VECTOR('',#707,10.);
#216=VECTOR('',#708,10.);
#217=VECTOR('',#709,10.);
#218=VECTOR('',#712,10.);
#219=VECTOR('',#713,10.);
#220=VECTOR('',#714,10.);
#221=VECTOR('',#717,10.);
#222=VECTOR('',#718,10.);
#223=VECTOR('',#719,10.);
#224=VECTOR('',#722,10.);
#225=VECTOR('',#723,10.);
#226=VECTOR('',#724,10.);
#227=VECTOR('',#727,10.);
#228=VECTOR('',#728,10.);
#229=VECTOR('',#739,10.);
#230=VECTOR('',#740,10.);
#231=VECTOR('',#741,10.);
#232=VECTOR('',#742,10.);
#233=VECTOR('',#745,10.);
#234=VECTOR('',#746,10.);
#235=VECTOR('',#747,10.);
#236=VECTOR('',#750,10.);
#237=VECTOR('',#751,10.);
#238=VECTOR('',#752,10.);
#239=VECTOR('',#755,10.);
#240=VECTOR('',#756,10.);
#241=VECTOR('',#757,10.);
#242=VECTOR('',#760,10.);
#243=VECTOR('',#761,10.);
#244=VECTOR('',#762,10.);
#245=VECTOR('',#765,10.);
#246=VECTOR('',#766,10.);
#247=VECTOR('',#777,2.75);
#248=VECTOR('',#782,2.75);
#249=VECTOR('',#789,11.5);
#250=VECTOR('',#796,1.75);
#251=VECTOR('',#803,1.75);
#252=VECTOR('',#810,1.75);
#253=VECTOR('',#817,1.75);
#254=VECTOR('',#824,2.75);
#255=VECTOR('',#829,2.75);
#256=VECTOR('',#832,10.);
#257=VECTOR('',#833,10.);
#258=VECTOR('',#834,10.);
#259=VECTOR('',#835,10.);
#260=VECTOR('',#838,10.);
#261=VECTOR('',#839,10.);
#262=VECTOR('',#840,10.);
#263=VECTOR('',#843,10.);
#264=VECTOR('',#844,10.);
#265=VECTOR('',#845,10.);
#266=VECTOR('',#846,10.);
#267=VECTOR('',#849,10.);
#268=VECTOR('',#850,10.);
#269=VECTOR('',#851,10.);
#270=VECTOR('',#854,10.);
#271=VECTOR('',#855,10.);
#272=VECTOR('',#858,10.);
#273=VECTOR('',#859,10.);
#274=VERTEX_POINT('',#869);
#275=VERTEX_POINT('',#870);
#276=VERTEX_POINT('',#872);
#277=VERTEX_POINT('',#874);
#278=VERTEX_POINT('',#878);
#279=VERTEX_POINT('',#880);
#280=VERTEX_POINT('',#884);
#281=VERTEX_POINT('',#886);
#282=VERTEX_POINT('',#890);
#283=VERTEX_POINT('',#892);
#284=VERTEX_POINT('',#896);
#285=VERTEX_POINT('',#898);
#286=VERTEX_POINT('',#905);
#287=VERTEX_POINT('',#908);
#288=VERTEX_POINT('',#911);
#289=VERTEX_POINT('',#912);
#290=VERTEX_POINT('',#914);
#291=VERTEX_POINT('',#916);
#292=VERTEX_POINT('',#920);
#293=VERTEX_POINT('',#922);
#294=VERTEX_POINT('',#926);
#295=VERTEX_POINT('',#928);
#296=VERTEX_POINT('',#932);
#297=VERTEX_POINT('',#934);
#298=VERTEX_POINT('',#938);
#299=VERTEX_POINT('',#940);
#300=VERTEX_POINT('',#947);
#301=VERTEX_POINT('',#950);
#302=VERTEX_POINT('',#953);
#303=VERTEX_POINT('',#957);
#304=VERTEX_POINT('',#961);
#305=VERTEX_POINT('',#963);
#306=VERTEX_POINT('',#967);
#307=VERTEX_POINT('',#969);
#308=VERTEX_POINT('',#973);
#309=VERTEX_POINT('',#975);
#310=VERTEX_POINT('',#979);
#311=VERTEX_POINT('',#981);
#312=VERTEX_POINT('',#985);
#313=VERTEX_POINT('',#987);
#314=VERTEX_POINT('',#991);
#315=VERTEX_POINT('',#995);
#316=VERTEX_POINT('',#999);
#317=VERTEX_POINT('',#1000);
#318=VERTEX_POINT('',#1002);
#319=VERTEX_POINT('',#1004);
#320=VERTEX_POINT('',#1008);
#321=VERTEX_POINT('',#1009);
#322=VERTEX_POINT('',#1014);
#323=VERTEX_POINT('',#1015);
#324=VERTEX_POINT('',#1017);
#325=VERTEX_POINT('',#1019);
#326=VERTEX_POINT('',#1023);
#327=VERTEX_POINT('',#1028);
#328=EDGE_CURVE('',#274,#275,#148,.T.);
#329=EDGE_CURVE('',#275,#276,#149,.T.);
#330=EDGE_CURVE('',#276,#277,#150,.T.);
#331=EDGE_CURVE('',#274,#277,#151,.T.);
#332=EDGE_CURVE('',#275,#278,#152,.T.);
#333=EDGE_CURVE('',#278,#279,#153,.T.);
#334=EDGE_CURVE('',#279,#276,#154,.T.);
#335=EDGE_CURVE('',#278,#280,#155,.T.);
#336=EDGE_CURVE('',#280,#281,#156,.T.);
#337=EDGE_CURVE('',#281,#279,#157,.T.);
#338=EDGE_CURVE('',#280,#282,#158,.T.);
#339=EDGE_CURVE('',#282,#283,#159,.T.);
#340=EDGE_CURVE('',#283,#281,#160,.T.);
#341=EDGE_CURVE('',#282,#284,#161,.T.);
#342=EDGE_CURVE('',#284,#285,#162,.T.);
#343=EDGE_CURVE('',#285,#283,#163,.T.);
#344=EDGE_CURVE('',#284,#274,#164,.T.);
#345=EDGE_CURVE('',#277,#285,#165,.T.);
#346=EDGE_CURVE('',#286,#286,#46,.T.);
#347=EDGE_CURVE('',#287,#287,#47,.T.);
#348=EDGE_CURVE('',#288,#289,#166,.T.);
#349=EDGE_CURVE('',#289,#290,#167,.T.);
#350=EDGE_CURVE('',#290,#291,#168,.T.);
#351=EDGE_CURVE('',#288,#291,#169,.T.);
#352=EDGE_CURVE('',#289,#292,#170,.T.);
#353=EDGE_CURVE('',#292,#293,#171,.T.);
#354=EDGE_CURVE('',#293,#290,#172,.T.);
#355=EDGE_CURVE('',#292,#294,#173,.T.);
#356=EDGE_CURVE('',#294,#295,#174,.T.);
#357=EDGE_CURVE('',#295,#293,#175,.T.);
#358=EDGE_CURVE('',#294,#296,#176,.T.);
#359=EDGE_CURVE('',#296,#297,#177,.T.);
#360=EDGE_CURVE('',#297,#295,#178,.T.);
#361=EDGE_CURVE('',#296,#298,#179,.T.);
#362=EDGE_CURVE('',#298,#299,#180,.T.);
#363=EDGE_CURVE('',#299,#297,#181,.T.);
#364=EDGE_CURVE('',#298,#288,#182,.T.);
#365=EDGE_CURVE('',#291,#299,#183,.T.);
#366=EDGE_CURVE('',#300,#300,#48,.T.);
#367=EDGE_CURVE('',#301,#301,#49,.T.);
#368=EDGE_CURVE('',#287,#302,#184,.T.);
#369=EDGE_CURVE('',#302,#302,#50,.T.);
#370=EDGE_CURVE('',#301,#303,#185,.T.);
#371=EDGE_CURVE('',#303,#303,#51,.T.);
#372=EDGE_CURVE('',#304,#304,#52,.T.);
#373=EDGE_CURVE('',#304,#305,#186,.T.);
#374=EDGE_CURVE('',#305,#305,#53,.T.);
#375=EDGE_CURVE('',#306,#306,#54,.T.);
#376=EDGE_CURVE('',#306,#307,#187,.T.);
#377=EDGE_CURVE('',#307,#307,#55,.T.);
#378=EDGE_CURVE('',#308,#308,#56,.T.);
#379=EDGE_CURVE('',#308,#309,#188,.T.);
#380=EDGE_CURVE('',#309,#309,#57,.T.);
#381=EDGE_CURVE('',#310,#310,#58,.T.);
#382=EDGE_CURVE('',#310,#311,#189,.T.);
#383=EDGE_CURVE('',#311,#311,#59,.T.);
#384=EDGE_CURVE('',#312,#312,#60,.T.);
#385=EDGE_CURVE('',#312,#313,#190,.T.);
#386=EDGE_CURVE('',#313,#313,#61,.T.);
#387=EDGE_CURVE('',#314,#314,#62,.T.);
#388=EDGE_CURVE('',#314,#286,#191,.T.);
#389=EDGE_CURVE('',#315,#315,#63,.T.);
#390=EDGE_CURVE('',#315,#300,#192,.T.);
#391=EDGE_CURVE('',#316,#317,#193,.T.);
#392=EDGE_CURVE('',#316,#318,#194,.T.);
#393=EDGE_CURVE('',#319,#318,#195,.T.);
#394=EDGE_CURVE('',#317,#319,#196,.T.);
#395=EDGE_CURVE('',#320,#321,#197,.T.);
#396=EDGE_CURVE('',#321,#319,#198,.T.);
#397=EDGE_CURVE('',#318,#320,#199,.T.);
#398=EDGE_CURVE('',#322,#323,#200,.T.);
#399=EDGE_CURVE('',#322,#324,#201,.T.);
#400=EDGE_CURVE('',#325,#324,#202,.T.);
#401=EDGE_CURVE('',#323,#325,#203,.T.);
#402=EDGE_CURVE('',#323,#326,#204,.T.);
#403=EDGE_CURVE('',#317,#325,#205,.T.);
#404=EDGE_CURVE('',#326,#321,#206,.T.);
#405=EDGE_CURVE('',#326,#327,#207,.T.);
#406=EDGE_CURVE('',#327,#320,#208,.T.);
#407=EDGE_CURVE('',#327,#322,#209,.T.);
#408=EDGE_CURVE('',#324,#316,#210,.T.);
#409=ORIENTED_EDGE('',*,*,#328,.T.);
#410=ORIENTED_EDGE('',*,*,#329,.T.);
#411=ORIENTED_EDGE('',*,*,#330,.T.);
#412=ORIENTED_EDGE('',*,*,#331,.F.);
#413=ORIENTED_EDGE('',*,*,#332,.T.);
#414=ORIENTED_EDGE('',*,*,#333,.T.);
#415=ORIENTED_EDGE('',*,*,#334,.T.);
#416=ORIENTED_EDGE('',*,*,#329,.F.);
#417=ORIENTED_EDGE('',*,*,#335,.T.);
#418=ORIENTED_EDGE('',*,*,#336,.T.);
#419=ORIENTED_EDGE('',*,*,#337,.T.);
#420=ORIENTED_EDGE('',*,*,#333,.F.);
#421=ORIENTED_EDGE('',*,*,#338,.T.);
#422=ORIENTED_EDGE('',*,*,#339,.T.);
#423=ORIENTED_EDGE('',*,*,#340,.T.);
#424=ORIENTED_EDGE('',*,*,#336,.F.);
#425=ORIENTED_EDGE('',*,*,#341,.T.);
#426=ORIENTED_EDGE('',*,*,#342,.T.);
#427=ORIENTED_EDGE('',*,*,#343,.T.);
#428=ORIENTED_EDGE('',*,*,#339,.F.);
#429=ORIENTED_EDGE('',*,*,#344,.T.);
#430=ORIENTED_EDGE('',*,*,#331,.T.);
#431=ORIENTED_EDGE('',*,*,#345,.T.);
#432=ORIENTED_EDGE('',*,*,#342,.F.);
#433=ORIENTED_EDGE('',*,*,#344,.F.);
#434=ORIENTED_EDGE('',*,*,#341,.F.);
#435=ORIENTED_EDGE('',*,*,#338,.F.);
#436=ORIENTED_EDGE('',*,*,#335,.F.);
#437=ORIENTED_EDGE('',*,*,#332,.F.);
#438=ORIENTED_EDGE('',*,*,#328,.F.);
#439=ORIENTED_EDGE('',*,*,#346,.F.);
#440=ORIENTED_EDGE('',*,*,#345,.F.);
#441=ORIENTED_EDGE('',*,*,#330,.F.);
#442=ORIENTED_EDGE('',*,*,#334,.F.);
#443=ORIENTED_EDGE('',*,*,#337,.F.);
#444=ORIENTED_EDGE('',*,*,#340,.F.);
#445=ORIENTED_EDGE('',*,*,#343,.F.);
#446=ORIENTED_EDGE('',*,*,#347,.F.);
#447=ORIENTED_EDGE('',*,*,#348,.T.);
#448=ORIENTED_EDGE('',*,*,#349,.T.);
#449=ORIENTED_EDGE('',*,*,#350,.T.);
#450=ORIENTED_EDGE('',*,*,#351,.F.);
#451=ORIENTED_EDGE('',*,*,#352,.T.);
#452=ORIENTED_EDGE('',*,*,#353,.T.);
#453=ORIENTED_EDGE('',*,*,#354,.T.);
#454=ORIENTED_EDGE('',*,*,#349,.F.);
#455=ORIENTED_EDGE('',*,*,#355,.T.);
#456=ORIENTED_EDGE('',*,*,#356,.T.);
#457=ORIENTED_EDGE('',*,*,#357,.T.);
#458=ORIENTED_EDGE('',*,*,#353,.F.);
#459=ORIENTED_EDGE('',*,*,#358,.T.);
#460=ORIENTED_EDGE('',*,*,#359,.T.);
#461=ORIENTED_EDGE('',*,*,#360,.T.);
#462=ORIENTED_EDGE('',*,*,#356,.F.);
#463=ORIENTED_EDGE('',*,*,#361,.T.);
#464=ORIENTED_EDGE('',*,*,#362,.T.);
#465=ORIENTED_EDGE('',*,*,#363,.T.);
#466=ORIENTED_EDGE('',*,*,#359,.F.);
#467=ORIENTED_EDGE('',*,*,#364,.T.);
#468=ORIENTED_EDGE('',*,*,#351,.T.);
#469=ORIENTED_EDGE('',*,*,#365,.T.);
#470=ORIENTED_EDGE('',*,*,#362,.F.);
#471=ORIENTED_EDGE('',*,*,#364,.F.);
#472=ORIENTED_EDGE('',*,*,#361,.F.);
#473=ORIENTED_EDGE('',*,*,#358,.F.);
#474=ORIENTED_EDGE('',*,*,#355,.F.);
#475=ORIENTED_EDGE('',*,*,#352,.F.);
#476=ORIENTED_EDGE('',*,*,#348,.F.);
#477=ORIENTED_EDGE('',*,*,#366,.F.);
#478=ORIENTED_EDGE('',*,*,#365,.F.);
#479=ORIENTED_EDGE('',*,*,#350,.F.);
#480=ORIENTED_EDGE('',*,*,#354,.F.);
#481=ORIENTED_EDGE('',*,*,#357,.F.);
#482=ORIENTED_EDGE('',*,*,#360,.F.);
#483=ORIENTED_EDGE('',*,*,#363,.F.);
#484=ORIENTED_EDGE('',*,*,#367,.F.);
#485=ORIENTED_EDGE('',*,*,#347,.T.);
#486=ORIENTED_EDGE('',*,*,#368,.T.);
#487=ORIENTED_EDGE('',*,*,#369,.F.);
#488=ORIENTED_EDGE('',*,*,#368,.F.);
#489=ORIENTED_EDGE('',*,*,#367,.T.);
#490=ORIENTED_EDGE('',*,*,#370,.T.);
#491=ORIENTED_EDGE('',*,*,#371,.F.);
#492=ORIENTED_EDGE('',*,*,#370,.F.);
#493=ORIENTED_EDGE('',*,*,#372,.F.);
#494=ORIENTED_EDGE('',*,*,#373,.T.);
#495=ORIENTED_EDGE('',*,*,#374,.F.);
#496=ORIENTED_EDGE('',*,*,#373,.F.);
#497=ORIENTED_EDGE('',*,*,#375,.F.);
#498=ORIENTED_EDGE('',*,*,#376,.T.);
#499=ORIENTED_EDGE('',*,*,#377,.F.);
#500=ORIENTED_EDGE('',*,*,#376,.F.);
#501=ORIENTED_EDGE('',*,*,#378,.F.);
#502=ORIENTED_EDGE('',*,*,#379,.T.);
#503=ORIENTED_EDGE('',*,*,#380,.F.);
#504=ORIENTED_EDGE('',*,*,#379,.F.);
#505=ORIENTED_EDGE('',*,*,#381,.F.);
#506=ORIENTED_EDGE('',*,*,#382,.T.);
#507=ORIENTED_EDGE('',*,*,#383,.F.);
#508=ORIENTED_EDGE('',*,*,#382,.F.);
#509=ORIENTED_EDGE('',*,*,#384,.F.);
#510=ORIENTED_EDGE('',*,*,#385,.T.);
#511=ORIENTED_EDGE('',*,*,#386,.F.);
#512=ORIENTED_EDGE('',*,*,#385,.F.);
#513=ORIENTED_EDGE('',*,*,#387,.F.);
#514=ORIENTED_EDGE('',*,*,#388,.T.);
#515=ORIENTED_EDGE('',*,*,#346,.T.);
#516=ORIENTED_EDGE('',*,*,#388,.F.);
#517=ORIENTED_EDGE('',*,*,#389,.F.);
#518=ORIENTED_EDGE('',*,*,#390,.T.);
#519=ORIENTED_EDGE('',*,*,#366,.T.);
#520=ORIENTED_EDGE('',*,*,#390,.F.);
#521=ORIENTED_EDGE('',*,*,#391,.F.);
#522=ORIENTED_EDGE('',*,*,#392,.T.);
#523=ORIENTED_EDGE('',*,*,#393,.F.);
#524=ORIENTED_EDGE('',*,*,#394,.F.);
#525=ORIENTED_EDGE('',*,*,#369,.T.);
#526=ORIENTED_EDGE('',*,*,#371,.T.);
#527=ORIENTED_EDGE('',*,*,#395,.T.);
#528=ORIENTED_EDGE('',*,*,#396,.T.);
#529=ORIENTED_EDGE('',*,*,#393,.T.);
#530=ORIENTED_EDGE('',*,*,#397,.T.);
#531=ORIENTED_EDGE('',*,*,#398,.F.);
#532=ORIENTED_EDGE('',*,*,#399,.T.);
#533=ORIENTED_EDGE('',*,*,#400,.F.);
#534=ORIENTED_EDGE('',*,*,#401,.F.);
#535=ORIENTED_EDGE('',*,*,#402,.F.);
#536=ORIENTED_EDGE('',*,*,#401,.T.);
#537=ORIENTED_EDGE('',*,*,#403,.F.);
#538=ORIENTED_EDGE('',*,*,#394,.T.);
#539=ORIENTED_EDGE('',*,*,#396,.F.);
#540=ORIENTED_EDGE('',*,*,#404,.F.);
#541=ORIENTED_EDGE('',*,*,#405,.F.);
#542=ORIENTED_EDGE('',*,*,#404,.T.);
#543=ORIENTED_EDGE('',*,*,#395,.F.);
#544=ORIENTED_EDGE('',*,*,#406,.F.);
#545=ORIENTED_EDGE('',*,*,#387,.T.);
#546=ORIENTED_EDGE('',*,*,#389,.T.);
#547=ORIENTED_EDGE('',*,*,#407,.F.);
#548=ORIENTED_EDGE('',*,*,#406,.T.);
#549=ORIENTED_EDGE('',*,*,#397,.F.);
#550=ORIENTED_EDGE('',*,*,#392,.F.);
#551=ORIENTED_EDGE('',*,*,#408,.F.);
#552=ORIENTED_EDGE('',*,*,#399,.F.);
#553=ORIENTED_EDGE('',*,*,#391,.T.);
#554=ORIENTED_EDGE('',*,*,#403,.T.);
#555=ORIENTED_EDGE('',*,*,#400,.T.);
#556=ORIENTED_EDGE('',*,*,#408,.T.);
#557=ORIENTED_EDGE('',*,*,#372,.T.);
#558=ORIENTED_EDGE('',*,*,#375,.T.);
#559=ORIENTED_EDGE('',*,*,#378,.T.);
#560=ORIENTED_EDGE('',*,*,#381,.T.);
#561=ORIENTED_EDGE('',*,*,#384,.T.);
#562=ORIENTED_EDGE('',*,*,#407,.T.);
#563=ORIENTED_EDGE('',*,*,#398,.T.);
#564=ORIENTED_EDGE('',*,*,#402,.T.);
#565=ORIENTED_EDGE('',*,*,#405,.T.);
#566=ORIENTED_EDGE('',*,*,#374,.T.);
#567=ORIENTED_EDGE('',*,*,#377,.T.);
#568=ORIENTED_EDGE('',*,*,#380,.T.);
#569=ORIENTED_EDGE('',*,*,#383,.T.);
#570=ORIENTED_EDGE('',*,*,#386,.T.);
#571=PLANE('',#643);
#572=PLANE('',#644);
#573=PLANE('',#645);
#574=PLANE('',#646);
#575=PLANE('',#647);
#576=PLANE('',#648);
#577=PLANE('',#649);
#578=PLANE('',#651);
#579=PLANE('',#653);
#580=PLANE('',#654);
#581=PLANE('',#655);
#582=PLANE('',#656);
#583=PLANE('',#657);
#584=PLANE('',#658);
#585=PLANE('',#659);
#586=PLANE('',#661);
#587=PLANE('',#686);
#588=PLANE('',#687);
#589=PLANE('',#688);
#590=PLANE('',#689);
#591=PLANE('',#690);
#592=PLANE('',#691);
#593=PLANE('',#692);
#594=PLANE('',#693);
#595=ADVANCED_FACE('',(#64),#571,.F.);
#596=ADVANCED_FACE('',(#65),#572,.F.);
#597=ADVANCED_FACE('',(#66),#573,.F.);
#598=ADVANCED_FACE('',(#67),#574,.F.);
#599=ADVANCED_FACE('',(#68),#575,.F.);
#600=ADVANCED_FACE('',(#69),#576,.F.);
#601=ADVANCED_FACE('',(#70,#28),#577,.F.);
#602=ADVANCED_FACE('',(#71,#29),#578,.T.);
#603=ADVANCED_FACE('',(#72),#579,.F.);
#604=ADVANCED_FACE('',(#73),#580,.F.);
#605=ADVANCED_FACE('',(#74),#581,.F.);
#606=ADVANCED_FACE('',(#75),#582,.F.);
#607=ADVANCED_FACE('',(#76),#583,.F.);
#608=ADVANCED_FACE('',(#77),#584,.F.);
#609=ADVANCED_FACE('',(#78,#30),#585,.F.);
#610=ADVANCED_FACE('',(#79,#31),#586,.T.);
#611=ADVANCED_FACE('',(#80),#19,.F.);
#612=ADVANCED_FACE('',(#81),#20,.F.);
#613=ADVANCED_FACE('',(#82),#21,.F.);
#614=ADVANCED_FACE('',(#83),#22,.F.);
#615=ADVANCED_FACE('',(#84),#23,.F.);
#616=ADVANCED_FACE('',(#85),#24,.F.);
#617=ADVANCED_FACE('',(#86),#25,.F.);
#618=ADVANCED_FACE('',(#87),#26,.F.);
#619=ADVANCED_FACE('',(#88),#27,.F.);
#620=ADVANCED_FACE('',(#89,#32,#33),#587,.T.);
#621=ADVANCED_FACE('',(#90),#588,.T.);
#622=ADVANCED_FACE('',(#91),#589,.T.);
#623=ADVANCED_FACE('',(#92),#590,.T.);
#624=ADVANCED_FACE('',(#93,#34,#35),#591,.T.);
#625=ADVANCED_FACE('',(#94),#592,.T.);
#626=ADVANCED_FACE('',(#95,#36,#37,#38,#39,#40),#593,.T.);
#627=ADVANCED_FACE('',(#96,#41,#42,#43,#44,#45),#594,.F.);
#628=CLOSED_SHELL('',(#595,#596,#597,#598,#599,#600,#601,#602,#603,#604,
#605,#606,#607,#608,#609,#610,#611,#612,#613,#614,#615,#616,#617,#618,#619,
#620,#621,#622,#623,#624,#625,#626,#627));
#629=DERIVED_UNIT_ELEMENT(#631,1.);
#630=DERIVED_UNIT_ELEMENT(#1044,-3.);
#631=(
MASS_UNIT()
NAMED_UNIT(*)
SI_UNIT(.KILO.,.GRAM.)
);
#632=DERIVED_UNIT((#629,#630));
#633=MEASURE_REPRESENTATION_ITEM('density measure',
POSITIVE_RATIO_MEASURE(7850.),#632);
#634=PROPERTY_DEFINITION_REPRESENTATION(#639,#636);
#635=PROPERTY_DEFINITION_REPRESENTATION(#640,#637);
#636=REPRESENTATION('material name',(#638),#1041);
#637=REPRESENTATION('density',(#633),#1041);
#638=DESCRIPTIVE_REPRESENTATION_ITEM('Steel','Steel');
#639=PROPERTY_DEFINITION('material property','material name',#1056);
#640=PROPERTY_DEFINITION('material property','density of part',#1056);
#641=AXIS2_PLACEMENT_3D('',#866,#695,#696);
#642=AXIS2_PLACEMENT_3D('',#867,#697,#698);
#643=AXIS2_PLACEMENT_3D('',#868,#699,#700);
#644=AXIS2_PLACEMENT_3D('',#877,#705,#706);
#645=AXIS2_PLACEMENT_3D('',#883,#710,#711);
#646=AXIS2_PLACEMENT_3D('',#889,#715,#716);
#647=AXIS2_PLACEMENT_3D('',#895,#720,#721);
#648=AXIS2_PLACEMENT_3D('',#901,#725,#726);
#649=AXIS2_PLACEMENT_3D('',#904,#729,#730);
#650=AXIS2_PLACEMENT_3D('',#906,#731,#732);
#651=AXIS2_PLACEMENT_3D('',#907,#733,#734);
#652=AXIS2_PLACEMENT_3D('',#909,#735,#736);
#653=AXIS2_PLACEMENT_3D('',#910,#737,#738);
#654=AXIS2_PLACEMENT_3D('',#919,#743,#744);
#655=AXIS2_PLACEMENT_3D('',#925,#748,#749);
#656=AXIS2_PLACEMENT_3D('',#931,#753,#754);
#657=AXIS2_PLACEMENT_3D('',#937,#758,#759);
#658=AXIS2_PLACEMENT_3D('',#943,#763,#764);
#659=AXIS2_PLACEMENT_3D('',#946,#767,#768);
#660=AXIS2_PLACEMENT_3D('',#948,#769,#770);
#661=AXIS2_PLACEMENT_3D('',#949,#771,#772);
#662=AXIS2_PLACEMENT_3D('',#951,#773,#774);
#663=AXIS2_PLACEMENT_3D('',#952,#775,#776);
#664=AXIS2_PLACEMENT_3D('',#955,#778,#779);
#665=AXIS2_PLACEMENT_3D('',#956,#780,#781);
#666=AXIS2_PLACEMENT_3D('',#959,#783,#784);
#667=AXIS2_PLACEMENT_3D('',#960,#785,#786);
#668=AXIS2_PLACEMENT_3D('',#962,#787,#788);
#669=AXIS2_PLACEMENT_3D('',#965,#790,#791);
#670=AXIS2_PLACEMENT_3D('',#966,#792,#793);
#671=AXIS2_PLACEMENT_3D('',#968,#794,#795);
#672=AXIS2_PLACEMENT_3D('',#971,#797,#798);
#673=AXIS2_PLACEMENT_3D('',#972,#799,#800);
#674=AXIS2_PLACEMENT_3D('',#974,#801,#802);
#675=AXIS2_PLACEMENT_3D('',#977,#804,#805);
#676=AXIS2_PLACEMENT_3D('',#978,#806,#807);
#677=AXIS2_PLACEMENT_3D('',#980,#808,#809);
#678=AXIS2_PLACEMENT_3D('',#983,#811,#812);
#679=AXIS2_PLACEMENT_3D('',#984,#813,#814);
#680=AXIS2_PLACEMENT_3D('',#986,#815,#816);
#681=AXIS2_PLACEMENT_3D('',#989,#818,#819);
#682=AXIS2_PLACEMENT_3D('',#990,#820,#821);
#683=AXIS2_PLACEMENT_3D('',#992,#822,#823);
#684=AXIS2_PLACEMENT_3D('',#994,#825,#826);
#685=AXIS2_PLACEMENT_3D('',#996,#827,#828);
#686=AXIS2_PLACEMENT_3D('',#998,#830,#831);
#687=AXIS2_PLACEMENT_3D('',#1007,#836,#837);
#688=AXIS2_PLACEMENT_3D('',#1013,#841,#842);
#689=AXIS2_PLACEMENT_3D('',#1022,#847,#848);
#690=AXIS2_PLACEMENT_3D('',#1027,#852,#853);
#691=AXIS2_PLACEMENT_3D('',#1031,#856,#857);
#692=AXIS2_PLACEMENT_3D('',#1034,#860,#861);
#693=AXIS2_PLACEMENT_3D('',#1035,#862,#863);
#694=AXIS2_PLACEMENT_3D('',#1036,#864,#865);
#695=DIRECTION('axis',(0.,0.,1.));
#696=DIRECTION('refdir',(1.,0.,0.));
#697=DIRECTION('axis',(0.,0.,1.));
#698=DIRECTION('refdir',(1.,0.,0.));
#699=DIRECTION('center_axis',(0.,0.866025403784436,-0.500000000000004));
#700=DIRECTION('ref_axis',(-1.3220368468887E-16,-0.500000000000004,-0.866025403784436));
#701=DIRECTION('',(1.3220368468887E-16,0.500000000000004,0.866025403784436));
#702=DIRECTION('',(-1.,0.,0.));
#703=DIRECTION('',(-1.3220368468887E-16,-0.500000000000004,-0.866025403784436));
#704=DIRECTION('',(-1.,0.,0.));
#705=DIRECTION('center_axis',(0.,0.866025403784437,0.500000000000003));
#706=DIRECTION('ref_axis',(-1.32203684688869E-16,0.500000000000003,-0.866025403784437));
#707=DIRECTION('',(1.32203684688869E-16,-0.500000000000003,0.866025403784437));
#708=DIRECTION('',(-1.,0.,0.));
#709=DIRECTION('',(-1.32203684688869E-16,0.500000000000003,-0.866025403784437));
#710=DIRECTION('center_axis',(0.,-2.19009809428013E-17,1.));
#711=DIRECTION('ref_axis',(7.92204214050382E-31,1.,2.19009809428013E-17));
#712=DIRECTION('',(-7.92204214050382E-31,-1.,-2.19009809428013E-17));
#713=DIRECTION('',(-1.,0.,0.));
#714=DIRECTION('',(7.92204214050382E-31,1.,2.19009809428013E-17));
#715=DIRECTION('center_axis',(0.,-0.866025403784438,0.5));
#716=DIRECTION('ref_axis',(1.3220368468887E-16,0.5,0.866025403784438));
#717=DIRECTION('',(-1.3220368468887E-16,-0.5,-0.866025403784438));
#718=DIRECTION('',(-1.,0.,0.));
#719=DIRECTION('',(1.3220368468887E-16,0.5,0.866025403784438));
#720=DIRECTION('center_axis',(0.,-0.866025403784439,-0.499999999999999));
#721=DIRECTION('ref_axis',(1.3220368468887E-16,-0.499999999999999,0.866025403784439));
#722=DIRECTION('',(-1.3220368468887E-16,0.499999999999999,-0.866025403784439));
#723=DIRECTION('',(-1.,0.,0.));
#724=DIRECTION('',(1.3220368468887E-16,-0.499999999999999,0.866025403784439));
#725=DIRECTION('center_axis',(0.,2.19009809428013E-17,-1.));
#726=DIRECTION('ref_axis',(-7.92204214050382E-31,-1.,-2.19009809428013E-17));
#727=DIRECTION('',(7.92204214050382E-31,1.,2.19009809428013E-17));
#728=DIRECTION('',(-7.92204214050382E-31,-1.,-2.19009809428013E-17));
#729=DIRECTION('center_axis',(1.,-7.88860905221003E-31,-1.52655665885959E-16));
#730=DIRECTION('ref_axis',(7.92204214050382E-31,1.,2.19009809428013E-17));
#731=DIRECTION('center_axis',(-1.,7.88860905221003E-31,1.52655665885959E-16));
#732=DIRECTION('ref_axis',(0.,1.,0.));
#733=DIRECTION('center_axis',(1.,-7.88860905221003E-31,-1.52655665885959E-16));
#734=DIRECTION('ref_axis',(7.92204214050382E-31,1.,2.19009809428013E-17));
#735=DIRECTION('center_axis',(1.,-7.88860905221003E-31,-1.52655665885959E-16));
#736=DIRECTION('ref_axis',(0.,1.,0.));
#737=DIRECTION('center_axis',(0.,0.86602540378444,-0.499999999999998));
#738=DIRECTION('ref_axis',(-1.32203684688871E-16,-0.499999999999998,-0.86602540378444));
#739=DIRECTION('',(1.32203684688871E-16,0.499999999999998,0.86602540378444));
#740=DIRECTION('',(-1.,0.,0.));
#741=DIRECTION('',(-1.32203684688871E-16,-0.499999999999998,-0.86602540378444));
#742=DIRECTION('',(-1.,0.,0.));
#743=DIRECTION('center_axis',(0.,0.866025403784441,0.499999999999997));
#744=DIRECTION('ref_axis',(-1.3220368468887E-16,0.499999999999997,-0.86602540378444));
#745=DIRECTION('',(1.3220368468887E-16,-0.499999999999997,0.86602540378444));
#746=DIRECTION('',(-1.,0.,0.));
#747=DIRECTION('',(-1.3220368468887E-16,0.499999999999997,-0.86602540378444));
#748=DIRECTION('center_axis',(0.,-2.19009809428013E-17,1.));
#749=DIRECTION('ref_axis',(7.92204214050382E-31,1.,2.19009809428013E-17));
#750=DIRECTION('',(-7.92204214050382E-31,-1.,-2.19009809428013E-17));
#751=DIRECTION('',(-1.,0.,0.));
#752=DIRECTION('',(7.92204214050382E-31,1.,2.19009809428013E-17));
#753=DIRECTION('center_axis',(0.,-0.866025403784438,0.500000000000001));
#754=DIRECTION('ref_axis',(1.3220368468887E-16,0.500000000000001,0.866025403784438));
#755=DIRECTION('',(-1.3220368468887E-16,-0.500000000000001,-0.866025403784438));
#756=DIRECTION('',(-1.,0.,0.));
#757=DIRECTION('',(1.3220368468887E-16,0.500000000000001,0.866025403784438));
#758=DIRECTION('center_axis',(0.,-0.866025403784439,-0.5));
#759=DIRECTION('ref_axis',(1.3220368468887E-16,-0.5,0.866025403784439));
#760=DIRECTION('',(-1.3220368468887E-16,0.5,-0.866025403784439));
#761=DIRECTION('',(-1.,0.,0.));
#762=DIRECTION('',(1.3220368468887E-16,-0.5,0.866025403784439));
#763=DIRECTION('center_axis',(0.,2.19009809428013E-17,-1.));
#764=DIRECTION('ref_axis',(-7.92204214050382E-31,-1.,-2.19009809428013E-17));
#765=DIRECTION('',(7.92204214050382E-31,1.,2.19009809428013E-17));
#766=DIRECTION('',(-7.92204214050382E-31,-1.,-2.19009809428013E-17));
#767=DIRECTION('center_axis',(1.,-7.88860905221003E-31,-1.52655665885959E-16));
#768=DIRECTION('ref_axis',(7.92204214050382E-31,1.,2.19009809428013E-17));
#769=DIRECTION('center_axis',(-1.,7.88860905221003E-31,1.52655665885959E-16));
#770=DIRECTION('ref_axis',(0.,1.,0.));
#771=DIRECTION('center_axis',(1.,-7.88860905221003E-31,-1.52655665885959E-16));
#772=DIRECTION('ref_axis',(7.92204214050382E-31,1.,2.19009809428013E-17));
#773=DIRECTION('center_axis',(1.,-7.88860905221003E-31,-1.52655665885959E-16));
#774=DIRECTION('ref_axis',(0.,1.,0.));
#775=DIRECTION('center_axis',(-1.,0.,0.));
#776=DIRECTION('ref_axis',(0.,1.,0.));
#777=DIRECTION('',(-1.,0.,0.));
#778=DIRECTION('center_axis',(1.,0.,0.));
#779=DIRECTION('ref_axis',(0.,1.,0.));
#780=DIRECTION('center_axis',(-1.,0.,0.));
#781=DIRECTION('ref_axis',(0.,1.,0.));
#782=DIRECTION('',(-1.,0.,0.));
#783=DIRECTION('center_axis',(1.,0.,0.));
#784=DIRECTION('ref_axis',(0.,1.,0.));
#785=DIRECTION('center_axis',(0.,0.,-1.));
#786=DIRECTION('ref_axis',(-1.,0.,0.));
#787=DIRECTION('center_axis',(0.,0.,-1.));
#788=DIRECTION('ref_axis',(-1.,0.,0.));
#789=DIRECTION('',(0.,0.,-1.));
#790=DIRECTION('center_axis',(0.,0.,1.));
#791=DIRECTION('ref_axis',(-1.,0.,0.));
#792=DIRECTION('center_axis',(0.,0.,-1.));
#793=DIRECTION('ref_axis',(-1.,0.,0.));
#794=DIRECTION('center_axis',(0.,0.,-1.));
#795=DIRECTION('ref_axis',(-1.,0.,0.));
#796=DIRECTION('',(0.,0.,-1.));
#797=DIRECTION('center_axis',(0.,0.,1.));
#798=DIRECTION('ref_axis',(-1.,0.,0.));
#799=DIRECTION('center_axis',(0.,0.,-1.));
#800=DIRECTION('ref_axis',(-1.,0.,0.));
#801=DIRECTION('center_axis',(0.,0.,-1.));
#802=DIRECTION('ref_axis',(-1.,0.,0.));
#803=DIRECTION('',(0.,0.,-1.));
#804=DIRECTION('center_axis',(0.,0.,1.));
#805=DIRECTION('ref_axis',(-1.,0.,0.));
#806=DIRECTION('center_axis',(0.,0.,-1.));
#807=DIRECTION('ref_axis',(-1.,0.,0.));
#808=DIRECTION('center_axis',(0.,0.,-1.));
#809=DIRECTION('ref_axis',(-1.,0.,0.));
#810=DIRECTION('',(0.,0.,-1.));
#811=DIRECTION('center_axis',(0.,0.,1.));
#812=DIRECTION('ref_axis',(-1.,0.,0.));
#813=DIRECTION('center_axis',(0.,0.,-1.));
#814=DIRECTION('ref_axis',(-1.,0.,0.));
#815=DIRECTION('center_axis',(0.,0.,-1.));
#816=DIRECTION('ref_axis',(-1.,0.,0.));
#817=DIRECTION('',(0.,0.,-1.));
#818=DIRECTION('center_axis',(0.,0.,1.));
#819=DIRECTION('ref_axis',(-1.,0.,0.));
#820=DIRECTION('center_axis',(-1.,0.,0.));
#821=DIRECTION('ref_axis',(0.,1.,0.));
#822=DIRECTION('center_axis',(-1.,0.,0.));
#823=DIRECTION('ref_axis',(0.,1.,0.));
#824=DIRECTION('',(-1.,0.,0.));
#825=DIRECTION('center_axis',(-1.,0.,0.));
#826=DIRECTION('ref_axis',(0.,1.,0.));
#827=DIRECTION('center_axis',(-1.,0.,0.));
#828=DIRECTION('ref_axis',(0.,1.,0.));
#829=DIRECTION('',(-1.,0.,0.));
#830=DIRECTION('center_axis',(-1.,0.,0.));
#831=DIRECTION('ref_axis',(0.,-1.,0.));
#832=DIRECTION('',(0.,1.,0.));
#833=DIRECTION('',(0.,0.,1.));
#834=DIRECTION('',(0.,-1.,0.));
#835=DIRECTION('',(0.,0.,1.));
#836=DIRECTION('center_axis',(0.,0.,1.));
#837=DIRECTION('ref_axis',(1.,0.,0.));
#838=DIRECTION('',(6.93889390390723E-17,1.,0.));
#839=DIRECTION('',(-1.,0.,0.));
#840=DIRECTION('',(1.,0.,0.));
#841=DIRECTION('center_axis',(-1.,1.38777878078145E-16,0.));
#842=DIRECTION('ref_axis',(-1.38777878078145E-16,-1.,0.));
#843=DIRECTION('',(1.38777878078145E-16,1.,0.));
#844=DIRECTION('',(0.,0.,1.));
#845=DIRECTION('',(-1.38777878078145E-16,-1.,0.));
#846=DIRECTION('',(0.,0.,1.));
#847=DIRECTION('center_axis',(0.,1.,0.));
#848=DIRECTION('ref_axis',(-1.,0.,0.));
#849=DIRECTION('',(1.,0.,0.));
#850=DIRECTION('',(-1.,0.,0.));
#851=DIRECTION('',(0.,0.,1.));
#852=DIRECTION('center_axis',(1.,0.,0.));
#853=DIRECTION('ref_axis',(0.,1.,0.));
#854=DIRECTION('',(0.,-1.,0.));
#855=DIRECTION('',(0.,0.,1.));
#856=DIRECTION('center_axis',(0.,-1.,0.));
#857=DIRECTION('ref_axis',(1.,0.,0.));
#858=DIRECTION('',(-1.,0.,0.));
#859=DIRECTION('',(1.,0.,0.));
#860=DIRECTION('center_axis',(0.,0.,1.));
#861=DIRECTION('ref_axis',(1.,0.,0.));
#862=DIRECTION('center_axis',(0.,0.,1.));
#863=DIRECTION('ref_axis',(-1.,0.,0.));
#864=DIRECTION('',(-8.88145151308667E-16,1.26597693520736E-29,1.));
#865=DIRECTION('',(0.999999999999998,7.8886090522101E-31,1.52655665885959E-16));
#866=CARTESIAN_POINT('',(0.,0.,0.));
#867=CARTESIAN_POINT('',(0.,0.,0.));
#868=CARTESIAN_POINT('Origin',(14.5000000000001,85.972614131982,189.5));
#869=CARTESIAN_POINT('',(14.5000000000001,83.6863070659911,185.54));
#870=CARTESIAN_POINT('',(14.5000000000001,85.972614131982,189.5));
#871=CARTESIAN_POINT('',(14.5000000000001,83.6863070659911,185.54));
#872=CARTESIAN_POINT('',(10.5100000000001,85.972614131982,189.5));
#873=CARTESIAN_POINT('',(14.5000000000001,85.972614131982,189.5));
#874=CARTESIAN_POINT('',(10.5100000000001,83.6863070659911,185.54));
#875=CARTESIAN_POINT('',(10.5100000000001,83.6863070659911,185.54));
#876=CARTESIAN_POINT('',(14.5000000000001,83.6863070659911,185.54));
#877=CARTESIAN_POINT('Origin',(14.5000000000001,83.6863070659911,193.46));
#878=CARTESIAN_POINT('',(14.5000000000001,83.6863070659911,193.46));
#879=CARTESIAN_POINT('',(14.5000000000001,85.972614131982,189.5));
#880=CARTESIAN_POINT('',(10.5100000000001,83.6863070659911,193.46));
#881=CARTESIAN_POINT('',(14.5000000000001,83.6863070659911,193.46));
#882=CARTESIAN_POINT('',(10.5100000000001,85.972614131982,189.5));
#883=CARTESIAN_POINT('Origin',(14.5000000000001,79.1136929340092,193.46));
#884=CARTESIAN_POINT('',(14.5000000000001,79.1136929340092,193.46));
#885=CARTESIAN_POINT('',(14.5000000000001,83.6863070659911,193.46));
#886=CARTESIAN_POINT('',(10.5100000000001,79.1136929340092,193.46));
#887=CARTESIAN_POINT('',(14.5000000000001,79.1136929340092,193.46));
#888=CARTESIAN_POINT('',(10.5100000000001,83.6863070659911,193.46));
#889=CARTESIAN_POINT('Origin',(14.5000000000001,76.8273858680183,189.5));
#890=CARTESIAN_POINT('',(14.5000000000001,76.8273858680183,189.5));
#891=CARTESIAN_POINT('',(14.5000000000001,79.1136929340092,193.46));
#892=CARTESIAN_POINT('',(10.5100000000001,76.8273858680183,189.5));
#893=CARTESIAN_POINT('',(14.5000000000001,76.8273858680183,189.5));
#894=CARTESIAN_POINT('',(10.5100000000001,79.1136929340092,193.46));
#895=CARTESIAN_POINT('Origin',(14.5000000000001,79.1136929340092,185.54));
#896=CARTESIAN_POINT('',(14.5000000000001,79.1136929340092,185.54));
#897=CARTESIAN_POINT('',(14.5000000000001,76.8273858680183,189.5));
#898=CARTESIAN_POINT('',(10.5100000000001,79.1136929340092,185.54));
#899=CARTESIAN_POINT('',(14.5000000000001,79.1136929340092,185.54));
#900=CARTESIAN_POINT('',(10.5100000000001,76.8273858680183,189.5));
#901=CARTESIAN_POINT('Origin',(14.5000000000001,83.6863070659911,185.54));
#902=CARTESIAN_POINT('',(14.5000000000001,79.1136929340092,185.54));
#903=CARTESIAN_POINT('',(10.5100000000001,79.1136929340092,185.54));
#904=CARTESIAN_POINT('Origin',(14.5000000000001,81.4000000000002,189.5));
#905=CARTESIAN_POINT('',(14.5000000000001,78.6500000000001,189.5));
#906=CARTESIAN_POINT('Origin',(14.5000000000001,81.4,189.5));
#907=CARTESIAN_POINT('Origin',(10.5100000000001,81.4000000000002,189.5));
#908=CARTESIAN_POINT('',(10.5100000000001,78.6500000000001,189.5));
#909=CARTESIAN_POINT('Origin',(10.5100000000001,81.4,189.5));
#910=CARTESIAN_POINT('Origin',(14.5000000000001,115.172614131982,189.5));
#911=CARTESIAN_POINT('',(14.5000000000001,112.886307065991,185.54));
#912=CARTESIAN_POINT('',(14.5000000000001,115.172614131982,189.5));
#913=CARTESIAN_POINT('',(14.5000000000001,112.886307065991,185.54));
#914=CARTESIAN_POINT('',(10.5100000000001,115.172614131982,189.5));
#915=CARTESIAN_POINT('',(14.5000000000001,115.172614131982,189.5));
#916=CARTESIAN_POINT('',(10.5100000000001,112.886307065991,185.54));
#917=CARTESIAN_POINT('',(10.5100000000001,112.886307065991,185.54));
#918=CARTESIAN_POINT('',(14.5000000000001,112.886307065991,185.54));
#919=CARTESIAN_POINT('Origin',(14.5000000000001,112.886307065991,193.46));
#920=CARTESIAN_POINT('',(14.5000000000001,112.886307065991,193.46));
#921=CARTESIAN_POINT('',(14.5000000000001,115.172614131982,189.5));
#922=CARTESIAN_POINT('',(10.5100000000001,112.886307065991,193.46));
#923=CARTESIAN_POINT('',(14.5000000000001,112.886307065991,193.46));
#924=CARTESIAN_POINT('',(10.5100000000001,115.172614131982,189.5));
#925=CARTESIAN_POINT('Origin',(14.5000000000001,108.313692934009,193.46));
#926=CARTESIAN_POINT('',(14.5000000000001,108.313692934009,193.46));
#927=CARTESIAN_POINT('',(14.5000000000001,112.886307065991,193.46));
#928=CARTESIAN_POINT('',(10.5100000000001,108.313692934009,193.46));
#929=CARTESIAN_POINT('',(14.5000000000001,108.313692934009,193.46));
#930=CARTESIAN_POINT('',(10.5100000000001,112.886307065991,193.46));
#931=CARTESIAN_POINT('Origin',(14.5000000000001,106.027385868019,189.5));
#932=CARTESIAN_POINT('',(14.5000000000001,106.027385868019,189.5));
#933=CARTESIAN_POINT('',(14.5000000000001,108.313692934009,193.46));
#934=CARTESIAN_POINT('',(10.5100000000001,106.027385868019,189.5));
#935=CARTESIAN_POINT('',(14.5000000000001,106.027385868019,189.5));
#936=CARTESIAN_POINT('',(10.5100000000001,108.313692934009,193.46));
#937=CARTESIAN_POINT('Origin',(14.5000000000001,108.313692934009,185.54));
#938=CARTESIAN_POINT('',(14.5000000000001,108.313692934009,185.54));
#939=CARTESIAN_POINT('',(14.5000000000001,106.027385868019,189.5));
#940=CARTESIAN_POINT('',(10.5100000000001,108.313692934009,185.54));
#941=CARTESIAN_POINT('',(14.5000000000001,108.313692934009,185.54));
#942=CARTESIAN_POINT('',(10.5100000000001,106.027385868019,189.5));
#943=CARTESIAN_POINT('Origin',(14.5000000000001,112.886307065991,185.54));
#944=CARTESIAN_POINT('',(14.5000000000001,108.313692934009,185.54));
#945=CARTESIAN_POINT('',(10.5100000000001,108.313692934009,185.54));
#946=CARTESIAN_POINT('Origin',(14.5000000000001,110.6,189.5));
#947=CARTESIAN_POINT('',(14.5000000000001,107.85,189.5));
#948=CARTESIAN_POINT('Origin',(14.5000000000001,110.6,189.5));
#949=CARTESIAN_POINT('Origin',(10.5100000000001,110.6,189.5));
#950=CARTESIAN_POINT('',(10.5100000000001,107.85,189.5));
#951=CARTESIAN_POINT('Origin',(10.5100000000001,110.6,189.5));
#952=CARTESIAN_POINT('Origin',(21.,81.4,189.5));
#953=CARTESIAN_POINT('',(3.00000000000003,78.65,189.5));
#954=CARTESIAN_POINT('',(21.,78.65,189.5));
#955=CARTESIAN_POINT('Origin',(3.00000000000003,81.4,189.5));
#956=CARTESIAN_POINT('Origin',(21.,110.6,189.5));
#957=CARTESIAN_POINT('',(3.00000000000003,107.85,189.5));
#958=CARTESIAN_POINT('',(21.,107.85,189.5));
#959=CARTESIAN_POINT('Origin',(3.00000000000003,110.6,189.5));
#960=CARTESIAN_POINT('Origin',(-30.,96.,184.));
#961=CARTESIAN_POINT('',(-18.5,96.,184.));
#962=CARTESIAN_POINT('Origin',(-30.,96.,184.));
#963=CARTESIAN_POINT('',(-18.5,96.,172.));
#964=CARTESIAN_POINT('',(-18.5,96.,184.));
#965=CARTESIAN_POINT('Origin',(-30.,96.,172.));
#966=CARTESIAN_POINT('Origin',(-45.5,111.5,184.));
#967=CARTESIAN_POINT('',(-43.75,111.5,184.));
#968=CARTESIAN_POINT('Origin',(-45.5,111.5,184.));
#969=CARTESIAN_POINT('',(-43.75,111.5,172.));
#970=CARTESIAN_POINT('',(-43.75,111.5,184.));
#971=CARTESIAN_POINT('Origin',(-45.5,111.5,172.));
#972=CARTESIAN_POINT('Origin',(-45.5,80.5,184.));
#973=CARTESIAN_POINT('',(-43.75,80.5,184.));
#974=CARTESIAN_POINT('Origin',(-45.5,80.5,184.));
#975=CARTESIAN_POINT('',(-43.75,80.5,172.));
#976=CARTESIAN_POINT('',(-43.75,80.5,184.));
#977=CARTESIAN_POINT('Origin',(-45.5,80.5,172.));
#978=CARTESIAN_POINT('Origin',(-14.5,111.5,184.));
#979=CARTESIAN_POINT('',(-12.75,111.5,184.));
#980=CARTESIAN_POINT('Origin',(-14.5,111.5,184.));
#981=CARTESIAN_POINT('',(-12.75,111.5,172.));
#982=CARTESIAN_POINT('',(-12.75,111.5,184.));
#983=CARTESIAN_POINT('Origin',(-14.5,111.5,172.));
#984=CARTESIAN_POINT('Origin',(-14.5,80.5,184.));
#985=CARTESIAN_POINT('',(-12.75,80.5,184.));
#986=CARTESIAN_POINT('Origin',(-14.5,80.5,184.));
#987=CARTESIAN_POINT('',(-12.75,80.5,172.));
#988=CARTESIAN_POINT('',(-12.75,80.5,184.));
#989=CARTESIAN_POINT('Origin',(-14.5,80.5,172.));
#990=CARTESIAN_POINT('Origin',(21.,81.4,189.5));
#991=CARTESIAN_POINT('',(21.,78.65,189.5));
#992=CARTESIAN_POINT('Origin',(21.,81.4,189.5));
#993=CARTESIAN_POINT('',(21.,78.65,189.5));
#994=CARTESIAN_POINT('Origin',(21.,110.6,189.5));
#995=CARTESIAN_POINT('',(21.,107.85,189.5));
#996=CARTESIAN_POINT('Origin',(21.,110.6,189.5));
#997=CARTESIAN_POINT('',(21.,107.85,189.5));
#998=CARTESIAN_POINT('Origin',(3.00000000000003,128.,184.));
#999=CARTESIAN_POINT('',(3.00000000000003,64.,184.));
#1000=CARTESIAN_POINT('',(3.00000000000003,128.,184.));
#1001=CARTESIAN_POINT('',(3.00000000000003,112.,184.));
#1002=CARTESIAN_POINT('',(3.00000000000003,64.,202.));
#1003=CARTESIAN_POINT('',(3.00000000000003,64.,184.));
#1004=CARTESIAN_POINT('',(3.00000000000003,128.,202.));
#1005=CARTESIAN_POINT('',(3.00000000000003,128.,202.));
#1006=CARTESIAN_POINT('',(3.00000000000003,128.,184.));
#1007=CARTESIAN_POINT('Origin',(12.,96.,202.));
#1008=CARTESIAN_POINT('',(21.,64.,202.));
#1009=CARTESIAN_POINT('',(21.,128.,202.));
#1010=CARTESIAN_POINT('',(21.,64.,202.));
#1011=CARTESIAN_POINT('',(21.,128.,202.));
#1012=CARTESIAN_POINT('',(3.00000000000003,64.,202.));
#1013=CARTESIAN_POINT('Origin',(-75.,128.,172.));
#1014=CARTESIAN_POINT('',(-75.,64.,172.));
#1015=CARTESIAN_POINT('',(-75.,128.,172.));
#1016=CARTESIAN_POINT('',(-75.,64.,172.));
#1017=CARTESIAN_POINT('',(-75.,64.,184.));
#1018=CARTESIAN_POINT('',(-75.,64.,172.));
#1019=CARTESIAN_POINT('',(-75.,128.,184.));
#1020=CARTESIAN_POINT('',(-75.,64.,184.));
#1021=CARTESIAN_POINT('',(-75.,128.,172.));
#1022=CARTESIAN_POINT('Origin',(21.,128.,172.));
#1023=CARTESIAN_POINT('',(21.,128.,172.));
#1024=CARTESIAN_POINT('',(-75.,128.,172.));
#1025=CARTESIAN_POINT('',(-75.,128.,184.));
#1026=CARTESIAN_POINT('',(21.,128.,172.));
#1027=CARTESIAN_POINT('Origin',(21.,64.,172.));
#1028=CARTESIAN_POINT('',(21.,64.,172.));
#1029=CARTESIAN_POINT('',(21.,128.,172.));
#1030=CARTESIAN_POINT('',(21.,64.,172.));
#1031=CARTESIAN_POINT('Origin',(-75.,64.,172.));
#1032=CARTESIAN_POINT('',(21.,64.,172.));
#1033=CARTESIAN_POINT('',(21.,64.,184.));
#1034=CARTESIAN_POINT('Origin',(-27.,96.,184.));
#1035=CARTESIAN_POINT('Origin',(-27.,96.,172.));
#1036=CARTESIAN_POINT('',(2.30926389122033E-13,-64.0000000000006,-3.19744231092045E-13));
#1037=UNCERTAINTY_MEASURE_WITH_UNIT(LENGTH_MEASURE(0.01),#1043,
'DISTANCE_ACCURACY_VALUE',
'Maximum model space distance between geometric entities at asserted c
onnectivities');
#1038=UNCERTAINTY_MEASURE_WITH_UNIT(LENGTH_MEASURE(0.01),#1043,
'DISTANCE_ACCURACY_VALUE',
'Maximum model space distance between geometric entities at asserted c
onnectivities');
#1039=UNCERTAINTY_MEASURE_WITH_UNIT(LENGTH_MEASURE(0.01),#1043,
'DISTANCE_ACCURACY_VALUE',
'Maximum model space distance between geometric entities at asserted c
onnectivities');
#1040=(
GEOMETRIC_REPRESENTATION_CONTEXT(3)
GLOBAL_UNCERTAINTY_ASSIGNED_CONTEXT((#1037))
GLOBAL_UNIT_ASSIGNED_CONTEXT((#1043,#1045,#1046))
REPRESENTATION_CONTEXT('','3D')
);
#1041=(
GEOMETRIC_REPRESENTATION_CONTEXT(3)
GLOBAL_UNCERTAINTY_ASSIGNED_CONTEXT((#1038))
GLOBAL_UNIT_ASSIGNED_CONTEXT((#1043,#1045,#1046))
REPRESENTATION_CONTEXT('','3D')
);
#1042=(
GEOMETRIC_REPRESENTATION_CONTEXT(3)
GLOBAL_UNCERTAINTY_ASSIGNED_CONTEXT((#1039))
GLOBAL_UNIT_ASSIGNED_CONTEXT((#1043,#1045,#1046))
REPRESENTATION_CONTEXT('','3D')
);
#1043=(
LENGTH_UNIT()
NAMED_UNIT(*)
SI_UNIT(.MILLI.,.METRE.)
);
#1044=(
LENGTH_UNIT()
NAMED_UNIT(*)
SI_UNIT($,.METRE.)
);
#1045=(
NAMED_UNIT(*)
PLANE_ANGLE_UNIT()
SI_UNIT($,.RADIAN.)
);
#1046=(
NAMED_UNIT(*)
SI_UNIT($,.STERADIAN.)
SOLID_ANGLE_UNIT()
);
#1047=SHAPE_DEFINITION_REPRESENTATION(#1049,#1052);
#1048=SHAPE_DEFINITION_REPRESENTATION(#1050,#1053);
#1049=PRODUCT_DEFINITION_SHAPE('',$,#1055);
#1050=PRODUCT_DEFINITION_SHAPE('',$,#1056);
#1051=PRODUCT_DEFINITION_SHAPE($,$,#14);
#1052=SHAPE_REPRESENTATION('',(#641,#694),#1040);
#1053=SHAPE_REPRESENTATION('',(#642),#1041);
#1054=PRODUCT_DEFINITION_CONTEXT('part definition',#1062,'design');
#1055=PRODUCT_DEFINITION('2026-05-07-08-32-58-845',
'Automated Liquid Handling Module',#1057,#1054);
#1056=PRODUCT_DEFINITION('2026-05-07-08-32-58-852','MOUNTING PLATE',#1058,
#1054);
#1057=PRODUCT_DEFINITION_FORMATION('',$,#1064);
#1058=PRODUCT_DEFINITION_FORMATION('',$,#1065);
#1059=PRODUCT_RELATED_PRODUCT_CATEGORY(
'Automated Liquid Handling Module','Automated Liquid Handling Module',(#1064));
#1060=PRODUCT_RELATED_PRODUCT_CATEGORY('MOUNTING PLATE',
'MOUNTING PLATE',(#1065));
#1061=APPLICATION_PROTOCOL_DEFINITION('international standard',
'automotive_design',2009,#1062);
#1062=APPLICATION_CONTEXT(
'Core Data for Automotive Mechanical Design Process');
#1063=PRODUCT_CONTEXT('part definition',#1062,'mechanical');
#1064=PRODUCT('2026-05-07-08-32-58-845',
'Automated Liquid Handling Module',$,(#1063));
#1065=PRODUCT('2026-05-07-08-32-58-852','MOUNTING PLATE',$,(#1063));
#1066=PRESENTATION_STYLE_ASSIGNMENT((#1070));
#1067=PRESENTATION_STYLE_ASSIGNMENT((#1071));
#1068=PRESENTATION_STYLE_ASSIGNMENT((#1072));
#1069=PRESENTATION_STYLE_ASSIGNMENT((#1073));
#1070=SURFACE_STYLE_USAGE(.BOTH.,#1074);
#1071=SURFACE_STYLE_USAGE(.BOTH.,#1075);
#1072=SURFACE_STYLE_USAGE(.BOTH.,#1076);
#1073=SURFACE_STYLE_USAGE(.BOTH.,#1077);
#1074=SURFACE_SIDE_STYLE('',(#1078));
#1075=SURFACE_SIDE_STYLE('',(#1079));
#1076=SURFACE_SIDE_STYLE('',(#1080));
#1077=SURFACE_SIDE_STYLE('',(#1081));
#1078=SURFACE_STYLE_FILL_AREA(#1082);
#1079=SURFACE_STYLE_FILL_AREA(#1083);
#1080=SURFACE_STYLE_FILL_AREA(#1084);
#1081=SURFACE_STYLE_FILL_AREA(#1085);
#1082=FILL_AREA_STYLE('Plastic - Translucent Glossy (Blue)',(#1086));
#1083=FILL_AREA_STYLE('Steel - Satin',(#1087));
#1084=FILL_AREA_STYLE('Plastic - Glossy (Red)',(#1088));
#1085=FILL_AREA_STYLE('Plastic - Glossy (Green)',(#1089));
#1086=FILL_AREA_STYLE_COLOUR('Plastic - Translucent Glossy (Blue)',#1090);
#1087=FILL_AREA_STYLE_COLOUR('Steel - Satin',#1091);
#1088=FILL_AREA_STYLE_COLOUR('Plastic - Glossy (Red)',#1092);
#1089=FILL_AREA_STYLE_COLOUR('Plastic - Glossy (Green)',#1093);
#1090=COLOUR_RGB('Plastic - Translucent Glossy (Blue)',0.188235294117647,
0.231372549019608,0.588235294117647);
#1091=COLOUR_RGB('Steel - Satin',0.627450980392157,0.627450980392157,0.627450980392157);
#1092=COLOUR_RGB('Plastic - Glossy (Red)',0.768627450980392,0.207843137254902,
0.152941176470588);
#1093=COLOUR_RGB('Plastic - Glossy (Green)',0.266666666666667,0.588235294117647,
0.282352941176471);
ENDSEC;
END-ISO-10303-21;
