ISO-10303-21;
HEADER;
/* Generated by software containing ST-Developer
 * from STEP Tools, Inc. (www.steptools.com) 
 */

FILE_DESCRIPTION(
/* description */ (''),
/* implementation_level */ '2;1');

FILE_NAME(
/* name */ 'pipette bracket.step',
/* time_stamp */ '2026-06-16T09:58:13+08:00',
/* author */ (''),
/* organization */ (''),
/* preprocessor_version */ 'ST-DEVELOPER v20.1',
/* originating_system */ 'Autodesk Translation Framework v15.8.0.0',
/* authorisation */ '');

FILE_SCHEMA (('AUTOMOTIVE_DESIGN { 1 0 10303 214 3 1 1 }'));
ENDSEC;

DATA;
#10=MECHANICAL_DESIGN_GEOMETRIC_PRESENTATION_REPRESENTATION('',(#13),#1139);
#11=SHAPE_REPRESENTATION_RELATIONSHIP('SRR','None',#1146,#12);
#12=ADVANCED_BREP_SHAPE_REPRESENTATION('',(#14),#1138);
#13=STYLED_ITEM('',(#1155),#14);
#14=MANIFOLD_SOLID_BREP('Body1',#643);
#15=FACE_BOUND('',#78,.T.);
#16=FACE_BOUND('',#81,.T.);
#17=FACE_BOUND('',#95,.T.);
#18=FACE_BOUND('',#98,.T.);
#19=PLANE('',#664);
#20=PLANE('',#665);
#21=PLANE('',#669);
#22=PLANE('',#670);
#23=PLANE('',#676);
#24=PLANE('',#684);
#25=PLANE('',#695);
#26=PLANE('',#696);
#27=PLANE('',#700);
#28=PLANE('',#701);
#29=PLANE('',#707);
#30=PLANE('',#708);
#31=PLANE('',#715);
#32=PLANE('',#718);
#33=PLANE('',#721);
#34=PLANE('',#722);
#35=B_SPLINE_CURVE_WITH_KNOTS('',3,(#923,#924,#925,#926,#927,#928,#929,
#930,#931,#932),.UNSPECIFIED.,.F.,.F.,(4,2,2,2,4),(0.770572800866883,0.864783955633392,
0.958995110399901,1.05444105282531,1.14988699525072),.UNSPECIFIED.);
#36=B_SPLINE_CURVE_WITH_KNOTS('',3,(#936,#937,#938,#939,#940,#941,#942,
#943,#944,#945),.UNSPECIFIED.,.F.,.F.,(4,2,2,2,4),(0.412938644171366,0.509806549857656,
0.606674455543947,0.700927035550194,0.795179615556441),.UNSPECIFIED.);
#37=B_SPLINE_CURVE_WITH_KNOTS('',3,(#1030,#1031,#1032,#1033,#1034,#1035,
#1036,#1037,#1038,#1039),.UNSPECIFIED.,.F.,.F.,(4,2,2,2,4),(0.770572800866883,
0.864783955633392,0.958995110399901,1.05444105282531,1.14988699525072),
 .UNSPECIFIED.);
#38=B_SPLINE_CURVE_WITH_KNOTS('',3,(#1043,#1044,#1045,#1046,#1047,#1048,
#1049,#1050,#1051,#1052),.UNSPECIFIED.,.F.,.F.,(4,2,2,2,4),(0.412938644171366,
0.509806549857656,0.606674455543947,0.700927035550194,0.795179615556441),
 .UNSPECIFIED.);
#39=FACE_OUTER_BOUND('',#73,.T.);
#40=FACE_OUTER_BOUND('',#74,.T.);
#41=FACE_OUTER_BOUND('',#75,.T.);
#42=FACE_OUTER_BOUND('',#76,.T.);
#43=FACE_OUTER_BOUND('',#77,.T.);
#44=FACE_OUTER_BOUND('',#79,.T.);
#45=FACE_OUTER_BOUND('',#80,.T.);
#46=FACE_OUTER_BOUND('',#82,.T.);
#47=FACE_OUTER_BOUND('',#83,.T.);
#48=FACE_OUTER_BOUND('',#84,.T.);
#49=FACE_OUTER_BOUND('',#85,.T.);
#50=FACE_OUTER_BOUND('',#86,.T.);
#51=FACE_OUTER_BOUND('',#87,.T.);
#52=FACE_OUTER_BOUND('',#88,.T.);
#53=FACE_OUTER_BOUND('',#89,.T.);
#54=FACE_OUTER_BOUND('',#90,.T.);
#55=FACE_OUTER_BOUND('',#91,.T.);
#56=FACE_OUTER_BOUND('',#92,.T.);
#57=FACE_OUTER_BOUND('',#93,.T.);
#58=FACE_OUTER_BOUND('',#94,.T.);
#59=FACE_OUTER_BOUND('',#96,.T.);
#60=FACE_OUTER_BOUND('',#97,.T.);
#61=FACE_OUTER_BOUND('',#99,.T.);
#62=FACE_OUTER_BOUND('',#100,.T.);
#63=FACE_OUTER_BOUND('',#101,.T.);
#64=FACE_OUTER_BOUND('',#102,.T.);
#65=FACE_OUTER_BOUND('',#103,.T.);
#66=FACE_OUTER_BOUND('',#104,.T.);
#67=FACE_OUTER_BOUND('',#105,.T.);
#68=FACE_OUTER_BOUND('',#106,.T.);
#69=FACE_OUTER_BOUND('',#107,.T.);
#70=FACE_OUTER_BOUND('',#108,.T.);
#71=FACE_OUTER_BOUND('',#109,.T.);
#72=FACE_OUTER_BOUND('',#110,.T.);
#73=EDGE_LOOP('',(#407,#408,#409,#410));
#74=EDGE_LOOP('',(#411,#412,#413,#414));
#75=EDGE_LOOP('',(#415,#416,#417,#418));
#76=EDGE_LOOP('',(#419,#420,#421,#422));
#77=EDGE_LOOP('',(#423,#424,#425,#426,#427,#428));
#78=EDGE_LOOP('',(#429));
#79=EDGE_LOOP('',(#430,#431,#432,#433));
#80=EDGE_LOOP('',(#434,#435,#436,#437,#438,#439));
#81=EDGE_LOOP('',(#440));
#82=EDGE_LOOP('',(#441,#442,#443,#444,#445,#446,#447,#448));
#83=EDGE_LOOP('',(#449,#450,#451,#452));
#84=EDGE_LOOP('',(#453,#454,#455,#456,#457));
#85=EDGE_LOOP('',(#458,#459,#460,#461));
#86=EDGE_LOOP('',(#462,#463,#464,#465,#466));
#87=EDGE_LOOP('',(#467,#468,#469,#470));
#88=EDGE_LOOP('',(#471,#472,#473,#474,#475));
#89=EDGE_LOOP('',(#476,#477,#478,#479,#480));
#90=EDGE_LOOP('',(#481,#482,#483,#484));
#91=EDGE_LOOP('',(#485,#486,#487,#488));
#92=EDGE_LOOP('',(#489,#490,#491,#492));
#93=EDGE_LOOP('',(#493,#494,#495,#496));
#94=EDGE_LOOP('',(#497,#498,#499,#500,#501,#502));
#95=EDGE_LOOP('',(#503));
#96=EDGE_LOOP('',(#504,#505,#506,#507));
#97=EDGE_LOOP('',(#508,#509,#510,#511,#512,#513));
#98=EDGE_LOOP('',(#514));
#99=EDGE_LOOP('',(#515,#516,#517,#518,#519,#520,#521,#522));
#100=EDGE_LOOP('',(#523,#524,#525,#526));
#101=EDGE_LOOP('',(#527,#528,#529,#530,#531));
#102=EDGE_LOOP('',(#532,#533,#534,#535,#536,#537,#538,#539));
#103=EDGE_LOOP('',(#540,#541,#542,#543));
#104=EDGE_LOOP('',(#544,#545,#546,#547,#548));
#105=EDGE_LOOP('',(#549,#550,#551,#552));
#106=EDGE_LOOP('',(#553,#554,#555,#556));
#107=EDGE_LOOP('',(#557,#558,#559,#560,#561));
#108=EDGE_LOOP('',(#562,#563,#564,#565,#566));
#109=EDGE_LOOP('',(#567,#568,#569,#570));
#110=EDGE_LOOP('',(#571,#572,#573,#574,#575,#576,#577,#578,#579,#580,#581,
#582,#583,#584,#585,#586,#587,#588,#589,#590));
#111=LINE('',#918,#167);
#112=LINE('',#934,#168);
#113=LINE('',#946,#169);
#114=LINE('',#952,#170);
#115=LINE('',#955,#171);
#116=LINE('',#958,#172);
#117=LINE('',#960,#173);
#118=LINE('',#961,#174);
#119=LINE('',#966,#175);
#120=LINE('',#968,#176);
#121=LINE('',#969,#177);
#122=LINE('',#973,#178);
#123=LINE('',#976,#179);
#124=LINE('',#978,#180);
#125=LINE('',#979,#181);
#126=LINE('',#984,#182);
#127=LINE('',#986,#183);
#128=LINE('',#988,#184);
#129=LINE('',#995,#185);
#130=LINE('',#997,#186);
#131=LINE('',#998,#187);
#132=LINE('',#1005,#188);
#133=LINE('',#1010,#189);
#134=LINE('',#1013,#190);
#135=LINE('',#1014,#191);
#136=LINE('',#1020,#192);
#137=LINE('',#1025,#193);
#138=LINE('',#1041,#194);
#139=LINE('',#1053,#195);
#140=LINE('',#1059,#196);
#141=LINE('',#1062,#197);
#142=LINE('',#1065,#198);
#143=LINE('',#1067,#199);
#144=LINE('',#1068,#200);
#145=LINE('',#1071,#201);
#146=LINE('',#1073,#202);
#147=LINE('',#1075,#203);
#148=LINE('',#1080,#204);
#149=LINE('',#1083,#205);
#150=LINE('',#1085,#206);
#151=LINE('',#1086,#207);
#152=LINE('',#1091,#208);
#153=LINE('',#1093,#209);
#154=LINE('',#1095,#210);
#155=LINE('',#1102,#211);
#156=LINE('',#1104,#212);
#157=LINE('',#1105,#213);
#158=LINE('',#1109,#214);
#159=LINE('',#1111,#215);
#160=LINE('',#1118,#216);
#161=LINE('',#1120,#217);
#162=LINE('',#1124,#218);
#163=LINE('',#1127,#219);
#164=LINE('',#1128,#220);
#165=LINE('',#1132,#221);
#166=LINE('',#1134,#222);
#167=VECTOR('',#729,3.);
#168=VECTOR('',#734,10.);
#169=VECTOR('',#735,10.);
#170=VECTOR('',#740,10.);
#171=VECTOR('',#743,10.);
#172=VECTOR('',#746,10.);
#173=VECTOR('',#747,10.);
#174=VECTOR('',#748,10.);
#175=VECTOR('',#753,10.);
#176=VECTOR('',#754,10.);
#177=VECTOR('',#755,10.);
#178=VECTOR('',#760,10.);
#179=VECTOR('',#763,10.);
#180=VECTOR('',#764,10.);
#181=VECTOR('',#765,10.);
#182=VECTOR('',#770,10.);
#183=VECTOR('',#771,10.);
#184=VECTOR('',#772,10.);
#185=VECTOR('',#783,10.);
#186=VECTOR('',#784,10.);
#187=VECTOR('',#785,10.);
#188=VECTOR('',#794,10.);
#189=VECTOR('',#801,10.);
#190=VECTOR('',#804,10.);
#191=VECTOR('',#805,10.);
#192=VECTOR('',#812,10.);
#193=VECTOR('',#817,3.);
#194=VECTOR('',#822,10.);
#195=VECTOR('',#823,10.);
#196=VECTOR('',#828,10.);
#197=VECTOR('',#831,10.);
#198=VECTOR('',#834,10.);
#199=VECTOR('',#835,10.);
#200=VECTOR('',#836,10.);
#201=VECTOR('',#839,10.);
#202=VECTOR('',#840,10.);
#203=VECTOR('',#841,10.);
#204=VECTOR('',#848,10.);
#205=VECTOR('',#851,10.);
#206=VECTOR('',#852,10.);
#207=VECTOR('',#853,10.);
#208=VECTOR('',#858,10.);
#209=VECTOR('',#859,10.);
#210=VECTOR('',#860,10.);
#211=VECTOR('',#871,10.);
#212=VECTOR('',#872,10.);
#213=VECTOR('',#873,10.);
#214=VECTOR('',#878,10.);
#215=VECTOR('',#879,10.);
#216=VECTOR('',#890,10.);
#217=VECTOR('',#893,10.);
#218=VECTOR('',#898,10.);
#219=VECTOR('',#901,10.);
#220=VECTOR('',#902,10.);
#221=VECTOR('',#907,10.);
#222=VECTOR('',#910,10.);
#223=CIRCLE('',#658,3.);
#224=CIRCLE('',#659,3.);
#225=CIRCLE('',#662,2.5);
#226=CIRCLE('',#663,2.5);
#227=CIRCLE('',#666,2.5);
#228=CIRCLE('',#668,2.5);
#229=CIRCLE('',#671,5.);
#230=CIRCLE('',#672,2.);
#231=CIRCLE('',#674,2.5);
#232=CIRCLE('',#675,2.5);
#233=CIRCLE('',#678,5.);
#234=CIRCLE('',#680,7.);
#235=CIRCLE('',#681,7.);
#236=CIRCLE('',#683,2.);
#237=CIRCLE('',#686,10.);
#238=CIRCLE('',#687,10.);
#239=CIRCLE('',#689,3.);
#240=CIRCLE('',#690,3.);
#241=CIRCLE('',#693,2.5);
#242=CIRCLE('',#694,2.5);
#243=CIRCLE('',#697,2.5);
#244=CIRCLE('',#699,2.5);
#245=CIRCLE('',#702,2.);
#246=CIRCLE('',#703,5.);
#247=CIRCLE('',#705,2.5);
#248=CIRCLE('',#706,2.5);
#249=CIRCLE('',#709,10.);
#250=CIRCLE('',#710,7.);
#251=CIRCLE('',#712,5.);
#252=CIRCLE('',#714,7.);
#253=CIRCLE('',#717,2.);
#254=CIRCLE('',#720,10.);
#255=VERTEX_POINT('',#915);
#256=VERTEX_POINT('',#917);
#257=VERTEX_POINT('',#921);
#258=VERTEX_POINT('',#922);
#259=VERTEX_POINT('',#933);
#260=VERTEX_POINT('',#935);
#261=VERTEX_POINT('',#948);
#262=VERTEX_POINT('',#949);
#263=VERTEX_POINT('',#951);
#264=VERTEX_POINT('',#953);
#265=VERTEX_POINT('',#957);
#266=VERTEX_POINT('',#959);
#267=VERTEX_POINT('',#963);
#268=VERTEX_POINT('',#965);
#269=VERTEX_POINT('',#967);
#270=VERTEX_POINT('',#971);
#271=VERTEX_POINT('',#975);
#272=VERTEX_POINT('',#977);
#273=VERTEX_POINT('',#981);
#274=VERTEX_POINT('',#983);
#275=VERTEX_POINT('',#985);
#276=VERTEX_POINT('',#987);
#277=VERTEX_POINT('',#994);
#278=VERTEX_POINT('',#996);
#279=VERTEX_POINT('',#1002);
#280=VERTEX_POINT('',#1004);
#281=VERTEX_POINT('',#1008);
#282=VERTEX_POINT('',#1012);
#283=VERTEX_POINT('',#1016);
#284=VERTEX_POINT('',#1018);
#285=VERTEX_POINT('',#1022);
#286=VERTEX_POINT('',#1024);
#287=VERTEX_POINT('',#1028);
#288=VERTEX_POINT('',#1029);
#289=VERTEX_POINT('',#1040);
#290=VERTEX_POINT('',#1042);
#291=VERTEX_POINT('',#1055);
#292=VERTEX_POINT('',#1056);
#293=VERTEX_POINT('',#1058);
#294=VERTEX_POINT('',#1060);
#295=VERTEX_POINT('',#1064);
#296=VERTEX_POINT('',#1066);
#297=VERTEX_POINT('',#1070);
#298=VERTEX_POINT('',#1072);
#299=VERTEX_POINT('',#1074);
#300=VERTEX_POINT('',#1078);
#301=VERTEX_POINT('',#1082);
#302=VERTEX_POINT('',#1084);
#303=VERTEX_POINT('',#1088);
#304=VERTEX_POINT('',#1090);
#305=VERTEX_POINT('',#1092);
#306=VERTEX_POINT('',#1094);
#307=VERTEX_POINT('',#1101);
#308=VERTEX_POINT('',#1103);
#309=VERTEX_POINT('',#1107);
#310=VERTEX_POINT('',#1110);
#311=VERTEX_POINT('',#1116);
#312=VERTEX_POINT('',#1122);
#313=VERTEX_POINT('',#1126);
#314=VERTEX_POINT('',#1130);
#315=EDGE_CURVE('',#255,#255,#223,.T.);
#316=EDGE_CURVE('',#255,#256,#111,.T.);
#317=EDGE_CURVE('',#256,#256,#224,.T.);
#318=EDGE_CURVE('',#257,#258,#35,.F.);
#319=EDGE_CURVE('',#258,#259,#112,.T.);
#320=EDGE_CURVE('',#260,#259,#36,.T.);
#321=EDGE_CURVE('',#257,#260,#113,.T.);
#322=EDGE_CURVE('',#261,#262,#225,.T.);
#323=EDGE_CURVE('',#263,#261,#114,.T.);
#324=EDGE_CURVE('',#264,#263,#226,.T.);
#325=EDGE_CURVE('',#262,#264,#115,.T.);
#326=EDGE_CURVE('',#261,#265,#116,.T.);
#327=EDGE_CURVE('',#265,#266,#117,.T.);
#328=EDGE_CURVE('',#263,#266,#118,.T.);
#329=EDGE_CURVE('',#266,#267,#227,.T.);
#330=EDGE_CURVE('',#268,#267,#119,.T.);
#331=EDGE_CURVE('',#269,#268,#120,.T.);
#332=EDGE_CURVE('',#264,#269,#121,.T.);
#333=EDGE_CURVE('',#270,#265,#228,.T.);
#334=EDGE_CURVE('',#267,#270,#122,.T.);
#335=EDGE_CURVE('',#262,#271,#123,.T.);
#336=EDGE_CURVE('',#271,#272,#124,.T.);
#337=EDGE_CURVE('',#272,#270,#125,.T.);
#338=EDGE_CURVE('',#273,#272,#229,.T.);
#339=EDGE_CURVE('',#274,#273,#126,.T.);
#340=EDGE_CURVE('',#274,#275,#127,.T.);
#341=EDGE_CURVE('',#275,#276,#128,.T.);
#342=EDGE_CURVE('',#276,#268,#230,.T.);
#343=EDGE_CURVE('',#259,#274,#231,.T.);
#344=EDGE_CURVE('',#275,#258,#232,.T.);
#345=EDGE_CURVE('',#277,#273,#129,.T.);
#346=EDGE_CURVE('',#277,#278,#130,.T.);
#347=EDGE_CURVE('',#278,#259,#131,.T.);
#348=EDGE_CURVE('',#277,#271,#233,.T.);
#349=EDGE_CURVE('',#278,#279,#234,.T.);
#350=EDGE_CURVE('',#279,#280,#132,.T.);
#351=EDGE_CURVE('',#280,#260,#235,.T.);
#352=EDGE_CURVE('',#281,#269,#236,.T.);
#353=EDGE_CURVE('',#281,#276,#133,.T.);
#354=EDGE_CURVE('',#282,#258,#134,.T.);
#355=EDGE_CURVE('',#281,#282,#135,.T.);
#356=EDGE_CURVE('',#282,#283,#237,.T.);
#357=EDGE_CURVE('',#284,#257,#238,.T.);
#358=EDGE_CURVE('',#283,#284,#136,.T.);
#359=EDGE_CURVE('',#285,#285,#239,.T.);
#360=EDGE_CURVE('',#285,#286,#137,.T.);
#361=EDGE_CURVE('',#286,#286,#240,.T.);
#362=EDGE_CURVE('',#287,#288,#37,.F.);
#363=EDGE_CURVE('',#287,#289,#138,.T.);
#364=EDGE_CURVE('',#289,#290,#38,.T.);
#365=EDGE_CURVE('',#288,#290,#139,.T.);
#366=EDGE_CURVE('',#291,#292,#241,.T.);
#367=EDGE_CURVE('',#292,#293,#140,.T.);
#368=EDGE_CURVE('',#293,#294,#242,.T.);
#369=EDGE_CURVE('',#294,#291,#141,.T.);
#370=EDGE_CURVE('',#294,#295,#142,.T.);
#371=EDGE_CURVE('',#296,#295,#143,.T.);
#372=EDGE_CURVE('',#291,#296,#144,.T.);
#373=EDGE_CURVE('',#293,#297,#145,.T.);
#374=EDGE_CURVE('',#297,#298,#146,.T.);
#375=EDGE_CURVE('',#298,#299,#147,.T.);
#376=EDGE_CURVE('',#295,#299,#243,.T.);
#377=EDGE_CURVE('',#300,#296,#244,.T.);
#378=EDGE_CURVE('',#299,#300,#148,.T.);
#379=EDGE_CURVE('',#301,#300,#149,.T.);
#380=EDGE_CURVE('',#302,#301,#150,.T.);
#381=EDGE_CURVE('',#292,#302,#151,.T.);
#382=EDGE_CURVE('',#303,#298,#245,.T.);
#383=EDGE_CURVE('',#304,#303,#152,.T.);
#384=EDGE_CURVE('',#305,#304,#153,.T.);
#385=EDGE_CURVE('',#305,#306,#154,.T.);
#386=EDGE_CURVE('',#306,#301,#246,.T.);
#387=EDGE_CURVE('',#290,#305,#247,.T.);
#388=EDGE_CURVE('',#304,#288,#248,.T.);
#389=EDGE_CURVE('',#307,#290,#155,.T.);
#390=EDGE_CURVE('',#308,#307,#156,.T.);
#391=EDGE_CURVE('',#308,#306,#157,.T.);
#392=EDGE_CURVE('',#309,#287,#249,.T.);
#393=EDGE_CURVE('',#284,#309,#158,.T.);
#394=EDGE_CURVE('',#310,#280,#159,.T.);
#395=EDGE_CURVE('',#310,#289,#250,.T.);
#396=EDGE_CURVE('',#308,#302,#251,.T.);
#397=EDGE_CURVE('',#307,#311,#252,.T.);
#398=EDGE_CURVE('',#311,#310,#160,.T.);
#399=EDGE_CURVE('',#311,#279,#161,.T.);
#400=EDGE_CURVE('',#312,#297,#253,.T.);
#401=EDGE_CURVE('',#312,#303,#162,.T.);
#402=EDGE_CURVE('',#312,#313,#163,.T.);
#403=EDGE_CURVE('',#313,#288,#164,.T.);
#404=EDGE_CURVE('',#313,#314,#254,.T.);
#405=EDGE_CURVE('',#314,#309,#165,.T.);
#406=EDGE_CURVE('',#314,#283,#166,.T.);
#407=ORIENTED_EDGE('',*,*,#315,.T.);
#408=ORIENTED_EDGE('',*,*,#316,.T.);
#409=ORIENTED_EDGE('',*,*,#317,.T.);
#410=ORIENTED_EDGE('',*,*,#316,.F.);
#411=ORIENTED_EDGE('',*,*,#318,.T.);
#412=ORIENTED_EDGE('',*,*,#319,.T.);
#413=ORIENTED_EDGE('',*,*,#320,.F.);
#414=ORIENTED_EDGE('',*,*,#321,.F.);
#415=ORIENTED_EDGE('',*,*,#322,.F.);
#416=ORIENTED_EDGE('',*,*,#323,.F.);
#417=ORIENTED_EDGE('',*,*,#324,.F.);
#418=ORIENTED_EDGE('',*,*,#325,.F.);
#419=ORIENTED_EDGE('',*,*,#323,.T.);
#420=ORIENTED_EDGE('',*,*,#326,.T.);
#421=ORIENTED_EDGE('',*,*,#327,.T.);
#422=ORIENTED_EDGE('',*,*,#328,.F.);
#423=ORIENTED_EDGE('',*,*,#324,.T.);
#424=ORIENTED_EDGE('',*,*,#328,.T.);
#425=ORIENTED_EDGE('',*,*,#329,.T.);
#426=ORIENTED_EDGE('',*,*,#330,.F.);
#427=ORIENTED_EDGE('',*,*,#331,.F.);
#428=ORIENTED_EDGE('',*,*,#332,.F.);
#429=ORIENTED_EDGE('',*,*,#315,.F.);
#430=ORIENTED_EDGE('',*,*,#333,.F.);
#431=ORIENTED_EDGE('',*,*,#334,.F.);
#432=ORIENTED_EDGE('',*,*,#329,.F.);
#433=ORIENTED_EDGE('',*,*,#327,.F.);
#434=ORIENTED_EDGE('',*,*,#322,.T.);
#435=ORIENTED_EDGE('',*,*,#335,.T.);
#436=ORIENTED_EDGE('',*,*,#336,.T.);
#437=ORIENTED_EDGE('',*,*,#337,.T.);
#438=ORIENTED_EDGE('',*,*,#333,.T.);
#439=ORIENTED_EDGE('',*,*,#326,.F.);
#440=ORIENTED_EDGE('',*,*,#317,.F.);
#441=ORIENTED_EDGE('',*,*,#334,.T.);
#442=ORIENTED_EDGE('',*,*,#337,.F.);
#443=ORIENTED_EDGE('',*,*,#338,.F.);
#444=ORIENTED_EDGE('',*,*,#339,.F.);
#445=ORIENTED_EDGE('',*,*,#340,.T.);
#446=ORIENTED_EDGE('',*,*,#341,.T.);
#447=ORIENTED_EDGE('',*,*,#342,.T.);
#448=ORIENTED_EDGE('',*,*,#330,.T.);
#449=ORIENTED_EDGE('',*,*,#343,.F.);
#450=ORIENTED_EDGE('',*,*,#319,.F.);
#451=ORIENTED_EDGE('',*,*,#344,.F.);
#452=ORIENTED_EDGE('',*,*,#340,.F.);
#453=ORIENTED_EDGE('',*,*,#343,.T.);
#454=ORIENTED_EDGE('',*,*,#339,.T.);
#455=ORIENTED_EDGE('',*,*,#345,.F.);
#456=ORIENTED_EDGE('',*,*,#346,.T.);
#457=ORIENTED_EDGE('',*,*,#347,.T.);
#458=ORIENTED_EDGE('',*,*,#348,.F.);
#459=ORIENTED_EDGE('',*,*,#345,.T.);
#460=ORIENTED_EDGE('',*,*,#338,.T.);
#461=ORIENTED_EDGE('',*,*,#336,.F.);
#462=ORIENTED_EDGE('',*,*,#349,.T.);
#463=ORIENTED_EDGE('',*,*,#350,.T.);
#464=ORIENTED_EDGE('',*,*,#351,.T.);
#465=ORIENTED_EDGE('',*,*,#320,.T.);
#466=ORIENTED_EDGE('',*,*,#347,.F.);
#467=ORIENTED_EDGE('',*,*,#352,.T.);
#468=ORIENTED_EDGE('',*,*,#331,.T.);
#469=ORIENTED_EDGE('',*,*,#342,.F.);
#470=ORIENTED_EDGE('',*,*,#353,.F.);
#471=ORIENTED_EDGE('',*,*,#344,.T.);
#472=ORIENTED_EDGE('',*,*,#354,.F.);
#473=ORIENTED_EDGE('',*,*,#355,.F.);
#474=ORIENTED_EDGE('',*,*,#353,.T.);
#475=ORIENTED_EDGE('',*,*,#341,.F.);
#476=ORIENTED_EDGE('',*,*,#356,.F.);
#477=ORIENTED_EDGE('',*,*,#354,.T.);
#478=ORIENTED_EDGE('',*,*,#318,.F.);
#479=ORIENTED_EDGE('',*,*,#357,.F.);
#480=ORIENTED_EDGE('',*,*,#358,.F.);
#481=ORIENTED_EDGE('',*,*,#359,.F.);
#482=ORIENTED_EDGE('',*,*,#360,.T.);
#483=ORIENTED_EDGE('',*,*,#361,.F.);
#484=ORIENTED_EDGE('',*,*,#360,.F.);
#485=ORIENTED_EDGE('',*,*,#362,.F.);
#486=ORIENTED_EDGE('',*,*,#363,.T.);
#487=ORIENTED_EDGE('',*,*,#364,.T.);
#488=ORIENTED_EDGE('',*,*,#365,.F.);
#489=ORIENTED_EDGE('',*,*,#366,.T.);
#490=ORIENTED_EDGE('',*,*,#367,.T.);
#491=ORIENTED_EDGE('',*,*,#368,.T.);
#492=ORIENTED_EDGE('',*,*,#369,.T.);
#493=ORIENTED_EDGE('',*,*,#369,.F.);
#494=ORIENTED_EDGE('',*,*,#370,.T.);
#495=ORIENTED_EDGE('',*,*,#371,.F.);
#496=ORIENTED_EDGE('',*,*,#372,.F.);
#497=ORIENTED_EDGE('',*,*,#368,.F.);
#498=ORIENTED_EDGE('',*,*,#373,.T.);
#499=ORIENTED_EDGE('',*,*,#374,.T.);
#500=ORIENTED_EDGE('',*,*,#375,.T.);
#501=ORIENTED_EDGE('',*,*,#376,.F.);
#502=ORIENTED_EDGE('',*,*,#370,.F.);
#503=ORIENTED_EDGE('',*,*,#359,.T.);
#504=ORIENTED_EDGE('',*,*,#377,.T.);
#505=ORIENTED_EDGE('',*,*,#371,.T.);
#506=ORIENTED_EDGE('',*,*,#376,.T.);
#507=ORIENTED_EDGE('',*,*,#378,.T.);
#508=ORIENTED_EDGE('',*,*,#366,.F.);
#509=ORIENTED_EDGE('',*,*,#372,.T.);
#510=ORIENTED_EDGE('',*,*,#377,.F.);
#511=ORIENTED_EDGE('',*,*,#379,.F.);
#512=ORIENTED_EDGE('',*,*,#380,.F.);
#513=ORIENTED_EDGE('',*,*,#381,.F.);
#514=ORIENTED_EDGE('',*,*,#361,.T.);
#515=ORIENTED_EDGE('',*,*,#378,.F.);
#516=ORIENTED_EDGE('',*,*,#375,.F.);
#517=ORIENTED_EDGE('',*,*,#382,.F.);
#518=ORIENTED_EDGE('',*,*,#383,.F.);
#519=ORIENTED_EDGE('',*,*,#384,.F.);
#520=ORIENTED_EDGE('',*,*,#385,.T.);
#521=ORIENTED_EDGE('',*,*,#386,.T.);
#522=ORIENTED_EDGE('',*,*,#379,.T.);
#523=ORIENTED_EDGE('',*,*,#387,.T.);
#524=ORIENTED_EDGE('',*,*,#384,.T.);
#525=ORIENTED_EDGE('',*,*,#388,.T.);
#526=ORIENTED_EDGE('',*,*,#365,.T.);
#527=ORIENTED_EDGE('',*,*,#387,.F.);
#528=ORIENTED_EDGE('',*,*,#389,.F.);
#529=ORIENTED_EDGE('',*,*,#390,.F.);
#530=ORIENTED_EDGE('',*,*,#391,.T.);
#531=ORIENTED_EDGE('',*,*,#385,.F.);
#532=ORIENTED_EDGE('',*,*,#363,.F.);
#533=ORIENTED_EDGE('',*,*,#392,.F.);
#534=ORIENTED_EDGE('',*,*,#393,.F.);
#535=ORIENTED_EDGE('',*,*,#357,.T.);
#536=ORIENTED_EDGE('',*,*,#321,.T.);
#537=ORIENTED_EDGE('',*,*,#351,.F.);
#538=ORIENTED_EDGE('',*,*,#394,.F.);
#539=ORIENTED_EDGE('',*,*,#395,.T.);
#540=ORIENTED_EDGE('',*,*,#396,.T.);
#541=ORIENTED_EDGE('',*,*,#380,.T.);
#542=ORIENTED_EDGE('',*,*,#386,.F.);
#543=ORIENTED_EDGE('',*,*,#391,.F.);
#544=ORIENTED_EDGE('',*,*,#397,.F.);
#545=ORIENTED_EDGE('',*,*,#389,.T.);
#546=ORIENTED_EDGE('',*,*,#364,.F.);
#547=ORIENTED_EDGE('',*,*,#395,.F.);
#548=ORIENTED_EDGE('',*,*,#398,.F.);
#549=ORIENTED_EDGE('',*,*,#399,.F.);
#550=ORIENTED_EDGE('',*,*,#398,.T.);
#551=ORIENTED_EDGE('',*,*,#394,.T.);
#552=ORIENTED_EDGE('',*,*,#350,.F.);
#553=ORIENTED_EDGE('',*,*,#400,.F.);
#554=ORIENTED_EDGE('',*,*,#401,.T.);
#555=ORIENTED_EDGE('',*,*,#382,.T.);
#556=ORIENTED_EDGE('',*,*,#374,.F.);
#557=ORIENTED_EDGE('',*,*,#388,.F.);
#558=ORIENTED_EDGE('',*,*,#383,.T.);
#559=ORIENTED_EDGE('',*,*,#401,.F.);
#560=ORIENTED_EDGE('',*,*,#402,.T.);
#561=ORIENTED_EDGE('',*,*,#403,.T.);
#562=ORIENTED_EDGE('',*,*,#404,.T.);
#563=ORIENTED_EDGE('',*,*,#405,.T.);
#564=ORIENTED_EDGE('',*,*,#392,.T.);
#565=ORIENTED_EDGE('',*,*,#362,.T.);
#566=ORIENTED_EDGE('',*,*,#403,.F.);
#567=ORIENTED_EDGE('',*,*,#406,.T.);
#568=ORIENTED_EDGE('',*,*,#358,.T.);
#569=ORIENTED_EDGE('',*,*,#393,.T.);
#570=ORIENTED_EDGE('',*,*,#405,.F.);
#571=ORIENTED_EDGE('',*,*,#367,.F.);
#572=ORIENTED_EDGE('',*,*,#381,.T.);
#573=ORIENTED_EDGE('',*,*,#396,.F.);
#574=ORIENTED_EDGE('',*,*,#390,.T.);
#575=ORIENTED_EDGE('',*,*,#397,.T.);
#576=ORIENTED_EDGE('',*,*,#399,.T.);
#577=ORIENTED_EDGE('',*,*,#349,.F.);
#578=ORIENTED_EDGE('',*,*,#346,.F.);
#579=ORIENTED_EDGE('',*,*,#348,.T.);
#580=ORIENTED_EDGE('',*,*,#335,.F.);
#581=ORIENTED_EDGE('',*,*,#325,.T.);
#582=ORIENTED_EDGE('',*,*,#332,.T.);
#583=ORIENTED_EDGE('',*,*,#352,.F.);
#584=ORIENTED_EDGE('',*,*,#355,.T.);
#585=ORIENTED_EDGE('',*,*,#356,.T.);
#586=ORIENTED_EDGE('',*,*,#406,.F.);
#587=ORIENTED_EDGE('',*,*,#404,.F.);
#588=ORIENTED_EDGE('',*,*,#402,.F.);
#589=ORIENTED_EDGE('',*,*,#400,.T.);
#590=ORIENTED_EDGE('',*,*,#373,.F.);
#591=CYLINDRICAL_SURFACE('',#657,3.);
#592=CYLINDRICAL_SURFACE('',#660,2.5);
#593=CYLINDRICAL_SURFACE('',#661,2.5);
#594=CYLINDRICAL_SURFACE('',#667,2.5);
#595=CYLINDRICAL_SURFACE('',#673,2.5);
#596=CYLINDRICAL_SURFACE('',#677,5.);
#597=CYLINDRICAL_SURFACE('',#679,7.);
#598=CYLINDRICAL_SURFACE('',#682,2.);
#599=CYLINDRICAL_SURFACE('',#685,10.);
#600=CYLINDRICAL_SURFACE('',#688,3.);
#601=CYLINDRICAL_SURFACE('',#691,2.5);
#602=CYLINDRICAL_SURFACE('',#692,2.5);
#603=CYLINDRICAL_SURFACE('',#698,2.5);
#604=CYLINDRICAL_SURFACE('',#704,2.5);
#605=CYLINDRICAL_SURFACE('',#711,5.);
#606=CYLINDRICAL_SURFACE('',#713,7.);
#607=CYLINDRICAL_SURFACE('',#716,2.);
#608=CYLINDRICAL_SURFACE('',#719,10.);
#609=ADVANCED_FACE('',(#39),#591,.F.);
#610=ADVANCED_FACE('',(#40),#592,.F.);
#611=ADVANCED_FACE('',(#41),#593,.T.);
#612=ADVANCED_FACE('',(#42),#19,.T.);
#613=ADVANCED_FACE('',(#43,#15),#20,.T.);
#614=ADVANCED_FACE('',(#44),#594,.T.);
#615=ADVANCED_FACE('',(#45,#16),#21,.F.);
#616=ADVANCED_FACE('',(#46),#22,.T.);
#617=ADVANCED_FACE('',(#47),#595,.T.);
#618=ADVANCED_FACE('',(#48),#23,.F.);
#619=ADVANCED_FACE('',(#49),#596,.T.);
#620=ADVANCED_FACE('',(#50),#597,.F.);
#621=ADVANCED_FACE('',(#51),#598,.F.);
#622=ADVANCED_FACE('',(#52),#24,.T.);
#623=ADVANCED_FACE('',(#53),#599,.T.);
#624=ADVANCED_FACE('',(#54),#600,.F.);
#625=ADVANCED_FACE('',(#55),#601,.F.);
#626=ADVANCED_FACE('',(#56),#602,.T.);
#627=ADVANCED_FACE('',(#57),#25,.F.);
#628=ADVANCED_FACE('',(#58,#17),#26,.F.);
#629=ADVANCED_FACE('',(#59),#603,.T.);
#630=ADVANCED_FACE('',(#60,#18),#27,.T.);
#631=ADVANCED_FACE('',(#61),#28,.F.);
#632=ADVANCED_FACE('',(#62),#604,.T.);
#633=ADVANCED_FACE('',(#63),#29,.T.);
#634=ADVANCED_FACE('',(#64),#30,.F.);
#635=ADVANCED_FACE('',(#65),#605,.T.);
#636=ADVANCED_FACE('',(#66),#606,.F.);
#637=ADVANCED_FACE('',(#67),#31,.T.);
#638=ADVANCED_FACE('',(#68),#607,.F.);
#639=ADVANCED_FACE('',(#69),#32,.F.);
#640=ADVANCED_FACE('',(#70),#608,.T.);
#641=ADVANCED_FACE('',(#71),#33,.F.);
#642=ADVANCED_FACE('',(#72),#34,.F.);
#643=CLOSED_SHELL('',(#609,#610,#611,#612,#613,#614,#615,#616,#617,#618,
#619,#620,#621,#622,#623,#624,#625,#626,#627,#628,#629,#630,#631,#632,#633,
#634,#635,#636,#637,#638,#639,#640,#641,#642));
#644=DERIVED_UNIT_ELEMENT(#646,1.);
#645=DERIVED_UNIT_ELEMENT(#1141,-3.);
#646=(
MASS_UNIT()
NAMED_UNIT(*)
SI_UNIT(.KILO.,.GRAM.)
);
#647=DERIVED_UNIT((#644,#645));
#648=MEASURE_REPRESENTATION_ITEM('density measure',
POSITIVE_RATIO_MEASURE(7850.),#647);
#649=PROPERTY_DEFINITION_REPRESENTATION(#654,#651);
#650=PROPERTY_DEFINITION_REPRESENTATION(#655,#652);
#651=REPRESENTATION('material name',(#653),#1138);
#652=REPRESENTATION('density',(#648),#1138);
#653=DESCRIPTIVE_REPRESENTATION_ITEM('Steel','Steel');
#654=PROPERTY_DEFINITION('material property','material name',#1148);
#655=PROPERTY_DEFINITION('material property','density of part',#1148);
#656=AXIS2_PLACEMENT_3D('',#913,#723,#724);
#657=AXIS2_PLACEMENT_3D('',#914,#725,#726);
#658=AXIS2_PLACEMENT_3D('',#916,#727,#728);
#659=AXIS2_PLACEMENT_3D('',#919,#730,#731);
#660=AXIS2_PLACEMENT_3D('',#920,#732,#733);
#661=AXIS2_PLACEMENT_3D('',#947,#736,#737);
#662=AXIS2_PLACEMENT_3D('',#950,#738,#739);
#663=AXIS2_PLACEMENT_3D('',#954,#741,#742);
#664=AXIS2_PLACEMENT_3D('',#956,#744,#745);
#665=AXIS2_PLACEMENT_3D('',#962,#749,#750);
#666=AXIS2_PLACEMENT_3D('',#964,#751,#752);
#667=AXIS2_PLACEMENT_3D('',#970,#756,#757);
#668=AXIS2_PLACEMENT_3D('',#972,#758,#759);
#669=AXIS2_PLACEMENT_3D('',#974,#761,#762);
#670=AXIS2_PLACEMENT_3D('',#980,#766,#767);
#671=AXIS2_PLACEMENT_3D('',#982,#768,#769);
#672=AXIS2_PLACEMENT_3D('',#989,#773,#774);
#673=AXIS2_PLACEMENT_3D('',#990,#775,#776);
#674=AXIS2_PLACEMENT_3D('',#991,#777,#778);
#675=AXIS2_PLACEMENT_3D('',#992,#779,#780);
#676=AXIS2_PLACEMENT_3D('',#993,#781,#782);
#677=AXIS2_PLACEMENT_3D('',#999,#786,#787);
#678=AXIS2_PLACEMENT_3D('',#1000,#788,#789);
#679=AXIS2_PLACEMENT_3D('',#1001,#790,#791);
#680=AXIS2_PLACEMENT_3D('',#1003,#792,#793);
#681=AXIS2_PLACEMENT_3D('',#1006,#795,#796);
#682=AXIS2_PLACEMENT_3D('',#1007,#797,#798);
#683=AXIS2_PLACEMENT_3D('',#1009,#799,#800);
#684=AXIS2_PLACEMENT_3D('',#1011,#802,#803);
#685=AXIS2_PLACEMENT_3D('',#1015,#806,#807);
#686=AXIS2_PLACEMENT_3D('',#1017,#808,#809);
#687=AXIS2_PLACEMENT_3D('',#1019,#810,#811);
#688=AXIS2_PLACEMENT_3D('',#1021,#813,#814);
#689=AXIS2_PLACEMENT_3D('',#1023,#815,#816);
#690=AXIS2_PLACEMENT_3D('',#1026,#818,#819);
#691=AXIS2_PLACEMENT_3D('',#1027,#820,#821);
#692=AXIS2_PLACEMENT_3D('',#1054,#824,#825);
#693=AXIS2_PLACEMENT_3D('',#1057,#826,#827);
#694=AXIS2_PLACEMENT_3D('',#1061,#829,#830);
#695=AXIS2_PLACEMENT_3D('',#1063,#832,#833);
#696=AXIS2_PLACEMENT_3D('',#1069,#837,#838);
#697=AXIS2_PLACEMENT_3D('',#1076,#842,#843);
#698=AXIS2_PLACEMENT_3D('',#1077,#844,#845);
#699=AXIS2_PLACEMENT_3D('',#1079,#846,#847);
#700=AXIS2_PLACEMENT_3D('',#1081,#849,#850);
#701=AXIS2_PLACEMENT_3D('',#1087,#854,#855);
#702=AXIS2_PLACEMENT_3D('',#1089,#856,#857);
#703=AXIS2_PLACEMENT_3D('',#1096,#861,#862);
#704=AXIS2_PLACEMENT_3D('',#1097,#863,#864);
#705=AXIS2_PLACEMENT_3D('',#1098,#865,#866);
#706=AXIS2_PLACEMENT_3D('',#1099,#867,#868);
#707=AXIS2_PLACEMENT_3D('',#1100,#869,#870);
#708=AXIS2_PLACEMENT_3D('',#1106,#874,#875);
#709=AXIS2_PLACEMENT_3D('',#1108,#876,#877);
#710=AXIS2_PLACEMENT_3D('',#1112,#880,#881);
#711=AXIS2_PLACEMENT_3D('',#1113,#882,#883);
#712=AXIS2_PLACEMENT_3D('',#1114,#884,#885);
#713=AXIS2_PLACEMENT_3D('',#1115,#886,#887);
#714=AXIS2_PLACEMENT_3D('',#1117,#888,#889);
#715=AXIS2_PLACEMENT_3D('',#1119,#891,#892);
#716=AXIS2_PLACEMENT_3D('',#1121,#894,#895);
#717=AXIS2_PLACEMENT_3D('',#1123,#896,#897);
#718=AXIS2_PLACEMENT_3D('',#1125,#899,#900);
#719=AXIS2_PLACEMENT_3D('',#1129,#903,#904);
#720=AXIS2_PLACEMENT_3D('',#1131,#905,#906);
#721=AXIS2_PLACEMENT_3D('',#1133,#908,#909);
#722=AXIS2_PLACEMENT_3D('',#1135,#911,#912);
#723=DIRECTION('axis',(0.,0.,1.));
#724=DIRECTION('refdir',(1.,0.,0.));
#725=DIRECTION('center_axis',(1.,0.,0.));
#726=DIRECTION('ref_axis',(0.,0.,1.));
#727=DIRECTION('center_axis',(1.,0.,7.70371977754894E-33));
#728=DIRECTION('ref_axis',(0.,0.,1.));
#729=DIRECTION('',(-1.,0.,0.));
#730=DIRECTION('center_axis',(-1.,0.,-7.70371977754894E-33));
#731=DIRECTION('ref_axis',(0.,0.,1.));
#732=DIRECTION('center_axis',(0.,0.,1.));
#733=DIRECTION('ref_axis',(-0.707106781186547,-0.707106781186547,0.));
#734=DIRECTION('',(0.,0.,1.));
#735=DIRECTION('',(0.,0.,1.));
#736=DIRECTION('center_axis',(1.,0.,7.70371977754894E-33));
#737=DIRECTION('ref_axis',(0.,-0.707106781186547,-0.707106781186547));
#738=DIRECTION('center_axis',(-1.,0.,-7.70371977754894E-33));
#739=DIRECTION('ref_axis',(0.,-0.707106781186547,-0.707106781186547));
#740=DIRECTION('',(-1.,0.,-7.70371977754894E-33));
#741=DIRECTION('center_axis',(1.,0.,7.70371977754894E-33));
#742=DIRECTION('ref_axis',(0.,-0.707106781186547,-0.707106781186547));
#743=DIRECTION('',(1.,0.,7.70371977754894E-33));
#744=DIRECTION('center_axis',(7.70371977754894E-33,0.,-1.));
#745=DIRECTION('ref_axis',(-1.,0.,-7.70371977754894E-33));
#746=DIRECTION('',(0.,1.,0.));
#747=DIRECTION('',(1.,0.,7.70371977754894E-33));
#748=DIRECTION('',(0.,1.,0.));
#749=DIRECTION('center_axis',(1.,0.,7.70371977754894E-33));
#750=DIRECTION('ref_axis',(7.70371977754894E-33,0.,-1.));
#751=DIRECTION('center_axis',(1.,0.,7.70371977754894E-33));
#752=DIRECTION('ref_axis',(0.,0.707106781186547,-0.707106781186547));
#753=DIRECTION('',(0.,0.,-1.));
#754=DIRECTION('',(0.,1.,0.));
#755=DIRECTION('',(0.,0.,1.));
#756=DIRECTION('center_axis',(1.,0.,7.70371977754894E-33));
#757=DIRECTION('ref_axis',(0.,0.707106781186547,-0.707106781186547));
#758=DIRECTION('center_axis',(-1.,0.,-7.70371977754894E-33));
#759=DIRECTION('ref_axis',(0.,0.707106781186547,-0.707106781186547));
#760=DIRECTION('',(-1.,0.,-7.70371977754894E-33));
#761=DIRECTION('center_axis',(1.,0.,7.70371977754894E-33));
#762=DIRECTION('ref_axis',(7.70371977754894E-33,0.,-1.));
#763=DIRECTION('',(0.,0.,1.));
#764=DIRECTION('',(0.,1.,0.));
#765=DIRECTION('',(0.,0.,-1.));
#766=DIRECTION('center_axis',(0.,1.,0.));
#767=DIRECTION('ref_axis',(0.,0.,1.));
#768=DIRECTION('center_axis',(0.,-1.,0.));
#769=DIRECTION('ref_axis',(0.,0.,1.));
#770=DIRECTION('',(-1.,0.,0.));
#771=DIRECTION('',(0.,0.,-1.));
#772=DIRECTION('',(-1.,0.,0.));
#773=DIRECTION('center_axis',(0.,-1.,0.));
#774=DIRECTION('ref_axis',(0.,0.,1.));
#775=DIRECTION('center_axis',(0.,0.,-1.));
#776=DIRECTION('ref_axis',(0.707106781186547,0.707106781186547,0.));
#777=DIRECTION('center_axis',(0.,0.,1.));
#778=DIRECTION('ref_axis',(0.707106781186547,0.707106781186547,0.));
#779=DIRECTION('center_axis',(0.,0.,-1.));
#780=DIRECTION('ref_axis',(0.707106781186547,0.707106781186547,0.));
#781=DIRECTION('center_axis',(0.,0.,-1.));
#782=DIRECTION('ref_axis',(-1.,0.,0.));
#783=DIRECTION('',(0.,1.,0.));
#784=DIRECTION('',(1.,0.,0.));
#785=DIRECTION('',(0.,1.,0.));
#786=DIRECTION('center_axis',(0.,-1.,0.));
#787=DIRECTION('ref_axis',(0.,0.,1.));
#788=DIRECTION('center_axis',(0.,-1.,0.));
#789=DIRECTION('ref_axis',(0.,0.,1.));
#790=DIRECTION('center_axis',(0.,-1.,0.));
#791=DIRECTION('ref_axis',(0.,0.,-1.));
#792=DIRECTION('center_axis',(0.,-1.,0.));
#793=DIRECTION('ref_axis',(0.,0.,-1.));
#794=DIRECTION('',(0.,1.,0.));
#795=DIRECTION('center_axis',(0.,1.,0.));
#796=DIRECTION('ref_axis',(0.,0.,-1.));
#797=DIRECTION('center_axis',(0.,-1.,0.));
#798=DIRECTION('ref_axis',(0.,0.,1.));
#799=DIRECTION('center_axis',(0.,-1.,0.));
#800=DIRECTION('ref_axis',(0.,0.,1.));
#801=DIRECTION('',(0.,1.,0.));
#802=DIRECTION('center_axis',(0.,0.,-1.));
#803=DIRECTION('ref_axis',(-1.,0.,0.));
#804=DIRECTION('',(0.,1.,0.));
#805=DIRECTION('',(1.,0.,0.));
#806=DIRECTION('center_axis',(0.,-1.,0.));
#807=DIRECTION('ref_axis',(0.,0.,-1.));
#808=DIRECTION('center_axis',(0.,-1.,0.));
#809=DIRECTION('ref_axis',(0.,0.,-1.));
#810=DIRECTION('center_axis',(0.,1.,0.));
#811=DIRECTION('ref_axis',(0.,0.,-1.));
#812=DIRECTION('',(0.,1.,0.));
#813=DIRECTION('center_axis',(-1.,0.,0.));
#814=DIRECTION('ref_axis',(0.,0.,-1.));
#815=DIRECTION('center_axis',(-1.,0.,7.70371977754894E-33));
#816=DIRECTION('ref_axis',(0.,0.,-1.));
#817=DIRECTION('',(-1.,0.,0.));
#818=DIRECTION('center_axis',(1.,0.,-7.70371977754894E-33));
#819=DIRECTION('ref_axis',(0.,0.,-1.));
#820=DIRECTION('center_axis',(0.,0.,1.));
#821=DIRECTION('ref_axis',(-0.707106781186547,-0.707106781186547,0.));
#822=DIRECTION('',(0.,0.,-1.));
#823=DIRECTION('',(0.,0.,-1.));
#824=DIRECTION('center_axis',(-1.,0.,7.70371977754894E-33));
#825=DIRECTION('ref_axis',(0.,-0.707106781186547,0.707106781186547));
#826=DIRECTION('center_axis',(1.,0.,-7.70371977754894E-33));
#827=DIRECTION('ref_axis',(0.,-0.707106781186547,0.707106781186547));
#828=DIRECTION('',(1.,0.,-7.70371977754894E-33));
#829=DIRECTION('center_axis',(-1.,0.,7.70371977754894E-33));
#830=DIRECTION('ref_axis',(0.,-0.707106781186547,0.707106781186547));
#831=DIRECTION('',(-1.,0.,7.70371977754894E-33));
#832=DIRECTION('center_axis',(-7.70371977754894E-33,0.,-1.));
#833=DIRECTION('ref_axis',(-1.,0.,7.70371977754894E-33));
#834=DIRECTION('',(0.,1.,0.));
#835=DIRECTION('',(1.,0.,-7.70371977754894E-33));
#836=DIRECTION('',(0.,1.,0.));
#837=DIRECTION('center_axis',(-1.,0.,7.70371977754894E-33));
#838=DIRECTION('ref_axis',(7.70371977754894E-33,0.,1.));
#839=DIRECTION('',(0.,0.,-1.));
#840=DIRECTION('',(0.,1.,0.));
#841=DIRECTION('',(0.,0.,1.));
#842=DIRECTION('center_axis',(-1.,0.,7.70371977754894E-33));
#843=DIRECTION('ref_axis',(0.,0.707106781186547,0.707106781186547));
#844=DIRECTION('center_axis',(-1.,0.,7.70371977754894E-33));
#845=DIRECTION('ref_axis',(0.,0.707106781186547,0.707106781186547));
#846=DIRECTION('center_axis',(1.,0.,-7.70371977754894E-33));
#847=DIRECTION('ref_axis',(0.,0.707106781186547,0.707106781186547));
#848=DIRECTION('',(-1.,0.,7.70371977754894E-33));
#849=DIRECTION('center_axis',(-1.,0.,7.70371977754894E-33));
#850=DIRECTION('ref_axis',(7.70371977754894E-33,0.,1.));
#851=DIRECTION('',(0.,0.,1.));
#852=DIRECTION('',(0.,1.,0.));
#853=DIRECTION('',(0.,0.,-1.));
#854=DIRECTION('center_axis',(0.,-1.,0.));
#855=DIRECTION('ref_axis',(0.,0.,-1.));
#856=DIRECTION('center_axis',(0.,1.,0.));
#857=DIRECTION('ref_axis',(0.,0.,-1.));
#858=DIRECTION('',(-1.,0.,0.));
#859=DIRECTION('',(0.,0.,1.));
#860=DIRECTION('',(-1.,0.,0.));
#861=DIRECTION('center_axis',(0.,1.,0.));
#862=DIRECTION('ref_axis',(0.,0.,-1.));
#863=DIRECTION('center_axis',(0.,0.,-1.));
#864=DIRECTION('ref_axis',(0.707106781186547,0.707106781186547,0.));
#865=DIRECTION('center_axis',(0.,0.,1.));
#866=DIRECTION('ref_axis',(0.707106781186547,0.707106781186547,0.));
#867=DIRECTION('center_axis',(0.,0.,-1.));
#868=DIRECTION('ref_axis',(0.707106781186547,0.707106781186547,0.));
#869=DIRECTION('center_axis',(0.,0.,-1.));
#870=DIRECTION('ref_axis',(-1.,0.,0.));
#871=DIRECTION('',(0.,1.,0.));
#872=DIRECTION('',(1.,0.,0.));
#873=DIRECTION('',(0.,1.,0.));
#874=DIRECTION('center_axis',(0.,-1.,0.));
#875=DIRECTION('ref_axis',(0.,0.,-1.));
#876=DIRECTION('center_axis',(0.,-1.,0.));
#877=DIRECTION('ref_axis',(0.,0.,1.));
#878=DIRECTION('',(0.,0.,1.));
#879=DIRECTION('',(0.,0.,-1.));
#880=DIRECTION('center_axis',(0.,-1.,0.));
#881=DIRECTION('ref_axis',(0.,0.,1.));
#882=DIRECTION('center_axis',(0.,1.,0.));
#883=DIRECTION('ref_axis',(0.,0.,-1.));
#884=DIRECTION('center_axis',(0.,1.,0.));
#885=DIRECTION('ref_axis',(0.,0.,-1.));
#886=DIRECTION('center_axis',(0.,1.,0.));
#887=DIRECTION('ref_axis',(0.,0.,1.));
#888=DIRECTION('center_axis',(0.,1.,0.));
#889=DIRECTION('ref_axis',(0.,0.,1.));
#890=DIRECTION('',(0.,1.,0.));
#891=DIRECTION('center_axis',(-1.,0.,0.));
#892=DIRECTION('ref_axis',(0.,0.,1.));
#893=DIRECTION('',(0.,0.,-1.));
#894=DIRECTION('center_axis',(0.,1.,0.));
#895=DIRECTION('ref_axis',(0.,0.,-1.));
#896=DIRECTION('center_axis',(0.,1.,0.));
#897=DIRECTION('ref_axis',(0.,0.,-1.));
#898=DIRECTION('',(0.,1.,0.));
#899=DIRECTION('center_axis',(0.,0.,-1.));
#900=DIRECTION('ref_axis',(-1.,0.,0.));
#901=DIRECTION('',(1.,0.,0.));
#902=DIRECTION('',(0.,1.,0.));
#903=DIRECTION('center_axis',(0.,1.,0.));
#904=DIRECTION('ref_axis',(0.,0.,1.));
#905=DIRECTION('center_axis',(0.,1.,0.));
#906=DIRECTION('ref_axis',(0.,0.,1.));
#907=DIRECTION('',(0.,1.,0.));
#908=DIRECTION('center_axis',(-1.,0.,0.));
#909=DIRECTION('ref_axis',(0.,0.,1.));
#910=DIRECTION('',(0.,0.,-1.));
#911=DIRECTION('center_axis',(0.,1.,0.));
#912=DIRECTION('ref_axis',(0.,0.,1.));
#913=CARTESIAN_POINT('',(0.,0.,0.));
#914=CARTESIAN_POINT('Origin',(3.,7.5,-21.4));
#915=CARTESIAN_POINT('',(3.,7.5,-24.4));
#916=CARTESIAN_POINT('Origin',(3.,7.5,-21.4));
#917=CARTESIAN_POINT('',(0.,7.5,-24.4));
#918=CARTESIAN_POINT('',(3.,7.5,-24.4));
#919=CARTESIAN_POINT('Origin',(0.,7.5,-21.4));
#920=CARTESIAN_POINT('Origin',(20.,12.5,-11.7322330470336));
#921=CARTESIAN_POINT('',(20.,10.,-13.6824583655185));
#922=CARTESIAN_POINT('',(17.5,12.5,-14.));
#923=CARTESIAN_POINT('Ctrl Pts',(17.5,12.5,-14.));
#924=CARTESIAN_POINT('Ctrl Pts',(17.5,12.185962817445,-14.));
#925=CARTESIAN_POINT('Ctrl Pts',(17.5627944834867,11.8510190267053,-14.0006174279249));
#926=CARTESIAN_POINT('Ctrl Pts',(17.8180292626276,11.2350293711013,-13.9957565752386));
#927=CARTESIAN_POINT('Ctrl Pts',(18.0104738758353,10.953992218232,-13.9894373537305));
#928=CARTESIAN_POINT('Ctrl Pts',(18.4568987263681,10.5075673676992,-13.9566606641684));
#929=CARTESIAN_POINT('Ctrl Pts',(18.7412483693155,10.3143648452318,-13.9275885525407));
#930=CARTESIAN_POINT('Ctrl Pts',(19.3588705832691,10.0606538568956,-13.8306821835289));
#931=CARTESIAN_POINT('Ctrl Pts',(19.6919495454361,10.,-13.761996650873));
#932=CARTESIAN_POINT('Ctrl Pts',(20.,10.,-13.6824583655185));
#933=CARTESIAN_POINT('',(17.5,12.5,-11.));
#934=CARTESIAN_POINT('',(17.5,12.5,-11.7322330470336));
#935=CARTESIAN_POINT('',(20.,10.,-10.538348415311));
#936=CARTESIAN_POINT('Ctrl Pts',(20.,10.,-10.538348415311));
#937=CARTESIAN_POINT('Ctrl Pts',(19.6984018487436,10.,-10.6536673506518));
#938=CARTESIAN_POINT('Ctrl Pts',(19.3673311022184,10.0583719720542,-10.7538137727077));
#939=CARTESIAN_POINT('Ctrl Pts',(18.747884022903,10.3104741786951,-10.8951947892434));
#940=CARTESIAN_POINT('Ctrl Pts',(18.4599240109815,10.5045420830858,-10.937648205247));
#941=CARTESIAN_POINT('Ctrl Pts',(18.0106894857875,10.9537766082798,-10.9848994837274));
#942=CARTESIAN_POINT('Ctrl Pts',(17.8181981527265,11.2347275121734,-10.9939303488868));
#943=CARTESIAN_POINT('Ctrl Pts',(17.5628578488192,11.8507604510029,-11.0008828447105));
#944=CARTESIAN_POINT('Ctrl Pts',(17.5,12.1858247333125,-11.));
#945=CARTESIAN_POINT('Ctrl Pts',(17.5,12.5,-11.));
#946=CARTESIAN_POINT('',(20.,10.,-11.7322330470336));
#947=CARTESIAN_POINT('Origin',(0.732233047033631,2.5,-26.85));
#948=CARTESIAN_POINT('',(6.16297582203915E-32,2.5,-29.35));
#949=CARTESIAN_POINT('',(0.,0.,-26.85));
#950=CARTESIAN_POINT('Origin',(0.,2.5,-26.85));
#951=CARTESIAN_POINT('',(3.,2.5,-29.35));
#952=CARTESIAN_POINT('',(0.732233047033631,2.5,-29.35));
#953=CARTESIAN_POINT('',(3.,0.,-26.85));
#954=CARTESIAN_POINT('Origin',(3.,2.5,-26.85));
#955=CARTESIAN_POINT('',(0.732233047033631,0.,-26.85));
#956=CARTESIAN_POINT('Origin',(6.16297582203915E-32,5.,-29.35));
#957=CARTESIAN_POINT('',(6.16297582203915E-32,12.5,-29.35));
#958=CARTESIAN_POINT('',(6.16297582203915E-32,0.,-29.35));
#959=CARTESIAN_POINT('',(3.,12.5,-29.35));
#960=CARTESIAN_POINT('',(0.732233047033631,12.5,-29.35));
#961=CARTESIAN_POINT('',(3.,0.,-29.35));
#962=CARTESIAN_POINT('Origin',(3.,0.,-21.35));
#963=CARTESIAN_POINT('',(3.,15.,-26.85));
#964=CARTESIAN_POINT('Origin',(3.,12.5,-26.85));
#965=CARTESIAN_POINT('',(3.,15.,-16.));
#966=CARTESIAN_POINT('',(3.,15.,-18.0875));
#967=CARTESIAN_POINT('',(3.,0.,-16.));
#968=CARTESIAN_POINT('',(3.,0.,-16.));
#969=CARTESIAN_POINT('',(3.,0.,-21.35));
#970=CARTESIAN_POINT('Origin',(0.732233047033631,12.5,-26.85));
#971=CARTESIAN_POINT('',(0.,15.,-26.85));
#972=CARTESIAN_POINT('Origin',(0.,12.5,-26.85));
#973=CARTESIAN_POINT('',(0.732233047033631,15.,-26.85));
#974=CARTESIAN_POINT('Origin',(0.,0.,-21.35));
#975=CARTESIAN_POINT('',(0.,0.,-16.));
#976=CARTESIAN_POINT('',(0.,0.,-21.35));
#977=CARTESIAN_POINT('',(0.,15.,-16.));
#978=CARTESIAN_POINT('',(0.,0.,-16.));
#979=CARTESIAN_POINT('',(0.,15.,-18.0875));
#980=CARTESIAN_POINT('Origin',(1.46446609406726,15.,-12.4644660940673));
#981=CARTESIAN_POINT('',(5.,15.,-11.));
#982=CARTESIAN_POINT('Origin',(5.,15.,-16.));
#983=CARTESIAN_POINT('',(15.,15.,-11.));
#984=CARTESIAN_POINT('',(13.125,15.,-11.));
#985=CARTESIAN_POINT('',(15.,15.,-14.));
#986=CARTESIAN_POINT('',(15.,15.,-11.7322330470336));
#987=CARTESIAN_POINT('',(5.,15.,-14.));
#988=CARTESIAN_POINT('',(13.125,15.,-14.));
#989=CARTESIAN_POINT('Origin',(5.,15.,-16.));
#990=CARTESIAN_POINT('Origin',(15.,12.5,-11.7322330470336));
#991=CARTESIAN_POINT('Origin',(15.,12.5,-11.));
#992=CARTESIAN_POINT('Origin',(15.,12.5,-14.));
#993=CARTESIAN_POINT('Origin',(17.5,0.,-11.));
#994=CARTESIAN_POINT('',(5.,0.,-11.));
#995=CARTESIAN_POINT('',(5.,0.,-11.));
#996=CARTESIAN_POINT('',(17.5,0.,-11.));
#997=CARTESIAN_POINT('',(5.,0.,-11.));
#998=CARTESIAN_POINT('',(17.5,0.,-11.));
#999=CARTESIAN_POINT('Origin',(5.,0.,-16.));
#1000=CARTESIAN_POINT('Origin',(5.,0.,-16.));
#1001=CARTESIAN_POINT('Origin',(17.5,0.,-4.));
#1002=CARTESIAN_POINT('',(24.5,0.,-4.));
#1003=CARTESIAN_POINT('Origin',(17.5,0.,-4.));
#1004=CARTESIAN_POINT('',(24.5,10.,-4.));
#1005=CARTESIAN_POINT('',(24.5,0.,-4.));
#1006=CARTESIAN_POINT('Origin',(17.5,10.,-4.));
#1007=CARTESIAN_POINT('Origin',(5.,0.,-16.));
#1008=CARTESIAN_POINT('',(5.,0.,-14.));
#1009=CARTESIAN_POINT('Origin',(5.,0.,-16.));
#1010=CARTESIAN_POINT('',(5.,0.,-14.));
#1011=CARTESIAN_POINT('Origin',(17.5,0.,-14.));
#1012=CARTESIAN_POINT('',(17.5,0.,-14.));
#1013=CARTESIAN_POINT('',(17.5,0.,-14.));
#1014=CARTESIAN_POINT('',(5.,0.,-14.));
#1015=CARTESIAN_POINT('Origin',(17.5,0.,-4.));
#1016=CARTESIAN_POINT('',(27.5,0.,-4.));
#1017=CARTESIAN_POINT('Origin',(17.5,0.,-4.));
#1018=CARTESIAN_POINT('',(27.5,10.,-4.));
#1019=CARTESIAN_POINT('Origin',(17.5,10.,-4.));
#1020=CARTESIAN_POINT('',(27.5,0.,-4.));
#1021=CARTESIAN_POINT('Origin',(3.,7.5,21.4));
#1022=CARTESIAN_POINT('',(3.,7.5,24.4));
#1023=CARTESIAN_POINT('Origin',(3.,7.5,21.4));
#1024=CARTESIAN_POINT('',(0.,7.5,24.4));
#1025=CARTESIAN_POINT('',(3.,7.5,24.4));
#1026=CARTESIAN_POINT('Origin',(0.,7.5,21.4));
#1027=CARTESIAN_POINT('Origin',(20.,12.5,11.7322330470336));
#1028=CARTESIAN_POINT('',(20.,10.,13.6824583655186));
#1029=CARTESIAN_POINT('',(17.5,12.5,14.));
#1030=CARTESIAN_POINT('Ctrl Pts',(17.5,12.5,14.));
#1031=CARTESIAN_POINT('Ctrl Pts',(17.5,12.185962817445,14.));
#1032=CARTESIAN_POINT('Ctrl Pts',(17.5627944834867,11.8510190267053,14.0006174279249));
#1033=CARTESIAN_POINT('Ctrl Pts',(17.8180292626276,11.2350293711013,13.9957565752386));
#1034=CARTESIAN_POINT('Ctrl Pts',(18.0104738758353,10.953992218232,13.9894373537305));
#1035=CARTESIAN_POINT('Ctrl Pts',(18.4568987263681,10.5075673676992,13.9566606641684));
#1036=CARTESIAN_POINT('Ctrl Pts',(18.7412483693155,10.3143648452318,13.9275885525407));
#1037=CARTESIAN_POINT('Ctrl Pts',(19.3588705832691,10.0606538568956,13.8306821835289));
#1038=CARTESIAN_POINT('Ctrl Pts',(19.6919495454361,10.,13.7619966508731));
#1039=CARTESIAN_POINT('Ctrl Pts',(20.,10.,13.6824583655186));
#1040=CARTESIAN_POINT('',(20.,10.,10.538348415311));
#1041=CARTESIAN_POINT('',(20.,10.,11.7322330470336));
#1042=CARTESIAN_POINT('',(17.5,12.5,11.));
#1043=CARTESIAN_POINT('Ctrl Pts',(20.,10.,10.538348415311));
#1044=CARTESIAN_POINT('Ctrl Pts',(19.6984018487436,10.,10.6536673506518));
#1045=CARTESIAN_POINT('Ctrl Pts',(19.3673311022184,10.0583719720542,10.7538137727077));
#1046=CARTESIAN_POINT('Ctrl Pts',(18.747884022903,10.3104741786951,10.8951947892434));
#1047=CARTESIAN_POINT('Ctrl Pts',(18.4599240109815,10.5045420830858,10.937648205247));
#1048=CARTESIAN_POINT('Ctrl Pts',(18.0106894857875,10.9537766082798,10.9848994837274));
#1049=CARTESIAN_POINT('Ctrl Pts',(17.8181981527265,11.2347275121734,10.9939303488868));
#1050=CARTESIAN_POINT('Ctrl Pts',(17.5628578488192,11.8507604510029,11.0008828447105));
#1051=CARTESIAN_POINT('Ctrl Pts',(17.5,12.1858247333125,11.));
#1052=CARTESIAN_POINT('Ctrl Pts',(17.5,12.5,11.));
#1053=CARTESIAN_POINT('',(17.5,12.5,11.7322330470336));
#1054=CARTESIAN_POINT('Origin',(0.732233047033631,2.5,26.85));
#1055=CARTESIAN_POINT('',(6.16297582203915E-32,2.5,29.35));
#1056=CARTESIAN_POINT('',(0.,0.,26.85));
#1057=CARTESIAN_POINT('Origin',(0.,2.5,26.85));
#1058=CARTESIAN_POINT('',(3.,0.,26.85));
#1059=CARTESIAN_POINT('',(0.732233047033631,0.,26.85));
#1060=CARTESIAN_POINT('',(3.,2.5,29.35));
#1061=CARTESIAN_POINT('Origin',(3.,2.5,26.85));
#1062=CARTESIAN_POINT('',(0.732233047033631,2.5,29.35));
#1063=CARTESIAN_POINT('Origin',(6.16297582203915E-32,5.,29.35));
#1064=CARTESIAN_POINT('',(3.,12.5,29.35));
#1065=CARTESIAN_POINT('',(3.,0.,29.35));
#1066=CARTESIAN_POINT('',(6.16297582203915E-32,12.5,29.35));
#1067=CARTESIAN_POINT('',(0.732233047033631,12.5,29.35));
#1068=CARTESIAN_POINT('',(6.16297582203915E-32,0.,29.35));
#1069=CARTESIAN_POINT('Origin',(3.,0.,21.35));
#1070=CARTESIAN_POINT('',(3.,0.,16.));
#1071=CARTESIAN_POINT('',(3.,0.,21.35));
#1072=CARTESIAN_POINT('',(3.,15.,16.));
#1073=CARTESIAN_POINT('',(3.,0.,16.));
#1074=CARTESIAN_POINT('',(3.,15.,26.85));
#1075=CARTESIAN_POINT('',(3.,15.,18.0875));
#1076=CARTESIAN_POINT('Origin',(3.,12.5,26.85));
#1077=CARTESIAN_POINT('Origin',(0.732233047033631,12.5,26.85));
#1078=CARTESIAN_POINT('',(0.,15.,26.85));
#1079=CARTESIAN_POINT('Origin',(0.,12.5,26.85));
#1080=CARTESIAN_POINT('',(0.732233047033631,15.,26.85));
#1081=CARTESIAN_POINT('Origin',(0.,0.,21.35));
#1082=CARTESIAN_POINT('',(0.,15.,16.));
#1083=CARTESIAN_POINT('',(0.,15.,18.0875));
#1084=CARTESIAN_POINT('',(0.,0.,16.));
#1085=CARTESIAN_POINT('',(0.,0.,16.));
#1086=CARTESIAN_POINT('',(0.,0.,21.35));
#1087=CARTESIAN_POINT('Origin',(1.46446609406726,15.,12.4644660940673));
#1088=CARTESIAN_POINT('',(5.,15.,14.));
#1089=CARTESIAN_POINT('Origin',(5.,15.,16.));
#1090=CARTESIAN_POINT('',(15.,15.,14.));
#1091=CARTESIAN_POINT('',(13.125,15.,14.));
#1092=CARTESIAN_POINT('',(15.,15.,11.));
#1093=CARTESIAN_POINT('',(15.,15.,11.7322330470336));
#1094=CARTESIAN_POINT('',(5.,15.,11.));
#1095=CARTESIAN_POINT('',(13.125,15.,11.));
#1096=CARTESIAN_POINT('Origin',(5.,15.,16.));
#1097=CARTESIAN_POINT('Origin',(15.,12.5,11.7322330470336));
#1098=CARTESIAN_POINT('Origin',(15.,12.5,11.));
#1099=CARTESIAN_POINT('Origin',(15.,12.5,14.));
#1100=CARTESIAN_POINT('Origin',(17.5,0.,11.));
#1101=CARTESIAN_POINT('',(17.5,0.,11.));
#1102=CARTESIAN_POINT('',(17.5,0.,11.));
#1103=CARTESIAN_POINT('',(5.,0.,11.));
#1104=CARTESIAN_POINT('',(5.,0.,11.));
#1105=CARTESIAN_POINT('',(5.,0.,11.));
#1106=CARTESIAN_POINT('Origin',(1.46446609406726,10.,12.4644660940673));
#1107=CARTESIAN_POINT('',(27.5,10.,4.00000000000001));
#1108=CARTESIAN_POINT('Origin',(17.5,10.,4.00000000000001));
#1109=CARTESIAN_POINT('',(27.5,10.,4.00000000000001));
#1110=CARTESIAN_POINT('',(24.5,10.,4.00000000000001));
#1111=CARTESIAN_POINT('',(24.5,10.,-4.));
#1112=CARTESIAN_POINT('Origin',(17.5,10.,4.00000000000001));
#1113=CARTESIAN_POINT('Origin',(5.,0.,16.));
#1114=CARTESIAN_POINT('Origin',(5.,0.,16.));
#1115=CARTESIAN_POINT('Origin',(17.5,0.,4.00000000000001));
#1116=CARTESIAN_POINT('',(24.5,0.,4.00000000000001));
#1117=CARTESIAN_POINT('Origin',(17.5,0.,4.00000000000001));
#1118=CARTESIAN_POINT('',(24.5,0.,4.00000000000001));
#1119=CARTESIAN_POINT('Origin',(24.5,0.,4.9960036108132E-15));
#1120=CARTESIAN_POINT('',(24.5,0.,4.00000000000001));
#1121=CARTESIAN_POINT('Origin',(5.,0.,16.));
#1122=CARTESIAN_POINT('',(5.,0.,14.));
#1123=CARTESIAN_POINT('Origin',(5.,0.,16.));
#1124=CARTESIAN_POINT('',(5.,0.,14.));
#1125=CARTESIAN_POINT('Origin',(17.5,0.,14.));
#1126=CARTESIAN_POINT('',(17.5,0.,14.));
#1127=CARTESIAN_POINT('',(5.,0.,14.));
#1128=CARTESIAN_POINT('',(17.5,0.,14.));
#1129=CARTESIAN_POINT('Origin',(17.5,0.,4.00000000000001));
#1130=CARTESIAN_POINT('',(27.5,0.,4.00000000000001));
#1131=CARTESIAN_POINT('Origin',(17.5,0.,4.00000000000001));
#1132=CARTESIAN_POINT('',(27.5,0.,4.00000000000001));
#1133=CARTESIAN_POINT('Origin',(27.5,0.,4.9960036108132E-15));
#1134=CARTESIAN_POINT('',(27.5,0.,4.00000000000001));
#1135=CARTESIAN_POINT('Origin',(1.46446609406726,0.,12.4644660940673));
#1136=UNCERTAINTY_MEASURE_WITH_UNIT(LENGTH_MEASURE(0.01),#1140,
'DISTANCE_ACCURACY_VALUE',
'Maximum model space distance between geometric entities at asserted c
onnectivities');
#1137=UNCERTAINTY_MEASURE_WITH_UNIT(LENGTH_MEASURE(0.01),#1140,
'DISTANCE_ACCURACY_VALUE',
'Maximum model space distance between geometric entities at asserted c
onnectivities');
#1138=(
GEOMETRIC_REPRESENTATION_CONTEXT(3)
GLOBAL_UNCERTAINTY_ASSIGNED_CONTEXT((#1136))
GLOBAL_UNIT_ASSIGNED_CONTEXT((#1140,#1142,#1143))
REPRESENTATION_CONTEXT('','3D')
);
#1139=(
GEOMETRIC_REPRESENTATION_CONTEXT(3)
GLOBAL_UNCERTAINTY_ASSIGNED_CONTEXT((#1137))
GLOBAL_UNIT_ASSIGNED_CONTEXT((#1140,#1142,#1143))
REPRESENTATION_CONTEXT('','3D')
);
#1140=(
LENGTH_UNIT()
NAMED_UNIT(*)
SI_UNIT(.MILLI.,.METRE.)
);
#1141=(
LENGTH_UNIT()
NAMED_UNIT(*)
SI_UNIT($,.METRE.)
);
#1142=(
NAMED_UNIT(*)
PLANE_ANGLE_UNIT()
SI_UNIT($,.RADIAN.)
);
#1143=(
NAMED_UNIT(*)
SI_UNIT($,.STERADIAN.)
SOLID_ANGLE_UNIT()
);
#1144=SHAPE_DEFINITION_REPRESENTATION(#1145,#1146);
#1145=PRODUCT_DEFINITION_SHAPE('',$,#1148);
#1146=SHAPE_REPRESENTATION('',(#656),#1138);
#1147=PRODUCT_DEFINITION_CONTEXT('part definition',#1152,'design');
#1148=PRODUCT_DEFINITION('2026-05-19-14-26-47-296','pipette bracket',#1149,
#1147);
#1149=PRODUCT_DEFINITION_FORMATION('',$,#1154);
#1150=PRODUCT_RELATED_PRODUCT_CATEGORY('pipette bracket',
'pipette bracket',(#1154));
#1151=APPLICATION_PROTOCOL_DEFINITION('international standard',
'automotive_design',2009,#1152);
#1152=APPLICATION_CONTEXT(
'Core Data for Automotive Mechanical Design Process');
#1153=PRODUCT_CONTEXT('part definition',#1152,'mechanical');
#1154=PRODUCT('2026-05-19-14-26-47-296','pipette bracket',$,(#1153));
#1155=PRESENTATION_STYLE_ASSIGNMENT((#1156));
#1156=SURFACE_STYLE_USAGE(.BOTH.,#1157);
#1157=SURFACE_SIDE_STYLE('',(#1158));
#1158=SURFACE_STYLE_FILL_AREA(#1159);
#1159=FILL_AREA_STYLE('Steel - Satin',(#1160));
#1160=FILL_AREA_STYLE_COLOUR('Steel - Satin',#1161);
#1161=COLOUR_RGB('Steel - Satin',0.627450980392157,0.627450980392157,0.627450980392157);
ENDSEC;
END-ISO-10303-21;
