ISO-10303-21;
HEADER;
/* Generated by software containing ST-Developer
 * from STEP Tools, Inc. (www.steptools.com) 
 */

FILE_DESCRIPTION(
/* description */ (''),
/* implementation_level */ '2;1');

FILE_NAME(
/* name */ 'tip ejector.step',
/* time_stamp */ '2026-06-16T09:33:45+08:00',
/* author */ (''),
/* organization */ (''),
/* preprocessor_version */ 'ST-DEVELOPER v20.1',
/* originating_system */ 'Autodesk Translation Framework v15.8.0.0',
/* authorisation */ '');

FILE_SCHEMA (('AUTOMOTIVE_DESIGN { 1 0 10303 214 3 1 1 }'));
ENDSEC;

DATA;
#10=MECHANICAL_DESIGN_GEOMETRIC_PRESENTATION_REPRESENTATION('',(#23,#24),
#1993);
#11=ITEM_DEFINED_TRANSFORMATION($,$,#1212,#1317);
#12=ITEM_DEFINED_TRANSFORMATION($,$,#1211,#1318);
#13=(
REPRESENTATION_RELATIONSHIP($,$,#2008,#2007)
REPRESENTATION_RELATIONSHIP_WITH_TRANSFORMATION(#11)
SHAPE_REPRESENTATION_RELATIONSHIP()
);
#14=(
REPRESENTATION_RELATIONSHIP($,$,#2007,#2006)
REPRESENTATION_RELATIONSHIP_WITH_TRANSFORMATION(#12)
SHAPE_REPRESENTATION_RELATIONSHIP()
);
#15=CONTEXT_DEPENDENT_SHAPE_REPRESENTATION(#13,#2004);
#16=CONTEXT_DEPENDENT_SHAPE_REPRESENTATION(#14,#2005);
#17=NEXT_ASSEMBLY_USAGE_OCCURRENCE('Tip ejector:1','Tip ejector:1',
'Tip ejector:1',#2011,#2012,'Tip ejector:1');
#18=NEXT_ASSEMBLY_USAGE_OCCURRENCE('camera mount:1','camera mount:1',
'camera mount:1',#2010,#2011,'camera mount:1');
#19=SHAPE_REPRESENTATION_RELATIONSHIP('SRR','None',#2008,#21);
#20=SHAPE_REPRESENTATION_RELATIONSHIP('SRR','None',#2007,#22);
#21=ADVANCED_BREP_SHAPE_REPRESENTATION('',(#25),#1992);
#22=ADVANCED_BREP_SHAPE_REPRESENTATION('',(#26),#1991);
#23=STYLED_ITEM('',(#2026),#25);
#24=STYLED_ITEM('',(#2025),#26);
#25=MANIFOLD_SOLID_BREP('Body1',#1196);
#26=MANIFOLD_SOLID_BREP('Body1',#1197);
#27=FACE_BOUND('',#166,.T.);
#28=FACE_BOUND('',#167,.T.);
#29=FACE_BOUND('',#168,.T.);
#30=FACE_BOUND('',#169,.T.);
#31=FACE_BOUND('',#170,.T.);
#32=FACE_BOUND('',#171,.T.);
#33=FACE_BOUND('',#172,.T.);
#34=FACE_BOUND('',#173,.T.);
#35=FACE_BOUND('',#180,.T.);
#36=FACE_BOUND('',#181,.T.);
#37=FACE_BOUND('',#182,.T.);
#38=FACE_BOUND('',#183,.T.);
#39=FACE_BOUND('',#184,.T.);
#40=FACE_BOUND('',#185,.T.);
#41=FACE_BOUND('',#186,.T.);
#42=FACE_BOUND('',#187,.T.);
#43=FACE_BOUND('',#206,.T.);
#44=FACE_BOUND('',#208,.T.);
#45=FACE_BOUND('',#216,.T.);
#46=FACE_BOUND('',#218,.T.);
#47=FACE_BOUND('',#223,.T.);
#48=FACE_BOUND('',#227,.T.);
#49=FACE_BOUND('',#228,.T.);
#50=FACE_BOUND('',#233,.T.);
#51=FACE_BOUND('',#234,.T.);
#52=FACE_BOUND('',#237,.T.);
#53=FACE_BOUND('',#240,.T.);
#54=FACE_BOUND('',#243,.T.);
#55=FACE_BOUND('',#248,.T.);
#56=FACE_BOUND('',#250,.T.);
#57=FACE_BOUND('',#252,.T.);
#58=PLANE('',#1216);
#59=PLANE('',#1217);
#60=PLANE('',#1225);
#61=PLANE('',#1236);
#62=PLANE('',#1239);
#63=PLANE('',#1242);
#64=PLANE('',#1253);
#65=PLANE('',#1262);
#66=PLANE('',#1263);
#67=PLANE('',#1264);
#68=PLANE('',#1265);
#69=PLANE('',#1266);
#70=PLANE('',#1267);
#71=PLANE('',#1268);
#72=PLANE('',#1269);
#73=PLANE('',#1271);
#74=PLANE('',#1273);
#75=PLANE('',#1274);
#76=PLANE('',#1275);
#77=PLANE('',#1276);
#78=PLANE('',#1277);
#79=PLANE('',#1278);
#80=PLANE('',#1279);
#81=PLANE('',#1281);
#82=PLANE('',#1287);
#83=PLANE('',#1288);
#84=PLANE('',#1290);
#85=PLANE('',#1291);
#86=PLANE('',#1292);
#87=PLANE('',#1297);
#88=PLANE('',#1298);
#89=PLANE('',#1299);
#90=PLANE('',#1300);
#91=PLANE('',#1302);
#92=PLANE('',#1303);
#93=PLANE('',#1305);
#94=PLANE('',#1306);
#95=PLANE('',#1313);
#96=PLANE('',#1314);
#97=PLANE('',#1315);
#98=PLANE('',#1316);
#99=FACE_OUTER_BOUND('',#161,.T.);
#100=FACE_OUTER_BOUND('',#162,.T.);
#101=FACE_OUTER_BOUND('',#163,.T.);
#102=FACE_OUTER_BOUND('',#164,.T.);
#103=FACE_OUTER_BOUND('',#165,.T.);
#104=FACE_OUTER_BOUND('',#174,.T.);
#105=FACE_OUTER_BOUND('',#175,.T.);
#106=FACE_OUTER_BOUND('',#176,.T.);
#107=FACE_OUTER_BOUND('',#177,.T.);
#108=FACE_OUTER_BOUND('',#178,.T.);
#109=FACE_OUTER_BOUND('',#179,.T.);
#110=FACE_OUTER_BOUND('',#188,.T.);
#111=FACE_OUTER_BOUND('',#189,.T.);
#112=FACE_OUTER_BOUND('',#190,.T.);
#113=FACE_OUTER_BOUND('',#191,.T.);
#114=FACE_OUTER_BOUND('',#192,.T.);
#115=FACE_OUTER_BOUND('',#193,.T.);
#116=FACE_OUTER_BOUND('',#194,.T.);
#117=FACE_OUTER_BOUND('',#195,.T.);
#118=FACE_OUTER_BOUND('',#196,.T.);
#119=FACE_OUTER_BOUND('',#197,.T.);
#120=FACE_OUTER_BOUND('',#198,.T.);
#121=FACE_OUTER_BOUND('',#199,.T.);
#122=FACE_OUTER_BOUND('',#200,.T.);
#123=FACE_OUTER_BOUND('',#201,.T.);
#124=FACE_OUTER_BOUND('',#202,.T.);
#125=FACE_OUTER_BOUND('',#203,.T.);
#126=FACE_OUTER_BOUND('',#204,.T.);
#127=FACE_OUTER_BOUND('',#205,.T.);
#128=FACE_OUTER_BOUND('',#207,.T.);
#129=FACE_OUTER_BOUND('',#209,.T.);
#130=FACE_OUTER_BOUND('',#210,.T.);
#131=FACE_OUTER_BOUND('',#211,.T.);
#132=FACE_OUTER_BOUND('',#212,.T.);
#133=FACE_OUTER_BOUND('',#213,.T.);
#134=FACE_OUTER_BOUND('',#214,.T.);
#135=FACE_OUTER_BOUND('',#215,.T.);
#136=FACE_OUTER_BOUND('',#217,.T.);
#137=FACE_OUTER_BOUND('',#219,.T.);
#138=FACE_OUTER_BOUND('',#220,.T.);
#139=FACE_OUTER_BOUND('',#221,.T.);
#140=FACE_OUTER_BOUND('',#222,.T.);
#141=FACE_OUTER_BOUND('',#224,.T.);
#142=FACE_OUTER_BOUND('',#225,.T.);
#143=FACE_OUTER_BOUND('',#226,.T.);
#144=FACE_OUTER_BOUND('',#229,.T.);
#145=FACE_OUTER_BOUND('',#230,.T.);
#146=FACE_OUTER_BOUND('',#231,.T.);
#147=FACE_OUTER_BOUND('',#232,.T.);
#148=FACE_OUTER_BOUND('',#235,.T.);
#149=FACE_OUTER_BOUND('',#236,.T.);
#150=FACE_OUTER_BOUND('',#238,.T.);
#151=FACE_OUTER_BOUND('',#239,.T.);
#152=FACE_OUTER_BOUND('',#241,.T.);
#153=FACE_OUTER_BOUND('',#242,.T.);
#154=FACE_OUTER_BOUND('',#244,.T.);
#155=FACE_OUTER_BOUND('',#245,.T.);
#156=FACE_OUTER_BOUND('',#246,.T.);
#157=FACE_OUTER_BOUND('',#247,.T.);
#158=FACE_OUTER_BOUND('',#249,.T.);
#159=FACE_OUTER_BOUND('',#251,.T.);
#160=FACE_OUTER_BOUND('',#253,.T.);
#161=EDGE_LOOP('',(#795,#796,#797,#798));
#162=EDGE_LOOP('',(#799,#800,#801,#802));
#163=EDGE_LOOP('',(#803,#804,#805,#806,#807,#808,#809,#810,#811,#812,#813,
#814));
#164=EDGE_LOOP('',(#815,#816,#817,#818));
#165=EDGE_LOOP('',(#819,#820,#821,#822));
#166=EDGE_LOOP('',(#823));
#167=EDGE_LOOP('',(#824));
#168=EDGE_LOOP('',(#825));
#169=EDGE_LOOP('',(#826));
#170=EDGE_LOOP('',(#827));
#171=EDGE_LOOP('',(#828));
#172=EDGE_LOOP('',(#829));
#173=EDGE_LOOP('',(#830));
#174=EDGE_LOOP('',(#831,#832,#833,#834));
#175=EDGE_LOOP('',(#835,#836,#837,#838));
#176=EDGE_LOOP('',(#839,#840,#841,#842));
#177=EDGE_LOOP('',(#843,#844,#845,#846));
#178=EDGE_LOOP('',(#847,#848,#849,#850));
#179=EDGE_LOOP('',(#851,#852,#853,#854));
#180=EDGE_LOOP('',(#855));
#181=EDGE_LOOP('',(#856));
#182=EDGE_LOOP('',(#857));
#183=EDGE_LOOP('',(#858));
#184=EDGE_LOOP('',(#859));
#185=EDGE_LOOP('',(#860));
#186=EDGE_LOOP('',(#861));
#187=EDGE_LOOP('',(#862));
#188=EDGE_LOOP('',(#863,#864,#865,#866));
#189=EDGE_LOOP('',(#867,#868,#869,#870));
#190=EDGE_LOOP('',(#871,#872,#873,#874));
#191=EDGE_LOOP('',(#875,#876,#877,#878));
#192=EDGE_LOOP('',(#879,#880,#881,#882));
#193=EDGE_LOOP('',(#883,#884,#885,#886));
#194=EDGE_LOOP('',(#887,#888,#889,#890));
#195=EDGE_LOOP('',(#891,#892,#893,#894));
#196=EDGE_LOOP('',(#895,#896,#897,#898));
#197=EDGE_LOOP('',(#899,#900,#901,#902));
#198=EDGE_LOOP('',(#903,#904,#905,#906,#907,#908,#909,#910,#911,#912,#913,
#914));
#199=EDGE_LOOP('',(#915,#916,#917,#918));
#200=EDGE_LOOP('',(#919,#920,#921,#922));
#201=EDGE_LOOP('',(#923,#924,#925,#926));
#202=EDGE_LOOP('',(#927,#928,#929,#930));
#203=EDGE_LOOP('',(#931,#932,#933,#934));
#204=EDGE_LOOP('',(#935,#936,#937,#938));
#205=EDGE_LOOP('',(#939,#940,#941,#942,#943,#944));
#206=EDGE_LOOP('',(#945));
#207=EDGE_LOOP('',(#946,#947,#948,#949,#950,#951));
#208=EDGE_LOOP('',(#952));
#209=EDGE_LOOP('',(#953,#954,#955,#956));
#210=EDGE_LOOP('',(#957,#958,#959,#960));
#211=EDGE_LOOP('',(#961,#962,#963,#964));
#212=EDGE_LOOP('',(#965,#966,#967,#968));
#213=EDGE_LOOP('',(#969,#970,#971,#972));
#214=EDGE_LOOP('',(#973,#974,#975,#976));
#215=EDGE_LOOP('',(#977,#978,#979,#980,#981,#982));
#216=EDGE_LOOP('',(#983));
#217=EDGE_LOOP('',(#984,#985,#986,#987,#988,#989));
#218=EDGE_LOOP('',(#990));
#219=EDGE_LOOP('',(#991,#992,#993,#994));
#220=EDGE_LOOP('',(#995,#996,#997,#998));
#221=EDGE_LOOP('',(#999,#1000,#1001,#1002,#1003,#1004));
#222=EDGE_LOOP('',(#1005,#1006,#1007,#1008,#1009,#1010,#1011,#1012));
#223=EDGE_LOOP('',(#1013));
#224=EDGE_LOOP('',(#1014,#1015,#1016,#1017,#1018,#1019,#1020,#1021,#1022,
#1023));
#225=EDGE_LOOP('',(#1024,#1025,#1026,#1027));
#226=EDGE_LOOP('',(#1028,#1029,#1030,#1031));
#227=EDGE_LOOP('',(#1032));
#228=EDGE_LOOP('',(#1033));
#229=EDGE_LOOP('',(#1034,#1035,#1036,#1037));
#230=EDGE_LOOP('',(#1038,#1039,#1040,#1041));
#231=EDGE_LOOP('',(#1042,#1043,#1044,#1045));
#232=EDGE_LOOP('',(#1046,#1047,#1048,#1049));
#233=EDGE_LOOP('',(#1050));
#234=EDGE_LOOP('',(#1051));
#235=EDGE_LOOP('',(#1052,#1053,#1054,#1055));
#236=EDGE_LOOP('',(#1056,#1057,#1058,#1059));
#237=EDGE_LOOP('',(#1060));
#238=EDGE_LOOP('',(#1061,#1062,#1063,#1064));
#239=EDGE_LOOP('',(#1065,#1066,#1067,#1068));
#240=EDGE_LOOP('',(#1069));
#241=EDGE_LOOP('',(#1070,#1071,#1072,#1073));
#242=EDGE_LOOP('',(#1074,#1075,#1076,#1077));
#243=EDGE_LOOP('',(#1078));
#244=EDGE_LOOP('',(#1079,#1080,#1081,#1082));
#245=EDGE_LOOP('',(#1083,#1084,#1085,#1086));
#246=EDGE_LOOP('',(#1087,#1088,#1089,#1090));
#247=EDGE_LOOP('',(#1091,#1092,#1093,#1094));
#248=EDGE_LOOP('',(#1095));
#249=EDGE_LOOP('',(#1096,#1097,#1098,#1099));
#250=EDGE_LOOP('',(#1100));
#251=EDGE_LOOP('',(#1101,#1102,#1103,#1104));
#252=EDGE_LOOP('',(#1105,#1106,#1107,#1108));
#253=EDGE_LOOP('',(#1109,#1110,#1111,#1112));
#254=LINE('',#1662,#371);
#255=LINE('',#1665,#372);
#256=LINE('',#1668,#373);
#257=LINE('',#1670,#374);
#258=LINE('',#1671,#375);
#259=LINE('',#1674,#376);
#260=LINE('',#1678,#377);
#261=LINE('',#1682,#378);
#262=LINE('',#1686,#379);
#263=LINE('',#1690,#380);
#264=LINE('',#1695,#381);
#265=LINE('',#1698,#382);
#266=LINE('',#1699,#383);
#267=LINE('',#1718,#384);
#268=LINE('',#1721,#385);
#269=LINE('',#1724,#386);
#270=LINE('',#1725,#387);
#271=LINE('',#1729,#388);
#272=LINE('',#1732,#389);
#273=LINE('',#1733,#390);
#274=LINE('',#1736,#391);
#275=LINE('',#1739,#392);
#276=LINE('',#1759,#393);
#277=LINE('',#1761,#394);
#278=LINE('',#1763,#395);
#279=LINE('',#1765,#396);
#280=LINE('',#1767,#397);
#281=LINE('',#1769,#398);
#282=LINE('',#1771,#399);
#283=LINE('',#1773,#400);
#284=LINE('',#1775,#401);
#285=LINE('',#1777,#402);
#286=LINE('',#1782,#403);
#287=LINE('',#1784,#404);
#288=LINE('',#1786,#405);
#289=LINE('',#1787,#406);
#290=LINE('',#1790,#407);
#291=LINE('',#1792,#408);
#292=LINE('',#1793,#409);
#293=LINE('',#1796,#410);
#294=LINE('',#1798,#411);
#295=LINE('',#1799,#412);
#296=LINE('',#1802,#413);
#297=LINE('',#1804,#414);
#298=LINE('',#1805,#415);
#299=LINE('',#1808,#416);
#300=LINE('',#1810,#417);
#301=LINE('',#1811,#418);
#302=LINE('',#1813,#419);
#303=LINE('',#1814,#420);
#304=LINE('',#1824,#421);
#305=LINE('',#1826,#422);
#306=LINE('',#1828,#423);
#307=LINE('',#1829,#424);
#308=LINE('',#1832,#425);
#309=LINE('',#1834,#426);
#310=LINE('',#1835,#427);
#311=LINE('',#1838,#428);
#312=LINE('',#1840,#429);
#313=LINE('',#1841,#430);
#314=LINE('',#1844,#431);
#315=LINE('',#1846,#432);
#316=LINE('',#1847,#433);
#317=LINE('',#1850,#434);
#318=LINE('',#1852,#435);
#319=LINE('',#1853,#436);
#320=LINE('',#1855,#437);
#321=LINE('',#1856,#438);
#322=LINE('',#1866,#439);
#323=LINE('',#1870,#440);
#324=LINE('',#1874,#441);
#325=LINE('',#1876,#442);
#326=LINE('',#1878,#443);
#327=LINE('',#1880,#444);
#328=LINE('',#1882,#445);
#329=LINE('',#1883,#446);
#330=LINE('',#1886,#447);
#331=LINE('',#1888,#448);
#332=LINE('',#1890,#449);
#333=LINE('',#1892,#450);
#334=LINE('',#1894,#451);
#335=LINE('',#1896,#452);
#336=LINE('',#1897,#453);
#337=LINE('',#1902,#454);
#338=LINE('',#1904,#455);
#339=LINE('',#1905,#456);
#340=LINE('',#1907,#457);
#341=LINE('',#1909,#458);
#342=LINE('',#1911,#459);
#343=LINE('',#1913,#460);
#344=LINE('',#1914,#461);
#345=LINE('',#1916,#462);
#346=LINE('',#1917,#463);
#347=LINE('',#1919,#464);
#348=LINE('',#1925,#465);
#349=LINE('',#1927,#466);
#350=LINE('',#1930,#467);
#351=LINE('',#1935,#468);
#352=LINE('',#1937,#469);
#353=LINE('',#1939,#470);
#354=LINE('',#1940,#471);
#355=LINE('',#1945,#472);
#356=LINE('',#1947,#473);
#357=LINE('',#1948,#474);
#358=LINE('',#1951,#475);
#359=LINE('',#1953,#476);
#360=LINE('',#1954,#477);
#361=LINE('',#1958,#478);
#362=LINE('',#1959,#479);
#363=LINE('',#1966,#480);
#364=LINE('',#1968,#481);
#365=LINE('',#1972,#482);
#366=LINE('',#1975,#483);
#367=LINE('',#1976,#484);
#368=LINE('',#1979,#485);
#369=LINE('',#1980,#486);
#370=LINE('',#1982,#487);
#371=VECTOR('',#1329,10.);
#372=VECTOR('',#1332,10.);
#373=VECTOR('',#1335,10.);
#374=VECTOR('',#1336,10.);
#375=VECTOR('',#1337,10.);
#376=VECTOR('',#1340,10.);
#377=VECTOR('',#1343,10.);
#378=VECTOR('',#1346,10.);
#379=VECTOR('',#1349,10.);
#380=VECTOR('',#1352,10.);
#381=VECTOR('',#1359,10.);
#382=VECTOR('',#1362,10.);
#383=VECTOR('',#1363,10.);
#384=VECTOR('',#1382,10.);
#385=VECTOR('',#1385,10.);
#386=VECTOR('',#1388,10.);
#387=VECTOR('',#1389,10.);
#388=VECTOR('',#1394,10.);
#389=VECTOR('',#1397,10.);
#390=VECTOR('',#1398,10.);
#391=VECTOR('',#1401,10.);
#392=VECTOR('',#1406,10.);
#393=VECTOR('',#1427,10.);
#394=VECTOR('',#1430,10.);
#395=VECTOR('',#1433,3.25);
#396=VECTOR('',#1436,3.25);
#397=VECTOR('',#1439,3.24999999999999);
#398=VECTOR('',#1442,3.25);
#399=VECTOR('',#1445,3.25);
#400=VECTOR('',#1448,3.25);
#401=VECTOR('',#1451,3.25);
#402=VECTOR('',#1454,3.25);
#403=VECTOR('',#1459,10.);
#404=VECTOR('',#1460,10.);
#405=VECTOR('',#1461,10.);
#406=VECTOR('',#1462,10.);
#407=VECTOR('',#1465,10.);
#408=VECTOR('',#1466,10.);
#409=VECTOR('',#1467,10.);
#410=VECTOR('',#1470,10.);
#411=VECTOR('',#1471,10.);
#412=VECTOR('',#1472,10.);
#413=VECTOR('',#1475,10.);
#414=VECTOR('',#1476,10.);
#415=VECTOR('',#1477,10.);
#416=VECTOR('',#1480,10.);
#417=VECTOR('',#1481,10.);
#418=VECTOR('',#1482,10.);
#419=VECTOR('',#1485,10.);
#420=VECTOR('',#1486,10.);
#421=VECTOR('',#1497,10.);
#422=VECTOR('',#1498,10.);
#423=VECTOR('',#1499,10.);
#424=VECTOR('',#1500,10.);
#425=VECTOR('',#1503,10.);
#426=VECTOR('',#1504,10.);
#427=VECTOR('',#1505,10.);
#428=VECTOR('',#1508,10.);
#429=VECTOR('',#1509,10.);
#430=VECTOR('',#1510,10.);
#431=VECTOR('',#1513,10.);
#432=VECTOR('',#1514,10.);
#433=VECTOR('',#1515,10.);
#434=VECTOR('',#1518,10.);
#435=VECTOR('',#1519,10.);
#436=VECTOR('',#1520,10.);
#437=VECTOR('',#1523,10.);
#438=VECTOR('',#1524,10.);
#439=VECTOR('',#1537,3.25);
#440=VECTOR('',#1542,3.25);
#441=VECTOR('',#1545,10.);
#442=VECTOR('',#1546,10.);
#443=VECTOR('',#1547,10.);
#444=VECTOR('',#1548,10.);
#445=VECTOR('',#1549,10.);
#446=VECTOR('',#1550,10.);
#447=VECTOR('',#1553,10.);
#448=VECTOR('',#1554,10.);
#449=VECTOR('',#1555,10.);
#450=VECTOR('',#1556,10.);
#451=VECTOR('',#1557,10.);
#452=VECTOR('',#1558,10.);
#453=VECTOR('',#1559,10.);
#454=VECTOR('',#1564,10.);
#455=VECTOR('',#1565,10.);
#456=VECTOR('',#1566,10.);
#457=VECTOR('',#1567,10.);
#458=VECTOR('',#1568,10.);
#459=VECTOR('',#1569,10.);
#460=VECTOR('',#1570,10.);
#461=VECTOR('',#1571,10.);
#462=VECTOR('',#1574,10.);
#463=VECTOR('',#1575,10.);
#464=VECTOR('',#1578,10.);
#465=VECTOR('',#1585,3.25);
#466=VECTOR('',#1588,3.25);
#467=VECTOR('',#1593,10.);
#468=VECTOR('',#1598,10.);
#469=VECTOR('',#1599,10.);
#470=VECTOR('',#1600,10.);
#471=VECTOR('',#1601,10.);
#472=VECTOR('',#1606,10.);
#473=VECTOR('',#1607,10.);
#474=VECTOR('',#1608,10.);
#475=VECTOR('',#1611,10.);
#476=VECTOR('',#1612,10.);
#477=VECTOR('',#1613,10.);
#478=VECTOR('',#1618,10.);
#479=VECTOR('',#1619,10.);
#480=VECTOR('',#1628,2.5);
#481=VECTOR('',#1631,2.5);
#482=VECTOR('',#1636,9.);
#483=VECTOR('',#1639,10.);
#484=VECTOR('',#1640,10.);
#485=VECTOR('',#1643,10.);
#486=VECTOR('',#1644,10.);
#487=VECTOR('',#1647,10.);
#488=CIRCLE('',#1214,2.);
#489=CIRCLE('',#1215,2.);
#490=CIRCLE('',#1218,2.);
#491=CIRCLE('',#1219,2.);
#492=CIRCLE('',#1220,2.);
#493=CIRCLE('',#1221,2.);
#494=CIRCLE('',#1222,2.);
#495=CIRCLE('',#1224,2.);
#496=CIRCLE('',#1226,3.25);
#497=CIRCLE('',#1227,3.25);
#498=CIRCLE('',#1228,3.24999999999999);
#499=CIRCLE('',#1229,3.25);
#500=CIRCLE('',#1230,3.25);
#501=CIRCLE('',#1231,3.25);
#502=CIRCLE('',#1232,3.25);
#503=CIRCLE('',#1233,3.25);
#504=CIRCLE('',#1235,2.);
#505=CIRCLE('',#1238,2.);
#506=CIRCLE('',#1241,2.);
#507=CIRCLE('',#1243,3.25);
#508=CIRCLE('',#1244,3.25);
#509=CIRCLE('',#1245,3.24999999999999);
#510=CIRCLE('',#1246,3.25);
#511=CIRCLE('',#1247,3.25);
#512=CIRCLE('',#1248,3.25);
#513=CIRCLE('',#1249,3.25);
#514=CIRCLE('',#1250,3.25);
#515=CIRCLE('',#1252,2.);
#516=CIRCLE('',#1270,3.25);
#517=CIRCLE('',#1272,3.25);
#518=CIRCLE('',#1280,3.25);
#519=CIRCLE('',#1282,3.25);
#520=CIRCLE('',#1284,3.25);
#521=CIRCLE('',#1286,3.25);
#522=CIRCLE('',#1289,2.5);
#523=CIRCLE('',#1293,3.25);
#524=CIRCLE('',#1294,3.25);
#525=CIRCLE('',#1301,2.5);
#526=CIRCLE('',#1304,2.5);
#527=CIRCLE('',#1307,9.);
#528=CIRCLE('',#1309,2.5);
#529=CIRCLE('',#1312,9.);
#530=VERTEX_POINT('',#1658);
#531=VERTEX_POINT('',#1659);
#532=VERTEX_POINT('',#1661);
#533=VERTEX_POINT('',#1663);
#534=VERTEX_POINT('',#1667);
#535=VERTEX_POINT('',#1669);
#536=VERTEX_POINT('',#1673);
#537=VERTEX_POINT('',#1675);
#538=VERTEX_POINT('',#1677);
#539=VERTEX_POINT('',#1679);
#540=VERTEX_POINT('',#1681);
#541=VERTEX_POINT('',#1683);
#542=VERTEX_POINT('',#1685);
#543=VERTEX_POINT('',#1687);
#544=VERTEX_POINT('',#1689);
#545=VERTEX_POINT('',#1693);
#546=VERTEX_POINT('',#1697);
#547=VERTEX_POINT('',#1700);
#548=VERTEX_POINT('',#1702);
#549=VERTEX_POINT('',#1704);
#550=VERTEX_POINT('',#1706);
#551=VERTEX_POINT('',#1708);
#552=VERTEX_POINT('',#1710);
#553=VERTEX_POINT('',#1712);
#554=VERTEX_POINT('',#1714);
#555=VERTEX_POINT('',#1717);
#556=VERTEX_POINT('',#1719);
#557=VERTEX_POINT('',#1723);
#558=VERTEX_POINT('',#1727);
#559=VERTEX_POINT('',#1731);
#560=VERTEX_POINT('',#1735);
#561=VERTEX_POINT('',#1740);
#562=VERTEX_POINT('',#1742);
#563=VERTEX_POINT('',#1744);
#564=VERTEX_POINT('',#1746);
#565=VERTEX_POINT('',#1748);
#566=VERTEX_POINT('',#1750);
#567=VERTEX_POINT('',#1752);
#568=VERTEX_POINT('',#1754);
#569=VERTEX_POINT('',#1757);
#570=VERTEX_POINT('',#1780);
#571=VERTEX_POINT('',#1781);
#572=VERTEX_POINT('',#1783);
#573=VERTEX_POINT('',#1785);
#574=VERTEX_POINT('',#1789);
#575=VERTEX_POINT('',#1791);
#576=VERTEX_POINT('',#1795);
#577=VERTEX_POINT('',#1797);
#578=VERTEX_POINT('',#1801);
#579=VERTEX_POINT('',#1803);
#580=VERTEX_POINT('',#1807);
#581=VERTEX_POINT('',#1809);
#582=VERTEX_POINT('',#1816);
#583=VERTEX_POINT('',#1819);
#584=VERTEX_POINT('',#1822);
#585=VERTEX_POINT('',#1823);
#586=VERTEX_POINT('',#1825);
#587=VERTEX_POINT('',#1827);
#588=VERTEX_POINT('',#1831);
#589=VERTEX_POINT('',#1833);
#590=VERTEX_POINT('',#1837);
#591=VERTEX_POINT('',#1839);
#592=VERTEX_POINT('',#1843);
#593=VERTEX_POINT('',#1845);
#594=VERTEX_POINT('',#1849);
#595=VERTEX_POINT('',#1851);
#596=VERTEX_POINT('',#1858);
#597=VERTEX_POINT('',#1861);
#598=VERTEX_POINT('',#1864);
#599=VERTEX_POINT('',#1868);
#600=VERTEX_POINT('',#1872);
#601=VERTEX_POINT('',#1873);
#602=VERTEX_POINT('',#1875);
#603=VERTEX_POINT('',#1877);
#604=VERTEX_POINT('',#1879);
#605=VERTEX_POINT('',#1881);
#606=VERTEX_POINT('',#1885);
#607=VERTEX_POINT('',#1887);
#608=VERTEX_POINT('',#1889);
#609=VERTEX_POINT('',#1891);
#610=VERTEX_POINT('',#1893);
#611=VERTEX_POINT('',#1895);
#612=VERTEX_POINT('',#1898);
#613=VERTEX_POINT('',#1901);
#614=VERTEX_POINT('',#1903);
#615=VERTEX_POINT('',#1906);
#616=VERTEX_POINT('',#1908);
#617=VERTEX_POINT('',#1910);
#618=VERTEX_POINT('',#1912);
#619=VERTEX_POINT('',#1920);
#620=VERTEX_POINT('',#1922);
#621=VERTEX_POINT('',#1933);
#622=VERTEX_POINT('',#1934);
#623=VERTEX_POINT('',#1936);
#624=VERTEX_POINT('',#1938);
#625=VERTEX_POINT('',#1941);
#626=VERTEX_POINT('',#1944);
#627=VERTEX_POINT('',#1946);
#628=VERTEX_POINT('',#1950);
#629=VERTEX_POINT('',#1952);
#630=VERTEX_POINT('',#1955);
#631=VERTEX_POINT('',#1961);
#632=VERTEX_POINT('',#1964);
#633=VERTEX_POINT('',#1970);
#634=VERTEX_POINT('',#1974);
#635=VERTEX_POINT('',#1978);
#636=EDGE_CURVE('',#530,#531,#488,.T.);
#637=EDGE_CURVE('',#531,#532,#254,.T.);
#638=EDGE_CURVE('',#532,#533,#489,.T.);
#639=EDGE_CURVE('',#533,#530,#255,.T.);
#640=EDGE_CURVE('',#534,#533,#256,.T.);
#641=EDGE_CURVE('',#535,#534,#257,.T.);
#642=EDGE_CURVE('',#535,#530,#258,.T.);
#643=EDGE_CURVE('',#536,#532,#259,.T.);
#644=EDGE_CURVE('',#537,#536,#490,.T.);
#645=EDGE_CURVE('',#537,#538,#260,.T.);
#646=EDGE_CURVE('',#539,#538,#491,.T.);
#647=EDGE_CURVE('',#540,#539,#261,.T.);
#648=EDGE_CURVE('',#541,#540,#492,.T.);
#649=EDGE_CURVE('',#541,#542,#262,.T.);
#650=EDGE_CURVE('',#543,#542,#493,.T.);
#651=EDGE_CURVE('',#543,#544,#263,.T.);
#652=EDGE_CURVE('',#534,#544,#494,.T.);
#653=EDGE_CURVE('',#545,#535,#495,.T.);
#654=EDGE_CURVE('',#544,#545,#264,.T.);
#655=EDGE_CURVE('',#546,#543,#265,.T.);
#656=EDGE_CURVE('',#545,#546,#266,.T.);
#657=EDGE_CURVE('',#547,#547,#496,.T.);
#658=EDGE_CURVE('',#548,#548,#497,.T.);
#659=EDGE_CURVE('',#549,#549,#498,.T.);
#660=EDGE_CURVE('',#550,#550,#499,.T.);
#661=EDGE_CURVE('',#551,#551,#500,.T.);
#662=EDGE_CURVE('',#552,#552,#501,.T.);
#663=EDGE_CURVE('',#553,#553,#502,.T.);
#664=EDGE_CURVE('',#554,#554,#503,.T.);
#665=EDGE_CURVE('',#540,#555,#267,.T.);
#666=EDGE_CURVE('',#555,#556,#504,.T.);
#667=EDGE_CURVE('',#556,#541,#268,.T.);
#668=EDGE_CURVE('',#557,#539,#269,.T.);
#669=EDGE_CURVE('',#557,#555,#270,.T.);
#670=EDGE_CURVE('',#558,#557,#505,.T.);
#671=EDGE_CURVE('',#538,#558,#271,.T.);
#672=EDGE_CURVE('',#559,#537,#272,.T.);
#673=EDGE_CURVE('',#558,#559,#273,.T.);
#674=EDGE_CURVE('',#536,#560,#274,.T.);
#675=EDGE_CURVE('',#560,#559,#506,.T.);
#676=EDGE_CURVE('',#531,#560,#275,.T.);
#677=EDGE_CURVE('',#561,#561,#507,.T.);
#678=EDGE_CURVE('',#562,#562,#508,.T.);
#679=EDGE_CURVE('',#563,#563,#509,.T.);
#680=EDGE_CURVE('',#564,#564,#510,.T.);
#681=EDGE_CURVE('',#565,#565,#511,.T.);
#682=EDGE_CURVE('',#566,#566,#512,.T.);
#683=EDGE_CURVE('',#567,#567,#513,.T.);
#684=EDGE_CURVE('',#568,#568,#514,.T.);
#685=EDGE_CURVE('',#569,#546,#515,.T.);
#686=EDGE_CURVE('',#542,#569,#276,.T.);
#687=EDGE_CURVE('',#569,#556,#277,.T.);
#688=EDGE_CURVE('',#561,#547,#278,.T.);
#689=EDGE_CURVE('',#562,#548,#279,.T.);
#690=EDGE_CURVE('',#563,#549,#280,.T.);
#691=EDGE_CURVE('',#564,#550,#281,.T.);
#692=EDGE_CURVE('',#565,#551,#282,.T.);
#693=EDGE_CURVE('',#566,#552,#283,.T.);
#694=EDGE_CURVE('',#567,#553,#284,.T.);
#695=EDGE_CURVE('',#568,#554,#285,.T.);
#696=EDGE_CURVE('',#570,#571,#286,.T.);
#697=EDGE_CURVE('',#571,#572,#287,.T.);
#698=EDGE_CURVE('',#572,#573,#288,.T.);
#699=EDGE_CURVE('',#570,#573,#289,.T.);
#700=EDGE_CURVE('',#571,#574,#290,.T.);
#701=EDGE_CURVE('',#574,#575,#291,.T.);
#702=EDGE_CURVE('',#575,#572,#292,.T.);
#703=EDGE_CURVE('',#574,#576,#293,.T.);
#704=EDGE_CURVE('',#576,#577,#294,.T.);
#705=EDGE_CURVE('',#577,#575,#295,.T.);
#706=EDGE_CURVE('',#576,#578,#296,.T.);
#707=EDGE_CURVE('',#578,#579,#297,.T.);
#708=EDGE_CURVE('',#579,#577,#298,.T.);
#709=EDGE_CURVE('',#578,#580,#299,.T.);
#710=EDGE_CURVE('',#580,#581,#300,.T.);
#711=EDGE_CURVE('',#581,#579,#301,.T.);
#712=EDGE_CURVE('',#580,#570,#302,.T.);
#713=EDGE_CURVE('',#573,#581,#303,.T.);
#714=EDGE_CURVE('',#582,#582,#516,.T.);
#715=EDGE_CURVE('',#583,#583,#517,.T.);
#716=EDGE_CURVE('',#584,#585,#304,.T.);
#717=EDGE_CURVE('',#585,#586,#305,.T.);
#718=EDGE_CURVE('',#586,#587,#306,.T.);
#719=EDGE_CURVE('',#584,#587,#307,.T.);
#720=EDGE_CURVE('',#585,#588,#308,.T.);
#721=EDGE_CURVE('',#588,#589,#309,.T.);
#722=EDGE_CURVE('',#589,#586,#310,.T.);
#723=EDGE_CURVE('',#588,#590,#311,.T.);
#724=EDGE_CURVE('',#590,#591,#312,.T.);
#725=EDGE_CURVE('',#591,#589,#313,.T.);
#726=EDGE_CURVE('',#590,#592,#314,.T.);
#727=EDGE_CURVE('',#592,#593,#315,.T.);
#728=EDGE_CURVE('',#593,#591,#316,.T.);
#729=EDGE_CURVE('',#592,#594,#317,.T.);
#730=EDGE_CURVE('',#594,#595,#318,.T.);
#731=EDGE_CURVE('',#595,#593,#319,.T.);
#732=EDGE_CURVE('',#594,#584,#320,.T.);
#733=EDGE_CURVE('',#587,#595,#321,.T.);
#734=EDGE_CURVE('',#596,#596,#518,.T.);
#735=EDGE_CURVE('',#597,#597,#519,.T.);
#736=EDGE_CURVE('',#598,#598,#520,.T.);
#737=EDGE_CURVE('',#598,#583,#322,.T.);
#738=EDGE_CURVE('',#599,#599,#521,.T.);
#739=EDGE_CURVE('',#599,#597,#323,.T.);
#740=EDGE_CURVE('',#600,#601,#324,.T.);
#741=EDGE_CURVE('',#600,#602,#325,.T.);
#742=EDGE_CURVE('',#602,#603,#326,.T.);
#743=EDGE_CURVE('',#603,#604,#327,.T.);
#744=EDGE_CURVE('',#604,#605,#328,.T.);
#745=EDGE_CURVE('',#605,#601,#329,.T.);
#746=EDGE_CURVE('',#606,#600,#330,.T.);
#747=EDGE_CURVE('',#601,#607,#331,.T.);
#748=EDGE_CURVE('',#608,#607,#332,.T.);
#749=EDGE_CURVE('',#608,#609,#333,.T.);
#750=EDGE_CURVE('',#610,#609,#334,.T.);
#751=EDGE_CURVE('',#610,#611,#335,.T.);
#752=EDGE_CURVE('',#606,#611,#336,.T.);
#753=EDGE_CURVE('',#612,#612,#522,.T.);
#754=EDGE_CURVE('',#611,#613,#337,.T.);
#755=EDGE_CURVE('',#613,#614,#338,.T.);
#756=EDGE_CURVE('',#614,#608,#339,.T.);
#757=EDGE_CURVE('',#607,#615,#340,.T.);
#758=EDGE_CURVE('',#615,#616,#341,.T.);
#759=EDGE_CURVE('',#616,#617,#342,.T.);
#760=EDGE_CURVE('',#617,#618,#343,.T.);
#761=EDGE_CURVE('',#618,#606,#344,.T.);
#762=EDGE_CURVE('',#605,#615,#345,.T.);
#763=EDGE_CURVE('',#604,#616,#346,.T.);
#764=EDGE_CURVE('',#617,#603,#347,.T.);
#765=EDGE_CURVE('',#619,#619,#523,.T.);
#766=EDGE_CURVE('',#620,#620,#524,.T.);
#767=EDGE_CURVE('',#596,#620,#348,.T.);
#768=EDGE_CURVE('',#582,#619,#349,.T.);
#769=EDGE_CURVE('',#618,#602,#350,.T.);
#770=EDGE_CURVE('',#621,#622,#351,.T.);
#771=EDGE_CURVE('',#621,#623,#352,.T.);
#772=EDGE_CURVE('',#623,#624,#353,.T.);
#773=EDGE_CURVE('',#622,#624,#354,.T.);
#774=EDGE_CURVE('',#625,#625,#525,.T.);
#775=EDGE_CURVE('',#626,#621,#355,.T.);
#776=EDGE_CURVE('',#626,#627,#356,.T.);
#777=EDGE_CURVE('',#627,#623,#357,.T.);
#778=EDGE_CURVE('',#628,#626,#358,.T.);
#779=EDGE_CURVE('',#628,#629,#359,.T.);
#780=EDGE_CURVE('',#629,#627,#360,.T.);
#781=EDGE_CURVE('',#630,#630,#526,.T.);
#782=EDGE_CURVE('',#622,#628,#361,.T.);
#783=EDGE_CURVE('',#624,#629,#362,.T.);
#784=EDGE_CURVE('',#631,#631,#527,.T.);
#785=EDGE_CURVE('',#632,#632,#528,.T.);
#786=EDGE_CURVE('',#632,#630,#363,.T.);
#787=EDGE_CURVE('',#625,#612,#364,.T.);
#788=EDGE_CURVE('',#633,#633,#529,.T.);
#789=EDGE_CURVE('',#633,#631,#365,.T.);
#790=EDGE_CURVE('',#634,#610,#366,.T.);
#791=EDGE_CURVE('',#613,#634,#367,.T.);
#792=EDGE_CURVE('',#635,#634,#368,.T.);
#793=EDGE_CURVE('',#614,#635,#369,.T.);
#794=EDGE_CURVE('',#609,#635,#370,.T.);
#795=ORIENTED_EDGE('',*,*,#636,.T.);
#796=ORIENTED_EDGE('',*,*,#637,.T.);
#797=ORIENTED_EDGE('',*,*,#638,.T.);
#798=ORIENTED_EDGE('',*,*,#639,.T.);
#799=ORIENTED_EDGE('',*,*,#639,.F.);
#800=ORIENTED_EDGE('',*,*,#640,.F.);
#801=ORIENTED_EDGE('',*,*,#641,.F.);
#802=ORIENTED_EDGE('',*,*,#642,.T.);
#803=ORIENTED_EDGE('',*,*,#638,.F.);
#804=ORIENTED_EDGE('',*,*,#643,.F.);
#805=ORIENTED_EDGE('',*,*,#644,.F.);
#806=ORIENTED_EDGE('',*,*,#645,.T.);
#807=ORIENTED_EDGE('',*,*,#646,.F.);
#808=ORIENTED_EDGE('',*,*,#647,.F.);
#809=ORIENTED_EDGE('',*,*,#648,.F.);
#810=ORIENTED_EDGE('',*,*,#649,.T.);
#811=ORIENTED_EDGE('',*,*,#650,.F.);
#812=ORIENTED_EDGE('',*,*,#651,.T.);
#813=ORIENTED_EDGE('',*,*,#652,.F.);
#814=ORIENTED_EDGE('',*,*,#640,.T.);
#815=ORIENTED_EDGE('',*,*,#653,.T.);
#816=ORIENTED_EDGE('',*,*,#641,.T.);
#817=ORIENTED_EDGE('',*,*,#652,.T.);
#818=ORIENTED_EDGE('',*,*,#654,.T.);
#819=ORIENTED_EDGE('',*,*,#654,.F.);
#820=ORIENTED_EDGE('',*,*,#651,.F.);
#821=ORIENTED_EDGE('',*,*,#655,.F.);
#822=ORIENTED_EDGE('',*,*,#656,.F.);
#823=ORIENTED_EDGE('',*,*,#657,.F.);
#824=ORIENTED_EDGE('',*,*,#658,.F.);
#825=ORIENTED_EDGE('',*,*,#659,.F.);
#826=ORIENTED_EDGE('',*,*,#660,.F.);
#827=ORIENTED_EDGE('',*,*,#661,.F.);
#828=ORIENTED_EDGE('',*,*,#662,.F.);
#829=ORIENTED_EDGE('',*,*,#663,.F.);
#830=ORIENTED_EDGE('',*,*,#664,.F.);
#831=ORIENTED_EDGE('',*,*,#648,.T.);
#832=ORIENTED_EDGE('',*,*,#665,.T.);
#833=ORIENTED_EDGE('',*,*,#666,.T.);
#834=ORIENTED_EDGE('',*,*,#667,.T.);
#835=ORIENTED_EDGE('',*,*,#665,.F.);
#836=ORIENTED_EDGE('',*,*,#647,.T.);
#837=ORIENTED_EDGE('',*,*,#668,.F.);
#838=ORIENTED_EDGE('',*,*,#669,.T.);
#839=ORIENTED_EDGE('',*,*,#670,.T.);
#840=ORIENTED_EDGE('',*,*,#668,.T.);
#841=ORIENTED_EDGE('',*,*,#646,.T.);
#842=ORIENTED_EDGE('',*,*,#671,.T.);
#843=ORIENTED_EDGE('',*,*,#671,.F.);
#844=ORIENTED_EDGE('',*,*,#645,.F.);
#845=ORIENTED_EDGE('',*,*,#672,.F.);
#846=ORIENTED_EDGE('',*,*,#673,.F.);
#847=ORIENTED_EDGE('',*,*,#644,.T.);
#848=ORIENTED_EDGE('',*,*,#674,.T.);
#849=ORIENTED_EDGE('',*,*,#675,.T.);
#850=ORIENTED_EDGE('',*,*,#672,.T.);
#851=ORIENTED_EDGE('',*,*,#637,.F.);
#852=ORIENTED_EDGE('',*,*,#676,.T.);
#853=ORIENTED_EDGE('',*,*,#674,.F.);
#854=ORIENTED_EDGE('',*,*,#643,.T.);
#855=ORIENTED_EDGE('',*,*,#677,.T.);
#856=ORIENTED_EDGE('',*,*,#678,.T.);
#857=ORIENTED_EDGE('',*,*,#679,.T.);
#858=ORIENTED_EDGE('',*,*,#680,.T.);
#859=ORIENTED_EDGE('',*,*,#681,.T.);
#860=ORIENTED_EDGE('',*,*,#682,.T.);
#861=ORIENTED_EDGE('',*,*,#683,.T.);
#862=ORIENTED_EDGE('',*,*,#684,.T.);
#863=ORIENTED_EDGE('',*,*,#685,.T.);
#864=ORIENTED_EDGE('',*,*,#655,.T.);
#865=ORIENTED_EDGE('',*,*,#650,.T.);
#866=ORIENTED_EDGE('',*,*,#686,.T.);
#867=ORIENTED_EDGE('',*,*,#667,.F.);
#868=ORIENTED_EDGE('',*,*,#687,.F.);
#869=ORIENTED_EDGE('',*,*,#686,.F.);
#870=ORIENTED_EDGE('',*,*,#649,.F.);
#871=ORIENTED_EDGE('',*,*,#677,.F.);
#872=ORIENTED_EDGE('',*,*,#688,.T.);
#873=ORIENTED_EDGE('',*,*,#657,.T.);
#874=ORIENTED_EDGE('',*,*,#688,.F.);
#875=ORIENTED_EDGE('',*,*,#678,.F.);
#876=ORIENTED_EDGE('',*,*,#689,.T.);
#877=ORIENTED_EDGE('',*,*,#658,.T.);
#878=ORIENTED_EDGE('',*,*,#689,.F.);
#879=ORIENTED_EDGE('',*,*,#679,.F.);
#880=ORIENTED_EDGE('',*,*,#690,.T.);
#881=ORIENTED_EDGE('',*,*,#659,.T.);
#882=ORIENTED_EDGE('',*,*,#690,.F.);
#883=ORIENTED_EDGE('',*,*,#680,.F.);
#884=ORIENTED_EDGE('',*,*,#691,.T.);
#885=ORIENTED_EDGE('',*,*,#660,.T.);
#886=ORIENTED_EDGE('',*,*,#691,.F.);
#887=ORIENTED_EDGE('',*,*,#681,.F.);
#888=ORIENTED_EDGE('',*,*,#692,.T.);
#889=ORIENTED_EDGE('',*,*,#661,.T.);
#890=ORIENTED_EDGE('',*,*,#692,.F.);
#891=ORIENTED_EDGE('',*,*,#682,.F.);
#892=ORIENTED_EDGE('',*,*,#693,.T.);
#893=ORIENTED_EDGE('',*,*,#662,.T.);
#894=ORIENTED_EDGE('',*,*,#693,.F.);
#895=ORIENTED_EDGE('',*,*,#683,.F.);
#896=ORIENTED_EDGE('',*,*,#694,.T.);
#897=ORIENTED_EDGE('',*,*,#663,.T.);
#898=ORIENTED_EDGE('',*,*,#694,.F.);
#899=ORIENTED_EDGE('',*,*,#684,.F.);
#900=ORIENTED_EDGE('',*,*,#695,.T.);
#901=ORIENTED_EDGE('',*,*,#664,.T.);
#902=ORIENTED_EDGE('',*,*,#695,.F.);
#903=ORIENTED_EDGE('',*,*,#636,.F.);
#904=ORIENTED_EDGE('',*,*,#642,.F.);
#905=ORIENTED_EDGE('',*,*,#653,.F.);
#906=ORIENTED_EDGE('',*,*,#656,.T.);
#907=ORIENTED_EDGE('',*,*,#685,.F.);
#908=ORIENTED_EDGE('',*,*,#687,.T.);
#909=ORIENTED_EDGE('',*,*,#666,.F.);
#910=ORIENTED_EDGE('',*,*,#669,.F.);
#911=ORIENTED_EDGE('',*,*,#670,.F.);
#912=ORIENTED_EDGE('',*,*,#673,.T.);
#913=ORIENTED_EDGE('',*,*,#675,.F.);
#914=ORIENTED_EDGE('',*,*,#676,.F.);
#915=ORIENTED_EDGE('',*,*,#696,.T.);
#916=ORIENTED_EDGE('',*,*,#697,.T.);
#917=ORIENTED_EDGE('',*,*,#698,.T.);
#918=ORIENTED_EDGE('',*,*,#699,.F.);
#919=ORIENTED_EDGE('',*,*,#700,.T.);
#920=ORIENTED_EDGE('',*,*,#701,.T.);
#921=ORIENTED_EDGE('',*,*,#702,.T.);
#922=ORIENTED_EDGE('',*,*,#697,.F.);
#923=ORIENTED_EDGE('',*,*,#703,.T.);
#924=ORIENTED_EDGE('',*,*,#704,.T.);
#925=ORIENTED_EDGE('',*,*,#705,.T.);
#926=ORIENTED_EDGE('',*,*,#701,.F.);
#927=ORIENTED_EDGE('',*,*,#706,.T.);
#928=ORIENTED_EDGE('',*,*,#707,.T.);
#929=ORIENTED_EDGE('',*,*,#708,.T.);
#930=ORIENTED_EDGE('',*,*,#704,.F.);
#931=ORIENTED_EDGE('',*,*,#709,.T.);
#932=ORIENTED_EDGE('',*,*,#710,.T.);
#933=ORIENTED_EDGE('',*,*,#711,.T.);
#934=ORIENTED_EDGE('',*,*,#707,.F.);
#935=ORIENTED_EDGE('',*,*,#712,.T.);
#936=ORIENTED_EDGE('',*,*,#699,.T.);
#937=ORIENTED_EDGE('',*,*,#713,.T.);
#938=ORIENTED_EDGE('',*,*,#710,.F.);
#939=ORIENTED_EDGE('',*,*,#712,.F.);
#940=ORIENTED_EDGE('',*,*,#709,.F.);
#941=ORIENTED_EDGE('',*,*,#706,.F.);
#942=ORIENTED_EDGE('',*,*,#703,.F.);
#943=ORIENTED_EDGE('',*,*,#700,.F.);
#944=ORIENTED_EDGE('',*,*,#696,.F.);
#945=ORIENTED_EDGE('',*,*,#714,.F.);
#946=ORIENTED_EDGE('',*,*,#713,.F.);
#947=ORIENTED_EDGE('',*,*,#698,.F.);
#948=ORIENTED_EDGE('',*,*,#702,.F.);
#949=ORIENTED_EDGE('',*,*,#705,.F.);
#950=ORIENTED_EDGE('',*,*,#708,.F.);
#951=ORIENTED_EDGE('',*,*,#711,.F.);
#952=ORIENTED_EDGE('',*,*,#715,.F.);
#953=ORIENTED_EDGE('',*,*,#716,.T.);
#954=ORIENTED_EDGE('',*,*,#717,.T.);
#955=ORIENTED_EDGE('',*,*,#718,.T.);
#956=ORIENTED_EDGE('',*,*,#719,.F.);
#957=ORIENTED_EDGE('',*,*,#720,.T.);
#958=ORIENTED_EDGE('',*,*,#721,.T.);
#959=ORIENTED_EDGE('',*,*,#722,.T.);
#960=ORIENTED_EDGE('',*,*,#717,.F.);
#961=ORIENTED_EDGE('',*,*,#723,.T.);
#962=ORIENTED_EDGE('',*,*,#724,.T.);
#963=ORIENTED_EDGE('',*,*,#725,.T.);
#964=ORIENTED_EDGE('',*,*,#721,.F.);
#965=ORIENTED_EDGE('',*,*,#726,.T.);
#966=ORIENTED_EDGE('',*,*,#727,.T.);
#967=ORIENTED_EDGE('',*,*,#728,.T.);
#968=ORIENTED_EDGE('',*,*,#724,.F.);
#969=ORIENTED_EDGE('',*,*,#729,.T.);
#970=ORIENTED_EDGE('',*,*,#730,.T.);
#971=ORIENTED_EDGE('',*,*,#731,.T.);
#972=ORIENTED_EDGE('',*,*,#727,.F.);
#973=ORIENTED_EDGE('',*,*,#732,.T.);
#974=ORIENTED_EDGE('',*,*,#719,.T.);
#975=ORIENTED_EDGE('',*,*,#733,.T.);
#976=ORIENTED_EDGE('',*,*,#730,.F.);
#977=ORIENTED_EDGE('',*,*,#732,.F.);
#978=ORIENTED_EDGE('',*,*,#729,.F.);
#979=ORIENTED_EDGE('',*,*,#726,.F.);
#980=ORIENTED_EDGE('',*,*,#723,.F.);
#981=ORIENTED_EDGE('',*,*,#720,.F.);
#982=ORIENTED_EDGE('',*,*,#716,.F.);
#983=ORIENTED_EDGE('',*,*,#734,.F.);
#984=ORIENTED_EDGE('',*,*,#733,.F.);
#985=ORIENTED_EDGE('',*,*,#718,.F.);
#986=ORIENTED_EDGE('',*,*,#722,.F.);
#987=ORIENTED_EDGE('',*,*,#725,.F.);
#988=ORIENTED_EDGE('',*,*,#728,.F.);
#989=ORIENTED_EDGE('',*,*,#731,.F.);
#990=ORIENTED_EDGE('',*,*,#735,.F.);
#991=ORIENTED_EDGE('',*,*,#736,.F.);
#992=ORIENTED_EDGE('',*,*,#737,.T.);
#993=ORIENTED_EDGE('',*,*,#715,.T.);
#994=ORIENTED_EDGE('',*,*,#737,.F.);
#995=ORIENTED_EDGE('',*,*,#738,.F.);
#996=ORIENTED_EDGE('',*,*,#739,.T.);
#997=ORIENTED_EDGE('',*,*,#735,.T.);
#998=ORIENTED_EDGE('',*,*,#739,.F.);
#999=ORIENTED_EDGE('',*,*,#740,.F.);
#1000=ORIENTED_EDGE('',*,*,#741,.T.);
#1001=ORIENTED_EDGE('',*,*,#742,.T.);
#1002=ORIENTED_EDGE('',*,*,#743,.T.);
#1003=ORIENTED_EDGE('',*,*,#744,.T.);
#1004=ORIENTED_EDGE('',*,*,#745,.T.);
#1005=ORIENTED_EDGE('',*,*,#746,.T.);
#1006=ORIENTED_EDGE('',*,*,#740,.T.);
#1007=ORIENTED_EDGE('',*,*,#747,.T.);
#1008=ORIENTED_EDGE('',*,*,#748,.F.);
#1009=ORIENTED_EDGE('',*,*,#749,.T.);
#1010=ORIENTED_EDGE('',*,*,#750,.F.);
#1011=ORIENTED_EDGE('',*,*,#751,.T.);
#1012=ORIENTED_EDGE('',*,*,#752,.F.);
#1013=ORIENTED_EDGE('',*,*,#753,.T.);
#1014=ORIENTED_EDGE('',*,*,#752,.T.);
#1015=ORIENTED_EDGE('',*,*,#754,.T.);
#1016=ORIENTED_EDGE('',*,*,#755,.T.);
#1017=ORIENTED_EDGE('',*,*,#756,.T.);
#1018=ORIENTED_EDGE('',*,*,#748,.T.);
#1019=ORIENTED_EDGE('',*,*,#757,.T.);
#1020=ORIENTED_EDGE('',*,*,#758,.T.);
#1021=ORIENTED_EDGE('',*,*,#759,.T.);
#1022=ORIENTED_EDGE('',*,*,#760,.T.);
#1023=ORIENTED_EDGE('',*,*,#761,.T.);
#1024=ORIENTED_EDGE('',*,*,#762,.F.);
#1025=ORIENTED_EDGE('',*,*,#744,.F.);
#1026=ORIENTED_EDGE('',*,*,#763,.T.);
#1027=ORIENTED_EDGE('',*,*,#758,.F.);
#1028=ORIENTED_EDGE('',*,*,#764,.F.);
#1029=ORIENTED_EDGE('',*,*,#759,.F.);
#1030=ORIENTED_EDGE('',*,*,#763,.F.);
#1031=ORIENTED_EDGE('',*,*,#743,.F.);
#1032=ORIENTED_EDGE('',*,*,#765,.T.);
#1033=ORIENTED_EDGE('',*,*,#766,.T.);
#1034=ORIENTED_EDGE('',*,*,#734,.T.);
#1035=ORIENTED_EDGE('',*,*,#767,.T.);
#1036=ORIENTED_EDGE('',*,*,#766,.F.);
#1037=ORIENTED_EDGE('',*,*,#767,.F.);
#1038=ORIENTED_EDGE('',*,*,#714,.T.);
#1039=ORIENTED_EDGE('',*,*,#768,.T.);
#1040=ORIENTED_EDGE('',*,*,#765,.F.);
#1041=ORIENTED_EDGE('',*,*,#768,.F.);
#1042=ORIENTED_EDGE('',*,*,#762,.T.);
#1043=ORIENTED_EDGE('',*,*,#757,.F.);
#1044=ORIENTED_EDGE('',*,*,#747,.F.);
#1045=ORIENTED_EDGE('',*,*,#745,.F.);
#1046=ORIENTED_EDGE('',*,*,#746,.F.);
#1047=ORIENTED_EDGE('',*,*,#761,.F.);
#1048=ORIENTED_EDGE('',*,*,#769,.T.);
#1049=ORIENTED_EDGE('',*,*,#741,.F.);
#1050=ORIENTED_EDGE('',*,*,#738,.T.);
#1051=ORIENTED_EDGE('',*,*,#736,.T.);
#1052=ORIENTED_EDGE('',*,*,#769,.F.);
#1053=ORIENTED_EDGE('',*,*,#760,.F.);
#1054=ORIENTED_EDGE('',*,*,#764,.T.);
#1055=ORIENTED_EDGE('',*,*,#742,.F.);
#1056=ORIENTED_EDGE('',*,*,#770,.F.);
#1057=ORIENTED_EDGE('',*,*,#771,.T.);
#1058=ORIENTED_EDGE('',*,*,#772,.T.);
#1059=ORIENTED_EDGE('',*,*,#773,.F.);
#1060=ORIENTED_EDGE('',*,*,#774,.F.);
#1061=ORIENTED_EDGE('',*,*,#775,.F.);
#1062=ORIENTED_EDGE('',*,*,#776,.T.);
#1063=ORIENTED_EDGE('',*,*,#777,.T.);
#1064=ORIENTED_EDGE('',*,*,#771,.F.);
#1065=ORIENTED_EDGE('',*,*,#778,.F.);
#1066=ORIENTED_EDGE('',*,*,#779,.T.);
#1067=ORIENTED_EDGE('',*,*,#780,.T.);
#1068=ORIENTED_EDGE('',*,*,#776,.F.);
#1069=ORIENTED_EDGE('',*,*,#781,.F.);
#1070=ORIENTED_EDGE('',*,*,#782,.F.);
#1071=ORIENTED_EDGE('',*,*,#773,.T.);
#1072=ORIENTED_EDGE('',*,*,#783,.T.);
#1073=ORIENTED_EDGE('',*,*,#779,.F.);
#1074=ORIENTED_EDGE('',*,*,#783,.F.);
#1075=ORIENTED_EDGE('',*,*,#772,.F.);
#1076=ORIENTED_EDGE('',*,*,#777,.F.);
#1077=ORIENTED_EDGE('',*,*,#780,.F.);
#1078=ORIENTED_EDGE('',*,*,#784,.F.);
#1079=ORIENTED_EDGE('',*,*,#785,.F.);
#1080=ORIENTED_EDGE('',*,*,#786,.T.);
#1081=ORIENTED_EDGE('',*,*,#781,.T.);
#1082=ORIENTED_EDGE('',*,*,#786,.F.);
#1083=ORIENTED_EDGE('',*,*,#774,.T.);
#1084=ORIENTED_EDGE('',*,*,#787,.T.);
#1085=ORIENTED_EDGE('',*,*,#753,.F.);
#1086=ORIENTED_EDGE('',*,*,#787,.F.);
#1087=ORIENTED_EDGE('',*,*,#788,.F.);
#1088=ORIENTED_EDGE('',*,*,#789,.T.);
#1089=ORIENTED_EDGE('',*,*,#784,.T.);
#1090=ORIENTED_EDGE('',*,*,#789,.F.);
#1091=ORIENTED_EDGE('',*,*,#751,.F.);
#1092=ORIENTED_EDGE('',*,*,#790,.F.);
#1093=ORIENTED_EDGE('',*,*,#791,.F.);
#1094=ORIENTED_EDGE('',*,*,#754,.F.);
#1095=ORIENTED_EDGE('',*,*,#788,.T.);
#1096=ORIENTED_EDGE('',*,*,#791,.T.);
#1097=ORIENTED_EDGE('',*,*,#792,.F.);
#1098=ORIENTED_EDGE('',*,*,#793,.F.);
#1099=ORIENTED_EDGE('',*,*,#755,.F.);
#1100=ORIENTED_EDGE('',*,*,#785,.T.);
#1101=ORIENTED_EDGE('',*,*,#793,.T.);
#1102=ORIENTED_EDGE('',*,*,#794,.F.);
#1103=ORIENTED_EDGE('',*,*,#749,.F.);
#1104=ORIENTED_EDGE('',*,*,#756,.F.);
#1105=ORIENTED_EDGE('',*,*,#770,.T.);
#1106=ORIENTED_EDGE('',*,*,#782,.T.);
#1107=ORIENTED_EDGE('',*,*,#778,.T.);
#1108=ORIENTED_EDGE('',*,*,#775,.T.);
#1109=ORIENTED_EDGE('',*,*,#750,.T.);
#1110=ORIENTED_EDGE('',*,*,#794,.T.);
#1111=ORIENTED_EDGE('',*,*,#792,.T.);
#1112=ORIENTED_EDGE('',*,*,#790,.T.);
#1113=CYLINDRICAL_SURFACE('',#1213,2.);
#1114=CYLINDRICAL_SURFACE('',#1223,2.);
#1115=CYLINDRICAL_SURFACE('',#1234,2.);
#1116=CYLINDRICAL_SURFACE('',#1237,2.);
#1117=CYLINDRICAL_SURFACE('',#1240,2.);
#1118=CYLINDRICAL_SURFACE('',#1251,2.);
#1119=CYLINDRICAL_SURFACE('',#1254,3.25);
#1120=CYLINDRICAL_SURFACE('',#1255,3.25);
#1121=CYLINDRICAL_SURFACE('',#1256,3.24999999999999);
#1122=CYLINDRICAL_SURFACE('',#1257,3.25);
#1123=CYLINDRICAL_SURFACE('',#1258,3.25);
#1124=CYLINDRICAL_SURFACE('',#1259,3.25);
#1125=CYLINDRICAL_SURFACE('',#1260,3.25);
#1126=CYLINDRICAL_SURFACE('',#1261,3.25);
#1127=CYLINDRICAL_SURFACE('',#1283,3.25);
#1128=CYLINDRICAL_SURFACE('',#1285,3.25);
#1129=CYLINDRICAL_SURFACE('',#1295,3.25);
#1130=CYLINDRICAL_SURFACE('',#1296,3.25);
#1131=CYLINDRICAL_SURFACE('',#1308,2.5);
#1132=CYLINDRICAL_SURFACE('',#1310,2.5);
#1133=CYLINDRICAL_SURFACE('',#1311,9.);
#1134=ADVANCED_FACE('',(#99),#1113,.T.);
#1135=ADVANCED_FACE('',(#100),#58,.T.);
#1136=ADVANCED_FACE('',(#101),#59,.T.);
#1137=ADVANCED_FACE('',(#102),#1114,.T.);
#1138=ADVANCED_FACE('',(#103,#27,#28,#29,#30,#31,#32,#33,#34),#60,.F.);
#1139=ADVANCED_FACE('',(#104),#1115,.T.);
#1140=ADVANCED_FACE('',(#105),#61,.T.);
#1141=ADVANCED_FACE('',(#106),#1116,.T.);
#1142=ADVANCED_FACE('',(#107),#62,.T.);
#1143=ADVANCED_FACE('',(#108),#1117,.T.);
#1144=ADVANCED_FACE('',(#109,#35,#36,#37,#38,#39,#40,#41,#42),#63,.T.);
#1145=ADVANCED_FACE('',(#110),#1118,.F.);
#1146=ADVANCED_FACE('',(#111),#64,.F.);
#1147=ADVANCED_FACE('',(#112),#1119,.F.);
#1148=ADVANCED_FACE('',(#113),#1120,.F.);
#1149=ADVANCED_FACE('',(#114),#1121,.F.);
#1150=ADVANCED_FACE('',(#115),#1122,.F.);
#1151=ADVANCED_FACE('',(#116),#1123,.F.);
#1152=ADVANCED_FACE('',(#117),#1124,.F.);
#1153=ADVANCED_FACE('',(#118),#1125,.F.);
#1154=ADVANCED_FACE('',(#119),#1126,.F.);
#1155=ADVANCED_FACE('',(#120),#65,.T.);
#1156=ADVANCED_FACE('',(#121),#66,.F.);
#1157=ADVANCED_FACE('',(#122),#67,.F.);
#1158=ADVANCED_FACE('',(#123),#68,.F.);
#1159=ADVANCED_FACE('',(#124),#69,.F.);
#1160=ADVANCED_FACE('',(#125),#70,.F.);
#1161=ADVANCED_FACE('',(#126),#71,.F.);
#1162=ADVANCED_FACE('',(#127,#43),#72,.F.);
#1163=ADVANCED_FACE('',(#128,#44),#73,.T.);
#1164=ADVANCED_FACE('',(#129),#74,.F.);
#1165=ADVANCED_FACE('',(#130),#75,.F.);
#1166=ADVANCED_FACE('',(#131),#76,.F.);
#1167=ADVANCED_FACE('',(#132),#77,.F.);
#1168=ADVANCED_FACE('',(#133),#78,.F.);
#1169=ADVANCED_FACE('',(#134),#79,.F.);
#1170=ADVANCED_FACE('',(#135,#45),#80,.F.);
#1171=ADVANCED_FACE('',(#136,#46),#81,.T.);
#1172=ADVANCED_FACE('',(#137),#1127,.F.);
#1173=ADVANCED_FACE('',(#138),#1128,.F.);
#1174=ADVANCED_FACE('',(#139),#82,.T.);
#1175=ADVANCED_FACE('',(#140,#47),#83,.T.);
#1176=ADVANCED_FACE('',(#141),#84,.T.);
#1177=ADVANCED_FACE('',(#142),#85,.T.);
#1178=ADVANCED_FACE('',(#143,#48,#49),#86,.T.);
#1179=ADVANCED_FACE('',(#144),#1129,.F.);
#1180=ADVANCED_FACE('',(#145),#1130,.F.);
#1181=ADVANCED_FACE('',(#146),#87,.T.);
#1182=ADVANCED_FACE('',(#147,#50,#51),#88,.T.);
#1183=ADVANCED_FACE('',(#148),#89,.T.);
#1184=ADVANCED_FACE('',(#149,#52),#90,.F.);
#1185=ADVANCED_FACE('',(#150),#91,.F.);
#1186=ADVANCED_FACE('',(#151,#53),#92,.F.);
#1187=ADVANCED_FACE('',(#152),#93,.F.);
#1188=ADVANCED_FACE('',(#153,#54),#94,.F.);
#1189=ADVANCED_FACE('',(#154),#1131,.F.);
#1190=ADVANCED_FACE('',(#155),#1132,.F.);
#1191=ADVANCED_FACE('',(#156),#1133,.F.);
#1192=ADVANCED_FACE('',(#157,#55),#95,.T.);
#1193=ADVANCED_FACE('',(#158,#56),#96,.T.);
#1194=ADVANCED_FACE('',(#159,#57),#97,.T.);
#1195=ADVANCED_FACE('',(#160),#98,.T.);
#1196=CLOSED_SHELL('',(#1134,#1135,#1136,#1137,#1138,#1139,#1140,#1141,
#1142,#1143,#1144,#1145,#1146,#1147,#1148,#1149,#1150,#1151,#1152,#1153,
#1154,#1155));
#1197=CLOSED_SHELL('',(#1156,#1157,#1158,#1159,#1160,#1161,#1162,#1163,
#1164,#1165,#1166,#1167,#1168,#1169,#1170,#1171,#1172,#1173,#1174,#1175,
#1176,#1177,#1178,#1179,#1180,#1181,#1182,#1183,#1184,#1185,#1186,#1187,
#1188,#1189,#1190,#1191,#1192,#1193,#1194,#1195));
#1198=DERIVED_UNIT_ELEMENT(#1200,1.);
#1199=DERIVED_UNIT_ELEMENT(#1995,-3.);
#1200=(
MASS_UNIT()
NAMED_UNIT(*)
SI_UNIT(.KILO.,.GRAM.)
);
#1201=DERIVED_UNIT((#1198,#1199));
#1202=MEASURE_REPRESENTATION_ITEM('density measure',
POSITIVE_RATIO_MEASURE(7850.),#1201);
#1203=PROPERTY_DEFINITION_REPRESENTATION(#1208,#1205);
#1204=PROPERTY_DEFINITION_REPRESENTATION(#1209,#1206);
#1205=REPRESENTATION('material name',(#1207),#1992);
#1206=REPRESENTATION('density',(#1202),#1992);
#1207=DESCRIPTIVE_REPRESENTATION_ITEM('Steel','Steel');
#1208=PROPERTY_DEFINITION('material property','material name',#2012);
#1209=PROPERTY_DEFINITION('material property','density of part',#2012);
#1210=AXIS2_PLACEMENT_3D('',#1654,#1319,#1320);
#1211=AXIS2_PLACEMENT_3D('',#1655,#1321,#1322);
#1212=AXIS2_PLACEMENT_3D('',#1656,#1323,#1324);
#1213=AXIS2_PLACEMENT_3D('',#1657,#1325,#1326);
#1214=AXIS2_PLACEMENT_3D('',#1660,#1327,#1328);
#1215=AXIS2_PLACEMENT_3D('',#1664,#1330,#1331);
#1216=AXIS2_PLACEMENT_3D('',#1666,#1333,#1334);
#1217=AXIS2_PLACEMENT_3D('',#1672,#1338,#1339);
#1218=AXIS2_PLACEMENT_3D('',#1676,#1341,#1342);
#1219=AXIS2_PLACEMENT_3D('',#1680,#1344,#1345);
#1220=AXIS2_PLACEMENT_3D('',#1684,#1347,#1348);
#1221=AXIS2_PLACEMENT_3D('',#1688,#1350,#1351);
#1222=AXIS2_PLACEMENT_3D('',#1691,#1353,#1354);
#1223=AXIS2_PLACEMENT_3D('',#1692,#1355,#1356);
#1224=AXIS2_PLACEMENT_3D('',#1694,#1357,#1358);
#1225=AXIS2_PLACEMENT_3D('',#1696,#1360,#1361);
#1226=AXIS2_PLACEMENT_3D('',#1701,#1364,#1365);
#1227=AXIS2_PLACEMENT_3D('',#1703,#1366,#1367);
#1228=AXIS2_PLACEMENT_3D('',#1705,#1368,#1369);
#1229=AXIS2_PLACEMENT_3D('',#1707,#1370,#1371);
#1230=AXIS2_PLACEMENT_3D('',#1709,#1372,#1373);
#1231=AXIS2_PLACEMENT_3D('',#1711,#1374,#1375);
#1232=AXIS2_PLACEMENT_3D('',#1713,#1376,#1377);
#1233=AXIS2_PLACEMENT_3D('',#1715,#1378,#1379);
#1234=AXIS2_PLACEMENT_3D('',#1716,#1380,#1381);
#1235=AXIS2_PLACEMENT_3D('',#1720,#1383,#1384);
#1236=AXIS2_PLACEMENT_3D('',#1722,#1386,#1387);
#1237=AXIS2_PLACEMENT_3D('',#1726,#1390,#1391);
#1238=AXIS2_PLACEMENT_3D('',#1728,#1392,#1393);
#1239=AXIS2_PLACEMENT_3D('',#1730,#1395,#1396);
#1240=AXIS2_PLACEMENT_3D('',#1734,#1399,#1400);
#1241=AXIS2_PLACEMENT_3D('',#1737,#1402,#1403);
#1242=AXIS2_PLACEMENT_3D('',#1738,#1404,#1405);
#1243=AXIS2_PLACEMENT_3D('',#1741,#1407,#1408);
#1244=AXIS2_PLACEMENT_3D('',#1743,#1409,#1410);
#1245=AXIS2_PLACEMENT_3D('',#1745,#1411,#1412);
#1246=AXIS2_PLACEMENT_3D('',#1747,#1413,#1414);
#1247=AXIS2_PLACEMENT_3D('',#1749,#1415,#1416);
#1248=AXIS2_PLACEMENT_3D('',#1751,#1417,#1418);
#1249=AXIS2_PLACEMENT_3D('',#1753,#1419,#1420);
#1250=AXIS2_PLACEMENT_3D('',#1755,#1421,#1422);
#1251=AXIS2_PLACEMENT_3D('',#1756,#1423,#1424);
#1252=AXIS2_PLACEMENT_3D('',#1758,#1425,#1426);
#1253=AXIS2_PLACEMENT_3D('',#1760,#1428,#1429);
#1254=AXIS2_PLACEMENT_3D('',#1762,#1431,#1432);
#1255=AXIS2_PLACEMENT_3D('',#1764,#1434,#1435);
#1256=AXIS2_PLACEMENT_3D('',#1766,#1437,#1438);
#1257=AXIS2_PLACEMENT_3D('',#1768,#1440,#1441);
#1258=AXIS2_PLACEMENT_3D('',#1770,#1443,#1444);
#1259=AXIS2_PLACEMENT_3D('',#1772,#1446,#1447);
#1260=AXIS2_PLACEMENT_3D('',#1774,#1449,#1450);
#1261=AXIS2_PLACEMENT_3D('',#1776,#1452,#1453);
#1262=AXIS2_PLACEMENT_3D('',#1778,#1455,#1456);
#1263=AXIS2_PLACEMENT_3D('',#1779,#1457,#1458);
#1264=AXIS2_PLACEMENT_3D('',#1788,#1463,#1464);
#1265=AXIS2_PLACEMENT_3D('',#1794,#1468,#1469);
#1266=AXIS2_PLACEMENT_3D('',#1800,#1473,#1474);
#1267=AXIS2_PLACEMENT_3D('',#1806,#1478,#1479);
#1268=AXIS2_PLACEMENT_3D('',#1812,#1483,#1484);
#1269=AXIS2_PLACEMENT_3D('',#1815,#1487,#1488);
#1270=AXIS2_PLACEMENT_3D('',#1817,#1489,#1490);
#1271=AXIS2_PLACEMENT_3D('',#1818,#1491,#1492);
#1272=AXIS2_PLACEMENT_3D('',#1820,#1493,#1494);
#1273=AXIS2_PLACEMENT_3D('',#1821,#1495,#1496);
#1274=AXIS2_PLACEMENT_3D('',#1830,#1501,#1502);
#1275=AXIS2_PLACEMENT_3D('',#1836,#1506,#1507);
#1276=AXIS2_PLACEMENT_3D('',#1842,#1511,#1512);
#1277=AXIS2_PLACEMENT_3D('',#1848,#1516,#1517);
#1278=AXIS2_PLACEMENT_3D('',#1854,#1521,#1522);
#1279=AXIS2_PLACEMENT_3D('',#1857,#1525,#1526);
#1280=AXIS2_PLACEMENT_3D('',#1859,#1527,#1528);
#1281=AXIS2_PLACEMENT_3D('',#1860,#1529,#1530);
#1282=AXIS2_PLACEMENT_3D('',#1862,#1531,#1532);
#1283=AXIS2_PLACEMENT_3D('',#1863,#1533,#1534);
#1284=AXIS2_PLACEMENT_3D('',#1865,#1535,#1536);
#1285=AXIS2_PLACEMENT_3D('',#1867,#1538,#1539);
#1286=AXIS2_PLACEMENT_3D('',#1869,#1540,#1541);
#1287=AXIS2_PLACEMENT_3D('',#1871,#1543,#1544);
#1288=AXIS2_PLACEMENT_3D('',#1884,#1551,#1552);
#1289=AXIS2_PLACEMENT_3D('',#1899,#1560,#1561);
#1290=AXIS2_PLACEMENT_3D('',#1900,#1562,#1563);
#1291=AXIS2_PLACEMENT_3D('',#1915,#1572,#1573);
#1292=AXIS2_PLACEMENT_3D('',#1918,#1576,#1577);
#1293=AXIS2_PLACEMENT_3D('',#1921,#1579,#1580);
#1294=AXIS2_PLACEMENT_3D('',#1923,#1581,#1582);
#1295=AXIS2_PLACEMENT_3D('',#1924,#1583,#1584);
#1296=AXIS2_PLACEMENT_3D('',#1926,#1586,#1587);
#1297=AXIS2_PLACEMENT_3D('',#1928,#1589,#1590);
#1298=AXIS2_PLACEMENT_3D('',#1929,#1591,#1592);
#1299=AXIS2_PLACEMENT_3D('',#1931,#1594,#1595);
#1300=AXIS2_PLACEMENT_3D('',#1932,#1596,#1597);
#1301=AXIS2_PLACEMENT_3D('',#1942,#1602,#1603);
#1302=AXIS2_PLACEMENT_3D('',#1943,#1604,#1605);
#1303=AXIS2_PLACEMENT_3D('',#1949,#1609,#1610);
#1304=AXIS2_PLACEMENT_3D('',#1956,#1614,#1615);
#1305=AXIS2_PLACEMENT_3D('',#1957,#1616,#1617);
#1306=AXIS2_PLACEMENT_3D('',#1960,#1620,#1621);
#1307=AXIS2_PLACEMENT_3D('',#1962,#1622,#1623);
#1308=AXIS2_PLACEMENT_3D('',#1963,#1624,#1625);
#1309=AXIS2_PLACEMENT_3D('',#1965,#1626,#1627);
#1310=AXIS2_PLACEMENT_3D('',#1967,#1629,#1630);
#1311=AXIS2_PLACEMENT_3D('',#1969,#1632,#1633);
#1312=AXIS2_PLACEMENT_3D('',#1971,#1634,#1635);
#1313=AXIS2_PLACEMENT_3D('',#1973,#1637,#1638);
#1314=AXIS2_PLACEMENT_3D('',#1977,#1641,#1642);
#1315=AXIS2_PLACEMENT_3D('',#1981,#1645,#1646);
#1316=AXIS2_PLACEMENT_3D('',#1983,#1648,#1649);
#1317=AXIS2_PLACEMENT_3D('',#1984,#1650,#1651);
#1318=AXIS2_PLACEMENT_3D('',#1985,#1652,#1653);
#1319=DIRECTION('axis',(0.,0.,1.));
#1320=DIRECTION('refdir',(1.,0.,0.));
#1321=DIRECTION('axis',(0.,0.,1.));
#1322=DIRECTION('refdir',(1.,0.,0.));
#1323=DIRECTION('axis',(0.,0.,1.));
#1324=DIRECTION('refdir',(1.,0.,0.));
#1325=DIRECTION('center_axis',(0.,-1.,0.));
#1326=DIRECTION('ref_axis',(-0.707106781186548,0.,-0.707106781186548));
#1327=DIRECTION('center_axis',(0.,1.,-2.22044604925031E-17));
#1328=DIRECTION('ref_axis',(-0.707106781186548,0.,-0.707106781186548));
#1329=DIRECTION('',(0.,1.,0.));
#1330=DIRECTION('center_axis',(0.,-1.,0.));
#1331=DIRECTION('ref_axis',(-0.707106781186548,0.,-0.707106781186548));
#1332=DIRECTION('',(0.,-1.,0.));
#1333=DIRECTION('center_axis',(0.,0.,-1.));
#1334=DIRECTION('ref_axis',(0.,-1.,0.));
#1335=DIRECTION('',(-1.,0.,0.));
#1336=DIRECTION('',(0.,1.,0.));
#1337=DIRECTION('',(-1.,0.,0.));
#1338=DIRECTION('center_axis',(0.,1.,0.));
#1339=DIRECTION('ref_axis',(0.,0.,-1.));
#1340=DIRECTION('',(0.,0.,-1.));
#1341=DIRECTION('center_axis',(0.,-1.,0.));
#1342=DIRECTION('ref_axis',(-0.707106781186554,0.,0.707106781186541));
#1343=DIRECTION('',(1.,0.,0.));
#1344=DIRECTION('center_axis',(0.,-1.,0.));
#1345=DIRECTION('ref_axis',(0.707106781186554,0.,0.707106781186541));
#1346=DIRECTION('',(0.,0.,1.));
#1347=DIRECTION('center_axis',(0.,-1.,0.));
#1348=DIRECTION('ref_axis',(0.707106781186554,0.,-0.707106781186541));
#1349=DIRECTION('',(-1.,0.,0.));
#1350=DIRECTION('center_axis',(0.,1.,0.));
#1351=DIRECTION('ref_axis',(-0.707106781186541,0.,0.707106781186554));
#1352=DIRECTION('',(0.,0.,-1.));
#1353=DIRECTION('center_axis',(0.,-1.,0.));
#1354=DIRECTION('ref_axis',(0.707106781186548,0.,-0.707106781186548));
#1355=DIRECTION('center_axis',(0.,-1.,0.));
#1356=DIRECTION('ref_axis',(0.707106781186548,0.,-0.707106781186548));
#1357=DIRECTION('center_axis',(0.,1.,-2.22044604925031E-17));
#1358=DIRECTION('ref_axis',(0.707106781186548,0.,-0.707106781186548));
#1359=DIRECTION('',(0.,-1.,0.));
#1360=DIRECTION('center_axis',(-1.,0.,0.));
#1361=DIRECTION('ref_axis',(0.,-1.,0.));
#1362=DIRECTION('',(0.,1.,0.));
#1363=DIRECTION('',(0.,2.22044604925031E-17,1.));
#1364=DIRECTION('center_axis',(1.,0.,0.));
#1365=DIRECTION('ref_axis',(0.,-1.,0.));
#1366=DIRECTION('center_axis',(1.,0.,0.));
#1367=DIRECTION('ref_axis',(0.,-1.,0.));
#1368=DIRECTION('center_axis',(1.,0.,0.));
#1369=DIRECTION('ref_axis',(0.,-1.,0.));
#1370=DIRECTION('center_axis',(1.,0.,0.));
#1371=DIRECTION('ref_axis',(0.,-1.,0.));
#1372=DIRECTION('center_axis',(1.,0.,0.));
#1373=DIRECTION('ref_axis',(0.,-1.,0.));
#1374=DIRECTION('center_axis',(1.,0.,0.));
#1375=DIRECTION('ref_axis',(0.,-1.,0.));
#1376=DIRECTION('center_axis',(1.,0.,0.));
#1377=DIRECTION('ref_axis',(0.,-1.,0.));
#1378=DIRECTION('center_axis',(1.,0.,0.));
#1379=DIRECTION('ref_axis',(0.,-1.,0.));
#1380=DIRECTION('center_axis',(0.,1.,0.));
#1381=DIRECTION('ref_axis',(0.707106781186554,0.,-0.707106781186541));
#1382=DIRECTION('',(0.,-1.,0.));
#1383=DIRECTION('center_axis',(0.,1.,-2.22044604925031E-17));
#1384=DIRECTION('ref_axis',(0.707106781186554,0.,-0.707106781186541));
#1385=DIRECTION('',(0.,1.,0.));
#1386=DIRECTION('center_axis',(1.,0.,0.));
#1387=DIRECTION('ref_axis',(0.,0.,-1.));
#1388=DIRECTION('',(0.,1.,0.));
#1389=DIRECTION('',(0.,0.,-1.));
#1390=DIRECTION('center_axis',(0.,-1.,0.));
#1391=DIRECTION('ref_axis',(0.707106781186554,0.,0.707106781186541));
#1392=DIRECTION('center_axis',(0.,1.,-2.22044604925031E-17));
#1393=DIRECTION('ref_axis',(0.707106781186554,0.,0.707106781186541));
#1394=DIRECTION('',(0.,-1.,0.));
#1395=DIRECTION('center_axis',(0.,0.,1.));
#1396=DIRECTION('ref_axis',(0.,1.,0.));
#1397=DIRECTION('',(0.,1.,0.));
#1398=DIRECTION('',(-1.,0.,0.));
#1399=DIRECTION('center_axis',(0.,1.,0.));
#1400=DIRECTION('ref_axis',(-0.707106781186554,0.,0.707106781186541));
#1401=DIRECTION('',(0.,-1.,0.));
#1402=DIRECTION('center_axis',(0.,1.,-2.22044604925031E-17));
#1403=DIRECTION('ref_axis',(-0.707106781186554,0.,0.707106781186541));
#1404=DIRECTION('center_axis',(-1.,0.,0.));
#1405=DIRECTION('ref_axis',(0.,-1.,0.));
#1406=DIRECTION('',(0.,2.22044604925031E-17,1.));
#1407=DIRECTION('center_axis',(1.,0.,0.));
#1408=DIRECTION('ref_axis',(0.,-1.,0.));
#1409=DIRECTION('center_axis',(1.,0.,0.));
#1410=DIRECTION('ref_axis',(0.,-1.,0.));
#1411=DIRECTION('center_axis',(1.,0.,0.));
#1412=DIRECTION('ref_axis',(0.,-1.,0.));
#1413=DIRECTION('center_axis',(1.,0.,0.));
#1414=DIRECTION('ref_axis',(0.,-1.,0.));
#1415=DIRECTION('center_axis',(1.,0.,0.));
#1416=DIRECTION('ref_axis',(0.,-1.,0.));
#1417=DIRECTION('center_axis',(1.,0.,0.));
#1418=DIRECTION('ref_axis',(0.,-1.,0.));
#1419=DIRECTION('center_axis',(1.,0.,0.));
#1420=DIRECTION('ref_axis',(0.,-1.,0.));
#1421=DIRECTION('center_axis',(1.,0.,0.));
#1422=DIRECTION('ref_axis',(0.,-1.,0.));
#1423=DIRECTION('center_axis',(0.,1.,0.));
#1424=DIRECTION('ref_axis',(-0.707106781186541,0.,0.707106781186554));
#1425=DIRECTION('center_axis',(0.,-1.,2.22044604925031E-17));
#1426=DIRECTION('ref_axis',(-0.707106781186541,0.,0.707106781186554));
#1427=DIRECTION('',(0.,-1.,0.));
#1428=DIRECTION('center_axis',(0.,0.,1.));
#1429=DIRECTION('ref_axis',(0.,1.,0.));
#1430=DIRECTION('',(1.,0.,0.));
#1431=DIRECTION('center_axis',(-1.,0.,0.));
#1432=DIRECTION('ref_axis',(0.,-1.,0.));
#1433=DIRECTION('',(1.,0.,0.));
#1434=DIRECTION('center_axis',(-1.,0.,0.));
#1435=DIRECTION('ref_axis',(0.,-1.,0.));
#1436=DIRECTION('',(1.,0.,0.));
#1437=DIRECTION('center_axis',(-1.,0.,0.));
#1438=DIRECTION('ref_axis',(0.,-1.,0.));
#1439=DIRECTION('',(1.,0.,0.));
#1440=DIRECTION('center_axis',(-1.,0.,0.));
#1441=DIRECTION('ref_axis',(0.,-1.,0.));
#1442=DIRECTION('',(1.,0.,0.));
#1443=DIRECTION('center_axis',(-1.,0.,0.));
#1444=DIRECTION('ref_axis',(0.,-1.,0.));
#1445=DIRECTION('',(1.,0.,0.));
#1446=DIRECTION('center_axis',(-1.,0.,0.));
#1447=DIRECTION('ref_axis',(0.,-1.,0.));
#1448=DIRECTION('',(1.,0.,0.));
#1449=DIRECTION('center_axis',(-1.,0.,0.));
#1450=DIRECTION('ref_axis',(0.,-1.,0.));
#1451=DIRECTION('',(1.,0.,0.));
#1452=DIRECTION('center_axis',(-1.,0.,0.));
#1453=DIRECTION('ref_axis',(0.,-1.,0.));
#1454=DIRECTION('',(1.,0.,0.));
#1455=DIRECTION('center_axis',(0.,-1.,2.22044604925031E-17));
#1456=DIRECTION('ref_axis',(0.,2.22044604925031E-17,1.));
#1457=DIRECTION('center_axis',(0.,-0.866025403784439,0.5));
#1458=DIRECTION('ref_axis',(0.,0.5,0.866025403784439));
#1459=DIRECTION('',(0.,-0.5,-0.866025403784439));
#1460=DIRECTION('',(-1.,0.,0.));
#1461=DIRECTION('',(0.,0.5,0.866025403784439));
#1462=DIRECTION('',(-1.,0.,0.));
#1463=DIRECTION('center_axis',(0.,-0.866025403784439,-0.5));
#1464=DIRECTION('ref_axis',(0.,-0.5,0.866025403784439));
#1465=DIRECTION('',(0.,0.5,-0.866025403784439));
#1466=DIRECTION('',(-1.,0.,0.));
#1467=DIRECTION('',(0.,-0.5,0.866025403784439));
#1468=DIRECTION('center_axis',(0.,0.,-1.));
#1469=DIRECTION('ref_axis',(0.,-1.,0.));
#1470=DIRECTION('',(0.,1.,0.));
#1471=DIRECTION('',(-1.,0.,0.));
#1472=DIRECTION('',(0.,-1.,0.));
#1473=DIRECTION('center_axis',(0.,0.866025403784439,-0.5));
#1474=DIRECTION('ref_axis',(0.,-0.5,-0.866025403784439));
#1475=DIRECTION('',(0.,0.5,0.866025403784439));
#1476=DIRECTION('',(-1.,0.,0.));
#1477=DIRECTION('',(0.,-0.5,-0.866025403784439));
#1478=DIRECTION('center_axis',(0.,0.866025403784439,0.5));
#1479=DIRECTION('ref_axis',(0.,0.5,-0.866025403784439));
#1480=DIRECTION('',(0.,-0.5,0.866025403784439));
#1481=DIRECTION('',(-1.,0.,0.));
#1482=DIRECTION('',(0.,0.5,-0.866025403784439));
#1483=DIRECTION('center_axis',(0.,0.,1.));
#1484=DIRECTION('ref_axis',(0.,1.,0.));
#1485=DIRECTION('',(0.,-1.,0.));
#1486=DIRECTION('',(0.,1.,0.));
#1487=DIRECTION('center_axis',(1.,0.,0.));
#1488=DIRECTION('ref_axis',(0.,1.,0.));
#1489=DIRECTION('center_axis',(-1.,0.,0.));
#1490=DIRECTION('ref_axis',(8.88178419700125E-16,-1.,4.72837643780249E-17));
#1491=DIRECTION('center_axis',(1.,0.,0.));
#1492=DIRECTION('ref_axis',(0.,1.,0.));
#1493=DIRECTION('center_axis',(1.,0.,0.));
#1494=DIRECTION('ref_axis',(8.88178419700125E-16,-1.,4.72837643780249E-17));
#1495=DIRECTION('center_axis',(0.,-0.866025403784439,0.5));
#1496=DIRECTION('ref_axis',(0.,0.5,0.866025403784439));
#1497=DIRECTION('',(0.,-0.5,-0.866025403784439));
#1498=DIRECTION('',(-1.,0.,0.));
#1499=DIRECTION('',(0.,0.5,0.866025403784439));
#1500=DIRECTION('',(-1.,0.,0.));
#1501=DIRECTION('center_axis',(0.,-0.866025403784439,-0.5));
#1502=DIRECTION('ref_axis',(0.,-0.5,0.866025403784439));
#1503=DIRECTION('',(0.,0.5,-0.866025403784439));
#1504=DIRECTION('',(-1.,0.,0.));
#1505=DIRECTION('',(0.,-0.5,0.866025403784439));
#1506=DIRECTION('center_axis',(0.,0.,-1.));
#1507=DIRECTION('ref_axis',(0.,-1.,0.));
#1508=DIRECTION('',(0.,1.,0.));
#1509=DIRECTION('',(-1.,0.,0.));
#1510=DIRECTION('',(0.,-1.,0.));
#1511=DIRECTION('center_axis',(0.,0.866025403784439,-0.5));
#1512=DIRECTION('ref_axis',(0.,-0.5,-0.866025403784439));
#1513=DIRECTION('',(0.,0.5,0.866025403784439));
#1514=DIRECTION('',(-1.,0.,0.));
#1515=DIRECTION('',(0.,-0.5,-0.866025403784439));
#1516=DIRECTION('center_axis',(0.,0.866025403784439,0.5));
#1517=DIRECTION('ref_axis',(0.,0.5,-0.866025403784439));
#1518=DIRECTION('',(0.,-0.5,0.866025403784439));
#1519=DIRECTION('',(-1.,0.,0.));
#1520=DIRECTION('',(0.,0.5,-0.866025403784439));
#1521=DIRECTION('center_axis',(0.,0.,1.));
#1522=DIRECTION('ref_axis',(0.,1.,0.));
#1523=DIRECTION('',(0.,-1.,0.));
#1524=DIRECTION('',(0.,1.,0.));
#1525=DIRECTION('center_axis',(1.,0.,0.));
#1526=DIRECTION('ref_axis',(0.,1.,0.));
#1527=DIRECTION('center_axis',(-1.,0.,0.));
#1528=DIRECTION('ref_axis',(8.88178419700125E-16,-1.,4.72837643780249E-17));
#1529=DIRECTION('center_axis',(1.,0.,0.));
#1530=DIRECTION('ref_axis',(0.,1.,0.));
#1531=DIRECTION('center_axis',(1.,0.,0.));
#1532=DIRECTION('ref_axis',(8.88178419700125E-16,-1.,4.72837643780249E-17));
#1533=DIRECTION('center_axis',(1.,8.88178419700125E-16,8.28303950482062E-30));
#1534=DIRECTION('ref_axis',(8.88178419700125E-16,-1.,4.72837643780249E-17));
#1535=DIRECTION('center_axis',(1.,0.,-1.99840144432527E-15));
#1536=DIRECTION('ref_axis',(8.88178419700125E-16,-1.,4.72837643780249E-17));
#1537=DIRECTION('',(1.,8.88178419700125E-16,8.28303950482062E-30));
#1538=DIRECTION('center_axis',(1.,8.88178419700125E-16,8.28303950482062E-30));
#1539=DIRECTION('ref_axis',(8.88178419700125E-16,-1.,4.72837643780249E-17));
#1540=DIRECTION('center_axis',(1.,0.,-1.99840144432527E-15));
#1541=DIRECTION('ref_axis',(8.88178419700125E-16,-1.,4.72837643780249E-17));
#1542=DIRECTION('',(1.,8.88178419700125E-16,8.28303950482062E-30));
#1543=DIRECTION('center_axis',(0.,0.,1.));
#1544=DIRECTION('ref_axis',(1.,0.,0.));
#1545=DIRECTION('',(1.,2.88889491658007E-33,0.));
#1546=DIRECTION('',(-7.88230386182707E-46,-1.,-3.94430452610506E-31));
#1547=DIRECTION('',(1.,0.,-1.94722591329159E-15));
#1548=DIRECTION('',(8.75811540203011E-47,1.,-4.90909346529766E-91));
#1549=DIRECTION('',(-1.,0.,1.94722591329159E-15));
#1550=DIRECTION('',(7.88230386182707E-46,1.,3.94430452610506E-31));
#1551=DIRECTION('center_axis',(2.88889491658007E-33,-1.,-3.94430452610506E-31));
#1552=DIRECTION('ref_axis',(1.,2.88889491658085E-33,-1.99840144432527E-15));
#1553=DIRECTION('',(-3.10902067983399E-76,-3.94430452610506E-31,1.));
#1554=DIRECTION('',(3.10902067983399E-76,3.94430452610506E-31,-1.));
#1555=DIRECTION('',(-1.,-2.88889491658085E-33,1.99840144432527E-15));
#1556=DIRECTION('',(1.99840144432527E-15,-3.94430452610506E-31,1.));
#1557=DIRECTION('',(1.,2.88889491658085E-33,-1.99840144432527E-15));
#1558=DIRECTION('',(0.,0.,-1.));
#1559=DIRECTION('',(-1.,-2.88889491658085E-33,1.99840144432527E-15));
#1560=DIRECTION('center_axis',(-2.88889491658007E-33,1.,3.94430452610506E-31));
#1561=DIRECTION('ref_axis',(-1.,1.55575381946529E-61,1.99840144432527E-15));
#1562=DIRECTION('center_axis',(0.,0.,-1.));
#1563=DIRECTION('ref_axis',(-1.,0.,0.));
#1564=DIRECTION('',(7.88230386182707E-46,1.,3.94430452610506E-31));
#1565=DIRECTION('',(1.,-1.55575381946529E-61,-1.99840144432527E-15));
#1566=DIRECTION('',(2.88889491658007E-33,-1.,-3.94430452610506E-31));
#1567=DIRECTION('',(-7.88230386182707E-46,-1.,-3.94430452610506E-31));
#1568=DIRECTION('',(1.,0.,-1.94722591329159E-15));
#1569=DIRECTION('',(-8.75811540203011E-47,-1.,0.));
#1570=DIRECTION('',(-1.,3.79411283881768E-32,1.99840144432527E-15));
#1571=DIRECTION('',(7.88230386182707E-46,1.,3.94430452610506E-31));
#1572=DIRECTION('center_axis',(3.02940415196515E-76,1.,1.55575381946528E-61));
#1573=DIRECTION('ref_axis',(1.77635683940024E-15,-1.55575381946528E-61,
1.));
#1574=DIRECTION('',(-1.77635683940024E-15,1.55575381946528E-61,-1.));
#1575=DIRECTION('',(0.,0.,-1.));
#1576=DIRECTION('center_axis',(1.,-8.75811540203011E-47,-1.77635683940024E-15));
#1577=DIRECTION('ref_axis',(8.75811540203011E-47,1.,-4.90909346529766E-91));
#1578=DIRECTION('',(0.,0.,1.));
#1579=DIRECTION('center_axis',(-1.,-6.7711181989313E-32,1.77635683940024E-15));
#1580=DIRECTION('ref_axis',(-6.7711181989313E-32,1.,1.20279221230591E-46));
#1581=DIRECTION('center_axis',(-1.,-6.7711181989313E-32,1.77635683940024E-15));
#1582=DIRECTION('ref_axis',(-6.7711181989313E-32,1.,1.20279221230591E-46));
#1583=DIRECTION('center_axis',(1.,8.88178419700125E-16,8.28303950482062E-30));
#1584=DIRECTION('ref_axis',(8.88178419700125E-16,-1.,4.72837643780249E-17));
#1585=DIRECTION('',(1.,8.88178419700125E-16,8.28303950482062E-30));
#1586=DIRECTION('center_axis',(1.,8.88178419700125E-16,8.28303950482062E-30));
#1587=DIRECTION('ref_axis',(8.88178419700125E-16,-1.,4.72837643780249E-17));
#1588=DIRECTION('',(1.,8.88178419700125E-16,8.28303950482062E-30));
#1589=DIRECTION('center_axis',(1.,-8.75811540203011E-47,-1.77635683940024E-15));
#1590=DIRECTION('ref_axis',(1.77635683940024E-15,-3.97511940521526E-31,
1.));
#1591=DIRECTION('center_axis',(-1.,0.,1.99840144432527E-15));
#1592=DIRECTION('ref_axis',(-1.99840144432527E-15,3.97511940521526E-31,
-1.));
#1593=DIRECTION('',(0.,0.,1.));
#1594=DIRECTION('center_axis',(-7.88230386182707E-46,-1.,-3.94430452610506E-31));
#1595=DIRECTION('ref_axis',(1.99840144432527E-15,-3.94430452610506E-31,
1.));
#1596=DIRECTION('center_axis',(-3.53701221090942E-31,-1.,-1.76992076389518E-16));
#1597=DIRECTION('ref_axis',(1.99840144432527E-15,-1.76992076389518E-16,
1.));
#1598=DIRECTION('',(1.99840144432527E-15,-1.76992076389518E-16,1.));
#1599=DIRECTION('',(-1.,1.55575381946529E-61,1.99840144432527E-15));
#1600=DIRECTION('',(1.99840144432527E-15,-1.76992076389518E-16,1.));
#1601=DIRECTION('',(-1.,1.55575381946529E-61,1.99840144432527E-15));
#1602=DIRECTION('center_axis',(3.53701221090942E-31,1.,1.76992076389518E-16));
#1603=DIRECTION('ref_axis',(-1.,1.55575381946529E-61,1.99840144432527E-15));
#1604=DIRECTION('center_axis',(-1.99840144432527E-15,3.94430452610506E-31,
-1.));
#1605=DIRECTION('ref_axis',(-7.88230386182707E-46,-1.,-3.94430452610506E-31));
#1606=DIRECTION('',(2.88889491658007E-33,-1.,-3.94430452610506E-31));
#1607=DIRECTION('',(-1.,1.55575381946529E-61,1.99840144432527E-15));
#1608=DIRECTION('',(-7.88230386182707E-46,-1.,-3.94430452610506E-31));
#1609=DIRECTION('center_axis',(-2.57237251702502E-31,1.,-1.28721510101467E-16));
#1610=DIRECTION('ref_axis',(-1.99840144432527E-15,-1.28721510101467E-16,
-1.));
#1611=DIRECTION('',(-1.99840144432527E-15,-1.28721510101467E-16,-1.));
#1612=DIRECTION('',(-1.,1.55575381946529E-61,1.99840144432527E-15));
#1613=DIRECTION('',(-1.99840144432527E-15,-1.28721510101467E-16,-1.));
#1614=DIRECTION('center_axis',(2.57237251702502E-31,-1.,1.28721510101467E-16));
#1615=DIRECTION('ref_axis',(-1.,1.55575381946529E-61,1.99840144432527E-15));
#1616=DIRECTION('center_axis',(1.99840144432527E-15,-3.94430452610506E-31,
1.));
#1617=DIRECTION('ref_axis',(7.88230386182707E-46,1.,3.94430452610506E-31));
#1618=DIRECTION('',(-2.88889491658007E-33,1.,3.94430452610506E-31));
#1619=DIRECTION('',(7.88230386182707E-46,1.,3.94430452610506E-31));
#1620=DIRECTION('center_axis',(-1.,1.55575381946529E-61,1.99840144432527E-15));
#1621=DIRECTION('ref_axis',(1.99840144432527E-15,-3.94430452610506E-31,
1.));
#1622=DIRECTION('center_axis',(1.,-1.55575381946529E-61,-1.99840144432527E-15));
#1623=DIRECTION('ref_axis',(-7.88230386182706E-46,-1.,-3.94430452610506E-31));
#1624=DIRECTION('center_axis',(-7.88230386182707E-46,-1.,-3.94430452610506E-31));
#1625=DIRECTION('ref_axis',(-1.,1.55575381946529E-61,1.99840144432527E-15));
#1626=DIRECTION('center_axis',(-7.88230386182707E-46,-1.,-3.94430452610506E-31));
#1627=DIRECTION('ref_axis',(-1.,1.55575381946529E-61,1.99840144432527E-15));
#1628=DIRECTION('',(-7.88230386182707E-46,-1.,-3.94430452610506E-31));
#1629=DIRECTION('center_axis',(-7.88230386182707E-46,-1.,-3.94430452610506E-31));
#1630=DIRECTION('ref_axis',(-1.,1.55575381946529E-61,1.99840144432527E-15));
#1631=DIRECTION('',(-7.88230386182707E-46,-1.,-3.94430452610506E-31));
#1632=DIRECTION('center_axis',(1.,-1.55575381946529E-61,-1.99840144432527E-15));
#1633=DIRECTION('ref_axis',(-7.88230386182706E-46,-1.,-3.94430452610506E-31));
#1634=DIRECTION('center_axis',(1.,-1.55575381946529E-61,-1.99840144432527E-15));
#1635=DIRECTION('ref_axis',(-7.88230386182706E-46,-1.,-3.94430452610506E-31));
#1636=DIRECTION('',(1.,-1.55575381946529E-61,-1.99840144432527E-15));
#1637=DIRECTION('center_axis',(-1.,1.55575381946529E-61,1.99840144432527E-15));
#1638=DIRECTION('ref_axis',(-7.88230386182707E-46,-1.,-3.94430452610506E-31));
#1639=DIRECTION('',(-7.88230386182707E-46,-1.,-3.94430452610506E-31));
#1640=DIRECTION('',(1.99840144432527E-15,-3.94430452610506E-31,1.));
#1641=DIRECTION('center_axis',(7.88230386182707E-46,1.,3.94430452610506E-31));
#1642=DIRECTION('ref_axis',(-1.,1.55575381946529E-61,1.99840144432527E-15));
#1643=DIRECTION('',(-1.,1.55575381946529E-61,1.99840144432527E-15));
#1644=DIRECTION('',(1.99840144432527E-15,-3.94430452610506E-31,1.));
#1645=DIRECTION('center_axis',(1.,2.88889491658085E-33,-1.99840144432527E-15));
#1646=DIRECTION('ref_axis',(-2.88889491658007E-33,1.,3.94430452610506E-31));
#1647=DIRECTION('',(-2.88889491658007E-33,1.,3.94430452610506E-31));
#1648=DIRECTION('center_axis',(1.99840144432527E-15,-3.94430452610506E-31,
1.));
#1649=DIRECTION('ref_axis',(7.88230386182707E-46,1.,3.94430452610506E-31));
#1650=DIRECTION('',(0.,0.,1.));
#1651=DIRECTION('',(1.,0.,0.));
#1652=DIRECTION('',(3.30936760238225E-15,7.66012731913584E-16,0.999999999999983));
#1653=DIRECTION('',(-7.23032744787131E-15,1.00000000000001,-1.38777878078144E-15));
#1654=CARTESIAN_POINT('',(0.,0.,0.));
#1655=CARTESIAN_POINT('',(0.,0.,0.));
#1656=CARTESIAN_POINT('',(0.,0.,0.));
#1657=CARTESIAN_POINT('Origin',(-148.,55.,102.));
#1658=CARTESIAN_POINT('',(-148.,25.,100.));
#1659=CARTESIAN_POINT('',(-150.,25.,102.));
#1660=CARTESIAN_POINT('Origin',(-148.,25.,102.));
#1661=CARTESIAN_POINT('',(-150.,65.,102.));
#1662=CARTESIAN_POINT('',(-150.,55.,102.));
#1663=CARTESIAN_POINT('',(-148.,65.,100.));
#1664=CARTESIAN_POINT('Origin',(-148.,65.,102.));
#1665=CARTESIAN_POINT('',(-148.,55.,100.));
#1666=CARTESIAN_POINT('Origin',(-140.,65.,100.));
#1667=CARTESIAN_POINT('',(-142.,65.,100.));
#1668=CARTESIAN_POINT('',(-140.,65.,100.));
#1669=CARTESIAN_POINT('',(-142.,25.,100.));
#1670=CARTESIAN_POINT('',(-142.,55.,100.));
#1671=CARTESIAN_POINT('',(-140.,25.,100.));
#1672=CARTESIAN_POINT('Origin',(-140.,65.,300.));
#1673=CARTESIAN_POINT('',(-150.,65.,298.));
#1674=CARTESIAN_POINT('',(-150.,65.,300.));
#1675=CARTESIAN_POINT('',(-148.,65.,300.));
#1676=CARTESIAN_POINT('Origin',(-148.,65.,298.));
#1677=CARTESIAN_POINT('',(-129.,65.,300.));
#1678=CARTESIAN_POINT('',(-140.,65.,300.));
#1679=CARTESIAN_POINT('',(-127.,65.,298.));
#1680=CARTESIAN_POINT('Origin',(-129.,65.,298.));
#1681=CARTESIAN_POINT('',(-127.,65.,287.));
#1682=CARTESIAN_POINT('',(-127.,65.,300.));
#1683=CARTESIAN_POINT('',(-129.,65.,285.));
#1684=CARTESIAN_POINT('Origin',(-129.,65.,287.));
#1685=CARTESIAN_POINT('',(-138.,65.,285.));
#1686=CARTESIAN_POINT('',(-133.5,65.,285.));
#1687=CARTESIAN_POINT('',(-140.,65.,283.));
#1688=CARTESIAN_POINT('Origin',(-138.,65.,283.));
#1689=CARTESIAN_POINT('',(-140.,65.,102.));
#1690=CARTESIAN_POINT('',(-140.,65.,300.));
#1691=CARTESIAN_POINT('Origin',(-142.,65.,102.));
#1692=CARTESIAN_POINT('Origin',(-142.,55.,102.));
#1693=CARTESIAN_POINT('',(-140.,25.,102.));
#1694=CARTESIAN_POINT('Origin',(-142.,25.,102.));
#1695=CARTESIAN_POINT('',(-140.,55.,102.));
#1696=CARTESIAN_POINT('Origin',(-140.,45.,200.));
#1697=CARTESIAN_POINT('',(-140.,25.,283.));
#1698=CARTESIAN_POINT('',(-140.,35.,283.));
#1699=CARTESIAN_POINT('',(-140.,25.,191.25));
#1700=CARTESIAN_POINT('',(-140.,35.75,240.));
#1701=CARTESIAN_POINT('Origin',(-140.,32.5,240.));
#1702=CARTESIAN_POINT('',(-140.,60.75,137.5));
#1703=CARTESIAN_POINT('Origin',(-140.,57.5,137.5));
#1704=CARTESIAN_POINT('',(-140.,35.75,160.));
#1705=CARTESIAN_POINT('Origin',(-140.,32.5,160.));
#1706=CARTESIAN_POINT('',(-140.,35.75,115.));
#1707=CARTESIAN_POINT('Origin',(-140.,32.5,115.));
#1708=CARTESIAN_POINT('',(-140.,35.75,137.5));
#1709=CARTESIAN_POINT('Origin',(-140.,32.5,137.5));
#1710=CARTESIAN_POINT('',(-140.,60.75,240.));
#1711=CARTESIAN_POINT('Origin',(-140.,57.5,240.));
#1712=CARTESIAN_POINT('',(-140.,60.75,115.));
#1713=CARTESIAN_POINT('Origin',(-140.,57.5,115.));
#1714=CARTESIAN_POINT('',(-140.,60.75,160.));
#1715=CARTESIAN_POINT('Origin',(-140.,57.5,160.));
#1716=CARTESIAN_POINT('Origin',(-129.,35.,287.));
#1717=CARTESIAN_POINT('',(-127.,25.,287.));
#1718=CARTESIAN_POINT('',(-127.,35.,287.));
#1719=CARTESIAN_POINT('',(-129.,25.,285.));
#1720=CARTESIAN_POINT('Origin',(-129.,25.,287.));
#1721=CARTESIAN_POINT('',(-129.,35.,285.));
#1722=CARTESIAN_POINT('Origin',(-127.,45.,290.));
#1723=CARTESIAN_POINT('',(-127.,25.,298.));
#1724=CARTESIAN_POINT('',(-127.,35.,298.));
#1725=CARTESIAN_POINT('',(-127.,25.,280.));
#1726=CARTESIAN_POINT('Origin',(-129.,35.,298.));
#1727=CARTESIAN_POINT('',(-129.,25.,300.));
#1728=CARTESIAN_POINT('Origin',(-129.,25.,298.));
#1729=CARTESIAN_POINT('',(-129.,35.,300.));
#1730=CARTESIAN_POINT('Origin',(-140.,25.,300.));
#1731=CARTESIAN_POINT('',(-148.,25.,300.));
#1732=CARTESIAN_POINT('',(-148.,35.,300.));
#1733=CARTESIAN_POINT('',(-140.,25.,300.));
#1734=CARTESIAN_POINT('Origin',(-148.,35.,298.));
#1735=CARTESIAN_POINT('',(-150.,25.,298.));
#1736=CARTESIAN_POINT('',(-150.,35.,298.));
#1737=CARTESIAN_POINT('Origin',(-148.,25.,298.));
#1738=CARTESIAN_POINT('Origin',(-150.,45.,200.));
#1739=CARTESIAN_POINT('',(-150.,25.,100.));
#1740=CARTESIAN_POINT('',(-150.,35.75,240.));
#1741=CARTESIAN_POINT('Origin',(-150.,32.5,240.));
#1742=CARTESIAN_POINT('',(-150.,60.75,137.5));
#1743=CARTESIAN_POINT('Origin',(-150.,57.5,137.5));
#1744=CARTESIAN_POINT('',(-150.,35.75,160.));
#1745=CARTESIAN_POINT('Origin',(-150.,32.5,160.));
#1746=CARTESIAN_POINT('',(-150.,35.75,115.));
#1747=CARTESIAN_POINT('Origin',(-150.,32.5,115.));
#1748=CARTESIAN_POINT('',(-150.,35.75,137.5));
#1749=CARTESIAN_POINT('Origin',(-150.,32.5,137.5));
#1750=CARTESIAN_POINT('',(-150.,60.75,240.));
#1751=CARTESIAN_POINT('Origin',(-150.,57.5,240.));
#1752=CARTESIAN_POINT('',(-150.,60.75,115.));
#1753=CARTESIAN_POINT('Origin',(-150.,57.5,115.));
#1754=CARTESIAN_POINT('',(-150.,60.75,160.));
#1755=CARTESIAN_POINT('Origin',(-150.,57.5,160.));
#1756=CARTESIAN_POINT('Origin',(-138.,35.,283.));
#1757=CARTESIAN_POINT('',(-138.,25.,285.));
#1758=CARTESIAN_POINT('Origin',(-138.,25.,283.));
#1759=CARTESIAN_POINT('',(-138.,35.,285.));
#1760=CARTESIAN_POINT('Origin',(-127.,25.,285.));
#1761=CARTESIAN_POINT('',(-133.5,25.,285.));
#1762=CARTESIAN_POINT('Origin',(-140.,32.5,240.));
#1763=CARTESIAN_POINT('',(-140.,35.75,240.));
#1764=CARTESIAN_POINT('Origin',(-140.,57.5,137.5));
#1765=CARTESIAN_POINT('',(-140.,60.75,137.5));
#1766=CARTESIAN_POINT('Origin',(-140.,32.5,160.));
#1767=CARTESIAN_POINT('',(-140.,35.75,160.));
#1768=CARTESIAN_POINT('Origin',(-140.,32.5,115.));
#1769=CARTESIAN_POINT('',(-140.,35.75,115.));
#1770=CARTESIAN_POINT('Origin',(-140.,32.5,137.5));
#1771=CARTESIAN_POINT('',(-140.,35.75,137.5));
#1772=CARTESIAN_POINT('Origin',(-140.,57.5,240.));
#1773=CARTESIAN_POINT('',(-140.,60.75,240.));
#1774=CARTESIAN_POINT('Origin',(-140.,57.5,115.));
#1775=CARTESIAN_POINT('',(-140.,60.75,115.));
#1776=CARTESIAN_POINT('Origin',(-140.,57.5,160.));
#1777=CARTESIAN_POINT('',(-140.,60.75,160.));
#1778=CARTESIAN_POINT('Origin',(-140.,25.,100.));
#1779=CARTESIAN_POINT('Origin',(-56.7,26.6687622811848,241.57));
#1780=CARTESIAN_POINT('',(-56.7,29.5843811405924,246.62));
#1781=CARTESIAN_POINT('',(-56.7,26.6687622811848,241.57));
#1782=CARTESIAN_POINT('',(-56.7,29.5843811405924,246.62));
#1783=CARTESIAN_POINT('',(-61.53,26.6687622811848,241.57));
#1784=CARTESIAN_POINT('',(-56.7,26.6687622811848,241.57));
#1785=CARTESIAN_POINT('',(-61.53,29.5843811405924,246.62));
#1786=CARTESIAN_POINT('',(-61.53,29.5843811405924,246.62));
#1787=CARTESIAN_POINT('',(-56.7,29.5843811405924,246.62));
#1788=CARTESIAN_POINT('Origin',(-56.7,29.5843811405924,236.52));
#1789=CARTESIAN_POINT('',(-56.7,29.5843811405924,236.52));
#1790=CARTESIAN_POINT('',(-56.7,26.6687622811848,241.57));
#1791=CARTESIAN_POINT('',(-61.53,29.5843811405924,236.52));
#1792=CARTESIAN_POINT('',(-56.7,29.5843811405924,236.52));
#1793=CARTESIAN_POINT('',(-61.53,26.6687622811848,241.57));
#1794=CARTESIAN_POINT('Origin',(-56.7,35.4156188594076,236.52));
#1795=CARTESIAN_POINT('',(-56.7,35.4156188594076,236.52));
#1796=CARTESIAN_POINT('',(-56.7,29.5843811405924,236.52));
#1797=CARTESIAN_POINT('',(-61.53,35.4156188594076,236.52));
#1798=CARTESIAN_POINT('',(-56.7,35.4156188594076,236.52));
#1799=CARTESIAN_POINT('',(-61.53,29.5843811405924,236.52));
#1800=CARTESIAN_POINT('Origin',(-56.7,38.3312377188152,241.57));
#1801=CARTESIAN_POINT('',(-56.7,38.3312377188152,241.57));
#1802=CARTESIAN_POINT('',(-56.7,35.4156188594076,236.52));
#1803=CARTESIAN_POINT('',(-61.53,38.3312377188152,241.57));
#1804=CARTESIAN_POINT('',(-56.7,38.3312377188152,241.57));
#1805=CARTESIAN_POINT('',(-61.53,35.4156188594076,236.52));
#1806=CARTESIAN_POINT('Origin',(-56.7,35.4156188594076,246.62));
#1807=CARTESIAN_POINT('',(-56.7,35.4156188594076,246.62));
#1808=CARTESIAN_POINT('',(-56.7,38.3312377188152,241.57));
#1809=CARTESIAN_POINT('',(-61.53,35.4156188594076,246.62));
#1810=CARTESIAN_POINT('',(-56.7,35.4156188594076,246.62));
#1811=CARTESIAN_POINT('',(-61.53,38.3312377188152,241.57));
#1812=CARTESIAN_POINT('Origin',(-56.7,29.5843811405924,246.62));
#1813=CARTESIAN_POINT('',(-56.7,35.4156188594076,246.62));
#1814=CARTESIAN_POINT('',(-61.53,35.4156188594076,246.62));
#1815=CARTESIAN_POINT('Origin',(-56.7,32.5,241.57));
#1816=CARTESIAN_POINT('',(-56.7,35.75,241.57));
#1817=CARTESIAN_POINT('Origin',(-56.7,32.5,241.57));
#1818=CARTESIAN_POINT('Origin',(-61.53,32.5,241.57));
#1819=CARTESIAN_POINT('',(-61.53,35.75,241.57));
#1820=CARTESIAN_POINT('Origin',(-61.53,32.5,241.57));
#1821=CARTESIAN_POINT('Origin',(-56.7,51.6687622811848,241.57));
#1822=CARTESIAN_POINT('',(-56.7,54.5843811405924,246.62));
#1823=CARTESIAN_POINT('',(-56.7,51.6687622811848,241.57));
#1824=CARTESIAN_POINT('',(-56.7,54.5843811405924,246.62));
#1825=CARTESIAN_POINT('',(-61.53,51.6687622811848,241.57));
#1826=CARTESIAN_POINT('',(-56.7,51.6687622811848,241.57));
#1827=CARTESIAN_POINT('',(-61.53,54.5843811405924,246.62));
#1828=CARTESIAN_POINT('',(-61.53,54.5843811405924,246.62));
#1829=CARTESIAN_POINT('',(-56.7,54.5843811405924,246.62));
#1830=CARTESIAN_POINT('Origin',(-56.7,54.5843811405924,236.52));
#1831=CARTESIAN_POINT('',(-56.7,54.5843811405924,236.52));
#1832=CARTESIAN_POINT('',(-56.7,51.6687622811848,241.57));
#1833=CARTESIAN_POINT('',(-61.53,54.5843811405924,236.52));
#1834=CARTESIAN_POINT('',(-56.7,54.5843811405924,236.52));
#1835=CARTESIAN_POINT('',(-61.53,51.6687622811848,241.57));
#1836=CARTESIAN_POINT('Origin',(-56.7,60.4156188594076,236.52));
#1837=CARTESIAN_POINT('',(-56.7,60.4156188594076,236.52));
#1838=CARTESIAN_POINT('',(-56.7,54.5843811405924,236.52));
#1839=CARTESIAN_POINT('',(-61.53,60.4156188594076,236.52));
#1840=CARTESIAN_POINT('',(-56.7,60.4156188594076,236.52));
#1841=CARTESIAN_POINT('',(-61.53,54.5843811405924,236.52));
#1842=CARTESIAN_POINT('Origin',(-56.7,63.3312377188152,241.57));
#1843=CARTESIAN_POINT('',(-56.7,63.3312377188152,241.57));
#1844=CARTESIAN_POINT('',(-56.7,60.4156188594076,236.52));
#1845=CARTESIAN_POINT('',(-61.53,63.3312377188152,241.57));
#1846=CARTESIAN_POINT('',(-56.7,63.3312377188152,241.57));
#1847=CARTESIAN_POINT('',(-61.53,60.4156188594076,236.52));
#1848=CARTESIAN_POINT('Origin',(-56.7,60.4156188594076,246.62));
#1849=CARTESIAN_POINT('',(-56.7,60.4156188594076,246.62));
#1850=CARTESIAN_POINT('',(-56.7,63.3312377188152,241.57));
#1851=CARTESIAN_POINT('',(-61.53,60.4156188594076,246.62));
#1852=CARTESIAN_POINT('',(-56.7,60.4156188594076,246.62));
#1853=CARTESIAN_POINT('',(-61.53,63.3312377188152,241.57));
#1854=CARTESIAN_POINT('Origin',(-56.7,54.5843811405924,246.62));
#1855=CARTESIAN_POINT('',(-56.7,60.4156188594076,246.62));
#1856=CARTESIAN_POINT('',(-61.53,60.4156188594076,246.62));
#1857=CARTESIAN_POINT('Origin',(-56.7,57.5,241.57));
#1858=CARTESIAN_POINT('',(-56.7,60.75,241.57));
#1859=CARTESIAN_POINT('Origin',(-56.7,57.5,241.57));
#1860=CARTESIAN_POINT('Origin',(-61.53,57.5,241.57));
#1861=CARTESIAN_POINT('',(-61.53,60.75,241.57));
#1862=CARTESIAN_POINT('Origin',(-61.53,57.5,241.57));
#1863=CARTESIAN_POINT('Origin',(-96.5,32.5,241.57));
#1864=CARTESIAN_POINT('',(-96.5,35.75,241.57));
#1865=CARTESIAN_POINT('Origin',(-96.5,32.5,241.57));
#1866=CARTESIAN_POINT('',(-96.5,35.75,241.57));
#1867=CARTESIAN_POINT('Origin',(-96.5000000000001,57.5,241.57));
#1868=CARTESIAN_POINT('',(-96.5000000000001,60.75,241.57));
#1869=CARTESIAN_POINT('Origin',(-96.5,57.5,241.57));
#1870=CARTESIAN_POINT('',(-96.5000000000001,60.75,241.57));
#1871=CARTESIAN_POINT('Origin',(-86.5000000000001,105.,248.57));
#1872=CARTESIAN_POINT('',(-96.5000000000001,105.,248.57));
#1873=CARTESIAN_POINT('',(-86.5000000000001,105.,248.57));
#1874=CARTESIAN_POINT('',(-99.7500000000001,105.,248.57));
#1875=CARTESIAN_POINT('',(-96.5000000000001,25.,248.57));
#1876=CARTESIAN_POINT('',(-96.5000000000001,105.,248.57));
#1877=CARTESIAN_POINT('',(-50.01,25.,248.57));
#1878=CARTESIAN_POINT('',(-86.5,25.,248.57));
#1879=CARTESIAN_POINT('',(-50.01,65.,248.57));
#1880=CARTESIAN_POINT('',(-50.01,105.,248.57));
#1881=CARTESIAN_POINT('',(-86.5,65.,248.57));
#1882=CARTESIAN_POINT('',(-86.5,65.,248.57));
#1883=CARTESIAN_POINT('',(-86.5000000000001,105.,248.57));
#1884=CARTESIAN_POINT('Origin',(-113.,105.,236.57));
#1885=CARTESIAN_POINT('',(-96.5000000000001,105.,234.57));
#1886=CARTESIAN_POINT('',(-96.5000000000001,105.,241.57));
#1887=CARTESIAN_POINT('',(-86.5000000000001,105.,234.57));
#1888=CARTESIAN_POINT('',(-86.5000000000001,105.,241.57));
#1889=CARTESIAN_POINT('',(-73.0000000000001,105.,234.57));
#1890=CARTESIAN_POINT('',(-113.,105.,234.57));
#1891=CARTESIAN_POINT('',(-73.,105.,276.57));
#1892=CARTESIAN_POINT('',(-73.0000000000001,105.,236.57));
#1893=CARTESIAN_POINT('',(-113.,105.,276.57));
#1894=CARTESIAN_POINT('',(-113.,105.,276.57));
#1895=CARTESIAN_POINT('',(-113.,105.,234.57));
#1896=CARTESIAN_POINT('',(-113.,105.,236.57));
#1897=CARTESIAN_POINT('',(-113.,105.,234.57));
#1898=CARTESIAN_POINT('',(-89.,105.,255.07));
#1899=CARTESIAN_POINT('Origin',(-91.5,105.,255.07));
#1900=CARTESIAN_POINT('Origin',(-93.0000000000001,125.,234.57));
#1901=CARTESIAN_POINT('',(-113.,145.,234.57));
#1902=CARTESIAN_POINT('',(-113.,145.,234.57));
#1903=CARTESIAN_POINT('',(-73.0000000000001,145.,234.57));
#1904=CARTESIAN_POINT('',(-73.0000000000001,145.,234.57));
#1905=CARTESIAN_POINT('',(-73.0000000000001,105.,234.57));
#1906=CARTESIAN_POINT('',(-86.5000000000001,65.,234.57));
#1907=CARTESIAN_POINT('',(-86.5000000000001,105.,234.57));
#1908=CARTESIAN_POINT('',(-50.01,65.,234.57));
#1909=CARTESIAN_POINT('',(-86.5000000000001,65.,234.57));
#1910=CARTESIAN_POINT('',(-50.01,25.,234.57));
#1911=CARTESIAN_POINT('',(-50.01,25.,234.57));
#1912=CARTESIAN_POINT('',(-96.5000000000001,25.,234.57));
#1913=CARTESIAN_POINT('',(-113.,25.,234.57));
#1914=CARTESIAN_POINT('',(-96.5000000000001,105.,234.57));
#1915=CARTESIAN_POINT('Origin',(-86.5000000000001,65.,236.57));
#1916=CARTESIAN_POINT('',(-86.5000000000001,65.,236.57));
#1917=CARTESIAN_POINT('',(-50.01,65.,236.57));
#1918=CARTESIAN_POINT('Origin',(-50.01,45.,241.57));
#1919=CARTESIAN_POINT('',(-50.01,25.,246.57));
#1920=CARTESIAN_POINT('',(-50.01,35.75,241.57));
#1921=CARTESIAN_POINT('Origin',(-50.01,32.5,241.57));
#1922=CARTESIAN_POINT('',(-50.01,60.75,241.57));
#1923=CARTESIAN_POINT('Origin',(-50.01,57.5,241.57));
#1924=CARTESIAN_POINT('Origin',(-96.5000000000001,57.5,241.57));
#1925=CARTESIAN_POINT('',(-96.5000000000001,60.75,241.57));
#1926=CARTESIAN_POINT('Origin',(-96.5,32.5,241.57));
#1927=CARTESIAN_POINT('',(-96.5,35.75,241.57));
#1928=CARTESIAN_POINT('Origin',(-86.5000000000001,105.,236.57));
#1929=CARTESIAN_POINT('Origin',(-96.5000000000001,105.,246.57));
#1930=CARTESIAN_POINT('',(-96.5000000000001,25.,246.57));
#1931=CARTESIAN_POINT('Origin',(-91.5000000000001,25.,241.57));
#1932=CARTESIAN_POINT('Origin',(-73.0000000000001,107.25,239.32));
#1933=CARTESIAN_POINT('',(-73.0000000000001,107.25,239.32));
#1934=CARTESIAN_POINT('',(-73.,107.25,273.82));
#1935=CARTESIAN_POINT('',(-73.0000000000001,107.25,237.945));
#1936=CARTESIAN_POINT('',(-103.,107.25,239.32));
#1937=CARTESIAN_POINT('',(-73.0000000000001,107.25,239.32));
#1938=CARTESIAN_POINT('',(-103.,107.25,273.82));
#1939=CARTESIAN_POINT('',(-103.,107.25,239.32));
#1940=CARTESIAN_POINT('',(-73.,107.25,273.82));
#1941=CARTESIAN_POINT('',(-89.,107.25,255.07));
#1942=CARTESIAN_POINT('Origin',(-91.5,107.25,255.07));
#1943=CARTESIAN_POINT('Origin',(-73.0000000000001,142.75,239.32));
#1944=CARTESIAN_POINT('',(-73.0000000000001,142.75,239.32));
#1945=CARTESIAN_POINT('',(-73.0000000000001,123.875,239.32));
#1946=CARTESIAN_POINT('',(-103.,142.75,239.32));
#1947=CARTESIAN_POINT('',(-73.0000000000001,142.75,239.32));
#1948=CARTESIAN_POINT('',(-103.,142.75,239.32));
#1949=CARTESIAN_POINT('Origin',(-73.,142.75,273.82));
#1950=CARTESIAN_POINT('',(-73.,142.75,273.82));
#1951=CARTESIAN_POINT('',(-73.,142.75,255.195));
#1952=CARTESIAN_POINT('',(-103.,142.75,273.82));
#1953=CARTESIAN_POINT('',(-73.,142.75,273.82));
#1954=CARTESIAN_POINT('',(-103.,142.75,273.82));
#1955=CARTESIAN_POINT('',(-89.,142.75,255.07));
#1956=CARTESIAN_POINT('Origin',(-91.5,142.75,255.07));
#1957=CARTESIAN_POINT('Origin',(-73.,107.25,273.82));
#1958=CARTESIAN_POINT('',(-73.,106.125,273.82));
#1959=CARTESIAN_POINT('',(-103.,107.25,273.82));
#1960=CARTESIAN_POINT('Origin',(-103.,125.,256.57));
#1961=CARTESIAN_POINT('',(-103.,134.,255.07));
#1962=CARTESIAN_POINT('Origin',(-103.,125.,255.07));
#1963=CARTESIAN_POINT('Origin',(-91.5,145.,255.07));
#1964=CARTESIAN_POINT('',(-89.,145.,255.07));
#1965=CARTESIAN_POINT('Origin',(-91.5,145.,255.07));
#1966=CARTESIAN_POINT('',(-89.,145.,255.07));
#1967=CARTESIAN_POINT('Origin',(-91.5,145.,255.07));
#1968=CARTESIAN_POINT('',(-89.,145.,255.07));
#1969=CARTESIAN_POINT('Origin',(-113.,125.,255.07));
#1970=CARTESIAN_POINT('',(-113.,134.,255.07));
#1971=CARTESIAN_POINT('Origin',(-113.,125.,255.07));
#1972=CARTESIAN_POINT('',(-113.,134.,255.07));
#1973=CARTESIAN_POINT('Origin',(-113.,145.,236.57));
#1974=CARTESIAN_POINT('',(-113.,145.,276.57));
#1975=CARTESIAN_POINT('',(-113.,145.,276.57));
#1976=CARTESIAN_POINT('',(-113.,145.,236.57));
#1977=CARTESIAN_POINT('Origin',(-73.0000000000001,145.,236.57));
#1978=CARTESIAN_POINT('',(-73.,145.,276.57));
#1979=CARTESIAN_POINT('',(-73.,145.,276.57));
#1980=CARTESIAN_POINT('',(-73.0000000000001,145.,236.57));
#1981=CARTESIAN_POINT('Origin',(-73.0000000000001,105.,236.57));
#1982=CARTESIAN_POINT('',(-73.,105.,276.57));
#1983=CARTESIAN_POINT('Origin',(-93.,125.,276.57));
#1984=CARTESIAN_POINT('',(100.,0.,0.));
#1985=CARTESIAN_POINT('',(104.934576129764,-64.8200633555315,9.61400957758631E-29));
#1986=UNCERTAINTY_MEASURE_WITH_UNIT(LENGTH_MEASURE(0.01),#1994,
'DISTANCE_ACCURACY_VALUE',
'Maximum model space distance between geometric entities at asserted c
onnectivities');
#1987=UNCERTAINTY_MEASURE_WITH_UNIT(LENGTH_MEASURE(0.01),#1994,
'DISTANCE_ACCURACY_VALUE',
'Maximum model space distance between geometric entities at asserted c
onnectivities');
#1988=UNCERTAINTY_MEASURE_WITH_UNIT(LENGTH_MEASURE(0.01),#1994,
'DISTANCE_ACCURACY_VALUE',
'Maximum model space distance between geometric entities at asserted c
onnectivities');
#1989=UNCERTAINTY_MEASURE_WITH_UNIT(LENGTH_MEASURE(0.01),#1994,
'DISTANCE_ACCURACY_VALUE',
'Maximum model space distance between geometric entities at asserted c
onnectivities');
#1990=(
GEOMETRIC_REPRESENTATION_CONTEXT(3)
GLOBAL_UNCERTAINTY_ASSIGNED_CONTEXT((#1986))
GLOBAL_UNIT_ASSIGNED_CONTEXT((#1994,#1996,#1997))
REPRESENTATION_CONTEXT('','3D')
);
#1991=(
GEOMETRIC_REPRESENTATION_CONTEXT(3)
GLOBAL_UNCERTAINTY_ASSIGNED_CONTEXT((#1987))
GLOBAL_UNIT_ASSIGNED_CONTEXT((#1994,#1996,#1997))
REPRESENTATION_CONTEXT('','3D')
);
#1992=(
GEOMETRIC_REPRESENTATION_CONTEXT(3)
GLOBAL_UNCERTAINTY_ASSIGNED_CONTEXT((#1988))
GLOBAL_UNIT_ASSIGNED_CONTEXT((#1994,#1996,#1997))
REPRESENTATION_CONTEXT('','3D')
);
#1993=(
GEOMETRIC_REPRESENTATION_CONTEXT(3)
GLOBAL_UNCERTAINTY_ASSIGNED_CONTEXT((#1989))
GLOBAL_UNIT_ASSIGNED_CONTEXT((#1994,#1996,#1997))
REPRESENTATION_CONTEXT('','3D')
);
#1994=(
LENGTH_UNIT()
NAMED_UNIT(*)
SI_UNIT(.MILLI.,.METRE.)
);
#1995=(
LENGTH_UNIT()
NAMED_UNIT(*)
SI_UNIT($,.METRE.)
);
#1996=(
NAMED_UNIT(*)
PLANE_ANGLE_UNIT()
SI_UNIT($,.RADIAN.)
);
#1997=(
NAMED_UNIT(*)
SI_UNIT($,.STERADIAN.)
SOLID_ANGLE_UNIT()
);
#1998=SHAPE_DEFINITION_REPRESENTATION(#2001,#2006);
#1999=SHAPE_DEFINITION_REPRESENTATION(#2002,#2007);
#2000=SHAPE_DEFINITION_REPRESENTATION(#2003,#2008);
#2001=PRODUCT_DEFINITION_SHAPE('',$,#2010);
#2002=PRODUCT_DEFINITION_SHAPE('',$,#2011);
#2003=PRODUCT_DEFINITION_SHAPE('',$,#2012);
#2004=PRODUCT_DEFINITION_SHAPE($,$,#17);
#2005=PRODUCT_DEFINITION_SHAPE($,$,#18);
#2006=SHAPE_REPRESENTATION('',(#1210,#1318),#1990);
#2007=SHAPE_REPRESENTATION('',(#1211,#1317),#1991);
#2008=SHAPE_REPRESENTATION('',(#1212),#1992);
#2009=PRODUCT_DEFINITION_CONTEXT('part definition',#2020,'design');
#2010=PRODUCT_DEFINITION('2026-05-06-02-11-17-818','Bed_plate_assembly',
#2013,#2009);
#2011=PRODUCT_DEFINITION('2026-05-06-02-11-12-823','camera mount',#2014,
#2009);
#2012=PRODUCT_DEFINITION('2026-05-06-02-11-13-733','Tip ejector',#2015,
#2009);
#2013=PRODUCT_DEFINITION_FORMATION('',$,#2022);
#2014=PRODUCT_DEFINITION_FORMATION('',$,#2023);
#2015=PRODUCT_DEFINITION_FORMATION('',$,#2024);
#2016=PRODUCT_RELATED_PRODUCT_CATEGORY('Bed_plate_assembly',
'Bed_plate_assembly',(#2022));
#2017=PRODUCT_RELATED_PRODUCT_CATEGORY('camera mount','camera mount',(#2023));
#2018=PRODUCT_RELATED_PRODUCT_CATEGORY('Tip ejector','Tip ejector',(#2024));
#2019=APPLICATION_PROTOCOL_DEFINITION('international standard',
'automotive_design',2009,#2020);
#2020=APPLICATION_CONTEXT(
'Core Data for Automotive Mechanical Design Process');
#2021=PRODUCT_CONTEXT('part definition',#2020,'mechanical');
#2022=PRODUCT('2026-05-06-02-11-17-818','Bed_plate_assembly',$,(#2021));
#2023=PRODUCT('2026-05-06-02-11-12-823','camera mount',$,(#2021));
#2024=PRODUCT('2026-05-06-02-11-13-733','Tip ejector',$,(#2021));
#2025=PRESENTATION_STYLE_ASSIGNMENT((#2027));
#2026=PRESENTATION_STYLE_ASSIGNMENT((#2028));
#2027=SURFACE_STYLE_USAGE(.BOTH.,#2029);
#2028=SURFACE_STYLE_USAGE(.BOTH.,#2030);
#2029=SURFACE_SIDE_STYLE('',(#2031));
#2030=SURFACE_SIDE_STYLE('',(#2032));
#2031=SURFACE_STYLE_FILL_AREA(#2033);
#2032=SURFACE_STYLE_FILL_AREA(#2034);
#2033=FILL_AREA_STYLE('Steel - Satin',(#2035));
#2034=FILL_AREA_STYLE('Plastic - Glossy (Green)',(#2036));
#2035=FILL_AREA_STYLE_COLOUR('Steel - Satin',#2037);
#2036=FILL_AREA_STYLE_COLOUR('Plastic - Glossy (Green)',#2038);
#2037=COLOUR_RGB('Steel - Satin',0.627450980392157,0.627450980392157,0.627450980392157);
#2038=COLOUR_RGB('Plastic - Glossy (Green)',0.266666666666667,0.588235294117647,
0.282352941176471);
ENDSEC;
END-ISO-10303-21;
