ISO-10303-21;
HEADER;
/* Generated by software containing ST-Developer
 * from STEP Tools, Inc. (www.steptools.com) 
 */

FILE_DESCRIPTION(
/* description */ (''),
/* implementation_level */ '2;1');

FILE_NAME(
/* name */ 'tip disposal.step',
/* time_stamp */ '2026-06-16T09:45:04+08:00',
/* author */ (''),
/* organization */ (''),
/* preprocessor_version */ 'ST-DEVELOPER v20.1',
/* originating_system */ 'Autodesk Translation Framework v15.8.0.0',
/* authorisation */ '');

FILE_SCHEMA (('AUTOMOTIVE_DESIGN { 1 0 10303 214 3 1 1 }'));
ENDSEC;

DATA;
#10=MECHANICAL_DESIGN_GEOMETRIC_PRESENTATION_REPRESENTATION('',(#29),#1554);
#11=ITEM_DEFINED_TRANSFORMATION($,$,#964,#1023);
#12=ITEM_DEFINED_TRANSFORMATION($,$,#963,#1024);
#13=ITEM_DEFINED_TRANSFORMATION($,$,#962,#1025);
#14=ITEM_DEFINED_TRANSFORMATION($,$,#961,#1026);
#15=(
REPRESENTATION_RELATIONSHIP($,$,#1577,#1576)
REPRESENTATION_RELATIONSHIP_WITH_TRANSFORMATION(#11)
SHAPE_REPRESENTATION_RELATIONSHIP()
);
#16=(
REPRESENTATION_RELATIONSHIP($,$,#1576,#1575)
REPRESENTATION_RELATIONSHIP_WITH_TRANSFORMATION(#12)
SHAPE_REPRESENTATION_RELATIONSHIP()
);
#17=(
REPRESENTATION_RELATIONSHIP($,$,#1575,#1574)
REPRESENTATION_RELATIONSHIP_WITH_TRANSFORMATION(#13)
SHAPE_REPRESENTATION_RELATIONSHIP()
);
#18=(
REPRESENTATION_RELATIONSHIP($,$,#1574,#1573)
REPRESENTATION_RELATIONSHIP_WITH_TRANSFORMATION(#14)
SHAPE_REPRESENTATION_RELATIONSHIP()
);
#19=CONTEXT_DEPENDENT_SHAPE_REPRESENTATION(#15,#1569);
#20=CONTEXT_DEPENDENT_SHAPE_REPRESENTATION(#16,#1570);
#21=CONTEXT_DEPENDENT_SHAPE_REPRESENTATION(#17,#1571);
#22=CONTEXT_DEPENDENT_SHAPE_REPRESENTATION(#18,#1572);
#23=NEXT_ASSEMBLY_USAGE_OCCURRENCE('Disposal chamber :1',
'Disposal chamber :1','Disposal chamber :1',#1582,#1583,
'Disposal chamber :1');
#24=NEXT_ASSEMBLY_USAGE_OCCURRENCE('Tip Disposal Chamber Unit:1',
'Tip Disposal Chamber Unit:1','Tip Disposal Chamber Unit:1',#1581,#1582,
'Tip Disposal Chamber Unit:1');
#25=NEXT_ASSEMBLY_USAGE_OCCURRENCE(
'FINAL FIXTURE DESIGN_07.09.2025_Smaller Pipette Tip:1',
'FINAL FIXTURE DESIGN_07.09.2025_Smaller Pipette Tip:1',
'FINAL FIXTURE DESIGN_07.09.2025_Smaller Pipette Tip:1',#1580,#1581,
'FINAL FIXTURE DESIGN_07.09.2025_Smaller Pipette Tip:1');
#26=NEXT_ASSEMBLY_USAGE_OCCURRENCE('accesories_sd:1','accesories_sd:1',
'accesories_sd:1',#1579,#1580,'accesories_sd:1');
#27=SHAPE_REPRESENTATION_RELATIONSHIP('SRR','None',#1577,#28);
#28=ADVANCED_BREP_SHAPE_REPRESENTATION('',(#30),#1553);
#29=STYLED_ITEM('',(#1603),#30);
#30=MANIFOLD_SOLID_BREP('Body1',#947);
#31=CYLINDRICAL_SURFACE('',#970,2.5);
#32=CYLINDRICAL_SURFACE('',#972,3.39);
#33=CYLINDRICAL_SURFACE('',#1001,2.4);
#34=CYLINDRICAL_SURFACE('',#1004,2.4);
#35=CYLINDRICAL_SURFACE('',#1007,2.4);
#36=CYLINDRICAL_SURFACE('',#1010,2.4);
#37=FACE_BOUND('',#134,.T.);
#38=FACE_BOUND('',#138,.T.);
#39=FACE_BOUND('',#152,.T.);
#40=FACE_BOUND('',#176,.T.);
#41=FACE_BOUND('',#177,.T.);
#42=FACE_BOUND('',#178,.T.);
#43=FACE_BOUND('',#179,.T.);
#44=FACE_BOUND('',#183,.T.);
#45=FACE_BOUND('',#185,.T.);
#46=FACE_BOUND('',#186,.T.);
#47=FACE_BOUND('',#187,.T.);
#48=FACE_BOUND('',#188,.T.);
#49=PLANE('',#968);
#50=PLANE('',#974);
#51=PLANE('',#975);
#52=PLANE('',#976);
#53=PLANE('',#977);
#54=PLANE('',#978);
#55=PLANE('',#979);
#56=PLANE('',#980);
#57=PLANE('',#981);
#58=PLANE('',#982);
#59=PLANE('',#983);
#60=PLANE('',#984);
#61=PLANE('',#985);
#62=PLANE('',#986);
#63=PLANE('',#987);
#64=PLANE('',#988);
#65=PLANE('',#989);
#66=PLANE('',#990);
#67=PLANE('',#991);
#68=PLANE('',#992);
#69=PLANE('',#993);
#70=PLANE('',#994);
#71=PLANE('',#995);
#72=PLANE('',#996);
#73=PLANE('',#997);
#74=PLANE('',#998);
#75=PLANE('',#999);
#76=PLANE('',#1000);
#77=PLANE('',#1013);
#78=PLANE('',#1014);
#79=PLANE('',#1015);
#80=PLANE('',#1016);
#81=PLANE('',#1017);
#82=PLANE('',#1018);
#83=PLANE('',#1019);
#84=PLANE('',#1020);
#85=PLANE('',#1021);
#86=PLANE('',#1022);
#87=FACE_OUTER_BOUND('',#132,.T.);
#88=FACE_OUTER_BOUND('',#133,.T.);
#89=FACE_OUTER_BOUND('',#135,.T.);
#90=FACE_OUTER_BOUND('',#136,.T.);
#91=FACE_OUTER_BOUND('',#137,.T.);
#92=FACE_OUTER_BOUND('',#139,.T.);
#93=FACE_OUTER_BOUND('',#140,.T.);
#94=FACE_OUTER_BOUND('',#141,.T.);
#95=FACE_OUTER_BOUND('',#142,.T.);
#96=FACE_OUTER_BOUND('',#143,.T.);
#97=FACE_OUTER_BOUND('',#144,.T.);
#98=FACE_OUTER_BOUND('',#145,.T.);
#99=FACE_OUTER_BOUND('',#146,.T.);
#100=FACE_OUTER_BOUND('',#147,.T.);
#101=FACE_OUTER_BOUND('',#148,.T.);
#102=FACE_OUTER_BOUND('',#149,.T.);
#103=FACE_OUTER_BOUND('',#150,.T.);
#104=FACE_OUTER_BOUND('',#151,.T.);
#105=FACE_OUTER_BOUND('',#153,.T.);
#106=FACE_OUTER_BOUND('',#154,.T.);
#107=FACE_OUTER_BOUND('',#155,.T.);
#108=FACE_OUTER_BOUND('',#156,.T.);
#109=FACE_OUTER_BOUND('',#157,.T.);
#110=FACE_OUTER_BOUND('',#158,.T.);
#111=FACE_OUTER_BOUND('',#159,.T.);
#112=FACE_OUTER_BOUND('',#160,.T.);
#113=FACE_OUTER_BOUND('',#161,.T.);
#114=FACE_OUTER_BOUND('',#162,.T.);
#115=FACE_OUTER_BOUND('',#163,.T.);
#116=FACE_OUTER_BOUND('',#164,.T.);
#117=FACE_OUTER_BOUND('',#165,.T.);
#118=FACE_OUTER_BOUND('',#166,.T.);
#119=FACE_OUTER_BOUND('',#167,.T.);
#120=FACE_OUTER_BOUND('',#168,.T.);
#121=FACE_OUTER_BOUND('',#169,.T.);
#122=FACE_OUTER_BOUND('',#170,.T.);
#123=FACE_OUTER_BOUND('',#171,.T.);
#124=FACE_OUTER_BOUND('',#172,.T.);
#125=FACE_OUTER_BOUND('',#173,.T.);
#126=FACE_OUTER_BOUND('',#174,.T.);
#127=FACE_OUTER_BOUND('',#175,.T.);
#128=FACE_OUTER_BOUND('',#180,.T.);
#129=FACE_OUTER_BOUND('',#181,.T.);
#130=FACE_OUTER_BOUND('',#182,.T.);
#131=FACE_OUTER_BOUND('',#184,.T.);
#132=EDGE_LOOP('',(#645,#646,#647,#648));
#133=EDGE_LOOP('',(#649));
#134=EDGE_LOOP('',(#650));
#135=EDGE_LOOP('',(#651,#652,#653,#654));
#136=EDGE_LOOP('',(#655,#656,#657,#658));
#137=EDGE_LOOP('',(#659,#660,#661,#662,#663,#664,#665,#666));
#138=EDGE_LOOP('',(#667));
#139=EDGE_LOOP('',(#668,#669,#670,#671,#672,#673,#674,#675,#676,#677));
#140=EDGE_LOOP('',(#678,#679,#680,#681));
#141=EDGE_LOOP('',(#682,#683,#684,#685));
#142=EDGE_LOOP('',(#686,#687,#688,#689));
#143=EDGE_LOOP('',(#690,#691,#692,#693));
#144=EDGE_LOOP('',(#694,#695,#696,#697));
#145=EDGE_LOOP('',(#698,#699,#700,#701));
#146=EDGE_LOOP('',(#702,#703,#704,#705));
#147=EDGE_LOOP('',(#706,#707,#708,#709,#710,#711,#712,#713,#714,#715,#716,
#717));
#148=EDGE_LOOP('',(#718,#719,#720,#721));
#149=EDGE_LOOP('',(#722,#723,#724,#725));
#150=EDGE_LOOP('',(#726,#727,#728,#729));
#151=EDGE_LOOP('',(#730,#731,#732,#733,#734,#735));
#152=EDGE_LOOP('',(#736,#737,#738,#739,#740,#741));
#153=EDGE_LOOP('',(#742,#743,#744,#745));
#154=EDGE_LOOP('',(#746,#747,#748,#749,#750,#751));
#155=EDGE_LOOP('',(#752,#753,#754,#755));
#156=EDGE_LOOP('',(#756,#757,#758,#759,#760,#761));
#157=EDGE_LOOP('',(#762,#763,#764,#765));
#158=EDGE_LOOP('',(#766,#767,#768,#769,#770,#771,#772,#773,#774,#775,#776));
#159=EDGE_LOOP('',(#777,#778,#779,#780));
#160=EDGE_LOOP('',(#781,#782,#783,#784));
#161=EDGE_LOOP('',(#785,#786,#787,#788,#789,#790,#791,#792,#793));
#162=EDGE_LOOP('',(#794,#795,#796,#797));
#163=EDGE_LOOP('',(#798,#799,#800,#801));
#164=EDGE_LOOP('',(#802,#803,#804,#805));
#165=EDGE_LOOP('',(#806,#807,#808,#809));
#166=EDGE_LOOP('',(#810,#811,#812,#813));
#167=EDGE_LOOP('',(#814,#815,#816,#817));
#168=EDGE_LOOP('',(#818,#819,#820,#821));
#169=EDGE_LOOP('',(#822,#823,#824,#825));
#170=EDGE_LOOP('',(#826,#827,#828,#829));
#171=EDGE_LOOP('',(#830,#831,#832,#833));
#172=EDGE_LOOP('',(#834,#835,#836,#837,#838));
#173=EDGE_LOOP('',(#839,#840,#841,#842,#843));
#174=EDGE_LOOP('',(#844,#845,#846,#847,#848,#849,#850,#851,#852,#853,#854));
#175=EDGE_LOOP('',(#855,#856,#857,#858,#859,#860));
#176=EDGE_LOOP('',(#861));
#177=EDGE_LOOP('',(#862));
#178=EDGE_LOOP('',(#863));
#179=EDGE_LOOP('',(#864));
#180=EDGE_LOOP('',(#865,#866,#867,#868,#869,#870,#871,#872,#873));
#181=EDGE_LOOP('',(#874,#875,#876,#877,#878,#879,#880,#881));
#182=EDGE_LOOP('',(#882,#883,#884,#885));
#183=EDGE_LOOP('',(#886));
#184=EDGE_LOOP('',(#887,#888,#889,#890,#891,#892,#893,#894,#895,#896));
#185=EDGE_LOOP('',(#897));
#186=EDGE_LOOP('',(#898));
#187=EDGE_LOOP('',(#899));
#188=EDGE_LOOP('',(#900));
#189=LINE('',#1285,#304);
#190=LINE('',#1292,#305);
#191=LINE('',#1297,#306);
#192=LINE('',#1301,#307);
#193=LINE('',#1303,#308);
#194=LINE('',#1305,#309);
#195=LINE('',#1307,#310);
#196=LINE('',#1309,#311);
#197=LINE('',#1311,#312);
#198=LINE('',#1313,#313);
#199=LINE('',#1314,#314);
#200=LINE('',#1317,#315);
#201=LINE('',#1319,#316);
#202=LINE('',#1321,#317);
#203=LINE('',#1323,#318);
#204=LINE('',#1325,#319);
#205=LINE('',#1327,#320);
#206=LINE('',#1329,#321);
#207=LINE('',#1331,#322);
#208=LINE('',#1332,#323);
#209=LINE('',#1336,#324);
#210=LINE('',#1338,#325);
#211=LINE('',#1340,#326);
#212=LINE('',#1341,#327);
#213=LINE('',#1345,#328);
#214=LINE('',#1347,#329);
#215=LINE('',#1349,#330);
#216=LINE('',#1350,#331);
#217=LINE('',#1352,#332);
#218=LINE('',#1353,#333);
#219=LINE('',#1357,#334);
#220=LINE('',#1359,#335);
#221=LINE('',#1361,#336);
#222=LINE('',#1362,#337);
#223=LINE('',#1365,#338);
#224=LINE('',#1367,#339);
#225=LINE('',#1368,#340);
#226=LINE('',#1370,#341);
#227=LINE('',#1371,#342);
#228=LINE('',#1374,#343);
#229=LINE('',#1376,#344);
#230=LINE('',#1377,#345);
#231=LINE('',#1380,#346);
#232=LINE('',#1382,#347);
#233=LINE('',#1384,#348);
#234=LINE('',#1386,#349);
#235=LINE('',#1387,#350);
#236=LINE('',#1390,#351);
#237=LINE('',#1392,#352);
#238=LINE('',#1393,#353);
#239=LINE('',#1396,#354);
#240=LINE('',#1398,#355);
#241=LINE('',#1399,#356);
#242=LINE('',#1401,#357);
#243=LINE('',#1404,#358);
#244=LINE('',#1406,#359);
#245=LINE('',#1407,#360);
#246=LINE('',#1409,#361);
#247=LINE('',#1411,#362);
#248=LINE('',#1413,#363);
#249=LINE('',#1415,#364);
#250=LINE('',#1416,#365);
#251=LINE('',#1419,#366);
#252=LINE('',#1421,#367);
#253=LINE('',#1422,#368);
#254=LINE('',#1425,#369);
#255=LINE('',#1427,#370);
#256=LINE('',#1429,#371);
#257=LINE('',#1430,#372);
#258=LINE('',#1434,#373);
#259=LINE('',#1435,#374);
#260=LINE('',#1436,#375);
#261=LINE('',#1439,#376);
#262=LINE('',#1441,#377);
#263=LINE('',#1443,#378);
#264=LINE('',#1444,#379);
#265=LINE('',#1448,#380);
#266=LINE('',#1450,#381);
#267=LINE('',#1452,#382);
#268=LINE('',#1453,#383);
#269=LINE('',#1455,#384);
#270=LINE('',#1456,#385);
#271=LINE('',#1458,#386);
#272=LINE('',#1459,#387);
#273=LINE('',#1461,#388);
#274=LINE('',#1465,#389);
#275=LINE('',#1467,#390);
#276=LINE('',#1469,#391);
#277=LINE('',#1470,#392);
#278=LINE('',#1472,#393);
#279=LINE('',#1473,#394);
#280=LINE('',#1475,#395);
#281=LINE('',#1477,#396);
#282=LINE('',#1478,#397);
#283=LINE('',#1480,#398);
#284=LINE('',#1483,#399);
#285=LINE('',#1484,#400);
#286=LINE('',#1487,#401);
#287=LINE('',#1488,#402);
#288=LINE('',#1491,#403);
#289=LINE('',#1492,#404);
#290=LINE('',#1497,#405);
#291=LINE('',#1503,#406);
#292=LINE('',#1509,#407);
#293=LINE('',#1515,#408);
#294=LINE('',#1518,#409);
#295=LINE('',#1520,#410);
#296=LINE('',#1522,#411);
#297=LINE('',#1526,#412);
#298=LINE('',#1527,#413);
#299=LINE('',#1528,#414);
#300=LINE('',#1531,#415);
#301=LINE('',#1532,#416);
#302=LINE('',#1534,#417);
#303=LINE('',#1536,#418);
#304=VECTOR('',#1041,2.925);
#305=VECTOR('',#1050,2.5);
#306=VECTOR('',#1057,3.39);
#307=VECTOR('',#1060,10.);
#308=VECTOR('',#1061,10.);
#309=VECTOR('',#1062,10.);
#310=VECTOR('',#1063,10.);
#311=VECTOR('',#1064,10.);
#312=VECTOR('',#1065,10.);
#313=VECTOR('',#1066,10.);
#314=VECTOR('',#1067,10.);
#315=VECTOR('',#1070,10.);
#316=VECTOR('',#1071,10.);
#317=VECTOR('',#1072,10.);
#318=VECTOR('',#1073,10.);
#319=VECTOR('',#1074,10.);
#320=VECTOR('',#1075,10.);
#321=VECTOR('',#1076,10.);
#322=VECTOR('',#1077,10.);
#323=VECTOR('',#1078,10.);
#324=VECTOR('',#1081,10.);
#325=VECTOR('',#1082,10.);
#326=VECTOR('',#1083,10.);
#327=VECTOR('',#1084,10.);
#328=VECTOR('',#1087,10.);
#329=VECTOR('',#1088,10.);
#330=VECTOR('',#1089,10.);
#331=VECTOR('',#1090,10.);
#332=VECTOR('',#1093,10.);
#333=VECTOR('',#1094,10.);
#334=VECTOR('',#1097,10.);
#335=VECTOR('',#1098,10.);
#336=VECTOR('',#1099,10.);
#337=VECTOR('',#1100,10.);
#338=VECTOR('',#1103,10.);
#339=VECTOR('',#1104,10.);
#340=VECTOR('',#1105,10.);
#341=VECTOR('',#1108,10.);
#342=VECTOR('',#1109,10.);
#343=VECTOR('',#1112,10.);
#344=VECTOR('',#1113,10.);
#345=VECTOR('',#1114,10.);
#346=VECTOR('',#1117,10.);
#347=VECTOR('',#1118,10.);
#348=VECTOR('',#1119,10.);
#349=VECTOR('',#1120,10.);
#350=VECTOR('',#1121,10.);
#351=VECTOR('',#1124,10.);
#352=VECTOR('',#1125,10.);
#353=VECTOR('',#1126,10.);
#354=VECTOR('',#1129,10.);
#355=VECTOR('',#1130,10.);
#356=VECTOR('',#1131,10.);
#357=VECTOR('',#1134,10.);
#358=VECTOR('',#1137,10.);
#359=VECTOR('',#1138,10.);
#360=VECTOR('',#1139,10.);
#361=VECTOR('',#1140,10.);
#362=VECTOR('',#1141,10.);
#363=VECTOR('',#1142,10.);
#364=VECTOR('',#1143,10.);
#365=VECTOR('',#1144,10.);
#366=VECTOR('',#1147,10.);
#367=VECTOR('',#1148,10.);
#368=VECTOR('',#1149,10.);
#369=VECTOR('',#1152,10.);
#370=VECTOR('',#1153,10.);
#371=VECTOR('',#1154,10.);
#372=VECTOR('',#1155,10.);
#373=VECTOR('',#1158,10.);
#374=VECTOR('',#1159,10.);
#375=VECTOR('',#1160,10.);
#376=VECTOR('',#1163,10.);
#377=VECTOR('',#1164,10.);
#378=VECTOR('',#1165,10.);
#379=VECTOR('',#1166,10.);
#380=VECTOR('',#1169,10.);
#381=VECTOR('',#1170,10.);
#382=VECTOR('',#1171,10.);
#383=VECTOR('',#1172,10.);
#384=VECTOR('',#1175,10.);
#385=VECTOR('',#1176,10.);
#386=VECTOR('',#1177,10.);
#387=VECTOR('',#1178,10.);
#388=VECTOR('',#1181,10.);
#389=VECTOR('',#1184,10.);
#390=VECTOR('',#1185,10.);
#391=VECTOR('',#1186,10.);
#392=VECTOR('',#1187,10.);
#393=VECTOR('',#1190,10.);
#394=VECTOR('',#1191,10.);
#395=VECTOR('',#1192,10.);
#396=VECTOR('',#1193,10.);
#397=VECTOR('',#1194,10.);
#398=VECTOR('',#1197,10.);
#399=VECTOR('',#1200,10.);
#400=VECTOR('',#1201,10.);
#401=VECTOR('',#1204,10.);
#402=VECTOR('',#1205,10.);
#403=VECTOR('',#1208,10.);
#404=VECTOR('',#1209,10.);
#405=VECTOR('',#1214,2.4);
#406=VECTOR('',#1221,2.4);
#407=VECTOR('',#1228,2.4);
#408=VECTOR('',#1235,2.4);
#409=VECTOR('',#1240,10.);
#410=VECTOR('',#1243,10.);
#411=VECTOR('',#1246,10.);
#412=VECTOR('',#1251,10.);
#413=VECTOR('',#1252,10.);
#414=VECTOR('',#1253,10.);
#415=VECTOR('',#1256,10.);
#416=VECTOR('',#1257,10.);
#417=VECTOR('',#1260,10.);
#418=VECTOR('',#1263,10.);
#419=CIRCLE('',#966,2.5);
#420=CIRCLE('',#967,3.35000000000001);
#421=CIRCLE('',#969,3.39);
#422=CIRCLE('',#971,2.5);
#423=CIRCLE('',#973,3.39);
#424=CIRCLE('',#1002,2.4);
#425=CIRCLE('',#1003,2.4);
#426=CIRCLE('',#1005,2.4);
#427=CIRCLE('',#1006,2.4);
#428=CIRCLE('',#1008,2.4);
#429=CIRCLE('',#1009,2.4);
#430=CIRCLE('',#1011,2.4);
#431=CIRCLE('',#1012,2.4);
#432=VERTEX_POINT('',#1282);
#433=VERTEX_POINT('',#1284);
#434=VERTEX_POINT('',#1288);
#435=VERTEX_POINT('',#1291);
#436=VERTEX_POINT('',#1295);
#437=VERTEX_POINT('',#1299);
#438=VERTEX_POINT('',#1300);
#439=VERTEX_POINT('',#1302);
#440=VERTEX_POINT('',#1304);
#441=VERTEX_POINT('',#1306);
#442=VERTEX_POINT('',#1308);
#443=VERTEX_POINT('',#1310);
#444=VERTEX_POINT('',#1312);
#445=VERTEX_POINT('',#1316);
#446=VERTEX_POINT('',#1318);
#447=VERTEX_POINT('',#1320);
#448=VERTEX_POINT('',#1322);
#449=VERTEX_POINT('',#1324);
#450=VERTEX_POINT('',#1326);
#451=VERTEX_POINT('',#1328);
#452=VERTEX_POINT('',#1330);
#453=VERTEX_POINT('',#1334);
#454=VERTEX_POINT('',#1335);
#455=VERTEX_POINT('',#1337);
#456=VERTEX_POINT('',#1339);
#457=VERTEX_POINT('',#1343);
#458=VERTEX_POINT('',#1344);
#459=VERTEX_POINT('',#1346);
#460=VERTEX_POINT('',#1348);
#461=VERTEX_POINT('',#1355);
#462=VERTEX_POINT('',#1356);
#463=VERTEX_POINT('',#1358);
#464=VERTEX_POINT('',#1360);
#465=VERTEX_POINT('',#1364);
#466=VERTEX_POINT('',#1366);
#467=VERTEX_POINT('',#1373);
#468=VERTEX_POINT('',#1375);
#469=VERTEX_POINT('',#1379);
#470=VERTEX_POINT('',#1381);
#471=VERTEX_POINT('',#1383);
#472=VERTEX_POINT('',#1385);
#473=VERTEX_POINT('',#1389);
#474=VERTEX_POINT('',#1391);
#475=VERTEX_POINT('',#1395);
#476=VERTEX_POINT('',#1397);
#477=VERTEX_POINT('',#1403);
#478=VERTEX_POINT('',#1405);
#479=VERTEX_POINT('',#1408);
#480=VERTEX_POINT('',#1410);
#481=VERTEX_POINT('',#1412);
#482=VERTEX_POINT('',#1414);
#483=VERTEX_POINT('',#1418);
#484=VERTEX_POINT('',#1420);
#485=VERTEX_POINT('',#1424);
#486=VERTEX_POINT('',#1426);
#487=VERTEX_POINT('',#1428);
#488=VERTEX_POINT('',#1432);
#489=VERTEX_POINT('',#1433);
#490=VERTEX_POINT('',#1438);
#491=VERTEX_POINT('',#1440);
#492=VERTEX_POINT('',#1442);
#493=VERTEX_POINT('',#1446);
#494=VERTEX_POINT('',#1447);
#495=VERTEX_POINT('',#1449);
#496=VERTEX_POINT('',#1451);
#497=VERTEX_POINT('',#1457);
#498=VERTEX_POINT('',#1463);
#499=VERTEX_POINT('',#1464);
#500=VERTEX_POINT('',#1466);
#501=VERTEX_POINT('',#1468);
#502=VERTEX_POINT('',#1474);
#503=VERTEX_POINT('',#1476);
#504=VERTEX_POINT('',#1482);
#505=VERTEX_POINT('',#1486);
#506=VERTEX_POINT('',#1490);
#507=VERTEX_POINT('',#1494);
#508=VERTEX_POINT('',#1496);
#509=VERTEX_POINT('',#1500);
#510=VERTEX_POINT('',#1502);
#511=VERTEX_POINT('',#1506);
#512=VERTEX_POINT('',#1508);
#513=VERTEX_POINT('',#1512);
#514=VERTEX_POINT('',#1514);
#515=VERTEX_POINT('',#1525);
#516=VERTEX_POINT('',#1530);
#517=EDGE_CURVE('',#432,#432,#419,.T.);
#518=EDGE_CURVE('',#432,#433,#189,.T.);
#519=EDGE_CURVE('',#433,#433,#420,.T.);
#520=EDGE_CURVE('',#434,#434,#421,.T.);
#521=EDGE_CURVE('',#432,#435,#190,.T.);
#522=EDGE_CURVE('',#435,#435,#422,.T.);
#523=EDGE_CURVE('',#436,#436,#423,.T.);
#524=EDGE_CURVE('',#436,#434,#191,.T.);
#525=EDGE_CURVE('',#437,#438,#192,.T.);
#526=EDGE_CURVE('',#439,#437,#193,.T.);
#527=EDGE_CURVE('',#440,#439,#194,.T.);
#528=EDGE_CURVE('',#441,#440,#195,.T.);
#529=EDGE_CURVE('',#442,#441,#196,.T.);
#530=EDGE_CURVE('',#443,#442,#197,.T.);
#531=EDGE_CURVE('',#444,#443,#198,.T.);
#532=EDGE_CURVE('',#438,#444,#199,.T.);
#533=EDGE_CURVE('',#445,#444,#200,.T.);
#534=EDGE_CURVE('',#443,#446,#201,.T.);
#535=EDGE_CURVE('',#447,#446,#202,.T.);
#536=EDGE_CURVE('',#447,#448,#203,.T.);
#537=EDGE_CURVE('',#448,#449,#204,.T.);
#538=EDGE_CURVE('',#450,#449,#205,.T.);
#539=EDGE_CURVE('',#451,#450,#206,.T.);
#540=EDGE_CURVE('',#451,#452,#207,.T.);
#541=EDGE_CURVE('',#445,#452,#208,.T.);
#542=EDGE_CURVE('',#453,#454,#209,.T.);
#543=EDGE_CURVE('',#455,#454,#210,.T.);
#544=EDGE_CURVE('',#456,#455,#211,.T.);
#545=EDGE_CURVE('',#456,#453,#212,.F.);
#546=EDGE_CURVE('',#457,#458,#213,.T.);
#547=EDGE_CURVE('',#457,#459,#214,.T.);
#548=EDGE_CURVE('',#459,#460,#215,.F.);
#549=EDGE_CURVE('',#458,#460,#216,.F.);
#550=EDGE_CURVE('',#454,#457,#217,.T.);
#551=EDGE_CURVE('',#453,#459,#218,.F.);
#552=EDGE_CURVE('',#461,#462,#219,.T.);
#553=EDGE_CURVE('',#461,#463,#220,.T.);
#554=EDGE_CURVE('',#464,#463,#221,.T.);
#555=EDGE_CURVE('',#462,#464,#222,.T.);
#556=EDGE_CURVE('',#465,#461,#223,.T.);
#557=EDGE_CURVE('',#465,#466,#224,.T.);
#558=EDGE_CURVE('',#466,#463,#225,.F.);
#559=EDGE_CURVE('',#458,#465,#226,.T.);
#560=EDGE_CURVE('',#460,#466,#227,.F.);
#561=EDGE_CURVE('',#464,#467,#228,.F.);
#562=EDGE_CURVE('',#468,#467,#229,.T.);
#563=EDGE_CURVE('',#462,#468,#230,.T.);
#564=EDGE_CURVE('',#469,#456,#231,.T.);
#565=EDGE_CURVE('',#470,#469,#232,.T.);
#566=EDGE_CURVE('',#471,#470,#233,.T.);
#567=EDGE_CURVE('',#472,#471,#234,.T.);
#568=EDGE_CURVE('',#467,#472,#235,.T.);
#569=EDGE_CURVE('',#471,#473,#236,.T.);
#570=EDGE_CURVE('',#474,#473,#237,.T.);
#571=EDGE_CURVE('',#472,#474,#238,.T.);
#572=EDGE_CURVE('',#469,#475,#239,.T.);
#573=EDGE_CURVE('',#476,#475,#240,.T.);
#574=EDGE_CURVE('',#470,#476,#241,.T.);
#575=EDGE_CURVE('',#473,#476,#242,.T.);
#576=EDGE_CURVE('',#475,#477,#243,.T.);
#577=EDGE_CURVE('',#477,#478,#244,.T.);
#578=EDGE_CURVE('',#478,#474,#245,.T.);
#579=EDGE_CURVE('',#439,#479,#246,.T.);
#580=EDGE_CURVE('',#479,#480,#247,.T.);
#581=EDGE_CURVE('',#480,#481,#248,.T.);
#582=EDGE_CURVE('',#481,#482,#249,.T.);
#583=EDGE_CURVE('',#482,#440,#250,.T.);
#584=EDGE_CURVE('',#452,#483,#251,.T.);
#585=EDGE_CURVE('',#483,#484,#252,.T.);
#586=EDGE_CURVE('',#484,#445,#253,.T.);
#587=EDGE_CURVE('',#485,#451,#254,.T.);
#588=EDGE_CURVE('',#486,#485,#255,.T.);
#589=EDGE_CURVE('',#487,#486,#256,.T.);
#590=EDGE_CURVE('',#483,#487,#257,.T.);
#591=EDGE_CURVE('',#488,#489,#258,.T.);
#592=EDGE_CURVE('',#489,#447,#259,.T.);
#593=EDGE_CURVE('',#446,#488,#260,.T.);
#594=EDGE_CURVE('',#490,#489,#261,.T.);
#595=EDGE_CURVE('',#491,#490,#262,.T.);
#596=EDGE_CURVE('',#492,#491,#263,.T.);
#597=EDGE_CURVE('',#448,#492,#264,.T.);
#598=EDGE_CURVE('',#493,#494,#265,.T.);
#599=EDGE_CURVE('',#494,#495,#266,.T.);
#600=EDGE_CURVE('',#495,#496,#267,.T.);
#601=EDGE_CURVE('',#496,#493,#268,.T.);
#602=EDGE_CURVE('',#493,#485,#269,.T.);
#603=EDGE_CURVE('',#477,#450,#270,.T.);
#604=EDGE_CURVE('',#497,#455,#271,.T.);
#605=EDGE_CURVE('',#494,#497,#272,.T.);
#606=EDGE_CURVE('',#486,#496,#273,.T.);
#607=EDGE_CURVE('',#498,#499,#274,.T.);
#608=EDGE_CURVE('',#499,#500,#275,.T.);
#609=EDGE_CURVE('',#500,#501,#276,.T.);
#610=EDGE_CURVE('',#501,#498,#277,.T.);
#611=EDGE_CURVE('',#500,#491,#278,.T.);
#612=EDGE_CURVE('',#490,#441,#279,.T.);
#613=EDGE_CURVE('',#482,#502,#280,.T.);
#614=EDGE_CURVE('',#503,#502,#281,.T.);
#615=EDGE_CURVE('',#501,#503,#282,.T.);
#616=EDGE_CURVE('',#492,#499,#283,.T.);
#617=EDGE_CURVE('',#502,#504,#284,.T.);
#618=EDGE_CURVE('',#481,#504,#285,.T.);
#619=EDGE_CURVE('',#504,#505,#286,.T.);
#620=EDGE_CURVE('',#480,#505,#287,.T.);
#621=EDGE_CURVE('',#505,#506,#288,.T.);
#622=EDGE_CURVE('',#479,#506,#289,.T.);
#623=EDGE_CURVE('',#507,#507,#424,.T.);
#624=EDGE_CURVE('',#507,#508,#290,.T.);
#625=EDGE_CURVE('',#508,#508,#425,.T.);
#626=EDGE_CURVE('',#509,#509,#426,.T.);
#627=EDGE_CURVE('',#509,#510,#291,.T.);
#628=EDGE_CURVE('',#510,#510,#427,.T.);
#629=EDGE_CURVE('',#511,#511,#428,.T.);
#630=EDGE_CURVE('',#511,#512,#292,.T.);
#631=EDGE_CURVE('',#512,#512,#429,.T.);
#632=EDGE_CURVE('',#513,#513,#430,.T.);
#633=EDGE_CURVE('',#513,#514,#293,.T.);
#634=EDGE_CURVE('',#514,#514,#431,.T.);
#635=EDGE_CURVE('',#488,#442,#294,.T.);
#636=EDGE_CURVE('',#438,#484,#295,.T.);
#637=EDGE_CURVE('',#487,#437,#296,.F.);
#638=EDGE_CURVE('',#515,#498,#297,.T.);
#639=EDGE_CURVE('',#515,#468,#298,.T.);
#640=EDGE_CURVE('',#449,#478,#299,.T.);
#641=EDGE_CURVE('',#516,#506,#300,.T.);
#642=EDGE_CURVE('',#503,#516,#301,.T.);
#643=EDGE_CURVE('',#516,#495,#302,.T.);
#644=EDGE_CURVE('',#497,#515,#303,.T.);
#645=ORIENTED_EDGE('',*,*,#517,.T.);
#646=ORIENTED_EDGE('',*,*,#518,.T.);
#647=ORIENTED_EDGE('',*,*,#519,.T.);
#648=ORIENTED_EDGE('',*,*,#518,.F.);
#649=ORIENTED_EDGE('',*,*,#520,.F.);
#650=ORIENTED_EDGE('',*,*,#519,.F.);
#651=ORIENTED_EDGE('',*,*,#517,.F.);
#652=ORIENTED_EDGE('',*,*,#521,.T.);
#653=ORIENTED_EDGE('',*,*,#522,.F.);
#654=ORIENTED_EDGE('',*,*,#521,.F.);
#655=ORIENTED_EDGE('',*,*,#523,.F.);
#656=ORIENTED_EDGE('',*,*,#524,.T.);
#657=ORIENTED_EDGE('',*,*,#520,.T.);
#658=ORIENTED_EDGE('',*,*,#524,.F.);
#659=ORIENTED_EDGE('',*,*,#525,.F.);
#660=ORIENTED_EDGE('',*,*,#526,.F.);
#661=ORIENTED_EDGE('',*,*,#527,.F.);
#662=ORIENTED_EDGE('',*,*,#528,.F.);
#663=ORIENTED_EDGE('',*,*,#529,.F.);
#664=ORIENTED_EDGE('',*,*,#530,.F.);
#665=ORIENTED_EDGE('',*,*,#531,.F.);
#666=ORIENTED_EDGE('',*,*,#532,.F.);
#667=ORIENTED_EDGE('',*,*,#523,.T.);
#668=ORIENTED_EDGE('',*,*,#533,.T.);
#669=ORIENTED_EDGE('',*,*,#531,.T.);
#670=ORIENTED_EDGE('',*,*,#534,.T.);
#671=ORIENTED_EDGE('',*,*,#535,.F.);
#672=ORIENTED_EDGE('',*,*,#536,.T.);
#673=ORIENTED_EDGE('',*,*,#537,.T.);
#674=ORIENTED_EDGE('',*,*,#538,.F.);
#675=ORIENTED_EDGE('',*,*,#539,.F.);
#676=ORIENTED_EDGE('',*,*,#540,.T.);
#677=ORIENTED_EDGE('',*,*,#541,.F.);
#678=ORIENTED_EDGE('',*,*,#542,.T.);
#679=ORIENTED_EDGE('',*,*,#543,.F.);
#680=ORIENTED_EDGE('',*,*,#544,.F.);
#681=ORIENTED_EDGE('',*,*,#545,.T.);
#682=ORIENTED_EDGE('',*,*,#546,.F.);
#683=ORIENTED_EDGE('',*,*,#547,.T.);
#684=ORIENTED_EDGE('',*,*,#548,.T.);
#685=ORIENTED_EDGE('',*,*,#549,.F.);
#686=ORIENTED_EDGE('',*,*,#550,.F.);
#687=ORIENTED_EDGE('',*,*,#542,.F.);
#688=ORIENTED_EDGE('',*,*,#551,.T.);
#689=ORIENTED_EDGE('',*,*,#547,.F.);
#690=ORIENTED_EDGE('',*,*,#552,.F.);
#691=ORIENTED_EDGE('',*,*,#553,.T.);
#692=ORIENTED_EDGE('',*,*,#554,.F.);
#693=ORIENTED_EDGE('',*,*,#555,.F.);
#694=ORIENTED_EDGE('',*,*,#556,.F.);
#695=ORIENTED_EDGE('',*,*,#557,.T.);
#696=ORIENTED_EDGE('',*,*,#558,.T.);
#697=ORIENTED_EDGE('',*,*,#553,.F.);
#698=ORIENTED_EDGE('',*,*,#559,.F.);
#699=ORIENTED_EDGE('',*,*,#549,.T.);
#700=ORIENTED_EDGE('',*,*,#560,.T.);
#701=ORIENTED_EDGE('',*,*,#557,.F.);
#702=ORIENTED_EDGE('',*,*,#555,.T.);
#703=ORIENTED_EDGE('',*,*,#561,.T.);
#704=ORIENTED_EDGE('',*,*,#562,.F.);
#705=ORIENTED_EDGE('',*,*,#563,.F.);
#706=ORIENTED_EDGE('',*,*,#554,.T.);
#707=ORIENTED_EDGE('',*,*,#558,.F.);
#708=ORIENTED_EDGE('',*,*,#560,.F.);
#709=ORIENTED_EDGE('',*,*,#548,.F.);
#710=ORIENTED_EDGE('',*,*,#551,.F.);
#711=ORIENTED_EDGE('',*,*,#545,.F.);
#712=ORIENTED_EDGE('',*,*,#564,.F.);
#713=ORIENTED_EDGE('',*,*,#565,.F.);
#714=ORIENTED_EDGE('',*,*,#566,.F.);
#715=ORIENTED_EDGE('',*,*,#567,.F.);
#716=ORIENTED_EDGE('',*,*,#568,.F.);
#717=ORIENTED_EDGE('',*,*,#561,.F.);
#718=ORIENTED_EDGE('',*,*,#567,.T.);
#719=ORIENTED_EDGE('',*,*,#569,.T.);
#720=ORIENTED_EDGE('',*,*,#570,.F.);
#721=ORIENTED_EDGE('',*,*,#571,.F.);
#722=ORIENTED_EDGE('',*,*,#565,.T.);
#723=ORIENTED_EDGE('',*,*,#572,.T.);
#724=ORIENTED_EDGE('',*,*,#573,.F.);
#725=ORIENTED_EDGE('',*,*,#574,.F.);
#726=ORIENTED_EDGE('',*,*,#566,.T.);
#727=ORIENTED_EDGE('',*,*,#574,.T.);
#728=ORIENTED_EDGE('',*,*,#575,.F.);
#729=ORIENTED_EDGE('',*,*,#569,.F.);
#730=ORIENTED_EDGE('',*,*,#570,.T.);
#731=ORIENTED_EDGE('',*,*,#575,.T.);
#732=ORIENTED_EDGE('',*,*,#573,.T.);
#733=ORIENTED_EDGE('',*,*,#576,.T.);
#734=ORIENTED_EDGE('',*,*,#577,.T.);
#735=ORIENTED_EDGE('',*,*,#578,.T.);
#736=ORIENTED_EDGE('',*,*,#579,.T.);
#737=ORIENTED_EDGE('',*,*,#580,.T.);
#738=ORIENTED_EDGE('',*,*,#581,.T.);
#739=ORIENTED_EDGE('',*,*,#582,.T.);
#740=ORIENTED_EDGE('',*,*,#583,.T.);
#741=ORIENTED_EDGE('',*,*,#527,.T.);
#742=ORIENTED_EDGE('',*,*,#541,.T.);
#743=ORIENTED_EDGE('',*,*,#584,.T.);
#744=ORIENTED_EDGE('',*,*,#585,.T.);
#745=ORIENTED_EDGE('',*,*,#586,.T.);
#746=ORIENTED_EDGE('',*,*,#584,.F.);
#747=ORIENTED_EDGE('',*,*,#540,.F.);
#748=ORIENTED_EDGE('',*,*,#587,.F.);
#749=ORIENTED_EDGE('',*,*,#588,.F.);
#750=ORIENTED_EDGE('',*,*,#589,.F.);
#751=ORIENTED_EDGE('',*,*,#590,.F.);
#752=ORIENTED_EDGE('',*,*,#591,.T.);
#753=ORIENTED_EDGE('',*,*,#592,.T.);
#754=ORIENTED_EDGE('',*,*,#535,.T.);
#755=ORIENTED_EDGE('',*,*,#593,.T.);
#756=ORIENTED_EDGE('',*,*,#592,.F.);
#757=ORIENTED_EDGE('',*,*,#594,.F.);
#758=ORIENTED_EDGE('',*,*,#595,.F.);
#759=ORIENTED_EDGE('',*,*,#596,.F.);
#760=ORIENTED_EDGE('',*,*,#597,.F.);
#761=ORIENTED_EDGE('',*,*,#536,.F.);
#762=ORIENTED_EDGE('',*,*,#598,.T.);
#763=ORIENTED_EDGE('',*,*,#599,.T.);
#764=ORIENTED_EDGE('',*,*,#600,.T.);
#765=ORIENTED_EDGE('',*,*,#601,.T.);
#766=ORIENTED_EDGE('',*,*,#598,.F.);
#767=ORIENTED_EDGE('',*,*,#602,.T.);
#768=ORIENTED_EDGE('',*,*,#587,.T.);
#769=ORIENTED_EDGE('',*,*,#539,.T.);
#770=ORIENTED_EDGE('',*,*,#603,.F.);
#771=ORIENTED_EDGE('',*,*,#576,.F.);
#772=ORIENTED_EDGE('',*,*,#572,.F.);
#773=ORIENTED_EDGE('',*,*,#564,.T.);
#774=ORIENTED_EDGE('',*,*,#544,.T.);
#775=ORIENTED_EDGE('',*,*,#604,.F.);
#776=ORIENTED_EDGE('',*,*,#605,.F.);
#777=ORIENTED_EDGE('',*,*,#601,.F.);
#778=ORIENTED_EDGE('',*,*,#606,.F.);
#779=ORIENTED_EDGE('',*,*,#588,.T.);
#780=ORIENTED_EDGE('',*,*,#602,.F.);
#781=ORIENTED_EDGE('',*,*,#607,.T.);
#782=ORIENTED_EDGE('',*,*,#608,.T.);
#783=ORIENTED_EDGE('',*,*,#609,.T.);
#784=ORIENTED_EDGE('',*,*,#610,.T.);
#785=ORIENTED_EDGE('',*,*,#609,.F.);
#786=ORIENTED_EDGE('',*,*,#611,.T.);
#787=ORIENTED_EDGE('',*,*,#595,.T.);
#788=ORIENTED_EDGE('',*,*,#612,.T.);
#789=ORIENTED_EDGE('',*,*,#528,.T.);
#790=ORIENTED_EDGE('',*,*,#583,.F.);
#791=ORIENTED_EDGE('',*,*,#613,.T.);
#792=ORIENTED_EDGE('',*,*,#614,.F.);
#793=ORIENTED_EDGE('',*,*,#615,.F.);
#794=ORIENTED_EDGE('',*,*,#608,.F.);
#795=ORIENTED_EDGE('',*,*,#616,.F.);
#796=ORIENTED_EDGE('',*,*,#596,.T.);
#797=ORIENTED_EDGE('',*,*,#611,.F.);
#798=ORIENTED_EDGE('',*,*,#617,.F.);
#799=ORIENTED_EDGE('',*,*,#613,.F.);
#800=ORIENTED_EDGE('',*,*,#582,.F.);
#801=ORIENTED_EDGE('',*,*,#618,.T.);
#802=ORIENTED_EDGE('',*,*,#619,.F.);
#803=ORIENTED_EDGE('',*,*,#618,.F.);
#804=ORIENTED_EDGE('',*,*,#581,.F.);
#805=ORIENTED_EDGE('',*,*,#620,.T.);
#806=ORIENTED_EDGE('',*,*,#621,.F.);
#807=ORIENTED_EDGE('',*,*,#620,.F.);
#808=ORIENTED_EDGE('',*,*,#580,.F.);
#809=ORIENTED_EDGE('',*,*,#622,.T.);
#810=ORIENTED_EDGE('',*,*,#623,.F.);
#811=ORIENTED_EDGE('',*,*,#624,.T.);
#812=ORIENTED_EDGE('',*,*,#625,.F.);
#813=ORIENTED_EDGE('',*,*,#624,.F.);
#814=ORIENTED_EDGE('',*,*,#626,.F.);
#815=ORIENTED_EDGE('',*,*,#627,.T.);
#816=ORIENTED_EDGE('',*,*,#628,.F.);
#817=ORIENTED_EDGE('',*,*,#627,.F.);
#818=ORIENTED_EDGE('',*,*,#629,.F.);
#819=ORIENTED_EDGE('',*,*,#630,.T.);
#820=ORIENTED_EDGE('',*,*,#631,.F.);
#821=ORIENTED_EDGE('',*,*,#630,.F.);
#822=ORIENTED_EDGE('',*,*,#632,.F.);
#823=ORIENTED_EDGE('',*,*,#633,.T.);
#824=ORIENTED_EDGE('',*,*,#634,.F.);
#825=ORIENTED_EDGE('',*,*,#633,.F.);
#826=ORIENTED_EDGE('',*,*,#593,.F.);
#827=ORIENTED_EDGE('',*,*,#534,.F.);
#828=ORIENTED_EDGE('',*,*,#530,.T.);
#829=ORIENTED_EDGE('',*,*,#635,.F.);
#830=ORIENTED_EDGE('',*,*,#586,.F.);
#831=ORIENTED_EDGE('',*,*,#636,.F.);
#832=ORIENTED_EDGE('',*,*,#532,.T.);
#833=ORIENTED_EDGE('',*,*,#533,.F.);
#834=ORIENTED_EDGE('',*,*,#585,.F.);
#835=ORIENTED_EDGE('',*,*,#590,.T.);
#836=ORIENTED_EDGE('',*,*,#637,.T.);
#837=ORIENTED_EDGE('',*,*,#525,.T.);
#838=ORIENTED_EDGE('',*,*,#636,.T.);
#839=ORIENTED_EDGE('',*,*,#591,.F.);
#840=ORIENTED_EDGE('',*,*,#635,.T.);
#841=ORIENTED_EDGE('',*,*,#529,.T.);
#842=ORIENTED_EDGE('',*,*,#612,.F.);
#843=ORIENTED_EDGE('',*,*,#594,.T.);
#844=ORIENTED_EDGE('',*,*,#607,.F.);
#845=ORIENTED_EDGE('',*,*,#638,.F.);
#846=ORIENTED_EDGE('',*,*,#639,.T.);
#847=ORIENTED_EDGE('',*,*,#562,.T.);
#848=ORIENTED_EDGE('',*,*,#568,.T.);
#849=ORIENTED_EDGE('',*,*,#571,.T.);
#850=ORIENTED_EDGE('',*,*,#578,.F.);
#851=ORIENTED_EDGE('',*,*,#640,.F.);
#852=ORIENTED_EDGE('',*,*,#537,.F.);
#853=ORIENTED_EDGE('',*,*,#597,.T.);
#854=ORIENTED_EDGE('',*,*,#616,.T.);
#855=ORIENTED_EDGE('',*,*,#621,.T.);
#856=ORIENTED_EDGE('',*,*,#641,.F.);
#857=ORIENTED_EDGE('',*,*,#642,.F.);
#858=ORIENTED_EDGE('',*,*,#614,.T.);
#859=ORIENTED_EDGE('',*,*,#617,.T.);
#860=ORIENTED_EDGE('',*,*,#619,.T.);
#861=ORIENTED_EDGE('',*,*,#625,.T.);
#862=ORIENTED_EDGE('',*,*,#628,.T.);
#863=ORIENTED_EDGE('',*,*,#631,.T.);
#864=ORIENTED_EDGE('',*,*,#634,.T.);
#865=ORIENTED_EDGE('',*,*,#600,.F.);
#866=ORIENTED_EDGE('',*,*,#643,.F.);
#867=ORIENTED_EDGE('',*,*,#641,.T.);
#868=ORIENTED_EDGE('',*,*,#622,.F.);
#869=ORIENTED_EDGE('',*,*,#579,.F.);
#870=ORIENTED_EDGE('',*,*,#526,.T.);
#871=ORIENTED_EDGE('',*,*,#637,.F.);
#872=ORIENTED_EDGE('',*,*,#589,.T.);
#873=ORIENTED_EDGE('',*,*,#606,.T.);
#874=ORIENTED_EDGE('',*,*,#599,.F.);
#875=ORIENTED_EDGE('',*,*,#605,.T.);
#876=ORIENTED_EDGE('',*,*,#644,.T.);
#877=ORIENTED_EDGE('',*,*,#638,.T.);
#878=ORIENTED_EDGE('',*,*,#610,.F.);
#879=ORIENTED_EDGE('',*,*,#615,.T.);
#880=ORIENTED_EDGE('',*,*,#642,.T.);
#881=ORIENTED_EDGE('',*,*,#643,.T.);
#882=ORIENTED_EDGE('',*,*,#603,.T.);
#883=ORIENTED_EDGE('',*,*,#538,.T.);
#884=ORIENTED_EDGE('',*,*,#640,.T.);
#885=ORIENTED_EDGE('',*,*,#577,.F.);
#886=ORIENTED_EDGE('',*,*,#522,.T.);
#887=ORIENTED_EDGE('',*,*,#550,.T.);
#888=ORIENTED_EDGE('',*,*,#546,.T.);
#889=ORIENTED_EDGE('',*,*,#559,.T.);
#890=ORIENTED_EDGE('',*,*,#556,.T.);
#891=ORIENTED_EDGE('',*,*,#552,.T.);
#892=ORIENTED_EDGE('',*,*,#563,.T.);
#893=ORIENTED_EDGE('',*,*,#639,.F.);
#894=ORIENTED_EDGE('',*,*,#644,.F.);
#895=ORIENTED_EDGE('',*,*,#604,.T.);
#896=ORIENTED_EDGE('',*,*,#543,.T.);
#897=ORIENTED_EDGE('',*,*,#623,.T.);
#898=ORIENTED_EDGE('',*,*,#626,.T.);
#899=ORIENTED_EDGE('',*,*,#629,.T.);
#900=ORIENTED_EDGE('',*,*,#632,.T.);
#901=CONICAL_SURFACE('',#965,2.925,0.785398163397453);
#902=ADVANCED_FACE('',(#87),#901,.F.);
#903=ADVANCED_FACE('',(#88,#37),#49,.T.);
#904=ADVANCED_FACE('',(#89),#31,.F.);
#905=ADVANCED_FACE('',(#90),#32,.F.);
#906=ADVANCED_FACE('',(#91,#38),#50,.T.);
#907=ADVANCED_FACE('',(#92),#51,.F.);
#908=ADVANCED_FACE('',(#93),#52,.F.);
#909=ADVANCED_FACE('',(#94),#53,.F.);
#910=ADVANCED_FACE('',(#95),#54,.F.);
#911=ADVANCED_FACE('',(#96),#55,.F.);
#912=ADVANCED_FACE('',(#97),#56,.F.);
#913=ADVANCED_FACE('',(#98),#57,.F.);
#914=ADVANCED_FACE('',(#99),#58,.F.);
#915=ADVANCED_FACE('',(#100),#59,.F.);
#916=ADVANCED_FACE('',(#101),#60,.T.);
#917=ADVANCED_FACE('',(#102),#61,.T.);
#918=ADVANCED_FACE('',(#103),#62,.T.);
#919=ADVANCED_FACE('',(#104,#39),#63,.T.);
#920=ADVANCED_FACE('',(#105),#64,.T.);
#921=ADVANCED_FACE('',(#106),#65,.F.);
#922=ADVANCED_FACE('',(#107),#66,.T.);
#923=ADVANCED_FACE('',(#108),#67,.F.);
#924=ADVANCED_FACE('',(#109),#68,.T.);
#925=ADVANCED_FACE('',(#110),#69,.F.);
#926=ADVANCED_FACE('',(#111),#70,.F.);
#927=ADVANCED_FACE('',(#112),#71,.T.);
#928=ADVANCED_FACE('',(#113),#72,.T.);
#929=ADVANCED_FACE('',(#114),#73,.F.);
#930=ADVANCED_FACE('',(#115),#74,.F.);
#931=ADVANCED_FACE('',(#116),#75,.F.);
#932=ADVANCED_FACE('',(#117),#76,.F.);
#933=ADVANCED_FACE('',(#118),#33,.F.);
#934=ADVANCED_FACE('',(#119),#34,.F.);
#935=ADVANCED_FACE('',(#120),#35,.F.);
#936=ADVANCED_FACE('',(#121),#36,.F.);
#937=ADVANCED_FACE('',(#122),#77,.F.);
#938=ADVANCED_FACE('',(#123),#78,.F.);
#939=ADVANCED_FACE('',(#124),#79,.T.);
#940=ADVANCED_FACE('',(#125),#80,.T.);
#941=ADVANCED_FACE('',(#126),#81,.F.);
#942=ADVANCED_FACE('',(#127,#40,#41,#42,#43),#82,.T.);
#943=ADVANCED_FACE('',(#128),#83,.T.);
#944=ADVANCED_FACE('',(#129),#84,.T.);
#945=ADVANCED_FACE('',(#130,#44),#85,.F.);
#946=ADVANCED_FACE('',(#131,#45,#46,#47,#48),#86,.F.);
#947=CLOSED_SHELL('',(#902,#903,#904,#905,#906,#907,#908,#909,#910,#911,
#912,#913,#914,#915,#916,#917,#918,#919,#920,#921,#922,#923,#924,#925,#926,
#927,#928,#929,#930,#931,#932,#933,#934,#935,#936,#937,#938,#939,#940,#941,
#942,#943,#944,#945,#946));
#948=DERIVED_UNIT_ELEMENT(#950,1.);
#949=DERIVED_UNIT_ELEMENT(#1556,-3.);
#950=(
MASS_UNIT()
NAMED_UNIT(*)
SI_UNIT(.KILO.,.GRAM.)
);
#951=DERIVED_UNIT((#948,#949));
#952=MEASURE_REPRESENTATION_ITEM('density measure',
POSITIVE_RATIO_MEASURE(7850.),#951);
#953=PROPERTY_DEFINITION_REPRESENTATION(#958,#955);
#954=PROPERTY_DEFINITION_REPRESENTATION(#959,#956);
#955=REPRESENTATION('material name',(#957),#1553);
#956=REPRESENTATION('density',(#952),#1553);
#957=DESCRIPTIVE_REPRESENTATION_ITEM('Steel','Steel');
#958=PROPERTY_DEFINITION('material property','material name',#1583);
#959=PROPERTY_DEFINITION('material property','density of part',#1583);
#960=AXIS2_PLACEMENT_3D('',#1276,#1027,#1028);
#961=AXIS2_PLACEMENT_3D('',#1277,#1029,#1030);
#962=AXIS2_PLACEMENT_3D('',#1278,#1031,#1032);
#963=AXIS2_PLACEMENT_3D('',#1279,#1033,#1034);
#964=AXIS2_PLACEMENT_3D('',#1280,#1035,#1036);
#965=AXIS2_PLACEMENT_3D('',#1281,#1037,#1038);
#966=AXIS2_PLACEMENT_3D('',#1283,#1039,#1040);
#967=AXIS2_PLACEMENT_3D('',#1286,#1042,#1043);
#968=AXIS2_PLACEMENT_3D('',#1287,#1044,#1045);
#969=AXIS2_PLACEMENT_3D('',#1289,#1046,#1047);
#970=AXIS2_PLACEMENT_3D('',#1290,#1048,#1049);
#971=AXIS2_PLACEMENT_3D('',#1293,#1051,#1052);
#972=AXIS2_PLACEMENT_3D('',#1294,#1053,#1054);
#973=AXIS2_PLACEMENT_3D('',#1296,#1055,#1056);
#974=AXIS2_PLACEMENT_3D('',#1298,#1058,#1059);
#975=AXIS2_PLACEMENT_3D('',#1315,#1068,#1069);
#976=AXIS2_PLACEMENT_3D('',#1333,#1079,#1080);
#977=AXIS2_PLACEMENT_3D('',#1342,#1085,#1086);
#978=AXIS2_PLACEMENT_3D('',#1351,#1091,#1092);
#979=AXIS2_PLACEMENT_3D('',#1354,#1095,#1096);
#980=AXIS2_PLACEMENT_3D('',#1363,#1101,#1102);
#981=AXIS2_PLACEMENT_3D('',#1369,#1106,#1107);
#982=AXIS2_PLACEMENT_3D('',#1372,#1110,#1111);
#983=AXIS2_PLACEMENT_3D('',#1378,#1115,#1116);
#984=AXIS2_PLACEMENT_3D('',#1388,#1122,#1123);
#985=AXIS2_PLACEMENT_3D('',#1394,#1127,#1128);
#986=AXIS2_PLACEMENT_3D('',#1400,#1132,#1133);
#987=AXIS2_PLACEMENT_3D('',#1402,#1135,#1136);
#988=AXIS2_PLACEMENT_3D('',#1417,#1145,#1146);
#989=AXIS2_PLACEMENT_3D('',#1423,#1150,#1151);
#990=AXIS2_PLACEMENT_3D('',#1431,#1156,#1157);
#991=AXIS2_PLACEMENT_3D('',#1437,#1161,#1162);
#992=AXIS2_PLACEMENT_3D('',#1445,#1167,#1168);
#993=AXIS2_PLACEMENT_3D('',#1454,#1173,#1174);
#994=AXIS2_PLACEMENT_3D('',#1460,#1179,#1180);
#995=AXIS2_PLACEMENT_3D('',#1462,#1182,#1183);
#996=AXIS2_PLACEMENT_3D('',#1471,#1188,#1189);
#997=AXIS2_PLACEMENT_3D('',#1479,#1195,#1196);
#998=AXIS2_PLACEMENT_3D('',#1481,#1198,#1199);
#999=AXIS2_PLACEMENT_3D('',#1485,#1202,#1203);
#1000=AXIS2_PLACEMENT_3D('',#1489,#1206,#1207);
#1001=AXIS2_PLACEMENT_3D('',#1493,#1210,#1211);
#1002=AXIS2_PLACEMENT_3D('',#1495,#1212,#1213);
#1003=AXIS2_PLACEMENT_3D('',#1498,#1215,#1216);
#1004=AXIS2_PLACEMENT_3D('',#1499,#1217,#1218);
#1005=AXIS2_PLACEMENT_3D('',#1501,#1219,#1220);
#1006=AXIS2_PLACEMENT_3D('',#1504,#1222,#1223);
#1007=AXIS2_PLACEMENT_3D('',#1505,#1224,#1225);
#1008=AXIS2_PLACEMENT_3D('',#1507,#1226,#1227);
#1009=AXIS2_PLACEMENT_3D('',#1510,#1229,#1230);
#1010=AXIS2_PLACEMENT_3D('',#1511,#1231,#1232);
#1011=AXIS2_PLACEMENT_3D('',#1513,#1233,#1234);
#1012=AXIS2_PLACEMENT_3D('',#1516,#1236,#1237);
#1013=AXIS2_PLACEMENT_3D('',#1517,#1238,#1239);
#1014=AXIS2_PLACEMENT_3D('',#1519,#1241,#1242);
#1015=AXIS2_PLACEMENT_3D('',#1521,#1244,#1245);
#1016=AXIS2_PLACEMENT_3D('',#1523,#1247,#1248);
#1017=AXIS2_PLACEMENT_3D('',#1524,#1249,#1250);
#1018=AXIS2_PLACEMENT_3D('',#1529,#1254,#1255);
#1019=AXIS2_PLACEMENT_3D('',#1533,#1258,#1259);
#1020=AXIS2_PLACEMENT_3D('',#1535,#1261,#1262);
#1021=AXIS2_PLACEMENT_3D('',#1537,#1264,#1265);
#1022=AXIS2_PLACEMENT_3D('',#1538,#1266,#1267);
#1023=AXIS2_PLACEMENT_3D('',#1539,#1268,#1269);
#1024=AXIS2_PLACEMENT_3D('',#1540,#1270,#1271);
#1025=AXIS2_PLACEMENT_3D('',#1541,#1272,#1273);
#1026=AXIS2_PLACEMENT_3D('',#1542,#1274,#1275);
#1027=DIRECTION('axis',(0.,0.,1.));
#1028=DIRECTION('refdir',(1.,0.,0.));
#1029=DIRECTION('axis',(0.,0.,1.));
#1030=DIRECTION('refdir',(1.,0.,0.));
#1031=DIRECTION('axis',(0.,0.,1.));
#1032=DIRECTION('refdir',(1.,0.,0.));
#1033=DIRECTION('axis',(0.,0.,1.));
#1034=DIRECTION('refdir',(1.,0.,0.));
#1035=DIRECTION('axis',(0.,0.,1.));
#1036=DIRECTION('refdir',(1.,0.,0.));
#1037=DIRECTION('center_axis',(0.,0.,1.));
#1038=DIRECTION('ref_axis',(-1.,0.,0.));
#1039=DIRECTION('center_axis',(0.,0.,-1.));
#1040=DIRECTION('ref_axis',(-1.,0.,0.));
#1041=DIRECTION('',(0.707106781186551,-8.65956056235497E-17,0.707106781186544));
#1042=DIRECTION('center_axis',(0.,0.,1.));
#1043=DIRECTION('ref_axis',(-1.,0.,0.));
#1044=DIRECTION('center_axis',(0.,0.,1.));
#1045=DIRECTION('ref_axis',(-1.,0.,0.));
#1046=DIRECTION('center_axis',(0.,0.,-1.));
#1047=DIRECTION('ref_axis',(-1.,0.,0.));
#1048=DIRECTION('center_axis',(0.,0.,-1.));
#1049=DIRECTION('ref_axis',(-1.,0.,0.));
#1050=DIRECTION('',(0.,0.,-1.));
#1051=DIRECTION('center_axis',(0.,0.,1.));
#1052=DIRECTION('ref_axis',(-1.,0.,0.));
#1053=DIRECTION('center_axis',(0.,0.,-1.));
#1054=DIRECTION('ref_axis',(-1.,0.,0.));
#1055=DIRECTION('center_axis',(0.,0.,-1.));
#1056=DIRECTION('ref_axis',(-1.,0.,0.));
#1057=DIRECTION('',(0.,0.,-1.));
#1058=DIRECTION('center_axis',(0.,0.,1.));
#1059=DIRECTION('ref_axis',(-1.,0.,0.));
#1060=DIRECTION('',(0.,-1.,0.));
#1061=DIRECTION('',(1.,0.,0.));
#1062=DIRECTION('',(0.,1.,0.));
#1063=DIRECTION('',(-1.,0.,0.));
#1064=DIRECTION('',(0.,-1.,0.));
#1065=DIRECTION('',(-1.,0.,0.));
#1066=DIRECTION('',(0.,-1.,0.));
#1067=DIRECTION('',(1.,0.,0.));
#1068=DIRECTION('center_axis',(-1.,0.,0.));
#1069=DIRECTION('ref_axis',(0.,0.,1.));
#1070=DIRECTION('',(0.,0.,-1.));
#1071=DIRECTION('',(0.,0.,1.));
#1072=DIRECTION('',(0.,0.707106781186547,-0.707106781186548));
#1073=DIRECTION('',(0.,-1.,0.));
#1074=DIRECTION('',(0.,0.,-1.));
#1075=DIRECTION('',(0.,-1.,0.));
#1076=DIRECTION('',(0.,0.,-1.));
#1077=DIRECTION('',(0.,-1.,0.));
#1078=DIRECTION('',(0.,0.707106781186548,0.707106781186548));
#1079=DIRECTION('center_axis',(0.,0.,-1.));
#1080=DIRECTION('ref_axis',(0.,-1.,0.));
#1081=DIRECTION('',(1.,0.,0.));
#1082=DIRECTION('',(0.,-1.,0.));
#1083=DIRECTION('',(1.,0.,0.));
#1084=DIRECTION('',(0.,1.,0.));
#1085=DIRECTION('center_axis',(0.,-0.707106781186548,-0.707106781186547));
#1086=DIRECTION('ref_axis',(0.,-0.707106781186547,0.707106781186548));
#1087=DIRECTION('',(0.,-0.707106781186547,0.707106781186548));
#1088=DIRECTION('',(-1.,0.,0.));
#1089=DIRECTION('',(0.,0.707106781186547,-0.707106781186548));
#1090=DIRECTION('',(1.,0.,0.));
#1091=DIRECTION('center_axis',(0.,-1.,0.));
#1092=DIRECTION('ref_axis',(0.,0.,1.));
#1093=DIRECTION('',(0.,0.,1.));
#1094=DIRECTION('',(0.,0.,-1.));
#1095=DIRECTION('center_axis',(0.,1.,0.));
#1096=DIRECTION('ref_axis',(0.,0.,-1.));
#1097=DIRECTION('',(0.,0.,-1.));
#1098=DIRECTION('',(-1.,0.,0.));
#1099=DIRECTION('',(0.,0.,1.));
#1100=DIRECTION('',(-1.,0.,0.));
#1101=DIRECTION('center_axis',(0.,0.707106781186548,-0.707106781186547));
#1102=DIRECTION('ref_axis',(0.,-0.707106781186547,-0.707106781186548));
#1103=DIRECTION('',(0.,-0.707106781186547,-0.707106781186548));
#1104=DIRECTION('',(-1.,0.,0.));
#1105=DIRECTION('',(0.,0.707106781186547,0.707106781186548));
#1106=DIRECTION('center_axis',(0.,0.,-1.));
#1107=DIRECTION('ref_axis',(0.,-1.,0.));
#1108=DIRECTION('',(0.,-1.,0.));
#1109=DIRECTION('',(0.,1.,0.));
#1110=DIRECTION('center_axis',(0.,0.,-1.));
#1111=DIRECTION('ref_axis',(0.,-1.,0.));
#1112=DIRECTION('',(0.,1.,0.));
#1113=DIRECTION('',(-1.,0.,0.));
#1114=DIRECTION('',(0.,-1.,0.));
#1115=DIRECTION('center_axis',(-1.,0.,0.));
#1116=DIRECTION('ref_axis',(0.,0.,1.));
#1117=DIRECTION('',(0.,0.,-1.));
#1118=DIRECTION('',(0.,0.707106781186547,-0.707106781186548));
#1119=DIRECTION('',(0.,1.,0.));
#1120=DIRECTION('',(0.,0.707106781186547,0.707106781186548));
#1121=DIRECTION('',(0.,0.,1.));
#1122=DIRECTION('center_axis',(0.,-0.707106781186548,0.707106781186547));
#1123=DIRECTION('ref_axis',(0.,0.707106781186547,0.707106781186548));
#1124=DIRECTION('',(-1.,0.,0.));
#1125=DIRECTION('',(0.,0.707106781186547,0.707106781186548));
#1126=DIRECTION('',(-1.,0.,0.));
#1127=DIRECTION('center_axis',(0.,0.707106781186548,0.707106781186547));
#1128=DIRECTION('ref_axis',(0.,0.707106781186547,-0.707106781186548));
#1129=DIRECTION('',(-1.,0.,0.));
#1130=DIRECTION('',(0.,0.707106781186547,-0.707106781186548));
#1131=DIRECTION('',(-1.,0.,0.));
#1132=DIRECTION('center_axis',(0.,0.,1.));
#1133=DIRECTION('ref_axis',(0.,1.,0.));
#1134=DIRECTION('',(0.,1.,0.));
#1135=DIRECTION('center_axis',(-1.,0.,0.));
#1136=DIRECTION('ref_axis',(0.,0.,1.));
#1137=DIRECTION('',(0.,0.,-1.));
#1138=DIRECTION('',(0.,-1.,0.));
#1139=DIRECTION('',(0.,0.,1.));
#1140=DIRECTION('',(0.,0.,1.));
#1141=DIRECTION('',(0.,-0.707106781186547,0.707106781186548));
#1142=DIRECTION('',(0.,-1.,0.));
#1143=DIRECTION('',(0.,-0.707106781186547,-0.707106781186548));
#1144=DIRECTION('',(0.,0.,-1.));
#1145=DIRECTION('center_axis',(0.,-0.707106781186548,0.707106781186548));
#1146=DIRECTION('ref_axis',(1.,0.,0.));
#1147=DIRECTION('',(-1.,0.,0.));
#1148=DIRECTION('',(0.,-0.707106781186548,-0.707106781186548));
#1149=DIRECTION('',(1.,0.,0.));
#1150=DIRECTION('center_axis',(0.,0.,-1.));
#1151=DIRECTION('ref_axis',(-1.,0.,0.));
#1152=DIRECTION('',(1.,0.,0.));
#1153=DIRECTION('',(0.,1.,0.));
#1154=DIRECTION('',(-1.,0.,0.));
#1155=DIRECTION('',(0.,1.,0.));
#1156=DIRECTION('center_axis',(0.,0.707106781186548,0.707106781186547));
#1157=DIRECTION('ref_axis',(1.,0.,0.));
#1158=DIRECTION('',(0.,-0.707106781186547,0.707106781186548));
#1159=DIRECTION('',(1.,0.,0.));
#1160=DIRECTION('',(-1.,0.,0.));
#1161=DIRECTION('center_axis',(0.,0.,-1.));
#1162=DIRECTION('ref_axis',(-1.,0.,0.));
#1163=DIRECTION('',(0.,1.,0.));
#1164=DIRECTION('',(1.,0.,0.));
#1165=DIRECTION('',(0.,1.,0.));
#1166=DIRECTION('',(-1.,0.,0.));
#1167=DIRECTION('center_axis',(0.707106781186548,0.,0.707106781186548));
#1168=DIRECTION('ref_axis',(0.707106781186548,0.,-0.707106781186548));
#1169=DIRECTION('',(-0.707106781186548,0.,0.707106781186548));
#1170=DIRECTION('',(0.,-1.,0.));
#1171=DIRECTION('',(0.707106781186548,0.,-0.707106781186548));
#1172=DIRECTION('',(0.,1.,0.));
#1173=DIRECTION('center_axis',(0.,-1.,0.));
#1174=DIRECTION('ref_axis',(0.,0.,1.));
#1175=DIRECTION('',(0.,0.,-1.));
#1176=DIRECTION('',(1.,0.,0.));
#1177=DIRECTION('',(0.,0.,-1.));
#1178=DIRECTION('',(-1.,0.,0.));
#1179=DIRECTION('center_axis',(-1.,0.,0.));
#1180=DIRECTION('ref_axis',(0.,1.,0.));
#1181=DIRECTION('',(0.,0.,1.));
#1182=DIRECTION('center_axis',(0.707106781186548,0.,0.707106781186548));
#1183=DIRECTION('ref_axis',(0.707106781186548,0.,-0.707106781186548));
#1184=DIRECTION('',(0.707106781186548,0.,-0.707106781186548));
#1185=DIRECTION('',(0.,1.,0.));
#1186=DIRECTION('',(-0.707106781186548,0.,0.707106781186548));
#1187=DIRECTION('',(0.,-1.,0.));
#1188=DIRECTION('center_axis',(0.,1.,0.));
#1189=DIRECTION('ref_axis',(0.,0.,-1.));
#1190=DIRECTION('',(0.,0.,-1.));
#1191=DIRECTION('',(0.,0.,-1.));
#1192=DIRECTION('',(1.,0.,0.));
#1193=DIRECTION('',(0.,0.,-1.));
#1194=DIRECTION('',(-1.,0.,0.));
#1195=DIRECTION('center_axis',(-1.,0.,0.));
#1196=DIRECTION('ref_axis',(0.,1.,0.));
#1197=DIRECTION('',(0.,0.,1.));
#1198=DIRECTION('center_axis',(0.,-0.707106781186548,0.707106781186547));
#1199=DIRECTION('ref_axis',(0.,-0.707106781186547,-0.707106781186548));
#1200=DIRECTION('',(0.,0.707106781186547,0.707106781186548));
#1201=DIRECTION('',(1.,0.,0.));
#1202=DIRECTION('center_axis',(0.,0.,1.));
#1203=DIRECTION('ref_axis',(0.,-1.,0.));
#1204=DIRECTION('',(0.,1.,0.));
#1205=DIRECTION('',(1.,0.,0.));
#1206=DIRECTION('center_axis',(0.,0.707106781186548,0.707106781186547));
#1207=DIRECTION('ref_axis',(0.,-0.707106781186547,0.707106781186548));
#1208=DIRECTION('',(0.,0.707106781186547,-0.707106781186548));
#1209=DIRECTION('',(1.,0.,0.));
#1210=DIRECTION('center_axis',(1.,0.,0.));
#1211=DIRECTION('ref_axis',(0.,-1.,0.));
#1212=DIRECTION('center_axis',(1.,0.,0.));
#1213=DIRECTION('ref_axis',(0.,-1.,0.));
#1214=DIRECTION('',(1.,0.,0.));
#1215=DIRECTION('center_axis',(-1.,0.,0.));
#1216=DIRECTION('ref_axis',(0.,-1.,0.));
#1217=DIRECTION('center_axis',(1.,0.,0.));
#1218=DIRECTION('ref_axis',(0.,-1.,0.));
#1219=DIRECTION('center_axis',(1.,0.,0.));
#1220=DIRECTION('ref_axis',(0.,-1.,0.));
#1221=DIRECTION('',(1.,0.,0.));
#1222=DIRECTION('center_axis',(-1.,0.,0.));
#1223=DIRECTION('ref_axis',(0.,-1.,0.));
#1224=DIRECTION('center_axis',(1.,0.,0.));
#1225=DIRECTION('ref_axis',(0.,-1.,0.));
#1226=DIRECTION('center_axis',(1.,0.,0.));
#1227=DIRECTION('ref_axis',(0.,-1.,0.));
#1228=DIRECTION('',(1.,0.,0.));
#1229=DIRECTION('center_axis',(-1.,0.,0.));
#1230=DIRECTION('ref_axis',(0.,-1.,0.));
#1231=DIRECTION('center_axis',(1.,0.,0.));
#1232=DIRECTION('ref_axis',(0.,-1.,0.));
#1233=DIRECTION('center_axis',(1.,0.,0.));
#1234=DIRECTION('ref_axis',(0.,-1.,0.));
#1235=DIRECTION('',(1.,0.,0.));
#1236=DIRECTION('center_axis',(-1.,0.,0.));
#1237=DIRECTION('ref_axis',(0.,-1.,0.));
#1238=DIRECTION('center_axis',(0.,-1.,0.));
#1239=DIRECTION('ref_axis',(-1.,0.,0.));
#1240=DIRECTION('',(0.,0.,-1.));
#1241=DIRECTION('center_axis',(0.,1.,0.));
#1242=DIRECTION('ref_axis',(1.,0.,0.));
#1243=DIRECTION('',(0.,0.,1.));
#1244=DIRECTION('center_axis',(-1.,0.,0.));
#1245=DIRECTION('ref_axis',(0.,0.,1.));
#1246=DIRECTION('',(0.,0.,1.));
#1247=DIRECTION('center_axis',(-1.,0.,0.));
#1248=DIRECTION('ref_axis',(0.,0.,1.));
#1249=DIRECTION('center_axis',(0.,1.,0.));
#1250=DIRECTION('ref_axis',(0.,0.,-1.));
#1251=DIRECTION('',(1.,0.,0.));
#1252=DIRECTION('',(0.,0.,-1.));
#1253=DIRECTION('',(-1.,0.,0.));
#1254=DIRECTION('center_axis',(1.,0.,0.));
#1255=DIRECTION('ref_axis',(0.,0.,-1.));
#1256=DIRECTION('',(0.,0.,-1.));
#1257=DIRECTION('',(0.,1.,0.));
#1258=DIRECTION('center_axis',(0.,-1.,0.));
#1259=DIRECTION('ref_axis',(0.,0.,1.));
#1260=DIRECTION('',(1.,0.,0.));
#1261=DIRECTION('center_axis',(0.,0.,1.));
#1262=DIRECTION('ref_axis',(0.,1.,0.));
#1263=DIRECTION('',(0.,-1.,0.));
#1264=DIRECTION('center_axis',(0.,0.,1.));
#1265=DIRECTION('ref_axis',(0.,1.,0.));
#1266=DIRECTION('center_axis',(1.,0.,0.));
#1267=DIRECTION('ref_axis',(0.,0.,-1.));
#1268=DIRECTION('',(0.,0.,1.));
#1269=DIRECTION('',(1.,0.,0.));
#1270=DIRECTION('',(0.,0.,1.));
#1271=DIRECTION('',(1.,0.,0.));
#1272=DIRECTION('',(0.,0.,1.));
#1273=DIRECTION('',(1.,0.,0.));
#1274=DIRECTION('',(0.,0.,1.));
#1275=DIRECTION('',(1.,0.,0.));
#1276=CARTESIAN_POINT('',(0.,0.,0.));
#1277=CARTESIAN_POINT('',(0.,0.,0.));
#1278=CARTESIAN_POINT('',(0.,0.,0.));
#1279=CARTESIAN_POINT('',(0.,0.,0.));
#1280=CARTESIAN_POINT('',(0.,0.,0.));
#1281=CARTESIAN_POINT('Origin',(-110.,30.,3.075));
#1282=CARTESIAN_POINT('',(-107.5,30.,2.65));
#1283=CARTESIAN_POINT('Origin',(-110.,30.,2.65));
#1284=CARTESIAN_POINT('',(-106.65,30.,3.5));
#1285=CARTESIAN_POINT('',(-107.075,30.,3.075));
#1286=CARTESIAN_POINT('Origin',(-110.,30.,3.5));
#1287=CARTESIAN_POINT('Origin',(-110.,30.,3.5));
#1288=CARTESIAN_POINT('',(-106.61,30.,3.5));
#1289=CARTESIAN_POINT('Origin',(-110.,30.,3.5));
#1290=CARTESIAN_POINT('Origin',(-110.,30.,10.));
#1291=CARTESIAN_POINT('',(-107.5,30.,0.));
#1292=CARTESIAN_POINT('',(-107.5,30.,10.));
#1293=CARTESIAN_POINT('Origin',(-110.,30.,0.));
#1294=CARTESIAN_POINT('Origin',(-110.,30.,5.));
#1295=CARTESIAN_POINT('',(-106.61,30.,5.));
#1296=CARTESIAN_POINT('Origin',(-110.,30.,5.));
#1297=CARTESIAN_POINT('',(-106.61,30.,5.));
#1298=CARTESIAN_POINT('Origin',(-115.,45.,5.));
#1299=CARTESIAN_POINT('',(-90.,80.,5.));
#1300=CARTESIAN_POINT('',(-90.,51.5,5.));
#1301=CARTESIAN_POINT('',(-90.,51.5,5.));
#1302=CARTESIAN_POINT('',(-150.,80.,5.));
#1303=CARTESIAN_POINT('',(-90.,80.,5.));
#1304=CARTESIAN_POINT('',(-150.,10.,5.));
#1305=CARTESIAN_POINT('',(-150.,45.,5.));
#1306=CARTESIAN_POINT('',(-90.,10.,5.));
#1307=CARTESIAN_POINT('',(-150.,10.,5.));
#1308=CARTESIAN_POINT('',(-90.,38.5,5.));
#1309=CARTESIAN_POINT('',(-90.,10.,5.));
#1310=CARTESIAN_POINT('',(-80.,38.5,5.));
#1311=CARTESIAN_POINT('',(-90.,38.5,5.));
#1312=CARTESIAN_POINT('',(-80.,51.5,5.));
#1313=CARTESIAN_POINT('',(-80.,45.,5.));
#1314=CARTESIAN_POINT('',(-80.,51.5,5.));
#1315=CARTESIAN_POINT('Origin',(-80.,45.,90.));
#1316=CARTESIAN_POINT('',(-80.,51.5,90.));
#1317=CARTESIAN_POINT('',(-80.,51.5,95.));
#1318=CARTESIAN_POINT('',(-80.,38.5,90.));
#1319=CARTESIAN_POINT('',(-80.,38.5,95.));
#1320=CARTESIAN_POINT('',(-80.,28.5,100.));
#1321=CARTESIAN_POINT('',(-80.,37.625,90.875));
#1322=CARTESIAN_POINT('',(-80.,0.,100.));
#1323=CARTESIAN_POINT('',(-80.,45.,100.));
#1324=CARTESIAN_POINT('',(-80.,0.,0.));
#1325=CARTESIAN_POINT('',(-80.,0.,90.));
#1326=CARTESIAN_POINT('',(-80.,90.,0.));
#1327=CARTESIAN_POINT('',(-80.,45.,0.));
#1328=CARTESIAN_POINT('',(-80.,90.,100.));
#1329=CARTESIAN_POINT('',(-80.,90.,90.));
#1330=CARTESIAN_POINT('',(-80.,61.5,100.));
#1331=CARTESIAN_POINT('',(-80.,45.,100.));
#1332=CARTESIAN_POINT('',(-80.,52.375,90.875));
#1333=CARTESIAN_POINT('Origin',(-140.,90.,4.));
#1334=CARTESIAN_POINT('',(-146.,84.,4.));
#1335=CARTESIAN_POINT('',(-140.,84.,4.));
#1336=CARTESIAN_POINT('',(-143.,84.,4.));
#1337=CARTESIAN_POINT('',(-140.,90.,4.));
#1338=CARTESIAN_POINT('',(-140.,67.5,4.));
#1339=CARTESIAN_POINT('',(-146.,90.,4.));
#1340=CARTESIAN_POINT('',(-140.,90.,4.));
#1341=CARTESIAN_POINT('',(-146.,67.5,4.));
#1342=CARTESIAN_POINT('Origin',(-140.,82.8284271247462,82.8284271247462));
#1343=CARTESIAN_POINT('',(-140.,84.,81.6568542494923));
#1344=CARTESIAN_POINT('',(-140.,61.6568542494924,104.));
#1345=CARTESIAN_POINT('',(-140.,71.5784271247462,94.0784271247462));
#1346=CARTESIAN_POINT('',(-146.,84.,81.6568542494923));
#1347=CARTESIAN_POINT('',(-140.,84.,81.6568542494923));
#1348=CARTESIAN_POINT('',(-146.,61.6568542494924,104.));
#1349=CARTESIAN_POINT('',(-146.,80.3284271247462,85.3284271247462));
#1350=CARTESIAN_POINT('',(-140.,61.6568542494924,104.));
#1351=CARTESIAN_POINT('Origin',(-140.,84.,10.));
#1352=CARTESIAN_POINT('',(-140.,84.,50.));
#1353=CARTESIAN_POINT('',(-146.,84.,32.5));
#1354=CARTESIAN_POINT('Origin',(-140.,6.,80.));
#1355=CARTESIAN_POINT('',(-140.,6.,81.6568542494924));
#1356=CARTESIAN_POINT('',(-140.,6.,4.));
#1357=CARTESIAN_POINT('',(-140.,6.,48.));
#1358=CARTESIAN_POINT('',(-146.,6.,81.6568542494924));
#1359=CARTESIAN_POINT('',(-140.,6.,81.6568542494924));
#1360=CARTESIAN_POINT('',(-146.,6.,4.));
#1361=CARTESIAN_POINT('',(-146.,6.,30.5));
#1362=CARTESIAN_POINT('',(-140.,6.,4.));
#1363=CARTESIAN_POINT('Origin',(-140.,27.1715728752538,102.828427124746));
#1364=CARTESIAN_POINT('',(-140.,28.3431457505076,104.));
#1365=CARTESIAN_POINT('',(-140.,28.4215728752538,104.078427124746));
#1366=CARTESIAN_POINT('',(-146.,28.3431457505076,104.));
#1367=CARTESIAN_POINT('',(-140.,28.3431457505076,104.));
#1368=CARTESIAN_POINT('',(-146.,19.6715728752538,95.3284271247462));
#1369=CARTESIAN_POINT('Origin',(-140.,60.,104.));
#1370=CARTESIAN_POINT('',(-140.,52.5,104.));
#1371=CARTESIAN_POINT('',(-146.,52.5,104.));
#1372=CARTESIAN_POINT('Origin',(-140.,90.,4.));
#1373=CARTESIAN_POINT('',(-146.,0.,4.));
#1374=CARTESIAN_POINT('',(-146.,67.5,4.));
#1375=CARTESIAN_POINT('',(-140.,0.,4.));
#1376=CARTESIAN_POINT('',(-140.,0.,4.));
#1377=CARTESIAN_POINT('',(-140.,67.5,4.));
#1378=CARTESIAN_POINT('Origin',(-146.,45.,55.));
#1379=CARTESIAN_POINT('',(-146.,90.,84.142135623731));
#1380=CARTESIAN_POINT('',(-146.,90.,69.5710678118655));
#1381=CARTESIAN_POINT('',(-146.,64.142135623731,110.));
#1382=CARTESIAN_POINT('',(-146.,73.1066017177982,101.035533905933));
#1383=CARTESIAN_POINT('',(-146.,25.857864376269,110.));
#1384=CARTESIAN_POINT('',(-146.,35.4289321881345,110.));
#1385=CARTESIAN_POINT('',(-146.,0.,84.142135623731));
#1386=CARTESIAN_POINT('',(-146.,3.96446609406725,88.1066017177982));
#1387=CARTESIAN_POINT('',(-146.,0.,27.5));
#1388=CARTESIAN_POINT('Origin',(-140.,0.,84.142135623731));
#1389=CARTESIAN_POINT('',(-150.,25.857864376269,110.));
#1390=CARTESIAN_POINT('',(-140.,25.857864376269,110.));
#1391=CARTESIAN_POINT('',(-150.,0.,84.142135623731));
#1392=CARTESIAN_POINT('',(-150.,25.857864376269,110.));
#1393=CARTESIAN_POINT('',(-140.,0.,84.142135623731));
#1394=CARTESIAN_POINT('Origin',(-140.,64.142135623731,110.));
#1395=CARTESIAN_POINT('',(-150.,90.,84.142135623731));
#1396=CARTESIAN_POINT('',(-140.,90.,84.142135623731));
#1397=CARTESIAN_POINT('',(-150.,64.142135623731,110.));
#1398=CARTESIAN_POINT('',(-150.,90.,84.142135623731));
#1399=CARTESIAN_POINT('',(-140.,64.142135623731,110.));
#1400=CARTESIAN_POINT('Origin',(-140.,25.857864376269,110.));
#1401=CARTESIAN_POINT('',(-150.,64.142135623731,110.));
#1402=CARTESIAN_POINT('Origin',(-150.,45.,55.));
#1403=CARTESIAN_POINT('',(-150.,90.,0.));
#1404=CARTESIAN_POINT('',(-150.,90.,0.));
#1405=CARTESIAN_POINT('',(-150.,0.,0.));
#1406=CARTESIAN_POINT('',(-150.,0.,0.));
#1407=CARTESIAN_POINT('',(-150.,0.,84.142135623731));
#1408=CARTESIAN_POINT('',(-150.,80.,80.));
#1409=CARTESIAN_POINT('',(-150.,80.,32.5));
#1410=CARTESIAN_POINT('',(-150.,60.,100.));
#1411=CARTESIAN_POINT('',(-150.,80.,80.));
#1412=CARTESIAN_POINT('',(-150.,30.,100.));
#1413=CARTESIAN_POINT('',(-150.,60.,100.));
#1414=CARTESIAN_POINT('',(-150.,10.,80.));
#1415=CARTESIAN_POINT('',(-150.,30.,100.));
#1416=CARTESIAN_POINT('',(-150.,10.,80.));
#1417=CARTESIAN_POINT('Origin',(-90.,56.5,95.));
#1418=CARTESIAN_POINT('',(-90.,61.5,100.));
#1419=CARTESIAN_POINT('',(-90.,61.5,100.));
#1420=CARTESIAN_POINT('',(-90.,51.5,90.));
#1421=CARTESIAN_POINT('',(-90.,52.375,90.875));
#1422=CARTESIAN_POINT('',(-90.,51.5,90.));
#1423=CARTESIAN_POINT('Origin',(-90.,45.,100.));
#1424=CARTESIAN_POINT('',(-100.,90.,100.));
#1425=CARTESIAN_POINT('',(-100.,90.,100.));
#1426=CARTESIAN_POINT('',(-100.,80.,100.));
#1427=CARTESIAN_POINT('',(-100.,0.,100.));
#1428=CARTESIAN_POINT('',(-90.,80.,100.));
#1429=CARTESIAN_POINT('',(-100.,80.,100.));
#1430=CARTESIAN_POINT('',(-90.,45.,100.));
#1431=CARTESIAN_POINT('Origin',(-85.,33.5,95.));
#1432=CARTESIAN_POINT('',(-90.,38.5,90.));
#1433=CARTESIAN_POINT('',(-90.,28.5,100.));
#1434=CARTESIAN_POINT('',(-90.,37.625,90.875));
#1435=CARTESIAN_POINT('',(-85.,28.5,100.));
#1436=CARTESIAN_POINT('',(-85.,38.5,90.));
#1437=CARTESIAN_POINT('Origin',(-90.,45.,100.));
#1438=CARTESIAN_POINT('',(-90.,10.,100.));
#1439=CARTESIAN_POINT('',(-90.,45.,100.));
#1440=CARTESIAN_POINT('',(-100.,10.,100.));
#1441=CARTESIAN_POINT('',(-100.,10.,100.));
#1442=CARTESIAN_POINT('',(-100.,0.,100.));
#1443=CARTESIAN_POINT('',(-100.,0.,100.));
#1444=CARTESIAN_POINT('',(-100.,0.,100.));
#1445=CARTESIAN_POINT('Origin',(-105.,22.5,175.));
#1446=CARTESIAN_POINT('',(-100.,90.,170.));
#1447=CARTESIAN_POINT('',(-110.,90.,180.));
#1448=CARTESIAN_POINT('',(-85.,90.,155.));
#1449=CARTESIAN_POINT('',(-110.,80.,180.));
#1450=CARTESIAN_POINT('',(-110.,22.5,180.));
#1451=CARTESIAN_POINT('',(-100.,80.,170.));
#1452=CARTESIAN_POINT('',(-85.,80.,155.));
#1453=CARTESIAN_POINT('',(-100.,22.5,170.));
#1454=CARTESIAN_POINT('Origin',(-110.,90.,90.));
#1455=CARTESIAN_POINT('',(-100.,90.,135.));
#1456=CARTESIAN_POINT('',(-110.,90.,0.));
#1457=CARTESIAN_POINT('',(-140.,90.,180.));
#1458=CARTESIAN_POINT('',(-140.,90.,90.));
#1459=CARTESIAN_POINT('',(-110.,90.,180.));
#1460=CARTESIAN_POINT('Origin',(-100.,0.,180.));
#1461=CARTESIAN_POINT('',(-100.,80.,135.));
#1462=CARTESIAN_POINT('Origin',(-105.,22.5,175.));
#1463=CARTESIAN_POINT('',(-110.,0.,180.));
#1464=CARTESIAN_POINT('',(-100.,0.,170.));
#1465=CARTESIAN_POINT('',(-85.,0.,155.));
#1466=CARTESIAN_POINT('',(-100.,10.,170.));
#1467=CARTESIAN_POINT('',(-100.,22.5,170.));
#1468=CARTESIAN_POINT('',(-110.,10.,180.));
#1469=CARTESIAN_POINT('',(-85.,10.,155.));
#1470=CARTESIAN_POINT('',(-110.,22.5,180.));
#1471=CARTESIAN_POINT('Origin',(-110.,10.,90.));
#1472=CARTESIAN_POINT('',(-100.,10.,135.));
#1473=CARTESIAN_POINT('',(-90.,10.,10.));
#1474=CARTESIAN_POINT('',(-130.,10.,80.));
#1475=CARTESIAN_POINT('',(-140.,10.,80.));
#1476=CARTESIAN_POINT('',(-130.,10.,180.));
#1477=CARTESIAN_POINT('',(-130.,10.,90.));
#1478=CARTESIAN_POINT('',(-110.,10.,180.));
#1479=CARTESIAN_POINT('Origin',(-100.,0.,180.));
#1480=CARTESIAN_POINT('',(-100.,0.,135.));
#1481=CARTESIAN_POINT('Origin',(-140.,30.,100.));
#1482=CARTESIAN_POINT('',(-130.,30.,100.));
#1483=CARTESIAN_POINT('',(-130.,31.25,101.25));
#1484=CARTESIAN_POINT('',(-140.,30.,100.));
#1485=CARTESIAN_POINT('Origin',(-140.,60.,100.));
#1486=CARTESIAN_POINT('',(-130.,60.,100.));
#1487=CARTESIAN_POINT('',(-130.,52.5,100.));
#1488=CARTESIAN_POINT('',(-140.,60.,100.));
#1489=CARTESIAN_POINT('Origin',(-140.,80.,80.));
#1490=CARTESIAN_POINT('',(-130.,80.,80.));
#1491=CARTESIAN_POINT('',(-130.,68.75,91.25));
#1492=CARTESIAN_POINT('',(-140.,80.,80.));
#1493=CARTESIAN_POINT('Origin',(-140.,57.5,137.5));
#1494=CARTESIAN_POINT('',(-140.,59.9,137.5));
#1495=CARTESIAN_POINT('Origin',(-140.,57.5,137.5));
#1496=CARTESIAN_POINT('',(-130.,59.9,137.5));
#1497=CARTESIAN_POINT('',(-140.,59.9,137.5));
#1498=CARTESIAN_POINT('Origin',(-130.,57.5,137.5));
#1499=CARTESIAN_POINT('Origin',(-140.,32.5,137.5));
#1500=CARTESIAN_POINT('',(-140.,34.9,137.5));
#1501=CARTESIAN_POINT('Origin',(-140.,32.5,137.5));
#1502=CARTESIAN_POINT('',(-130.,34.9,137.5));
#1503=CARTESIAN_POINT('',(-140.,34.9,137.5));
#1504=CARTESIAN_POINT('Origin',(-130.,32.5,137.5));
#1505=CARTESIAN_POINT('Origin',(-140.,57.5,160.));
#1506=CARTESIAN_POINT('',(-140.,59.9,160.));
#1507=CARTESIAN_POINT('Origin',(-140.,57.5,160.));
#1508=CARTESIAN_POINT('',(-130.,59.9,160.));
#1509=CARTESIAN_POINT('',(-140.,59.9,160.));
#1510=CARTESIAN_POINT('Origin',(-130.,57.5,160.));
#1511=CARTESIAN_POINT('Origin',(-140.,32.5,160.));
#1512=CARTESIAN_POINT('',(-140.,34.9,160.));
#1513=CARTESIAN_POINT('Origin',(-140.,32.5,160.));
#1514=CARTESIAN_POINT('',(-130.,34.9,160.));
#1515=CARTESIAN_POINT('',(-140.,34.9,160.));
#1516=CARTESIAN_POINT('Origin',(-130.,32.5,160.));
#1517=CARTESIAN_POINT('Origin',(-80.,38.5,100.));
#1518=CARTESIAN_POINT('',(-90.,38.5,10.));
#1519=CARTESIAN_POINT('Origin',(-90.,51.5,100.));
#1520=CARTESIAN_POINT('',(-90.,51.5,95.));
#1521=CARTESIAN_POINT('Origin',(-90.,45.,90.));
#1522=CARTESIAN_POINT('',(-90.,80.,90.));
#1523=CARTESIAN_POINT('Origin',(-90.,45.,90.));
#1524=CARTESIAN_POINT('Origin',(-110.,0.,90.));
#1525=CARTESIAN_POINT('',(-140.,0.,180.));
#1526=CARTESIAN_POINT('',(-110.,0.,180.));
#1527=CARTESIAN_POINT('',(-140.,0.,90.));
#1528=CARTESIAN_POINT('',(-140.,0.,0.));
#1529=CARTESIAN_POINT('Origin',(-130.,45.,90.));
#1530=CARTESIAN_POINT('',(-130.,80.,180.));
#1531=CARTESIAN_POINT('',(-130.,80.,90.));
#1532=CARTESIAN_POINT('',(-130.,45.,180.));
#1533=CARTESIAN_POINT('Origin',(-110.,80.,90.));
#1534=CARTESIAN_POINT('',(-110.,80.,180.));
#1535=CARTESIAN_POINT('Origin',(-110.,45.,180.));
#1536=CARTESIAN_POINT('',(-140.,45.,180.));
#1537=CARTESIAN_POINT('Origin',(-110.,45.,0.));
#1538=CARTESIAN_POINT('Origin',(-140.,45.,90.));
#1539=CARTESIAN_POINT('',(0.,0.,0.));
#1540=CARTESIAN_POINT('',(0.,0.,0.));
#1541=CARTESIAN_POINT('',(0.,0.,0.));
#1542=CARTESIAN_POINT('',(0.,0.,0.));
#1543=UNCERTAINTY_MEASURE_WITH_UNIT(LENGTH_MEASURE(0.01),#1555,
'DISTANCE_ACCURACY_VALUE',
'Maximum model space distance between geometric entities at asserted c
onnectivities');
#1544=UNCERTAINTY_MEASURE_WITH_UNIT(LENGTH_MEASURE(0.01),#1555,
'DISTANCE_ACCURACY_VALUE',
'Maximum model space distance between geometric entities at asserted c
onnectivities');
#1545=UNCERTAINTY_MEASURE_WITH_UNIT(LENGTH_MEASURE(0.01),#1555,
'DISTANCE_ACCURACY_VALUE',
'Maximum model space distance between geometric entities at asserted c
onnectivities');
#1546=UNCERTAINTY_MEASURE_WITH_UNIT(LENGTH_MEASURE(0.01),#1555,
'DISTANCE_ACCURACY_VALUE',
'Maximum model space distance between geometric entities at asserted c
onnectivities');
#1547=UNCERTAINTY_MEASURE_WITH_UNIT(LENGTH_MEASURE(0.01),#1555,
'DISTANCE_ACCURACY_VALUE',
'Maximum model space distance between geometric entities at asserted c
onnectivities');
#1548=UNCERTAINTY_MEASURE_WITH_UNIT(LENGTH_MEASURE(0.01),#1555,
'DISTANCE_ACCURACY_VALUE',
'Maximum model space distance between geometric entities at asserted c
onnectivities');
#1549=(
GEOMETRIC_REPRESENTATION_CONTEXT(3)
GLOBAL_UNCERTAINTY_ASSIGNED_CONTEXT((#1543))
GLOBAL_UNIT_ASSIGNED_CONTEXT((#1555,#1557,#1558))
REPRESENTATION_CONTEXT('','3D')
);
#1550=(
GEOMETRIC_REPRESENTATION_CONTEXT(3)
GLOBAL_UNCERTAINTY_ASSIGNED_CONTEXT((#1544))
GLOBAL_UNIT_ASSIGNED_CONTEXT((#1555,#1557,#1558))
REPRESENTATION_CONTEXT('','3D')
);
#1551=(
GEOMETRIC_REPRESENTATION_CONTEXT(3)
GLOBAL_UNCERTAINTY_ASSIGNED_CONTEXT((#1545))
GLOBAL_UNIT_ASSIGNED_CONTEXT((#1555,#1557,#1558))
REPRESENTATION_CONTEXT('','3D')
);
#1552=(
GEOMETRIC_REPRESENTATION_CONTEXT(3)
GLOBAL_UNCERTAINTY_ASSIGNED_CONTEXT((#1546))
GLOBAL_UNIT_ASSIGNED_CONTEXT((#1555,#1557,#1558))
REPRESENTATION_CONTEXT('','3D')
);
#1553=(
GEOMETRIC_REPRESENTATION_CONTEXT(3)
GLOBAL_UNCERTAINTY_ASSIGNED_CONTEXT((#1547))
GLOBAL_UNIT_ASSIGNED_CONTEXT((#1555,#1557,#1558))
REPRESENTATION_CONTEXT('','3D')
);
#1554=(
GEOMETRIC_REPRESENTATION_CONTEXT(3)
GLOBAL_UNCERTAINTY_ASSIGNED_CONTEXT((#1548))
GLOBAL_UNIT_ASSIGNED_CONTEXT((#1555,#1557,#1558))
REPRESENTATION_CONTEXT('','3D')
);
#1555=(
LENGTH_UNIT()
NAMED_UNIT(*)
SI_UNIT(.MILLI.,.METRE.)
);
#1556=(
LENGTH_UNIT()
NAMED_UNIT(*)
SI_UNIT($,.METRE.)
);
#1557=(
NAMED_UNIT(*)
PLANE_ANGLE_UNIT()
SI_UNIT($,.RADIAN.)
);
#1558=(
NAMED_UNIT(*)
SI_UNIT($,.STERADIAN.)
SOLID_ANGLE_UNIT()
);
#1559=SHAPE_DEFINITION_REPRESENTATION(#1564,#1573);
#1560=SHAPE_DEFINITION_REPRESENTATION(#1565,#1574);
#1561=SHAPE_DEFINITION_REPRESENTATION(#1566,#1575);
#1562=SHAPE_DEFINITION_REPRESENTATION(#1567,#1576);
#1563=SHAPE_DEFINITION_REPRESENTATION(#1568,#1577);
#1564=PRODUCT_DEFINITION_SHAPE('',$,#1579);
#1565=PRODUCT_DEFINITION_SHAPE('',$,#1580);
#1566=PRODUCT_DEFINITION_SHAPE('',$,#1581);
#1567=PRODUCT_DEFINITION_SHAPE('',$,#1582);
#1568=PRODUCT_DEFINITION_SHAPE('',$,#1583);
#1569=PRODUCT_DEFINITION_SHAPE($,$,#23);
#1570=PRODUCT_DEFINITION_SHAPE($,$,#24);
#1571=PRODUCT_DEFINITION_SHAPE($,$,#25);
#1572=PRODUCT_DEFINITION_SHAPE($,$,#26);
#1573=SHAPE_REPRESENTATION('',(#960,#1026),#1549);
#1574=SHAPE_REPRESENTATION('',(#961,#1025),#1550);
#1575=SHAPE_REPRESENTATION('',(#962,#1024),#1551);
#1576=SHAPE_REPRESENTATION('',(#963,#1023),#1552);
#1577=SHAPE_REPRESENTATION('',(#964),#1553);
#1578=PRODUCT_DEFINITION_CONTEXT('part definition',#1595,'design');
#1579=PRODUCT_DEFINITION('2026-05-06-02-11-17-818','Bed_plate_assembly',
#1584,#1578);
#1580=PRODUCT_DEFINITION('2026-05-06-02-11-17-819','accesories_sd',#1585,
#1578);
#1581=PRODUCT_DEFINITION('2026-05-06-02-11-17-820',
'FINAL FIXTURE DESIGN_07.09.2025_Smaller Pipette Tip',#1586,#1578);
#1582=PRODUCT_DEFINITION('2026-05-06-02-11-17-823',
'Tip Disposal Chamber Unit',#1587,#1578);
#1583=PRODUCT_DEFINITION('2026-05-06-02-11-17-824','Disposal chamber ',
#1588,#1578);
#1584=PRODUCT_DEFINITION_FORMATION('',$,#1597);
#1585=PRODUCT_DEFINITION_FORMATION('',$,#1598);
#1586=PRODUCT_DEFINITION_FORMATION('',$,#1599);
#1587=PRODUCT_DEFINITION_FORMATION('',$,#1600);
#1588=PRODUCT_DEFINITION_FORMATION('',$,#1601);
#1589=PRODUCT_RELATED_PRODUCT_CATEGORY('Bed_plate_assembly',
'Bed_plate_assembly',(#1597));
#1590=PRODUCT_RELATED_PRODUCT_CATEGORY('accesories_sd','accesories_sd',
(#1598));
#1591=PRODUCT_RELATED_PRODUCT_CATEGORY(
'FINAL FIXTURE DESIGN_07.09.2025_Smaller Pipette Tip',
'FINAL FIXTURE DESIGN_07.09.2025_Smaller Pipette Tip',(#1599));
#1592=PRODUCT_RELATED_PRODUCT_CATEGORY('Tip Disposal Chamber Unit',
'Tip Disposal Chamber Unit',(#1600));
#1593=PRODUCT_RELATED_PRODUCT_CATEGORY('Disposal chamber ',
'Disposal chamber ',(#1601));
#1594=APPLICATION_PROTOCOL_DEFINITION('international standard',
'automotive_design',2009,#1595);
#1595=APPLICATION_CONTEXT(
'Core Data for Automotive Mechanical Design Process');
#1596=PRODUCT_CONTEXT('part definition',#1595,'mechanical');
#1597=PRODUCT('2026-05-06-02-11-17-818','Bed_plate_assembly',$,(#1596));
#1598=PRODUCT('2026-05-06-02-11-17-819','accesories_sd',$,(#1596));
#1599=PRODUCT('2026-05-06-02-11-17-820',
'FINAL FIXTURE DESIGN_07.09.2025_Smaller Pipette Tip',$,(#1596));
#1600=PRODUCT('2026-05-06-02-11-17-823','Tip Disposal Chamber Unit',$,(#1596));
#1601=PRODUCT('2026-05-06-02-11-17-824','Disposal chamber ',$,(#1596));
#1602=PRESENTATION_STYLE_ASSIGNMENT((#1604));
#1603=PRESENTATION_STYLE_ASSIGNMENT((#1605));
#1604=SURFACE_STYLE_USAGE(.BOTH.,#1606);
#1605=SURFACE_STYLE_USAGE(.BOTH.,#1607);
#1606=SURFACE_SIDE_STYLE('',(#1608));
#1607=SURFACE_SIDE_STYLE('',(#1609));
#1608=SURFACE_STYLE_FILL_AREA(#1610);
#1609=SURFACE_STYLE_FILL_AREA(#1611);
#1610=FILL_AREA_STYLE('Steel - Satin',(#1612));
#1611=FILL_AREA_STYLE(
'PA 11 - Nylon- HP 11-30 (with EOS P 396 3D Printer)',(#1613));
#1612=FILL_AREA_STYLE_COLOUR('Steel - Satin',#1614);
#1613=FILL_AREA_STYLE_COLOUR(
'PA 11 - Nylon- HP 11-30 (with EOS P 396 3D Printer)',#1615);
#1614=COLOUR_RGB('Steel - Satin',0.627450980392157,0.627450980392157,0.627450980392157);
#1615=COLOUR_RGB('PA 11 - Nylon- HP 11-30 (with EOS P 396 3D Printer)',
0.247058823529412,0.247058823529412,0.247058823529412);
ENDSEC;
END-ISO-10303-21;
