ISO-10303-21;
HEADER;
/* Generated by software containing ST-Developer
 * from STEP Tools, Inc. (www.steptools.com) 
 */
/* OPTION: using custom renumber hook */

FILE_DESCRIPTION(
/* description */ ('STEP AP242 Edition 2',
'CAx-IF Rec.Pracs.---Representation and Presentation of Product Manufa
cturing Information (PMI)---4.0---2014-10-13',
'CAx-IF Rec.Pracs.---3D Tessellated Geometry---0.4---2014-09-14','2;1',
'CAx-IF Rec.Pracs.---User Defined Attributes---1.5---2016-08-15'),
/* implementation_level */ '2;1');

FILE_NAME(
/* name */ 'tip catcher',
/* time_stamp */ '2026-06-16T05:08:51Z',
/* author */ (''),
/* organization */ (''),
/* preprocessor_version */ 'ST-DEVELOPER v20',
/* originating_system */ 'ONSHAPE BY PTC INC, 1.216',
/* authorisation */ '  ');

FILE_SCHEMA (('AP242_MANAGED_MODEL_BASED_3D_ENGINEERING_MIM_LF { 1 0 10303 442 3 1 4 }'));
ENDSEC;

DATA;
#10=SHAPE_REPRESENTATION_RELATIONSHIP('','',#751,#11);
#11=ADVANCED_BREP_SHAPE_REPRESENTATION('',(#749),#1269);
#12=CYLINDRICAL_SURFACE('',#802,0.0005);
#13=CYLINDRICAL_SURFACE('',#803,0.0005);
#14=CYLINDRICAL_SURFACE('',#804,0.0005);
#15=CYLINDRICAL_SURFACE('',#805,0.0005);
#16=CYLINDRICAL_SURFACE('',#806,0.0005);
#17=CYLINDRICAL_SURFACE('',#807,0.0005);
#18=CYLINDRICAL_SURFACE('',#808,0.0005);
#19=CYLINDRICAL_SURFACE('',#809,0.0005);
#20=CYLINDRICAL_SURFACE('',#810,0.0005);
#21=CYLINDRICAL_SURFACE('',#818,0.0005);
#22=CYLINDRICAL_SURFACE('',#819,0.0005);
#23=CYLINDRICAL_SURFACE('',#820,0.0005);
#24=CYLINDRICAL_SURFACE('',#821,0.0005);
#25=CYLINDRICAL_SURFACE('',#822,0.0005);
#26=CYLINDRICAL_SURFACE('',#823,0.0005);
#27=CYLINDRICAL_SURFACE('',#824,0.0005);
#28=CYLINDRICAL_SURFACE('',#825,0.0005);
#29=CYLINDRICAL_SURFACE('',#826,0.0005);
#30=CIRCLE('',#763,0.0005);
#31=CIRCLE('',#764,0.0005);
#32=CIRCLE('',#765,0.0005);
#33=CIRCLE('',#766,0.0005);
#34=CIRCLE('',#767,0.0005);
#35=CIRCLE('',#768,0.0005);
#36=CIRCLE('',#769,0.0005);
#37=CIRCLE('',#770,0.0005);
#38=CIRCLE('',#771,0.0005);
#39=CIRCLE('',#772,0.0005);
#40=CIRCLE('',#773,0.0005);
#41=CIRCLE('',#774,0.0005);
#42=CIRCLE('',#775,0.0005);
#43=CIRCLE('',#776,0.0005);
#44=CIRCLE('',#777,0.0005);
#45=CIRCLE('',#778,0.0005);
#46=CIRCLE('',#780,0.0005);
#47=CIRCLE('',#781,0.0005);
#48=CIRCLE('',#782,0.0005);
#49=CIRCLE('',#783,0.0005);
#50=CIRCLE('',#784,0.0005);
#51=CIRCLE('',#785,0.0005);
#52=CIRCLE('',#786,0.0005);
#53=CIRCLE('',#787,0.0005);
#54=CIRCLE('',#788,0.0005);
#55=CIRCLE('',#789,0.0005);
#56=CIRCLE('',#790,0.0005);
#57=CIRCLE('',#791,0.0005);
#58=CIRCLE('',#792,0.0005);
#59=CIRCLE('',#793,0.0005);
#60=CIRCLE('',#796,0.0005);
#61=CIRCLE('',#797,0.0005);
#62=CIRCLE('',#798,0.0005);
#63=CIRCLE('',#799,0.0005);
#64=CIRCLE('',#800,0.0005);
#65=CIRCLE('',#801,0.0005);
#66=ORIENTED_EDGE('',*,*,#282,.F.);
#67=ORIENTED_EDGE('',*,*,#283,.T.);
#68=ORIENTED_EDGE('',*,*,#284,.F.);
#69=ORIENTED_EDGE('',*,*,#285,.F.);
#70=ORIENTED_EDGE('',*,*,#286,.F.);
#71=ORIENTED_EDGE('',*,*,#287,.T.);
#72=ORIENTED_EDGE('',*,*,#288,.F.);
#73=ORIENTED_EDGE('',*,*,#289,.T.);
#74=ORIENTED_EDGE('',*,*,#290,.F.);
#75=ORIENTED_EDGE('',*,*,#291,.T.);
#76=ORIENTED_EDGE('',*,*,#292,.F.);
#77=ORIENTED_EDGE('',*,*,#293,.T.);
#78=ORIENTED_EDGE('',*,*,#294,.T.);
#79=ORIENTED_EDGE('',*,*,#295,.T.);
#80=ORIENTED_EDGE('',*,*,#296,.T.);
#81=ORIENTED_EDGE('',*,*,#297,.T.);
#82=ORIENTED_EDGE('',*,*,#298,.F.);
#83=ORIENTED_EDGE('',*,*,#299,.T.);
#84=ORIENTED_EDGE('',*,*,#300,.F.);
#85=ORIENTED_EDGE('',*,*,#301,.T.);
#86=ORIENTED_EDGE('',*,*,#302,.T.);
#87=ORIENTED_EDGE('',*,*,#303,.T.);
#88=ORIENTED_EDGE('',*,*,#304,.F.);
#89=ORIENTED_EDGE('',*,*,#305,.T.);
#90=ORIENTED_EDGE('',*,*,#306,.T.);
#91=ORIENTED_EDGE('',*,*,#307,.T.);
#92=ORIENTED_EDGE('',*,*,#308,.T.);
#93=ORIENTED_EDGE('',*,*,#309,.T.);
#94=ORIENTED_EDGE('',*,*,#310,.F.);
#95=ORIENTED_EDGE('',*,*,#311,.T.);
#96=ORIENTED_EDGE('',*,*,#312,.T.);
#97=ORIENTED_EDGE('',*,*,#313,.T.);
#98=ORIENTED_EDGE('',*,*,#314,.F.);
#99=ORIENTED_EDGE('',*,*,#315,.T.);
#100=ORIENTED_EDGE('',*,*,#316,.F.);
#101=ORIENTED_EDGE('',*,*,#317,.T.);
#102=ORIENTED_EDGE('',*,*,#318,.T.);
#103=ORIENTED_EDGE('',*,*,#319,.F.);
#104=ORIENTED_EDGE('',*,*,#298,.T.);
#105=ORIENTED_EDGE('',*,*,#320,.T.);
#106=ORIENTED_EDGE('',*,*,#300,.T.);
#107=ORIENTED_EDGE('',*,*,#321,.T.);
#108=ORIENTED_EDGE('',*,*,#304,.T.);
#109=ORIENTED_EDGE('',*,*,#322,.T.);
#110=ORIENTED_EDGE('',*,*,#310,.T.);
#111=ORIENTED_EDGE('',*,*,#323,.T.);
#112=ORIENTED_EDGE('',*,*,#314,.T.);
#113=ORIENTED_EDGE('',*,*,#324,.T.);
#114=ORIENTED_EDGE('',*,*,#316,.T.);
#115=ORIENTED_EDGE('',*,*,#325,.F.);
#116=ORIENTED_EDGE('',*,*,#326,.F.);
#117=ORIENTED_EDGE('',*,*,#327,.F.);
#118=ORIENTED_EDGE('',*,*,#328,.F.);
#119=ORIENTED_EDGE('',*,*,#329,.F.);
#120=ORIENTED_EDGE('',*,*,#330,.F.);
#121=ORIENTED_EDGE('',*,*,#331,.F.);
#122=ORIENTED_EDGE('',*,*,#332,.F.);
#123=ORIENTED_EDGE('',*,*,#333,.F.);
#124=ORIENTED_EDGE('',*,*,#334,.F.);
#125=ORIENTED_EDGE('',*,*,#335,.F.);
#126=ORIENTED_EDGE('',*,*,#336,.F.);
#127=ORIENTED_EDGE('',*,*,#337,.F.);
#128=ORIENTED_EDGE('',*,*,#338,.F.);
#129=ORIENTED_EDGE('',*,*,#339,.F.);
#130=ORIENTED_EDGE('',*,*,#284,.T.);
#131=ORIENTED_EDGE('',*,*,#340,.T.);
#132=ORIENTED_EDGE('',*,*,#286,.T.);
#133=ORIENTED_EDGE('',*,*,#341,.T.);
#134=ORIENTED_EDGE('',*,*,#290,.T.);
#135=ORIENTED_EDGE('',*,*,#342,.T.);
#136=ORIENTED_EDGE('',*,*,#302,.F.);
#137=ORIENTED_EDGE('',*,*,#343,.T.);
#138=ORIENTED_EDGE('',*,*,#296,.F.);
#139=ORIENTED_EDGE('',*,*,#344,.T.);
#140=ORIENTED_EDGE('',*,*,#294,.F.);
#141=ORIENTED_EDGE('',*,*,#345,.T.);
#142=ORIENTED_EDGE('',*,*,#346,.T.);
#143=ORIENTED_EDGE('',*,*,#347,.F.);
#144=ORIENTED_EDGE('',*,*,#348,.T.);
#145=ORIENTED_EDGE('',*,*,#349,.F.);
#146=ORIENTED_EDGE('',*,*,#350,.T.);
#147=ORIENTED_EDGE('',*,*,#351,.F.);
#148=ORIENTED_EDGE('',*,*,#352,.T.);
#149=ORIENTED_EDGE('',*,*,#353,.F.);
#150=ORIENTED_EDGE('',*,*,#354,.T.);
#151=ORIENTED_EDGE('',*,*,#355,.F.);
#152=ORIENTED_EDGE('',*,*,#356,.T.);
#153=ORIENTED_EDGE('',*,*,#357,.F.);
#154=ORIENTED_EDGE('',*,*,#358,.T.);
#155=ORIENTED_EDGE('',*,*,#359,.F.);
#156=ORIENTED_EDGE('',*,*,#318,.F.);
#157=ORIENTED_EDGE('',*,*,#360,.T.);
#158=ORIENTED_EDGE('',*,*,#312,.F.);
#159=ORIENTED_EDGE('',*,*,#361,.T.);
#160=ORIENTED_EDGE('',*,*,#308,.F.);
#161=ORIENTED_EDGE('',*,*,#362,.T.);
#162=ORIENTED_EDGE('',*,*,#306,.F.);
#163=ORIENTED_EDGE('',*,*,#363,.T.);
#164=ORIENTED_EDGE('',*,*,#346,.F.);
#165=ORIENTED_EDGE('',*,*,#364,.T.);
#166=ORIENTED_EDGE('',*,*,#365,.T.);
#167=ORIENTED_EDGE('',*,*,#366,.F.);
#168=ORIENTED_EDGE('',*,*,#288,.T.);
#169=ORIENTED_EDGE('',*,*,#367,.T.);
#170=ORIENTED_EDGE('',*,*,#282,.T.);
#171=ORIENTED_EDGE('',*,*,#368,.F.);
#172=ORIENTED_EDGE('',*,*,#369,.F.);
#173=ORIENTED_EDGE('',*,*,#370,.F.);
#174=ORIENTED_EDGE('',*,*,#371,.F.);
#175=ORIENTED_EDGE('',*,*,#372,.F.);
#176=ORIENTED_EDGE('',*,*,#365,.F.);
#177=ORIENTED_EDGE('',*,*,#373,.T.);
#178=ORIENTED_EDGE('',*,*,#292,.T.);
#179=ORIENTED_EDGE('',*,*,#374,.T.);
#180=ORIENTED_EDGE('',*,*,#320,.F.);
#181=ORIENTED_EDGE('',*,*,#297,.F.);
#182=ORIENTED_EDGE('',*,*,#343,.F.);
#183=ORIENTED_EDGE('',*,*,#301,.F.);
#184=ORIENTED_EDGE('',*,*,#321,.F.);
#185=ORIENTED_EDGE('',*,*,#303,.F.);
#186=ORIENTED_EDGE('',*,*,#363,.F.);
#187=ORIENTED_EDGE('',*,*,#305,.F.);
#188=ORIENTED_EDGE('',*,*,#324,.F.);
#189=ORIENTED_EDGE('',*,*,#313,.F.);
#190=ORIENTED_EDGE('',*,*,#360,.F.);
#191=ORIENTED_EDGE('',*,*,#317,.F.);
#192=ORIENTED_EDGE('',*,*,#323,.F.);
#193=ORIENTED_EDGE('',*,*,#309,.F.);
#194=ORIENTED_EDGE('',*,*,#361,.F.);
#195=ORIENTED_EDGE('',*,*,#315,.F.);
#196=ORIENTED_EDGE('',*,*,#340,.F.);
#197=ORIENTED_EDGE('',*,*,#283,.F.);
#198=ORIENTED_EDGE('',*,*,#367,.F.);
#199=ORIENTED_EDGE('',*,*,#287,.F.);
#200=ORIENTED_EDGE('',*,*,#341,.F.);
#201=ORIENTED_EDGE('',*,*,#289,.F.);
#202=ORIENTED_EDGE('',*,*,#374,.F.);
#203=ORIENTED_EDGE('',*,*,#291,.F.);
#204=ORIENTED_EDGE('',*,*,#373,.F.);
#205=ORIENTED_EDGE('',*,*,#364,.F.);
#206=ORIENTED_EDGE('',*,*,#345,.F.);
#207=ORIENTED_EDGE('',*,*,#293,.F.);
#208=ORIENTED_EDGE('',*,*,#342,.F.);
#209=ORIENTED_EDGE('',*,*,#295,.F.);
#210=ORIENTED_EDGE('',*,*,#344,.F.);
#211=ORIENTED_EDGE('',*,*,#299,.F.);
#212=ORIENTED_EDGE('',*,*,#322,.F.);
#213=ORIENTED_EDGE('',*,*,#307,.F.);
#214=ORIENTED_EDGE('',*,*,#362,.F.);
#215=ORIENTED_EDGE('',*,*,#311,.F.);
#216=ORIENTED_EDGE('',*,*,#338,.T.);
#217=ORIENTED_EDGE('',*,*,#375,.F.);
#218=ORIENTED_EDGE('',*,*,#369,.T.);
#219=ORIENTED_EDGE('',*,*,#376,.F.);
#220=ORIENTED_EDGE('',*,*,#336,.T.);
#221=ORIENTED_EDGE('',*,*,#377,.F.);
#222=ORIENTED_EDGE('',*,*,#348,.F.);
#223=ORIENTED_EDGE('',*,*,#378,.F.);
#224=ORIENTED_EDGE('',*,*,#371,.T.);
#225=ORIENTED_EDGE('',*,*,#379,.F.);
#226=ORIENTED_EDGE('',*,*,#350,.F.);
#227=ORIENTED_EDGE('',*,*,#380,.F.);
#228=ORIENTED_EDGE('',*,*,#334,.T.);
#229=ORIENTED_EDGE('',*,*,#381,.F.);
#230=ORIENTED_EDGE('',*,*,#332,.T.);
#231=ORIENTED_EDGE('',*,*,#382,.F.);
#232=ORIENTED_EDGE('',*,*,#352,.F.);
#233=ORIENTED_EDGE('',*,*,#383,.F.);
#234=ORIENTED_EDGE('',*,*,#330,.T.);
#235=ORIENTED_EDGE('',*,*,#384,.F.);
#236=ORIENTED_EDGE('',*,*,#354,.F.);
#237=ORIENTED_EDGE('',*,*,#385,.F.);
#238=ORIENTED_EDGE('',*,*,#356,.F.);
#239=ORIENTED_EDGE('',*,*,#386,.F.);
#240=ORIENTED_EDGE('',*,*,#328,.T.);
#241=ORIENTED_EDGE('',*,*,#387,.F.);
#242=ORIENTED_EDGE('',*,*,#358,.F.);
#243=ORIENTED_EDGE('',*,*,#388,.F.);
#244=ORIENTED_EDGE('',*,*,#326,.T.);
#245=ORIENTED_EDGE('',*,*,#389,.F.);
#246=ORIENTED_EDGE('',*,*,#333,.T.);
#247=ORIENTED_EDGE('',*,*,#383,.T.);
#248=ORIENTED_EDGE('',*,*,#351,.T.);
#249=ORIENTED_EDGE('',*,*,#381,.T.);
#250=ORIENTED_EDGE('',*,*,#331,.T.);
#251=ORIENTED_EDGE('',*,*,#385,.T.);
#252=ORIENTED_EDGE('',*,*,#353,.T.);
#253=ORIENTED_EDGE('',*,*,#382,.T.);
#254=ORIENTED_EDGE('',*,*,#325,.T.);
#255=ORIENTED_EDGE('',*,*,#319,.T.);
#256=ORIENTED_EDGE('',*,*,#359,.T.);
#257=ORIENTED_EDGE('',*,*,#389,.T.);
#258=ORIENTED_EDGE('',*,*,#327,.T.);
#259=ORIENTED_EDGE('',*,*,#388,.T.);
#260=ORIENTED_EDGE('',*,*,#357,.T.);
#261=ORIENTED_EDGE('',*,*,#387,.T.);
#262=ORIENTED_EDGE('',*,*,#339,.T.);
#263=ORIENTED_EDGE('',*,*,#376,.T.);
#264=ORIENTED_EDGE('',*,*,#368,.T.);
#265=ORIENTED_EDGE('',*,*,#285,.T.);
#266=ORIENTED_EDGE('',*,*,#337,.T.);
#267=ORIENTED_EDGE('',*,*,#379,.T.);
#268=ORIENTED_EDGE('',*,*,#370,.T.);
#269=ORIENTED_EDGE('',*,*,#375,.T.);
#270=ORIENTED_EDGE('',*,*,#372,.T.);
#271=ORIENTED_EDGE('',*,*,#378,.T.);
#272=ORIENTED_EDGE('',*,*,#347,.T.);
#273=ORIENTED_EDGE('',*,*,#366,.T.);
#274=ORIENTED_EDGE('',*,*,#335,.T.);
#275=ORIENTED_EDGE('',*,*,#380,.T.);
#276=ORIENTED_EDGE('',*,*,#349,.T.);
#277=ORIENTED_EDGE('',*,*,#377,.T.);
#278=ORIENTED_EDGE('',*,*,#329,.T.);
#279=ORIENTED_EDGE('',*,*,#386,.T.);
#280=ORIENTED_EDGE('',*,*,#355,.T.);
#281=ORIENTED_EDGE('',*,*,#384,.T.);
#282=EDGE_CURVE('',#390,#391,#462,.T.);
#283=EDGE_CURVE('',#390,#392,#463,.F.);
#284=EDGE_CURVE('',#393,#392,#464,.F.);
#285=EDGE_CURVE('',#391,#393,#465,.F.);
#286=EDGE_CURVE('',#394,#395,#466,.F.);
#287=EDGE_CURVE('',#394,#396,#467,.T.);
#288=EDGE_CURVE('',#397,#396,#468,.T.);
#289=EDGE_CURVE('',#397,#395,#469,.F.);
#290=EDGE_CURVE('',#398,#399,#470,.F.);
#291=EDGE_CURVE('',#398,#400,#471,.T.);
#292=EDGE_CURVE('',#401,#400,#472,.T.);
#293=EDGE_CURVE('',#401,#402,#473,.T.);
#294=EDGE_CURVE('',#402,#403,#474,.F.);
#295=EDGE_CURVE('',#403,#399,#475,.F.);
#296=EDGE_CURVE('',#404,#405,#476,.F.);
#297=EDGE_CURVE('',#405,#406,#477,.F.);
#298=EDGE_CURVE('',#407,#406,#478,.F.);
#299=EDGE_CURVE('',#407,#404,#479,.T.);
#300=EDGE_CURVE('',#408,#409,#480,.T.);
#301=EDGE_CURVE('',#408,#410,#481,.T.);
#302=EDGE_CURVE('',#410,#411,#482,.T.);
#303=EDGE_CURVE('',#411,#409,#483,.F.);
#304=EDGE_CURVE('',#412,#413,#484,.T.);
#305=EDGE_CURVE('',#412,#414,#485,.T.);
#306=EDGE_CURVE('',#414,#415,#486,.T.);
#307=EDGE_CURVE('',#415,#413,#487,.F.);
#308=EDGE_CURVE('',#416,#417,#488,.T.);
#309=EDGE_CURVE('',#417,#418,#489,.F.);
#310=EDGE_CURVE('',#419,#418,#490,.T.);
#311=EDGE_CURVE('',#419,#416,#491,.T.);
#312=EDGE_CURVE('',#420,#421,#492,.T.);
#313=EDGE_CURVE('',#421,#422,#493,.F.);
#314=EDGE_CURVE('',#423,#422,#494,.T.);
#315=EDGE_CURVE('',#423,#420,#495,.T.);
#316=EDGE_CURVE('',#424,#425,#496,.T.);
#317=EDGE_CURVE('',#424,#426,#497,.T.);
#318=EDGE_CURVE('',#426,#427,#498,.T.);
#319=EDGE_CURVE('',#425,#427,#499,.T.);
#320=EDGE_CURVE('',#406,#408,#30,.F.);
#321=EDGE_CURVE('',#409,#412,#31,.F.);
#322=EDGE_CURVE('',#413,#419,#32,.F.);
#323=EDGE_CURVE('',#418,#423,#33,.F.);
#324=EDGE_CURVE('',#422,#424,#34,.F.);
#325=EDGE_CURVE('',#428,#425,#35,.F.);
#326=EDGE_CURVE('',#429,#428,#500,.T.);
#327=EDGE_CURVE('',#430,#429,#36,.F.);
#328=EDGE_CURVE('',#431,#430,#501,.T.);
#329=EDGE_CURVE('',#432,#431,#37,.F.);
#330=EDGE_CURVE('',#433,#432,#502,.T.);
#331=EDGE_CURVE('',#434,#433,#38,.F.);
#332=EDGE_CURVE('',#435,#434,#503,.T.);
#333=EDGE_CURVE('',#436,#435,#39,.F.);
#334=EDGE_CURVE('',#437,#436,#504,.F.);
#335=EDGE_CURVE('',#438,#437,#40,.T.);
#336=EDGE_CURVE('',#439,#438,#505,.F.);
#337=EDGE_CURVE('',#440,#439,#41,.T.);
#338=EDGE_CURVE('',#441,#440,#506,.F.);
#339=EDGE_CURVE('',#393,#441,#42,.T.);
#340=EDGE_CURVE('',#392,#394,#43,.T.);
#341=EDGE_CURVE('',#395,#398,#44,.T.);
#342=EDGE_CURVE('',#399,#407,#45,.T.);
#343=EDGE_CURVE('',#410,#405,#46,.T.);
#344=EDGE_CURVE('',#404,#403,#47,.F.);
#345=EDGE_CURVE('',#402,#442,#48,.F.);
#346=EDGE_CURVE('',#442,#443,#507,.T.);
#347=EDGE_CURVE('',#444,#443,#49,.F.);
#348=EDGE_CURVE('',#444,#445,#508,.F.);
#349=EDGE_CURVE('',#446,#445,#50,.F.);
#350=EDGE_CURVE('',#446,#447,#509,.F.);
#351=EDGE_CURVE('',#448,#447,#51,.T.);
#352=EDGE_CURVE('',#448,#449,#510,.T.);
#353=EDGE_CURVE('',#450,#449,#52,.T.);
#354=EDGE_CURVE('',#450,#451,#511,.T.);
#355=EDGE_CURVE('',#452,#451,#53,.T.);
#356=EDGE_CURVE('',#452,#453,#512,.T.);
#357=EDGE_CURVE('',#454,#453,#54,.T.);
#358=EDGE_CURVE('',#454,#455,#513,.T.);
#359=EDGE_CURVE('',#427,#455,#55,.T.);
#360=EDGE_CURVE('',#426,#421,#56,.T.);
#361=EDGE_CURVE('',#420,#417,#57,.T.);
#362=EDGE_CURVE('',#416,#415,#58,.T.);
#363=EDGE_CURVE('',#414,#411,#59,.T.);
#364=EDGE_CURVE('',#442,#456,#514,.F.);
#365=EDGE_CURVE('',#456,#457,#515,.T.);
#366=EDGE_CURVE('',#443,#457,#516,.F.);
#367=EDGE_CURVE('',#396,#390,#60,.T.);
#368=EDGE_CURVE('',#458,#391,#61,.T.);
#369=EDGE_CURVE('',#459,#458,#517,.T.);
#370=EDGE_CURVE('',#460,#459,#62,.T.);
#371=EDGE_CURVE('',#461,#460,#518,.T.);
#372=EDGE_CURVE('',#457,#461,#63,.F.);
#373=EDGE_CURVE('',#456,#401,#64,.F.);
#374=EDGE_CURVE('',#400,#397,#65,.T.);
#375=EDGE_CURVE('',#459,#440,#519,.F.);
#376=EDGE_CURVE('',#441,#458,#520,.T.);
#377=EDGE_CURVE('',#445,#438,#521,.F.);
#378=EDGE_CURVE('',#461,#444,#522,.T.);
#379=EDGE_CURVE('',#439,#460,#523,.T.);
#380=EDGE_CURVE('',#437,#446,#524,.T.);
#381=EDGE_CURVE('',#447,#436,#525,.F.);
#382=EDGE_CURVE('',#449,#434,#526,.F.);
#383=EDGE_CURVE('',#435,#448,#527,.T.);
#384=EDGE_CURVE('',#451,#432,#528,.F.);
#385=EDGE_CURVE('',#433,#450,#529,.T.);
#386=EDGE_CURVE('',#431,#452,#530,.T.);
#387=EDGE_CURVE('',#453,#430,#531,.F.);
#388=EDGE_CURVE('',#429,#454,#532,.T.);
#389=EDGE_CURVE('',#455,#428,#533,.F.);
#390=VERTEX_POINT('',#1052);
#391=VERTEX_POINT('',#1053);
#392=VERTEX_POINT('',#1055);
#393=VERTEX_POINT('',#1057);
#394=VERTEX_POINT('',#1061);
#395=VERTEX_POINT('',#1062);
#396=VERTEX_POINT('',#1064);
#397=VERTEX_POINT('',#1066);
#398=VERTEX_POINT('',#1070);
#399=VERTEX_POINT('',#1071);
#400=VERTEX_POINT('',#1073);
#401=VERTEX_POINT('',#1075);
#402=VERTEX_POINT('',#1077);
#403=VERTEX_POINT('',#1079);
#404=VERTEX_POINT('',#1083);
#405=VERTEX_POINT('',#1084);
#406=VERTEX_POINT('',#1086);
#407=VERTEX_POINT('',#1088);
#408=VERTEX_POINT('',#1092);
#409=VERTEX_POINT('',#1093);
#410=VERTEX_POINT('',#1095);
#411=VERTEX_POINT('',#1097);
#412=VERTEX_POINT('',#1101);
#413=VERTEX_POINT('',#1102);
#414=VERTEX_POINT('',#1104);
#415=VERTEX_POINT('',#1106);
#416=VERTEX_POINT('',#1110);
#417=VERTEX_POINT('',#1111);
#418=VERTEX_POINT('',#1113);
#419=VERTEX_POINT('',#1115);
#420=VERTEX_POINT('',#1119);
#421=VERTEX_POINT('',#1120);
#422=VERTEX_POINT('',#1122);
#423=VERTEX_POINT('',#1124);
#424=VERTEX_POINT('',#1128);
#425=VERTEX_POINT('',#1129);
#426=VERTEX_POINT('',#1131);
#427=VERTEX_POINT('',#1133);
#428=VERTEX_POINT('',#1142);
#429=VERTEX_POINT('',#1144);
#430=VERTEX_POINT('',#1146);
#431=VERTEX_POINT('',#1148);
#432=VERTEX_POINT('',#1150);
#433=VERTEX_POINT('',#1152);
#434=VERTEX_POINT('',#1154);
#435=VERTEX_POINT('',#1156);
#436=VERTEX_POINT('',#1158);
#437=VERTEX_POINT('',#1160);
#438=VERTEX_POINT('',#1162);
#439=VERTEX_POINT('',#1164);
#440=VERTEX_POINT('',#1166);
#441=VERTEX_POINT('',#1168);
#442=VERTEX_POINT('',#1177);
#443=VERTEX_POINT('',#1179);
#444=VERTEX_POINT('',#1181);
#445=VERTEX_POINT('',#1183);
#446=VERTEX_POINT('',#1185);
#447=VERTEX_POINT('',#1187);
#448=VERTEX_POINT('',#1189);
#449=VERTEX_POINT('',#1191);
#450=VERTEX_POINT('',#1193);
#451=VERTEX_POINT('',#1195);
#452=VERTEX_POINT('',#1197);
#453=VERTEX_POINT('',#1199);
#454=VERTEX_POINT('',#1201);
#455=VERTEX_POINT('',#1203);
#456=VERTEX_POINT('',#1211);
#457=VERTEX_POINT('',#1213);
#458=VERTEX_POINT('',#1218);
#459=VERTEX_POINT('',#1220);
#460=VERTEX_POINT('',#1222);
#461=VERTEX_POINT('',#1224);
#462=LINE('',#1051,#534);
#463=LINE('',#1054,#535);
#464=LINE('',#1056,#536);
#465=LINE('',#1058,#537);
#466=LINE('',#1060,#538);
#467=LINE('',#1063,#539);
#468=LINE('',#1065,#540);
#469=LINE('',#1067,#541);
#470=LINE('',#1069,#542);
#471=LINE('',#1072,#543);
#472=LINE('',#1074,#544);
#473=LINE('',#1076,#545);
#474=LINE('',#1078,#546);
#475=LINE('',#1080,#547);
#476=LINE('',#1082,#548);
#477=LINE('',#1085,#549);
#478=LINE('',#1087,#550);
#479=LINE('',#1089,#551);
#480=LINE('',#1091,#552);
#481=LINE('',#1094,#553);
#482=LINE('',#1096,#554);
#483=LINE('',#1098,#555);
#484=LINE('',#1100,#556);
#485=LINE('',#1103,#557);
#486=LINE('',#1105,#558);
#487=LINE('',#1107,#559);
#488=LINE('',#1109,#560);
#489=LINE('',#1112,#561);
#490=LINE('',#1114,#562);
#491=LINE('',#1116,#563);
#492=LINE('',#1118,#564);
#493=LINE('',#1121,#565);
#494=LINE('',#1123,#566);
#495=LINE('',#1125,#567);
#496=LINE('',#1127,#568);
#497=LINE('',#1130,#569);
#498=LINE('',#1132,#570);
#499=LINE('',#1134,#571);
#500=LINE('',#1143,#572);
#501=LINE('',#1147,#573);
#502=LINE('',#1151,#574);
#503=LINE('',#1155,#575);
#504=LINE('',#1159,#576);
#505=LINE('',#1163,#577);
#506=LINE('',#1167,#578);
#507=LINE('',#1178,#579);
#508=LINE('',#1182,#580);
#509=LINE('',#1186,#581);
#510=LINE('',#1190,#582);
#511=LINE('',#1194,#583);
#512=LINE('',#1198,#584);
#513=LINE('',#1202,#585);
#514=LINE('',#1210,#586);
#515=LINE('',#1212,#587);
#516=LINE('',#1214,#588);
#517=LINE('',#1219,#589);
#518=LINE('',#1223,#590);
#519=LINE('',#1238,#591);
#520=LINE('',#1239,#592);
#521=LINE('',#1241,#593);
#522=LINE('',#1242,#594);
#523=LINE('',#1243,#595);
#524=LINE('',#1245,#596);
#525=LINE('',#1246,#597);
#526=LINE('',#1248,#598);
#527=LINE('',#1249,#599);
#528=LINE('',#1251,#600);
#529=LINE('',#1252,#601);
#530=LINE('',#1254,#602);
#531=LINE('',#1255,#603);
#532=LINE('',#1257,#604);
#533=LINE('',#1258,#605);
#534=VECTOR('',#831,1.);
#535=VECTOR('',#832,1.);
#536=VECTOR('',#833,1.);
#537=VECTOR('',#834,1.);
#538=VECTOR('',#837,1.);
#539=VECTOR('',#838,1.);
#540=VECTOR('',#839,1.);
#541=VECTOR('',#840,1.);
#542=VECTOR('',#843,1.);
#543=VECTOR('',#844,1.);
#544=VECTOR('',#845,1.);
#545=VECTOR('',#846,1.);
#546=VECTOR('',#847,1.);
#547=VECTOR('',#848,1.);
#548=VECTOR('',#851,1.);
#549=VECTOR('',#852,1.);
#550=VECTOR('',#853,1.);
#551=VECTOR('',#854,1.);
#552=VECTOR('',#857,1.);
#553=VECTOR('',#858,1.);
#554=VECTOR('',#859,1.);
#555=VECTOR('',#860,1.);
#556=VECTOR('',#863,1.);
#557=VECTOR('',#864,1.);
#558=VECTOR('',#865,1.);
#559=VECTOR('',#866,1.);
#560=VECTOR('',#869,1.);
#561=VECTOR('',#870,1.);
#562=VECTOR('',#871,1.);
#563=VECTOR('',#872,1.);
#564=VECTOR('',#875,1.);
#565=VECTOR('',#876,1.);
#566=VECTOR('',#877,1.);
#567=VECTOR('',#878,1.);
#568=VECTOR('',#881,1.);
#569=VECTOR('',#882,1.);
#570=VECTOR('',#883,1.);
#571=VECTOR('',#884,1.);
#572=VECTOR('',#899,1.);
#573=VECTOR('',#902,1.);
#574=VECTOR('',#905,1.);
#575=VECTOR('',#908,1.);
#576=VECTOR('',#911,1.);
#577=VECTOR('',#914,1.);
#578=VECTOR('',#917,1.);
#579=VECTOR('',#934,1.);
#580=VECTOR('',#937,1.);
#581=VECTOR('',#940,1.);
#582=VECTOR('',#943,1.);
#583=VECTOR('',#946,1.);
#584=VECTOR('',#949,1.);
#585=VECTOR('',#952,1.);
#586=VECTOR('',#965,1.);
#587=VECTOR('',#966,1.);
#588=VECTOR('',#967,1.);
#589=VECTOR('',#974,1.);
#590=VECTOR('',#977,1.);
#591=VECTOR('',#1004,1.);
#592=VECTOR('',#1005,1.);
#593=VECTOR('',#1008,1.);
#594=VECTOR('',#1009,1.);
#595=VECTOR('',#1010,1.);
#596=VECTOR('',#1013,1.);
#597=VECTOR('',#1014,1.);
#598=VECTOR('',#1017,1.);
#599=VECTOR('',#1018,1.);
#600=VECTOR('',#1021,1.);
#601=VECTOR('',#1022,1.);
#602=VECTOR('',#1025,1.);
#603=VECTOR('',#1026,1.);
#604=VECTOR('',#1029,1.);
#605=VECTOR('',#1030,1.);
#606=EDGE_LOOP('',(#66,#67,#68,#69));
#607=EDGE_LOOP('',(#70,#71,#72,#73));
#608=EDGE_LOOP('',(#74,#75,#76,#77,#78,#79));
#609=EDGE_LOOP('',(#80,#81,#82,#83));
#610=EDGE_LOOP('',(#84,#85,#86,#87));
#611=EDGE_LOOP('',(#88,#89,#90,#91));
#612=EDGE_LOOP('',(#92,#93,#94,#95));
#613=EDGE_LOOP('',(#96,#97,#98,#99));
#614=EDGE_LOOP('',(#100,#101,#102,#103));
#615=EDGE_LOOP('',(#104,#105,#106,#107,#108,#109,#110,#111,#112,#113,#114,
#115,#116,#117,#118,#119,#120,#121,#122,#123,#124,#125,#126,#127,#128,#129,
#130,#131,#132,#133,#134,#135));
#616=EDGE_LOOP('',(#136,#137,#138,#139,#140,#141,#142,#143,#144,#145,#146,
#147,#148,#149,#150,#151,#152,#153,#154,#155,#156,#157,#158,#159,#160,#161,
#162,#163));
#617=EDGE_LOOP('',(#164,#165,#166,#167));
#618=EDGE_LOOP('',(#168,#169,#170,#171,#172,#173,#174,#175,#176,#177,#178,
#179));
#619=EDGE_LOOP('',(#180,#181,#182,#183));
#620=EDGE_LOOP('',(#184,#185,#186,#187));
#621=EDGE_LOOP('',(#188,#189,#190,#191));
#622=EDGE_LOOP('',(#192,#193,#194,#195));
#623=EDGE_LOOP('',(#196,#197,#198,#199));
#624=EDGE_LOOP('',(#200,#201,#202,#203));
#625=EDGE_LOOP('',(#204,#205,#206,#207));
#626=EDGE_LOOP('',(#208,#209,#210,#211));
#627=EDGE_LOOP('',(#212,#213,#214,#215));
#628=EDGE_LOOP('',(#216,#217,#218,#219));
#629=EDGE_LOOP('',(#220,#221,#222,#223,#224,#225));
#630=EDGE_LOOP('',(#226,#227,#228,#229));
#631=EDGE_LOOP('',(#230,#231,#232,#233));
#632=EDGE_LOOP('',(#234,#235,#236,#237));
#633=EDGE_LOOP('',(#238,#239,#240,#241));
#634=EDGE_LOOP('',(#242,#243,#244,#245));
#635=EDGE_LOOP('',(#246,#247,#248,#249));
#636=EDGE_LOOP('',(#250,#251,#252,#253));
#637=EDGE_LOOP('',(#254,#255,#256,#257));
#638=EDGE_LOOP('',(#258,#259,#260,#261));
#639=EDGE_LOOP('',(#262,#263,#264,#265));
#640=EDGE_LOOP('',(#266,#267,#268,#269));
#641=EDGE_LOOP('',(#270,#271,#272,#273));
#642=EDGE_LOOP('',(#274,#275,#276,#277));
#643=EDGE_LOOP('',(#278,#279,#280,#281));
#644=FACE_BOUND('',#606,.T.);
#645=FACE_BOUND('',#607,.T.);
#646=FACE_BOUND('',#608,.T.);
#647=FACE_BOUND('',#609,.T.);
#648=FACE_BOUND('',#610,.T.);
#649=FACE_BOUND('',#611,.T.);
#650=FACE_BOUND('',#612,.T.);
#651=FACE_BOUND('',#613,.T.);
#652=FACE_BOUND('',#614,.T.);
#653=FACE_BOUND('',#615,.T.);
#654=FACE_BOUND('',#616,.T.);
#655=FACE_BOUND('',#617,.T.);
#656=FACE_BOUND('',#618,.T.);
#657=FACE_BOUND('',#619,.T.);
#658=FACE_BOUND('',#620,.T.);
#659=FACE_BOUND('',#621,.T.);
#660=FACE_BOUND('',#622,.T.);
#661=FACE_BOUND('',#623,.T.);
#662=FACE_BOUND('',#624,.T.);
#663=FACE_BOUND('',#625,.T.);
#664=FACE_BOUND('',#626,.T.);
#665=FACE_BOUND('',#627,.T.);
#666=FACE_BOUND('',#628,.T.);
#667=FACE_BOUND('',#629,.T.);
#668=FACE_BOUND('',#630,.T.);
#669=FACE_BOUND('',#631,.T.);
#670=FACE_BOUND('',#632,.T.);
#671=FACE_BOUND('',#633,.T.);
#672=FACE_BOUND('',#634,.T.);
#673=FACE_BOUND('',#635,.T.);
#674=FACE_BOUND('',#636,.T.);
#675=FACE_BOUND('',#637,.T.);
#676=FACE_BOUND('',#638,.T.);
#677=FACE_BOUND('',#639,.T.);
#678=FACE_BOUND('',#640,.T.);
#679=FACE_BOUND('',#641,.T.);
#680=FACE_BOUND('',#642,.T.);
#681=FACE_BOUND('',#643,.T.);
#682=PLANE('',#753);
#683=PLANE('',#754);
#684=PLANE('',#755);
#685=PLANE('',#756);
#686=PLANE('',#757);
#687=PLANE('',#758);
#688=PLANE('',#759);
#689=PLANE('',#760);
#690=PLANE('',#761);
#691=PLANE('',#762);
#692=PLANE('',#779);
#693=PLANE('',#794);
#694=PLANE('',#795);
#695=PLANE('',#811);
#696=PLANE('',#812);
#697=PLANE('',#813);
#698=PLANE('',#814);
#699=PLANE('',#815);
#700=PLANE('',#816);
#701=PLANE('',#817);
#702=ADVANCED_FACE('',(#644),#682,.F.);
#703=ADVANCED_FACE('',(#645),#683,.F.);
#704=ADVANCED_FACE('',(#646),#684,.F.);
#705=ADVANCED_FACE('',(#647),#685,.F.);
#706=ADVANCED_FACE('',(#648),#686,.F.);
#707=ADVANCED_FACE('',(#649),#687,.F.);
#708=ADVANCED_FACE('',(#650),#688,.F.);
#709=ADVANCED_FACE('',(#651),#689,.F.);
#710=ADVANCED_FACE('',(#652),#690,.F.);
#711=ADVANCED_FACE('',(#653),#691,.F.);
#712=ADVANCED_FACE('',(#654),#692,.T.);
#713=ADVANCED_FACE('',(#655),#693,.T.);
#714=ADVANCED_FACE('',(#656),#694,.T.);
#715=ADVANCED_FACE('',(#657),#12,.T.);
#716=ADVANCED_FACE('',(#658),#13,.T.);
#717=ADVANCED_FACE('',(#659),#14,.T.);
#718=ADVANCED_FACE('',(#660),#15,.T.);
#719=ADVANCED_FACE('',(#661),#16,.F.);
#720=ADVANCED_FACE('',(#662),#17,.F.);
#721=ADVANCED_FACE('',(#663),#18,.F.);
#722=ADVANCED_FACE('',(#664),#19,.F.);
#723=ADVANCED_FACE('',(#665),#20,.T.);
#724=ADVANCED_FACE('',(#666),#695,.F.);
#725=ADVANCED_FACE('',(#667),#696,.F.);
#726=ADVANCED_FACE('',(#668),#697,.F.);
#727=ADVANCED_FACE('',(#669),#698,.F.);
#728=ADVANCED_FACE('',(#670),#699,.F.);
#729=ADVANCED_FACE('',(#671),#700,.F.);
#730=ADVANCED_FACE('',(#672),#701,.F.);
#731=ADVANCED_FACE('',(#673),#21,.T.);
#732=ADVANCED_FACE('',(#674),#22,.T.);
#733=ADVANCED_FACE('',(#675),#23,.T.);
#734=ADVANCED_FACE('',(#676),#24,.T.);
#735=ADVANCED_FACE('',(#677),#25,.F.);
#736=ADVANCED_FACE('',(#678),#26,.F.);
#737=ADVANCED_FACE('',(#679),#27,.F.);
#738=ADVANCED_FACE('',(#680),#28,.F.);
#739=ADVANCED_FACE('',(#681),#29,.T.);
#740=CLOSED_SHELL('',(#702,#703,#704,#705,#706,#707,#708,#709,#710,#711,
#712,#713,#714,#715,#716,#717,#718,#719,#720,#721,#722,#723,#724,#725,#726,
#727,#728,#729,#730,#731,#732,#733,#734,#735,#736,#737,#738,#739));
#741=STYLED_ITEM('',(#742),#749);
#742=PRESENTATION_STYLE_ASSIGNMENT((#743));
#743=SURFACE_STYLE_USAGE(.BOTH.,#744);
#744=SURFACE_SIDE_STYLE('',(#745));
#745=SURFACE_STYLE_FILL_AREA(#746);
#746=FILL_AREA_STYLE('',(#747));
#747=FILL_AREA_STYLE_COLOUR('',#748);
#748=COLOUR_RGB('',0.615686274509804,0.811764705882353,0.929411764705882);
#749=MANIFOLD_SOLID_BREP('Part 1',#740);
#750=SHAPE_DEFINITION_REPRESENTATION(#1274,#751);
#751=SHAPE_REPRESENTATION('Part 1',(#752),#1269);
#752=AXIS2_PLACEMENT_3D('',#1049,#827,#828);
#753=AXIS2_PLACEMENT_3D('',#1050,#829,#830);
#754=AXIS2_PLACEMENT_3D('',#1059,#835,#836);
#755=AXIS2_PLACEMENT_3D('',#1068,#841,#842);
#756=AXIS2_PLACEMENT_3D('',#1081,#849,#850);
#757=AXIS2_PLACEMENT_3D('',#1090,#855,#856);
#758=AXIS2_PLACEMENT_3D('',#1099,#861,#862);
#759=AXIS2_PLACEMENT_3D('',#1108,#867,#868);
#760=AXIS2_PLACEMENT_3D('',#1117,#873,#874);
#761=AXIS2_PLACEMENT_3D('',#1126,#879,#880);
#762=AXIS2_PLACEMENT_3D('',#1135,#885,#886);
#763=AXIS2_PLACEMENT_3D('',#1136,#887,#888);
#764=AXIS2_PLACEMENT_3D('',#1137,#889,#890);
#765=AXIS2_PLACEMENT_3D('',#1138,#891,#892);
#766=AXIS2_PLACEMENT_3D('',#1139,#893,#894);
#767=AXIS2_PLACEMENT_3D('',#1140,#895,#896);
#768=AXIS2_PLACEMENT_3D('',#1141,#897,#898);
#769=AXIS2_PLACEMENT_3D('',#1145,#900,#901);
#770=AXIS2_PLACEMENT_3D('',#1149,#903,#904);
#771=AXIS2_PLACEMENT_3D('',#1153,#906,#907);
#772=AXIS2_PLACEMENT_3D('',#1157,#909,#910);
#773=AXIS2_PLACEMENT_3D('',#1161,#912,#913);
#774=AXIS2_PLACEMENT_3D('',#1165,#915,#916);
#775=AXIS2_PLACEMENT_3D('',#1169,#918,#919);
#776=AXIS2_PLACEMENT_3D('',#1170,#920,#921);
#777=AXIS2_PLACEMENT_3D('',#1171,#922,#923);
#778=AXIS2_PLACEMENT_3D('',#1172,#924,#925);
#779=AXIS2_PLACEMENT_3D('',#1173,#926,#927);
#780=AXIS2_PLACEMENT_3D('',#1174,#928,#929);
#781=AXIS2_PLACEMENT_3D('',#1175,#930,#931);
#782=AXIS2_PLACEMENT_3D('',#1176,#932,#933);
#783=AXIS2_PLACEMENT_3D('',#1180,#935,#936);
#784=AXIS2_PLACEMENT_3D('',#1184,#938,#939);
#785=AXIS2_PLACEMENT_3D('',#1188,#941,#942);
#786=AXIS2_PLACEMENT_3D('',#1192,#944,#945);
#787=AXIS2_PLACEMENT_3D('',#1196,#947,#948);
#788=AXIS2_PLACEMENT_3D('',#1200,#950,#951);
#789=AXIS2_PLACEMENT_3D('',#1204,#953,#954);
#790=AXIS2_PLACEMENT_3D('',#1205,#955,#956);
#791=AXIS2_PLACEMENT_3D('',#1206,#957,#958);
#792=AXIS2_PLACEMENT_3D('',#1207,#959,#960);
#793=AXIS2_PLACEMENT_3D('',#1208,#961,#962);
#794=AXIS2_PLACEMENT_3D('',#1209,#963,#964);
#795=AXIS2_PLACEMENT_3D('',#1215,#968,#969);
#796=AXIS2_PLACEMENT_3D('',#1216,#970,#971);
#797=AXIS2_PLACEMENT_3D('',#1217,#972,#973);
#798=AXIS2_PLACEMENT_3D('',#1221,#975,#976);
#799=AXIS2_PLACEMENT_3D('',#1225,#978,#979);
#800=AXIS2_PLACEMENT_3D('',#1226,#980,#981);
#801=AXIS2_PLACEMENT_3D('',#1227,#982,#983);
#802=AXIS2_PLACEMENT_3D('',#1228,#984,#985);
#803=AXIS2_PLACEMENT_3D('',#1229,#986,#987);
#804=AXIS2_PLACEMENT_3D('',#1230,#988,#989);
#805=AXIS2_PLACEMENT_3D('',#1231,#990,#991);
#806=AXIS2_PLACEMENT_3D('',#1232,#992,#993);
#807=AXIS2_PLACEMENT_3D('',#1233,#994,#995);
#808=AXIS2_PLACEMENT_3D('',#1234,#996,#997);
#809=AXIS2_PLACEMENT_3D('',#1235,#998,#999);
#810=AXIS2_PLACEMENT_3D('',#1236,#1000,#1001);
#811=AXIS2_PLACEMENT_3D('',#1237,#1002,#1003);
#812=AXIS2_PLACEMENT_3D('',#1240,#1006,#1007);
#813=AXIS2_PLACEMENT_3D('',#1244,#1011,#1012);
#814=AXIS2_PLACEMENT_3D('',#1247,#1015,#1016);
#815=AXIS2_PLACEMENT_3D('',#1250,#1019,#1020);
#816=AXIS2_PLACEMENT_3D('',#1253,#1023,#1024);
#817=AXIS2_PLACEMENT_3D('',#1256,#1027,#1028);
#818=AXIS2_PLACEMENT_3D('',#1259,#1031,#1032);
#819=AXIS2_PLACEMENT_3D('',#1260,#1033,#1034);
#820=AXIS2_PLACEMENT_3D('',#1261,#1035,#1036);
#821=AXIS2_PLACEMENT_3D('',#1262,#1037,#1038);
#822=AXIS2_PLACEMENT_3D('',#1263,#1039,#1040);
#823=AXIS2_PLACEMENT_3D('',#1264,#1041,#1042);
#824=AXIS2_PLACEMENT_3D('',#1265,#1043,#1044);
#825=AXIS2_PLACEMENT_3D('',#1266,#1045,#1046);
#826=AXIS2_PLACEMENT_3D('',#1267,#1047,#1048);
#827=DIRECTION('',(0.,0.,1.));
#828=DIRECTION('',(1.,0.,0.));
#829=DIRECTION('',(2.4492935982947E-16,-1.,0.));
#830=DIRECTION('',(1.,2.4492935982947E-16,0.));
#831=DIRECTION('',(1.,2.4492935982947E-16,0.));
#832=DIRECTION('',(0.,0.,-1.));
#833=DIRECTION('',(1.,2.4492935982947E-16,0.));
#834=DIRECTION('',(0.,0.,-1.));
#835=DIRECTION('',(-0.707106781186547,-0.707106781186548,0.));
#836=DIRECTION('',(0.707106781186548,-0.707106781186547,0.));
#837=DIRECTION('',(0.707106781186548,-0.707106781186547,0.));
#838=DIRECTION('',(0.,0.,-1.));
#839=DIRECTION('',(0.707106781186548,-0.707106781186547,0.));
#840=DIRECTION('',(0.,0.,-1.));
#841=DIRECTION('',(-1.,-1.22464679914735E-16,0.));
#842=DIRECTION('',(1.22464679914735E-16,-1.,0.));
#843=DIRECTION('',(1.22464679914735E-16,-1.,0.));
#844=DIRECTION('',(0.,0.,-1.));
#845=DIRECTION('',(1.85037170770859E-16,-1.,0.));
#846=DIRECTION('',(0.,0.,-1.));
#847=DIRECTION('',(1.22464679914735E-16,-1.,0.));
#848=DIRECTION('',(0.,0.,-1.));
#849=DIRECTION('',(-1.22464679914735E-16,1.,0.));
#850=DIRECTION('',(-1.,-1.22464679914735E-16,0.));
#851=DIRECTION('',(-1.,-1.22464679914735E-16,0.));
#852=DIRECTION('',(0.,0.,-1.));
#853=DIRECTION('',(-1.,-1.22464679914735E-16,0.));
#854=DIRECTION('',(0.,0.,-1.));
#855=DIRECTION('',(-1.,0.,0.));
#856=DIRECTION('',(0.,0.,1.));
#857=DIRECTION('',(0.,1.,0.));
#858=DIRECTION('',(0.,0.,-1.));
#859=DIRECTION('',(0.,1.,0.));
#860=DIRECTION('',(0.,0.,-1.));
#861=DIRECTION('',(1.22464679914735E-16,-1.,0.));
#862=DIRECTION('',(1.,1.22464679914735E-16,0.));
#863=DIRECTION('',(-1.,-1.22464679914735E-16,0.));
#864=DIRECTION('',(0.,0.,-1.));
#865=DIRECTION('',(-1.,-1.22464679914735E-16,0.));
#866=DIRECTION('',(0.,0.,-1.));
#867=DIRECTION('',(1.,1.22464679914735E-16,0.));
#868=DIRECTION('',(-1.22464679914735E-16,1.,0.));
#869=DIRECTION('',(1.22464679914735E-16,-1.,0.));
#870=DIRECTION('',(0.,0.,-1.));
#871=DIRECTION('',(1.22464679914735E-16,-1.,0.));
#872=DIRECTION('',(0.,0.,-1.));
#873=DIRECTION('',(0.707106781186547,0.707106781186548,0.));
#874=DIRECTION('',(-0.707106781186548,0.707106781186547,0.));
#875=DIRECTION('',(0.707106781186548,-0.707106781186547,0.));
#876=DIRECTION('',(0.,0.,-1.));
#877=DIRECTION('',(0.707106781186548,-0.707106781186547,0.));
#878=DIRECTION('',(0.,0.,-1.));
#879=DIRECTION('',(-2.4492935982947E-16,1.,0.));
#880=DIRECTION('',(-1.,-2.4492935982947E-16,0.));
#881=DIRECTION('',(1.,2.4492935982947E-16,0.));
#882=DIRECTION('',(0.,0.,-1.));
#883=DIRECTION('',(1.,2.4492935982947E-16,0.));
#884=DIRECTION('',(0.,0.,-1.));
#885=DIRECTION('',(0.,0.,-1.));
#886=DIRECTION('',(-1.,0.,0.));
#887=DIRECTION('',(0.,0.,-1.));
#888=DIRECTION('',(-1.,0.,0.));
#889=DIRECTION('',(0.,0.,-1.));
#890=DIRECTION('',(-1.,0.,0.));
#891=DIRECTION('',(0.,0.,-1.));
#892=DIRECTION('',(-1.,0.,0.));
#893=DIRECTION('',(0.,0.,-1.));
#894=DIRECTION('',(-1.,0.,0.));
#895=DIRECTION('',(0.,0.,-1.));
#896=DIRECTION('',(-1.,0.,0.));
#897=DIRECTION('',(0.,0.,1.));
#898=DIRECTION('',(1.,4.89858719658941E-16,0.));
#899=DIRECTION('',(-0.707106781186548,-0.707106781186547,0.));
#900=DIRECTION('',(0.,0.,1.));
#901=DIRECTION('',(1.,4.89858719658941E-16,0.));
#902=DIRECTION('',(3.67394039744206E-16,-1.,0.));
#903=DIRECTION('',(0.,0.,1.));
#904=DIRECTION('',(1.,4.89858719658941E-16,0.));
#905=DIRECTION('',(1.,3.67394039744206E-16,0.));
#906=DIRECTION('',(0.,0.,1.));
#907=DIRECTION('',(1.,4.89858719658941E-16,0.));
#908=DIRECTION('',(-4.89858719658941E-16,1.,0.));
#909=DIRECTION('',(0.,0.,1.));
#910=DIRECTION('',(1.,4.89858719658941E-16,0.));
#911=DIRECTION('',(1.,3.67394039744206E-16,0.));
#912=DIRECTION('',(0.,0.,1.));
#913=DIRECTION('',(1.,4.89858719658941E-16,0.));
#914=DIRECTION('',(3.67394039744206E-16,-1.,0.));
#915=DIRECTION('',(0.,0.,1.));
#916=DIRECTION('',(1.,4.89858719658941E-16,0.));
#917=DIRECTION('',(-0.707106781186548,-0.707106781186547,0.));
#918=DIRECTION('',(0.,0.,1.));
#919=DIRECTION('',(1.,4.89858719658941E-16,0.));
#920=DIRECTION('',(0.,0.,-1.));
#921=DIRECTION('',(-1.,0.,0.));
#922=DIRECTION('',(0.,0.,-1.));
#923=DIRECTION('',(-1.,0.,0.));
#924=DIRECTION('',(0.,0.,-1.));
#925=DIRECTION('',(-1.,0.,0.));
#926=DIRECTION('',(0.,0.,-1.));
#927=DIRECTION('',(-1.,0.,0.));
#928=DIRECTION('',(0.,0.,-1.));
#929=DIRECTION('',(-1.,0.,0.));
#930=DIRECTION('',(0.,0.,-1.));
#931=DIRECTION('',(-1.,0.,0.));
#932=DIRECTION('',(0.,0.,-1.));
#933=DIRECTION('',(-1.,0.,0.));
#934=DIRECTION('',(1.,2.92163953848725E-16,0.));
#935=DIRECTION('',(0.,0.,1.));
#936=DIRECTION('',(1.,4.89858719658941E-16,0.));
#937=DIRECTION('',(3.67394039744206E-16,-1.,0.));
#938=DIRECTION('',(0.,0.,1.));
#939=DIRECTION('',(1.,4.89858719658941E-16,0.));
#940=DIRECTION('',(1.,3.67394039744206E-16,0.));
#941=DIRECTION('',(0.,0.,1.));
#942=DIRECTION('',(1.,4.89858719658941E-16,0.));
#943=DIRECTION('',(-4.89858719658941E-16,1.,0.));
#944=DIRECTION('',(0.,0.,1.));
#945=DIRECTION('',(1.,4.89858719658941E-16,0.));
#946=DIRECTION('',(1.,3.67394039744206E-16,0.));
#947=DIRECTION('',(0.,0.,1.));
#948=DIRECTION('',(1.,4.89858719658941E-16,0.));
#949=DIRECTION('',(3.67394039744206E-16,-1.,0.));
#950=DIRECTION('',(0.,0.,1.));
#951=DIRECTION('',(1.,4.89858719658941E-16,0.));
#952=DIRECTION('',(-0.707106781186548,-0.707106781186547,0.));
#953=DIRECTION('',(0.,0.,1.));
#954=DIRECTION('',(1.,4.89858719658941E-16,0.));
#955=DIRECTION('',(0.,0.,-1.));
#956=DIRECTION('',(-1.,0.,0.));
#957=DIRECTION('',(0.,0.,-1.));
#958=DIRECTION('',(-1.,0.,0.));
#959=DIRECTION('',(0.,0.,-1.));
#960=DIRECTION('',(-1.,0.,0.));
#961=DIRECTION('',(0.,0.,-1.));
#962=DIRECTION('',(-1.,0.,0.));
#963=DIRECTION('',(-2.92163953848725E-16,1.,0.));
#964=DIRECTION('',(-1.,-2.92163953848725E-16,0.));
#965=DIRECTION('',(0.,0.,-1.));
#966=DIRECTION('',(1.,2.92163953848725E-16,0.));
#967=DIRECTION('',(0.,0.,-1.));
#968=DIRECTION('',(0.,0.,1.));
#969=DIRECTION('',(1.,0.,0.));
#970=DIRECTION('',(0.,0.,1.));
#971=DIRECTION('',(1.,0.,0.));
#972=DIRECTION('',(0.,0.,-1.));
#973=DIRECTION('',(-1.,-4.89858719658941E-16,0.));
#974=DIRECTION('',(-0.707106781186548,-0.707106781186547,0.));
#975=DIRECTION('',(0.,0.,-1.));
#976=DIRECTION('',(-1.,-4.89858719658941E-16,0.));
#977=DIRECTION('',(3.04821548888082E-16,-1.,0.));
#978=DIRECTION('',(0.,0.,-1.));
#979=DIRECTION('',(-1.,-4.89858719658941E-16,0.));
#980=DIRECTION('',(0.,0.,1.));
#981=DIRECTION('',(1.,0.,0.));
#982=DIRECTION('',(0.,0.,1.));
#983=DIRECTION('',(1.,0.,0.));
#984=DIRECTION('',(0.,0.,-1.));
#985=DIRECTION('',(-1.,0.,0.));
#986=DIRECTION('',(0.,0.,-1.));
#987=DIRECTION('',(-1.,0.,0.));
#988=DIRECTION('',(0.,0.,-1.));
#989=DIRECTION('',(-1.,0.,0.));
#990=DIRECTION('',(0.,0.,-1.));
#991=DIRECTION('',(-1.,0.,0.));
#992=DIRECTION('',(0.,0.,1.));
#993=DIRECTION('',(1.,0.,0.));
#994=DIRECTION('',(0.,0.,1.));
#995=DIRECTION('',(1.,0.,0.));
#996=DIRECTION('',(0.,0.,-1.));
#997=DIRECTION('',(-1.,0.,0.));
#998=DIRECTION('',(0.,0.,1.));
#999=DIRECTION('',(1.,0.,0.));
#1000=DIRECTION('',(0.,0.,-1.));
#1001=DIRECTION('',(-1.,0.,0.));
#1002=DIRECTION('',(0.707106781186548,-0.707106781186548,0.));
#1003=DIRECTION('',(-0.707106781186548,-0.707106781186547,0.));
#1004=DIRECTION('',(0.,0.,-1.));
#1005=DIRECTION('',(0.,0.,-1.));
#1006=DIRECTION('',(1.,3.67394039744206E-16,0.));
#1007=DIRECTION('',(3.67394039744206E-16,-1.,0.));
#1008=DIRECTION('',(0.,0.,-1.));
#1009=DIRECTION('',(0.,0.,-1.));
#1010=DIRECTION('',(0.,0.,-1.));
#1011=DIRECTION('',(-3.67394039744206E-16,1.,0.));
#1012=DIRECTION('',(1.,3.67394039744206E-16,0.));
#1013=DIRECTION('',(0.,0.,-1.));
#1014=DIRECTION('',(0.,0.,-1.));
#1015=DIRECTION('',(1.,4.89858719658941E-16,0.));
#1016=DIRECTION('',(0.,0.,1.));
#1017=DIRECTION('',(0.,0.,-1.));
#1018=DIRECTION('',(0.,0.,-1.));
#1019=DIRECTION('',(3.67394039744206E-16,-1.,0.));
#1020=DIRECTION('',(-1.,-3.67394039744206E-16,0.));
#1021=DIRECTION('',(0.,0.,-1.));
#1022=DIRECTION('',(0.,0.,-1.));
#1023=DIRECTION('',(-1.,-3.67394039744206E-16,0.));
#1024=DIRECTION('',(-3.67394039744206E-16,1.,0.));
#1025=DIRECTION('',(0.,0.,-1.));
#1026=DIRECTION('',(0.,0.,-1.));
#1027=DIRECTION('',(-0.707106781186548,0.707106781186548,0.));
#1028=DIRECTION('',(0.707106781186548,0.707106781186547,0.));
#1029=DIRECTION('',(0.,0.,-1.));
#1030=DIRECTION('',(0.,0.,-1.));
#1031=DIRECTION('',(0.,0.,-1.));
#1032=DIRECTION('',(1.,4.89858719658941E-16,0.));
#1033=DIRECTION('',(0.,0.,-1.));
#1034=DIRECTION('',(1.,4.89858719658941E-16,0.));
#1035=DIRECTION('',(0.,0.,-1.));
#1036=DIRECTION('',(1.,4.89858719658941E-16,0.));
#1037=DIRECTION('',(0.,0.,-1.));
#1038=DIRECTION('',(1.,4.89858719658941E-16,0.));
#1039=DIRECTION('',(0.,0.,1.));
#1040=DIRECTION('',(-1.,-4.89858719658941E-16,0.));
#1041=DIRECTION('',(0.,0.,1.));
#1042=DIRECTION('',(-1.,-4.89858719658941E-16,0.));
#1043=DIRECTION('',(0.,0.,-1.));
#1044=DIRECTION('',(1.,4.89858719658941E-16,0.));
#1045=DIRECTION('',(0.,0.,1.));
#1046=DIRECTION('',(-1.,-4.89858719658941E-16,0.));
#1047=DIRECTION('',(0.,0.,-1.));
#1048=DIRECTION('',(1.,4.89858719658941E-16,0.));
#1049=CARTESIAN_POINT('',(0.,0.,0.));
#1050=CARTESIAN_POINT('',(-0.0197715825552521,0.,0.05));
#1051=CARTESIAN_POINT('',(-0.01125,2.0871857599919E-18,0.003));
#1052=CARTESIAN_POINT('',(-0.0222928932188134,-6.17543006757275E-19,0.003));
#1053=CARTESIAN_POINT('',(0.0222928932188134,1.03028251229041E-17,0.003));
#1054=CARTESIAN_POINT('',(-0.0222928932188134,-6.17543006757275E-19,0.05));
#1055=CARTESIAN_POINT('',(-0.0222928932188134,-6.17543006757275E-19,0.05));
#1056=CARTESIAN_POINT('',(-0.0197715825552521,0.,0.05));
#1057=CARTESIAN_POINT('',(0.0222928932188134,1.03028251229041E-17,0.05));
#1058=CARTESIAN_POINT('',(0.0222928932188134,1.03028251229041E-17,0.05));
#1059=CARTESIAN_POINT('',(-0.0359315461412313,0.0134315461412314,0.05));
#1060=CARTESIAN_POINT('',(-0.0359315461412313,0.0134315461412314,0.05));
#1061=CARTESIAN_POINT('',(-0.0226464466094067,0.000146446609406726,0.05));
#1062=CARTESIAN_POINT('',(-0.0473535533905932,0.0248535533905933,0.05));
#1063=CARTESIAN_POINT('',(-0.0226464466094067,0.000146446609406726,0.003));
#1064=CARTESIAN_POINT('',(-0.0226464466094067,0.000146446609406726,0.003));
#1065=CARTESIAN_POINT('',(-0.035,0.0125,0.003));
#1066=CARTESIAN_POINT('',(-0.0473535533905932,0.0248535533905933,0.003));
#1067=CARTESIAN_POINT('',(-0.0473535533905932,0.0248535533905933,0.05));
#1068=CARTESIAN_POINT('',(-0.0475,-0.0284352533684083,0.05));
#1069=CARTESIAN_POINT('',(-0.0475,-0.0284352533684083,0.05));
#1070=CARTESIAN_POINT('',(-0.0475,0.0252071067811865,0.05));
#1071=CARTESIAN_POINT('',(-0.0475,0.0745,0.05));
#1072=CARTESIAN_POINT('',(-0.0475,0.0252071067811865,0.003));
#1073=CARTESIAN_POINT('',(-0.0475,0.0252071067811865,0.003));
#1074=CARTESIAN_POINT('',(-0.0475,0.04375,0.003));
#1075=CARTESIAN_POINT('',(-0.0475,0.063,0.003));
#1076=CARTESIAN_POINT('',(-0.0475,0.063,0.05));
#1077=CARTESIAN_POINT('',(-0.0475,0.063,0.));
#1078=CARTESIAN_POINT('',(-0.0475,-0.0284352533684083,0.));
#1079=CARTESIAN_POINT('',(-0.0475,0.0745,0.));
#1080=CARTESIAN_POINT('',(-0.0475,0.0745,0.05));
#1081=CARTESIAN_POINT('',(-0.0519784174447479,0.075,0.05));
#1082=CARTESIAN_POINT('',(-0.0519784174447479,0.075,0.));
#1083=CARTESIAN_POINT('',(-0.047,0.075,0.));
#1084=CARTESIAN_POINT('',(-0.04,0.075,0.));
#1085=CARTESIAN_POINT('',(-0.04,0.075,0.05));
#1086=CARTESIAN_POINT('',(-0.04,0.075,0.05));
#1087=CARTESIAN_POINT('',(-0.0519784174447479,0.075,0.05));
#1088=CARTESIAN_POINT('',(-0.047,0.075,0.05));
#1089=CARTESIAN_POINT('',(-0.047,0.075,0.));
#1090=CARTESIAN_POINT('',(-0.0395,0.075,0.05));
#1091=CARTESIAN_POINT('',(-0.0395,0.075,0.05));
#1092=CARTESIAN_POINT('',(-0.0395,0.0755,0.05));
#1093=CARTESIAN_POINT('',(-0.0395,0.0775,0.05));
#1094=CARTESIAN_POINT('',(-0.0395,0.0755,0.05));
#1095=CARTESIAN_POINT('',(-0.0395,0.0755,0.));
#1096=CARTESIAN_POINT('',(-0.0395,0.075,0.));
#1097=CARTESIAN_POINT('',(-0.0395,0.0775,0.));
#1098=CARTESIAN_POINT('',(-0.0395,0.0775,0.05));
#1099=CARTESIAN_POINT('',(-0.0519784174447479,0.078,0.05));
#1100=CARTESIAN_POINT('',(-0.0519784174447479,0.078,0.05));
#1101=CARTESIAN_POINT('',(-0.04,0.078,0.05));
#1102=CARTESIAN_POINT('',(-0.05,0.078,0.05));
#1103=CARTESIAN_POINT('',(-0.04,0.078,0.05));
#1104=CARTESIAN_POINT('',(-0.04,0.078,0.));
#1105=CARTESIAN_POINT('',(-0.0519784174447479,0.078,0.));
#1106=CARTESIAN_POINT('',(-0.05,0.078,0.));
#1107=CARTESIAN_POINT('',(-0.05,0.078,0.05));
#1108=CARTESIAN_POINT('',(-0.0505,-0.0284352533684083,0.05));
#1109=CARTESIAN_POINT('',(-0.0505,-0.0284352533684083,0.));
#1110=CARTESIAN_POINT('',(-0.0505,0.0775,0.));
#1111=CARTESIAN_POINT('',(-0.0505,0.0239644660940673,0.));
#1112=CARTESIAN_POINT('',(-0.0505,0.0239644660940673,0.05));
#1113=CARTESIAN_POINT('',(-0.0505,0.0239644660940673,0.05));
#1114=CARTESIAN_POINT('',(-0.0505,-0.0284352533684083,0.05));
#1115=CARTESIAN_POINT('',(-0.0505,0.0775,0.05));
#1116=CARTESIAN_POINT('',(-0.0505,0.0775,0.05));
#1117=CARTESIAN_POINT('',(-0.038052866484791,0.0113102257976717,0.05));
#1118=CARTESIAN_POINT('',(-0.038052866484791,0.0113102257976717,0.));
#1119=CARTESIAN_POINT('',(-0.0503535533905932,0.023610912703474,0.));
#1120=CARTESIAN_POINT('',(-0.0238890872965259,-0.00285355339059328,0.));
#1121=CARTESIAN_POINT('',(-0.0238890872965259,-0.00285355339059328,0.05));
#1122=CARTESIAN_POINT('',(-0.0238890872965259,-0.00285355339059328,0.05));
#1123=CARTESIAN_POINT('',(-0.038052866484791,0.0113102257976717,0.05));
#1124=CARTESIAN_POINT('',(-0.0503535533905932,0.023610912703474,0.05));
#1125=CARTESIAN_POINT('',(-0.0503535533905932,0.023610912703474,0.05));
#1126=CARTESIAN_POINT('',(-0.0197715825552521,-0.003,0.05));
#1127=CARTESIAN_POINT('',(-0.0197715825552521,-0.003,0.05));
#1128=CARTESIAN_POINT('',(-0.0235355339059326,-0.003,0.05));
#1129=CARTESIAN_POINT('',(0.0235355339059326,-0.003,0.05));
#1130=CARTESIAN_POINT('',(-0.0235355339059326,-0.003,0.05));
#1131=CARTESIAN_POINT('',(-0.0235355339059326,-0.003,0.));
#1132=CARTESIAN_POINT('',(-0.0197715825552521,-0.003,0.));
#1133=CARTESIAN_POINT('',(0.0235355339059326,-0.003,0.));
#1134=CARTESIAN_POINT('',(0.0235355339059326,-0.003,0.05));
#1135=CARTESIAN_POINT('',(0.,0.,0.05));
#1136=CARTESIAN_POINT('',(-0.04,0.0755,0.05));
#1137=CARTESIAN_POINT('',(-0.04,0.0775,0.05));
#1138=CARTESIAN_POINT('',(-0.05,0.0775,0.05));
#1139=CARTESIAN_POINT('',(-0.05,0.0239644660940673,0.05));
#1140=CARTESIAN_POINT('',(-0.0235355339059326,-0.0025,0.05));
#1141=CARTESIAN_POINT('',(0.0235355339059326,-0.0025,0.05));
#1142=CARTESIAN_POINT('',(0.0238890872965259,-0.00285355339059327,0.05));
#1143=CARTESIAN_POINT('',(0.038052866484791,0.0113102257976717,0.05));
#1144=CARTESIAN_POINT('',(0.0503535533905932,0.023610912703474,0.05));
#1145=CARTESIAN_POINT('',(0.05,0.0239644660940673,0.05));
#1146=CARTESIAN_POINT('',(0.0505,0.0239644660940673,0.05));
#1147=CARTESIAN_POINT('',(0.0505,-0.0284352533684083,0.05));
#1148=CARTESIAN_POINT('',(0.0505,0.0775,0.05));
#1149=CARTESIAN_POINT('',(0.05,0.0775,0.05));
#1150=CARTESIAN_POINT('',(0.05,0.078,0.05));
#1151=CARTESIAN_POINT('',(0.0519784174447478,0.078,0.05));
#1152=CARTESIAN_POINT('',(0.04,0.078,0.05));
#1153=CARTESIAN_POINT('',(0.04,0.0775,0.05));
#1154=CARTESIAN_POINT('',(0.0395,0.0775,0.05));
#1155=CARTESIAN_POINT('',(0.0395,0.075,0.05));
#1156=CARTESIAN_POINT('',(0.0395,0.0755,0.05));
#1157=CARTESIAN_POINT('',(0.04,0.0755,0.05));
#1158=CARTESIAN_POINT('',(0.04,0.075,0.05));
#1159=CARTESIAN_POINT('',(0.0519784174447478,0.075,0.05));
#1160=CARTESIAN_POINT('',(0.047,0.075,0.05));
#1161=CARTESIAN_POINT('',(0.047,0.0745,0.05));
#1162=CARTESIAN_POINT('',(0.0475,0.0745,0.05));
#1163=CARTESIAN_POINT('',(0.0475,-0.0284352533684083,0.05));
#1164=CARTESIAN_POINT('',(0.0475,0.0252071067811865,0.05));
#1165=CARTESIAN_POINT('',(0.047,0.0252071067811865,0.05));
#1166=CARTESIAN_POINT('',(0.0473535533905932,0.0248535533905933,0.05));
#1167=CARTESIAN_POINT('',(0.0359315461412313,0.0134315461412314,0.05));
#1168=CARTESIAN_POINT('',(0.0226464466094067,0.000146446609406737,0.05));
#1169=CARTESIAN_POINT('',(0.0222928932188134,0.000500000000000011,0.05));
#1170=CARTESIAN_POINT('',(-0.0222928932188134,0.0005,0.05));
#1171=CARTESIAN_POINT('',(-0.047,0.0252071067811865,0.05));
#1172=CARTESIAN_POINT('',(-0.047,0.0745,0.05));
#1173=CARTESIAN_POINT('',(0.,0.,0.));
#1174=CARTESIAN_POINT('',(-0.04,0.0755,0.));
#1175=CARTESIAN_POINT('',(-0.047,0.0745,0.));
#1176=CARTESIAN_POINT('',(-0.047,0.063,0.));
#1177=CARTESIAN_POINT('',(-0.047,0.0625,0.));
#1178=CARTESIAN_POINT('',(-0.02375,0.0625,0.));
#1179=CARTESIAN_POINT('',(0.047,0.0625,0.));
#1180=CARTESIAN_POINT('',(0.047,0.063,0.));
#1181=CARTESIAN_POINT('',(0.0475,0.063,0.));
#1182=CARTESIAN_POINT('',(0.0475,-0.0284352533684083,0.));
#1183=CARTESIAN_POINT('',(0.0475,0.0745,0.));
#1184=CARTESIAN_POINT('',(0.047,0.0745,0.));
#1185=CARTESIAN_POINT('',(0.047,0.075,0.));
#1186=CARTESIAN_POINT('',(0.0519784174447478,0.075,0.));
#1187=CARTESIAN_POINT('',(0.04,0.075,0.));
#1188=CARTESIAN_POINT('',(0.04,0.0755,0.));
#1189=CARTESIAN_POINT('',(0.0395,0.0755,0.));
#1190=CARTESIAN_POINT('',(0.0395,0.075,0.));
#1191=CARTESIAN_POINT('',(0.0395,0.0775,0.));
#1192=CARTESIAN_POINT('',(0.04,0.0775,0.));
#1193=CARTESIAN_POINT('',(0.04,0.078,0.));
#1194=CARTESIAN_POINT('',(0.0519784174447478,0.078,0.));
#1195=CARTESIAN_POINT('',(0.05,0.078,0.));
#1196=CARTESIAN_POINT('',(0.05,0.0775,0.));
#1197=CARTESIAN_POINT('',(0.0505,0.0775,0.));
#1198=CARTESIAN_POINT('',(0.0505,-0.0284352533684083,0.));
#1199=CARTESIAN_POINT('',(0.0505,0.0239644660940673,0.));
#1200=CARTESIAN_POINT('',(0.05,0.0239644660940673,0.));
#1201=CARTESIAN_POINT('',(0.0503535533905932,0.023610912703474,0.));
#1202=CARTESIAN_POINT('',(0.038052866484791,0.0113102257976717,0.));
#1203=CARTESIAN_POINT('',(0.0238890872965259,-0.00285355339059327,0.));
#1204=CARTESIAN_POINT('',(0.0235355339059326,-0.0025,0.));
#1205=CARTESIAN_POINT('',(-0.0235355339059326,-0.0025,0.));
#1206=CARTESIAN_POINT('',(-0.05,0.0239644660940673,0.));
#1207=CARTESIAN_POINT('',(-0.05,0.0775,0.));
#1208=CARTESIAN_POINT('',(-0.04,0.0775,0.));
#1209=CARTESIAN_POINT('',(-0.02375,0.0625,0.003));
#1210=CARTESIAN_POINT('',(-0.047,0.0625,0.003));
#1211=CARTESIAN_POINT('',(-0.047,0.0625,0.003));
#1212=CARTESIAN_POINT('',(-0.02375,0.0625,0.003));
#1213=CARTESIAN_POINT('',(0.047,0.0625,0.003));
#1214=CARTESIAN_POINT('',(0.047,0.0625,0.003));
#1215=CARTESIAN_POINT('',(-0.02375,0.0375,0.003));
#1216=CARTESIAN_POINT('',(-0.0222928932188134,0.0005,0.003));
#1217=CARTESIAN_POINT('',(0.0222928932188134,0.000500000000000011,0.003));
#1218=CARTESIAN_POINT('',(0.0226464466094067,0.000146446609406737,0.003));
#1219=CARTESIAN_POINT('',(0.035,0.0125,0.003));
#1220=CARTESIAN_POINT('',(0.0473535533905932,0.0248535533905933,0.003));
#1221=CARTESIAN_POINT('',(0.047,0.0252071067811865,0.003));
#1222=CARTESIAN_POINT('',(0.0475,0.0252071067811865,0.003));
#1223=CARTESIAN_POINT('',(0.0475,0.04375,0.003));
#1224=CARTESIAN_POINT('',(0.0475,0.063,0.003));
#1225=CARTESIAN_POINT('',(0.047,0.063,0.003));
#1226=CARTESIAN_POINT('',(-0.047,0.063,0.003));
#1227=CARTESIAN_POINT('',(-0.047,0.0252071067811865,0.003));
#1228=CARTESIAN_POINT('',(-0.04,0.0755,0.05));
#1229=CARTESIAN_POINT('',(-0.04,0.0775,0.05));
#1230=CARTESIAN_POINT('',(-0.0235355339059326,-0.0025,0.05));
#1231=CARTESIAN_POINT('',(-0.05,0.0239644660940673,0.05));
#1232=CARTESIAN_POINT('',(-0.0222928932188134,0.0005,0.05));
#1233=CARTESIAN_POINT('',(-0.047,0.0252071067811865,0.05));
#1234=CARTESIAN_POINT('',(-0.047,0.063,0.05));
#1235=CARTESIAN_POINT('',(-0.047,0.0745,0.05));
#1236=CARTESIAN_POINT('',(-0.05,0.0775,0.05));
#1237=CARTESIAN_POINT('',(0.0359315461412313,0.0134315461412314,0.05));
#1238=CARTESIAN_POINT('',(0.0473535533905932,0.0248535533905933,0.05));
#1239=CARTESIAN_POINT('',(0.0226464466094067,0.000146446609406737,0.003));
#1240=CARTESIAN_POINT('',(0.0475,-0.0284352533684083,0.05));
#1241=CARTESIAN_POINT('',(0.0475,0.0745,0.05));
#1242=CARTESIAN_POINT('',(0.0475,0.063,0.05));
#1243=CARTESIAN_POINT('',(0.0475,0.0252071067811865,0.003));
#1244=CARTESIAN_POINT('',(0.0519784174447478,0.075,0.05));
#1245=CARTESIAN_POINT('',(0.047,0.075,0.));
#1246=CARTESIAN_POINT('',(0.04,0.075,0.05));
#1247=CARTESIAN_POINT('',(0.0395,0.075,0.05));
#1248=CARTESIAN_POINT('',(0.0395,0.0775,0.05));
#1249=CARTESIAN_POINT('',(0.0395,0.0755,0.05));
#1250=CARTESIAN_POINT('',(0.0519784174447478,0.078,0.05));
#1251=CARTESIAN_POINT('',(0.05,0.078,0.05));
#1252=CARTESIAN_POINT('',(0.04,0.078,0.05));
#1253=CARTESIAN_POINT('',(0.0505,-0.0284352533684083,0.05));
#1254=CARTESIAN_POINT('',(0.0505,0.0775,0.05));
#1255=CARTESIAN_POINT('',(0.0505,0.0239644660940673,0.05));
#1256=CARTESIAN_POINT('',(0.038052866484791,0.0113102257976717,0.05));
#1257=CARTESIAN_POINT('',(0.0503535533905932,0.023610912703474,0.05));
#1258=CARTESIAN_POINT('',(0.0238890872965259,-0.00285355339059327,0.05));
#1259=CARTESIAN_POINT('',(0.04,0.0755,0.05));
#1260=CARTESIAN_POINT('',(0.04,0.0775,0.05));
#1261=CARTESIAN_POINT('',(0.0235355339059326,-0.0025,0.05));
#1262=CARTESIAN_POINT('',(0.05,0.0239644660940673,0.05));
#1263=CARTESIAN_POINT('',(0.0222928932188134,0.000500000000000011,0.05));
#1264=CARTESIAN_POINT('',(0.047,0.0252071067811865,0.05));
#1265=CARTESIAN_POINT('',(0.047,0.063,0.05));
#1266=CARTESIAN_POINT('',(0.047,0.0745,0.05));
#1267=CARTESIAN_POINT('',(0.05,0.0775,0.05));
#1268=MECHANICAL_DESIGN_GEOMETRIC_PRESENTATION_REPRESENTATION('',(#741),
#1269);
#1269=(
GEOMETRIC_REPRESENTATION_CONTEXT(3)
GLOBAL_UNCERTAINTY_ASSIGNED_CONTEXT((#1270))
GLOBAL_UNIT_ASSIGNED_CONTEXT((#1273,#1272,#1271))
REPRESENTATION_CONTEXT('Part 1','TOP_LEVEL_ASSEMBLY_PART')
);
#1270=UNCERTAINTY_MEASURE_WITH_UNIT(LENGTH_MEASURE(1.E-8),#1273,
'DISTANCE_ACCURACY_VALUE','Maximum Tolerance applied to model');
#1271=(
NAMED_UNIT(*)
SI_UNIT($,.STERADIAN.)
SOLID_ANGLE_UNIT()
);
#1272=(
NAMED_UNIT(*)
PLANE_ANGLE_UNIT()
SI_UNIT($,.RADIAN.)
);
#1273=(
LENGTH_UNIT()
NAMED_UNIT(*)
SI_UNIT($,.METRE.)
);
#1274=PRODUCT_DEFINITION_SHAPE('','',#1275);
#1275=PRODUCT_DEFINITION('','',#1277,#1276);
#1276=PRODUCT_DEFINITION_CONTEXT('',#1283,'design');
#1277=PRODUCT_DEFINITION_FORMATION_WITH_SPECIFIED_SOURCE('','',#1279,
 .NOT_KNOWN.);
#1278=PRODUCT_RELATED_PRODUCT_CATEGORY('','',(#1279));
#1279=PRODUCT('Part 1','Part 1','Part 1',(#1281));
#1280=PRODUCT_CATEGORY('','');
#1281=PRODUCT_CONTEXT('',#1283,'mechanical');
#1282=APPLICATION_PROTOCOL_DEFINITION('international standard',
'ap242_managed_model_based_3d_engineering',2020,#1283);
#1283=APPLICATION_CONTEXT('managed model based 3d engineering');
ENDSEC;
END-ISO-10303-21;
