ISO-10303-21;
HEADER;
/* Generated by software containing ST-Developer
 * from STEP Tools, Inc. (www.steptools.com) 
 */
/* OPTION: using custom renumber hook */

FILE_DESCRIPTION(
/* description */ ('STEP AP242 Edition 2',
'CAx-IF Rec.Pracs.---Representation and Presentation of Product Manufa
cturing Information (PMI)---4.0---2014-10-13',
'CAx-IF Rec.Pracs.---3D Tessellated Geometry---0.4---2014-09-14','2;1',
'CAx-IF Rec.Pracs.---User Defined Attributes---1.5---2016-08-15'),
/* implementation_level */ '2;1');

FILE_NAME(
/* name */ 
'Pipette Holder for 2-200microliter tips parts - Pipette Holder',
/* time_stamp */ '2026-06-25T03:30:29Z',
/* author */ (''),
/* organization */ (''),
/* preprocessor_version */ 'ST-DEVELOPER v20',
/* originating_system */ 'ONSHAPE BY PTC INC, 1.216',
/* authorisation */ '  ');

FILE_SCHEMA (('AP242_MANAGED_MODEL_BASED_3D_ENGINEERING_MIM_LF { 1 0 10303 442 3 1 4 }'));
ENDSEC;

DATA;
#10=SHAPE_REPRESENTATION_RELATIONSHIP('','',#1239,#11);
#11=ADVANCED_BREP_SHAPE_REPRESENTATION('',(#1237),#1943);
#12=B_SPLINE_CURVE_WITH_KNOTS('',3,(#1657,#1658,#1659,#1660),
 .UNSPECIFIED.,.F.,.F.,(4,4),(0.000149231457991494,1.),.UNSPECIFIED.);
#13=B_SPLINE_CURVE_WITH_KNOTS('',3,(#1700,#1701,#1702,#1703),
 .UNSPECIFIED.,.F.,.F.,(4,4),(0.,0.999850768542008),.UNSPECIFIED.);
#14=ORIENTED_EDGE('',*,*,#362,.F.);
#15=ORIENTED_EDGE('',*,*,#363,.T.);
#16=ORIENTED_EDGE('',*,*,#364,.T.);
#17=ORIENTED_EDGE('',*,*,#365,.T.);
#18=ORIENTED_EDGE('',*,*,#366,.T.);
#19=ORIENTED_EDGE('',*,*,#367,.T.);
#20=ORIENTED_EDGE('',*,*,#368,.T.);
#21=ORIENTED_EDGE('',*,*,#369,.T.);
#22=ORIENTED_EDGE('',*,*,#370,.T.);
#23=ORIENTED_EDGE('',*,*,#371,.F.);
#24=ORIENTED_EDGE('',*,*,#372,.F.);
#25=ORIENTED_EDGE('',*,*,#373,.F.);
#26=ORIENTED_EDGE('',*,*,#374,.F.);
#27=ORIENTED_EDGE('',*,*,#375,.T.);
#28=ORIENTED_EDGE('',*,*,#376,.F.);
#29=ORIENTED_EDGE('',*,*,#377,.F.);
#30=ORIENTED_EDGE('',*,*,#369,.F.);
#31=ORIENTED_EDGE('',*,*,#378,.T.);
#32=ORIENTED_EDGE('',*,*,#379,.F.);
#33=ORIENTED_EDGE('',*,*,#380,.F.);
#34=ORIENTED_EDGE('',*,*,#381,.F.);
#35=ORIENTED_EDGE('',*,*,#382,.F.);
#36=ORIENTED_EDGE('',*,*,#383,.F.);
#37=ORIENTED_EDGE('',*,*,#384,.F.);
#38=ORIENTED_EDGE('',*,*,#385,.F.);
#39=ORIENTED_EDGE('',*,*,#386,.F.);
#40=ORIENTED_EDGE('',*,*,#387,.T.);
#41=ORIENTED_EDGE('',*,*,#388,.F.);
#42=ORIENTED_EDGE('',*,*,#389,.F.);
#43=ORIENTED_EDGE('',*,*,#390,.T.);
#44=ORIENTED_EDGE('',*,*,#391,.T.);
#45=ORIENTED_EDGE('',*,*,#383,.T.);
#46=ORIENTED_EDGE('',*,*,#392,.F.);
#47=ORIENTED_EDGE('',*,*,#393,.F.);
#48=ORIENTED_EDGE('',*,*,#394,.F.);
#49=ORIENTED_EDGE('',*,*,#395,.F.);
#50=ORIENTED_EDGE('',*,*,#396,.T.);
#51=ORIENTED_EDGE('',*,*,#397,.T.);
#52=ORIENTED_EDGE('',*,*,#398,.F.);
#53=ORIENTED_EDGE('',*,*,#399,.T.);
#54=ORIENTED_EDGE('',*,*,#379,.T.);
#55=ORIENTED_EDGE('',*,*,#400,.F.);
#56=ORIENTED_EDGE('',*,*,#401,.F.);
#57=ORIENTED_EDGE('',*,*,#402,.T.);
#58=ORIENTED_EDGE('',*,*,#403,.F.);
#59=ORIENTED_EDGE('',*,*,#404,.T.);
#60=ORIENTED_EDGE('',*,*,#405,.F.);
#61=ORIENTED_EDGE('',*,*,#406,.F.);
#62=ORIENTED_EDGE('',*,*,#407,.F.);
#63=ORIENTED_EDGE('',*,*,#392,.T.);
#64=ORIENTED_EDGE('',*,*,#382,.T.);
#65=ORIENTED_EDGE('',*,*,#408,.T.);
#66=ORIENTED_EDGE('',*,*,#401,.T.);
#67=ORIENTED_EDGE('',*,*,#381,.T.);
#68=ORIENTED_EDGE('',*,*,#409,.F.);
#69=ORIENTED_EDGE('',*,*,#402,.F.);
#70=ORIENTED_EDGE('',*,*,#408,.F.);
#71=ORIENTED_EDGE('',*,*,#410,.T.);
#72=ORIENTED_EDGE('',*,*,#389,.T.);
#73=ORIENTED_EDGE('',*,*,#411,.T.);
#74=ORIENTED_EDGE('',*,*,#412,.F.);
#75=ORIENTED_EDGE('',*,*,#413,.T.);
#76=ORIENTED_EDGE('',*,*,#414,.F.);
#77=ORIENTED_EDGE('',*,*,#415,.T.);
#78=ORIENTED_EDGE('',*,*,#416,.F.);
#79=ORIENTED_EDGE('',*,*,#417,.F.);
#80=ORIENTED_EDGE('',*,*,#418,.F.);
#81=ORIENTED_EDGE('',*,*,#385,.T.);
#82=ORIENTED_EDGE('',*,*,#419,.F.);
#83=ORIENTED_EDGE('',*,*,#420,.F.);
#84=ORIENTED_EDGE('',*,*,#421,.T.);
#85=ORIENTED_EDGE('',*,*,#422,.F.);
#86=ORIENTED_EDGE('',*,*,#423,.F.);
#87=ORIENTED_EDGE('',*,*,#424,.F.);
#88=ORIENTED_EDGE('',*,*,#425,.F.);
#89=ORIENTED_EDGE('',*,*,#426,.F.);
#90=ORIENTED_EDGE('',*,*,#411,.F.);
#91=ORIENTED_EDGE('',*,*,#388,.T.);
#92=ORIENTED_EDGE('',*,*,#427,.T.);
#93=ORIENTED_EDGE('',*,*,#420,.T.);
#94=ORIENTED_EDGE('',*,*,#387,.F.);
#95=ORIENTED_EDGE('',*,*,#428,.F.);
#96=ORIENTED_EDGE('',*,*,#421,.F.);
#97=ORIENTED_EDGE('',*,*,#427,.F.);
#98=ORIENTED_EDGE('',*,*,#429,.F.);
#99=ORIENTED_EDGE('',*,*,#430,.F.);
#100=ORIENTED_EDGE('',*,*,#423,.T.);
#101=ORIENTED_EDGE('',*,*,#419,.T.);
#102=ORIENTED_EDGE('',*,*,#418,.T.);
#103=ORIENTED_EDGE('',*,*,#431,.F.);
#104=ORIENTED_EDGE('',*,*,#432,.F.);
#105=ORIENTED_EDGE('',*,*,#433,.F.);
#106=ORIENTED_EDGE('',*,*,#429,.T.);
#107=ORIENTED_EDGE('',*,*,#422,.T.);
#108=ORIENTED_EDGE('',*,*,#428,.T.);
#109=ORIENTED_EDGE('',*,*,#386,.T.);
#110=ORIENTED_EDGE('',*,*,#434,.T.);
#111=ORIENTED_EDGE('',*,*,#435,.F.);
#112=ORIENTED_EDGE('',*,*,#404,.F.);
#113=ORIENTED_EDGE('',*,*,#400,.T.);
#114=ORIENTED_EDGE('',*,*,#399,.F.);
#115=ORIENTED_EDGE('',*,*,#436,.F.);
#116=ORIENTED_EDGE('',*,*,#437,.F.);
#117=ORIENTED_EDGE('',*,*,#438,.F.);
#118=ORIENTED_EDGE('',*,*,#434,.F.);
#119=ORIENTED_EDGE('',*,*,#403,.T.);
#120=ORIENTED_EDGE('',*,*,#409,.T.);
#121=ORIENTED_EDGE('',*,*,#380,.T.);
#122=ORIENTED_EDGE('',*,*,#439,.T.);
#123=ORIENTED_EDGE('',*,*,#440,.T.);
#124=ORIENTED_EDGE('',*,*,#441,.F.);
#125=ORIENTED_EDGE('',*,*,#442,.T.);
#126=ORIENTED_EDGE('',*,*,#396,.F.);
#127=ORIENTED_EDGE('',*,*,#395,.T.);
#128=ORIENTED_EDGE('',*,*,#394,.T.);
#129=ORIENTED_EDGE('',*,*,#443,.F.);
#130=ORIENTED_EDGE('',*,*,#416,.T.);
#131=ORIENTED_EDGE('',*,*,#415,.F.);
#132=ORIENTED_EDGE('',*,*,#414,.T.);
#133=ORIENTED_EDGE('',*,*,#413,.F.);
#134=ORIENTED_EDGE('',*,*,#384,.T.);
#135=ORIENTED_EDGE('',*,*,#391,.F.);
#136=ORIENTED_EDGE('',*,*,#444,.F.);
#137=ORIENTED_EDGE('',*,*,#365,.F.);
#138=ORIENTED_EDGE('',*,*,#445,.T.);
#139=ORIENTED_EDGE('',*,*,#446,.F.);
#140=ORIENTED_EDGE('',*,*,#447,.F.);
#141=ORIENTED_EDGE('',*,*,#448,.T.);
#142=ORIENTED_EDGE('',*,*,#449,.T.);
#143=ORIENTED_EDGE('',*,*,#397,.F.);
#144=ORIENTED_EDGE('',*,*,#378,.F.);
#145=ORIENTED_EDGE('',*,*,#368,.F.);
#146=ORIENTED_EDGE('',*,*,#450,.T.);
#147=ORIENTED_EDGE('',*,*,#451,.T.);
#148=ORIENTED_EDGE('',*,*,#452,.F.);
#149=ORIENTED_EDGE('',*,*,#370,.F.);
#150=ORIENTED_EDGE('',*,*,#390,.F.);
#151=ORIENTED_EDGE('',*,*,#410,.F.);
#152=ORIENTED_EDGE('',*,*,#453,.T.);
#153=ORIENTED_EDGE('',*,*,#454,.T.);
#154=ORIENTED_EDGE('',*,*,#455,.T.);
#155=ORIENTED_EDGE('',*,*,#456,.F.);
#156=ORIENTED_EDGE('',*,*,#457,.T.);
#157=ORIENTED_EDGE('',*,*,#458,.T.);
#158=ORIENTED_EDGE('',*,*,#459,.F.);
#159=ORIENTED_EDGE('',*,*,#460,.F.);
#160=ORIENTED_EDGE('',*,*,#461,.F.);
#161=ORIENTED_EDGE('',*,*,#462,.F.);
#162=ORIENTED_EDGE('',*,*,#463,.F.);
#163=ORIENTED_EDGE('',*,*,#464,.T.);
#164=ORIENTED_EDGE('',*,*,#460,.T.);
#165=ORIENTED_EDGE('',*,*,#465,.F.);
#166=ORIENTED_EDGE('',*,*,#466,.T.);
#167=ORIENTED_EDGE('',*,*,#467,.T.);
#168=ORIENTED_EDGE('',*,*,#468,.T.);
#169=ORIENTED_EDGE('',*,*,#469,.T.);
#170=ORIENTED_EDGE('',*,*,#441,.T.);
#171=ORIENTED_EDGE('',*,*,#470,.T.);
#172=ORIENTED_EDGE('',*,*,#471,.T.);
#173=ORIENTED_EDGE('',*,*,#472,.T.);
#174=ORIENTED_EDGE('',*,*,#473,.T.);
#175=ORIENTED_EDGE('',*,*,#474,.F.);
#176=ORIENTED_EDGE('',*,*,#440,.F.);
#177=ORIENTED_EDGE('',*,*,#475,.T.);
#178=ORIENTED_EDGE('',*,*,#476,.T.);
#179=ORIENTED_EDGE('',*,*,#470,.F.);
#180=ORIENTED_EDGE('',*,*,#477,.F.);
#181=ORIENTED_EDGE('',*,*,#473,.F.);
#182=ORIENTED_EDGE('',*,*,#478,.F.);
#183=ORIENTED_EDGE('',*,*,#479,.T.);
#184=ORIENTED_EDGE('',*,*,#471,.F.);
#185=ORIENTED_EDGE('',*,*,#476,.F.);
#186=ORIENTED_EDGE('',*,*,#480,.T.);
#187=ORIENTED_EDGE('',*,*,#481,.F.);
#188=ORIENTED_EDGE('',*,*,#482,.F.);
#189=ORIENTED_EDGE('',*,*,#483,.T.);
#190=ORIENTED_EDGE('',*,*,#484,.F.);
#191=ORIENTED_EDGE('',*,*,#466,.F.);
#192=ORIENTED_EDGE('',*,*,#442,.F.);
#193=ORIENTED_EDGE('',*,*,#469,.F.);
#194=ORIENTED_EDGE('',*,*,#485,.T.);
#195=ORIENTED_EDGE('',*,*,#486,.T.);
#196=ORIENTED_EDGE('',*,*,#467,.F.);
#197=ORIENTED_EDGE('',*,*,#484,.T.);
#198=ORIENTED_EDGE('',*,*,#487,.T.);
#199=ORIENTED_EDGE('',*,*,#488,.F.);
#200=ORIENTED_EDGE('',*,*,#488,.T.);
#201=ORIENTED_EDGE('',*,*,#489,.T.);
#202=ORIENTED_EDGE('',*,*,#485,.F.);
#203=ORIENTED_EDGE('',*,*,#468,.F.);
#204=ORIENTED_EDGE('',*,*,#481,.T.);
#205=ORIENTED_EDGE('',*,*,#490,.T.);
#206=ORIENTED_EDGE('',*,*,#478,.T.);
#207=ORIENTED_EDGE('',*,*,#472,.F.);
#208=ORIENTED_EDGE('',*,*,#376,.T.);
#209=ORIENTED_EDGE('',*,*,#491,.T.);
#210=ORIENTED_EDGE('',*,*,#492,.F.);
#211=ORIENTED_EDGE('',*,*,#493,.F.);
#212=ORIENTED_EDGE('',*,*,#461,.T.);
#213=ORIENTED_EDGE('',*,*,#474,.T.);
#214=ORIENTED_EDGE('',*,*,#477,.T.);
#215=ORIENTED_EDGE('',*,*,#494,.F.);
#216=ORIENTED_EDGE('',*,*,#495,.F.);
#217=ORIENTED_EDGE('',*,*,#496,.T.);
#218=ORIENTED_EDGE('',*,*,#497,.T.);
#219=ORIENTED_EDGE('',*,*,#498,.F.);
#220=ORIENTED_EDGE('',*,*,#459,.T.);
#221=ORIENTED_EDGE('',*,*,#499,.T.);
#222=ORIENTED_EDGE('',*,*,#500,.T.);
#223=ORIENTED_EDGE('',*,*,#501,.F.);
#224=ORIENTED_EDGE('',*,*,#502,.F.);
#225=ORIENTED_EDGE('',*,*,#503,.F.);
#226=ORIENTED_EDGE('',*,*,#482,.T.);
#227=ORIENTED_EDGE('',*,*,#465,.T.);
#228=ORIENTED_EDGE('',*,*,#504,.T.);
#229=ORIENTED_EDGE('',*,*,#372,.T.);
#230=ORIENTED_EDGE('',*,*,#505,.F.);
#231=ORIENTED_EDGE('',*,*,#457,.F.);
#232=ORIENTED_EDGE('',*,*,#374,.T.);
#233=ORIENTED_EDGE('',*,*,#506,.T.);
#234=ORIENTED_EDGE('',*,*,#363,.F.);
#235=ORIENTED_EDGE('',*,*,#507,.F.);
#236=ORIENTED_EDGE('',*,*,#463,.T.);
#237=ORIENTED_EDGE('',*,*,#508,.T.);
#238=ORIENTED_EDGE('',*,*,#366,.F.);
#239=ORIENTED_EDGE('',*,*,#509,.F.);
#240=ORIENTED_EDGE('',*,*,#509,.T.);
#241=ORIENTED_EDGE('',*,*,#373,.T.);
#242=ORIENTED_EDGE('',*,*,#504,.F.);
#243=ORIENTED_EDGE('',*,*,#464,.F.);
#244=ORIENTED_EDGE('',*,*,#444,.T.);
#245=ORIENTED_EDGE('',*,*,#510,.F.);
#246=ORIENTED_EDGE('',*,*,#491,.F.);
#247=ORIENTED_EDGE('',*,*,#375,.F.);
#248=ORIENTED_EDGE('',*,*,#507,.T.);
#249=ORIENTED_EDGE('',*,*,#362,.T.);
#250=ORIENTED_EDGE('',*,*,#511,.F.);
#251=ORIENTED_EDGE('',*,*,#492,.T.);
#252=ORIENTED_EDGE('',*,*,#510,.T.);
#253=ORIENTED_EDGE('',*,*,#451,.F.);
#254=ORIENTED_EDGE('',*,*,#367,.F.);
#255=ORIENTED_EDGE('',*,*,#508,.F.);
#256=ORIENTED_EDGE('',*,*,#462,.T.);
#257=ORIENTED_EDGE('',*,*,#493,.T.);
#258=ORIENTED_EDGE('',*,*,#511,.T.);
#259=ORIENTED_EDGE('',*,*,#450,.F.);
#260=ORIENTED_EDGE('',*,*,#452,.T.);
#261=ORIENTED_EDGE('',*,*,#512,.F.);
#262=ORIENTED_EDGE('',*,*,#499,.F.);
#263=ORIENTED_EDGE('',*,*,#458,.F.);
#264=ORIENTED_EDGE('',*,*,#505,.T.);
#265=ORIENTED_EDGE('',*,*,#371,.T.);
#266=ORIENTED_EDGE('',*,*,#456,.T.);
#267=ORIENTED_EDGE('',*,*,#513,.F.);
#268=ORIENTED_EDGE('',*,*,#500,.F.);
#269=ORIENTED_EDGE('',*,*,#512,.T.);
#270=ORIENTED_EDGE('',*,*,#514,.F.);
#271=ORIENTED_EDGE('',*,*,#515,.T.);
#272=ORIENTED_EDGE('',*,*,#516,.T.);
#273=ORIENTED_EDGE('',*,*,#517,.T.);
#274=ORIENTED_EDGE('',*,*,#454,.F.);
#275=ORIENTED_EDGE('',*,*,#518,.F.);
#276=ORIENTED_EDGE('',*,*,#448,.F.);
#277=ORIENTED_EDGE('',*,*,#519,.F.);
#278=ORIENTED_EDGE('',*,*,#518,.T.);
#279=ORIENTED_EDGE('',*,*,#453,.F.);
#280=ORIENTED_EDGE('',*,*,#412,.T.);
#281=ORIENTED_EDGE('',*,*,#426,.T.);
#282=ORIENTED_EDGE('',*,*,#520,.F.);
#283=ORIENTED_EDGE('',*,*,#431,.T.);
#284=ORIENTED_EDGE('',*,*,#417,.T.);
#285=ORIENTED_EDGE('',*,*,#443,.T.);
#286=ORIENTED_EDGE('',*,*,#393,.T.);
#287=ORIENTED_EDGE('',*,*,#407,.T.);
#288=ORIENTED_EDGE('',*,*,#521,.T.);
#289=ORIENTED_EDGE('',*,*,#436,.T.);
#290=ORIENTED_EDGE('',*,*,#398,.T.);
#291=ORIENTED_EDGE('',*,*,#449,.F.);
#292=ORIENTED_EDGE('',*,*,#435,.T.);
#293=ORIENTED_EDGE('',*,*,#438,.T.);
#294=ORIENTED_EDGE('',*,*,#522,.F.);
#295=ORIENTED_EDGE('',*,*,#405,.T.);
#296=ORIENTED_EDGE('',*,*,#521,.F.);
#297=ORIENTED_EDGE('',*,*,#406,.T.);
#298=ORIENTED_EDGE('',*,*,#522,.T.);
#299=ORIENTED_EDGE('',*,*,#437,.T.);
#300=ORIENTED_EDGE('',*,*,#430,.T.);
#301=ORIENTED_EDGE('',*,*,#433,.T.);
#302=ORIENTED_EDGE('',*,*,#523,.F.);
#303=ORIENTED_EDGE('',*,*,#424,.T.);
#304=ORIENTED_EDGE('',*,*,#520,.T.);
#305=ORIENTED_EDGE('',*,*,#425,.T.);
#306=ORIENTED_EDGE('',*,*,#523,.T.);
#307=ORIENTED_EDGE('',*,*,#432,.T.);
#308=ORIENTED_EDGE('',*,*,#524,.F.);
#309=ORIENTED_EDGE('',*,*,#525,.F.);
#310=ORIENTED_EDGE('',*,*,#526,.T.);
#311=ORIENTED_EDGE('',*,*,#527,.T.);
#312=ORIENTED_EDGE('',*,*,#495,.T.);
#313=ORIENTED_EDGE('',*,*,#528,.T.);
#314=ORIENTED_EDGE('',*,*,#502,.T.);
#315=ORIENTED_EDGE('',*,*,#529,.F.);
#316=ORIENTED_EDGE('',*,*,#528,.F.);
#317=ORIENTED_EDGE('',*,*,#494,.T.);
#318=ORIENTED_EDGE('',*,*,#479,.F.);
#319=ORIENTED_EDGE('',*,*,#490,.F.);
#320=ORIENTED_EDGE('',*,*,#480,.F.);
#321=ORIENTED_EDGE('',*,*,#475,.F.);
#322=ORIENTED_EDGE('',*,*,#439,.F.);
#323=ORIENTED_EDGE('',*,*,#486,.F.);
#324=ORIENTED_EDGE('',*,*,#489,.F.);
#325=ORIENTED_EDGE('',*,*,#487,.F.);
#326=ORIENTED_EDGE('',*,*,#483,.F.);
#327=ORIENTED_EDGE('',*,*,#503,.T.);
#328=ORIENTED_EDGE('',*,*,#530,.F.);
#329=ORIENTED_EDGE('',*,*,#524,.T.);
#330=ORIENTED_EDGE('',*,*,#531,.T.);
#331=ORIENTED_EDGE('',*,*,#516,.F.);
#332=ORIENTED_EDGE('',*,*,#526,.F.);
#333=ORIENTED_EDGE('',*,*,#532,.T.);
#334=ORIENTED_EDGE('',*,*,#514,.T.);
#335=ORIENTED_EDGE('',*,*,#533,.F.);
#336=ORIENTED_EDGE('',*,*,#532,.F.);
#337=ORIENTED_EDGE('',*,*,#525,.T.);
#338=ORIENTED_EDGE('',*,*,#530,.T.);
#339=ORIENTED_EDGE('',*,*,#515,.F.);
#340=ORIENTED_EDGE('',*,*,#445,.F.);
#341=ORIENTED_EDGE('',*,*,#364,.F.);
#342=ORIENTED_EDGE('',*,*,#506,.F.);
#343=ORIENTED_EDGE('',*,*,#377,.T.);
#344=ORIENTED_EDGE('',*,*,#498,.T.);
#345=ORIENTED_EDGE('',*,*,#534,.T.);
#346=ORIENTED_EDGE('',*,*,#535,.T.);
#347=ORIENTED_EDGE('',*,*,#446,.T.);
#348=ORIENTED_EDGE('',*,*,#534,.F.);
#349=ORIENTED_EDGE('',*,*,#497,.F.);
#350=ORIENTED_EDGE('',*,*,#519,.T.);
#351=ORIENTED_EDGE('',*,*,#447,.T.);
#352=ORIENTED_EDGE('',*,*,#535,.F.);
#353=ORIENTED_EDGE('',*,*,#496,.F.);
#354=ORIENTED_EDGE('',*,*,#527,.F.);
#355=ORIENTED_EDGE('',*,*,#533,.T.);
#356=ORIENTED_EDGE('',*,*,#455,.F.);
#357=ORIENTED_EDGE('',*,*,#517,.F.);
#358=ORIENTED_EDGE('',*,*,#531,.F.);
#359=ORIENTED_EDGE('',*,*,#529,.T.);
#360=ORIENTED_EDGE('',*,*,#501,.T.);
#361=ORIENTED_EDGE('',*,*,#513,.T.);
#362=EDGE_CURVE('',#536,#537,#654,.T.);
#363=EDGE_CURVE('',#536,#538,#655,.T.);
#364=EDGE_CURVE('',#538,#539,#656,.T.);
#365=EDGE_CURVE('',#539,#537,#657,.T.);
#366=EDGE_CURVE('',#540,#541,#658,.T.);
#367=EDGE_CURVE('',#541,#542,#659,.T.);
#368=EDGE_CURVE('',#542,#543,#660,.T.);
#369=EDGE_CURVE('',#543,#544,#661,.T.);
#370=EDGE_CURVE('',#544,#545,#662,.T.);
#371=EDGE_CURVE('',#546,#545,#663,.T.);
#372=EDGE_CURVE('',#547,#546,#664,.T.);
#373=EDGE_CURVE('',#540,#547,#665,.T.);
#374=EDGE_CURVE('',#548,#549,#666,.T.);
#375=EDGE_CURVE('',#548,#550,#667,.T.);
#376=EDGE_CURVE('',#551,#550,#668,.F.);
#377=EDGE_CURVE('',#549,#551,#669,.T.);
#378=EDGE_CURVE('',#543,#552,#670,.F.);
#379=EDGE_CURVE('',#553,#552,#671,.T.);
#380=EDGE_CURVE('',#554,#553,#672,.T.);
#381=EDGE_CURVE('',#555,#554,#673,.T.);
#382=EDGE_CURVE('',#556,#555,#674,.T.);
#383=EDGE_CURVE('',#557,#556,#675,.T.);
#384=EDGE_CURVE('',#558,#557,#676,.T.);
#385=EDGE_CURVE('',#559,#558,#677,.T.);
#386=EDGE_CURVE('',#560,#559,#678,.T.);
#387=EDGE_CURVE('',#560,#561,#679,.T.);
#388=EDGE_CURVE('',#562,#561,#680,.T.);
#389=EDGE_CURVE('',#563,#562,#681,.T.);
#390=EDGE_CURVE('',#563,#544,#682,.F.);
#391=EDGE_CURVE('',#564,#557,#683,.T.);
#392=EDGE_CURVE('',#565,#556,#684,.T.);
#393=EDGE_CURVE('',#566,#565,#685,.T.);
#394=EDGE_CURVE('',#567,#566,#686,.T.);
#395=EDGE_CURVE('',#568,#567,#12,.T.);
#396=EDGE_CURVE('',#568,#564,#687,.T.);
#397=EDGE_CURVE('',#552,#569,#688,.T.);
#398=EDGE_CURVE('',#570,#569,#689,.T.);
#399=EDGE_CURVE('',#570,#553,#690,.T.);
#400=EDGE_CURVE('',#571,#572,#691,.T.);
#401=EDGE_CURVE('',#573,#571,#692,.T.);
#402=EDGE_CURVE('',#573,#574,#693,.T.);
#403=EDGE_CURVE('',#572,#574,#694,.T.);
#404=EDGE_CURVE('',#571,#575,#695,.T.);
#405=EDGE_CURVE('',#576,#575,#696,.T.);
#406=EDGE_CURVE('',#577,#576,#697,.T.);
#407=EDGE_CURVE('',#565,#577,#698,.T.);
#408=EDGE_CURVE('',#555,#573,#699,.T.);
#409=EDGE_CURVE('',#574,#554,#700,.T.);
#410=EDGE_CURVE('',#578,#563,#701,.T.);
#411=EDGE_CURVE('',#562,#579,#702,.T.);
#412=EDGE_CURVE('',#578,#579,#703,.T.);
#413=EDGE_CURVE('',#558,#580,#704,.T.);
#414=EDGE_CURVE('',#581,#580,#705,.T.);
#415=EDGE_CURVE('',#581,#582,#13,.F.);
#416=EDGE_CURVE('',#583,#582,#706,.T.);
#417=EDGE_CURVE('',#584,#583,#707,.T.);
#418=EDGE_CURVE('',#559,#584,#708,.T.);
#419=EDGE_CURVE('',#585,#586,#709,.T.);
#420=EDGE_CURVE('',#587,#585,#710,.T.);
#421=EDGE_CURVE('',#587,#588,#711,.T.);
#422=EDGE_CURVE('',#586,#588,#712,.T.);
#423=EDGE_CURVE('',#589,#585,#713,.T.);
#424=EDGE_CURVE('',#590,#589,#714,.T.);
#425=EDGE_CURVE('',#591,#590,#715,.T.);
#426=EDGE_CURVE('',#579,#591,#716,.T.);
#427=EDGE_CURVE('',#561,#587,#717,.T.);
#428=EDGE_CURVE('',#588,#560,#718,.T.);
#429=EDGE_CURVE('',#592,#586,#719,.T.);
#430=EDGE_CURVE('',#589,#592,#720,.T.);
#431=EDGE_CURVE('',#593,#584,#721,.T.);
#432=EDGE_CURVE('',#594,#593,#722,.T.);
#433=EDGE_CURVE('',#592,#594,#723,.T.);
#434=EDGE_CURVE('',#572,#595,#724,.T.);
#435=EDGE_CURVE('',#575,#595,#725,.T.);
#436=EDGE_CURVE('',#596,#570,#726,.T.);
#437=EDGE_CURVE('',#597,#596,#727,.T.);
#438=EDGE_CURVE('',#595,#597,#728,.T.);
#439=EDGE_CURVE('',#598,#599,#729,.T.);
#440=EDGE_CURVE('',#599,#600,#730,.T.);
#441=EDGE_CURVE('',#601,#600,#731,.T.);
#442=EDGE_CURVE('',#601,#598,#732,.T.);
#443=EDGE_CURVE('',#583,#566,#733,.T.);
#444=EDGE_CURVE('',#537,#602,#734,.F.);
#445=EDGE_CURVE('',#539,#603,#735,.F.);
#446=EDGE_CURVE('',#604,#603,#736,.F.);
#447=EDGE_CURVE('',#605,#604,#737,.F.);
#448=EDGE_CURVE('',#605,#606,#738,.T.);
#449=EDGE_CURVE('',#606,#569,#739,.F.);
#450=EDGE_CURVE('',#542,#607,#740,.F.);
#451=EDGE_CURVE('',#607,#602,#741,.F.);
#452=EDGE_CURVE('',#545,#608,#742,.F.);
#453=EDGE_CURVE('',#578,#609,#743,.F.);
#454=EDGE_CURVE('',#609,#610,#744,.T.);
#455=EDGE_CURVE('',#610,#611,#745,.F.);
#456=EDGE_CURVE('',#608,#611,#746,.F.);
#457=EDGE_CURVE('',#612,#613,#747,.T.);
#458=EDGE_CURVE('',#613,#614,#748,.T.);
#459=EDGE_CURVE('',#615,#614,#749,.F.);
#460=EDGE_CURVE('',#616,#615,#750,.T.);
#461=EDGE_CURVE('',#617,#616,#751,.F.);
#462=EDGE_CURVE('',#618,#617,#752,.T.);
#463=EDGE_CURVE('',#619,#618,#753,.T.);
#464=EDGE_CURVE('',#619,#612,#754,.T.);
#465=EDGE_CURVE('',#620,#615,#755,.F.);
#466=EDGE_CURVE('',#620,#621,#756,.T.);
#467=EDGE_CURVE('',#621,#622,#757,.T.);
#468=EDGE_CURVE('',#622,#623,#758,.T.);
#469=EDGE_CURVE('',#623,#601,#759,.T.);
#470=EDGE_CURVE('',#600,#624,#760,.T.);
#471=EDGE_CURVE('',#624,#625,#761,.T.);
#472=EDGE_CURVE('',#625,#626,#762,.T.);
#473=EDGE_CURVE('',#626,#627,#763,.T.);
#474=EDGE_CURVE('',#616,#627,#764,.F.);
#475=EDGE_CURVE('',#599,#628,#765,.T.);
#476=EDGE_CURVE('',#628,#624,#766,.T.);
#477=EDGE_CURVE('',#627,#629,#767,.F.);
#478=EDGE_CURVE('',#630,#626,#768,.T.);
#479=EDGE_CURVE('',#630,#629,#769,.T.);
#480=EDGE_CURVE('',#628,#631,#770,.T.);
#481=EDGE_CURVE('',#625,#631,#771,.T.);
#482=EDGE_CURVE('',#632,#620,#772,.F.);
#483=EDGE_CURVE('',#632,#633,#773,.T.);
#484=EDGE_CURVE('',#621,#633,#774,.T.);
#485=EDGE_CURVE('',#623,#634,#775,.T.);
#486=EDGE_CURVE('',#634,#598,#776,.T.);
#487=EDGE_CURVE('',#633,#635,#777,.T.);
#488=EDGE_CURVE('',#622,#635,#778,.T.);
#489=EDGE_CURVE('',#635,#634,#779,.T.);
#490=EDGE_CURVE('',#631,#630,#780,.T.);
#491=EDGE_CURVE('',#550,#636,#781,.F.);
#492=EDGE_CURVE('',#637,#636,#782,.F.);
#493=EDGE_CURVE('',#617,#637,#783,.F.);
#494=EDGE_CURVE('',#638,#629,#784,.F.);
#495=EDGE_CURVE('',#639,#638,#785,.F.);
#496=EDGE_CURVE('',#639,#640,#786,.F.);
#497=EDGE_CURVE('',#640,#641,#787,.F.);
#498=EDGE_CURVE('',#551,#641,#788,.F.);
#499=EDGE_CURVE('',#614,#642,#789,.F.);
#500=EDGE_CURVE('',#642,#643,#790,.F.);
#501=EDGE_CURVE('',#644,#643,#791,.F.);
#502=EDGE_CURVE('',#645,#644,#792,.F.);
#503=EDGE_CURVE('',#632,#645,#793,.F.);
#504=EDGE_CURVE('',#612,#547,#794,.T.);
#505=EDGE_CURVE('',#613,#546,#795,.T.);
#506=EDGE_CURVE('',#549,#538,#796,.T.);
#507=EDGE_CURVE('',#548,#536,#797,.T.);
#508=EDGE_CURVE('',#618,#541,#798,.T.);
#509=EDGE_CURVE('',#619,#540,#799,.T.);
#510=EDGE_CURVE('',#636,#602,#800,.T.);
#511=EDGE_CURVE('',#637,#607,#801,.T.);
#512=EDGE_CURVE('',#642,#608,#802,.T.);
#513=EDGE_CURVE('',#643,#611,#803,.T.);
#514=EDGE_CURVE('',#646,#647,#804,.T.);
#515=EDGE_CURVE('',#646,#648,#805,.T.);
#516=EDGE_CURVE('',#648,#649,#806,.T.);
#517=EDGE_CURVE('',#649,#610,#807,.T.);
#518=EDGE_CURVE('',#606,#609,#808,.T.);
#519=EDGE_CURVE('',#647,#605,#809,.T.);
#520=EDGE_CURVE('',#593,#591,#810,.T.);
#521=EDGE_CURVE('',#577,#596,#811,.T.);
#522=EDGE_CURVE('',#576,#597,#812,.T.);
#523=EDGE_CURVE('',#590,#594,#813,.T.);
#524=EDGE_CURVE('',#650,#651,#814,.T.);
#525=EDGE_CURVE('',#652,#650,#815,.T.);
#526=EDGE_CURVE('',#652,#653,#816,.T.);
#527=EDGE_CURVE('',#653,#639,#817,.T.);
#528=EDGE_CURVE('',#638,#645,#818,.T.);
#529=EDGE_CURVE('',#651,#644,#819,.T.);
#530=EDGE_CURVE('',#650,#648,#820,.T.);
#531=EDGE_CURVE('',#651,#649,#821,.T.);
#532=EDGE_CURVE('',#652,#646,#822,.T.);
#533=EDGE_CURVE('',#653,#647,#823,.T.);
#534=EDGE_CURVE('',#641,#603,#824,.T.);
#535=EDGE_CURVE('',#640,#604,#825,.T.);
#536=VERTEX_POINT('',#1589);
#537=VERTEX_POINT('',#1590);
#538=VERTEX_POINT('',#1592);
#539=VERTEX_POINT('',#1594);
#540=VERTEX_POINT('',#1598);
#541=VERTEX_POINT('',#1599);
#542=VERTEX_POINT('',#1601);
#543=VERTEX_POINT('',#1603);
#544=VERTEX_POINT('',#1605);
#545=VERTEX_POINT('',#1607);
#546=VERTEX_POINT('',#1609);
#547=VERTEX_POINT('',#1611);
#548=VERTEX_POINT('',#1615);
#549=VERTEX_POINT('',#1616);
#550=VERTEX_POINT('',#1618);
#551=VERTEX_POINT('',#1620);
#552=VERTEX_POINT('',#1624);
#553=VERTEX_POINT('',#1626);
#554=VERTEX_POINT('',#1628);
#555=VERTEX_POINT('',#1630);
#556=VERTEX_POINT('',#1632);
#557=VERTEX_POINT('',#1634);
#558=VERTEX_POINT('',#1636);
#559=VERTEX_POINT('',#1638);
#560=VERTEX_POINT('',#1640);
#561=VERTEX_POINT('',#1642);
#562=VERTEX_POINT('',#1644);
#563=VERTEX_POINT('',#1646);
#564=VERTEX_POINT('',#1650);
#565=VERTEX_POINT('',#1652);
#566=VERTEX_POINT('',#1654);
#567=VERTEX_POINT('',#1656);
#568=VERTEX_POINT('',#1661);
#569=VERTEX_POINT('',#1665);
#570=VERTEX_POINT('',#1667);
#571=VERTEX_POINT('',#1671);
#572=VERTEX_POINT('',#1672);
#573=VERTEX_POINT('',#1674);
#574=VERTEX_POINT('',#1676);
#575=VERTEX_POINT('',#1680);
#576=VERTEX_POINT('',#1682);
#577=VERTEX_POINT('',#1684);
#578=VERTEX_POINT('',#1691);
#579=VERTEX_POINT('',#1693);
#580=VERTEX_POINT('',#1697);
#581=VERTEX_POINT('',#1699);
#582=VERTEX_POINT('',#1704);
#583=VERTEX_POINT('',#1706);
#584=VERTEX_POINT('',#1708);
#585=VERTEX_POINT('',#1712);
#586=VERTEX_POINT('',#1713);
#587=VERTEX_POINT('',#1715);
#588=VERTEX_POINT('',#1717);
#589=VERTEX_POINT('',#1721);
#590=VERTEX_POINT('',#1723);
#591=VERTEX_POINT('',#1725);
#592=VERTEX_POINT('',#1732);
#593=VERTEX_POINT('',#1736);
#594=VERTEX_POINT('',#1738);
#595=VERTEX_POINT('',#1742);
#596=VERTEX_POINT('',#1746);
#597=VERTEX_POINT('',#1748);
#598=VERTEX_POINT('',#1752);
#599=VERTEX_POINT('',#1753);
#600=VERTEX_POINT('',#1755);
#601=VERTEX_POINT('',#1757);
#602=VERTEX_POINT('',#1762);
#603=VERTEX_POINT('',#1764);
#604=VERTEX_POINT('',#1766);
#605=VERTEX_POINT('',#1768);
#606=VERTEX_POINT('',#1770);
#607=VERTEX_POINT('',#1773);
#608=VERTEX_POINT('',#1777);
#609=VERTEX_POINT('',#1779);
#610=VERTEX_POINT('',#1781);
#611=VERTEX_POINT('',#1783);
#612=VERTEX_POINT('',#1787);
#613=VERTEX_POINT('',#1788);
#614=VERTEX_POINT('',#1790);
#615=VERTEX_POINT('',#1792);
#616=VERTEX_POINT('',#1794);
#617=VERTEX_POINT('',#1796);
#618=VERTEX_POINT('',#1798);
#619=VERTEX_POINT('',#1800);
#620=VERTEX_POINT('',#1804);
#621=VERTEX_POINT('',#1806);
#622=VERTEX_POINT('',#1808);
#623=VERTEX_POINT('',#1810);
#624=VERTEX_POINT('',#1813);
#625=VERTEX_POINT('',#1815);
#626=VERTEX_POINT('',#1817);
#627=VERTEX_POINT('',#1819);
#628=VERTEX_POINT('',#1823);
#629=VERTEX_POINT('',#1827);
#630=VERTEX_POINT('',#1829);
#631=VERTEX_POINT('',#1833);
#632=VERTEX_POINT('',#1837);
#633=VERTEX_POINT('',#1839);
#634=VERTEX_POINT('',#1843);
#635=VERTEX_POINT('',#1847);
#636=VERTEX_POINT('',#1855);
#637=VERTEX_POINT('',#1857);
#638=VERTEX_POINT('',#1860);
#639=VERTEX_POINT('',#1862);
#640=VERTEX_POINT('',#1864);
#641=VERTEX_POINT('',#1866);
#642=VERTEX_POINT('',#1870);
#643=VERTEX_POINT('',#1872);
#644=VERTEX_POINT('',#1874);
#645=VERTEX_POINT('',#1876);
#646=VERTEX_POINT('',#1899);
#647=VERTEX_POINT('',#1900);
#648=VERTEX_POINT('',#1902);
#649=VERTEX_POINT('',#1904);
#650=VERTEX_POINT('',#1919);
#651=VERTEX_POINT('',#1920);
#652=VERTEX_POINT('',#1922);
#653=VERTEX_POINT('',#1924);
#654=LINE('',#1588,#826);
#655=LINE('',#1591,#827);
#656=LINE('',#1593,#828);
#657=LINE('',#1595,#829);
#658=LINE('',#1597,#830);
#659=LINE('',#1600,#831);
#660=LINE('',#1602,#832);
#661=LINE('',#1604,#833);
#662=LINE('',#1606,#834);
#663=LINE('',#1608,#835);
#664=LINE('',#1610,#836);
#665=LINE('',#1612,#837);
#666=LINE('',#1614,#838);
#667=LINE('',#1617,#839);
#668=LINE('',#1619,#840);
#669=LINE('',#1621,#841);
#670=LINE('',#1623,#842);
#671=LINE('',#1625,#843);
#672=LINE('',#1627,#844);
#673=LINE('',#1629,#845);
#674=LINE('',#1631,#846);
#675=LINE('',#1633,#847);
#676=LINE('',#1635,#848);
#677=LINE('',#1637,#849);
#678=LINE('',#1639,#850);
#679=LINE('',#1641,#851);
#680=LINE('',#1643,#852);
#681=LINE('',#1645,#853);
#682=LINE('',#1647,#854);
#683=LINE('',#1649,#855);
#684=LINE('',#1651,#856);
#685=LINE('',#1653,#857);
#686=LINE('',#1655,#858);
#687=LINE('',#1662,#859);
#688=LINE('',#1664,#860);
#689=LINE('',#1666,#861);
#690=LINE('',#1668,#862);
#691=LINE('',#1670,#863);
#692=LINE('',#1673,#864);
#693=LINE('',#1675,#865);
#694=LINE('',#1677,#866);
#695=LINE('',#1679,#867);
#696=LINE('',#1681,#868);
#697=LINE('',#1683,#869);
#698=LINE('',#1685,#870);
#699=LINE('',#1686,#871);
#700=LINE('',#1688,#872);
#701=LINE('',#1690,#873);
#702=LINE('',#1692,#874);
#703=LINE('',#1694,#875);
#704=LINE('',#1696,#876);
#705=LINE('',#1698,#877);
#706=LINE('',#1705,#878);
#707=LINE('',#1707,#879);
#708=LINE('',#1709,#880);
#709=LINE('',#1711,#881);
#710=LINE('',#1714,#882);
#711=LINE('',#1716,#883);
#712=LINE('',#1718,#884);
#713=LINE('',#1720,#885);
#714=LINE('',#1722,#886);
#715=LINE('',#1724,#887);
#716=LINE('',#1726,#888);
#717=LINE('',#1727,#889);
#718=LINE('',#1729,#890);
#719=LINE('',#1731,#891);
#720=LINE('',#1733,#892);
#721=LINE('',#1735,#893);
#722=LINE('',#1737,#894);
#723=LINE('',#1739,#895);
#724=LINE('',#1741,#896);
#725=LINE('',#1743,#897);
#726=LINE('',#1745,#898);
#727=LINE('',#1747,#899);
#728=LINE('',#1749,#900);
#729=LINE('',#1751,#901);
#730=LINE('',#1754,#902);
#731=LINE('',#1756,#903);
#732=LINE('',#1758,#904);
#733=LINE('',#1759,#905);
#734=LINE('',#1761,#906);
#735=LINE('',#1763,#907);
#736=LINE('',#1765,#908);
#737=LINE('',#1767,#909);
#738=LINE('',#1769,#910);
#739=LINE('',#1771,#911);
#740=LINE('',#1772,#912);
#741=LINE('',#1774,#913);
#742=LINE('',#1776,#914);
#743=LINE('',#1778,#915);
#744=LINE('',#1780,#916);
#745=LINE('',#1782,#917);
#746=LINE('',#1784,#918);
#747=LINE('',#1786,#919);
#748=LINE('',#1789,#920);
#749=LINE('',#1791,#921);
#750=LINE('',#1793,#922);
#751=LINE('',#1795,#923);
#752=LINE('',#1797,#924);
#753=LINE('',#1799,#925);
#754=LINE('',#1801,#926);
#755=LINE('',#1803,#927);
#756=LINE('',#1805,#928);
#757=LINE('',#1807,#929);
#758=LINE('',#1809,#930);
#759=LINE('',#1811,#931);
#760=LINE('',#1812,#932);
#761=LINE('',#1814,#933);
#762=LINE('',#1816,#934);
#763=LINE('',#1818,#935);
#764=LINE('',#1820,#936);
#765=LINE('',#1822,#937);
#766=LINE('',#1824,#938);
#767=LINE('',#1826,#939);
#768=LINE('',#1828,#940);
#769=LINE('',#1830,#941);
#770=LINE('',#1832,#942);
#771=LINE('',#1834,#943);
#772=LINE('',#1836,#944);
#773=LINE('',#1838,#945);
#774=LINE('',#1840,#946);
#775=LINE('',#1842,#947);
#776=LINE('',#1844,#948);
#777=LINE('',#1846,#949);
#778=LINE('',#1848,#950);
#779=LINE('',#1850,#951);
#780=LINE('',#1852,#952);
#781=LINE('',#1854,#953);
#782=LINE('',#1856,#954);
#783=LINE('',#1858,#955);
#784=LINE('',#1859,#956);
#785=LINE('',#1861,#957);
#786=LINE('',#1863,#958);
#787=LINE('',#1865,#959);
#788=LINE('',#1867,#960);
#789=LINE('',#1869,#961);
#790=LINE('',#1871,#962);
#791=LINE('',#1873,#963);
#792=LINE('',#1875,#964);
#793=LINE('',#1877,#965);
#794=LINE('',#1879,#966);
#795=LINE('',#1880,#967);
#796=LINE('',#1882,#968);
#797=LINE('',#1883,#969);
#798=LINE('',#1885,#970);
#799=LINE('',#1886,#971);
#800=LINE('',#1889,#972);
#801=LINE('',#1891,#973);
#802=LINE('',#1894,#974);
#803=LINE('',#1896,#975);
#804=LINE('',#1898,#976);
#805=LINE('',#1901,#977);
#806=LINE('',#1903,#978);
#807=LINE('',#1905,#979);
#808=LINE('',#1906,#980);
#809=LINE('',#1907,#981);
#810=LINE('',#1909,#982);
#811=LINE('',#1910,#983);
#812=LINE('',#1912,#984);
#813=LINE('',#1915,#985);
#814=LINE('',#1918,#986);
#815=LINE('',#1921,#987);
#816=LINE('',#1923,#988);
#817=LINE('',#1925,#989);
#818=LINE('',#1926,#990);
#819=LINE('',#1927,#991);
#820=LINE('',#1930,#992);
#821=LINE('',#1931,#993);
#822=LINE('',#1933,#994);
#823=LINE('',#1934,#995);
#824=LINE('',#1937,#996);
#825=LINE('',#1939,#997);
#826=VECTOR('',#1302,1.);
#827=VECTOR('',#1303,1.);
#828=VECTOR('',#1304,1.);
#829=VECTOR('',#1305,1.);
#830=VECTOR('',#1308,1.);
#831=VECTOR('',#1309,1.);
#832=VECTOR('',#1310,1.);
#833=VECTOR('',#1311,1.);
#834=VECTOR('',#1312,1.);
#835=VECTOR('',#1313,1.);
#836=VECTOR('',#1314,1.);
#837=VECTOR('',#1315,1.);
#838=VECTOR('',#1318,1.);
#839=VECTOR('',#1319,1.);
#840=VECTOR('',#1320,1.);
#841=VECTOR('',#1321,1.);
#842=VECTOR('',#1324,1.);
#843=VECTOR('',#1325,1.);
#844=VECTOR('',#1326,1.);
#845=VECTOR('',#1327,1.);
#846=VECTOR('',#1328,1.);
#847=VECTOR('',#1329,1.);
#848=VECTOR('',#1330,1.);
#849=VECTOR('',#1331,1.);
#850=VECTOR('',#1332,1.);
#851=VECTOR('',#1333,1.);
#852=VECTOR('',#1334,1.);
#853=VECTOR('',#1335,1.);
#854=VECTOR('',#1336,1.);
#855=VECTOR('',#1339,1.);
#856=VECTOR('',#1340,1.);
#857=VECTOR('',#1341,1.);
#858=VECTOR('',#1342,1.);
#859=VECTOR('',#1343,1.);
#860=VECTOR('',#1346,1.);
#861=VECTOR('',#1347,1.);
#862=VECTOR('',#1348,1.);
#863=VECTOR('',#1351,1.);
#864=VECTOR('',#1352,1.);
#865=VECTOR('',#1353,1.);
#866=VECTOR('',#1354,1.);
#867=VECTOR('',#1357,1.);
#868=VECTOR('',#1358,1.);
#869=VECTOR('',#1359,1.);
#870=VECTOR('',#1360,1.);
#871=VECTOR('',#1361,1.);
#872=VECTOR('',#1364,1.);
#873=VECTOR('',#1367,1.);
#874=VECTOR('',#1368,1.);
#875=VECTOR('',#1369,1.);
#876=VECTOR('',#1372,1.);
#877=VECTOR('',#1373,1.);
#878=VECTOR('',#1374,1.);
#879=VECTOR('',#1375,1.);
#880=VECTOR('',#1376,1.);
#881=VECTOR('',#1379,1.);
#882=VECTOR('',#1380,1.);
#883=VECTOR('',#1381,1.);
#884=VECTOR('',#1382,1.);
#885=VECTOR('',#1385,1.);
#886=VECTOR('',#1386,1.);
#887=VECTOR('',#1387,1.);
#888=VECTOR('',#1388,1.);
#889=VECTOR('',#1389,1.);
#890=VECTOR('',#1392,1.);
#891=VECTOR('',#1395,1.);
#892=VECTOR('',#1396,1.);
#893=VECTOR('',#1399,1.);
#894=VECTOR('',#1400,1.);
#895=VECTOR('',#1401,1.);
#896=VECTOR('',#1404,1.);
#897=VECTOR('',#1405,1.);
#898=VECTOR('',#1408,1.);
#899=VECTOR('',#1409,1.);
#900=VECTOR('',#1410,1.);
#901=VECTOR('',#1413,1.);
#902=VECTOR('',#1414,1.);
#903=VECTOR('',#1415,1.);
#904=VECTOR('',#1416,1.);
#905=VECTOR('',#1417,1.);
#906=VECTOR('',#1420,1.);
#907=VECTOR('',#1421,1.);
#908=VECTOR('',#1422,1.);
#909=VECTOR('',#1423,1.);
#910=VECTOR('',#1424,1.);
#911=VECTOR('',#1425,1.);
#912=VECTOR('',#1426,1.);
#913=VECTOR('',#1427,1.);
#914=VECTOR('',#1430,1.);
#915=VECTOR('',#1431,1.);
#916=VECTOR('',#1432,1.);
#917=VECTOR('',#1433,1.);
#918=VECTOR('',#1434,1.);
#919=VECTOR('',#1437,1.);
#920=VECTOR('',#1438,1.);
#921=VECTOR('',#1439,1.);
#922=VECTOR('',#1440,1.);
#923=VECTOR('',#1441,1.);
#924=VECTOR('',#1442,1.);
#925=VECTOR('',#1443,1.);
#926=VECTOR('',#1444,1.);
#927=VECTOR('',#1447,1.);
#928=VECTOR('',#1448,1.);
#929=VECTOR('',#1449,1.);
#930=VECTOR('',#1450,1.);
#931=VECTOR('',#1451,1.);
#932=VECTOR('',#1452,1.);
#933=VECTOR('',#1453,1.);
#934=VECTOR('',#1454,1.);
#935=VECTOR('',#1455,1.);
#936=VECTOR('',#1456,1.);
#937=VECTOR('',#1459,1.);
#938=VECTOR('',#1460,1.);
#939=VECTOR('',#1463,1.);
#940=VECTOR('',#1464,1.);
#941=VECTOR('',#1465,1.);
#942=VECTOR('',#1468,1.);
#943=VECTOR('',#1469,1.);
#944=VECTOR('',#1472,1.);
#945=VECTOR('',#1473,1.);
#946=VECTOR('',#1474,1.);
#947=VECTOR('',#1477,1.);
#948=VECTOR('',#1478,1.);
#949=VECTOR('',#1481,1.);
#950=VECTOR('',#1482,1.);
#951=VECTOR('',#1485,1.);
#952=VECTOR('',#1488,1.);
#953=VECTOR('',#1491,1.);
#954=VECTOR('',#1492,1.);
#955=VECTOR('',#1493,1.);
#956=VECTOR('',#1494,1.);
#957=VECTOR('',#1495,1.);
#958=VECTOR('',#1496,1.);
#959=VECTOR('',#1497,1.);
#960=VECTOR('',#1498,1.);
#961=VECTOR('',#1501,1.);
#962=VECTOR('',#1502,1.);
#963=VECTOR('',#1503,1.);
#964=VECTOR('',#1504,1.);
#965=VECTOR('',#1505,1.);
#966=VECTOR('',#1508,1.);
#967=VECTOR('',#1509,1.);
#968=VECTOR('',#1512,1.);
#969=VECTOR('',#1513,1.);
#970=VECTOR('',#1516,1.);
#971=VECTOR('',#1517,1.);
#972=VECTOR('',#1522,1.);
#973=VECTOR('',#1525,1.);
#974=VECTOR('',#1530,1.);
#975=VECTOR('',#1533,1.);
#976=VECTOR('',#1536,1.);
#977=VECTOR('',#1537,1.);
#978=VECTOR('',#1538,1.);
#979=VECTOR('',#1539,1.);
#980=VECTOR('',#1540,1.);
#981=VECTOR('',#1541,1.);
#982=VECTOR('',#1544,1.);
#983=VECTOR('',#1545,1.);
#984=VECTOR('',#1548,1.);
#985=VECTOR('',#1553,1.);
#986=VECTOR('',#1558,1.);
#987=VECTOR('',#1559,1.);
#988=VECTOR('',#1560,1.);
#989=VECTOR('',#1561,1.);
#990=VECTOR('',#1562,1.);
#991=VECTOR('',#1563,1.);
#992=VECTOR('',#1568,1.);
#993=VECTOR('',#1569,1.);
#994=VECTOR('',#1572,1.);
#995=VECTOR('',#1573,1.);
#996=VECTOR('',#1578,1.);
#997=VECTOR('',#1581,1.);
#998=EDGE_LOOP('',(#14,#15,#16,#17));
#999=EDGE_LOOP('',(#18,#19,#20,#21,#22,#23,#24,#25));
#1000=EDGE_LOOP('',(#26,#27,#28,#29));
#1001=EDGE_LOOP('',(#30,#31,#32,#33,#34,#35,#36,#37,#38,#39,#40,#41,#42,
#43));
#1002=EDGE_LOOP('',(#44,#45,#46,#47,#48,#49,#50));
#1003=EDGE_LOOP('',(#51,#52,#53,#54));
#1004=EDGE_LOOP('',(#55,#56,#57,#58));
#1005=EDGE_LOOP('',(#59,#60,#61,#62,#63,#64,#65,#66));
#1006=EDGE_LOOP('',(#67,#68,#69,#70));
#1007=EDGE_LOOP('',(#71,#72,#73,#74));
#1008=EDGE_LOOP('',(#75,#76,#77,#78,#79,#80,#81));
#1009=EDGE_LOOP('',(#82,#83,#84,#85));
#1010=EDGE_LOOP('',(#86,#87,#88,#89,#90,#91,#92,#93));
#1011=EDGE_LOOP('',(#94,#95,#96,#97));
#1012=EDGE_LOOP('',(#98,#99,#100,#101));
#1013=EDGE_LOOP('',(#102,#103,#104,#105,#106,#107,#108,#109));
#1014=EDGE_LOOP('',(#110,#111,#112,#113));
#1015=EDGE_LOOP('',(#114,#115,#116,#117,#118,#119,#120,#121));
#1016=EDGE_LOOP('',(#122,#123,#124,#125));
#1017=EDGE_LOOP('',(#126,#127,#128,#129,#130,#131,#132,#133,#134,#135));
#1018=EDGE_LOOP('',(#136,#137,#138,#139,#140,#141,#142,#143,#144,#145,#146,
#147));
#1019=EDGE_LOOP('',(#148,#149,#150,#151,#152,#153,#154,#155));
#1020=EDGE_LOOP('',(#156,#157,#158,#159,#160,#161,#162,#163));
#1021=EDGE_LOOP('',(#164,#165,#166,#167,#168,#169,#170,#171,#172,#173,#174,
#175));
#1022=EDGE_LOOP('',(#176,#177,#178,#179));
#1023=EDGE_LOOP('',(#180,#181,#182,#183));
#1024=EDGE_LOOP('',(#184,#185,#186,#187));
#1025=EDGE_LOOP('',(#188,#189,#190,#191));
#1026=EDGE_LOOP('',(#192,#193,#194,#195));
#1027=EDGE_LOOP('',(#196,#197,#198,#199));
#1028=EDGE_LOOP('',(#200,#201,#202,#203));
#1029=EDGE_LOOP('',(#204,#205,#206,#207));
#1030=EDGE_LOOP('',(#208,#209,#210,#211,#212,#213,#214,#215,#216,#217,#218,
#219));
#1031=EDGE_LOOP('',(#220,#221,#222,#223,#224,#225,#226,#227));
#1032=EDGE_LOOP('',(#228,#229,#230,#231));
#1033=EDGE_LOOP('',(#232,#233,#234,#235));
#1034=EDGE_LOOP('',(#236,#237,#238,#239));
#1035=EDGE_LOOP('',(#240,#241,#242,#243));
#1036=EDGE_LOOP('',(#244,#245,#246,#247,#248,#249));
#1037=EDGE_LOOP('',(#250,#251,#252,#253));
#1038=EDGE_LOOP('',(#254,#255,#256,#257,#258,#259));
#1039=EDGE_LOOP('',(#260,#261,#262,#263,#264,#265));
#1040=EDGE_LOOP('',(#266,#267,#268,#269));
#1041=EDGE_LOOP('',(#270,#271,#272,#273,#274,#275,#276,#277));
#1042=EDGE_LOOP('',(#278,#279,#280,#281,#282,#283,#284,#285,#286,#287,#288,
#289,#290,#291));
#1043=EDGE_LOOP('',(#292,#293,#294,#295));
#1044=EDGE_LOOP('',(#296,#297,#298,#299));
#1045=EDGE_LOOP('',(#300,#301,#302,#303));
#1046=EDGE_LOOP('',(#304,#305,#306,#307));
#1047=EDGE_LOOP('',(#308,#309,#310,#311,#312,#313,#314,#315));
#1048=EDGE_LOOP('',(#316,#317,#318,#319,#320,#321,#322,#323,#324,#325,#326,
#327));
#1049=EDGE_LOOP('',(#328,#329,#330,#331));
#1050=EDGE_LOOP('',(#332,#333,#334,#335));
#1051=EDGE_LOOP('',(#336,#337,#338,#339));
#1052=EDGE_LOOP('',(#340,#341,#342,#343,#344,#345));
#1053=EDGE_LOOP('',(#346,#347,#348,#349));
#1054=EDGE_LOOP('',(#350,#351,#352,#353,#354,#355));
#1055=EDGE_LOOP('',(#356,#357,#358,#359,#360,#361));
#1056=FACE_BOUND('',#998,.T.);
#1057=FACE_BOUND('',#999,.T.);
#1058=FACE_BOUND('',#1000,.T.);
#1059=FACE_BOUND('',#1001,.T.);
#1060=FACE_BOUND('',#1002,.T.);
#1061=FACE_BOUND('',#1003,.T.);
#1062=FACE_BOUND('',#1004,.T.);
#1063=FACE_BOUND('',#1005,.T.);
#1064=FACE_BOUND('',#1006,.T.);
#1065=FACE_BOUND('',#1007,.T.);
#1066=FACE_BOUND('',#1008,.T.);
#1067=FACE_BOUND('',#1009,.T.);
#1068=FACE_BOUND('',#1010,.T.);
#1069=FACE_BOUND('',#1011,.T.);
#1070=FACE_BOUND('',#1012,.T.);
#1071=FACE_BOUND('',#1013,.T.);
#1072=FACE_BOUND('',#1014,.T.);
#1073=FACE_BOUND('',#1015,.T.);
#1074=FACE_BOUND('',#1016,.T.);
#1075=FACE_BOUND('',#1017,.T.);
#1076=FACE_BOUND('',#1018,.T.);
#1077=FACE_BOUND('',#1019,.T.);
#1078=FACE_BOUND('',#1020,.T.);
#1079=FACE_BOUND('',#1021,.T.);
#1080=FACE_BOUND('',#1022,.T.);
#1081=FACE_BOUND('',#1023,.T.);
#1082=FACE_BOUND('',#1024,.T.);
#1083=FACE_BOUND('',#1025,.T.);
#1084=FACE_BOUND('',#1026,.T.);
#1085=FACE_BOUND('',#1027,.T.);
#1086=FACE_BOUND('',#1028,.T.);
#1087=FACE_BOUND('',#1029,.T.);
#1088=FACE_BOUND('',#1030,.T.);
#1089=FACE_BOUND('',#1031,.T.);
#1090=FACE_BOUND('',#1032,.T.);
#1091=FACE_BOUND('',#1033,.T.);
#1092=FACE_BOUND('',#1034,.T.);
#1093=FACE_BOUND('',#1035,.T.);
#1094=FACE_BOUND('',#1036,.T.);
#1095=FACE_BOUND('',#1037,.T.);
#1096=FACE_BOUND('',#1038,.T.);
#1097=FACE_BOUND('',#1039,.T.);
#1098=FACE_BOUND('',#1040,.T.);
#1099=FACE_BOUND('',#1041,.T.);
#1100=FACE_BOUND('',#1042,.T.);
#1101=FACE_BOUND('',#1043,.T.);
#1102=FACE_BOUND('',#1044,.T.);
#1103=FACE_BOUND('',#1045,.T.);
#1104=FACE_BOUND('',#1046,.T.);
#1105=FACE_BOUND('',#1047,.T.);
#1106=FACE_BOUND('',#1048,.T.);
#1107=FACE_BOUND('',#1049,.T.);
#1108=FACE_BOUND('',#1050,.T.);
#1109=FACE_BOUND('',#1051,.T.);
#1110=FACE_BOUND('',#1052,.T.);
#1111=FACE_BOUND('',#1053,.T.);
#1112=FACE_BOUND('',#1054,.T.);
#1113=FACE_BOUND('',#1055,.T.);
#1114=PLANE('',#1241);
#1115=PLANE('',#1242);
#1116=PLANE('',#1243);
#1117=PLANE('',#1244);
#1118=PLANE('',#1245);
#1119=PLANE('',#1246);
#1120=PLANE('',#1247);
#1121=PLANE('',#1248);
#1122=PLANE('',#1249);
#1123=PLANE('',#1250);
#1124=PLANE('',#1251);
#1125=PLANE('',#1252);
#1126=PLANE('',#1253);
#1127=PLANE('',#1254);
#1128=PLANE('',#1255);
#1129=PLANE('',#1256);
#1130=PLANE('',#1257);
#1131=PLANE('',#1258);
#1132=PLANE('',#1259);
#1133=PLANE('',#1260);
#1134=PLANE('',#1261);
#1135=PLANE('',#1262);
#1136=PLANE('',#1263);
#1137=PLANE('',#1264);
#1138=PLANE('',#1265);
#1139=PLANE('',#1266);
#1140=PLANE('',#1267);
#1141=PLANE('',#1268);
#1142=PLANE('',#1269);
#1143=PLANE('',#1270);
#1144=PLANE('',#1271);
#1145=PLANE('',#1272);
#1146=PLANE('',#1273);
#1147=PLANE('',#1274);
#1148=PLANE('',#1275);
#1149=PLANE('',#1276);
#1150=PLANE('',#1277);
#1151=PLANE('',#1278);
#1152=PLANE('',#1279);
#1153=PLANE('',#1280);
#1154=PLANE('',#1281);
#1155=PLANE('',#1282);
#1156=PLANE('',#1283);
#1157=PLANE('',#1284);
#1158=PLANE('',#1285);
#1159=PLANE('',#1286);
#1160=PLANE('',#1287);
#1161=PLANE('',#1288);
#1162=PLANE('',#1289);
#1163=PLANE('',#1290);
#1164=PLANE('',#1291);
#1165=PLANE('',#1292);
#1166=PLANE('',#1293);
#1167=PLANE('',#1294);
#1168=PLANE('',#1295);
#1169=PLANE('',#1296);
#1170=PLANE('',#1297);
#1171=ADVANCED_FACE('',(#1056),#1114,.T.);
#1172=ADVANCED_FACE('',(#1057),#1115,.T.);
#1173=ADVANCED_FACE('',(#1058),#1116,.F.);
#1174=ADVANCED_FACE('',(#1059),#1117,.T.);
#1175=ADVANCED_FACE('',(#1060),#1118,.T.);
#1176=ADVANCED_FACE('',(#1061),#1119,.T.);
#1177=ADVANCED_FACE('',(#1062),#1120,.T.);
#1178=ADVANCED_FACE('',(#1063),#1121,.T.);
#1179=ADVANCED_FACE('',(#1064),#1122,.T.);
#1180=ADVANCED_FACE('',(#1065),#1123,.T.);
#1181=ADVANCED_FACE('',(#1066),#1124,.T.);
#1182=ADVANCED_FACE('',(#1067),#1125,.T.);
#1183=ADVANCED_FACE('',(#1068),#1126,.T.);
#1184=ADVANCED_FACE('',(#1069),#1127,.T.);
#1185=ADVANCED_FACE('',(#1070),#1128,.T.);
#1186=ADVANCED_FACE('',(#1071),#1129,.T.);
#1187=ADVANCED_FACE('',(#1072),#1130,.T.);
#1188=ADVANCED_FACE('',(#1073),#1131,.T.);
#1189=ADVANCED_FACE('',(#1074,#1075),#1132,.T.);
#1190=ADVANCED_FACE('',(#1076),#1133,.F.);
#1191=ADVANCED_FACE('',(#1077),#1134,.F.);
#1192=ADVANCED_FACE('',(#1078),#1135,.F.);
#1193=ADVANCED_FACE('',(#1079),#1136,.F.);
#1194=ADVANCED_FACE('',(#1080),#1137,.F.);
#1195=ADVANCED_FACE('',(#1081),#1138,.F.);
#1196=ADVANCED_FACE('',(#1082),#1139,.F.);
#1197=ADVANCED_FACE('',(#1083),#1140,.F.);
#1198=ADVANCED_FACE('',(#1084),#1141,.F.);
#1199=ADVANCED_FACE('',(#1085),#1142,.F.);
#1200=ADVANCED_FACE('',(#1086),#1143,.F.);
#1201=ADVANCED_FACE('',(#1087),#1144,.F.);
#1202=ADVANCED_FACE('',(#1088),#1145,.T.);
#1203=ADVANCED_FACE('',(#1089),#1146,.T.);
#1204=ADVANCED_FACE('',(#1090),#1147,.F.);
#1205=ADVANCED_FACE('',(#1091),#1148,.T.);
#1206=ADVANCED_FACE('',(#1092),#1149,.T.);
#1207=ADVANCED_FACE('',(#1093),#1150,.F.);
#1208=ADVANCED_FACE('',(#1094),#1151,.F.);
#1209=ADVANCED_FACE('',(#1095),#1152,.T.);
#1210=ADVANCED_FACE('',(#1096),#1153,.T.);
#1211=ADVANCED_FACE('',(#1097),#1154,.F.);
#1212=ADVANCED_FACE('',(#1098),#1155,.F.);
#1213=ADVANCED_FACE('',(#1099),#1156,.T.);
#1214=ADVANCED_FACE('',(#1100),#1157,.T.);
#1215=ADVANCED_FACE('',(#1101),#1158,.T.);
#1216=ADVANCED_FACE('',(#1102),#1159,.T.);
#1217=ADVANCED_FACE('',(#1103),#1160,.T.);
#1218=ADVANCED_FACE('',(#1104),#1161,.T.);
#1219=ADVANCED_FACE('',(#1105),#1162,.F.);
#1220=ADVANCED_FACE('',(#1106),#1163,.F.);
#1221=ADVANCED_FACE('',(#1107),#1164,.F.);
#1222=ADVANCED_FACE('',(#1108),#1165,.T.);
#1223=ADVANCED_FACE('',(#1109),#1166,.F.);
#1224=ADVANCED_FACE('',(#1110),#1167,.F.);
#1225=ADVANCED_FACE('',(#1111),#1168,.T.);
#1226=ADVANCED_FACE('',(#1112),#1169,.T.);
#1227=ADVANCED_FACE('',(#1113),#1170,.F.);
#1228=CLOSED_SHELL('',(#1171,#1172,#1173,#1174,#1175,#1176,#1177,#1178,
#1179,#1180,#1181,#1182,#1183,#1184,#1185,#1186,#1187,#1188,#1189,#1190,
#1191,#1192,#1193,#1194,#1195,#1196,#1197,#1198,#1199,#1200,#1201,#1202,
#1203,#1204,#1205,#1206,#1207,#1208,#1209,#1210,#1211,#1212,#1213,#1214,
#1215,#1216,#1217,#1218,#1219,#1220,#1221,#1222,#1223,#1224,#1225,#1226,
#1227));
#1229=STYLED_ITEM('',(#1230),#1237);
#1230=PRESENTATION_STYLE_ASSIGNMENT((#1231));
#1231=SURFACE_STYLE_USAGE(.BOTH.,#1232);
#1232=SURFACE_SIDE_STYLE('',(#1233));
#1233=SURFACE_STYLE_FILL_AREA(#1234);
#1234=FILL_AREA_STYLE('',(#1235));
#1235=FILL_AREA_STYLE_COLOUR('',#1236);
#1236=COLOUR_RGB('',0.627450980392157,0.627450980392157,0.627450980392157);
#1237=MANIFOLD_SOLID_BREP('Pipette Holder',#1228);
#1238=SHAPE_DEFINITION_REPRESENTATION(#1948,#1239);
#1239=SHAPE_REPRESENTATION('Pipette Holder',(#1240),#1943);
#1240=AXIS2_PLACEMENT_3D('',#1586,#1298,#1299);
#1241=AXIS2_PLACEMENT_3D('',#1587,#1300,#1301);
#1242=AXIS2_PLACEMENT_3D('',#1596,#1306,#1307);
#1243=AXIS2_PLACEMENT_3D('',#1613,#1316,#1317);
#1244=AXIS2_PLACEMENT_3D('',#1622,#1322,#1323);
#1245=AXIS2_PLACEMENT_3D('',#1648,#1337,#1338);
#1246=AXIS2_PLACEMENT_3D('',#1663,#1344,#1345);
#1247=AXIS2_PLACEMENT_3D('',#1669,#1349,#1350);
#1248=AXIS2_PLACEMENT_3D('',#1678,#1355,#1356);
#1249=AXIS2_PLACEMENT_3D('',#1687,#1362,#1363);
#1250=AXIS2_PLACEMENT_3D('',#1689,#1365,#1366);
#1251=AXIS2_PLACEMENT_3D('',#1695,#1370,#1371);
#1252=AXIS2_PLACEMENT_3D('',#1710,#1377,#1378);
#1253=AXIS2_PLACEMENT_3D('',#1719,#1383,#1384);
#1254=AXIS2_PLACEMENT_3D('',#1728,#1390,#1391);
#1255=AXIS2_PLACEMENT_3D('',#1730,#1393,#1394);
#1256=AXIS2_PLACEMENT_3D('',#1734,#1397,#1398);
#1257=AXIS2_PLACEMENT_3D('',#1740,#1402,#1403);
#1258=AXIS2_PLACEMENT_3D('',#1744,#1406,#1407);
#1259=AXIS2_PLACEMENT_3D('',#1750,#1411,#1412);
#1260=AXIS2_PLACEMENT_3D('',#1760,#1418,#1419);
#1261=AXIS2_PLACEMENT_3D('',#1775,#1428,#1429);
#1262=AXIS2_PLACEMENT_3D('',#1785,#1435,#1436);
#1263=AXIS2_PLACEMENT_3D('',#1802,#1445,#1446);
#1264=AXIS2_PLACEMENT_3D('',#1821,#1457,#1458);
#1265=AXIS2_PLACEMENT_3D('',#1825,#1461,#1462);
#1266=AXIS2_PLACEMENT_3D('',#1831,#1466,#1467);
#1267=AXIS2_PLACEMENT_3D('',#1835,#1470,#1471);
#1268=AXIS2_PLACEMENT_3D('',#1841,#1475,#1476);
#1269=AXIS2_PLACEMENT_3D('',#1845,#1479,#1480);
#1270=AXIS2_PLACEMENT_3D('',#1849,#1483,#1484);
#1271=AXIS2_PLACEMENT_3D('',#1851,#1486,#1487);
#1272=AXIS2_PLACEMENT_3D('',#1853,#1489,#1490);
#1273=AXIS2_PLACEMENT_3D('',#1868,#1499,#1500);
#1274=AXIS2_PLACEMENT_3D('',#1878,#1506,#1507);
#1275=AXIS2_PLACEMENT_3D('',#1881,#1510,#1511);
#1276=AXIS2_PLACEMENT_3D('',#1884,#1514,#1515);
#1277=AXIS2_PLACEMENT_3D('',#1887,#1518,#1519);
#1278=AXIS2_PLACEMENT_3D('',#1888,#1520,#1521);
#1279=AXIS2_PLACEMENT_3D('',#1890,#1523,#1524);
#1280=AXIS2_PLACEMENT_3D('',#1892,#1526,#1527);
#1281=AXIS2_PLACEMENT_3D('',#1893,#1528,#1529);
#1282=AXIS2_PLACEMENT_3D('',#1895,#1531,#1532);
#1283=AXIS2_PLACEMENT_3D('',#1897,#1534,#1535);
#1284=AXIS2_PLACEMENT_3D('',#1908,#1542,#1543);
#1285=AXIS2_PLACEMENT_3D('',#1911,#1546,#1547);
#1286=AXIS2_PLACEMENT_3D('',#1913,#1549,#1550);
#1287=AXIS2_PLACEMENT_3D('',#1914,#1551,#1552);
#1288=AXIS2_PLACEMENT_3D('',#1916,#1554,#1555);
#1289=AXIS2_PLACEMENT_3D('',#1917,#1556,#1557);
#1290=AXIS2_PLACEMENT_3D('',#1928,#1564,#1565);
#1291=AXIS2_PLACEMENT_3D('',#1929,#1566,#1567);
#1292=AXIS2_PLACEMENT_3D('',#1932,#1570,#1571);
#1293=AXIS2_PLACEMENT_3D('',#1935,#1574,#1575);
#1294=AXIS2_PLACEMENT_3D('',#1936,#1576,#1577);
#1295=AXIS2_PLACEMENT_3D('',#1938,#1579,#1580);
#1296=AXIS2_PLACEMENT_3D('',#1940,#1582,#1583);
#1297=AXIS2_PLACEMENT_3D('',#1941,#1584,#1585);
#1298=DIRECTION('',(0.,0.,1.));
#1299=DIRECTION('',(1.,0.,0.));
#1300=DIRECTION('',(0.,0.,1.));
#1301=DIRECTION('',(1.,0.,0.));
#1302=DIRECTION('',(1.,0.,0.));
#1303=DIRECTION('',(6.08674903851511E-17,-1.,0.));
#1304=DIRECTION('',(1.,0.,0.));
#1305=DIRECTION('',(-6.71505861668441E-17,1.,0.));
#1306=DIRECTION('',(0.,0.,1.));
#1307=DIRECTION('',(1.,0.,0.));
#1308=DIRECTION('',(6.02334540269726E-17,-1.,0.));
#1309=DIRECTION('',(1.,0.,0.));
#1310=DIRECTION('',(-6.71505861668441E-17,1.,0.));
#1311=DIRECTION('',(-1.,0.,0.));
#1312=DIRECTION('',(0.,-1.,0.));
#1313=DIRECTION('',(-1.,0.,0.));
#1314=DIRECTION('',(0.,-1.,0.));
#1315=DIRECTION('',(-1.,-1.93517638524962E-16,0.));
#1316=DIRECTION('',(0.,0.,1.));
#1317=DIRECTION('',(1.,0.,0.));
#1318=DIRECTION('',(6.08674903851511E-17,-1.,0.));
#1319=DIRECTION('',(1.,0.,0.));
#1320=DIRECTION('',(6.71505861668441E-17,-1.,0.));
#1321=DIRECTION('',(1.,0.,0.));
#1322=DIRECTION('',(0.,1.,0.));
#1323=DIRECTION('',(-1.,0.,0.));
#1324=DIRECTION('',(-0.707106781186548,0.,0.707106781186548));
#1325=DIRECTION('',(0.,0.,1.));
#1326=DIRECTION('',(-0.707106781186547,0.,0.707106781186548));
#1327=DIRECTION('',(0.,0.,1.));
#1328=DIRECTION('',(0.707106781186546,0.,0.707106781186549));
#1329=DIRECTION('',(0.,0.,1.));
#1330=DIRECTION('',(1.,0.,0.));
#1331=DIRECTION('',(0.,0.,-1.));
#1332=DIRECTION('',(0.707106781186543,0.,-0.707106781186552));
#1333=DIRECTION('',(0.,0.,1.));
#1334=DIRECTION('',(-0.707106781186531,0.,-0.707106781186564));
#1335=DIRECTION('',(0.,0.,-1.));
#1336=DIRECTION('',(-0.707106781186548,0.,-0.707106781186547));
#1337=DIRECTION('',(1.,6.71505861668441E-17,0.));
#1338=DIRECTION('',(-6.71505861668441E-17,1.,0.));
#1339=DIRECTION('',(-6.71505861668441E-17,1.,0.));
#1340=DIRECTION('',(-6.71505861668441E-17,1.,-6.71505861668444E-17));
#1341=DIRECTION('',(0.,0.,1.));
#1342=DIRECTION('',(-6.71505861668441E-17,-1.,0.));
#1343=DIRECTION('',(0.,1.,0.));
#1344=DIRECTION('',(1.,6.71505861668441E-17,0.));
#1345=DIRECTION('',(-6.71505861668441E-17,1.,0.));
#1346=DIRECTION('',(6.71505861668441E-17,-1.,0.));
#1347=DIRECTION('',(0.,0.,1.));
#1348=DIRECTION('',(-6.71505861668441E-17,1.,6.71505861668442E-17));
#1349=DIRECTION('',(0.,1.,0.));
#1350=DIRECTION('',(0.,0.,1.));
#1351=DIRECTION('',(2.95865929238353E-15,0.,1.));
#1352=DIRECTION('',(0.707106781186546,0.,0.707106781186549));
#1353=DIRECTION('',(0.,0.,1.));
#1354=DIRECTION('',(-0.707106781186547,0.,0.707106781186548));
#1355=DIRECTION('',(0.707106781186548,0.,-0.707106781186548));
#1356=DIRECTION('',(-0.707106781186548,0.,-0.707106781186548));
#1357=DIRECTION('',(0.,-1.,0.));
#1358=DIRECTION('',(0.707106781186546,0.,0.707106781186549));
#1359=DIRECTION('',(0.,-1.,0.));
#1360=DIRECTION('',(0.707106781186546,0.,0.707106781186549));
#1361=DIRECTION('',(0.,1.,0.));
#1362=DIRECTION('',(-1.,0.,0.));
#1363=DIRECTION('',(0.,0.,1.));
#1364=DIRECTION('',(0.,-1.,0.));
#1365=DIRECTION('',(-1.,0.,0.));
#1366=DIRECTION('',(0.,-1.,0.));
#1367=DIRECTION('',(0.,1.,0.));
#1368=DIRECTION('',(0.,-1.,0.));
#1369=DIRECTION('',(0.,0.,-1.));
#1370=DIRECTION('',(-1.,0.,0.));
#1371=DIRECTION('',(0.,-1.,0.));
#1372=DIRECTION('',(0.,-1.,0.));
#1373=DIRECTION('',(0.,1.,0.));
#1374=DIRECTION('',(0.,1.,0.));
#1375=DIRECTION('',(0.,0.,-1.));
#1376=DIRECTION('',(0.,-1.,0.));
#1377=DIRECTION('',(0.,1.,0.));
#1378=DIRECTION('',(0.,0.,1.));
#1379=DIRECTION('',(0.,0.,-1.));
#1380=DIRECTION('',(-0.707106781186531,0.,-0.707106781186564));
#1381=DIRECTION('',(0.,0.,-1.));
#1382=DIRECTION('',(0.707106781186543,0.,-0.707106781186552));
#1383=DIRECTION('',(-0.707106781186548,0.,0.707106781186548));
#1384=DIRECTION('',(0.707106781186548,0.,0.707106781186548));
#1385=DIRECTION('',(0.,1.,0.));
#1386=DIRECTION('',(-0.707106781186531,0.,-0.707106781186564));
#1387=DIRECTION('',(0.,-1.,0.));
#1388=DIRECTION('',(-0.707106781186531,0.,-0.707106781186564));
#1389=DIRECTION('',(0.,1.,0.));
#1390=DIRECTION('',(1.,0.,0.));
#1391=DIRECTION('',(0.,0.,-1.));
#1392=DIRECTION('',(0.,-1.,0.));
#1393=DIRECTION('',(-1.,0.,0.));
#1394=DIRECTION('',(0.,0.,1.));
#1395=DIRECTION('',(0.,1.,0.));
#1396=DIRECTION('',(0.,0.,-1.));
#1397=DIRECTION('',(-0.707106781186548,0.,-0.707106781186548));
#1398=DIRECTION('',(-0.707106781186548,0.,0.707106781186548));
#1399=DIRECTION('',(0.707106781186543,0.,-0.707106781186552));
#1400=DIRECTION('',(0.,1.,0.));
#1401=DIRECTION('',(0.707106781186543,0.,-0.707106781186552));
#1402=DIRECTION('',(1.,0.,0.));
#1403=DIRECTION('',(0.,0.,-1.));
#1404=DIRECTION('',(0.,-1.,0.));
#1405=DIRECTION('',(2.95865929238353E-15,0.,1.));
#1406=DIRECTION('',(0.707106781186548,0.,0.707106781186548));
#1407=DIRECTION('',(0.707106781186548,0.,-0.707106781186548));
#1408=DIRECTION('',(-0.707106781186547,0.,0.707106781186548));
#1409=DIRECTION('',(0.,1.,0.));
#1410=DIRECTION('',(-0.707106781186547,0.,0.707106781186548));
#1411=DIRECTION('',(0.,0.,-1.));
#1412=DIRECTION('',(-1.,0.,0.));
#1413=DIRECTION('',(1.,0.,0.));
#1414=DIRECTION('',(-6.71505861668441E-17,1.,0.));
#1415=DIRECTION('',(1.,0.,0.));
#1416=DIRECTION('',(0.,-1.,0.));
#1417=DIRECTION('',(1.,0.,0.));
#1418=DIRECTION('',(-0.707106781186548,-4.7482634839227E-17,-0.707106781186548));
#1419=DIRECTION('',(6.71505861668441E-17,-1.,0.));
#1420=DIRECTION('',(-0.707106781186548,0.,0.707106781186548));
#1421=DIRECTION('',(-0.707106781186548,0.,0.707106781186548));
#1422=DIRECTION('',(-1.54197642309049E-16,-1.,8.70470561422054E-17));
#1423=DIRECTION('',(-0.707106781186548,0.,0.707106781186548));
#1424=DIRECTION('',(-6.71505861668441E-17,-1.,0.));
#1425=DIRECTION('',(-0.707106781186548,0.,0.707106781186548));
#1426=DIRECTION('',(-0.707106781186548,0.,0.707106781186548));
#1427=DIRECTION('',(-1.54197642309049E-16,1.,8.70470561422054E-17));
#1428=DIRECTION('',(0.707106781186547,0.,-0.707106781186548));
#1429=DIRECTION('',(0.,1.,0.));
#1430=DIRECTION('',(0.707106781186548,0.,0.707106781186547));
#1431=DIRECTION('',(-0.707106781186548,0.,-0.707106781186547));
#1432=DIRECTION('',(0.,1.,0.));
#1433=DIRECTION('',(0.707106781186548,0.,0.707106781186547));
#1434=DIRECTION('',(0.,1.,0.));
#1435=DIRECTION('',(0.,0.,1.));
#1436=DIRECTION('',(1.,0.,0.));
#1437=DIRECTION('',(0.,-1.,0.));
#1438=DIRECTION('',(-1.,0.,0.));
#1439=DIRECTION('',(0.,1.,0.));
#1440=DIRECTION('',(-1.,0.,0.));
#1441=DIRECTION('',(6.71505861668441E-17,-1.,0.));
#1442=DIRECTION('',(1.,0.,0.));
#1443=DIRECTION('',(6.02334540269726E-17,-1.,0.));
#1444=DIRECTION('',(-1.,-1.93517638524962E-16,0.));
#1445=DIRECTION('',(0.,1.,0.));
#1446=DIRECTION('',(-1.,0.,0.));
#1447=DIRECTION('',(-0.707106781186548,0.,-0.707106781186547));
#1448=DIRECTION('',(0.,0.,-1.));
#1449=DIRECTION('',(-0.707106781186548,0.,-0.707106781186548));
#1450=DIRECTION('',(0.707106781186548,0.,-0.707106781186548));
#1451=DIRECTION('',(0.,0.,-1.));
#1452=DIRECTION('',(0.,0.,1.));
#1453=DIRECTION('',(0.707106781186548,0.,0.707106781186548));
#1454=DIRECTION('',(-0.707106781186548,0.,0.707106781186548));
#1455=DIRECTION('',(0.,0.,1.));
#1456=DIRECTION('',(-0.707106781186548,0.,0.707106781186548));
#1457=DIRECTION('',(1.,6.71505861668441E-17,0.));
#1458=DIRECTION('',(-6.71505861668441E-17,1.,0.));
#1459=DIRECTION('',(0.,0.,1.));
#1460=DIRECTION('',(-6.71505861668441E-17,1.,-6.71505861668441E-17));
#1461=DIRECTION('',(1.,6.71505861668441E-17,0.));
#1462=DIRECTION('',(-6.71505861668441E-17,1.,0.));
#1463=DIRECTION('',(-6.71505861668441E-17,1.,1.05208578180918E-32));
#1464=DIRECTION('',(-6.71505861668441E-17,1.,6.71505861668441E-17));
#1465=DIRECTION('',(0.,0.,1.));
#1466=DIRECTION('',(0.707106781186548,0.,-0.707106781186548));
#1467=DIRECTION('',(-0.707106781186548,0.,-0.707106781186548));
#1468=DIRECTION('',(0.707106781186548,0.,0.707106781186548));
#1469=DIRECTION('',(0.,-1.,0.));
#1470=DIRECTION('',(-1.,0.,0.));
#1471=DIRECTION('',(0.,-1.,0.));
#1472=DIRECTION('',(0.,-1.,0.));
#1473=DIRECTION('',(0.,0.,-1.));
#1474=DIRECTION('',(0.,-1.,0.));
#1475=DIRECTION('',(-1.,0.,0.));
#1476=DIRECTION('',(0.,-1.,0.));
#1477=DIRECTION('',(0.,-1.,0.));
#1478=DIRECTION('',(0.,0.,-1.));
#1479=DIRECTION('',(-0.707106781186548,0.,0.707106781186548));
#1480=DIRECTION('',(0.707106781186548,0.,0.707106781186548));
#1481=DIRECTION('',(-0.707106781186548,0.,-0.707106781186548));
#1482=DIRECTION('',(0.,-1.,0.));
#1483=DIRECTION('',(-0.707106781186548,0.,-0.707106781186548));
#1484=DIRECTION('',(-0.707106781186548,0.,0.707106781186548));
#1485=DIRECTION('',(0.707106781186548,0.,-0.707106781186548));
#1486=DIRECTION('',(0.707106781186548,0.,0.707106781186548));
#1487=DIRECTION('',(0.707106781186548,0.,-0.707106781186548));
#1488=DIRECTION('',(-0.707106781186548,0.,0.707106781186548));
#1489=DIRECTION('',(-0.707106781186548,-4.7482634839227E-17,-0.707106781186548));
#1490=DIRECTION('',(6.71505861668441E-17,-1.,0.));
#1491=DIRECTION('',(-0.707106781186548,0.,0.707106781186548));
#1492=DIRECTION('',(-1.54197642309049E-16,1.,8.70470561422054E-17));
#1493=DIRECTION('',(-0.707106781186548,0.,0.707106781186548));
#1494=DIRECTION('',(-0.707106781186548,0.,0.707106781186548));
#1495=DIRECTION('',(6.71505861668441E-17,1.,0.));
#1496=DIRECTION('',(-0.707106781186548,0.,0.707106781186548));
#1497=DIRECTION('',(-1.54197642309049E-16,-1.,8.70470561422054E-17));
#1498=DIRECTION('',(-0.707106781186548,0.,0.707106781186548));
#1499=DIRECTION('',(0.707106781186547,0.,-0.707106781186548));
#1500=DIRECTION('',(0.,1.,0.));
#1501=DIRECTION('',(0.707106781186548,0.,0.707106781186547));
#1502=DIRECTION('',(0.,1.,0.));
#1503=DIRECTION('',(0.707106781186548,0.,0.707106781186547));
#1504=DIRECTION('',(0.,-1.,0.));
#1505=DIRECTION('',(-0.707106781186548,0.,-0.707106781186547));
#1506=DIRECTION('',(-1.,0.,0.));
#1507=DIRECTION('',(0.,0.,1.));
#1508=DIRECTION('',(0.,0.,1.));
#1509=DIRECTION('',(0.,0.,1.));
#1510=DIRECTION('',(-1.,-6.08674903851511E-17,0.));
#1511=DIRECTION('',(6.08674903851511E-17,-1.,0.));
#1512=DIRECTION('',(0.,0.,1.));
#1513=DIRECTION('',(0.,0.,1.));
#1514=DIRECTION('',(-1.,-6.02334540269726E-17,0.));
#1515=DIRECTION('',(6.02334540269726E-17,-1.,0.));
#1516=DIRECTION('',(0.,0.,1.));
#1517=DIRECTION('',(0.,0.,1.));
#1518=DIRECTION('',(-1.93517638524962E-16,1.,0.));
#1519=DIRECTION('',(-1.,-1.93517638524962E-16,0.));
#1520=DIRECTION('',(0.,-1.,0.));
#1521=DIRECTION('',(0.,0.,-1.));
#1522=DIRECTION('',(0.,0.,1.));
#1523=DIRECTION('',(-1.,-1.54197642309049E-16,0.));
#1524=DIRECTION('',(1.54197642309049E-16,-1.,0.));
#1525=DIRECTION('',(0.,0.,1.));
#1526=DIRECTION('',(0.,-1.,0.));
#1527=DIRECTION('',(0.,0.,-1.));
#1528=DIRECTION('',(0.,1.,0.));
#1529=DIRECTION('',(0.,0.,1.));
#1530=DIRECTION('',(0.,0.,1.));
#1531=DIRECTION('',(-1.,0.,0.));
#1532=DIRECTION('',(0.,0.,1.));
#1533=DIRECTION('',(0.,0.,1.));
#1534=DIRECTION('',(0.,0.,1.));
#1535=DIRECTION('',(1.,0.,0.));
#1536=DIRECTION('',(6.02334540269726E-17,1.,0.));
#1537=DIRECTION('',(-1.,1.93517638524962E-16,0.));
#1538=DIRECTION('',(0.,1.,0.));
#1539=DIRECTION('',(-1.,0.,0.));
#1540=DIRECTION('',(-1.,0.,0.));
#1541=DIRECTION('',(1.,0.,0.));
#1542=DIRECTION('',(0.,-1.,0.));
#1543=DIRECTION('',(-1.,0.,0.));
#1544=DIRECTION('',(0.,0.,1.));
#1545=DIRECTION('',(0.,0.,1.));
#1546=DIRECTION('',(0.,-1.,0.));
#1547=DIRECTION('',(0.,0.,1.));
#1548=DIRECTION('',(0.,0.,1.));
#1549=DIRECTION('',(-1.,0.,0.));
#1550=DIRECTION('',(0.,0.,1.));
#1551=DIRECTION('',(0.,-1.,0.));
#1552=DIRECTION('',(0.,0.,1.));
#1553=DIRECTION('',(0.,0.,-1.));
#1554=DIRECTION('',(1.,0.,0.));
#1555=DIRECTION('',(0.,0.,-1.));
#1556=DIRECTION('',(0.,0.,1.));
#1557=DIRECTION('',(1.,0.,0.));
#1558=DIRECTION('',(0.,1.,0.));
#1559=DIRECTION('',(-1.,1.93517638524962E-16,0.));
#1560=DIRECTION('',(6.02334540269726E-17,1.,0.));
#1561=DIRECTION('',(1.,0.,0.));
#1562=DIRECTION('',(-1.,0.,0.));
#1563=DIRECTION('',(-1.,0.,0.));
#1564=DIRECTION('',(0.,-1.,0.));
#1565=DIRECTION('',(-1.,0.,0.));
#1566=DIRECTION('',(-1.,0.,0.));
#1567=DIRECTION('',(0.,0.,1.));
#1568=DIRECTION('',(0.,0.,1.));
#1569=DIRECTION('',(0.,0.,1.));
#1570=DIRECTION('',(-1.,6.02334540269726E-17,0.));
#1571=DIRECTION('',(6.02334540269726E-17,1.,0.));
#1572=DIRECTION('',(0.,0.,1.));
#1573=DIRECTION('',(0.,0.,1.));
#1574=DIRECTION('',(-1.93517638524962E-16,-1.,0.));
#1575=DIRECTION('',(-1.,1.93517638524962E-16,0.));
#1576=DIRECTION('',(0.,1.,0.));
#1577=DIRECTION('',(0.,0.,-1.));
#1578=DIRECTION('',(0.,0.,1.));
#1579=DIRECTION('',(-1.,1.54197642309049E-16,0.));
#1580=DIRECTION('',(1.54197642309049E-16,1.,0.));
#1581=DIRECTION('',(0.,0.,1.));
#1582=DIRECTION('',(0.,1.,0.));
#1583=DIRECTION('',(0.,0.,-1.));
#1584=DIRECTION('',(0.,-1.,0.));
#1585=DIRECTION('',(0.,0.,1.));
#1586=CARTESIAN_POINT('',(0.,0.,0.));
#1587=CARTESIAN_POINT('',(-0.0418999999999991,-0.0723228030251515,0.0665));
#1588=CARTESIAN_POINT('',(0.0026000000000009,-0.0820228030251515,0.0665));
#1589=CARTESIAN_POINT('',(-0.000399999999999109,-0.0820228030251515,0.0665));
#1590=CARTESIAN_POINT('',(0.00335000000000091,-0.0820228030251515,0.0665));
#1591=CARTESIAN_POINT('',(-0.000399999999999108,-0.0962728030251515,0.0665));
#1592=CARTESIAN_POINT('',(-0.000399999999999109,-0.139022803025151,0.0665));
#1593=CARTESIAN_POINT('',(0.0026000000000009,-0.139022803025151,0.0665));
#1594=CARTESIAN_POINT('',(0.00335000000000091,-0.139022803025151,0.0665));
#1595=CARTESIAN_POINT('',(0.0033500000000009,-0.0723228030251515,0.0665));
#1596=CARTESIAN_POINT('',(-0.0418999999999991,-0.0723228030251515,0.0665));
#1597=CARTESIAN_POINT('',(-0.00039999999999911,-0.0550228030251515,0.0665));
#1598=CARTESIAN_POINT('',(-0.00039999999999911,-0.0511772836529015,0.0665));
#1599=CARTESIAN_POINT('',(-0.000399999999999111,-0.0595228030251515,0.0665));
#1600=CARTESIAN_POINT('',(0.00260000000000089,-0.0595228030251515,0.0665));
#1601=CARTESIAN_POINT('',(0.0033500000000009,-0.0595228030251515,0.0665));
#1602=CARTESIAN_POINT('',(0.0033500000000009,-0.0723228030251515,0.0665));
#1603=CARTESIAN_POINT('',(0.0033500000000009,-0.0475228030251515,0.0665));
#1604=CARTESIAN_POINT('',(0.0094000000000009,-0.0475228030251515,0.0665));
#1605=CARTESIAN_POINT('',(-0.08715,-0.0475228030251515,0.0665));
#1606=CARTESIAN_POINT('',(-0.08715,-0.0723228030251515,0.0665));
#1607=CARTESIAN_POINT('',(-0.08715,-0.107022803025151,0.0665));
#1608=CARTESIAN_POINT('',(-0.0859,-0.107022803025151,0.0665));
#1609=CARTESIAN_POINT('',(-0.0833999999999991,-0.107022803025151,0.0665));
#1610=CARTESIAN_POINT('',(-0.0833999999999991,-0.0787728030251515,0.0665));
#1611=CARTESIAN_POINT('',(-0.0833999999999991,-0.0511772836529015,0.0665));
#1612=CARTESIAN_POINT('',(-0.0418999999999991,-0.0511772836529015,0.0665));
#1613=CARTESIAN_POINT('',(-0.0418999999999991,-0.0723228030251515,0.0635));
#1614=CARTESIAN_POINT('',(-0.00039999999999911,-0.0723228030251515,0.0635));
#1615=CARTESIAN_POINT('',(-0.000399999999999109,-0.0820228030251515,0.0635));
#1616=CARTESIAN_POINT('',(-0.000399999999999109,-0.139022803025151,0.0635));
#1617=CARTESIAN_POINT('',(-0.0418999999999991,-0.0820228030251515,0.0635));
#1618=CARTESIAN_POINT('',(0.00210735931288162,-0.0820228030251515,0.0635));
#1619=CARTESIAN_POINT('',(0.00210735931288162,-0.0723228030251515,0.0635));
#1620=CARTESIAN_POINT('',(0.00210735931288162,-0.139022803025151,0.0635));
#1621=CARTESIAN_POINT('',(-0.0418999999999991,-0.139022803025151,0.0635));
#1622=CARTESIAN_POINT('',(0.0094000000000009,-0.0475228030251515,0.0015));
#1623=CARTESIAN_POINT('',(0.0388750000000009,-0.0475228030251515,0.030975));
#1624=CARTESIAN_POINT('',(0.0093500000000009,-0.0475228030251515,0.0605));
#1625=CARTESIAN_POINT('',(0.0093500000000009,-0.0475228030251515,0.0015));
#1626=CARTESIAN_POINT('',(0.0093500000000009,-0.0475228030251515,0.0114671572875254));
#1627=CARTESIAN_POINT('',(0.0119146446609416,-0.0475228030251515,0.00890251262658469));
#1628=CARTESIAN_POINT('',(0.0094000000000009,-0.0475228030251515,0.0114171572875254));
#1629=CARTESIAN_POINT('',(0.0094000000000009,-0.0475228030251515,0.0015));
#1630=CARTESIAN_POINT('',(0.0094000000000009,-0.0475228030251515,0.00484020202535536));
#1631=CARTESIAN_POINT('',(0.00961096500450119,-0.0475228030251515,0.00505116702985565));
#1632=CARTESIAN_POINT('',(0.0093500000000009,-0.0475228030251515,0.00479020202535535));
#1633=CARTESIAN_POINT('',(0.0093500000000009,-0.0475228030251515,0.0015));
#1634=CARTESIAN_POINT('',(0.00935000000000089,-0.0475228030251515,0.0015));
#1635=CARTESIAN_POINT('',(-0.0932,-0.0475228030251515,0.0015));
#1636=CARTESIAN_POINT('',(-0.09315,-0.0475228030251515,0.0015));
#1637=CARTESIAN_POINT('',(-0.09315,-0.0475228030251515,0.0015));
#1638=CARTESIAN_POINT('',(-0.09315,-0.0475228030251515,0.0047902020253553));
#1639=CARTESIAN_POINT('',(-0.0667503048327199,-0.0475228030251515,-0.0216094931419242));
#1640=CARTESIAN_POINT('',(-0.0932,-0.0475228030251515,0.00484020202535532));
#1641=CARTESIAN_POINT('',(-0.0932,-0.0475228030251515,0.0015));
#1642=CARTESIAN_POINT('',(-0.0932,-0.0475228030251515,0.0114171572875255));
#1643=CARTESIAN_POINT('',(-0.0710753048327208,-0.0475228030251515,0.0335418524548048));
#1644=CARTESIAN_POINT('',(-0.09315,-0.0475228030251515,0.0114671572875255));
#1645=CARTESIAN_POINT('',(-0.09315,-0.0475228030251515,0.0015));
#1646=CARTESIAN_POINT('',(-0.09315,-0.0475228030251515,0.0605));
#1647=CARTESIAN_POINT('',(-0.071375,-0.0475228030251515,0.082275));
#1648=CARTESIAN_POINT('',(0.0093500000000009,-0.0971228030251515,0.0015));
#1649=CARTESIAN_POINT('',(0.0093500000000009,-0.0847228030251515,0.0015));
#1650=CARTESIAN_POINT('',(0.00935000000000091,-0.0971228030251515,0.0015));
#1651=CARTESIAN_POINT('',(0.0093500000000009,-0.104622803025151,0.00479020202535536));
#1652=CARTESIAN_POINT('',(0.0093500000000009,-0.173522803025151,0.00479020202535535));
#1653=CARTESIAN_POINT('',(0.0093500000000009,-0.173522803025151,0.0015));
#1654=CARTESIAN_POINT('',(0.00935000000000089,-0.173522803025151,0.0015));
#1655=CARTESIAN_POINT('',(0.0093500000000009,-0.136322803025151,0.0015));
#1656=CARTESIAN_POINT('',(0.0093500000000009,-0.123922803025151,0.0015));
#1657=CARTESIAN_POINT('',(0.0093500000000009,-0.110522803025151,0.0015));
#1658=CARTESIAN_POINT('',(0.0093500000000009,-0.114989469691818,0.0015));
#1659=CARTESIAN_POINT('',(0.0093500000000009,-0.119456136358485,0.0015));
#1660=CARTESIAN_POINT('',(0.0093500000000009,-0.123922803025152,0.0015));
#1661=CARTESIAN_POINT('',(0.00935000000000091,-0.110522803025151,0.0015));
#1662=CARTESIAN_POINT('',(0.00935000000000091,-0.110524803025151,0.0015));
#1663=CARTESIAN_POINT('',(0.0093500000000009,-0.0971228030251515,0.0015));
#1664=CARTESIAN_POINT('',(0.0093500000000009,-0.0971228030251515,0.0605));
#1665=CARTESIAN_POINT('',(0.0093500000000009,-0.173522803025151,0.0605));
#1666=CARTESIAN_POINT('',(0.0093500000000009,-0.173522803025151,0.0015));
#1667=CARTESIAN_POINT('',(0.0093500000000009,-0.173522803025151,0.0114671572875254));
#1668=CARTESIAN_POINT('',(0.0093500000000009,-0.104622803025151,0.0114671572875254));
#1669=CARTESIAN_POINT('',(-0.0942106601717789,-0.0473228030251515,0.00812867965644037));
#1670=CARTESIAN_POINT('',(0.0115213203435605,-0.0473228030251515,0.00869154762208439));
#1671=CARTESIAN_POINT('',(0.0115213203435605,-0.0473228030251515,0.00696152236891499));
#1672=CARTESIAN_POINT('',(0.0115213203435605,-0.0473228030251515,0.00929583694396571));
#1673=CARTESIAN_POINT('',(0.0115207999615562,-0.0473228030251515,0.0069610019869107));
#1674=CARTESIAN_POINT('',(0.0094000000000009,-0.0473228030251515,0.00484020202535538));
#1675=CARTESIAN_POINT('',(0.0094000000000009,-0.0473228030251515,0.0015));
#1676=CARTESIAN_POINT('',(0.0094000000000009,-0.0473228030251515,0.0114171572875253));
#1677=CARTESIAN_POINT('',(0.0105101397897764,-0.0473228030251515,0.0103070174977498));
#1678=CARTESIAN_POINT('',(0.0114920310216792,-0.112122803025151,0.00693223304703363));
#1679=CARTESIAN_POINT('',(0.0115213203435605,-0.112122803025151,0.00696152236891498));
#1680=CARTESIAN_POINT('',(0.0115213203435605,-0.173722803025152,0.00696152236891499));
#1681=CARTESIAN_POINT('',(0.0115207999615562,-0.173722803025152,0.0069610019869107));
#1682=CARTESIAN_POINT('',(0.0094000000000009,-0.173722803025152,0.00484020202535538));
#1683=CARTESIAN_POINT('',(0.0094000000000009,-0.108922803025152,0.00484020202535536));
#1684=CARTESIAN_POINT('',(0.0094000000000009,-0.173522803025151,0.00484020202535536));
#1685=CARTESIAN_POINT('',(0.00961096500450119,-0.173522803025151,0.00505116702985565));
#1686=CARTESIAN_POINT('',(0.0094000000000009,-0.112122803025151,0.00484020202535536));
#1687=CARTESIAN_POINT('',(0.0094000000000009,-0.112122803025151,0.00498162338159267));
#1688=CARTESIAN_POINT('',(0.0094000000000009,-0.112122803025151,0.0114171572875254));
#1689=CARTESIAN_POINT('',(-0.09315,-0.0475228030251515,0.0015));
#1690=CARTESIAN_POINT('',(-0.09315,-0.0475228030251515,0.0605));
#1691=CARTESIAN_POINT('',(-0.09315,-0.173522803025151,0.0605));
#1692=CARTESIAN_POINT('',(-0.09315,-0.0798228030251515,0.0114671572875255));
#1693=CARTESIAN_POINT('',(-0.09315,-0.173522803025151,0.0114671572875255));
#1694=CARTESIAN_POINT('',(-0.09315,-0.173522803025151,0.0015));
#1695=CARTESIAN_POINT('',(-0.09315,-0.0475228030251515,0.0015));
#1696=CARTESIAN_POINT('',(-0.09315,-0.0599228030251515,0.0015));
#1697=CARTESIAN_POINT('',(-0.09315,-0.0971228030251515,0.0015));
#1698=CARTESIAN_POINT('',(-0.09315,-0.110524803025151,0.0015));
#1699=CARTESIAN_POINT('',(-0.09315,-0.110522803025151,0.0015));
#1700=CARTESIAN_POINT('',(-0.09315,-0.123922803025152,0.0015));
#1701=CARTESIAN_POINT('',(-0.09315,-0.119456136358485,0.0015));
#1702=CARTESIAN_POINT('',(-0.09315,-0.114989469691818,0.0015));
#1703=CARTESIAN_POINT('',(-0.09315,-0.110522803025152,0.0015));
#1704=CARTESIAN_POINT('',(-0.09315,-0.123922803025151,0.0015));
#1705=CARTESIAN_POINT('',(-0.09315,-0.161122803025152,0.0015));
#1706=CARTESIAN_POINT('',(-0.09315,-0.173522803025151,0.0015));
#1707=CARTESIAN_POINT('',(-0.09315,-0.173522803025151,0.0015));
#1708=CARTESIAN_POINT('',(-0.09315,-0.173522803025151,0.0047902020253553));
#1709=CARTESIAN_POINT('',(-0.09315,-0.0798228030251515,0.00479020202535529));
#1710=CARTESIAN_POINT('',(-0.0942106601717789,-0.0473228030251515,0.00812867965644037));
#1711=CARTESIAN_POINT('',(-0.0953213203435588,-0.0473228030251515,0.00756581169079633));
#1712=CARTESIAN_POINT('',(-0.0953213203435588,-0.0473228030251515,0.0092958369439657));
#1713=CARTESIAN_POINT('',(-0.0953213203435588,-0.0473228030251515,0.00696152236891497));
#1714=CARTESIAN_POINT('',(-0.0953207999615545,-0.0473228030251515,0.00929635732596999));
#1715=CARTESIAN_POINT('',(-0.0932,-0.0473228030251515,0.0114171572875255));
#1716=CARTESIAN_POINT('',(-0.0932,-0.0473228030251515,0.0665));
#1717=CARTESIAN_POINT('',(-0.0932,-0.0473228030251515,0.00484020202535527));
#1718=CARTESIAN_POINT('',(-0.0943101397897747,-0.0473228030251515,0.00595034181513086));
#1719=CARTESIAN_POINT('',(-0.0952920310216774,-0.112122803025151,0.00932512626584705));
#1720=CARTESIAN_POINT('',(-0.0953213203435588,-0.112122803025151,0.00929583694396571));
#1721=CARTESIAN_POINT('',(-0.0953213203435588,-0.173722803025152,0.0092958369439657));
#1722=CARTESIAN_POINT('',(-0.0953207999615545,-0.173722803025152,0.00929635732596999));
#1723=CARTESIAN_POINT('',(-0.0932,-0.173722803025152,0.0114171572875255));
#1724=CARTESIAN_POINT('',(-0.0932,-0.108922803025152,0.0114171572875255));
#1725=CARTESIAN_POINT('',(-0.0932,-0.173522803025151,0.0114171572875255));
#1726=CARTESIAN_POINT('',(-0.0710753048327208,-0.173522803025151,0.0335418524548048));
#1727=CARTESIAN_POINT('',(-0.0932,-0.112122803025151,0.0114171572875255));
#1728=CARTESIAN_POINT('',(-0.0932,-0.112122803025151,0.0112757359312881));
#1729=CARTESIAN_POINT('',(-0.0932,-0.112122803025151,0.0048402020253553));
#1730=CARTESIAN_POINT('',(-0.0953213203435588,-0.112122803025151,0.00700294372515228));
#1731=CARTESIAN_POINT('',(-0.0953213203435588,-0.112122803025151,0.00696152236891496));
#1732=CARTESIAN_POINT('',(-0.0953213203435588,-0.173722803025152,0.00696152236891497));
#1733=CARTESIAN_POINT('',(-0.0953213203435588,-0.173722803025152,0.00756581169079633));
#1734=CARTESIAN_POINT('',(-0.0932707106781178,-0.112122803025151,0.00491091270347396));
#1735=CARTESIAN_POINT('',(-0.0667503048327199,-0.173522803025151,-0.0216094931419242));
#1736=CARTESIAN_POINT('',(-0.0932,-0.173522803025151,0.00484020202535532));
#1737=CARTESIAN_POINT('',(-0.0932,-0.108922803025152,0.0048402020253553));
#1738=CARTESIAN_POINT('',(-0.0932,-0.173722803025152,0.00484020202535527));
#1739=CARTESIAN_POINT('',(-0.0943101397897747,-0.173722803025152,0.00595034181513086));
#1740=CARTESIAN_POINT('',(0.0115213203435605,-0.112122803025151,0.00925441558772843));
#1741=CARTESIAN_POINT('',(0.0115213203435605,-0.112122803025151,0.00929583694396573));
#1742=CARTESIAN_POINT('',(0.0115213203435605,-0.173722803025152,0.00929583694396571));
#1743=CARTESIAN_POINT('',(0.0115213203435605,-0.173722803025152,0.00869154762208439));
#1744=CARTESIAN_POINT('',(0.00947071067811956,-0.112122803025151,0.0113464466094067));
#1745=CARTESIAN_POINT('',(0.0119146446609416,-0.173522803025151,0.00890251262658469));
#1746=CARTESIAN_POINT('',(0.0094000000000009,-0.173522803025151,0.0114171572875254));
#1747=CARTESIAN_POINT('',(0.0094000000000009,-0.108922803025152,0.0114171572875254));
#1748=CARTESIAN_POINT('',(0.0094000000000009,-0.173722803025152,0.0114171572875253));
#1749=CARTESIAN_POINT('',(0.0105101397897764,-0.173722803025152,0.0103070174977498));
#1750=CARTESIAN_POINT('',(-0.0418999999999991,-0.0723228030251515,0.0015));
#1751=CARTESIAN_POINT('',(-0.0418999999999991,-0.170522803025151,0.0015));
#1752=CARTESIAN_POINT('',(-0.09015,-0.170522803025151,0.0015));
#1753=CARTESIAN_POINT('',(0.0063500000000009,-0.170522803025151,0.0015));
#1754=CARTESIAN_POINT('',(0.0063500000000009,-0.0971228030251515,0.0015));
#1755=CARTESIAN_POINT('',(0.0063500000000009,-0.0505228030251515,0.0015));
#1756=CARTESIAN_POINT('',(-0.0418999999999991,-0.0505228030251515,0.0015));
#1757=CARTESIAN_POINT('',(-0.09015,-0.0505228030251515,0.0015));
#1758=CARTESIAN_POINT('',(-0.09015,-0.0475228030251515,0.0015));
#1759=CARTESIAN_POINT('',(-0.0932,-0.173522803025151,0.0015));
#1760=CARTESIAN_POINT('',(0.0093500000000009,-0.0971228030251515,0.0605));
#1761=CARTESIAN_POINT('',(0.0093500000000009,-0.0820228030251515,0.0605));
#1762=CARTESIAN_POINT('',(0.0056000000000009,-0.0820228030251515,0.06425));
#1763=CARTESIAN_POINT('',(0.0093500000000009,-0.139022803025151,0.0605));
#1764=CARTESIAN_POINT('',(0.0056000000000009,-0.139022803025151,0.06425));
#1765=CARTESIAN_POINT('',(0.0056000000000009,-0.123922803025151,0.06425));
#1766=CARTESIAN_POINT('',(0.00560000000000091,-0.161522803025151,0.06425));
#1767=CARTESIAN_POINT('',(0.0093500000000009,-0.161522803025151,0.0605));
#1768=CARTESIAN_POINT('',(0.0033500000000009,-0.161522803025151,0.0665));
#1769=CARTESIAN_POINT('',(0.0033500000000009,-0.148722803025151,0.0665));
#1770=CARTESIAN_POINT('',(0.0033500000000009,-0.173522803025151,0.0665));
#1771=CARTESIAN_POINT('',(0.0388750000000009,-0.173522803025151,0.030975));
#1772=CARTESIAN_POINT('',(0.0093500000000009,-0.0595228030251515,0.0605));
#1773=CARTESIAN_POINT('',(0.00560000000000091,-0.0595228030251515,0.06425));
#1774=CARTESIAN_POINT('',(0.0056000000000009,-0.0971228030251515,0.06425));
#1775=CARTESIAN_POINT('',(-0.09315,-0.0475228030251515,0.0605));
#1776=CARTESIAN_POINT('',(-0.09315,-0.107022803025151,0.0605));
#1777=CARTESIAN_POINT('',(-0.0884,-0.107022803025151,0.0652500000000009));
#1778=CARTESIAN_POINT('',(-0.071375,-0.173522803025151,0.082275));
#1779=CARTESIAN_POINT('',(-0.08715,-0.173522803025151,0.0665));
#1780=CARTESIAN_POINT('',(-0.08715,-0.148722803025151,0.0665));
#1781=CARTESIAN_POINT('',(-0.08715,-0.114022803025151,0.0665));
#1782=CARTESIAN_POINT('',(-0.09315,-0.114022803025151,0.0605));
#1783=CARTESIAN_POINT('',(-0.0884,-0.114022803025151,0.0652500000000009));
#1784=CARTESIAN_POINT('',(-0.0884,-0.0475228030251515,0.0652500000000009));
#1785=CARTESIAN_POINT('',(-0.0418999999999991,-0.0723228030251515,0.0635));
#1786=CARTESIAN_POINT('',(-0.0833999999999991,-0.0723228030251515,0.0635));
#1787=CARTESIAN_POINT('',(-0.0833999999999991,-0.0511772836529015,0.0635));
#1788=CARTESIAN_POINT('',(-0.0833999999999991,-0.107022803025151,0.0635));
#1789=CARTESIAN_POINT('',(-0.0418999999999991,-0.107022803025151,0.0635));
#1790=CARTESIAN_POINT('',(-0.0859073593128807,-0.107022803025151,0.0635));
#1791=CARTESIAN_POINT('',(-0.0859073593128807,-0.0723228030251515,0.0635));
#1792=CARTESIAN_POINT('',(-0.0859073593128807,-0.0505228030251515,0.0635));
#1793=CARTESIAN_POINT('',(-0.0418999999999991,-0.0505228030251515,0.0635));
#1794=CARTESIAN_POINT('',(0.00210735931288162,-0.0505228030251515,0.0635));
#1795=CARTESIAN_POINT('',(0.00210735931288162,-0.0723228030251515,0.0635));
#1796=CARTESIAN_POINT('',(0.00210735931288162,-0.0595228030251515,0.0635));
#1797=CARTESIAN_POINT('',(-0.0418999999999991,-0.0595228030251515,0.0635));
#1798=CARTESIAN_POINT('',(-0.000399999999999111,-0.0595228030251515,0.0635));
#1799=CARTESIAN_POINT('',(-0.00039999999999911,-0.0723228030251515,0.0635));
#1800=CARTESIAN_POINT('',(-0.00039999999999911,-0.0511772836529015,0.0635));
#1801=CARTESIAN_POINT('',(-0.0418999999999991,-0.0511772836529015,0.0635));
#1802=CARTESIAN_POINT('',(0.0094000000000009,-0.0505228030251515,0.0015));
#1803=CARTESIAN_POINT('',(-0.0692536796564399,-0.0505228030251515,0.0801536796564409));
#1804=CARTESIAN_POINT('',(-0.09015,-0.0505228030251515,0.0592573593128807));
#1805=CARTESIAN_POINT('',(-0.09015,-0.0505228030251515,0.0015));
#1806=CARTESIAN_POINT('',(-0.09015,-0.0505228030251515,0.0102245166004052));
#1807=CARTESIAN_POINT('',(-0.0931707106781177,-0.0505228030251515,0.00720380592228741));
#1808=CARTESIAN_POINT('',(-0.0922458369439648,-0.0505228030251515,0.0081286796564403));
#1809=CARTESIAN_POINT('',(-0.0911493903345582,-0.0505228030251515,0.0070322330470336));
#1810=CARTESIAN_POINT('',(-0.09015,-0.0505228030251515,0.00603284271247544));
#1811=CARTESIAN_POINT('',(-0.09015,-0.0505228030251515,0.0015));
#1812=CARTESIAN_POINT('',(0.0063500000000009,-0.0505228030251515,0.0015));
#1813=CARTESIAN_POINT('',(0.0063500000000009,-0.0505228030251515,0.00603284271247462));
#1814=CARTESIAN_POINT('',(0.00937071067811956,-0.0505228030251515,0.00905355339059327));
#1815=CARTESIAN_POINT('',(0.00844583694396663,-0.0505228030251515,0.00812867965644035));
#1816=CARTESIAN_POINT('',(0.00734939033455992,-0.0505228030251515,0.00922512626584706));
#1817=CARTESIAN_POINT('',(0.0063500000000009,-0.0505228030251515,0.0102245166004061));
#1818=CARTESIAN_POINT('',(0.0063500000000009,-0.0505228030251515,0.0015));
#1819=CARTESIAN_POINT('',(0.0063500000000009,-0.0505228030251515,0.0592573593128807));
#1820=CARTESIAN_POINT('',(0.0367536796564412,-0.0505228030251515,0.0288536796564404));
#1821=CARTESIAN_POINT('',(0.0063500000000009,-0.0971228030251515,0.0015));
#1822=CARTESIAN_POINT('',(0.0063500000000009,-0.170522803025151,0.0015));
#1823=CARTESIAN_POINT('',(0.0063500000000009,-0.170522803025151,0.00603284271247462));
#1824=CARTESIAN_POINT('',(0.0063500000000009,-0.0971228030251515,0.00603284271247462));
#1825=CARTESIAN_POINT('',(0.0063500000000009,-0.0971228030251515,0.0015));
#1826=CARTESIAN_POINT('',(0.0063500000000009,-0.0971228030251515,0.0592573593128807));
#1827=CARTESIAN_POINT('',(0.0063500000000009,-0.170522803025151,0.0592573593128807));
#1828=CARTESIAN_POINT('',(0.0063500000000009,-0.112122803025151,0.0102245166004061));
#1829=CARTESIAN_POINT('',(0.0063500000000009,-0.170522803025151,0.0102245166004061));
#1830=CARTESIAN_POINT('',(0.0063500000000009,-0.170522803025151,0.0015));
#1831=CARTESIAN_POINT('',(0.00937071067811956,-0.112122803025151,0.00905355339059327));
#1832=CARTESIAN_POINT('',(0.00937071067811956,-0.170522803025151,0.00905355339059327));
#1833=CARTESIAN_POINT('',(0.00844583694396663,-0.170522803025151,0.00812867965644035));
#1834=CARTESIAN_POINT('',(0.00844583694396663,-0.112122803025151,0.00812867965644035));
#1835=CARTESIAN_POINT('',(-0.09015,-0.0475228030251515,0.0015));
#1836=CARTESIAN_POINT('',(-0.09015,-0.0475228030251515,0.0592573593128807));
#1837=CARTESIAN_POINT('',(-0.09015,-0.170522803025151,0.0592573593128807));
#1838=CARTESIAN_POINT('',(-0.09015,-0.170522803025151,0.0015));
#1839=CARTESIAN_POINT('',(-0.09015,-0.170522803025151,0.0102245166004052));
#1840=CARTESIAN_POINT('',(-0.09015,-0.112122803025151,0.0102245166004052));
#1841=CARTESIAN_POINT('',(-0.09015,-0.0475228030251515,0.0015));
#1842=CARTESIAN_POINT('',(-0.09015,-0.0475228030251515,0.00603284271247544));
#1843=CARTESIAN_POINT('',(-0.09015,-0.170522803025151,0.00603284271247544));
#1844=CARTESIAN_POINT('',(-0.09015,-0.170522803025151,0.0015));
#1845=CARTESIAN_POINT('',(-0.0931707106781177,-0.112122803025151,0.00720380592228741));
#1846=CARTESIAN_POINT('',(-0.0931707106781177,-0.170522803025151,0.00720380592228741));
#1847=CARTESIAN_POINT('',(-0.0922458369439648,-0.170522803025151,0.0081286796564403));
#1848=CARTESIAN_POINT('',(-0.0922458369439648,-0.112122803025151,0.0081286796564403));
#1849=CARTESIAN_POINT('',(-0.0911493903345582,-0.112122803025151,0.0070322330470336));
#1850=CARTESIAN_POINT('',(-0.0911493903345582,-0.170522803025151,0.0070322330470336));
#1851=CARTESIAN_POINT('',(0.00734939033455992,-0.112122803025151,0.00922512626584706));
#1852=CARTESIAN_POINT('',(0.00734939033455992,-0.170522803025151,0.00922512626584706));
#1853=CARTESIAN_POINT('',(0.00722867965644126,-0.0971228030251515,0.0583786796564404));
#1854=CARTESIAN_POINT('',(0.00722867965644126,-0.0820228030251515,0.0583786796564404));
#1855=CARTESIAN_POINT('',(0.0056000000000009,-0.0820228030251515,0.0600073593128807));
#1856=CARTESIAN_POINT('',(0.0056000000000009,-0.0971228030251515,0.0600073593128807));
#1857=CARTESIAN_POINT('',(0.00560000000000091,-0.0595228030251515,0.0600073593128807));
#1858=CARTESIAN_POINT('',(0.00722867965644126,-0.0595228030251515,0.0583786796564404));
#1859=CARTESIAN_POINT('',(0.0367536796564412,-0.170522803025151,0.0288536796564404));
#1860=CARTESIAN_POINT('',(0.00210735931288162,-0.170522803025151,0.0635));
#1861=CARTESIAN_POINT('',(0.00210735931288162,-0.148722803025151,0.0635));
#1862=CARTESIAN_POINT('',(0.00210735931288162,-0.161522803025151,0.0635));
#1863=CARTESIAN_POINT('',(0.00722867965644126,-0.161522803025151,0.0583786796564404));
#1864=CARTESIAN_POINT('',(0.00560000000000091,-0.161522803025151,0.0600073593128807));
#1865=CARTESIAN_POINT('',(0.0056000000000009,-0.123922803025151,0.0600073593128807));
#1866=CARTESIAN_POINT('',(0.0056000000000009,-0.139022803025151,0.0600073593128807));
#1867=CARTESIAN_POINT('',(0.00722867965644126,-0.139022803025151,0.0583786796564404));
#1868=CARTESIAN_POINT('',(-0.0910286796564404,-0.0475228030251515,0.0583786796564404));
#1869=CARTESIAN_POINT('',(-0.0910286796564404,-0.107022803025151,0.0583786796564404));
#1870=CARTESIAN_POINT('',(-0.0884,-0.107022803025151,0.0610073593128817));
#1871=CARTESIAN_POINT('',(-0.0884,-0.0475228030251515,0.0610073593128816));
#1872=CARTESIAN_POINT('',(-0.0884,-0.114022803025151,0.0610073593128817));
#1873=CARTESIAN_POINT('',(-0.0910286796564404,-0.114022803025151,0.0583786796564404));
#1874=CARTESIAN_POINT('',(-0.0859073593128807,-0.114022803025151,0.0635));
#1875=CARTESIAN_POINT('',(-0.0859073593128807,-0.148722803025151,0.0635));
#1876=CARTESIAN_POINT('',(-0.0859073593128807,-0.170522803025151,0.0635));
#1877=CARTESIAN_POINT('',(-0.0692536796564399,-0.170522803025151,0.0801536796564409));
#1878=CARTESIAN_POINT('',(-0.0833999999999991,-0.0787728030251515,-0.0752476621623444));
#1879=CARTESIAN_POINT('',(-0.0833999999999991,-0.0511772836529015,-0.0752476621623444));
#1880=CARTESIAN_POINT('',(-0.0833999999999991,-0.107022803025151,-0.0752476621623444));
#1881=CARTESIAN_POINT('',(-0.000399999999999108,-0.0962728030251515,-0.0752476621623444));
#1882=CARTESIAN_POINT('',(-0.000399999999999109,-0.139022803025151,-0.0752476621623444));
#1883=CARTESIAN_POINT('',(-0.000399999999999109,-0.0820228030251515,-0.0752476621623444));
#1884=CARTESIAN_POINT('',(-0.00039999999999911,-0.0550228030251515,-0.0752476621623444));
#1885=CARTESIAN_POINT('',(-0.000399999999999111,-0.0595228030251515,-0.0752476621623444));
#1886=CARTESIAN_POINT('',(-0.00039999999999911,-0.0511772836529015,-0.0752476621623444));
#1887=CARTESIAN_POINT('',(-0.0418999999999991,-0.0511772836529015,-0.0752476621623444));
#1888=CARTESIAN_POINT('',(0.0026000000000009,-0.0820228030251515,-0.0752476621623444));
#1889=CARTESIAN_POINT('',(0.0056000000000009,-0.0820228030251515,-0.0752476621623444));
#1890=CARTESIAN_POINT('',(0.0056000000000009,-0.0707728030251515,-0.0752476621623444));
#1891=CARTESIAN_POINT('',(0.0056000000000009,-0.0595228030251515,-0.0752476621623444));
#1892=CARTESIAN_POINT('',(0.00260000000000089,-0.0595228030251515,-0.0752476621623444));
#1893=CARTESIAN_POINT('',(-0.0859,-0.107022803025151,-0.0752476621623444));
#1894=CARTESIAN_POINT('',(-0.0884,-0.107022803025151,-0.0752476621623444));
#1895=CARTESIAN_POINT('',(-0.0884,-0.110522803025151,-0.0752476621623444));
#1896=CARTESIAN_POINT('',(-0.0884,-0.114022803025151,-0.0752476621623444));
#1897=CARTESIAN_POINT('',(-0.0418999999999991,-0.148722803025151,0.0665));
#1898=CARTESIAN_POINT('',(-0.00039999999999911,-0.166022803025151,0.0665));
#1899=CARTESIAN_POINT('',(-0.00039999999999911,-0.169868322397402,0.0665));
#1900=CARTESIAN_POINT('',(-0.000399999999999111,-0.161522803025151,0.0665));
#1901=CARTESIAN_POINT('',(-0.0418999999999991,-0.169868322397402,0.0665));
#1902=CARTESIAN_POINT('',(-0.0833999999999991,-0.169868322397402,0.0665));
#1903=CARTESIAN_POINT('',(-0.0833999999999991,-0.142272803025151,0.0665));
#1904=CARTESIAN_POINT('',(-0.0833999999999991,-0.114022803025151,0.0665));
#1905=CARTESIAN_POINT('',(-0.0859,-0.114022803025151,0.0665));
#1906=CARTESIAN_POINT('',(0.0094000000000009,-0.173522803025151,0.0665));
#1907=CARTESIAN_POINT('',(0.00260000000000089,-0.161522803025151,0.0665));
#1908=CARTESIAN_POINT('',(0.0094000000000009,-0.173522803025151,0.0015));
#1909=CARTESIAN_POINT('',(-0.0932,-0.173522803025151,0.0015));
#1910=CARTESIAN_POINT('',(0.0094000000000009,-0.173522803025151,0.0015));
#1911=CARTESIAN_POINT('',(-0.0942106601717789,-0.173722803025152,0.00812867965644037));
#1912=CARTESIAN_POINT('',(0.0094000000000009,-0.173722803025152,0.0015));
#1913=CARTESIAN_POINT('',(0.0094000000000009,-0.108922803025152,0.00498162338159267));
#1914=CARTESIAN_POINT('',(-0.0942106601717789,-0.173722803025152,0.00812867965644037));
#1915=CARTESIAN_POINT('',(-0.0932,-0.173722803025152,0.0665));
#1916=CARTESIAN_POINT('',(-0.0932,-0.108922803025152,0.0112757359312881));
#1917=CARTESIAN_POINT('',(-0.0418999999999991,-0.148722803025151,0.0635));
#1918=CARTESIAN_POINT('',(-0.0833999999999991,-0.148722803025151,0.0635));
#1919=CARTESIAN_POINT('',(-0.0833999999999991,-0.169868322397402,0.0635));
#1920=CARTESIAN_POINT('',(-0.0833999999999991,-0.114022803025151,0.0635));
#1921=CARTESIAN_POINT('',(-0.0418999999999991,-0.169868322397402,0.0635));
#1922=CARTESIAN_POINT('',(-0.00039999999999911,-0.169868322397402,0.0635));
#1923=CARTESIAN_POINT('',(-0.00039999999999911,-0.148722803025151,0.0635));
#1924=CARTESIAN_POINT('',(-0.000399999999999111,-0.161522803025151,0.0635));
#1925=CARTESIAN_POINT('',(-0.0418999999999991,-0.161522803025151,0.0635));
#1926=CARTESIAN_POINT('',(-0.0418999999999991,-0.170522803025151,0.0635));
#1927=CARTESIAN_POINT('',(-0.0418999999999991,-0.114022803025151,0.0635));
#1928=CARTESIAN_POINT('',(0.0094000000000009,-0.170522803025151,0.0015));
#1929=CARTESIAN_POINT('',(-0.0833999999999991,-0.142272803025151,-0.0752476621623444));
#1930=CARTESIAN_POINT('',(-0.0833999999999991,-0.169868322397402,-0.0752476621623444));
#1931=CARTESIAN_POINT('',(-0.0833999999999991,-0.114022803025151,-0.0752476621623444));
#1932=CARTESIAN_POINT('',(-0.00039999999999911,-0.166022803025151,-0.0752476621623444));
#1933=CARTESIAN_POINT('',(-0.00039999999999911,-0.169868322397402,-0.0752476621623444));
#1934=CARTESIAN_POINT('',(-0.000399999999999111,-0.161522803025151,-0.0752476621623444));
#1935=CARTESIAN_POINT('',(-0.0418999999999991,-0.169868322397402,-0.0752476621623444));
#1936=CARTESIAN_POINT('',(0.0026000000000009,-0.139022803025151,-0.0752476621623444));
#1937=CARTESIAN_POINT('',(0.0056000000000009,-0.139022803025151,-0.0752476621623444));
#1938=CARTESIAN_POINT('',(0.0056000000000009,-0.150272803025152,-0.0752476621623444));
#1939=CARTESIAN_POINT('',(0.0056000000000009,-0.161522803025151,-0.0752476621623444));
#1940=CARTESIAN_POINT('',(0.00260000000000089,-0.161522803025151,-0.0752476621623444));
#1941=CARTESIAN_POINT('',(-0.0859,-0.114022803025151,-0.0752476621623444));
#1942=MECHANICAL_DESIGN_GEOMETRIC_PRESENTATION_REPRESENTATION('',(#1229),
#1943);
#1943=(
GEOMETRIC_REPRESENTATION_CONTEXT(3)
GLOBAL_UNCERTAINTY_ASSIGNED_CONTEXT((#1944))
GLOBAL_UNIT_ASSIGNED_CONTEXT((#1947,#1946,#1945))
REPRESENTATION_CONTEXT('Pipette Holder','TOP_LEVEL_ASSEMBLY_PART')
);
#1944=UNCERTAINTY_MEASURE_WITH_UNIT(LENGTH_MEASURE(2.E-5),#1947,
'DISTANCE_ACCURACY_VALUE','Maximum Tolerance applied to model');
#1945=(
NAMED_UNIT(*)
SI_UNIT($,.STERADIAN.)
SOLID_ANGLE_UNIT()
);
#1946=(
NAMED_UNIT(*)
PLANE_ANGLE_UNIT()
SI_UNIT($,.RADIAN.)
);
#1947=(
LENGTH_UNIT()
NAMED_UNIT(*)
SI_UNIT($,.METRE.)
);
#1948=PRODUCT_DEFINITION_SHAPE('','',#1949);
#1949=PRODUCT_DEFINITION('','',#1951,#1950);
#1950=PRODUCT_DEFINITION_CONTEXT('',#1957,'design');
#1951=PRODUCT_DEFINITION_FORMATION_WITH_SPECIFIED_SOURCE('','',#1953,
 .NOT_KNOWN.);
#1952=PRODUCT_RELATED_PRODUCT_CATEGORY('','',(#1953));
#1953=PRODUCT('Pipette Holder','Pipette Holder','Pipette Holder',(#1955));
#1954=PRODUCT_CATEGORY('','');
#1955=PRODUCT_CONTEXT('',#1957,'mechanical');
#1956=APPLICATION_PROTOCOL_DEFINITION('international standard',
'ap242_managed_model_based_3d_engineering',2020,#1957);
#1957=APPLICATION_CONTEXT('managed model based 3d engineering');
ENDSEC;
END-ISO-10303-21;
