ISO-10303-21;
HEADER;
/* Generated by software containing ST-Developer
 * from STEP Tools, Inc. (www.steptools.com) 
 */

FILE_DESCRIPTION(
/* description */ (''),
/* implementation_level */ '2;1');

FILE_NAME(
/* name */ '4ml Vial Holder.step',
/* time_stamp */ '2026-09-15T03:27:21+08:00',
/* author */ (''),
/* organization */ (''),
/* preprocessor_version */ 'ST-DEVELOPER v20.1',
/* originating_system */ 'Autodesk Translation Framework v15.8.0.0',
/* authorisation */ '');

FILE_SCHEMA (('AUTOMOTIVE_DESIGN { 1 0 10303 214 3 1 1 }'));
ENDSEC;

DATA;
#10=MECHANICAL_DESIGN_GEOMETRIC_PRESENTATION_REPRESENTATION('',(#17),#1912);
#11=ITEM_DEFINED_TRANSFORMATION($,$,#1076,#1235);
#12=(
REPRESENTATION_RELATIONSHIP($,$,#1923,#1922)
REPRESENTATION_RELATIONSHIP_WITH_TRANSFORMATION(#11)
SHAPE_REPRESENTATION_RELATIONSHIP()
);
#13=CONTEXT_DEPENDENT_SHAPE_REPRESENTATION(#12,#1921);
#14=NEXT_ASSEMBLY_USAGE_OCCURRENCE(
'4ml well plate for exisiting bed plate - latest v1:1',
'4ml well plate for exisiting bed plate - latest v1:1',
'4ml well plate for exisiting bed plate - latest v1:1',#1925,#1926,
'4ml well plate for exisiting bed plate - latest v1:1');
#15=SHAPE_REPRESENTATION_RELATIONSHIP('SRR','None',#1923,#16);
#16=ADVANCED_BREP_SHAPE_REPRESENTATION('',(#18),#1911);
#17=STYLED_ITEM('',(#1937),#18);
#18=MANIFOLD_SOLID_BREP('Body1',#1062);
#19=CYLINDRICAL_SURFACE('',#1118,2.);
#20=CYLINDRICAL_SURFACE('',#1121,2.);
#21=CYLINDRICAL_SURFACE('',#1127,2.);
#22=CYLINDRICAL_SURFACE('',#1128,2.);
#23=CYLINDRICAL_SURFACE('',#1199,8.25);
#24=CYLINDRICAL_SURFACE('',#1200,8.25);
#25=CYLINDRICAL_SURFACE('',#1201,8.25);
#26=CYLINDRICAL_SURFACE('',#1202,8.25);
#27=CYLINDRICAL_SURFACE('',#1203,8.25);
#28=CYLINDRICAL_SURFACE('',#1204,8.25);
#29=CYLINDRICAL_SURFACE('',#1205,8.25);
#30=CYLINDRICAL_SURFACE('',#1206,8.25);
#31=CYLINDRICAL_SURFACE('',#1207,8.25);
#32=CYLINDRICAL_SURFACE('',#1208,8.25);
#33=CYLINDRICAL_SURFACE('',#1209,8.25);
#34=CYLINDRICAL_SURFACE('',#1210,8.25);
#35=CYLINDRICAL_SURFACE('',#1211,8.25);
#36=CYLINDRICAL_SURFACE('',#1212,8.25);
#37=CYLINDRICAL_SURFACE('',#1213,8.25);
#38=CYLINDRICAL_SURFACE('',#1214,8.25);
#39=CYLINDRICAL_SURFACE('',#1215,8.25);
#40=CYLINDRICAL_SURFACE('',#1216,8.25);
#41=CYLINDRICAL_SURFACE('',#1217,8.25);
#42=CYLINDRICAL_SURFACE('',#1218,8.25);
#43=CYLINDRICAL_SURFACE('',#1219,8.25);
#44=CYLINDRICAL_SURFACE('',#1220,8.25);
#45=CYLINDRICAL_SURFACE('',#1221,8.25);
#46=CYLINDRICAL_SURFACE('',#1222,8.25);
#47=CYLINDRICAL_SURFACE('',#1223,8.25);
#48=CYLINDRICAL_SURFACE('',#1224,8.25);
#49=CYLINDRICAL_SURFACE('',#1225,8.25);
#50=CYLINDRICAL_SURFACE('',#1226,8.25);
#51=CYLINDRICAL_SURFACE('',#1227,8.25);
#52=CYLINDRICAL_SURFACE('',#1228,8.25);
#53=CYLINDRICAL_SURFACE('',#1229,8.25);
#54=CYLINDRICAL_SURFACE('',#1230,8.25);
#55=CYLINDRICAL_SURFACE('',#1231,8.25);
#56=CYLINDRICAL_SURFACE('',#1232,8.25);
#57=CYLINDRICAL_SURFACE('',#1233,8.25);
#58=FACE_BOUND('',#174,.T.);
#59=FACE_BOUND('',#175,.T.);
#60=FACE_BOUND('',#176,.T.);
#61=FACE_BOUND('',#177,.T.);
#62=FACE_BOUND('',#178,.T.);
#63=FACE_BOUND('',#179,.T.);
#64=FACE_BOUND('',#180,.T.);
#65=FACE_BOUND('',#181,.T.);
#66=FACE_BOUND('',#182,.T.);
#67=FACE_BOUND('',#183,.T.);
#68=FACE_BOUND('',#184,.T.);
#69=FACE_BOUND('',#185,.T.);
#70=FACE_BOUND('',#186,.T.);
#71=FACE_BOUND('',#187,.T.);
#72=FACE_BOUND('',#188,.T.);
#73=FACE_BOUND('',#189,.T.);
#74=FACE_BOUND('',#190,.T.);
#75=FACE_BOUND('',#191,.T.);
#76=FACE_BOUND('',#192,.T.);
#77=FACE_BOUND('',#193,.T.);
#78=FACE_BOUND('',#194,.T.);
#79=FACE_BOUND('',#195,.T.);
#80=FACE_BOUND('',#196,.T.);
#81=FACE_BOUND('',#197,.T.);
#82=FACE_BOUND('',#198,.T.);
#83=FACE_BOUND('',#199,.T.);
#84=FACE_BOUND('',#200,.T.);
#85=FACE_BOUND('',#201,.T.);
#86=FACE_BOUND('',#202,.T.);
#87=FACE_BOUND('',#203,.T.);
#88=FACE_BOUND('',#204,.T.);
#89=FACE_BOUND('',#205,.T.);
#90=FACE_BOUND('',#206,.T.);
#91=FACE_BOUND('',#207,.T.);
#92=FACE_BOUND('',#208,.T.);
#93=FACE_OUTER_BOUND('',#173,.T.);
#94=FACE_OUTER_BOUND('',#209,.T.);
#95=FACE_OUTER_BOUND('',#210,.T.);
#96=FACE_OUTER_BOUND('',#211,.T.);
#97=FACE_OUTER_BOUND('',#212,.T.);
#98=FACE_OUTER_BOUND('',#213,.T.);
#99=FACE_OUTER_BOUND('',#214,.T.);
#100=FACE_OUTER_BOUND('',#215,.T.);
#101=FACE_OUTER_BOUND('',#216,.T.);
#102=FACE_OUTER_BOUND('',#217,.T.);
#103=FACE_OUTER_BOUND('',#218,.T.);
#104=FACE_OUTER_BOUND('',#219,.T.);
#105=FACE_OUTER_BOUND('',#220,.T.);
#106=FACE_OUTER_BOUND('',#221,.T.);
#107=FACE_OUTER_BOUND('',#222,.T.);
#108=FACE_OUTER_BOUND('',#223,.T.);
#109=FACE_OUTER_BOUND('',#224,.T.);
#110=FACE_OUTER_BOUND('',#225,.T.);
#111=FACE_OUTER_BOUND('',#226,.T.);
#112=FACE_OUTER_BOUND('',#227,.T.);
#113=FACE_OUTER_BOUND('',#228,.T.);
#114=FACE_OUTER_BOUND('',#229,.T.);
#115=FACE_OUTER_BOUND('',#230,.T.);
#116=FACE_OUTER_BOUND('',#231,.T.);
#117=FACE_OUTER_BOUND('',#232,.T.);
#118=FACE_OUTER_BOUND('',#233,.T.);
#119=FACE_OUTER_BOUND('',#234,.T.);
#120=FACE_OUTER_BOUND('',#235,.T.);
#121=FACE_OUTER_BOUND('',#236,.T.);
#122=FACE_OUTER_BOUND('',#237,.T.);
#123=FACE_OUTER_BOUND('',#238,.T.);
#124=FACE_OUTER_BOUND('',#239,.T.);
#125=FACE_OUTER_BOUND('',#240,.T.);
#126=FACE_OUTER_BOUND('',#241,.T.);
#127=FACE_OUTER_BOUND('',#242,.T.);
#128=FACE_OUTER_BOUND('',#243,.T.);
#129=FACE_OUTER_BOUND('',#244,.T.);
#130=FACE_OUTER_BOUND('',#245,.T.);
#131=FACE_OUTER_BOUND('',#246,.T.);
#132=FACE_OUTER_BOUND('',#247,.T.);
#133=FACE_OUTER_BOUND('',#248,.T.);
#134=FACE_OUTER_BOUND('',#249,.T.);
#135=FACE_OUTER_BOUND('',#250,.T.);
#136=FACE_OUTER_BOUND('',#251,.T.);
#137=FACE_OUTER_BOUND('',#252,.T.);
#138=FACE_OUTER_BOUND('',#253,.T.);
#139=FACE_OUTER_BOUND('',#254,.T.);
#140=FACE_OUTER_BOUND('',#255,.T.);
#141=FACE_OUTER_BOUND('',#256,.T.);
#142=FACE_OUTER_BOUND('',#257,.T.);
#143=FACE_OUTER_BOUND('',#258,.T.);
#144=FACE_OUTER_BOUND('',#259,.T.);
#145=FACE_OUTER_BOUND('',#260,.T.);
#146=FACE_OUTER_BOUND('',#261,.T.);
#147=FACE_OUTER_BOUND('',#262,.T.);
#148=FACE_OUTER_BOUND('',#263,.T.);
#149=FACE_OUTER_BOUND('',#264,.T.);
#150=FACE_OUTER_BOUND('',#265,.T.);
#151=FACE_OUTER_BOUND('',#266,.T.);
#152=FACE_OUTER_BOUND('',#267,.T.);
#153=FACE_OUTER_BOUND('',#268,.T.);
#154=FACE_OUTER_BOUND('',#269,.T.);
#155=FACE_OUTER_BOUND('',#270,.T.);
#156=FACE_OUTER_BOUND('',#271,.T.);
#157=FACE_OUTER_BOUND('',#272,.T.);
#158=FACE_OUTER_BOUND('',#273,.T.);
#159=FACE_OUTER_BOUND('',#274,.T.);
#160=FACE_OUTER_BOUND('',#275,.T.);
#161=FACE_OUTER_BOUND('',#276,.T.);
#162=FACE_OUTER_BOUND('',#277,.T.);
#163=FACE_OUTER_BOUND('',#278,.T.);
#164=FACE_OUTER_BOUND('',#279,.T.);
#165=FACE_OUTER_BOUND('',#280,.T.);
#166=FACE_OUTER_BOUND('',#281,.T.);
#167=FACE_OUTER_BOUND('',#282,.T.);
#168=FACE_OUTER_BOUND('',#283,.T.);
#169=FACE_OUTER_BOUND('',#284,.T.);
#170=FACE_OUTER_BOUND('',#285,.T.);
#171=FACE_OUTER_BOUND('',#286,.T.);
#172=FACE_OUTER_BOUND('',#287,.T.);
#173=EDGE_LOOP('',(#683,#684,#685,#686,#687,#688,#689,#690));
#174=EDGE_LOOP('',(#691));
#175=EDGE_LOOP('',(#692));
#176=EDGE_LOOP('',(#693));
#177=EDGE_LOOP('',(#694));
#178=EDGE_LOOP('',(#695));
#179=EDGE_LOOP('',(#696));
#180=EDGE_LOOP('',(#697));
#181=EDGE_LOOP('',(#698));
#182=EDGE_LOOP('',(#699));
#183=EDGE_LOOP('',(#700));
#184=EDGE_LOOP('',(#701));
#185=EDGE_LOOP('',(#702));
#186=EDGE_LOOP('',(#703));
#187=EDGE_LOOP('',(#704));
#188=EDGE_LOOP('',(#705));
#189=EDGE_LOOP('',(#706));
#190=EDGE_LOOP('',(#707));
#191=EDGE_LOOP('',(#708));
#192=EDGE_LOOP('',(#709));
#193=EDGE_LOOP('',(#710));
#194=EDGE_LOOP('',(#711));
#195=EDGE_LOOP('',(#712));
#196=EDGE_LOOP('',(#713));
#197=EDGE_LOOP('',(#714));
#198=EDGE_LOOP('',(#715));
#199=EDGE_LOOP('',(#716));
#200=EDGE_LOOP('',(#717));
#201=EDGE_LOOP('',(#718));
#202=EDGE_LOOP('',(#719));
#203=EDGE_LOOP('',(#720));
#204=EDGE_LOOP('',(#721));
#205=EDGE_LOOP('',(#722));
#206=EDGE_LOOP('',(#723));
#207=EDGE_LOOP('',(#724));
#208=EDGE_LOOP('',(#725));
#209=EDGE_LOOP('',(#726,#727,#728,#729));
#210=EDGE_LOOP('',(#730,#731,#732,#733));
#211=EDGE_LOOP('',(#734,#735,#736,#737));
#212=EDGE_LOOP('',(#738,#739,#740,#741));
#213=EDGE_LOOP('',(#742,#743,#744,#745,#746,#747,#748,#749));
#214=EDGE_LOOP('',(#750,#751,#752,#753));
#215=EDGE_LOOP('',(#754,#755,#756,#757));
#216=EDGE_LOOP('',(#758,#759,#760,#761));
#217=EDGE_LOOP('',(#762));
#218=EDGE_LOOP('',(#763));
#219=EDGE_LOOP('',(#764));
#220=EDGE_LOOP('',(#765));
#221=EDGE_LOOP('',(#766));
#222=EDGE_LOOP('',(#767));
#223=EDGE_LOOP('',(#768));
#224=EDGE_LOOP('',(#769));
#225=EDGE_LOOP('',(#770));
#226=EDGE_LOOP('',(#771));
#227=EDGE_LOOP('',(#772));
#228=EDGE_LOOP('',(#773));
#229=EDGE_LOOP('',(#774));
#230=EDGE_LOOP('',(#775));
#231=EDGE_LOOP('',(#776));
#232=EDGE_LOOP('',(#777));
#233=EDGE_LOOP('',(#778));
#234=EDGE_LOOP('',(#779));
#235=EDGE_LOOP('',(#780));
#236=EDGE_LOOP('',(#781));
#237=EDGE_LOOP('',(#782));
#238=EDGE_LOOP('',(#783));
#239=EDGE_LOOP('',(#784));
#240=EDGE_LOOP('',(#785));
#241=EDGE_LOOP('',(#786));
#242=EDGE_LOOP('',(#787));
#243=EDGE_LOOP('',(#788));
#244=EDGE_LOOP('',(#789));
#245=EDGE_LOOP('',(#790));
#246=EDGE_LOOP('',(#791));
#247=EDGE_LOOP('',(#792));
#248=EDGE_LOOP('',(#793));
#249=EDGE_LOOP('',(#794));
#250=EDGE_LOOP('',(#795));
#251=EDGE_LOOP('',(#796));
#252=EDGE_LOOP('',(#797,#798,#799,#800));
#253=EDGE_LOOP('',(#801,#802,#803,#804));
#254=EDGE_LOOP('',(#805,#806,#807,#808));
#255=EDGE_LOOP('',(#809,#810,#811,#812));
#256=EDGE_LOOP('',(#813,#814,#815,#816));
#257=EDGE_LOOP('',(#817,#818,#819,#820));
#258=EDGE_LOOP('',(#821,#822,#823,#824));
#259=EDGE_LOOP('',(#825,#826,#827,#828));
#260=EDGE_LOOP('',(#829,#830,#831,#832));
#261=EDGE_LOOP('',(#833,#834,#835,#836));
#262=EDGE_LOOP('',(#837,#838,#839,#840));
#263=EDGE_LOOP('',(#841,#842,#843,#844));
#264=EDGE_LOOP('',(#845,#846,#847,#848));
#265=EDGE_LOOP('',(#849,#850,#851,#852));
#266=EDGE_LOOP('',(#853,#854,#855,#856));
#267=EDGE_LOOP('',(#857,#858,#859,#860));
#268=EDGE_LOOP('',(#861,#862,#863,#864));
#269=EDGE_LOOP('',(#865,#866,#867,#868));
#270=EDGE_LOOP('',(#869,#870,#871,#872));
#271=EDGE_LOOP('',(#873,#874,#875,#876));
#272=EDGE_LOOP('',(#877,#878,#879,#880));
#273=EDGE_LOOP('',(#881,#882,#883,#884));
#274=EDGE_LOOP('',(#885,#886,#887,#888));
#275=EDGE_LOOP('',(#889,#890,#891,#892));
#276=EDGE_LOOP('',(#893,#894,#895,#896));
#277=EDGE_LOOP('',(#897,#898,#899,#900));
#278=EDGE_LOOP('',(#901,#902,#903,#904));
#279=EDGE_LOOP('',(#905,#906,#907,#908));
#280=EDGE_LOOP('',(#909,#910,#911,#912));
#281=EDGE_LOOP('',(#913,#914,#915,#916));
#282=EDGE_LOOP('',(#917,#918,#919,#920));
#283=EDGE_LOOP('',(#921,#922,#923,#924));
#284=EDGE_LOOP('',(#925,#926,#927,#928));
#285=EDGE_LOOP('',(#929,#930,#931,#932));
#286=EDGE_LOOP('',(#933,#934,#935,#936));
#287=EDGE_LOOP('',(#937,#938,#939,#940));
#288=LINE('',#1616,#339);
#289=LINE('',#1620,#340);
#290=LINE('',#1624,#341);
#291=LINE('',#1627,#342);
#292=LINE('',#1700,#343);
#293=LINE('',#1702,#344);
#294=LINE('',#1703,#345);
#295=LINE('',#1706,#346);
#296=LINE('',#1710,#347);
#297=LINE('',#1711,#348);
#298=LINE('',#1714,#349);
#299=LINE('',#1718,#350);
#300=LINE('',#1722,#351);
#301=LINE('',#1725,#352);
#302=LINE('',#1727,#353);
#303=LINE('',#1729,#354);
#304=LINE('',#1836,#355);
#305=LINE('',#1838,#356);
#306=LINE('',#1840,#357);
#307=LINE('',#1842,#358);
#308=LINE('',#1844,#359);
#309=LINE('',#1846,#360);
#310=LINE('',#1848,#361);
#311=LINE('',#1850,#362);
#312=LINE('',#1852,#363);
#313=LINE('',#1854,#364);
#314=LINE('',#1856,#365);
#315=LINE('',#1858,#366);
#316=LINE('',#1860,#367);
#317=LINE('',#1862,#368);
#318=LINE('',#1864,#369);
#319=LINE('',#1866,#370);
#320=LINE('',#1868,#371);
#321=LINE('',#1870,#372);
#322=LINE('',#1872,#373);
#323=LINE('',#1874,#374);
#324=LINE('',#1876,#375);
#325=LINE('',#1878,#376);
#326=LINE('',#1880,#377);
#327=LINE('',#1882,#378);
#328=LINE('',#1884,#379);
#329=LINE('',#1886,#380);
#330=LINE('',#1888,#381);
#331=LINE('',#1890,#382);
#332=LINE('',#1892,#383);
#333=LINE('',#1894,#384);
#334=LINE('',#1896,#385);
#335=LINE('',#1898,#386);
#336=LINE('',#1900,#387);
#337=LINE('',#1902,#388);
#338=LINE('',#1904,#389);
#339=VECTOR('',#1244,10.);
#340=VECTOR('',#1247,10.);
#341=VECTOR('',#1250,10.);
#342=VECTOR('',#1253,10.);
#343=VECTOR('',#1326,10.);
#344=VECTOR('',#1327,10.);
#345=VECTOR('',#1328,10.);
#346=VECTOR('',#1331,10.);
#347=VECTOR('',#1336,10.);
#348=VECTOR('',#1337,10.);
#349=VECTOR('',#1340,10.);
#350=VECTOR('',#1345,10.);
#351=VECTOR('',#1348,10.);
#352=VECTOR('',#1353,10.);
#353=VECTOR('',#1356,10.);
#354=VECTOR('',#1359,10.);
#355=VECTOR('',#1502,8.25);
#356=VECTOR('',#1505,8.25);
#357=VECTOR('',#1508,8.25);
#358=VECTOR('',#1511,8.25);
#359=VECTOR('',#1514,8.25);
#360=VECTOR('',#1517,8.25);
#361=VECTOR('',#1520,8.25);
#362=VECTOR('',#1523,8.25);
#363=VECTOR('',#1526,8.25);
#364=VECTOR('',#1529,8.25);
#365=VECTOR('',#1532,8.25);
#366=VECTOR('',#1535,8.25);
#367=VECTOR('',#1538,8.25);
#368=VECTOR('',#1541,8.25);
#369=VECTOR('',#1544,8.25);
#370=VECTOR('',#1547,8.25);
#371=VECTOR('',#1550,8.25);
#372=VECTOR('',#1553,8.25);
#373=VECTOR('',#1556,8.25);
#374=VECTOR('',#1559,8.25);
#375=VECTOR('',#1562,8.25);
#376=VECTOR('',#1565,8.25);
#377=VECTOR('',#1568,8.25);
#378=VECTOR('',#1571,8.25);
#379=VECTOR('',#1574,8.25);
#380=VECTOR('',#1577,8.25);
#381=VECTOR('',#1580,8.25);
#382=VECTOR('',#1583,8.25);
#383=VECTOR('',#1586,8.25);
#384=VECTOR('',#1589,8.25);
#385=VECTOR('',#1592,8.25);
#386=VECTOR('',#1595,8.25);
#387=VECTOR('',#1598,8.25);
#388=VECTOR('',#1601,8.25);
#389=VECTOR('',#1604,8.25);
#390=CIRCLE('',#1078,2.);
#391=CIRCLE('',#1079,2.);
#392=CIRCLE('',#1080,2.);
#393=CIRCLE('',#1081,2.);
#394=CIRCLE('',#1082,8.25);
#395=CIRCLE('',#1083,8.25);
#396=CIRCLE('',#1084,8.25);
#397=CIRCLE('',#1085,8.25);
#398=CIRCLE('',#1086,8.25);
#399=CIRCLE('',#1087,8.25);
#400=CIRCLE('',#1088,8.25);
#401=CIRCLE('',#1089,8.25);
#402=CIRCLE('',#1090,8.25);
#403=CIRCLE('',#1091,8.25);
#404=CIRCLE('',#1092,8.25);
#405=CIRCLE('',#1093,8.25);
#406=CIRCLE('',#1094,8.25);
#407=CIRCLE('',#1095,8.25);
#408=CIRCLE('',#1096,8.25);
#409=CIRCLE('',#1097,8.25);
#410=CIRCLE('',#1098,8.25);
#411=CIRCLE('',#1099,8.25);
#412=CIRCLE('',#1100,8.25);
#413=CIRCLE('',#1101,8.25);
#414=CIRCLE('',#1102,8.25);
#415=CIRCLE('',#1103,8.25);
#416=CIRCLE('',#1104,8.25);
#417=CIRCLE('',#1105,8.25);
#418=CIRCLE('',#1106,8.25);
#419=CIRCLE('',#1107,8.25);
#420=CIRCLE('',#1108,8.25);
#421=CIRCLE('',#1109,8.25);
#422=CIRCLE('',#1110,8.25);
#423=CIRCLE('',#1111,8.25);
#424=CIRCLE('',#1112,8.25);
#425=CIRCLE('',#1113,8.25);
#426=CIRCLE('',#1114,8.25);
#427=CIRCLE('',#1115,8.25);
#428=CIRCLE('',#1116,8.25);
#429=CIRCLE('',#1119,2.);
#430=CIRCLE('',#1122,2.);
#431=CIRCLE('',#1124,2.);
#432=CIRCLE('',#1125,2.);
#433=CIRCLE('',#1130,8.25);
#434=CIRCLE('',#1132,8.25);
#435=CIRCLE('',#1134,8.25);
#436=CIRCLE('',#1136,8.25);
#437=CIRCLE('',#1138,8.25);
#438=CIRCLE('',#1140,8.25);
#439=CIRCLE('',#1142,8.25);
#440=CIRCLE('',#1144,8.25);
#441=CIRCLE('',#1146,8.25);
#442=CIRCLE('',#1148,8.25);
#443=CIRCLE('',#1150,8.25);
#444=CIRCLE('',#1152,8.25);
#445=CIRCLE('',#1154,8.25);
#446=CIRCLE('',#1156,8.25);
#447=CIRCLE('',#1158,8.25);
#448=CIRCLE('',#1160,8.25);
#449=CIRCLE('',#1162,8.25);
#450=CIRCLE('',#1164,8.25);
#451=CIRCLE('',#1166,8.25);
#452=CIRCLE('',#1168,8.25);
#453=CIRCLE('',#1170,8.25);
#454=CIRCLE('',#1172,8.25);
#455=CIRCLE('',#1174,8.25);
#456=CIRCLE('',#1176,8.25);
#457=CIRCLE('',#1178,8.25);
#458=CIRCLE('',#1180,8.25);
#459=CIRCLE('',#1182,8.25);
#460=CIRCLE('',#1184,8.25);
#461=CIRCLE('',#1186,8.25);
#462=CIRCLE('',#1188,8.25);
#463=CIRCLE('',#1190,8.25);
#464=CIRCLE('',#1192,8.25);
#465=CIRCLE('',#1194,8.25);
#466=CIRCLE('',#1196,8.25);
#467=CIRCLE('',#1198,8.25);
#468=VERTEX_POINT('',#1612);
#469=VERTEX_POINT('',#1613);
#470=VERTEX_POINT('',#1615);
#471=VERTEX_POINT('',#1617);
#472=VERTEX_POINT('',#1619);
#473=VERTEX_POINT('',#1621);
#474=VERTEX_POINT('',#1623);
#475=VERTEX_POINT('',#1625);
#476=VERTEX_POINT('',#1628);
#477=VERTEX_POINT('',#1630);
#478=VERTEX_POINT('',#1632);
#479=VERTEX_POINT('',#1634);
#480=VERTEX_POINT('',#1636);
#481=VERTEX_POINT('',#1638);
#482=VERTEX_POINT('',#1640);
#483=VERTEX_POINT('',#1642);
#484=VERTEX_POINT('',#1644);
#485=VERTEX_POINT('',#1646);
#486=VERTEX_POINT('',#1648);
#487=VERTEX_POINT('',#1650);
#488=VERTEX_POINT('',#1652);
#489=VERTEX_POINT('',#1654);
#490=VERTEX_POINT('',#1656);
#491=VERTEX_POINT('',#1658);
#492=VERTEX_POINT('',#1660);
#493=VERTEX_POINT('',#1662);
#494=VERTEX_POINT('',#1664);
#495=VERTEX_POINT('',#1666);
#496=VERTEX_POINT('',#1668);
#497=VERTEX_POINT('',#1670);
#498=VERTEX_POINT('',#1672);
#499=VERTEX_POINT('',#1674);
#500=VERTEX_POINT('',#1676);
#501=VERTEX_POINT('',#1678);
#502=VERTEX_POINT('',#1680);
#503=VERTEX_POINT('',#1682);
#504=VERTEX_POINT('',#1684);
#505=VERTEX_POINT('',#1686);
#506=VERTEX_POINT('',#1688);
#507=VERTEX_POINT('',#1690);
#508=VERTEX_POINT('',#1692);
#509=VERTEX_POINT('',#1694);
#510=VERTEX_POINT('',#1696);
#511=VERTEX_POINT('',#1699);
#512=VERTEX_POINT('',#1701);
#513=VERTEX_POINT('',#1705);
#514=VERTEX_POINT('',#1709);
#515=VERTEX_POINT('',#1713);
#516=VERTEX_POINT('',#1717);
#517=VERTEX_POINT('',#1719);
#518=VERTEX_POINT('',#1721);
#519=VERTEX_POINT('',#1731);
#520=VERTEX_POINT('',#1734);
#521=VERTEX_POINT('',#1737);
#522=VERTEX_POINT('',#1740);
#523=VERTEX_POINT('',#1743);
#524=VERTEX_POINT('',#1746);
#525=VERTEX_POINT('',#1749);
#526=VERTEX_POINT('',#1752);
#527=VERTEX_POINT('',#1755);
#528=VERTEX_POINT('',#1758);
#529=VERTEX_POINT('',#1761);
#530=VERTEX_POINT('',#1764);
#531=VERTEX_POINT('',#1767);
#532=VERTEX_POINT('',#1770);
#533=VERTEX_POINT('',#1773);
#534=VERTEX_POINT('',#1776);
#535=VERTEX_POINT('',#1779);
#536=VERTEX_POINT('',#1782);
#537=VERTEX_POINT('',#1785);
#538=VERTEX_POINT('',#1788);
#539=VERTEX_POINT('',#1791);
#540=VERTEX_POINT('',#1794);
#541=VERTEX_POINT('',#1797);
#542=VERTEX_POINT('',#1800);
#543=VERTEX_POINT('',#1803);
#544=VERTEX_POINT('',#1806);
#545=VERTEX_POINT('',#1809);
#546=VERTEX_POINT('',#1812);
#547=VERTEX_POINT('',#1815);
#548=VERTEX_POINT('',#1818);
#549=VERTEX_POINT('',#1821);
#550=VERTEX_POINT('',#1824);
#551=VERTEX_POINT('',#1827);
#552=VERTEX_POINT('',#1830);
#553=VERTEX_POINT('',#1833);
#554=EDGE_CURVE('',#468,#469,#390,.T.);
#555=EDGE_CURVE('',#470,#468,#288,.T.);
#556=EDGE_CURVE('',#471,#470,#391,.T.);
#557=EDGE_CURVE('',#472,#471,#289,.T.);
#558=EDGE_CURVE('',#473,#472,#392,.T.);
#559=EDGE_CURVE('',#474,#473,#290,.T.);
#560=EDGE_CURVE('',#475,#474,#393,.T.);
#561=EDGE_CURVE('',#469,#475,#291,.T.);
#562=EDGE_CURVE('',#476,#476,#394,.T.);
#563=EDGE_CURVE('',#477,#477,#395,.T.);
#564=EDGE_CURVE('',#478,#478,#396,.T.);
#565=EDGE_CURVE('',#479,#479,#397,.T.);
#566=EDGE_CURVE('',#480,#480,#398,.T.);
#567=EDGE_CURVE('',#481,#481,#399,.T.);
#568=EDGE_CURVE('',#482,#482,#400,.T.);
#569=EDGE_CURVE('',#483,#483,#401,.T.);
#570=EDGE_CURVE('',#484,#484,#402,.T.);
#571=EDGE_CURVE('',#485,#485,#403,.T.);
#572=EDGE_CURVE('',#486,#486,#404,.T.);
#573=EDGE_CURVE('',#487,#487,#405,.T.);
#574=EDGE_CURVE('',#488,#488,#406,.T.);
#575=EDGE_CURVE('',#489,#489,#407,.T.);
#576=EDGE_CURVE('',#490,#490,#408,.T.);
#577=EDGE_CURVE('',#491,#491,#409,.T.);
#578=EDGE_CURVE('',#492,#492,#410,.T.);
#579=EDGE_CURVE('',#493,#493,#411,.T.);
#580=EDGE_CURVE('',#494,#494,#412,.T.);
#581=EDGE_CURVE('',#495,#495,#413,.T.);
#582=EDGE_CURVE('',#496,#496,#414,.T.);
#583=EDGE_CURVE('',#497,#497,#415,.T.);
#584=EDGE_CURVE('',#498,#498,#416,.T.);
#585=EDGE_CURVE('',#499,#499,#417,.T.);
#586=EDGE_CURVE('',#500,#500,#418,.T.);
#587=EDGE_CURVE('',#501,#501,#419,.T.);
#588=EDGE_CURVE('',#502,#502,#420,.T.);
#589=EDGE_CURVE('',#503,#503,#421,.T.);
#590=EDGE_CURVE('',#504,#504,#422,.T.);
#591=EDGE_CURVE('',#505,#505,#423,.T.);
#592=EDGE_CURVE('',#506,#506,#424,.T.);
#593=EDGE_CURVE('',#507,#507,#425,.T.);
#594=EDGE_CURVE('',#508,#508,#426,.T.);
#595=EDGE_CURVE('',#509,#509,#427,.T.);
#596=EDGE_CURVE('',#510,#510,#428,.T.);
#597=EDGE_CURVE('',#511,#471,#292,.T.);
#598=EDGE_CURVE('',#512,#511,#293,.T.);
#599=EDGE_CURVE('',#472,#512,#294,.T.);
#600=EDGE_CURVE('',#470,#513,#295,.T.);
#601=EDGE_CURVE('',#513,#511,#429,.T.);
#602=EDGE_CURVE('',#514,#468,#296,.T.);
#603=EDGE_CURVE('',#513,#514,#297,.T.);
#604=EDGE_CURVE('',#469,#515,#298,.T.);
#605=EDGE_CURVE('',#515,#514,#430,.T.);
#606=EDGE_CURVE('',#515,#516,#299,.T.);
#607=EDGE_CURVE('',#517,#516,#431,.T.);
#608=EDGE_CURVE('',#517,#518,#300,.T.);
#609=EDGE_CURVE('',#512,#518,#432,.T.);
#610=EDGE_CURVE('',#516,#475,#301,.T.);
#611=EDGE_CURVE('',#474,#517,#302,.T.);
#612=EDGE_CURVE('',#518,#473,#303,.T.);
#613=EDGE_CURVE('',#519,#519,#433,.T.);
#614=EDGE_CURVE('',#520,#520,#434,.T.);
#615=EDGE_CURVE('',#521,#521,#435,.T.);
#616=EDGE_CURVE('',#522,#522,#436,.T.);
#617=EDGE_CURVE('',#523,#523,#437,.T.);
#618=EDGE_CURVE('',#524,#524,#438,.T.);
#619=EDGE_CURVE('',#525,#525,#439,.T.);
#620=EDGE_CURVE('',#526,#526,#440,.T.);
#621=EDGE_CURVE('',#527,#527,#441,.T.);
#622=EDGE_CURVE('',#528,#528,#442,.T.);
#623=EDGE_CURVE('',#529,#529,#443,.T.);
#624=EDGE_CURVE('',#530,#530,#444,.T.);
#625=EDGE_CURVE('',#531,#531,#445,.T.);
#626=EDGE_CURVE('',#532,#532,#446,.T.);
#627=EDGE_CURVE('',#533,#533,#447,.T.);
#628=EDGE_CURVE('',#534,#534,#448,.T.);
#629=EDGE_CURVE('',#535,#535,#449,.T.);
#630=EDGE_CURVE('',#536,#536,#450,.T.);
#631=EDGE_CURVE('',#537,#537,#451,.T.);
#632=EDGE_CURVE('',#538,#538,#452,.T.);
#633=EDGE_CURVE('',#539,#539,#453,.T.);
#634=EDGE_CURVE('',#540,#540,#454,.T.);
#635=EDGE_CURVE('',#541,#541,#455,.T.);
#636=EDGE_CURVE('',#542,#542,#456,.T.);
#637=EDGE_CURVE('',#543,#543,#457,.T.);
#638=EDGE_CURVE('',#544,#544,#458,.T.);
#639=EDGE_CURVE('',#545,#545,#459,.T.);
#640=EDGE_CURVE('',#546,#546,#460,.T.);
#641=EDGE_CURVE('',#547,#547,#461,.T.);
#642=EDGE_CURVE('',#548,#548,#462,.T.);
#643=EDGE_CURVE('',#549,#549,#463,.T.);
#644=EDGE_CURVE('',#550,#550,#464,.T.);
#645=EDGE_CURVE('',#551,#551,#465,.T.);
#646=EDGE_CURVE('',#552,#552,#466,.T.);
#647=EDGE_CURVE('',#553,#553,#467,.T.);
#648=EDGE_CURVE('',#548,#510,#304,.T.);
#649=EDGE_CURVE('',#549,#509,#305,.T.);
#650=EDGE_CURVE('',#537,#508,#306,.T.);
#651=EDGE_CURVE('',#545,#507,#307,.T.);
#652=EDGE_CURVE('',#533,#506,#308,.T.);
#653=EDGE_CURVE('',#530,#505,#309,.T.);
#654=EDGE_CURVE('',#553,#504,#310,.T.);
#655=EDGE_CURVE('',#528,#503,#311,.T.);
#656=EDGE_CURVE('',#550,#502,#312,.T.);
#657=EDGE_CURVE('',#542,#501,#313,.T.);
#658=EDGE_CURVE('',#540,#500,#314,.T.);
#659=EDGE_CURVE('',#527,#499,#315,.T.);
#660=EDGE_CURVE('',#525,#498,#316,.T.);
#661=EDGE_CURVE('',#538,#497,#317,.T.);
#662=EDGE_CURVE('',#544,#496,#318,.T.);
#663=EDGE_CURVE('',#539,#495,#319,.T.);
#664=EDGE_CURVE('',#519,#494,#320,.T.);
#665=EDGE_CURVE('',#520,#493,#321,.T.);
#666=EDGE_CURVE('',#521,#492,#322,.T.);
#667=EDGE_CURVE('',#546,#491,#323,.T.);
#668=EDGE_CURVE('',#552,#490,#324,.T.);
#669=EDGE_CURVE('',#543,#489,#325,.T.);
#670=EDGE_CURVE('',#531,#488,#326,.T.);
#671=EDGE_CURVE('',#523,#487,#327,.T.);
#672=EDGE_CURVE('',#522,#486,#328,.T.);
#673=EDGE_CURVE('',#526,#485,#329,.T.);
#674=EDGE_CURVE('',#534,#484,#330,.T.);
#675=EDGE_CURVE('',#524,#483,#331,.T.);
#676=EDGE_CURVE('',#529,#482,#332,.T.);
#677=EDGE_CURVE('',#551,#481,#333,.T.);
#678=EDGE_CURVE('',#532,#480,#334,.T.);
#679=EDGE_CURVE('',#547,#479,#335,.T.);
#680=EDGE_CURVE('',#541,#478,#336,.T.);
#681=EDGE_CURVE('',#535,#477,#337,.T.);
#682=EDGE_CURVE('',#536,#476,#338,.T.);
#683=ORIENTED_EDGE('',*,*,#554,.F.);
#684=ORIENTED_EDGE('',*,*,#555,.F.);
#685=ORIENTED_EDGE('',*,*,#556,.F.);
#686=ORIENTED_EDGE('',*,*,#557,.F.);
#687=ORIENTED_EDGE('',*,*,#558,.F.);
#688=ORIENTED_EDGE('',*,*,#559,.F.);
#689=ORIENTED_EDGE('',*,*,#560,.F.);
#690=ORIENTED_EDGE('',*,*,#561,.F.);
#691=ORIENTED_EDGE('',*,*,#562,.F.);
#692=ORIENTED_EDGE('',*,*,#563,.F.);
#693=ORIENTED_EDGE('',*,*,#564,.F.);
#694=ORIENTED_EDGE('',*,*,#565,.F.);
#695=ORIENTED_EDGE('',*,*,#566,.F.);
#696=ORIENTED_EDGE('',*,*,#567,.F.);
#697=ORIENTED_EDGE('',*,*,#568,.F.);
#698=ORIENTED_EDGE('',*,*,#569,.F.);
#699=ORIENTED_EDGE('',*,*,#570,.F.);
#700=ORIENTED_EDGE('',*,*,#571,.F.);
#701=ORIENTED_EDGE('',*,*,#572,.F.);
#702=ORIENTED_EDGE('',*,*,#573,.F.);
#703=ORIENTED_EDGE('',*,*,#574,.F.);
#704=ORIENTED_EDGE('',*,*,#575,.F.);
#705=ORIENTED_EDGE('',*,*,#576,.F.);
#706=ORIENTED_EDGE('',*,*,#577,.F.);
#707=ORIENTED_EDGE('',*,*,#578,.F.);
#708=ORIENTED_EDGE('',*,*,#579,.F.);
#709=ORIENTED_EDGE('',*,*,#580,.F.);
#710=ORIENTED_EDGE('',*,*,#581,.F.);
#711=ORIENTED_EDGE('',*,*,#582,.F.);
#712=ORIENTED_EDGE('',*,*,#583,.F.);
#713=ORIENTED_EDGE('',*,*,#584,.F.);
#714=ORIENTED_EDGE('',*,*,#585,.F.);
#715=ORIENTED_EDGE('',*,*,#586,.F.);
#716=ORIENTED_EDGE('',*,*,#587,.F.);
#717=ORIENTED_EDGE('',*,*,#588,.F.);
#718=ORIENTED_EDGE('',*,*,#589,.F.);
#719=ORIENTED_EDGE('',*,*,#590,.F.);
#720=ORIENTED_EDGE('',*,*,#591,.F.);
#721=ORIENTED_EDGE('',*,*,#592,.F.);
#722=ORIENTED_EDGE('',*,*,#593,.F.);
#723=ORIENTED_EDGE('',*,*,#594,.F.);
#724=ORIENTED_EDGE('',*,*,#595,.F.);
#725=ORIENTED_EDGE('',*,*,#596,.F.);
#726=ORIENTED_EDGE('',*,*,#557,.T.);
#727=ORIENTED_EDGE('',*,*,#597,.F.);
#728=ORIENTED_EDGE('',*,*,#598,.F.);
#729=ORIENTED_EDGE('',*,*,#599,.F.);
#730=ORIENTED_EDGE('',*,*,#556,.T.);
#731=ORIENTED_EDGE('',*,*,#600,.T.);
#732=ORIENTED_EDGE('',*,*,#601,.T.);
#733=ORIENTED_EDGE('',*,*,#597,.T.);
#734=ORIENTED_EDGE('',*,*,#555,.T.);
#735=ORIENTED_EDGE('',*,*,#602,.F.);
#736=ORIENTED_EDGE('',*,*,#603,.F.);
#737=ORIENTED_EDGE('',*,*,#600,.F.);
#738=ORIENTED_EDGE('',*,*,#554,.T.);
#739=ORIENTED_EDGE('',*,*,#604,.T.);
#740=ORIENTED_EDGE('',*,*,#605,.T.);
#741=ORIENTED_EDGE('',*,*,#602,.T.);
#742=ORIENTED_EDGE('',*,*,#605,.F.);
#743=ORIENTED_EDGE('',*,*,#606,.T.);
#744=ORIENTED_EDGE('',*,*,#607,.F.);
#745=ORIENTED_EDGE('',*,*,#608,.T.);
#746=ORIENTED_EDGE('',*,*,#609,.F.);
#747=ORIENTED_EDGE('',*,*,#598,.T.);
#748=ORIENTED_EDGE('',*,*,#601,.F.);
#749=ORIENTED_EDGE('',*,*,#603,.T.);
#750=ORIENTED_EDGE('',*,*,#561,.T.);
#751=ORIENTED_EDGE('',*,*,#610,.F.);
#752=ORIENTED_EDGE('',*,*,#606,.F.);
#753=ORIENTED_EDGE('',*,*,#604,.F.);
#754=ORIENTED_EDGE('',*,*,#560,.T.);
#755=ORIENTED_EDGE('',*,*,#611,.T.);
#756=ORIENTED_EDGE('',*,*,#607,.T.);
#757=ORIENTED_EDGE('',*,*,#610,.T.);
#758=ORIENTED_EDGE('',*,*,#558,.T.);
#759=ORIENTED_EDGE('',*,*,#599,.T.);
#760=ORIENTED_EDGE('',*,*,#609,.T.);
#761=ORIENTED_EDGE('',*,*,#612,.T.);
#762=ORIENTED_EDGE('',*,*,#613,.F.);
#763=ORIENTED_EDGE('',*,*,#614,.F.);
#764=ORIENTED_EDGE('',*,*,#615,.F.);
#765=ORIENTED_EDGE('',*,*,#616,.F.);
#766=ORIENTED_EDGE('',*,*,#617,.F.);
#767=ORIENTED_EDGE('',*,*,#618,.F.);
#768=ORIENTED_EDGE('',*,*,#619,.F.);
#769=ORIENTED_EDGE('',*,*,#620,.F.);
#770=ORIENTED_EDGE('',*,*,#621,.F.);
#771=ORIENTED_EDGE('',*,*,#622,.F.);
#772=ORIENTED_EDGE('',*,*,#623,.F.);
#773=ORIENTED_EDGE('',*,*,#624,.F.);
#774=ORIENTED_EDGE('',*,*,#625,.F.);
#775=ORIENTED_EDGE('',*,*,#626,.F.);
#776=ORIENTED_EDGE('',*,*,#627,.F.);
#777=ORIENTED_EDGE('',*,*,#628,.F.);
#778=ORIENTED_EDGE('',*,*,#629,.F.);
#779=ORIENTED_EDGE('',*,*,#630,.F.);
#780=ORIENTED_EDGE('',*,*,#631,.F.);
#781=ORIENTED_EDGE('',*,*,#632,.F.);
#782=ORIENTED_EDGE('',*,*,#633,.F.);
#783=ORIENTED_EDGE('',*,*,#634,.F.);
#784=ORIENTED_EDGE('',*,*,#635,.F.);
#785=ORIENTED_EDGE('',*,*,#636,.F.);
#786=ORIENTED_EDGE('',*,*,#637,.F.);
#787=ORIENTED_EDGE('',*,*,#638,.F.);
#788=ORIENTED_EDGE('',*,*,#639,.F.);
#789=ORIENTED_EDGE('',*,*,#640,.F.);
#790=ORIENTED_EDGE('',*,*,#641,.F.);
#791=ORIENTED_EDGE('',*,*,#642,.F.);
#792=ORIENTED_EDGE('',*,*,#643,.F.);
#793=ORIENTED_EDGE('',*,*,#644,.F.);
#794=ORIENTED_EDGE('',*,*,#645,.F.);
#795=ORIENTED_EDGE('',*,*,#646,.F.);
#796=ORIENTED_EDGE('',*,*,#647,.F.);
#797=ORIENTED_EDGE('',*,*,#642,.T.);
#798=ORIENTED_EDGE('',*,*,#648,.T.);
#799=ORIENTED_EDGE('',*,*,#596,.T.);
#800=ORIENTED_EDGE('',*,*,#648,.F.);
#801=ORIENTED_EDGE('',*,*,#643,.T.);
#802=ORIENTED_EDGE('',*,*,#649,.T.);
#803=ORIENTED_EDGE('',*,*,#595,.T.);
#804=ORIENTED_EDGE('',*,*,#649,.F.);
#805=ORIENTED_EDGE('',*,*,#631,.T.);
#806=ORIENTED_EDGE('',*,*,#650,.T.);
#807=ORIENTED_EDGE('',*,*,#594,.T.);
#808=ORIENTED_EDGE('',*,*,#650,.F.);
#809=ORIENTED_EDGE('',*,*,#639,.T.);
#810=ORIENTED_EDGE('',*,*,#651,.T.);
#811=ORIENTED_EDGE('',*,*,#593,.T.);
#812=ORIENTED_EDGE('',*,*,#651,.F.);
#813=ORIENTED_EDGE('',*,*,#627,.T.);
#814=ORIENTED_EDGE('',*,*,#652,.T.);
#815=ORIENTED_EDGE('',*,*,#592,.T.);
#816=ORIENTED_EDGE('',*,*,#652,.F.);
#817=ORIENTED_EDGE('',*,*,#624,.T.);
#818=ORIENTED_EDGE('',*,*,#653,.T.);
#819=ORIENTED_EDGE('',*,*,#591,.T.);
#820=ORIENTED_EDGE('',*,*,#653,.F.);
#821=ORIENTED_EDGE('',*,*,#647,.T.);
#822=ORIENTED_EDGE('',*,*,#654,.T.);
#823=ORIENTED_EDGE('',*,*,#590,.T.);
#824=ORIENTED_EDGE('',*,*,#654,.F.);
#825=ORIENTED_EDGE('',*,*,#622,.T.);
#826=ORIENTED_EDGE('',*,*,#655,.T.);
#827=ORIENTED_EDGE('',*,*,#589,.T.);
#828=ORIENTED_EDGE('',*,*,#655,.F.);
#829=ORIENTED_EDGE('',*,*,#644,.T.);
#830=ORIENTED_EDGE('',*,*,#656,.T.);
#831=ORIENTED_EDGE('',*,*,#588,.T.);
#832=ORIENTED_EDGE('',*,*,#656,.F.);
#833=ORIENTED_EDGE('',*,*,#636,.T.);
#834=ORIENTED_EDGE('',*,*,#657,.T.);
#835=ORIENTED_EDGE('',*,*,#587,.T.);
#836=ORIENTED_EDGE('',*,*,#657,.F.);
#837=ORIENTED_EDGE('',*,*,#634,.T.);
#838=ORIENTED_EDGE('',*,*,#658,.T.);
#839=ORIENTED_EDGE('',*,*,#586,.T.);
#840=ORIENTED_EDGE('',*,*,#658,.F.);
#841=ORIENTED_EDGE('',*,*,#621,.T.);
#842=ORIENTED_EDGE('',*,*,#659,.T.);
#843=ORIENTED_EDGE('',*,*,#585,.T.);
#844=ORIENTED_EDGE('',*,*,#659,.F.);
#845=ORIENTED_EDGE('',*,*,#619,.T.);
#846=ORIENTED_EDGE('',*,*,#660,.T.);
#847=ORIENTED_EDGE('',*,*,#584,.T.);
#848=ORIENTED_EDGE('',*,*,#660,.F.);
#849=ORIENTED_EDGE('',*,*,#632,.T.);
#850=ORIENTED_EDGE('',*,*,#661,.T.);
#851=ORIENTED_EDGE('',*,*,#583,.T.);
#852=ORIENTED_EDGE('',*,*,#661,.F.);
#853=ORIENTED_EDGE('',*,*,#638,.T.);
#854=ORIENTED_EDGE('',*,*,#662,.T.);
#855=ORIENTED_EDGE('',*,*,#582,.T.);
#856=ORIENTED_EDGE('',*,*,#662,.F.);
#857=ORIENTED_EDGE('',*,*,#633,.T.);
#858=ORIENTED_EDGE('',*,*,#663,.T.);
#859=ORIENTED_EDGE('',*,*,#581,.T.);
#860=ORIENTED_EDGE('',*,*,#663,.F.);
#861=ORIENTED_EDGE('',*,*,#613,.T.);
#862=ORIENTED_EDGE('',*,*,#664,.T.);
#863=ORIENTED_EDGE('',*,*,#580,.T.);
#864=ORIENTED_EDGE('',*,*,#664,.F.);
#865=ORIENTED_EDGE('',*,*,#614,.T.);
#866=ORIENTED_EDGE('',*,*,#665,.T.);
#867=ORIENTED_EDGE('',*,*,#579,.T.);
#868=ORIENTED_EDGE('',*,*,#665,.F.);
#869=ORIENTED_EDGE('',*,*,#615,.T.);
#870=ORIENTED_EDGE('',*,*,#666,.T.);
#871=ORIENTED_EDGE('',*,*,#578,.T.);
#872=ORIENTED_EDGE('',*,*,#666,.F.);
#873=ORIENTED_EDGE('',*,*,#640,.T.);
#874=ORIENTED_EDGE('',*,*,#667,.T.);
#875=ORIENTED_EDGE('',*,*,#577,.T.);
#876=ORIENTED_EDGE('',*,*,#667,.F.);
#877=ORIENTED_EDGE('',*,*,#646,.T.);
#878=ORIENTED_EDGE('',*,*,#668,.T.);
#879=ORIENTED_EDGE('',*,*,#576,.T.);
#880=ORIENTED_EDGE('',*,*,#668,.F.);
#881=ORIENTED_EDGE('',*,*,#637,.T.);
#882=ORIENTED_EDGE('',*,*,#669,.T.);
#883=ORIENTED_EDGE('',*,*,#575,.T.);
#884=ORIENTED_EDGE('',*,*,#669,.F.);
#885=ORIENTED_EDGE('',*,*,#625,.T.);
#886=ORIENTED_EDGE('',*,*,#670,.T.);
#887=ORIENTED_EDGE('',*,*,#574,.T.);
#888=ORIENTED_EDGE('',*,*,#670,.F.);
#889=ORIENTED_EDGE('',*,*,#617,.T.);
#890=ORIENTED_EDGE('',*,*,#671,.T.);
#891=ORIENTED_EDGE('',*,*,#573,.T.);
#892=ORIENTED_EDGE('',*,*,#671,.F.);
#893=ORIENTED_EDGE('',*,*,#616,.T.);
#894=ORIENTED_EDGE('',*,*,#672,.T.);
#895=ORIENTED_EDGE('',*,*,#572,.T.);
#896=ORIENTED_EDGE('',*,*,#672,.F.);
#897=ORIENTED_EDGE('',*,*,#620,.T.);
#898=ORIENTED_EDGE('',*,*,#673,.T.);
#899=ORIENTED_EDGE('',*,*,#571,.T.);
#900=ORIENTED_EDGE('',*,*,#673,.F.);
#901=ORIENTED_EDGE('',*,*,#628,.T.);
#902=ORIENTED_EDGE('',*,*,#674,.T.);
#903=ORIENTED_EDGE('',*,*,#570,.T.);
#904=ORIENTED_EDGE('',*,*,#674,.F.);
#905=ORIENTED_EDGE('',*,*,#618,.T.);
#906=ORIENTED_EDGE('',*,*,#675,.T.);
#907=ORIENTED_EDGE('',*,*,#569,.T.);
#908=ORIENTED_EDGE('',*,*,#675,.F.);
#909=ORIENTED_EDGE('',*,*,#623,.T.);
#910=ORIENTED_EDGE('',*,*,#676,.T.);
#911=ORIENTED_EDGE('',*,*,#568,.T.);
#912=ORIENTED_EDGE('',*,*,#676,.F.);
#913=ORIENTED_EDGE('',*,*,#645,.T.);
#914=ORIENTED_EDGE('',*,*,#677,.T.);
#915=ORIENTED_EDGE('',*,*,#567,.T.);
#916=ORIENTED_EDGE('',*,*,#677,.F.);
#917=ORIENTED_EDGE('',*,*,#626,.T.);
#918=ORIENTED_EDGE('',*,*,#678,.T.);
#919=ORIENTED_EDGE('',*,*,#566,.T.);
#920=ORIENTED_EDGE('',*,*,#678,.F.);
#921=ORIENTED_EDGE('',*,*,#641,.T.);
#922=ORIENTED_EDGE('',*,*,#679,.T.);
#923=ORIENTED_EDGE('',*,*,#565,.T.);
#924=ORIENTED_EDGE('',*,*,#679,.F.);
#925=ORIENTED_EDGE('',*,*,#635,.T.);
#926=ORIENTED_EDGE('',*,*,#680,.T.);
#927=ORIENTED_EDGE('',*,*,#564,.T.);
#928=ORIENTED_EDGE('',*,*,#680,.F.);
#929=ORIENTED_EDGE('',*,*,#629,.T.);
#930=ORIENTED_EDGE('',*,*,#681,.T.);
#931=ORIENTED_EDGE('',*,*,#563,.T.);
#932=ORIENTED_EDGE('',*,*,#681,.F.);
#933=ORIENTED_EDGE('',*,*,#630,.T.);
#934=ORIENTED_EDGE('',*,*,#682,.T.);
#935=ORIENTED_EDGE('',*,*,#562,.T.);
#936=ORIENTED_EDGE('',*,*,#682,.F.);
#937=ORIENTED_EDGE('',*,*,#559,.T.);
#938=ORIENTED_EDGE('',*,*,#612,.F.);
#939=ORIENTED_EDGE('',*,*,#608,.F.);
#940=ORIENTED_EDGE('',*,*,#611,.F.);
#941=PLANE('',#1077);
#942=PLANE('',#1117);
#943=PLANE('',#1120);
#944=PLANE('',#1123);
#945=PLANE('',#1126);
#946=PLANE('',#1129);
#947=PLANE('',#1131);
#948=PLANE('',#1133);
#949=PLANE('',#1135);
#950=PLANE('',#1137);
#951=PLANE('',#1139);
#952=PLANE('',#1141);
#953=PLANE('',#1143);
#954=PLANE('',#1145);
#955=PLANE('',#1147);
#956=PLANE('',#1149);
#957=PLANE('',#1151);
#958=PLANE('',#1153);
#959=PLANE('',#1155);
#960=PLANE('',#1157);
#961=PLANE('',#1159);
#962=PLANE('',#1161);
#963=PLANE('',#1163);
#964=PLANE('',#1165);
#965=PLANE('',#1167);
#966=PLANE('',#1169);
#967=PLANE('',#1171);
#968=PLANE('',#1173);
#969=PLANE('',#1175);
#970=PLANE('',#1177);
#971=PLANE('',#1179);
#972=PLANE('',#1181);
#973=PLANE('',#1183);
#974=PLANE('',#1185);
#975=PLANE('',#1187);
#976=PLANE('',#1189);
#977=PLANE('',#1191);
#978=PLANE('',#1193);
#979=PLANE('',#1195);
#980=PLANE('',#1197);
#981=PLANE('',#1234);
#982=ADVANCED_FACE('',(#93,#58,#59,#60,#61,#62,#63,#64,#65,#66,#67,#68,
#69,#70,#71,#72,#73,#74,#75,#76,#77,#78,#79,#80,#81,#82,#83,#84,#85,#86,
#87,#88,#89,#90,#91,#92),#941,.T.);
#983=ADVANCED_FACE('',(#94),#942,.T.);
#984=ADVANCED_FACE('',(#95),#19,.T.);
#985=ADVANCED_FACE('',(#96),#943,.T.);
#986=ADVANCED_FACE('',(#97),#20,.T.);
#987=ADVANCED_FACE('',(#98),#944,.F.);
#988=ADVANCED_FACE('',(#99),#945,.T.);
#989=ADVANCED_FACE('',(#100),#21,.T.);
#990=ADVANCED_FACE('',(#101),#22,.T.);
#991=ADVANCED_FACE('',(#102),#946,.T.);
#992=ADVANCED_FACE('',(#103),#947,.T.);
#993=ADVANCED_FACE('',(#104),#948,.T.);
#994=ADVANCED_FACE('',(#105),#949,.T.);
#995=ADVANCED_FACE('',(#106),#950,.T.);
#996=ADVANCED_FACE('',(#107),#951,.T.);
#997=ADVANCED_FACE('',(#108),#952,.T.);
#998=ADVANCED_FACE('',(#109),#953,.T.);
#999=ADVANCED_FACE('',(#110),#954,.T.);
#1000=ADVANCED_FACE('',(#111),#955,.T.);
#1001=ADVANCED_FACE('',(#112),#956,.T.);
#1002=ADVANCED_FACE('',(#113),#957,.T.);
#1003=ADVANCED_FACE('',(#114),#958,.T.);
#1004=ADVANCED_FACE('',(#115),#959,.T.);
#1005=ADVANCED_FACE('',(#116),#960,.T.);
#1006=ADVANCED_FACE('',(#117),#961,.T.);
#1007=ADVANCED_FACE('',(#118),#962,.T.);
#1008=ADVANCED_FACE('',(#119),#963,.T.);
#1009=ADVANCED_FACE('',(#120),#964,.T.);
#1010=ADVANCED_FACE('',(#121),#965,.T.);
#1011=ADVANCED_FACE('',(#122),#966,.T.);
#1012=ADVANCED_FACE('',(#123),#967,.T.);
#1013=ADVANCED_FACE('',(#124),#968,.T.);
#1014=ADVANCED_FACE('',(#125),#969,.T.);
#1015=ADVANCED_FACE('',(#126),#970,.T.);
#1016=ADVANCED_FACE('',(#127),#971,.T.);
#1017=ADVANCED_FACE('',(#128),#972,.T.);
#1018=ADVANCED_FACE('',(#129),#973,.T.);
#1019=ADVANCED_FACE('',(#130),#974,.T.);
#1020=ADVANCED_FACE('',(#131),#975,.T.);
#1021=ADVANCED_FACE('',(#132),#976,.T.);
#1022=ADVANCED_FACE('',(#133),#977,.T.);
#1023=ADVANCED_FACE('',(#134),#978,.T.);
#1024=ADVANCED_FACE('',(#135),#979,.T.);
#1025=ADVANCED_FACE('',(#136),#980,.T.);
#1026=ADVANCED_FACE('',(#137),#23,.F.);
#1027=ADVANCED_FACE('',(#138),#24,.F.);
#1028=ADVANCED_FACE('',(#139),#25,.F.);
#1029=ADVANCED_FACE('',(#140),#26,.F.);
#1030=ADVANCED_FACE('',(#141),#27,.F.);
#1031=ADVANCED_FACE('',(#142),#28,.F.);
#1032=ADVANCED_FACE('',(#143),#29,.F.);
#1033=ADVANCED_FACE('',(#144),#30,.F.);
#1034=ADVANCED_FACE('',(#145),#31,.F.);
#1035=ADVANCED_FACE('',(#146),#32,.F.);
#1036=ADVANCED_FACE('',(#147),#33,.F.);
#1037=ADVANCED_FACE('',(#148),#34,.F.);
#1038=ADVANCED_FACE('',(#149),#35,.F.);
#1039=ADVANCED_FACE('',(#150),#36,.F.);
#1040=ADVANCED_FACE('',(#151),#37,.F.);
#1041=ADVANCED_FACE('',(#152),#38,.F.);
#1042=ADVANCED_FACE('',(#153),#39,.F.);
#1043=ADVANCED_FACE('',(#154),#40,.F.);
#1044=ADVANCED_FACE('',(#155),#41,.F.);
#1045=ADVANCED_FACE('',(#156),#42,.F.);
#1046=ADVANCED_FACE('',(#157),#43,.F.);
#1047=ADVANCED_FACE('',(#158),#44,.F.);
#1048=ADVANCED_FACE('',(#159),#45,.F.);
#1049=ADVANCED_FACE('',(#160),#46,.F.);
#1050=ADVANCED_FACE('',(#161),#47,.F.);
#1051=ADVANCED_FACE('',(#162),#48,.F.);
#1052=ADVANCED_FACE('',(#163),#49,.F.);
#1053=ADVANCED_FACE('',(#164),#50,.F.);
#1054=ADVANCED_FACE('',(#165),#51,.F.);
#1055=ADVANCED_FACE('',(#166),#52,.F.);
#1056=ADVANCED_FACE('',(#167),#53,.F.);
#1057=ADVANCED_FACE('',(#168),#54,.F.);
#1058=ADVANCED_FACE('',(#169),#55,.F.);
#1059=ADVANCED_FACE('',(#170),#56,.F.);
#1060=ADVANCED_FACE('',(#171),#57,.F.);
#1061=ADVANCED_FACE('',(#172),#981,.T.);
#1062=CLOSED_SHELL('',(#982,#983,#984,#985,#986,#987,#988,#989,#990,#991,
#992,#993,#994,#995,#996,#997,#998,#999,#1000,#1001,#1002,#1003,#1004,#1005,
#1006,#1007,#1008,#1009,#1010,#1011,#1012,#1013,#1014,#1015,#1016,#1017,
#1018,#1019,#1020,#1021,#1022,#1023,#1024,#1025,#1026,#1027,#1028,#1029,
#1030,#1031,#1032,#1033,#1034,#1035,#1036,#1037,#1038,#1039,#1040,#1041,
#1042,#1043,#1044,#1045,#1046,#1047,#1048,#1049,#1050,#1051,#1052,#1053,
#1054,#1055,#1056,#1057,#1058,#1059,#1060,#1061));
#1063=DERIVED_UNIT_ELEMENT(#1065,1.);
#1064=DERIVED_UNIT_ELEMENT(#1914,-3.);
#1065=(
MASS_UNIT()
NAMED_UNIT(*)
SI_UNIT(.KILO.,.GRAM.)
);
#1066=DERIVED_UNIT((#1063,#1064));
#1067=MEASURE_REPRESENTATION_ITEM('density measure',
POSITIVE_RATIO_MEASURE(7850.),#1066);
#1068=PROPERTY_DEFINITION_REPRESENTATION(#1073,#1070);
#1069=PROPERTY_DEFINITION_REPRESENTATION(#1074,#1071);
#1070=REPRESENTATION('material name',(#1072),#1911);
#1071=REPRESENTATION('density',(#1067),#1911);
#1072=DESCRIPTIVE_REPRESENTATION_ITEM('Steel','Steel');
#1073=PROPERTY_DEFINITION('material property','material name',#1926);
#1074=PROPERTY_DEFINITION('material property','density of part',#1926);
#1075=AXIS2_PLACEMENT_3D('',#1609,#1236,#1237);
#1076=AXIS2_PLACEMENT_3D('',#1610,#1238,#1239);
#1077=AXIS2_PLACEMENT_3D('',#1611,#1240,#1241);
#1078=AXIS2_PLACEMENT_3D('',#1614,#1242,#1243);
#1079=AXIS2_PLACEMENT_3D('',#1618,#1245,#1246);
#1080=AXIS2_PLACEMENT_3D('',#1622,#1248,#1249);
#1081=AXIS2_PLACEMENT_3D('',#1626,#1251,#1252);
#1082=AXIS2_PLACEMENT_3D('',#1629,#1254,#1255);
#1083=AXIS2_PLACEMENT_3D('',#1631,#1256,#1257);
#1084=AXIS2_PLACEMENT_3D('',#1633,#1258,#1259);
#1085=AXIS2_PLACEMENT_3D('',#1635,#1260,#1261);
#1086=AXIS2_PLACEMENT_3D('',#1637,#1262,#1263);
#1087=AXIS2_PLACEMENT_3D('',#1639,#1264,#1265);
#1088=AXIS2_PLACEMENT_3D('',#1641,#1266,#1267);
#1089=AXIS2_PLACEMENT_3D('',#1643,#1268,#1269);
#1090=AXIS2_PLACEMENT_3D('',#1645,#1270,#1271);
#1091=AXIS2_PLACEMENT_3D('',#1647,#1272,#1273);
#1092=AXIS2_PLACEMENT_3D('',#1649,#1274,#1275);
#1093=AXIS2_PLACEMENT_3D('',#1651,#1276,#1277);
#1094=AXIS2_PLACEMENT_3D('',#1653,#1278,#1279);
#1095=AXIS2_PLACEMENT_3D('',#1655,#1280,#1281);
#1096=AXIS2_PLACEMENT_3D('',#1657,#1282,#1283);
#1097=AXIS2_PLACEMENT_3D('',#1659,#1284,#1285);
#1098=AXIS2_PLACEMENT_3D('',#1661,#1286,#1287);
#1099=AXIS2_PLACEMENT_3D('',#1663,#1288,#1289);
#1100=AXIS2_PLACEMENT_3D('',#1665,#1290,#1291);
#1101=AXIS2_PLACEMENT_3D('',#1667,#1292,#1293);
#1102=AXIS2_PLACEMENT_3D('',#1669,#1294,#1295);
#1103=AXIS2_PLACEMENT_3D('',#1671,#1296,#1297);
#1104=AXIS2_PLACEMENT_3D('',#1673,#1298,#1299);
#1105=AXIS2_PLACEMENT_3D('',#1675,#1300,#1301);
#1106=AXIS2_PLACEMENT_3D('',#1677,#1302,#1303);
#1107=AXIS2_PLACEMENT_3D('',#1679,#1304,#1305);
#1108=AXIS2_PLACEMENT_3D('',#1681,#1306,#1307);
#1109=AXIS2_PLACEMENT_3D('',#1683,#1308,#1309);
#1110=AXIS2_PLACEMENT_3D('',#1685,#1310,#1311);
#1111=AXIS2_PLACEMENT_3D('',#1687,#1312,#1313);
#1112=AXIS2_PLACEMENT_3D('',#1689,#1314,#1315);
#1113=AXIS2_PLACEMENT_3D('',#1691,#1316,#1317);
#1114=AXIS2_PLACEMENT_3D('',#1693,#1318,#1319);
#1115=AXIS2_PLACEMENT_3D('',#1695,#1320,#1321);
#1116=AXIS2_PLACEMENT_3D('',#1697,#1322,#1323);
#1117=AXIS2_PLACEMENT_3D('',#1698,#1324,#1325);
#1118=AXIS2_PLACEMENT_3D('',#1704,#1329,#1330);
#1119=AXIS2_PLACEMENT_3D('',#1707,#1332,#1333);
#1120=AXIS2_PLACEMENT_3D('',#1708,#1334,#1335);
#1121=AXIS2_PLACEMENT_3D('',#1712,#1338,#1339);
#1122=AXIS2_PLACEMENT_3D('',#1715,#1341,#1342);
#1123=AXIS2_PLACEMENT_3D('',#1716,#1343,#1344);
#1124=AXIS2_PLACEMENT_3D('',#1720,#1346,#1347);
#1125=AXIS2_PLACEMENT_3D('',#1723,#1349,#1350);
#1126=AXIS2_PLACEMENT_3D('',#1724,#1351,#1352);
#1127=AXIS2_PLACEMENT_3D('',#1726,#1354,#1355);
#1128=AXIS2_PLACEMENT_3D('',#1728,#1357,#1358);
#1129=AXIS2_PLACEMENT_3D('',#1730,#1360,#1361);
#1130=AXIS2_PLACEMENT_3D('',#1732,#1362,#1363);
#1131=AXIS2_PLACEMENT_3D('',#1733,#1364,#1365);
#1132=AXIS2_PLACEMENT_3D('',#1735,#1366,#1367);
#1133=AXIS2_PLACEMENT_3D('',#1736,#1368,#1369);
#1134=AXIS2_PLACEMENT_3D('',#1738,#1370,#1371);
#1135=AXIS2_PLACEMENT_3D('',#1739,#1372,#1373);
#1136=AXIS2_PLACEMENT_3D('',#1741,#1374,#1375);
#1137=AXIS2_PLACEMENT_3D('',#1742,#1376,#1377);
#1138=AXIS2_PLACEMENT_3D('',#1744,#1378,#1379);
#1139=AXIS2_PLACEMENT_3D('',#1745,#1380,#1381);
#1140=AXIS2_PLACEMENT_3D('',#1747,#1382,#1383);
#1141=AXIS2_PLACEMENT_3D('',#1748,#1384,#1385);
#1142=AXIS2_PLACEMENT_3D('',#1750,#1386,#1387);
#1143=AXIS2_PLACEMENT_3D('',#1751,#1388,#1389);
#1144=AXIS2_PLACEMENT_3D('',#1753,#1390,#1391);
#1145=AXIS2_PLACEMENT_3D('',#1754,#1392,#1393);
#1146=AXIS2_PLACEMENT_3D('',#1756,#1394,#1395);
#1147=AXIS2_PLACEMENT_3D('',#1757,#1396,#1397);
#1148=AXIS2_PLACEMENT_3D('',#1759,#1398,#1399);
#1149=AXIS2_PLACEMENT_3D('',#1760,#1400,#1401);
#1150=AXIS2_PLACEMENT_3D('',#1762,#1402,#1403);
#1151=AXIS2_PLACEMENT_3D('',#1763,#1404,#1405);
#1152=AXIS2_PLACEMENT_3D('',#1765,#1406,#1407);
#1153=AXIS2_PLACEMENT_3D('',#1766,#1408,#1409);
#1154=AXIS2_PLACEMENT_3D('',#1768,#1410,#1411);
#1155=AXIS2_PLACEMENT_3D('',#1769,#1412,#1413);
#1156=AXIS2_PLACEMENT_3D('',#1771,#1414,#1415);
#1157=AXIS2_PLACEMENT_3D('',#1772,#1416,#1417);
#1158=AXIS2_PLACEMENT_3D('',#1774,#1418,#1419);
#1159=AXIS2_PLACEMENT_3D('',#1775,#1420,#1421);
#1160=AXIS2_PLACEMENT_3D('',#1777,#1422,#1423);
#1161=AXIS2_PLACEMENT_3D('',#1778,#1424,#1425);
#1162=AXIS2_PLACEMENT_3D('',#1780,#1426,#1427);
#1163=AXIS2_PLACEMENT_3D('',#1781,#1428,#1429);
#1164=AXIS2_PLACEMENT_3D('',#1783,#1430,#1431);
#1165=AXIS2_PLACEMENT_3D('',#1784,#1432,#1433);
#1166=AXIS2_PLACEMENT_3D('',#1786,#1434,#1435);
#1167=AXIS2_PLACEMENT_3D('',#1787,#1436,#1437);
#1168=AXIS2_PLACEMENT_3D('',#1789,#1438,#1439);
#1169=AXIS2_PLACEMENT_3D('',#1790,#1440,#1441);
#1170=AXIS2_PLACEMENT_3D('',#1792,#1442,#1443);
#1171=AXIS2_PLACEMENT_3D('',#1793,#1444,#1445);
#1172=AXIS2_PLACEMENT_3D('',#1795,#1446,#1447);
#1173=AXIS2_PLACEMENT_3D('',#1796,#1448,#1449);
#1174=AXIS2_PLACEMENT_3D('',#1798,#1450,#1451);
#1175=AXIS2_PLACEMENT_3D('',#1799,#1452,#1453);
#1176=AXIS2_PLACEMENT_3D('',#1801,#1454,#1455);
#1177=AXIS2_PLACEMENT_3D('',#1802,#1456,#1457);
#1178=AXIS2_PLACEMENT_3D('',#1804,#1458,#1459);
#1179=AXIS2_PLACEMENT_3D('',#1805,#1460,#1461);
#1180=AXIS2_PLACEMENT_3D('',#1807,#1462,#1463);
#1181=AXIS2_PLACEMENT_3D('',#1808,#1464,#1465);
#1182=AXIS2_PLACEMENT_3D('',#1810,#1466,#1467);
#1183=AXIS2_PLACEMENT_3D('',#1811,#1468,#1469);
#1184=AXIS2_PLACEMENT_3D('',#1813,#1470,#1471);
#1185=AXIS2_PLACEMENT_3D('',#1814,#1472,#1473);
#1186=AXIS2_PLACEMENT_3D('',#1816,#1474,#1475);
#1187=AXIS2_PLACEMENT_3D('',#1817,#1476,#1477);
#1188=AXIS2_PLACEMENT_3D('',#1819,#1478,#1479);
#1189=AXIS2_PLACEMENT_3D('',#1820,#1480,#1481);
#1190=AXIS2_PLACEMENT_3D('',#1822,#1482,#1483);
#1191=AXIS2_PLACEMENT_3D('',#1823,#1484,#1485);
#1192=AXIS2_PLACEMENT_3D('',#1825,#1486,#1487);
#1193=AXIS2_PLACEMENT_3D('',#1826,#1488,#1489);
#1194=AXIS2_PLACEMENT_3D('',#1828,#1490,#1491);
#1195=AXIS2_PLACEMENT_3D('',#1829,#1492,#1493);
#1196=AXIS2_PLACEMENT_3D('',#1831,#1494,#1495);
#1197=AXIS2_PLACEMENT_3D('',#1832,#1496,#1497);
#1198=AXIS2_PLACEMENT_3D('',#1834,#1498,#1499);
#1199=AXIS2_PLACEMENT_3D('',#1835,#1500,#1501);
#1200=AXIS2_PLACEMENT_3D('',#1837,#1503,#1504);
#1201=AXIS2_PLACEMENT_3D('',#1839,#1506,#1507);
#1202=AXIS2_PLACEMENT_3D('',#1841,#1509,#1510);
#1203=AXIS2_PLACEMENT_3D('',#1843,#1512,#1513);
#1204=AXIS2_PLACEMENT_3D('',#1845,#1515,#1516);
#1205=AXIS2_PLACEMENT_3D('',#1847,#1518,#1519);
#1206=AXIS2_PLACEMENT_3D('',#1849,#1521,#1522);
#1207=AXIS2_PLACEMENT_3D('',#1851,#1524,#1525);
#1208=AXIS2_PLACEMENT_3D('',#1853,#1527,#1528);
#1209=AXIS2_PLACEMENT_3D('',#1855,#1530,#1531);
#1210=AXIS2_PLACEMENT_3D('',#1857,#1533,#1534);
#1211=AXIS2_PLACEMENT_3D('',#1859,#1536,#1537);
#1212=AXIS2_PLACEMENT_3D('',#1861,#1539,#1540);
#1213=AXIS2_PLACEMENT_3D('',#1863,#1542,#1543);
#1214=AXIS2_PLACEMENT_3D('',#1865,#1545,#1546);
#1215=AXIS2_PLACEMENT_3D('',#1867,#1548,#1549);
#1216=AXIS2_PLACEMENT_3D('',#1869,#1551,#1552);
#1217=AXIS2_PLACEMENT_3D('',#1871,#1554,#1555);
#1218=AXIS2_PLACEMENT_3D('',#1873,#1557,#1558);
#1219=AXIS2_PLACEMENT_3D('',#1875,#1560,#1561);
#1220=AXIS2_PLACEMENT_3D('',#1877,#1563,#1564);
#1221=AXIS2_PLACEMENT_3D('',#1879,#1566,#1567);
#1222=AXIS2_PLACEMENT_3D('',#1881,#1569,#1570);
#1223=AXIS2_PLACEMENT_3D('',#1883,#1572,#1573);
#1224=AXIS2_PLACEMENT_3D('',#1885,#1575,#1576);
#1225=AXIS2_PLACEMENT_3D('',#1887,#1578,#1579);
#1226=AXIS2_PLACEMENT_3D('',#1889,#1581,#1582);
#1227=AXIS2_PLACEMENT_3D('',#1891,#1584,#1585);
#1228=AXIS2_PLACEMENT_3D('',#1893,#1587,#1588);
#1229=AXIS2_PLACEMENT_3D('',#1895,#1590,#1591);
#1230=AXIS2_PLACEMENT_3D('',#1897,#1593,#1594);
#1231=AXIS2_PLACEMENT_3D('',#1899,#1596,#1597);
#1232=AXIS2_PLACEMENT_3D('',#1901,#1599,#1600);
#1233=AXIS2_PLACEMENT_3D('',#1903,#1602,#1603);
#1234=AXIS2_PLACEMENT_3D('',#1905,#1605,#1606);
#1235=AXIS2_PLACEMENT_3D('',#1906,#1607,#1608);
#1236=DIRECTION('axis',(0.,0.,1.));
#1237=DIRECTION('refdir',(1.,0.,0.));
#1238=DIRECTION('axis',(0.,0.,1.));
#1239=DIRECTION('refdir',(1.,0.,0.));
#1240=DIRECTION('center_axis',(0.,0.,1.));
#1241=DIRECTION('ref_axis',(1.,0.,0.));
#1242=DIRECTION('center_axis',(0.,0.,-1.));
#1243=DIRECTION('ref_axis',(-0.707106781186551,0.707106781186544,0.));
#1244=DIRECTION('',(0.,1.,0.));
#1245=DIRECTION('center_axis',(0.,0.,-1.));
#1246=DIRECTION('ref_axis',(-0.707106781186544,-0.707106781186551,0.));
#1247=DIRECTION('',(-1.,0.,0.));
#1248=DIRECTION('center_axis',(0.,0.,-1.));
#1249=DIRECTION('ref_axis',(0.707106781186551,-0.707106781186544,0.));
#1250=DIRECTION('',(0.,-1.,0.));
#1251=DIRECTION('center_axis',(0.,0.,-1.));
#1252=DIRECTION('ref_axis',(0.707106781186544,0.707106781186551,0.));
#1253=DIRECTION('',(1.,0.,0.));
#1254=DIRECTION('center_axis',(0.,0.,1.));
#1255=DIRECTION('ref_axis',(1.,0.,0.));
#1256=DIRECTION('center_axis',(0.,0.,1.));
#1257=DIRECTION('ref_axis',(1.,0.,0.));
#1258=DIRECTION('center_axis',(0.,0.,1.));
#1259=DIRECTION('ref_axis',(1.,0.,0.));
#1260=DIRECTION('center_axis',(0.,0.,1.));
#1261=DIRECTION('ref_axis',(1.,0.,0.));
#1262=DIRECTION('center_axis',(0.,0.,1.));
#1263=DIRECTION('ref_axis',(1.,0.,0.));
#1264=DIRECTION('center_axis',(0.,0.,1.));
#1265=DIRECTION('ref_axis',(1.,0.,0.));
#1266=DIRECTION('center_axis',(0.,0.,1.));
#1267=DIRECTION('ref_axis',(1.,0.,0.));
#1268=DIRECTION('center_axis',(0.,0.,1.));
#1269=DIRECTION('ref_axis',(1.,0.,0.));
#1270=DIRECTION('center_axis',(0.,0.,1.));
#1271=DIRECTION('ref_axis',(1.,0.,0.));
#1272=DIRECTION('center_axis',(0.,0.,1.));
#1273=DIRECTION('ref_axis',(1.,0.,0.));
#1274=DIRECTION('center_axis',(0.,0.,1.));
#1275=DIRECTION('ref_axis',(1.,0.,0.));
#1276=DIRECTION('center_axis',(0.,0.,1.));
#1277=DIRECTION('ref_axis',(1.,0.,0.));
#1278=DIRECTION('center_axis',(0.,0.,1.));
#1279=DIRECTION('ref_axis',(1.,0.,0.));
#1280=DIRECTION('center_axis',(0.,0.,1.));
#1281=DIRECTION('ref_axis',(1.,0.,0.));
#1282=DIRECTION('center_axis',(0.,0.,1.));
#1283=DIRECTION('ref_axis',(1.,0.,0.));
#1284=DIRECTION('center_axis',(0.,0.,1.));
#1285=DIRECTION('ref_axis',(1.,0.,0.));
#1286=DIRECTION('center_axis',(0.,0.,1.));
#1287=DIRECTION('ref_axis',(1.,0.,0.));
#1288=DIRECTION('center_axis',(0.,0.,1.));
#1289=DIRECTION('ref_axis',(1.,0.,0.));
#1290=DIRECTION('center_axis',(0.,0.,1.));
#1291=DIRECTION('ref_axis',(1.,0.,0.));
#1292=DIRECTION('center_axis',(0.,0.,1.));
#1293=DIRECTION('ref_axis',(1.,0.,0.));
#1294=DIRECTION('center_axis',(0.,0.,1.));
#1295=DIRECTION('ref_axis',(1.,0.,0.));
#1296=DIRECTION('center_axis',(0.,0.,1.));
#1297=DIRECTION('ref_axis',(1.,0.,0.));
#1298=DIRECTION('center_axis',(0.,0.,1.));
#1299=DIRECTION('ref_axis',(1.,0.,0.));
#1300=DIRECTION('center_axis',(0.,0.,1.));
#1301=DIRECTION('ref_axis',(1.,0.,0.));
#1302=DIRECTION('center_axis',(0.,0.,1.));
#1303=DIRECTION('ref_axis',(1.,0.,0.));
#1304=DIRECTION('center_axis',(0.,0.,1.));
#1305=DIRECTION('ref_axis',(1.,0.,0.));
#1306=DIRECTION('center_axis',(0.,0.,1.));
#1307=DIRECTION('ref_axis',(1.,0.,0.));
#1308=DIRECTION('center_axis',(0.,0.,1.));
#1309=DIRECTION('ref_axis',(1.,0.,0.));
#1310=DIRECTION('center_axis',(0.,0.,1.));
#1311=DIRECTION('ref_axis',(1.,0.,0.));
#1312=DIRECTION('center_axis',(0.,0.,1.));
#1313=DIRECTION('ref_axis',(1.,0.,0.));
#1314=DIRECTION('center_axis',(0.,0.,1.));
#1315=DIRECTION('ref_axis',(1.,0.,0.));
#1316=DIRECTION('center_axis',(0.,0.,1.));
#1317=DIRECTION('ref_axis',(1.,0.,0.));
#1318=DIRECTION('center_axis',(0.,0.,1.));
#1319=DIRECTION('ref_axis',(1.,0.,0.));
#1320=DIRECTION('center_axis',(0.,0.,1.));
#1321=DIRECTION('ref_axis',(1.,0.,0.));
#1322=DIRECTION('center_axis',(0.,0.,1.));
#1323=DIRECTION('ref_axis',(1.,0.,0.));
#1324=DIRECTION('center_axis',(0.,-1.,0.));
#1325=DIRECTION('ref_axis',(1.,0.,0.));
#1326=DIRECTION('',(0.,0.,1.));
#1327=DIRECTION('',(-1.,0.,0.));
#1328=DIRECTION('',(0.,0.,-1.));
#1329=DIRECTION('center_axis',(0.,0.,1.));
#1330=DIRECTION('ref_axis',(-0.707106781186544,-0.707106781186551,0.));
#1331=DIRECTION('',(0.,0.,-1.));
#1332=DIRECTION('center_axis',(0.,0.,1.));
#1333=DIRECTION('ref_axis',(-0.707106781186544,-0.707106781186551,0.));
#1334=DIRECTION('center_axis',(-1.,0.,0.));
#1335=DIRECTION('ref_axis',(0.,-1.,0.));
#1336=DIRECTION('',(0.,0.,1.));
#1337=DIRECTION('',(0.,1.,0.));
#1338=DIRECTION('center_axis',(0.,0.,1.));
#1339=DIRECTION('ref_axis',(-0.707106781186551,0.707106781186544,0.));
#1340=DIRECTION('',(0.,0.,-1.));
#1341=DIRECTION('center_axis',(0.,0.,1.));
#1342=DIRECTION('ref_axis',(-0.707106781186551,0.707106781186544,0.));
#1343=DIRECTION('center_axis',(0.,0.,1.));
#1344=DIRECTION('ref_axis',(1.,0.,0.));
#1345=DIRECTION('',(1.,0.,0.));
#1346=DIRECTION('center_axis',(0.,0.,1.));
#1347=DIRECTION('ref_axis',(0.707106781186544,0.707106781186551,0.));
#1348=DIRECTION('',(0.,-1.,0.));
#1349=DIRECTION('center_axis',(0.,0.,1.));
#1350=DIRECTION('ref_axis',(0.707106781186551,-0.707106781186544,0.));
#1351=DIRECTION('center_axis',(0.,1.,0.));
#1352=DIRECTION('ref_axis',(-1.,0.,0.));
#1353=DIRECTION('',(0.,0.,1.));
#1354=DIRECTION('center_axis',(0.,0.,1.));
#1355=DIRECTION('ref_axis',(0.707106781186544,0.707106781186551,0.));
#1356=DIRECTION('',(0.,0.,-1.));
#1357=DIRECTION('center_axis',(0.,0.,1.));
#1358=DIRECTION('ref_axis',(0.707106781186551,-0.707106781186544,0.));
#1359=DIRECTION('',(0.,0.,1.));
#1360=DIRECTION('center_axis',(0.,0.,1.));
#1361=DIRECTION('ref_axis',(1.,0.,0.));
#1362=DIRECTION('center_axis',(0.,0.,-1.));
#1363=DIRECTION('ref_axis',(1.,0.,0.));
#1364=DIRECTION('center_axis',(0.,0.,1.));
#1365=DIRECTION('ref_axis',(1.,0.,0.));
#1366=DIRECTION('center_axis',(0.,0.,-1.));
#1367=DIRECTION('ref_axis',(1.,0.,0.));
#1368=DIRECTION('center_axis',(0.,0.,1.));
#1369=DIRECTION('ref_axis',(1.,0.,0.));
#1370=DIRECTION('center_axis',(0.,0.,-1.));
#1371=DIRECTION('ref_axis',(1.,0.,0.));
#1372=DIRECTION('center_axis',(0.,0.,1.));
#1373=DIRECTION('ref_axis',(1.,0.,0.));
#1374=DIRECTION('center_axis',(0.,0.,-1.));
#1375=DIRECTION('ref_axis',(1.,0.,0.));
#1376=DIRECTION('center_axis',(0.,0.,1.));
#1377=DIRECTION('ref_axis',(1.,0.,0.));
#1378=DIRECTION('center_axis',(0.,0.,-1.));
#1379=DIRECTION('ref_axis',(1.,0.,0.));
#1380=DIRECTION('center_axis',(0.,0.,1.));
#1381=DIRECTION('ref_axis',(1.,0.,0.));
#1382=DIRECTION('center_axis',(0.,0.,-1.));
#1383=DIRECTION('ref_axis',(1.,0.,0.));
#1384=DIRECTION('center_axis',(0.,0.,1.));
#1385=DIRECTION('ref_axis',(1.,0.,0.));
#1386=DIRECTION('center_axis',(0.,0.,-1.));
#1387=DIRECTION('ref_axis',(1.,0.,0.));
#1388=DIRECTION('center_axis',(0.,0.,1.));
#1389=DIRECTION('ref_axis',(1.,0.,0.));
#1390=DIRECTION('center_axis',(0.,0.,-1.));
#1391=DIRECTION('ref_axis',(1.,0.,0.));
#1392=DIRECTION('center_axis',(0.,0.,1.));
#1393=DIRECTION('ref_axis',(1.,0.,0.));
#1394=DIRECTION('center_axis',(0.,0.,-1.));
#1395=DIRECTION('ref_axis',(1.,0.,0.));
#1396=DIRECTION('center_axis',(0.,0.,1.));
#1397=DIRECTION('ref_axis',(1.,0.,0.));
#1398=DIRECTION('center_axis',(0.,0.,-1.));
#1399=DIRECTION('ref_axis',(1.,0.,0.));
#1400=DIRECTION('center_axis',(0.,0.,1.));
#1401=DIRECTION('ref_axis',(1.,0.,0.));
#1402=DIRECTION('center_axis',(0.,0.,-1.));
#1403=DIRECTION('ref_axis',(1.,0.,0.));
#1404=DIRECTION('center_axis',(0.,0.,1.));
#1405=DIRECTION('ref_axis',(1.,0.,0.));
#1406=DIRECTION('center_axis',(0.,0.,-1.));
#1407=DIRECTION('ref_axis',(1.,0.,0.));
#1408=DIRECTION('center_axis',(0.,0.,1.));
#1409=DIRECTION('ref_axis',(1.,0.,0.));
#1410=DIRECTION('center_axis',(0.,0.,-1.));
#1411=DIRECTION('ref_axis',(1.,0.,0.));
#1412=DIRECTION('center_axis',(0.,0.,1.));
#1413=DIRECTION('ref_axis',(1.,0.,0.));
#1414=DIRECTION('center_axis',(0.,0.,-1.));
#1415=DIRECTION('ref_axis',(1.,0.,0.));
#1416=DIRECTION('center_axis',(0.,0.,1.));
#1417=DIRECTION('ref_axis',(1.,0.,0.));
#1418=DIRECTION('center_axis',(0.,0.,-1.));
#1419=DIRECTION('ref_axis',(1.,0.,0.));
#1420=DIRECTION('center_axis',(0.,0.,1.));
#1421=DIRECTION('ref_axis',(1.,0.,0.));
#1422=DIRECTION('center_axis',(0.,0.,-1.));
#1423=DIRECTION('ref_axis',(1.,0.,0.));
#1424=DIRECTION('center_axis',(0.,0.,1.));
#1425=DIRECTION('ref_axis',(1.,0.,0.));
#1426=DIRECTION('center_axis',(0.,0.,-1.));
#1427=DIRECTION('ref_axis',(1.,0.,0.));
#1428=DIRECTION('center_axis',(0.,0.,1.));
#1429=DIRECTION('ref_axis',(1.,0.,0.));
#1430=DIRECTION('center_axis',(0.,0.,-1.));
#1431=DIRECTION('ref_axis',(1.,0.,0.));
#1432=DIRECTION('center_axis',(0.,0.,1.));
#1433=DIRECTION('ref_axis',(1.,0.,0.));
#1434=DIRECTION('center_axis',(0.,0.,-1.));
#1435=DIRECTION('ref_axis',(1.,0.,0.));
#1436=DIRECTION('center_axis',(0.,0.,1.));
#1437=DIRECTION('ref_axis',(1.,0.,0.));
#1438=DIRECTION('center_axis',(0.,0.,-1.));
#1439=DIRECTION('ref_axis',(1.,0.,0.));
#1440=DIRECTION('center_axis',(0.,0.,1.));
#1441=DIRECTION('ref_axis',(1.,0.,0.));
#1442=DIRECTION('center_axis',(0.,0.,-1.));
#1443=DIRECTION('ref_axis',(1.,0.,0.));
#1444=DIRECTION('center_axis',(0.,0.,1.));
#1445=DIRECTION('ref_axis',(1.,0.,0.));
#1446=DIRECTION('center_axis',(0.,0.,-1.));
#1447=DIRECTION('ref_axis',(1.,0.,0.));
#1448=DIRECTION('center_axis',(0.,0.,1.));
#1449=DIRECTION('ref_axis',(1.,0.,0.));
#1450=DIRECTION('center_axis',(0.,0.,-1.));
#1451=DIRECTION('ref_axis',(1.,0.,0.));
#1452=DIRECTION('center_axis',(0.,0.,1.));
#1453=DIRECTION('ref_axis',(1.,0.,0.));
#1454=DIRECTION('center_axis',(0.,0.,-1.));
#1455=DIRECTION('ref_axis',(1.,0.,0.));
#1456=DIRECTION('center_axis',(0.,0.,1.));
#1457=DIRECTION('ref_axis',(1.,0.,0.));
#1458=DIRECTION('center_axis',(0.,0.,-1.));
#1459=DIRECTION('ref_axis',(1.,0.,0.));
#1460=DIRECTION('center_axis',(0.,0.,1.));
#1461=DIRECTION('ref_axis',(1.,0.,0.));
#1462=DIRECTION('center_axis',(0.,0.,-1.));
#1463=DIRECTION('ref_axis',(1.,0.,0.));
#1464=DIRECTION('center_axis',(0.,0.,1.));
#1465=DIRECTION('ref_axis',(1.,0.,0.));
#1466=DIRECTION('center_axis',(0.,0.,-1.));
#1467=DIRECTION('ref_axis',(1.,0.,0.));
#1468=DIRECTION('center_axis',(0.,0.,1.));
#1469=DIRECTION('ref_axis',(1.,0.,0.));
#1470=DIRECTION('center_axis',(0.,0.,-1.));
#1471=DIRECTION('ref_axis',(1.,0.,0.));
#1472=DIRECTION('center_axis',(0.,0.,1.));
#1473=DIRECTION('ref_axis',(1.,0.,0.));
#1474=DIRECTION('center_axis',(0.,0.,-1.));
#1475=DIRECTION('ref_axis',(1.,0.,0.));
#1476=DIRECTION('center_axis',(0.,0.,1.));
#1477=DIRECTION('ref_axis',(1.,0.,0.));
#1478=DIRECTION('center_axis',(0.,0.,-1.));
#1479=DIRECTION('ref_axis',(1.,0.,0.));
#1480=DIRECTION('center_axis',(0.,0.,1.));
#1481=DIRECTION('ref_axis',(1.,0.,0.));
#1482=DIRECTION('center_axis',(0.,0.,-1.));
#1483=DIRECTION('ref_axis',(1.,0.,0.));
#1484=DIRECTION('center_axis',(0.,0.,1.));
#1485=DIRECTION('ref_axis',(1.,0.,0.));
#1486=DIRECTION('center_axis',(0.,0.,-1.));
#1487=DIRECTION('ref_axis',(1.,0.,0.));
#1488=DIRECTION('center_axis',(0.,0.,1.));
#1489=DIRECTION('ref_axis',(1.,0.,0.));
#1490=DIRECTION('center_axis',(0.,0.,-1.));
#1491=DIRECTION('ref_axis',(1.,0.,0.));
#1492=DIRECTION('center_axis',(0.,0.,1.));
#1493=DIRECTION('ref_axis',(1.,0.,0.));
#1494=DIRECTION('center_axis',(0.,0.,-1.));
#1495=DIRECTION('ref_axis',(1.,0.,0.));
#1496=DIRECTION('center_axis',(0.,0.,1.));
#1497=DIRECTION('ref_axis',(1.,0.,0.));
#1498=DIRECTION('center_axis',(0.,0.,-1.));
#1499=DIRECTION('ref_axis',(1.,0.,0.));
#1500=DIRECTION('center_axis',(0.,0.,1.));
#1501=DIRECTION('ref_axis',(1.,0.,0.));
#1502=DIRECTION('',(0.,0.,1.));
#1503=DIRECTION('center_axis',(0.,0.,1.));
#1504=DIRECTION('ref_axis',(1.,0.,0.));
#1505=DIRECTION('',(0.,0.,1.));
#1506=DIRECTION('center_axis',(0.,0.,1.));
#1507=DIRECTION('ref_axis',(1.,0.,0.));
#1508=DIRECTION('',(0.,0.,1.));
#1509=DIRECTION('center_axis',(0.,0.,1.));
#1510=DIRECTION('ref_axis',(1.,0.,0.));
#1511=DIRECTION('',(0.,0.,1.));
#1512=DIRECTION('center_axis',(0.,0.,1.));
#1513=DIRECTION('ref_axis',(1.,0.,0.));
#1514=DIRECTION('',(0.,0.,1.));
#1515=DIRECTION('center_axis',(0.,0.,1.));
#1516=DIRECTION('ref_axis',(1.,0.,0.));
#1517=DIRECTION('',(0.,0.,1.));
#1518=DIRECTION('center_axis',(0.,0.,1.));
#1519=DIRECTION('ref_axis',(1.,0.,0.));
#1520=DIRECTION('',(0.,0.,1.));
#1521=DIRECTION('center_axis',(0.,0.,1.));
#1522=DIRECTION('ref_axis',(1.,0.,0.));
#1523=DIRECTION('',(0.,0.,1.));
#1524=DIRECTION('center_axis',(0.,0.,1.));
#1525=DIRECTION('ref_axis',(1.,0.,0.));
#1526=DIRECTION('',(0.,0.,1.));
#1527=DIRECTION('center_axis',(0.,0.,1.));
#1528=DIRECTION('ref_axis',(1.,0.,0.));
#1529=DIRECTION('',(0.,0.,1.));
#1530=DIRECTION('center_axis',(0.,0.,1.));
#1531=DIRECTION('ref_axis',(1.,0.,0.));
#1532=DIRECTION('',(0.,0.,1.));
#1533=DIRECTION('center_axis',(0.,0.,1.));
#1534=DIRECTION('ref_axis',(1.,0.,0.));
#1535=DIRECTION('',(0.,0.,1.));
#1536=DIRECTION('center_axis',(0.,0.,1.));
#1537=DIRECTION('ref_axis',(1.,0.,0.));
#1538=DIRECTION('',(0.,0.,1.));
#1539=DIRECTION('center_axis',(0.,0.,1.));
#1540=DIRECTION('ref_axis',(1.,0.,0.));
#1541=DIRECTION('',(0.,0.,1.));
#1542=DIRECTION('center_axis',(0.,0.,1.));
#1543=DIRECTION('ref_axis',(1.,0.,0.));
#1544=DIRECTION('',(0.,0.,1.));
#1545=DIRECTION('center_axis',(0.,0.,1.));
#1546=DIRECTION('ref_axis',(1.,0.,0.));
#1547=DIRECTION('',(0.,0.,1.));
#1548=DIRECTION('center_axis',(0.,0.,1.));
#1549=DIRECTION('ref_axis',(1.,0.,0.));
#1550=DIRECTION('',(0.,0.,1.));
#1551=DIRECTION('center_axis',(0.,0.,1.));
#1552=DIRECTION('ref_axis',(1.,0.,0.));
#1553=DIRECTION('',(0.,0.,1.));
#1554=DIRECTION('center_axis',(0.,0.,1.));
#1555=DIRECTION('ref_axis',(1.,0.,0.));
#1556=DIRECTION('',(0.,0.,1.));
#1557=DIRECTION('center_axis',(0.,0.,1.));
#1558=DIRECTION('ref_axis',(1.,0.,0.));
#1559=DIRECTION('',(0.,0.,1.));
#1560=DIRECTION('center_axis',(0.,0.,1.));
#1561=DIRECTION('ref_axis',(1.,0.,0.));
#1562=DIRECTION('',(0.,0.,1.));
#1563=DIRECTION('center_axis',(0.,0.,1.));
#1564=DIRECTION('ref_axis',(1.,0.,0.));
#1565=DIRECTION('',(0.,0.,1.));
#1566=DIRECTION('center_axis',(0.,0.,1.));
#1567=DIRECTION('ref_axis',(1.,0.,0.));
#1568=DIRECTION('',(0.,0.,1.));
#1569=DIRECTION('center_axis',(0.,0.,1.));
#1570=DIRECTION('ref_axis',(1.,0.,0.));
#1571=DIRECTION('',(0.,0.,1.));
#1572=DIRECTION('center_axis',(0.,0.,1.));
#1573=DIRECTION('ref_axis',(1.,0.,0.));
#1574=DIRECTION('',(0.,0.,1.));
#1575=DIRECTION('center_axis',(0.,0.,1.));
#1576=DIRECTION('ref_axis',(1.,0.,0.));
#1577=DIRECTION('',(0.,0.,1.));
#1578=DIRECTION('center_axis',(0.,0.,1.));
#1579=DIRECTION('ref_axis',(1.,0.,0.));
#1580=DIRECTION('',(0.,0.,1.));
#1581=DIRECTION('center_axis',(0.,0.,1.));
#1582=DIRECTION('ref_axis',(1.,0.,0.));
#1583=DIRECTION('',(0.,0.,1.));
#1584=DIRECTION('center_axis',(0.,0.,1.));
#1585=DIRECTION('ref_axis',(1.,0.,0.));
#1586=DIRECTION('',(0.,0.,1.));
#1587=DIRECTION('center_axis',(0.,0.,1.));
#1588=DIRECTION('ref_axis',(1.,0.,0.));
#1589=DIRECTION('',(0.,0.,1.));
#1590=DIRECTION('center_axis',(0.,0.,1.));
#1591=DIRECTION('ref_axis',(1.,0.,0.));
#1592=DIRECTION('',(0.,0.,1.));
#1593=DIRECTION('center_axis',(0.,0.,1.));
#1594=DIRECTION('ref_axis',(1.,0.,0.));
#1595=DIRECTION('',(0.,0.,1.));
#1596=DIRECTION('center_axis',(0.,0.,1.));
#1597=DIRECTION('ref_axis',(1.,0.,0.));
#1598=DIRECTION('',(0.,0.,1.));
#1599=DIRECTION('center_axis',(0.,0.,1.));
#1600=DIRECTION('ref_axis',(1.,0.,0.));
#1601=DIRECTION('',(0.,0.,1.));
#1602=DIRECTION('center_axis',(0.,0.,1.));
#1603=DIRECTION('ref_axis',(1.,0.,0.));
#1604=DIRECTION('',(0.,0.,1.));
#1605=DIRECTION('center_axis',(1.,0.,0.));
#1606=DIRECTION('ref_axis',(0.,1.,0.));
#1607=DIRECTION('',(0.,0.,1.));
#1608=DIRECTION('',(1.,0.,0.));
#1609=CARTESIAN_POINT('',(0.,0.,0.));
#1610=CARTESIAN_POINT('',(0.,0.,0.));
#1611=CARTESIAN_POINT('Origin',(2.12499999999999,6.125,20.));
#1612=CARTESIAN_POINT('',(-45.75,73.,20.));
#1613=CARTESIAN_POINT('',(-43.75,75.,20.));
#1614=CARTESIAN_POINT('Origin',(-43.75,73.,20.));
#1615=CARTESIAN_POINT('',(-45.75,-60.75,20.));
#1616=CARTESIAN_POINT('',(-45.75,40.5625,20.));
#1617=CARTESIAN_POINT('',(-43.75,-62.75,20.));
#1618=CARTESIAN_POINT('Origin',(-43.75,-60.75,20.));
#1619=CARTESIAN_POINT('',(48.,-62.75,20.));
#1620=CARTESIAN_POINT('',(-21.8125,-62.75,20.));
#1621=CARTESIAN_POINT('',(50.,-60.75,20.));
#1622=CARTESIAN_POINT('Origin',(48.,-60.75,20.));
#1623=CARTESIAN_POINT('',(50.,73.,20.));
#1624=CARTESIAN_POINT('',(50.,-28.3125,20.));
#1625=CARTESIAN_POINT('',(48.,75.,20.));
#1626=CARTESIAN_POINT('Origin',(48.,73.,20.));
#1627=CARTESIAN_POINT('',(26.0625,75.,20.));
#1628=CARTESIAN_POINT('',(-24.0108442695246,63.0292111189769,20.));
#1629=CARTESIAN_POINT('Origin',(-15.7608442695246,63.0292111189769,20.));
#1630=CARTESIAN_POINT('',(-6.5108442695246,63.0292111189769,20.));
#1631=CARTESIAN_POINT('Origin',(1.7391557304754,63.0292111189769,20.));
#1632=CARTESIAN_POINT('',(28.4891557304754,6.02921111897685,20.));
#1633=CARTESIAN_POINT('Origin',(36.7391557304754,6.02921111897685,20.));
#1634=CARTESIAN_POINT('',(-41.5108442695246,-31.9707888810231,20.));
#1635=CARTESIAN_POINT('Origin',(-33.2608442695246,-31.9707888810231,20.));
#1636=CARTESIAN_POINT('',(-24.0108442695246,6.02921111897685,20.));
#1637=CARTESIAN_POINT('Origin',(-15.7608442695246,6.02921111897685,20.));
#1638=CARTESIAN_POINT('',(28.4891557304754,44.0292111189768,20.));
#1639=CARTESIAN_POINT('Origin',(36.7391557304754,44.0292111189768,20.));
#1640=CARTESIAN_POINT('',(10.9891557304754,-31.9707888810231,20.));
#1641=CARTESIAN_POINT('Origin',(19.2391557304754,-31.9707888810231,20.));
#1642=CARTESIAN_POINT('',(10.9891557304754,6.02921111897685,20.));
#1643=CARTESIAN_POINT('Origin',(19.2391557304754,6.02921111897685,20.));
#1644=CARTESIAN_POINT('',(28.4891557304754,63.0292111189769,20.));
#1645=CARTESIAN_POINT('Origin',(36.7391557304754,63.0292111189769,20.));
#1646=CARTESIAN_POINT('',(-6.5108442695246,-31.9707888810231,20.));
#1647=CARTESIAN_POINT('Origin',(1.7391557304754,-31.9707888810231,20.));
#1648=CARTESIAN_POINT('',(10.9891557304754,25.0292111189768,20.));
#1649=CARTESIAN_POINT('Origin',(19.2391557304754,25.0292111189768,20.));
#1650=CARTESIAN_POINT('',(-41.5108442695246,6.02921111897685,20.));
#1651=CARTESIAN_POINT('Origin',(-33.2608442695246,6.02921111897685,20.));
#1652=CARTESIAN_POINT('',(28.4891557304754,-12.9707888810232,20.));
#1653=CARTESIAN_POINT('Origin',(36.7391557304754,-12.9707888810232,20.));
#1654=CARTESIAN_POINT('',(-24.0108442695246,-31.9707888810231,20.));
#1655=CARTESIAN_POINT('Origin',(-15.7608442695246,-31.9707888810231,20.));
#1656=CARTESIAN_POINT('',(-6.5108442695246,44.0292111189768,20.));
#1657=CARTESIAN_POINT('Origin',(1.7391557304754,44.0292111189768,20.));
#1658=CARTESIAN_POINT('',(-41.5108442695246,-50.9707888810232,20.));
#1659=CARTESIAN_POINT('Origin',(-33.2608442695246,-50.9707888810232,20.));
#1660=CARTESIAN_POINT('',(10.9891557304754,44.0292111189768,20.));
#1661=CARTESIAN_POINT('Origin',(19.2391557304754,44.0292111189768,20.));
#1662=CARTESIAN_POINT('',(-24.0108442695246,44.0292111189768,20.));
#1663=CARTESIAN_POINT('Origin',(-15.7608442695246,44.0292111189768,20.));
#1664=CARTESIAN_POINT('',(28.4891557304754,-31.9707888810231,20.));
#1665=CARTESIAN_POINT('Origin',(36.7391557304754,-31.9707888810231,20.));
#1666=CARTESIAN_POINT('',(28.4891557304754,25.0292111189768,20.));
#1667=CARTESIAN_POINT('Origin',(36.7391557304754,25.0292111189768,20.));
#1668=CARTESIAN_POINT('',(-24.0108442695246,-50.9707888810232,20.));
#1669=CARTESIAN_POINT('Origin',(-15.7608442695246,-50.9707888810232,20.));
#1670=CARTESIAN_POINT('',(10.9891557304754,63.0292111189769,20.));
#1671=CARTESIAN_POINT('Origin',(19.2391557304754,63.0292111189769,20.));
#1672=CARTESIAN_POINT('',(-24.0108442695246,-12.9707888810232,20.));
#1673=CARTESIAN_POINT('Origin',(-15.7608442695246,-12.9707888810232,20.));
#1674=CARTESIAN_POINT('',(10.9891557304754,-50.9707888810232,20.));
#1675=CARTESIAN_POINT('Origin',(19.2391557304754,-50.9707888810232,20.));
#1676=CARTESIAN_POINT('',(-41.5108442695246,25.0292111189768,20.));
#1677=CARTESIAN_POINT('Origin',(-33.2608442695246,25.0292111189768,20.));
#1678=CARTESIAN_POINT('',(-6.5108442695246,-12.9707888810232,20.));
#1679=CARTESIAN_POINT('Origin',(1.7391557304754,-12.9707888810232,20.));
#1680=CARTESIAN_POINT('',(-24.0108442695246,25.0292111189768,20.));
#1681=CARTESIAN_POINT('Origin',(-15.7608442695246,25.0292111189768,20.));
#1682=CARTESIAN_POINT('',(28.4891557304754,-50.9707888810232,20.));
#1683=CARTESIAN_POINT('Origin',(36.7391557304754,-50.9707888810232,20.));
#1684=CARTESIAN_POINT('',(-41.5108442695246,44.0292111189768,20.));
#1685=CARTESIAN_POINT('Origin',(-33.2608442695246,44.0292111189768,20.));
#1686=CARTESIAN_POINT('',(-41.5108442695246,-12.9707888810232,20.));
#1687=CARTESIAN_POINT('Origin',(-33.2608442695246,-12.9707888810232,20.));
#1688=CARTESIAN_POINT('',(-6.5108442695246,25.0292111189768,20.));
#1689=CARTESIAN_POINT('Origin',(1.7391557304754,25.0292111189768,20.));
#1690=CARTESIAN_POINT('',(-6.5108442695246,-50.9707888810232,20.));
#1691=CARTESIAN_POINT('Origin',(1.7391557304754,-50.9707888810232,20.));
#1692=CARTESIAN_POINT('',(-41.5108442695246,63.0292111189769,20.));
#1693=CARTESIAN_POINT('Origin',(-33.2608442695246,63.0292111189769,20.));
#1694=CARTESIAN_POINT('',(-6.5108442695246,6.02921111897685,20.));
#1695=CARTESIAN_POINT('Origin',(1.7391557304754,6.02921111897685,20.));
#1696=CARTESIAN_POINT('',(10.9891557304754,-12.9707888810232,20.));
#1697=CARTESIAN_POINT('Origin',(19.2391557304754,-12.9707888810232,20.));
#1698=CARTESIAN_POINT('Origin',(-45.75,-62.75,0.));
#1699=CARTESIAN_POINT('',(-43.75,-62.75,0.));
#1700=CARTESIAN_POINT('',(-43.75,-62.75,0.));
#1701=CARTESIAN_POINT('',(48.,-62.75,0.));
#1702=CARTESIAN_POINT('',(50.,-62.75,0.));
#1703=CARTESIAN_POINT('',(48.,-62.75,0.));
#1704=CARTESIAN_POINT('Origin',(-43.75,-60.75,0.));
#1705=CARTESIAN_POINT('',(-45.75,-60.75,0.));
#1706=CARTESIAN_POINT('',(-45.75,-60.75,0.));
#1707=CARTESIAN_POINT('Origin',(-43.75,-60.75,0.));
#1708=CARTESIAN_POINT('Origin',(-45.75,75.,0.));
#1709=CARTESIAN_POINT('',(-45.75,73.,0.));
#1710=CARTESIAN_POINT('',(-45.75,73.,0.));
#1711=CARTESIAN_POINT('',(-45.75,-62.75,0.));
#1712=CARTESIAN_POINT('Origin',(-43.75,73.,0.));
#1713=CARTESIAN_POINT('',(-43.75,75.,0.));
#1714=CARTESIAN_POINT('',(-43.75,75.,0.));
#1715=CARTESIAN_POINT('Origin',(-43.75,73.,0.));
#1716=CARTESIAN_POINT('Origin',(2.12499999999999,6.125,0.));
#1717=CARTESIAN_POINT('',(48.,75.,0.));
#1718=CARTESIAN_POINT('',(-45.75,75.,0.));
#1719=CARTESIAN_POINT('',(50.,73.,0.));
#1720=CARTESIAN_POINT('Origin',(48.,73.,0.));
#1721=CARTESIAN_POINT('',(50.,-60.75,0.));
#1722=CARTESIAN_POINT('',(50.,75.,0.));
#1723=CARTESIAN_POINT('Origin',(48.,-60.75,0.));
#1724=CARTESIAN_POINT('Origin',(50.,75.,0.));
#1725=CARTESIAN_POINT('',(48.,75.,0.));
#1726=CARTESIAN_POINT('Origin',(48.,73.,0.));
#1727=CARTESIAN_POINT('',(50.,73.,0.));
#1728=CARTESIAN_POINT('Origin',(48.,-60.75,0.));
#1729=CARTESIAN_POINT('',(50.,-60.75,0.));
#1730=CARTESIAN_POINT('Origin',(36.7391557304754,-31.9707888810231,2.5));
#1731=CARTESIAN_POINT('',(28.4891557304754,-31.9707888810231,2.5));
#1732=CARTESIAN_POINT('Origin',(36.7391557304754,-31.9707888810231,2.5));
#1733=CARTESIAN_POINT('Origin',(-15.7608442695246,44.0292111189768,2.5));
#1734=CARTESIAN_POINT('',(-24.0108442695246,44.0292111189768,2.5));
#1735=CARTESIAN_POINT('Origin',(-15.7608442695246,44.0292111189768,2.5));
#1736=CARTESIAN_POINT('Origin',(19.2391557304754,44.0292111189768,2.5));
#1737=CARTESIAN_POINT('',(10.9891557304754,44.0292111189768,2.5));
#1738=CARTESIAN_POINT('Origin',(19.2391557304754,44.0292111189768,2.5));
#1739=CARTESIAN_POINT('Origin',(19.2391557304754,25.0292111189768,2.5));
#1740=CARTESIAN_POINT('',(10.9891557304754,25.0292111189768,2.5));
#1741=CARTESIAN_POINT('Origin',(19.2391557304754,25.0292111189768,2.5));
#1742=CARTESIAN_POINT('Origin',(-33.2608442695246,6.02921111897685,2.5));
#1743=CARTESIAN_POINT('',(-41.5108442695246,6.02921111897685,2.5));
#1744=CARTESIAN_POINT('Origin',(-33.2608442695246,6.02921111897685,2.5));
#1745=CARTESIAN_POINT('Origin',(19.2391557304754,6.02921111897685,2.5));
#1746=CARTESIAN_POINT('',(10.9891557304754,6.02921111897685,2.5));
#1747=CARTESIAN_POINT('Origin',(19.2391557304754,6.02921111897685,2.5));
#1748=CARTESIAN_POINT('Origin',(-15.7608442695246,-12.9707888810232,2.5));
#1749=CARTESIAN_POINT('',(-24.0108442695246,-12.9707888810232,2.5));
#1750=CARTESIAN_POINT('Origin',(-15.7608442695246,-12.9707888810232,2.5));
#1751=CARTESIAN_POINT('Origin',(1.7391557304754,-31.9707888810231,2.5));
#1752=CARTESIAN_POINT('',(-6.5108442695246,-31.9707888810231,2.5));
#1753=CARTESIAN_POINT('Origin',(1.7391557304754,-31.9707888810231,2.5));
#1754=CARTESIAN_POINT('Origin',(19.2391557304754,-50.9707888810232,2.5));
#1755=CARTESIAN_POINT('',(10.9891557304754,-50.9707888810232,2.5));
#1756=CARTESIAN_POINT('Origin',(19.2391557304754,-50.9707888810232,2.5));
#1757=CARTESIAN_POINT('Origin',(36.7391557304754,-50.9707888810232,2.5));
#1758=CARTESIAN_POINT('',(28.4891557304754,-50.9707888810232,2.5));
#1759=CARTESIAN_POINT('Origin',(36.7391557304754,-50.9707888810232,2.5));
#1760=CARTESIAN_POINT('Origin',(19.2391557304754,-31.9707888810231,2.5));
#1761=CARTESIAN_POINT('',(10.9891557304754,-31.9707888810231,2.5));
#1762=CARTESIAN_POINT('Origin',(19.2391557304754,-31.9707888810231,2.5));
#1763=CARTESIAN_POINT('Origin',(-33.2608442695246,-12.9707888810232,2.5));
#1764=CARTESIAN_POINT('',(-41.5108442695246,-12.9707888810232,2.5));
#1765=CARTESIAN_POINT('Origin',(-33.2608442695246,-12.9707888810232,2.5));
#1766=CARTESIAN_POINT('Origin',(36.7391557304754,-12.9707888810232,2.5));
#1767=CARTESIAN_POINT('',(28.4891557304754,-12.9707888810232,2.5));
#1768=CARTESIAN_POINT('Origin',(36.7391557304754,-12.9707888810232,2.5));
#1769=CARTESIAN_POINT('Origin',(-15.7608442695246,6.02921111897685,2.5));
#1770=CARTESIAN_POINT('',(-24.0108442695246,6.02921111897685,2.5));
#1771=CARTESIAN_POINT('Origin',(-15.7608442695246,6.02921111897685,2.5));
#1772=CARTESIAN_POINT('Origin',(1.7391557304754,25.0292111189768,2.5));
#1773=CARTESIAN_POINT('',(-6.5108442695246,25.0292111189768,2.5));
#1774=CARTESIAN_POINT('Origin',(1.7391557304754,25.0292111189768,2.5));
#1775=CARTESIAN_POINT('Origin',(36.7391557304754,63.0292111189769,2.5));
#1776=CARTESIAN_POINT('',(28.4891557304754,63.0292111189769,2.5));
#1777=CARTESIAN_POINT('Origin',(36.7391557304754,63.0292111189769,2.5));
#1778=CARTESIAN_POINT('Origin',(1.7391557304754,63.0292111189769,2.5));
#1779=CARTESIAN_POINT('',(-6.5108442695246,63.0292111189769,2.5));
#1780=CARTESIAN_POINT('Origin',(1.7391557304754,63.0292111189769,2.5));
#1781=CARTESIAN_POINT('Origin',(-15.7608442695246,63.0292111189769,2.5));
#1782=CARTESIAN_POINT('',(-24.0108442695246,63.0292111189769,2.5));
#1783=CARTESIAN_POINT('Origin',(-15.7608442695246,63.0292111189769,2.5));
#1784=CARTESIAN_POINT('Origin',(-33.2608442695246,63.0292111189769,2.5));
#1785=CARTESIAN_POINT('',(-41.5108442695246,63.0292111189769,2.5));
#1786=CARTESIAN_POINT('Origin',(-33.2608442695246,63.0292111189769,2.5));
#1787=CARTESIAN_POINT('Origin',(19.2391557304754,63.0292111189769,2.5));
#1788=CARTESIAN_POINT('',(10.9891557304754,63.0292111189769,2.5));
#1789=CARTESIAN_POINT('Origin',(19.2391557304754,63.0292111189769,2.5));
#1790=CARTESIAN_POINT('Origin',(36.7391557304754,25.0292111189768,2.5));
#1791=CARTESIAN_POINT('',(28.4891557304754,25.0292111189768,2.5));
#1792=CARTESIAN_POINT('Origin',(36.7391557304754,25.0292111189768,2.5));
#1793=CARTESIAN_POINT('Origin',(-33.2608442695246,25.0292111189768,2.5));
#1794=CARTESIAN_POINT('',(-41.5108442695246,25.0292111189768,2.5));
#1795=CARTESIAN_POINT('Origin',(-33.2608442695246,25.0292111189768,2.5));
#1796=CARTESIAN_POINT('Origin',(36.7391557304754,6.02921111897685,2.5));
#1797=CARTESIAN_POINT('',(28.4891557304754,6.02921111897685,2.5));
#1798=CARTESIAN_POINT('Origin',(36.7391557304754,6.02921111897685,2.5));
#1799=CARTESIAN_POINT('Origin',(1.7391557304754,-12.9707888810232,2.5));
#1800=CARTESIAN_POINT('',(-6.5108442695246,-12.9707888810232,2.5));
#1801=CARTESIAN_POINT('Origin',(1.7391557304754,-12.9707888810232,2.5));
#1802=CARTESIAN_POINT('Origin',(-15.7608442695246,-31.9707888810231,2.5));
#1803=CARTESIAN_POINT('',(-24.0108442695246,-31.9707888810231,2.5));
#1804=CARTESIAN_POINT('Origin',(-15.7608442695246,-31.9707888810231,2.5));
#1805=CARTESIAN_POINT('Origin',(-15.7608442695246,-50.9707888810232,2.5));
#1806=CARTESIAN_POINT('',(-24.0108442695246,-50.9707888810232,2.5));
#1807=CARTESIAN_POINT('Origin',(-15.7608442695246,-50.9707888810232,2.5));
#1808=CARTESIAN_POINT('Origin',(1.7391557304754,-50.9707888810232,2.5));
#1809=CARTESIAN_POINT('',(-6.5108442695246,-50.9707888810232,2.5));
#1810=CARTESIAN_POINT('Origin',(1.7391557304754,-50.9707888810232,2.5));
#1811=CARTESIAN_POINT('Origin',(-33.2608442695246,-50.9707888810232,2.5));
#1812=CARTESIAN_POINT('',(-41.5108442695246,-50.9707888810232,2.5));
#1813=CARTESIAN_POINT('Origin',(-33.2608442695246,-50.9707888810232,2.5));
#1814=CARTESIAN_POINT('Origin',(-33.2608442695246,-31.9707888810231,2.5));
#1815=CARTESIAN_POINT('',(-41.5108442695246,-31.9707888810231,2.5));
#1816=CARTESIAN_POINT('Origin',(-33.2608442695246,-31.9707888810231,2.5));
#1817=CARTESIAN_POINT('Origin',(19.2391557304754,-12.9707888810232,2.5));
#1818=CARTESIAN_POINT('',(10.9891557304754,-12.9707888810232,2.5));
#1819=CARTESIAN_POINT('Origin',(19.2391557304754,-12.9707888810232,2.5));
#1820=CARTESIAN_POINT('Origin',(1.7391557304754,6.02921111897685,2.5));
#1821=CARTESIAN_POINT('',(-6.5108442695246,6.02921111897685,2.5));
#1822=CARTESIAN_POINT('Origin',(1.7391557304754,6.02921111897685,2.5));
#1823=CARTESIAN_POINT('Origin',(-15.7608442695246,25.0292111189768,2.5));
#1824=CARTESIAN_POINT('',(-24.0108442695246,25.0292111189768,2.5));
#1825=CARTESIAN_POINT('Origin',(-15.7608442695246,25.0292111189768,2.5));
#1826=CARTESIAN_POINT('Origin',(36.7391557304754,44.0292111189768,2.5));
#1827=CARTESIAN_POINT('',(28.4891557304754,44.0292111189768,2.5));
#1828=CARTESIAN_POINT('Origin',(36.7391557304754,44.0292111189768,2.5));
#1829=CARTESIAN_POINT('Origin',(1.7391557304754,44.0292111189768,2.5));
#1830=CARTESIAN_POINT('',(-6.5108442695246,44.0292111189768,2.5));
#1831=CARTESIAN_POINT('Origin',(1.7391557304754,44.0292111189768,2.5));
#1832=CARTESIAN_POINT('Origin',(-33.2608442695246,44.0292111189768,2.5));
#1833=CARTESIAN_POINT('',(-41.5108442695246,44.0292111189768,2.5));
#1834=CARTESIAN_POINT('Origin',(-33.2608442695246,44.0292111189768,2.5));
#1835=CARTESIAN_POINT('Origin',(19.2391557304754,-12.9707888810232,0.));
#1836=CARTESIAN_POINT('',(10.9891557304754,-12.9707888810232,0.));
#1837=CARTESIAN_POINT('Origin',(1.7391557304754,6.02921111897685,0.));
#1838=CARTESIAN_POINT('',(-6.5108442695246,6.02921111897685,0.));
#1839=CARTESIAN_POINT('Origin',(-33.2608442695246,63.0292111189769,0.));
#1840=CARTESIAN_POINT('',(-41.5108442695246,63.0292111189769,0.));
#1841=CARTESIAN_POINT('Origin',(1.7391557304754,-50.9707888810232,0.));
#1842=CARTESIAN_POINT('',(-6.5108442695246,-50.9707888810232,0.));
#1843=CARTESIAN_POINT('Origin',(1.7391557304754,25.0292111189768,0.));
#1844=CARTESIAN_POINT('',(-6.5108442695246,25.0292111189768,0.));
#1845=CARTESIAN_POINT('Origin',(-33.2608442695246,-12.9707888810232,0.));
#1846=CARTESIAN_POINT('',(-41.5108442695246,-12.9707888810232,0.));
#1847=CARTESIAN_POINT('Origin',(-33.2608442695246,44.0292111189768,0.));
#1848=CARTESIAN_POINT('',(-41.5108442695246,44.0292111189768,0.));
#1849=CARTESIAN_POINT('Origin',(36.7391557304754,-50.9707888810232,0.));
#1850=CARTESIAN_POINT('',(28.4891557304754,-50.9707888810232,0.));
#1851=CARTESIAN_POINT('Origin',(-15.7608442695246,25.0292111189768,0.));
#1852=CARTESIAN_POINT('',(-24.0108442695246,25.0292111189768,0.));
#1853=CARTESIAN_POINT('Origin',(1.7391557304754,-12.9707888810232,0.));
#1854=CARTESIAN_POINT('',(-6.5108442695246,-12.9707888810232,0.));
#1855=CARTESIAN_POINT('Origin',(-33.2608442695246,25.0292111189768,0.));
#1856=CARTESIAN_POINT('',(-41.5108442695246,25.0292111189768,0.));
#1857=CARTESIAN_POINT('Origin',(19.2391557304754,-50.9707888810232,0.));
#1858=CARTESIAN_POINT('',(10.9891557304754,-50.9707888810232,0.));
#1859=CARTESIAN_POINT('Origin',(-15.7608442695246,-12.9707888810232,0.));
#1860=CARTESIAN_POINT('',(-24.0108442695246,-12.9707888810232,0.));
#1861=CARTESIAN_POINT('Origin',(19.2391557304754,63.0292111189769,0.));
#1862=CARTESIAN_POINT('',(10.9891557304754,63.0292111189769,0.));
#1863=CARTESIAN_POINT('Origin',(-15.7608442695246,-50.9707888810232,0.));
#1864=CARTESIAN_POINT('',(-24.0108442695246,-50.9707888810232,0.));
#1865=CARTESIAN_POINT('Origin',(36.7391557304754,25.0292111189768,0.));
#1866=CARTESIAN_POINT('',(28.4891557304754,25.0292111189768,0.));
#1867=CARTESIAN_POINT('Origin',(36.7391557304754,-31.9707888810231,0.));
#1868=CARTESIAN_POINT('',(28.4891557304754,-31.9707888810231,0.));
#1869=CARTESIAN_POINT('Origin',(-15.7608442695246,44.0292111189768,0.));
#1870=CARTESIAN_POINT('',(-24.0108442695246,44.0292111189768,0.));
#1871=CARTESIAN_POINT('Origin',(19.2391557304754,44.0292111189768,0.));
#1872=CARTESIAN_POINT('',(10.9891557304754,44.0292111189768,0.));
#1873=CARTESIAN_POINT('Origin',(-33.2608442695246,-50.9707888810232,0.));
#1874=CARTESIAN_POINT('',(-41.5108442695246,-50.9707888810232,0.));
#1875=CARTESIAN_POINT('Origin',(1.7391557304754,44.0292111189768,0.));
#1876=CARTESIAN_POINT('',(-6.5108442695246,44.0292111189768,0.));
#1877=CARTESIAN_POINT('Origin',(-15.7608442695246,-31.9707888810231,0.));
#1878=CARTESIAN_POINT('',(-24.0108442695246,-31.9707888810231,0.));
#1879=CARTESIAN_POINT('Origin',(36.7391557304754,-12.9707888810232,0.));
#1880=CARTESIAN_POINT('',(28.4891557304754,-12.9707888810232,0.));
#1881=CARTESIAN_POINT('Origin',(-33.2608442695246,6.02921111897685,0.));
#1882=CARTESIAN_POINT('',(-41.5108442695246,6.02921111897685,0.));
#1883=CARTESIAN_POINT('Origin',(19.2391557304754,25.0292111189768,0.));
#1884=CARTESIAN_POINT('',(10.9891557304754,25.0292111189768,0.));
#1885=CARTESIAN_POINT('Origin',(1.7391557304754,-31.9707888810231,0.));
#1886=CARTESIAN_POINT('',(-6.5108442695246,-31.9707888810231,0.));
#1887=CARTESIAN_POINT('Origin',(36.7391557304754,63.0292111189769,0.));
#1888=CARTESIAN_POINT('',(28.4891557304754,63.0292111189769,0.));
#1889=CARTESIAN_POINT('Origin',(19.2391557304754,6.02921111897685,0.));
#1890=CARTESIAN_POINT('',(10.9891557304754,6.02921111897685,0.));
#1891=CARTESIAN_POINT('Origin',(19.2391557304754,-31.9707888810231,0.));
#1892=CARTESIAN_POINT('',(10.9891557304754,-31.9707888810231,0.));
#1893=CARTESIAN_POINT('Origin',(36.7391557304754,44.0292111189768,0.));
#1894=CARTESIAN_POINT('',(28.4891557304754,44.0292111189768,0.));
#1895=CARTESIAN_POINT('Origin',(-15.7608442695246,6.02921111897685,0.));
#1896=CARTESIAN_POINT('',(-24.0108442695246,6.02921111897685,0.));
#1897=CARTESIAN_POINT('Origin',(-33.2608442695246,-31.9707888810231,0.));
#1898=CARTESIAN_POINT('',(-41.5108442695246,-31.9707888810231,0.));
#1899=CARTESIAN_POINT('Origin',(36.7391557304754,6.02921111897685,0.));
#1900=CARTESIAN_POINT('',(28.4891557304754,6.02921111897685,0.));
#1901=CARTESIAN_POINT('Origin',(1.7391557304754,63.0292111189769,0.));
#1902=CARTESIAN_POINT('',(-6.5108442695246,63.0292111189769,0.));
#1903=CARTESIAN_POINT('Origin',(-15.7608442695246,63.0292111189769,0.));
#1904=CARTESIAN_POINT('',(-24.0108442695246,63.0292111189769,0.));
#1905=CARTESIAN_POINT('Origin',(50.,-62.75,0.));
#1906=CARTESIAN_POINT('',(-26.7344997391529,24.1051969748487,1.49999999999999));
#1907=UNCERTAINTY_MEASURE_WITH_UNIT(LENGTH_MEASURE(0.01),#1913,
'DISTANCE_ACCURACY_VALUE',
'Maximum model space distance between geometric entities at asserted c
onnectivities');
#1908=UNCERTAINTY_MEASURE_WITH_UNIT(LENGTH_MEASURE(0.01),#1913,
'DISTANCE_ACCURACY_VALUE',
'Maximum model space distance between geometric entities at asserted c
onnectivities');
#1909=UNCERTAINTY_MEASURE_WITH_UNIT(LENGTH_MEASURE(0.01),#1913,
'DISTANCE_ACCURACY_VALUE',
'Maximum model space distance between geometric entities at asserted c
onnectivities');
#1910=(
GEOMETRIC_REPRESENTATION_CONTEXT(3)
GLOBAL_UNCERTAINTY_ASSIGNED_CONTEXT((#1907))
GLOBAL_UNIT_ASSIGNED_CONTEXT((#1913,#1915,#1916))
REPRESENTATION_CONTEXT('','3D')
);
#1911=(
GEOMETRIC_REPRESENTATION_CONTEXT(3)
GLOBAL_UNCERTAINTY_ASSIGNED_CONTEXT((#1908))
GLOBAL_UNIT_ASSIGNED_CONTEXT((#1913,#1915,#1916))
REPRESENTATION_CONTEXT('','3D')
);
#1912=(
GEOMETRIC_REPRESENTATION_CONTEXT(3)
GLOBAL_UNCERTAINTY_ASSIGNED_CONTEXT((#1909))
GLOBAL_UNIT_ASSIGNED_CONTEXT((#1913,#1915,#1916))
REPRESENTATION_CONTEXT('','3D')
);
#1913=(
LENGTH_UNIT()
NAMED_UNIT(*)
SI_UNIT(.MILLI.,.METRE.)
);
#1914=(
LENGTH_UNIT()
NAMED_UNIT(*)
SI_UNIT($,.METRE.)
);
#1915=(
NAMED_UNIT(*)
PLANE_ANGLE_UNIT()
SI_UNIT($,.RADIAN.)
);
#1916=(
NAMED_UNIT(*)
SI_UNIT($,.STERADIAN.)
SOLID_ANGLE_UNIT()
);
#1917=SHAPE_DEFINITION_REPRESENTATION(#1919,#1922);
#1918=SHAPE_DEFINITION_REPRESENTATION(#1920,#1923);
#1919=PRODUCT_DEFINITION_SHAPE('',$,#1925);
#1920=PRODUCT_DEFINITION_SHAPE('',$,#1926);
#1921=PRODUCT_DEFINITION_SHAPE($,$,#14);
#1922=SHAPE_REPRESENTATION('',(#1075,#1235),#1910);
#1923=SHAPE_REPRESENTATION('',(#1076),#1911);
#1924=PRODUCT_DEFINITION_CONTEXT('part definition',#1932,'design');
#1925=PRODUCT_DEFINITION('2026-04-06-15-48-40-513','(Unsaved)',#1927,#1924);
#1926=PRODUCT_DEFINITION('2026-05-14-15-55-26-469',
'4ml well plate for exisiting bed plate - latest v1',#1928,#1924);
#1927=PRODUCT_DEFINITION_FORMATION('',$,#1934);
#1928=PRODUCT_DEFINITION_FORMATION('',$,#1935);
#1929=PRODUCT_RELATED_PRODUCT_CATEGORY('(Unsaved)','(Unsaved)',(#1934));
#1930=PRODUCT_RELATED_PRODUCT_CATEGORY(
'4ml well plate for exisiting bed plate - latest v1',
'4ml well plate for exisiting bed plate - latest v1',(#1935));
#1931=APPLICATION_PROTOCOL_DEFINITION('international standard',
'automotive_design',2009,#1932);
#1932=APPLICATION_CONTEXT(
'Core Data for Automotive Mechanical Design Process');
#1933=PRODUCT_CONTEXT('part definition',#1932,'mechanical');
#1934=PRODUCT('2026-04-06-15-48-40-513','(Unsaved)',$,(#1933));
#1935=PRODUCT('2026-05-14-15-55-26-469',
'4ml well plate for exisiting bed plate - latest v1',$,(#1933));
#1936=PRESENTATION_STYLE_ASSIGNMENT((#1938));
#1937=PRESENTATION_STYLE_ASSIGNMENT((#1939));
#1938=SURFACE_STYLE_USAGE(.BOTH.,#1940);
#1939=SURFACE_STYLE_USAGE(.BOTH.,#1941);
#1940=SURFACE_SIDE_STYLE('',(#1942));
#1941=SURFACE_SIDE_STYLE('',(#1943));
#1942=SURFACE_STYLE_FILL_AREA(#1944);
#1943=SURFACE_STYLE_FILL_AREA(#1945);
#1944=FILL_AREA_STYLE('Steel - Satin',(#1946));
#1945=FILL_AREA_STYLE('Opaque(160,160,160)',(#1947));
#1946=FILL_AREA_STYLE_COLOUR('Steel - Satin',#1948);
#1947=FILL_AREA_STYLE_COLOUR('Opaque(160,160,160)',#1949);
#1948=COLOUR_RGB('Steel - Satin',0.627450980392157,0.627450980392157,0.627450980392157);
#1949=COLOUR_RGB('Opaque(160,160,160)',0.627450980392157,0.627450980392157,
0.627450980392157);
ENDSEC;
END-ISO-10303-21;
