ISO-10303-21;
HEADER;
/* Generated by software containing ST-Developer
 * from STEP Tools, Inc. (www.steptools.com) 
 */

FILE_DESCRIPTION(
/* description */ (''),
/* implementation_level */ '2;1');

FILE_NAME(
/* name */ '96 well plate holder.step',
/* time_stamp */ '2026-09-15T02:58:17+08:00',
/* author */ (''),
/* organization */ (''),
/* preprocessor_version */ 'ST-DEVELOPER v20.1',
/* originating_system */ 'Autodesk Translation Framework v15.8.0.0',
/* authorisation */ '');

FILE_SCHEMA (('AUTOMOTIVE_DESIGN { 1 0 10303 214 3 1 1 }'));
ENDSEC;

DATA;
#10=MECHANICAL_DESIGN_GEOMETRIC_PRESENTATION_REPRESENTATION('',(#13),#579);
#11=SHAPE_REPRESENTATION_RELATIONSHIP('SRR','None',#586,#12);
#12=ADVANCED_BREP_SHAPE_REPRESENTATION('',(#14),#578);
#13=STYLED_ITEM('',(#596),#14);
#14=MANIFOLD_SOLID_BREP('Body1',#359);
#15=FACE_OUTER_BOUND('',#33,.T.);
#16=FACE_OUTER_BOUND('',#34,.T.);
#17=FACE_OUTER_BOUND('',#35,.T.);
#18=FACE_OUTER_BOUND('',#36,.T.);
#19=FACE_OUTER_BOUND('',#37,.T.);
#20=FACE_OUTER_BOUND('',#38,.T.);
#21=FACE_OUTER_BOUND('',#39,.T.);
#22=FACE_OUTER_BOUND('',#40,.T.);
#23=FACE_OUTER_BOUND('',#41,.T.);
#24=FACE_OUTER_BOUND('',#42,.T.);
#25=FACE_OUTER_BOUND('',#43,.T.);
#26=FACE_OUTER_BOUND('',#44,.T.);
#27=FACE_OUTER_BOUND('',#45,.T.);
#28=FACE_OUTER_BOUND('',#46,.T.);
#29=FACE_OUTER_BOUND('',#47,.T.);
#30=FACE_OUTER_BOUND('',#48,.T.);
#31=FACE_OUTER_BOUND('',#49,.T.);
#32=FACE_OUTER_BOUND('',#50,.T.);
#33=EDGE_LOOP('',(#227,#228,#229,#230));
#34=EDGE_LOOP('',(#231,#232,#233,#234));
#35=EDGE_LOOP('',(#235,#236,#237,#238));
#36=EDGE_LOOP('',(#239,#240,#241,#242));
#37=EDGE_LOOP('',(#243,#244,#245,#246));
#38=EDGE_LOOP('',(#247,#248,#249,#250));
#39=EDGE_LOOP('',(#251,#252,#253,#254,#255,#256,#257,#258));
#40=EDGE_LOOP('',(#259,#260,#261,#262,#263,#264,#265,#266));
#41=EDGE_LOOP('',(#267,#268,#269,#270));
#42=EDGE_LOOP('',(#271,#272,#273,#274));
#43=EDGE_LOOP('',(#275,#276,#277,#278));
#44=EDGE_LOOP('',(#279,#280,#281,#282));
#45=EDGE_LOOP('',(#283,#284,#285,#286,#287,#288,#289,#290,#291,#292,#293,
#294));
#46=EDGE_LOOP('',(#295,#296,#297,#298));
#47=EDGE_LOOP('',(#299,#300,#301,#302));
#48=EDGE_LOOP('',(#303,#304,#305,#306,#307,#308,#309,#310));
#49=EDGE_LOOP('',(#311,#312,#313,#314));
#50=EDGE_LOOP('',(#315,#316,#317,#318,#319,#320,#321,#322));
#51=LINE('',#481,#99);
#52=LINE('',#483,#100);
#53=LINE('',#485,#101);
#54=LINE('',#486,#102);
#55=LINE('',#490,#103);
#56=LINE('',#492,#104);
#57=LINE('',#494,#105);
#58=LINE('',#495,#106);
#59=LINE('',#499,#107);
#60=LINE('',#501,#108);
#61=LINE('',#503,#109);
#62=LINE('',#504,#110);
#63=LINE('',#508,#111);
#64=LINE('',#510,#112);
#65=LINE('',#512,#113);
#66=LINE('',#513,#114);
#67=LINE('',#516,#115);
#68=LINE('',#518,#116);
#69=LINE('',#519,#117);
#70=LINE('',#522,#118);
#71=LINE('',#524,#119);
#72=LINE('',#525,#120);
#73=LINE('',#528,#121);
#74=LINE('',#530,#122);
#75=LINE('',#531,#123);
#76=LINE('',#533,#124);
#77=LINE('',#534,#125);
#78=LINE('',#537,#126);
#79=LINE('',#538,#127);
#80=LINE('',#540,#128);
#81=LINE('',#542,#129);
#82=LINE('',#543,#130);
#83=LINE('',#546,#131);
#84=LINE('',#547,#132);
#85=LINE('',#550,#133);
#86=LINE('',#551,#134);
#87=LINE('',#553,#135);
#88=LINE('',#555,#136);
#89=LINE('',#557,#137);
#90=LINE('',#558,#138);
#91=LINE('',#562,#139);
#92=LINE('',#564,#140);
#93=LINE('',#566,#141);
#94=LINE('',#567,#142);
#95=LINE('',#569,#143);
#96=LINE('',#570,#144);
#97=LINE('',#572,#145);
#98=LINE('',#574,#146);
#99=VECTOR('',#395,10.);
#100=VECTOR('',#396,10.);
#101=VECTOR('',#397,10.);
#102=VECTOR('',#398,10.);
#103=VECTOR('',#401,10.);
#104=VECTOR('',#402,10.);
#105=VECTOR('',#403,10.);
#106=VECTOR('',#404,10.);
#107=VECTOR('',#407,10.);
#108=VECTOR('',#408,10.);
#109=VECTOR('',#409,10.);
#110=VECTOR('',#410,10.);
#111=VECTOR('',#413,10.);
#112=VECTOR('',#414,10.);
#113=VECTOR('',#415,10.);
#114=VECTOR('',#416,10.);
#115=VECTOR('',#419,10.);
#116=VECTOR('',#420,10.);
#117=VECTOR('',#421,10.);
#118=VECTOR('',#424,10.);
#119=VECTOR('',#425,10.);
#120=VECTOR('',#426,10.);
#121=VECTOR('',#429,10.);
#122=VECTOR('',#430,10.);
#123=VECTOR('',#431,10.);
#124=VECTOR('',#432,10.);
#125=VECTOR('',#433,10.);
#126=VECTOR('',#436,10.);
#127=VECTOR('',#437,10.);
#128=VECTOR('',#438,10.);
#129=VECTOR('',#439,10.);
#130=VECTOR('',#440,10.);
#131=VECTOR('',#443,10.);
#132=VECTOR('',#444,10.);
#133=VECTOR('',#447,10.);
#134=VECTOR('',#448,10.);
#135=VECTOR('',#451,10.);
#136=VECTOR('',#454,10.);
#137=VECTOR('',#457,10.);
#138=VECTOR('',#458,10.);
#139=VECTOR('',#461,10.);
#140=VECTOR('',#462,10.);
#141=VECTOR('',#463,10.);
#142=VECTOR('',#464,10.);
#143=VECTOR('',#467,10.);
#144=VECTOR('',#468,10.);
#145=VECTOR('',#471,10.);
#146=VECTOR('',#474,10.);
#147=VERTEX_POINT('',#479);
#148=VERTEX_POINT('',#480);
#149=VERTEX_POINT('',#482);
#150=VERTEX_POINT('',#484);
#151=VERTEX_POINT('',#488);
#152=VERTEX_POINT('',#489);
#153=VERTEX_POINT('',#491);
#154=VERTEX_POINT('',#493);
#155=VERTEX_POINT('',#497);
#156=VERTEX_POINT('',#498);
#157=VERTEX_POINT('',#500);
#158=VERTEX_POINT('',#502);
#159=VERTEX_POINT('',#506);
#160=VERTEX_POINT('',#507);
#161=VERTEX_POINT('',#509);
#162=VERTEX_POINT('',#511);
#163=VERTEX_POINT('',#515);
#164=VERTEX_POINT('',#517);
#165=VERTEX_POINT('',#521);
#166=VERTEX_POINT('',#523);
#167=VERTEX_POINT('',#527);
#168=VERTEX_POINT('',#529);
#169=VERTEX_POINT('',#532);
#170=VERTEX_POINT('',#536);
#171=VERTEX_POINT('',#539);
#172=VERTEX_POINT('',#541);
#173=VERTEX_POINT('',#545);
#174=VERTEX_POINT('',#549);
#175=VERTEX_POINT('',#560);
#176=VERTEX_POINT('',#561);
#177=VERTEX_POINT('',#563);
#178=VERTEX_POINT('',#565);
#179=EDGE_CURVE('',#147,#148,#51,.T.);
#180=EDGE_CURVE('',#149,#147,#52,.T.);
#181=EDGE_CURVE('',#149,#150,#53,.T.);
#182=EDGE_CURVE('',#148,#150,#54,.T.);
#183=EDGE_CURVE('',#151,#152,#55,.T.);
#184=EDGE_CURVE('',#153,#151,#56,.T.);
#185=EDGE_CURVE('',#153,#154,#57,.T.);
#186=EDGE_CURVE('',#152,#154,#58,.T.);
#187=EDGE_CURVE('',#155,#156,#59,.T.);
#188=EDGE_CURVE('',#157,#155,#60,.T.);
#189=EDGE_CURVE('',#157,#158,#61,.T.);
#190=EDGE_CURVE('',#156,#158,#62,.T.);
#191=EDGE_CURVE('',#159,#160,#63,.T.);
#192=EDGE_CURVE('',#161,#159,#64,.T.);
#193=EDGE_CURVE('',#161,#162,#65,.T.);
#194=EDGE_CURVE('',#160,#162,#66,.T.);
#195=EDGE_CURVE('',#163,#147,#67,.T.);
#196=EDGE_CURVE('',#163,#164,#68,.T.);
#197=EDGE_CURVE('',#164,#149,#69,.T.);
#198=EDGE_CURVE('',#154,#165,#70,.T.);
#199=EDGE_CURVE('',#166,#165,#71,.T.);
#200=EDGE_CURVE('',#152,#166,#72,.T.);
#201=EDGE_CURVE('',#148,#167,#73,.T.);
#202=EDGE_CURVE('',#167,#168,#74,.T.);
#203=EDGE_CURVE('',#168,#155,#75,.T.);
#204=EDGE_CURVE('',#156,#169,#76,.T.);
#205=EDGE_CURVE('',#169,#163,#77,.T.);
#206=EDGE_CURVE('',#166,#170,#78,.T.);
#207=EDGE_CURVE('',#170,#159,#79,.T.);
#208=EDGE_CURVE('',#160,#171,#80,.T.);
#209=EDGE_CURVE('',#171,#172,#81,.T.);
#210=EDGE_CURVE('',#172,#151,#82,.T.);
#211=EDGE_CURVE('',#170,#173,#83,.T.);
#212=EDGE_CURVE('',#173,#161,#84,.T.);
#213=EDGE_CURVE('',#158,#174,#85,.T.);
#214=EDGE_CURVE('',#169,#174,#86,.T.);
#215=EDGE_CURVE('',#174,#164,#87,.T.);
#216=EDGE_CURVE('',#165,#173,#88,.T.);
#217=EDGE_CURVE('',#162,#157,#89,.T.);
#218=EDGE_CURVE('',#150,#153,#90,.T.);
#219=EDGE_CURVE('',#175,#176,#91,.T.);
#220=EDGE_CURVE('',#176,#177,#92,.T.);
#221=EDGE_CURVE('',#177,#178,#93,.T.);
#222=EDGE_CURVE('',#178,#175,#94,.T.);
#223=EDGE_CURVE('',#167,#177,#95,.T.);
#224=EDGE_CURVE('',#168,#176,#96,.T.);
#225=EDGE_CURVE('',#172,#178,#97,.T.);
#226=EDGE_CURVE('',#171,#175,#98,.T.);
#227=ORIENTED_EDGE('',*,*,#179,.F.);
#228=ORIENTED_EDGE('',*,*,#180,.F.);
#229=ORIENTED_EDGE('',*,*,#181,.T.);
#230=ORIENTED_EDGE('',*,*,#182,.F.);
#231=ORIENTED_EDGE('',*,*,#183,.F.);
#232=ORIENTED_EDGE('',*,*,#184,.F.);
#233=ORIENTED_EDGE('',*,*,#185,.T.);
#234=ORIENTED_EDGE('',*,*,#186,.F.);
#235=ORIENTED_EDGE('',*,*,#187,.F.);
#236=ORIENTED_EDGE('',*,*,#188,.F.);
#237=ORIENTED_EDGE('',*,*,#189,.T.);
#238=ORIENTED_EDGE('',*,*,#190,.F.);
#239=ORIENTED_EDGE('',*,*,#191,.F.);
#240=ORIENTED_EDGE('',*,*,#192,.F.);
#241=ORIENTED_EDGE('',*,*,#193,.T.);
#242=ORIENTED_EDGE('',*,*,#194,.F.);
#243=ORIENTED_EDGE('',*,*,#180,.T.);
#244=ORIENTED_EDGE('',*,*,#195,.F.);
#245=ORIENTED_EDGE('',*,*,#196,.T.);
#246=ORIENTED_EDGE('',*,*,#197,.T.);
#247=ORIENTED_EDGE('',*,*,#186,.T.);
#248=ORIENTED_EDGE('',*,*,#198,.T.);
#249=ORIENTED_EDGE('',*,*,#199,.F.);
#250=ORIENTED_EDGE('',*,*,#200,.F.);
#251=ORIENTED_EDGE('',*,*,#179,.T.);
#252=ORIENTED_EDGE('',*,*,#201,.T.);
#253=ORIENTED_EDGE('',*,*,#202,.T.);
#254=ORIENTED_EDGE('',*,*,#203,.T.);
#255=ORIENTED_EDGE('',*,*,#187,.T.);
#256=ORIENTED_EDGE('',*,*,#204,.T.);
#257=ORIENTED_EDGE('',*,*,#205,.T.);
#258=ORIENTED_EDGE('',*,*,#195,.T.);
#259=ORIENTED_EDGE('',*,*,#183,.T.);
#260=ORIENTED_EDGE('',*,*,#200,.T.);
#261=ORIENTED_EDGE('',*,*,#206,.T.);
#262=ORIENTED_EDGE('',*,*,#207,.T.);
#263=ORIENTED_EDGE('',*,*,#191,.T.);
#264=ORIENTED_EDGE('',*,*,#208,.T.);
#265=ORIENTED_EDGE('',*,*,#209,.T.);
#266=ORIENTED_EDGE('',*,*,#210,.T.);
#267=ORIENTED_EDGE('',*,*,#192,.T.);
#268=ORIENTED_EDGE('',*,*,#207,.F.);
#269=ORIENTED_EDGE('',*,*,#211,.T.);
#270=ORIENTED_EDGE('',*,*,#212,.T.);
#271=ORIENTED_EDGE('',*,*,#190,.T.);
#272=ORIENTED_EDGE('',*,*,#213,.T.);
#273=ORIENTED_EDGE('',*,*,#214,.F.);
#274=ORIENTED_EDGE('',*,*,#204,.F.);
#275=ORIENTED_EDGE('',*,*,#205,.F.);
#276=ORIENTED_EDGE('',*,*,#214,.T.);
#277=ORIENTED_EDGE('',*,*,#215,.T.);
#278=ORIENTED_EDGE('',*,*,#196,.F.);
#279=ORIENTED_EDGE('',*,*,#206,.F.);
#280=ORIENTED_EDGE('',*,*,#199,.T.);
#281=ORIENTED_EDGE('',*,*,#216,.T.);
#282=ORIENTED_EDGE('',*,*,#211,.F.);
#283=ORIENTED_EDGE('',*,*,#197,.F.);
#284=ORIENTED_EDGE('',*,*,#215,.F.);
#285=ORIENTED_EDGE('',*,*,#213,.F.);
#286=ORIENTED_EDGE('',*,*,#189,.F.);
#287=ORIENTED_EDGE('',*,*,#217,.F.);
#288=ORIENTED_EDGE('',*,*,#193,.F.);
#289=ORIENTED_EDGE('',*,*,#212,.F.);
#290=ORIENTED_EDGE('',*,*,#216,.F.);
#291=ORIENTED_EDGE('',*,*,#198,.F.);
#292=ORIENTED_EDGE('',*,*,#185,.F.);
#293=ORIENTED_EDGE('',*,*,#218,.F.);
#294=ORIENTED_EDGE('',*,*,#181,.F.);
#295=ORIENTED_EDGE('',*,*,#219,.T.);
#296=ORIENTED_EDGE('',*,*,#220,.T.);
#297=ORIENTED_EDGE('',*,*,#221,.T.);
#298=ORIENTED_EDGE('',*,*,#222,.T.);
#299=ORIENTED_EDGE('',*,*,#223,.T.);
#300=ORIENTED_EDGE('',*,*,#220,.F.);
#301=ORIENTED_EDGE('',*,*,#224,.F.);
#302=ORIENTED_EDGE('',*,*,#202,.F.);
#303=ORIENTED_EDGE('',*,*,#184,.T.);
#304=ORIENTED_EDGE('',*,*,#210,.F.);
#305=ORIENTED_EDGE('',*,*,#225,.T.);
#306=ORIENTED_EDGE('',*,*,#221,.F.);
#307=ORIENTED_EDGE('',*,*,#223,.F.);
#308=ORIENTED_EDGE('',*,*,#201,.F.);
#309=ORIENTED_EDGE('',*,*,#182,.T.);
#310=ORIENTED_EDGE('',*,*,#218,.T.);
#311=ORIENTED_EDGE('',*,*,#226,.T.);
#312=ORIENTED_EDGE('',*,*,#222,.F.);
#313=ORIENTED_EDGE('',*,*,#225,.F.);
#314=ORIENTED_EDGE('',*,*,#209,.F.);
#315=ORIENTED_EDGE('',*,*,#188,.T.);
#316=ORIENTED_EDGE('',*,*,#203,.F.);
#317=ORIENTED_EDGE('',*,*,#224,.T.);
#318=ORIENTED_EDGE('',*,*,#219,.F.);
#319=ORIENTED_EDGE('',*,*,#226,.F.);
#320=ORIENTED_EDGE('',*,*,#208,.F.);
#321=ORIENTED_EDGE('',*,*,#194,.T.);
#322=ORIENTED_EDGE('',*,*,#217,.T.);
#323=PLANE('',#373);
#324=PLANE('',#374);
#325=PLANE('',#375);
#326=PLANE('',#376);
#327=PLANE('',#377);
#328=PLANE('',#378);
#329=PLANE('',#379);
#330=PLANE('',#380);
#331=PLANE('',#381);
#332=PLANE('',#382);
#333=PLANE('',#383);
#334=PLANE('',#384);
#335=PLANE('',#385);
#336=PLANE('',#386);
#337=PLANE('',#387);
#338=PLANE('',#388);
#339=PLANE('',#389);
#340=PLANE('',#390);
#341=ADVANCED_FACE('',(#15),#323,.F.);
#342=ADVANCED_FACE('',(#16),#324,.F.);
#343=ADVANCED_FACE('',(#17),#325,.F.);
#344=ADVANCED_FACE('',(#18),#326,.F.);
#345=ADVANCED_FACE('',(#19),#327,.F.);
#346=ADVANCED_FACE('',(#20),#328,.F.);
#347=ADVANCED_FACE('',(#21),#329,.T.);
#348=ADVANCED_FACE('',(#22),#330,.T.);
#349=ADVANCED_FACE('',(#23),#331,.F.);
#350=ADVANCED_FACE('',(#24),#332,.F.);
#351=ADVANCED_FACE('',(#25),#333,.F.);
#352=ADVANCED_FACE('',(#26),#334,.F.);
#353=ADVANCED_FACE('',(#27),#335,.F.);
#354=ADVANCED_FACE('',(#28),#336,.F.);
#355=ADVANCED_FACE('',(#29),#337,.F.);
#356=ADVANCED_FACE('',(#30),#338,.F.);
#357=ADVANCED_FACE('',(#31),#339,.F.);
#358=ADVANCED_FACE('',(#32),#340,.F.);
#359=CLOSED_SHELL('',(#341,#342,#343,#344,#345,#346,#347,#348,#349,#350,
#351,#352,#353,#354,#355,#356,#357,#358));
#360=DERIVED_UNIT_ELEMENT(#362,1.);
#361=DERIVED_UNIT_ELEMENT(#581,-3.);
#362=(
MASS_UNIT()
NAMED_UNIT(*)
SI_UNIT(.KILO.,.GRAM.)
);
#363=DERIVED_UNIT((#360,#361));
#364=MEASURE_REPRESENTATION_ITEM('density measure',
POSITIVE_RATIO_MEASURE(7850.),#363);
#365=PROPERTY_DEFINITION_REPRESENTATION(#370,#367);
#366=PROPERTY_DEFINITION_REPRESENTATION(#371,#368);
#367=REPRESENTATION('material name',(#369),#578);
#368=REPRESENTATION('density',(#364),#578);
#369=DESCRIPTIVE_REPRESENTATION_ITEM('Steel','Steel');
#370=PROPERTY_DEFINITION('material property','material name',#588);
#371=PROPERTY_DEFINITION('material property','density of part',#588);
#372=AXIS2_PLACEMENT_3D('',#477,#391,#392);
#373=AXIS2_PLACEMENT_3D('',#478,#393,#394);
#374=AXIS2_PLACEMENT_3D('',#487,#399,#400);
#375=AXIS2_PLACEMENT_3D('',#496,#405,#406);
#376=AXIS2_PLACEMENT_3D('',#505,#411,#412);
#377=AXIS2_PLACEMENT_3D('',#514,#417,#418);
#378=AXIS2_PLACEMENT_3D('',#520,#422,#423);
#379=AXIS2_PLACEMENT_3D('',#526,#427,#428);
#380=AXIS2_PLACEMENT_3D('',#535,#434,#435);
#381=AXIS2_PLACEMENT_3D('',#544,#441,#442);
#382=AXIS2_PLACEMENT_3D('',#548,#445,#446);
#383=AXIS2_PLACEMENT_3D('',#552,#449,#450);
#384=AXIS2_PLACEMENT_3D('',#554,#452,#453);
#385=AXIS2_PLACEMENT_3D('',#556,#455,#456);
#386=AXIS2_PLACEMENT_3D('',#559,#459,#460);
#387=AXIS2_PLACEMENT_3D('',#568,#465,#466);
#388=AXIS2_PLACEMENT_3D('',#571,#469,#470);
#389=AXIS2_PLACEMENT_3D('',#573,#472,#473);
#390=AXIS2_PLACEMENT_3D('',#575,#475,#476);
#391=DIRECTION('axis',(0.,0.,1.));
#392=DIRECTION('refdir',(1.,0.,0.));
#393=DIRECTION('center_axis',(-1.,0.,0.));
#394=DIRECTION('ref_axis',(0.,1.,0.));
#395=DIRECTION('',(0.,1.,0.));
#396=DIRECTION('',(0.,0.,1.));
#397=DIRECTION('',(0.,1.,0.));
#398=DIRECTION('',(0.,0.,-1.));
#399=DIRECTION('center_axis',(1.,0.,0.));
#400=DIRECTION('ref_axis',(0.,-1.,0.));
#401=DIRECTION('',(0.,-1.,0.));
#402=DIRECTION('',(0.,0.,1.));
#403=DIRECTION('',(0.,-1.,0.));
#404=DIRECTION('',(0.,0.,-1.));
#405=DIRECTION('center_axis',(-1.,0.,0.));
#406=DIRECTION('ref_axis',(0.,1.,0.));
#407=DIRECTION('',(0.,1.,0.));
#408=DIRECTION('',(0.,0.,1.));
#409=DIRECTION('',(0.,1.,0.));
#410=DIRECTION('',(0.,0.,-1.));
#411=DIRECTION('center_axis',(1.,0.,0.));
#412=DIRECTION('ref_axis',(0.,-1.,0.));
#413=DIRECTION('',(0.,-1.,0.));
#414=DIRECTION('',(0.,0.,1.));
#415=DIRECTION('',(0.,-1.,0.));
#416=DIRECTION('',(0.,0.,-1.));
#417=DIRECTION('center_axis',(0.,1.,0.));
#418=DIRECTION('ref_axis',(1.,0.,0.));
#419=DIRECTION('',(1.,0.,0.));
#420=DIRECTION('',(0.,0.,-1.));
#421=DIRECTION('',(1.,0.,0.));
#422=DIRECTION('center_axis',(0.,1.,0.));
#423=DIRECTION('ref_axis',(1.,0.,0.));
#424=DIRECTION('',(1.,0.,0.));
#425=DIRECTION('',(0.,0.,-1.));
#426=DIRECTION('',(1.,0.,0.));
#427=DIRECTION('center_axis',(0.,0.,1.));
#428=DIRECTION('ref_axis',(0.,-1.,0.));
#429=DIRECTION('',(-1.,0.,0.));
#430=DIRECTION('',(0.,-1.,0.));
#431=DIRECTION('',(1.,0.,0.));
#432=DIRECTION('',(-1.,-1.03276560430247E-16,0.));
#433=DIRECTION('',(-1.04083408558608E-16,1.,0.));
#434=DIRECTION('center_axis',(0.,0.,1.));
#435=DIRECTION('ref_axis',(0.,-1.,0.));
#436=DIRECTION('',(1.38777878078145E-16,-1.,0.));
#437=DIRECTION('',(-1.,-1.03276560430247E-16,0.));
#438=DIRECTION('',(1.,0.,0.));
#439=DIRECTION('',(0.,1.,0.));
#440=DIRECTION('',(-1.,0.,0.));
#441=DIRECTION('center_axis',(1.03276560430247E-16,-1.,0.));
#442=DIRECTION('ref_axis',(-1.,-1.03276560430247E-16,0.));
#443=DIRECTION('',(0.,0.,-1.));
#444=DIRECTION('',(-1.,-1.03276560430247E-16,0.));
#445=DIRECTION('center_axis',(1.03276560430247E-16,-1.,0.));
#446=DIRECTION('ref_axis',(-1.,-1.03276560430247E-16,0.));
#447=DIRECTION('',(-1.,-1.03276560430247E-16,0.));
#448=DIRECTION('',(0.,0.,-1.));
#449=DIRECTION('center_axis',(-1.,-1.04083408558608E-16,0.));
#450=DIRECTION('ref_axis',(-1.04083408558608E-16,1.,0.));
#451=DIRECTION('',(-1.04083408558608E-16,1.,0.));
#452=DIRECTION('center_axis',(1.,1.38777878078145E-16,0.));
#453=DIRECTION('ref_axis',(1.38777878078145E-16,-1.,0.));
#454=DIRECTION('',(1.38777878078145E-16,-1.,0.));
#455=DIRECTION('center_axis',(0.,0.,-1.));
#456=DIRECTION('ref_axis',(-1.,0.,0.));
#457=DIRECTION('',(-1.,0.,0.));
#458=DIRECTION('',(1.,0.,0.));
#459=DIRECTION('center_axis',(0.,0.,1.));
#460=DIRECTION('ref_axis',(0.,-1.,0.));
#461=DIRECTION('',(-1.,0.,0.));
#462=DIRECTION('',(0.,1.,0.));
#463=DIRECTION('',(1.,0.,0.));
#464=DIRECTION('',(0.,-1.,0.));
#465=DIRECTION('center_axis',(1.,0.,0.));
#466=DIRECTION('ref_axis',(0.,0.,1.));
#467=DIRECTION('',(0.,0.,-1.));
#468=DIRECTION('',(0.,0.,-1.));
#469=DIRECTION('center_axis',(0.,-1.,0.));
#470=DIRECTION('ref_axis',(0.,0.,-1.));
#471=DIRECTION('',(0.,0.,-1.));
#472=DIRECTION('center_axis',(-1.,0.,0.));
#473=DIRECTION('ref_axis',(0.,0.,-1.));
#474=DIRECTION('',(0.,0.,-1.));
#475=DIRECTION('center_axis',(0.,1.,0.));
#476=DIRECTION('ref_axis',(0.,0.,1.));
#477=CARTESIAN_POINT('',(0.,0.,0.));
#478=CARTESIAN_POINT('Origin',(22.1060578208863,61.4879231861843,30.));
#479=CARTESIAN_POINT('',(22.1060578208863,61.4879231861843,30.));
#480=CARTESIAN_POINT('',(22.1060578208863,66.4879231861843,30.));
#481=CARTESIAN_POINT('',(22.1060578208863,29.4879231861843,30.));
#482=CARTESIAN_POINT('',(22.1060578208863,61.4879231861843,20.));
#483=CARTESIAN_POINT('',(22.1060578208863,61.4879231861843,30.));
#484=CARTESIAN_POINT('',(22.1060578208863,66.4879231861843,20.));
#485=CARTESIAN_POINT('',(22.1060578208863,51.4879231861843,20.));
#486=CARTESIAN_POINT('',(22.1060578208863,66.4879231861843,25.));
#487=CARTESIAN_POINT('Origin',(42.1060578208863,66.4879231861843,30.));
#488=CARTESIAN_POINT('',(42.1060578208863,66.4879231861843,30.));
#489=CARTESIAN_POINT('',(42.1060578208863,61.4879231861843,30.));
#490=CARTESIAN_POINT('',(42.1060578208863,31.9879231861843,30.));
#491=CARTESIAN_POINT('',(42.1060578208863,66.4879231861843,20.));
#492=CARTESIAN_POINT('',(42.1060578208863,66.4879231861843,25.));
#493=CARTESIAN_POINT('',(42.1060578208863,61.4879231861843,20.));
#494=CARTESIAN_POINT('',(42.1060578208863,71.4879231861843,20.));
#495=CARTESIAN_POINT('',(42.1060578208863,61.4879231861843,30.));
#496=CARTESIAN_POINT('Origin',(22.1060578208863,-71.5120768138157,30.));
#497=CARTESIAN_POINT('',(22.1060578208863,-71.5120768138157,30.));
#498=CARTESIAN_POINT('',(22.1060578208863,-66.5120768138157,30.));
#499=CARTESIAN_POINT('',(22.1060578208863,-37.0120768138157,30.));
#500=CARTESIAN_POINT('',(22.1060578208863,-71.5120768138157,20.));
#501=CARTESIAN_POINT('',(22.1060578208863,-71.5120768138157,25.));
#502=CARTESIAN_POINT('',(22.1060578208863,-66.5120768138157,20.));
#503=CARTESIAN_POINT('',(22.1060578208863,-81.5120768138157,20.));
#504=CARTESIAN_POINT('',(22.1060578208863,-66.5120768138157,30.));
#505=CARTESIAN_POINT('Origin',(42.1060578208863,-66.5120768138157,30.));
#506=CARTESIAN_POINT('',(42.1060578208863,-66.5120768138157,30.));
#507=CARTESIAN_POINT('',(42.1060578208863,-71.5120768138157,30.));
#508=CARTESIAN_POINT('',(42.1060578208863,-34.5120768138157,30.));
#509=CARTESIAN_POINT('',(42.1060578208863,-66.5120768138157,20.));
#510=CARTESIAN_POINT('',(42.1060578208863,-66.5120768138157,30.));
#511=CARTESIAN_POINT('',(42.1060578208863,-71.5120768138157,20.));
#512=CARTESIAN_POINT('',(42.1060578208863,-61.5120768138157,20.));
#513=CARTESIAN_POINT('',(42.1060578208863,-71.5120768138157,25.));
#514=CARTESIAN_POINT('Origin',(-10.8939421791137,61.4879231861843,30.));
#515=CARTESIAN_POINT('',(-10.8939421791137,61.4879231861843,30.));
#516=CARTESIAN_POINT('',(10.6060578208863,61.4879231861843,30.));
#517=CARTESIAN_POINT('',(-10.8939421791137,61.4879231861843,20.));
#518=CARTESIAN_POINT('',(-10.8939421791137,61.4879231861843,30.));
#519=CARTESIAN_POINT('',(-10.8939421791137,61.4879231861843,20.));
#520=CARTESIAN_POINT('Origin',(-10.8939421791137,61.4879231861843,30.));
#521=CARTESIAN_POINT('',(75.1060578208863,61.4879231861843,20.));
#522=CARTESIAN_POINT('',(-10.8939421791137,61.4879231861843,20.));
#523=CARTESIAN_POINT('',(75.1060578208863,61.4879231861843,30.));
#524=CARTESIAN_POINT('',(75.1060578208863,61.4879231861843,30.));
#525=CARTESIAN_POINT('',(10.6060578208863,61.4879231861843,30.));
#526=CARTESIAN_POINT('Origin',(32.1060578208863,-2.51207681381567,30.));
#527=CARTESIAN_POINT('',(-15.8939421791137,66.4879231861843,30.));
#528=CARTESIAN_POINT('',(32.1060578208863,66.4879231861843,30.));
#529=CARTESIAN_POINT('',(-15.8939421791137,-71.5120768138157,30.));
#530=CARTESIAN_POINT('',(-15.8939421791137,-2.51207681381567,30.));
#531=CARTESIAN_POINT('',(32.1060578208863,-71.5120768138157,30.));
#532=CARTESIAN_POINT('',(-10.8939421791137,-66.5120768138157,30.));
#533=CARTESIAN_POINT('',(53.6060578208863,-66.5120768138157,30.));
#534=CARTESIAN_POINT('',(-10.8939421791137,-34.5120768138157,30.));
#535=CARTESIAN_POINT('Origin',(32.1060578208863,-2.51207681381567,30.));
#536=CARTESIAN_POINT('',(75.1060578208863,-66.5120768138157,30.));
#537=CARTESIAN_POINT('',(75.1060578208863,29.4879231861843,30.));
#538=CARTESIAN_POINT('',(53.6060578208863,-66.5120768138157,30.));
#539=CARTESIAN_POINT('',(80.1060578208863,-71.5120768138157,30.));
#540=CARTESIAN_POINT('',(32.1060578208863,-71.5120768138157,30.));
#541=CARTESIAN_POINT('',(80.1060578208863,66.4879231861843,30.));
#542=CARTESIAN_POINT('',(80.1060578208863,-2.51207681381567,30.));
#543=CARTESIAN_POINT('',(32.1060578208863,66.4879231861843,30.));
#544=CARTESIAN_POINT('Origin',(75.1060578208863,-66.5120768138157,30.));
#545=CARTESIAN_POINT('',(75.1060578208863,-66.5120768138157,20.));
#546=CARTESIAN_POINT('',(75.1060578208863,-66.5120768138157,30.));
#547=CARTESIAN_POINT('',(75.1060578208863,-66.5120768138157,20.));
#548=CARTESIAN_POINT('Origin',(75.1060578208863,-66.5120768138157,30.));
#549=CARTESIAN_POINT('',(-10.8939421791137,-66.5120768138157,20.));
#550=CARTESIAN_POINT('',(75.1060578208863,-66.5120768138157,20.));
#551=CARTESIAN_POINT('',(-10.8939421791137,-66.5120768138157,30.));
#552=CARTESIAN_POINT('Origin',(-10.8939421791137,-66.5120768138157,30.));
#553=CARTESIAN_POINT('',(-10.8939421791137,-66.5120768138157,20.));
#554=CARTESIAN_POINT('Origin',(75.1060578208863,61.4879231861843,30.));
#555=CARTESIAN_POINT('',(75.1060578208863,61.4879231861843,20.));
#556=CARTESIAN_POINT('Origin',(32.1060578208863,-2.51207681381569,20.));
#557=CARTESIAN_POINT('',(32.1060578208863,-71.5120768138157,20.));
#558=CARTESIAN_POINT('',(32.1060578208863,66.4879231861843,20.));
#559=CARTESIAN_POINT('Origin',(32.1060578208863,-2.51207681381567,10.));
#560=CARTESIAN_POINT('',(80.1060578208863,-71.5120768138157,10.));
#561=CARTESIAN_POINT('',(-15.8939421791137,-71.5120768138157,10.));
#562=CARTESIAN_POINT('',(32.1060578208863,-71.5120768138157,10.));
#563=CARTESIAN_POINT('',(-15.8939421791137,66.4879231861843,10.));
#564=CARTESIAN_POINT('',(-15.8939421791137,-2.51207681381567,10.));
#565=CARTESIAN_POINT('',(80.1060578208863,66.4879231861843,10.));
#566=CARTESIAN_POINT('',(32.1060578208863,66.4879231861843,10.));
#567=CARTESIAN_POINT('',(80.1060578208863,-2.51207681381567,10.));
#568=CARTESIAN_POINT('Origin',(-15.8939421791137,-2.51207681381567,20.));
#569=CARTESIAN_POINT('',(-15.8939421791137,66.4879231861843,20.));
#570=CARTESIAN_POINT('',(-15.8939421791137,-71.5120768138157,20.));
#571=CARTESIAN_POINT('Origin',(32.1060578208863,66.4879231861843,20.));
#572=CARTESIAN_POINT('',(80.1060578208863,66.4879231861843,20.));
#573=CARTESIAN_POINT('Origin',(80.1060578208863,-2.51207681381567,20.));
#574=CARTESIAN_POINT('',(80.1060578208863,-71.5120768138157,20.));
#575=CARTESIAN_POINT('Origin',(32.1060578208863,-71.5120768138157,20.));
#576=UNCERTAINTY_MEASURE_WITH_UNIT(LENGTH_MEASURE(0.01),#580,
'DISTANCE_ACCURACY_VALUE',
'Maximum model space distance between geometric entities at asserted c
onnectivities');
#577=UNCERTAINTY_MEASURE_WITH_UNIT(LENGTH_MEASURE(0.01),#580,
'DISTANCE_ACCURACY_VALUE',
'Maximum model space distance between geometric entities at asserted c
onnectivities');
#578=(
GEOMETRIC_REPRESENTATION_CONTEXT(3)
GLOBAL_UNCERTAINTY_ASSIGNED_CONTEXT((#576))
GLOBAL_UNIT_ASSIGNED_CONTEXT((#580,#582,#583))
REPRESENTATION_CONTEXT('','3D')
);
#579=(
GEOMETRIC_REPRESENTATION_CONTEXT(3)
GLOBAL_UNCERTAINTY_ASSIGNED_CONTEXT((#577))
GLOBAL_UNIT_ASSIGNED_CONTEXT((#580,#582,#583))
REPRESENTATION_CONTEXT('','3D')
);
#580=(
LENGTH_UNIT()
NAMED_UNIT(*)
SI_UNIT(.MILLI.,.METRE.)
);
#581=(
LENGTH_UNIT()
NAMED_UNIT(*)
SI_UNIT($,.METRE.)
);
#582=(
NAMED_UNIT(*)
PLANE_ANGLE_UNIT()
SI_UNIT($,.RADIAN.)
);
#583=(
NAMED_UNIT(*)
SI_UNIT($,.STERADIAN.)
SOLID_ANGLE_UNIT()
);
#584=SHAPE_DEFINITION_REPRESENTATION(#585,#586);
#585=PRODUCT_DEFINITION_SHAPE('',$,#588);
#586=SHAPE_REPRESENTATION('',(#372),#578);
#587=PRODUCT_DEFINITION_CONTEXT('part definition',#592,'design');
#588=PRODUCT_DEFINITION('2026-05-06-02-11-17-821',
'Holder for a standard 96-well plate',#589,#587);
#589=PRODUCT_DEFINITION_FORMATION('',$,#594);
#590=PRODUCT_RELATED_PRODUCT_CATEGORY(
'Holder for a standard 96-well plate',
'Holder for a standard 96-well plate',(#594));
#591=APPLICATION_PROTOCOL_DEFINITION('international standard',
'automotive_design',2009,#592);
#592=APPLICATION_CONTEXT(
'Core Data for Automotive Mechanical Design Process');
#593=PRODUCT_CONTEXT('part definition',#592,'mechanical');
#594=PRODUCT('2026-05-06-02-11-17-821',
'Holder for a standard 96-well plate',$,(#593));
#595=PRESENTATION_STYLE_ASSIGNMENT((#597));
#596=PRESENTATION_STYLE_ASSIGNMENT((#598));
#597=SURFACE_STYLE_USAGE(.BOTH.,#599);
#598=SURFACE_STYLE_USAGE(.BOTH.,#600);
#599=SURFACE_SIDE_STYLE('',(#601));
#600=SURFACE_SIDE_STYLE('',(#602));
#601=SURFACE_STYLE_FILL_AREA(#603);
#602=SURFACE_STYLE_FILL_AREA(#604);
#603=FILL_AREA_STYLE('Steel - Satin',(#605));
#604=FILL_AREA_STYLE('Opaque(68,150,72)',(#606));
#605=FILL_AREA_STYLE_COLOUR('Steel - Satin',#607);
#606=FILL_AREA_STYLE_COLOUR('Opaque(68,150,72)',#608);
#607=COLOUR_RGB('Steel - Satin',0.627450980392157,0.627450980392157,0.627450980392157);
#608=COLOUR_RGB('Opaque(68,150,72)',0.266666666666667,0.588235294117647,
0.282352941176471);
ENDSEC;
END-ISO-10303-21;
