ISO-10303-21;
HEADER;
/* Generated by software containing ST-Developer
 * from STEP Tools, Inc. (www.steptools.com) 
 */

FILE_DESCRIPTION(
/* description */ (''),
/* implementation_level */ '2;1');

FILE_NAME(
/* name */ 'camera mount.step',
/* time_stamp */ '2026-09-15T03:06:19+08:00',
/* author */ (''),
/* organization */ (''),
/* preprocessor_version */ 'ST-DEVELOPER v20.1',
/* originating_system */ 'Autodesk Translation Framework v15.8.0.0',
/* authorisation */ '');

FILE_SCHEMA (('AUTOMOTIVE_DESIGN { 1 0 10303 214 3 1 1 }'));
ENDSEC;

DATA;
#10=MECHANICAL_DESIGN_GEOMETRIC_PRESENTATION_REPRESENTATION('',(#13),#652);
#11=SHAPE_REPRESENTATION_RELATIONSHIP('SRR','None',#659,#12);
#12=ADVANCED_BREP_SHAPE_REPRESENTATION('',(#14),#651);
#13=STYLED_ITEM('',(#669),#14);
#14=MANIFOLD_SOLID_BREP('Body1',#396);
#15=FACE_BOUND('',#65,.T.);
#16=FACE_BOUND('',#66,.T.);
#17=FACE_BOUND('',#68,.T.);
#18=FACE_BOUND('',#69,.T.);
#19=FACE_BOUND('',#72,.T.);
#20=FACE_BOUND('',#75,.T.);
#21=FACE_BOUND('',#78,.T.);
#22=FACE_BOUND('',#83,.T.);
#23=FACE_BOUND('',#85,.T.);
#24=FACE_BOUND('',#87,.T.);
#25=FACE_BOUND('',#89,.T.);
#26=PLANE('',#416);
#27=PLANE('',#417);
#28=PLANE('',#418);
#29=PLANE('',#419);
#30=PLANE('',#420);
#31=PLANE('',#422);
#32=PLANE('',#423);
#33=PLANE('',#425);
#34=PLANE('',#426);
#35=PLANE('',#434);
#36=PLANE('',#435);
#37=PLANE('',#436);
#38=PLANE('',#437);
#39=PLANE('',#438);
#40=PLANE('',#439);
#41=FACE_OUTER_BOUND('',#61,.T.);
#42=FACE_OUTER_BOUND('',#62,.T.);
#43=FACE_OUTER_BOUND('',#63,.T.);
#44=FACE_OUTER_BOUND('',#64,.T.);
#45=FACE_OUTER_BOUND('',#67,.T.);
#46=FACE_OUTER_BOUND('',#70,.T.);
#47=FACE_OUTER_BOUND('',#71,.T.);
#48=FACE_OUTER_BOUND('',#73,.T.);
#49=FACE_OUTER_BOUND('',#74,.T.);
#50=FACE_OUTER_BOUND('',#76,.T.);
#51=FACE_OUTER_BOUND('',#77,.T.);
#52=FACE_OUTER_BOUND('',#79,.T.);
#53=FACE_OUTER_BOUND('',#80,.T.);
#54=FACE_OUTER_BOUND('',#81,.T.);
#55=FACE_OUTER_BOUND('',#82,.T.);
#56=FACE_OUTER_BOUND('',#84,.T.);
#57=FACE_OUTER_BOUND('',#86,.T.);
#58=FACE_OUTER_BOUND('',#88,.T.);
#59=FACE_OUTER_BOUND('',#90,.T.);
#60=FACE_OUTER_BOUND('',#91,.T.);
#61=EDGE_LOOP('',(#269,#270,#271,#272));
#62=EDGE_LOOP('',(#273,#274,#275,#276));
#63=EDGE_LOOP('',(#277,#278,#279,#280));
#64=EDGE_LOOP('',(#281,#282,#283,#284));
#65=EDGE_LOOP('',(#285));
#66=EDGE_LOOP('',(#286));
#67=EDGE_LOOP('',(#287,#288,#289,#290));
#68=EDGE_LOOP('',(#291));
#69=EDGE_LOOP('',(#292));
#70=EDGE_LOOP('',(#293,#294,#295,#296));
#71=EDGE_LOOP('',(#297,#298,#299,#300));
#72=EDGE_LOOP('',(#301));
#73=EDGE_LOOP('',(#302,#303,#304,#305));
#74=EDGE_LOOP('',(#306,#307,#308,#309));
#75=EDGE_LOOP('',(#310));
#76=EDGE_LOOP('',(#311,#312,#313,#314));
#77=EDGE_LOOP('',(#315,#316,#317,#318));
#78=EDGE_LOOP('',(#319));
#79=EDGE_LOOP('',(#320,#321,#322,#323));
#80=EDGE_LOOP('',(#324,#325,#326,#327));
#81=EDGE_LOOP('',(#328,#329,#330,#331));
#82=EDGE_LOOP('',(#332,#333,#334,#335));
#83=EDGE_LOOP('',(#336));
#84=EDGE_LOOP('',(#337,#338,#339,#340));
#85=EDGE_LOOP('',(#341));
#86=EDGE_LOOP('',(#342,#343,#344,#345));
#87=EDGE_LOOP('',(#346,#347,#348,#349));
#88=EDGE_LOOP('',(#350,#351,#352,#353,#354,#355,#356,#357));
#89=EDGE_LOOP('',(#358));
#90=EDGE_LOOP('',(#359,#360,#361,#362));
#91=EDGE_LOOP('',(#363,#364,#365,#366,#367,#368,#369,#370));
#92=LINE('',#548,#133);
#93=LINE('',#554,#134);
#94=LINE('',#559,#135);
#95=LINE('',#561,#136);
#96=LINE('',#563,#137);
#97=LINE('',#564,#138);
#98=LINE('',#567,#139);
#99=LINE('',#569,#140);
#100=LINE('',#570,#141);
#101=LINE('',#573,#142);
#102=LINE('',#575,#143);
#103=LINE('',#576,#144);
#104=LINE('',#578,#145);
#105=LINE('',#582,#146);
#106=LINE('',#584,#147);
#107=LINE('',#586,#148);
#108=LINE('',#587,#149);
#109=LINE('',#592,#150);
#110=LINE('',#594,#151);
#111=LINE('',#595,#152);
#112=LINE('',#598,#153);
#113=LINE('',#600,#154);
#114=LINE('',#601,#155);
#115=LINE('',#605,#156);
#116=LINE('',#606,#157);
#117=LINE('',#613,#158);
#118=LINE('',#616,#159);
#119=LINE('',#621,#160);
#120=LINE('',#625,#161);
#121=LINE('',#627,#162);
#122=LINE('',#629,#163);
#123=LINE('',#630,#164);
#124=LINE('',#633,#165);
#125=LINE('',#635,#166);
#126=LINE('',#636,#167);
#127=LINE('',#639,#168);
#128=LINE('',#641,#169);
#129=LINE('',#642,#170);
#130=LINE('',#644,#171);
#131=LINE('',#645,#172);
#132=LINE('',#646,#173);
#133=VECTOR('',#446,3.25);
#134=VECTOR('',#453,3.25);
#135=VECTOR('',#458,10.);
#136=VECTOR('',#459,10.);
#137=VECTOR('',#460,10.);
#138=VECTOR('',#461,10.);
#139=VECTOR('',#464,10.);
#140=VECTOR('',#465,10.);
#141=VECTOR('',#466,10.);
#142=VECTOR('',#469,10.);
#143=VECTOR('',#470,10.);
#144=VECTOR('',#471,10.);
#145=VECTOR('',#474,10.);
#146=VECTOR('',#477,10.);
#147=VECTOR('',#478,10.);
#148=VECTOR('',#479,10.);
#149=VECTOR('',#480,10.);
#150=VECTOR('',#485,10.);
#151=VECTOR('',#486,10.);
#152=VECTOR('',#487,10.);
#153=VECTOR('',#490,10.);
#154=VECTOR('',#491,10.);
#155=VECTOR('',#492,10.);
#156=VECTOR('',#497,10.);
#157=VECTOR('',#498,10.);
#158=VECTOR('',#507,2.5);
#159=VECTOR('',#510,2.5);
#160=VECTOR('',#517,9.);
#161=VECTOR('',#520,10.);
#162=VECTOR('',#521,10.);
#163=VECTOR('',#522,10.);
#164=VECTOR('',#523,10.);
#165=VECTOR('',#526,10.);
#166=VECTOR('',#527,10.);
#167=VECTOR('',#528,10.);
#168=VECTOR('',#531,10.);
#169=VECTOR('',#532,10.);
#170=VECTOR('',#533,10.);
#171=VECTOR('',#536,10.);
#172=VECTOR('',#537,10.);
#173=VECTOR('',#538,10.);
#174=CIRCLE('',#411,3.25);
#175=CIRCLE('',#412,3.25);
#176=CIRCLE('',#414,3.25);
#177=CIRCLE('',#415,3.25);
#178=CIRCLE('',#421,2.5);
#179=CIRCLE('',#424,2.5);
#180=CIRCLE('',#427,9.);
#181=CIRCLE('',#429,2.5);
#182=CIRCLE('',#431,2.5);
#183=CIRCLE('',#433,9.);
#184=VERTEX_POINT('',#545);
#185=VERTEX_POINT('',#547);
#186=VERTEX_POINT('',#551);
#187=VERTEX_POINT('',#553);
#188=VERTEX_POINT('',#557);
#189=VERTEX_POINT('',#558);
#190=VERTEX_POINT('',#560);
#191=VERTEX_POINT('',#562);
#192=VERTEX_POINT('',#566);
#193=VERTEX_POINT('',#568);
#194=VERTEX_POINT('',#572);
#195=VERTEX_POINT('',#574);
#196=VERTEX_POINT('',#580);
#197=VERTEX_POINT('',#581);
#198=VERTEX_POINT('',#583);
#199=VERTEX_POINT('',#585);
#200=VERTEX_POINT('',#588);
#201=VERTEX_POINT('',#591);
#202=VERTEX_POINT('',#593);
#203=VERTEX_POINT('',#597);
#204=VERTEX_POINT('',#599);
#205=VERTEX_POINT('',#602);
#206=VERTEX_POINT('',#608);
#207=VERTEX_POINT('',#611);
#208=VERTEX_POINT('',#615);
#209=VERTEX_POINT('',#619);
#210=VERTEX_POINT('',#623);
#211=VERTEX_POINT('',#624);
#212=VERTEX_POINT('',#626);
#213=VERTEX_POINT('',#628);
#214=VERTEX_POINT('',#632);
#215=VERTEX_POINT('',#634);
#216=VERTEX_POINT('',#638);
#217=VERTEX_POINT('',#640);
#218=EDGE_CURVE('',#184,#184,#174,.T.);
#219=EDGE_CURVE('',#184,#185,#92,.T.);
#220=EDGE_CURVE('',#185,#185,#175,.T.);
#221=EDGE_CURVE('',#186,#186,#176,.T.);
#222=EDGE_CURVE('',#186,#187,#93,.T.);
#223=EDGE_CURVE('',#187,#187,#177,.T.);
#224=EDGE_CURVE('',#188,#189,#94,.T.);
#225=EDGE_CURVE('',#188,#190,#95,.T.);
#226=EDGE_CURVE('',#191,#190,#96,.T.);
#227=EDGE_CURVE('',#189,#191,#97,.T.);
#228=EDGE_CURVE('',#189,#192,#98,.T.);
#229=EDGE_CURVE('',#193,#191,#99,.T.);
#230=EDGE_CURVE('',#192,#193,#100,.T.);
#231=EDGE_CURVE('',#194,#188,#101,.T.);
#232=EDGE_CURVE('',#194,#195,#102,.T.);
#233=EDGE_CURVE('',#190,#195,#103,.T.);
#234=EDGE_CURVE('',#195,#193,#104,.T.);
#235=EDGE_CURVE('',#196,#197,#105,.T.);
#236=EDGE_CURVE('',#196,#198,#106,.T.);
#237=EDGE_CURVE('',#198,#199,#107,.T.);
#238=EDGE_CURVE('',#197,#199,#108,.T.);
#239=EDGE_CURVE('',#200,#200,#178,.T.);
#240=EDGE_CURVE('',#201,#196,#109,.T.);
#241=EDGE_CURVE('',#201,#202,#110,.T.);
#242=EDGE_CURVE('',#202,#198,#111,.T.);
#243=EDGE_CURVE('',#203,#201,#112,.T.);
#244=EDGE_CURVE('',#203,#204,#113,.T.);
#245=EDGE_CURVE('',#204,#202,#114,.T.);
#246=EDGE_CURVE('',#205,#205,#179,.T.);
#247=EDGE_CURVE('',#197,#203,#115,.T.);
#248=EDGE_CURVE('',#199,#204,#116,.T.);
#249=EDGE_CURVE('',#206,#206,#180,.T.);
#250=EDGE_CURVE('',#207,#207,#181,.T.);
#251=EDGE_CURVE('',#207,#205,#117,.T.);
#252=EDGE_CURVE('',#200,#208,#118,.T.);
#253=EDGE_CURVE('',#208,#208,#182,.T.);
#254=EDGE_CURVE('',#209,#209,#183,.T.);
#255=EDGE_CURVE('',#209,#206,#119,.T.);
#256=EDGE_CURVE('',#210,#211,#120,.T.);
#257=EDGE_CURVE('',#211,#212,#121,.T.);
#258=EDGE_CURVE('',#213,#212,#122,.T.);
#259=EDGE_CURVE('',#210,#213,#123,.T.);
#260=EDGE_CURVE('',#214,#210,#124,.T.);
#261=EDGE_CURVE('',#215,#213,#125,.T.);
#262=EDGE_CURVE('',#214,#215,#126,.T.);
#263=EDGE_CURVE('',#216,#214,#127,.T.);
#264=EDGE_CURVE('',#217,#215,#128,.T.);
#265=EDGE_CURVE('',#216,#217,#129,.T.);
#266=EDGE_CURVE('',#192,#216,#130,.T.);
#267=EDGE_CURVE('',#212,#217,#131,.T.);
#268=EDGE_CURVE('',#211,#194,#132,.T.);
#269=ORIENTED_EDGE('',*,*,#218,.F.);
#270=ORIENTED_EDGE('',*,*,#219,.T.);
#271=ORIENTED_EDGE('',*,*,#220,.F.);
#272=ORIENTED_EDGE('',*,*,#219,.F.);
#273=ORIENTED_EDGE('',*,*,#221,.F.);
#274=ORIENTED_EDGE('',*,*,#222,.T.);
#275=ORIENTED_EDGE('',*,*,#223,.F.);
#276=ORIENTED_EDGE('',*,*,#222,.F.);
#277=ORIENTED_EDGE('',*,*,#224,.F.);
#278=ORIENTED_EDGE('',*,*,#225,.T.);
#279=ORIENTED_EDGE('',*,*,#226,.F.);
#280=ORIENTED_EDGE('',*,*,#227,.F.);
#281=ORIENTED_EDGE('',*,*,#228,.F.);
#282=ORIENTED_EDGE('',*,*,#227,.T.);
#283=ORIENTED_EDGE('',*,*,#229,.F.);
#284=ORIENTED_EDGE('',*,*,#230,.F.);
#285=ORIENTED_EDGE('',*,*,#220,.T.);
#286=ORIENTED_EDGE('',*,*,#223,.T.);
#287=ORIENTED_EDGE('',*,*,#231,.F.);
#288=ORIENTED_EDGE('',*,*,#232,.T.);
#289=ORIENTED_EDGE('',*,*,#233,.F.);
#290=ORIENTED_EDGE('',*,*,#225,.F.);
#291=ORIENTED_EDGE('',*,*,#218,.T.);
#292=ORIENTED_EDGE('',*,*,#221,.T.);
#293=ORIENTED_EDGE('',*,*,#233,.T.);
#294=ORIENTED_EDGE('',*,*,#234,.T.);
#295=ORIENTED_EDGE('',*,*,#229,.T.);
#296=ORIENTED_EDGE('',*,*,#226,.T.);
#297=ORIENTED_EDGE('',*,*,#235,.F.);
#298=ORIENTED_EDGE('',*,*,#236,.T.);
#299=ORIENTED_EDGE('',*,*,#237,.T.);
#300=ORIENTED_EDGE('',*,*,#238,.F.);
#301=ORIENTED_EDGE('',*,*,#239,.F.);
#302=ORIENTED_EDGE('',*,*,#240,.F.);
#303=ORIENTED_EDGE('',*,*,#241,.T.);
#304=ORIENTED_EDGE('',*,*,#242,.T.);
#305=ORIENTED_EDGE('',*,*,#236,.F.);
#306=ORIENTED_EDGE('',*,*,#243,.F.);
#307=ORIENTED_EDGE('',*,*,#244,.T.);
#308=ORIENTED_EDGE('',*,*,#245,.T.);
#309=ORIENTED_EDGE('',*,*,#241,.F.);
#310=ORIENTED_EDGE('',*,*,#246,.F.);
#311=ORIENTED_EDGE('',*,*,#247,.F.);
#312=ORIENTED_EDGE('',*,*,#238,.T.);
#313=ORIENTED_EDGE('',*,*,#248,.T.);
#314=ORIENTED_EDGE('',*,*,#244,.F.);
#315=ORIENTED_EDGE('',*,*,#248,.F.);
#316=ORIENTED_EDGE('',*,*,#237,.F.);
#317=ORIENTED_EDGE('',*,*,#242,.F.);
#318=ORIENTED_EDGE('',*,*,#245,.F.);
#319=ORIENTED_EDGE('',*,*,#249,.F.);
#320=ORIENTED_EDGE('',*,*,#250,.F.);
#321=ORIENTED_EDGE('',*,*,#251,.T.);
#322=ORIENTED_EDGE('',*,*,#246,.T.);
#323=ORIENTED_EDGE('',*,*,#251,.F.);
#324=ORIENTED_EDGE('',*,*,#239,.T.);
#325=ORIENTED_EDGE('',*,*,#252,.T.);
#326=ORIENTED_EDGE('',*,*,#253,.F.);
#327=ORIENTED_EDGE('',*,*,#252,.F.);
#328=ORIENTED_EDGE('',*,*,#254,.F.);
#329=ORIENTED_EDGE('',*,*,#255,.T.);
#330=ORIENTED_EDGE('',*,*,#249,.T.);
#331=ORIENTED_EDGE('',*,*,#255,.F.);
#332=ORIENTED_EDGE('',*,*,#256,.T.);
#333=ORIENTED_EDGE('',*,*,#257,.T.);
#334=ORIENTED_EDGE('',*,*,#258,.F.);
#335=ORIENTED_EDGE('',*,*,#259,.F.);
#336=ORIENTED_EDGE('',*,*,#254,.T.);
#337=ORIENTED_EDGE('',*,*,#260,.T.);
#338=ORIENTED_EDGE('',*,*,#259,.T.);
#339=ORIENTED_EDGE('',*,*,#261,.F.);
#340=ORIENTED_EDGE('',*,*,#262,.F.);
#341=ORIENTED_EDGE('',*,*,#250,.T.);
#342=ORIENTED_EDGE('',*,*,#263,.T.);
#343=ORIENTED_EDGE('',*,*,#262,.T.);
#344=ORIENTED_EDGE('',*,*,#264,.F.);
#345=ORIENTED_EDGE('',*,*,#265,.F.);
#346=ORIENTED_EDGE('',*,*,#235,.T.);
#347=ORIENTED_EDGE('',*,*,#247,.T.);
#348=ORIENTED_EDGE('',*,*,#243,.T.);
#349=ORIENTED_EDGE('',*,*,#240,.T.);
#350=ORIENTED_EDGE('',*,*,#228,.T.);
#351=ORIENTED_EDGE('',*,*,#266,.T.);
#352=ORIENTED_EDGE('',*,*,#265,.T.);
#353=ORIENTED_EDGE('',*,*,#267,.F.);
#354=ORIENTED_EDGE('',*,*,#257,.F.);
#355=ORIENTED_EDGE('',*,*,#268,.T.);
#356=ORIENTED_EDGE('',*,*,#231,.T.);
#357=ORIENTED_EDGE('',*,*,#224,.T.);
#358=ORIENTED_EDGE('',*,*,#253,.T.);
#359=ORIENTED_EDGE('',*,*,#267,.T.);
#360=ORIENTED_EDGE('',*,*,#264,.T.);
#361=ORIENTED_EDGE('',*,*,#261,.T.);
#362=ORIENTED_EDGE('',*,*,#258,.T.);
#363=ORIENTED_EDGE('',*,*,#268,.F.);
#364=ORIENTED_EDGE('',*,*,#256,.F.);
#365=ORIENTED_EDGE('',*,*,#260,.F.);
#366=ORIENTED_EDGE('',*,*,#263,.F.);
#367=ORIENTED_EDGE('',*,*,#266,.F.);
#368=ORIENTED_EDGE('',*,*,#230,.T.);
#369=ORIENTED_EDGE('',*,*,#234,.F.);
#370=ORIENTED_EDGE('',*,*,#232,.F.);
#371=CYLINDRICAL_SURFACE('',#410,3.25);
#372=CYLINDRICAL_SURFACE('',#413,3.25);
#373=CYLINDRICAL_SURFACE('',#428,2.5);
#374=CYLINDRICAL_SURFACE('',#430,2.5);
#375=CYLINDRICAL_SURFACE('',#432,9.);
#376=ADVANCED_FACE('',(#41),#371,.F.);
#377=ADVANCED_FACE('',(#42),#372,.F.);
#378=ADVANCED_FACE('',(#43),#26,.T.);
#379=ADVANCED_FACE('',(#44,#15,#16),#27,.T.);
#380=ADVANCED_FACE('',(#45,#17,#18),#28,.T.);
#381=ADVANCED_FACE('',(#46),#29,.T.);
#382=ADVANCED_FACE('',(#47,#19),#30,.F.);
#383=ADVANCED_FACE('',(#48),#31,.F.);
#384=ADVANCED_FACE('',(#49,#20),#32,.F.);
#385=ADVANCED_FACE('',(#50),#33,.F.);
#386=ADVANCED_FACE('',(#51,#21),#34,.F.);
#387=ADVANCED_FACE('',(#52),#373,.F.);
#388=ADVANCED_FACE('',(#53),#374,.F.);
#389=ADVANCED_FACE('',(#54),#375,.F.);
#390=ADVANCED_FACE('',(#55,#22),#35,.T.);
#391=ADVANCED_FACE('',(#56,#23),#36,.T.);
#392=ADVANCED_FACE('',(#57,#24),#37,.T.);
#393=ADVANCED_FACE('',(#58,#25),#38,.T.);
#394=ADVANCED_FACE('',(#59),#39,.T.);
#395=ADVANCED_FACE('',(#60),#40,.F.);
#396=CLOSED_SHELL('',(#376,#377,#378,#379,#380,#381,#382,#383,#384,#385,
#386,#387,#388,#389,#390,#391,#392,#393,#394,#395));
#397=DERIVED_UNIT_ELEMENT(#399,1.);
#398=DERIVED_UNIT_ELEMENT(#654,-3.);
#399=(
MASS_UNIT()
NAMED_UNIT(*)
SI_UNIT(.KILO.,.GRAM.)
);
#400=DERIVED_UNIT((#397,#398));
#401=MEASURE_REPRESENTATION_ITEM('density measure',
POSITIVE_RATIO_MEASURE(7850.),#400);
#402=PROPERTY_DEFINITION_REPRESENTATION(#407,#404);
#403=PROPERTY_DEFINITION_REPRESENTATION(#408,#405);
#404=REPRESENTATION('material name',(#406),#651);
#405=REPRESENTATION('density',(#401),#651);
#406=DESCRIPTIVE_REPRESENTATION_ITEM('Steel','Steel');
#407=PROPERTY_DEFINITION('material property','material name',#661);
#408=PROPERTY_DEFINITION('material property','density of part',#661);
#409=AXIS2_PLACEMENT_3D('',#543,#440,#441);
#410=AXIS2_PLACEMENT_3D('',#544,#442,#443);
#411=AXIS2_PLACEMENT_3D('',#546,#444,#445);
#412=AXIS2_PLACEMENT_3D('',#549,#447,#448);
#413=AXIS2_PLACEMENT_3D('',#550,#449,#450);
#414=AXIS2_PLACEMENT_3D('',#552,#451,#452);
#415=AXIS2_PLACEMENT_3D('',#555,#454,#455);
#416=AXIS2_PLACEMENT_3D('',#556,#456,#457);
#417=AXIS2_PLACEMENT_3D('',#565,#462,#463);
#418=AXIS2_PLACEMENT_3D('',#571,#467,#468);
#419=AXIS2_PLACEMENT_3D('',#577,#472,#473);
#420=AXIS2_PLACEMENT_3D('',#579,#475,#476);
#421=AXIS2_PLACEMENT_3D('',#589,#481,#482);
#422=AXIS2_PLACEMENT_3D('',#590,#483,#484);
#423=AXIS2_PLACEMENT_3D('',#596,#488,#489);
#424=AXIS2_PLACEMENT_3D('',#603,#493,#494);
#425=AXIS2_PLACEMENT_3D('',#604,#495,#496);
#426=AXIS2_PLACEMENT_3D('',#607,#499,#500);
#427=AXIS2_PLACEMENT_3D('',#609,#501,#502);
#428=AXIS2_PLACEMENT_3D('',#610,#503,#504);
#429=AXIS2_PLACEMENT_3D('',#612,#505,#506);
#430=AXIS2_PLACEMENT_3D('',#614,#508,#509);
#431=AXIS2_PLACEMENT_3D('',#617,#511,#512);
#432=AXIS2_PLACEMENT_3D('',#618,#513,#514);
#433=AXIS2_PLACEMENT_3D('',#620,#515,#516);
#434=AXIS2_PLACEMENT_3D('',#622,#518,#519);
#435=AXIS2_PLACEMENT_3D('',#631,#524,#525);
#436=AXIS2_PLACEMENT_3D('',#637,#529,#530);
#437=AXIS2_PLACEMENT_3D('',#643,#534,#535);
#438=AXIS2_PLACEMENT_3D('',#647,#539,#540);
#439=AXIS2_PLACEMENT_3D('',#648,#541,#542);
#440=DIRECTION('axis',(0.,0.,1.));
#441=DIRECTION('refdir',(1.,0.,0.));
#442=DIRECTION('center_axis',(8.88178419700125E-16,-1.,1.99840144432528E-15));
#443=DIRECTION('ref_axis',(-1.,-8.88178419700125E-16,4.72837643780271E-17));
#444=DIRECTION('center_axis',(0.,-1.,-3.94430452610506E-31));
#445=DIRECTION('ref_axis',(-1.,-1.86501565847538E-47,4.72837643780271E-17));
#446=DIRECTION('',(8.88178419700125E-16,-1.,1.99840144432528E-15));
#447=DIRECTION('center_axis',(0.,1.,-2.22044604925031E-16));
#448=DIRECTION('ref_axis',(-1.,1.04991047806872E-32,4.72837643780269E-17));
#449=DIRECTION('center_axis',(8.88178419700125E-16,-1.,1.99840144432528E-15));
#450=DIRECTION('ref_axis',(-1.,-8.88178419700125E-16,4.72837643780271E-17));
#451=DIRECTION('center_axis',(0.,-1.,-3.94430452610506E-31));
#452=DIRECTION('ref_axis',(-1.,-1.86501565847538E-47,4.72837643780271E-17));
#453=DIRECTION('',(8.88178419700125E-16,-1.,1.99840144432528E-15));
#454=DIRECTION('center_axis',(0.,1.,-2.22044604925031E-16));
#455=DIRECTION('ref_axis',(-1.,1.04991047806872E-32,4.72837643780269E-17));
#456=DIRECTION('center_axis',(0.,-3.94430452610506E-31,1.));
#457=DIRECTION('ref_axis',(3.79411283881768E-32,1.,3.94430452610506E-31));
#458=DIRECTION('',(2.88889491658085E-33,-1.,-3.94430452610506E-31));
#459=DIRECTION('',(-1.,0.,0.));
#460=DIRECTION('',(3.79411283881768E-32,1.,3.94430452610506E-31));
#461=DIRECTION('',(-1.,0.,0.));
#462=DIRECTION('center_axis',(0.,-1.,2.22044604925031E-16));
#463=DIRECTION('ref_axis',(-3.08148791101957E-33,2.22044604925031E-16,1.));
#464=DIRECTION('',(6.41463530422126E-49,-2.22044604925031E-16,-1.));
#465=DIRECTION('',(-3.08148791101957E-33,2.22044604925031E-16,1.));
#466=DIRECTION('',(-1.,0.,0.));
#467=DIRECTION('center_axis',(0.,1.,3.94430452610506E-31));
#468=DIRECTION('ref_axis',(3.08148791101958E-33,3.94430452610506E-31,-1.));
#469=DIRECTION('',(1.13946812949118E-63,-3.94430452610506E-31,1.));
#470=DIRECTION('',(-1.,0.,0.));
#471=DIRECTION('',(3.08148791101958E-33,3.94430452610506E-31,-1.));
#472=DIRECTION('center_axis',(-1.,0.,0.));
#473=DIRECTION('ref_axis',(0.,0.,1.));
#474=DIRECTION('',(-3.79411283881768E-32,-1.,-3.94430452610506E-31));
#475=DIRECTION('center_axis',(-1.,0.,-1.76992076389518E-16));
#476=DIRECTION('ref_axis',(-1.76992076389518E-16,0.,1.));
#477=DIRECTION('',(-1.76992076389518E-16,-5.11311509756768E-49,1.));
#478=DIRECTION('',(0.,1.,0.));
#479=DIRECTION('',(-1.76992076389518E-16,0.,1.));
#480=DIRECTION('',(0.,1.,0.));
#481=DIRECTION('center_axis',(1.,0.,1.76992076389518E-16));
#482=DIRECTION('ref_axis',(0.,1.,0.));
#483=DIRECTION('center_axis',(0.,0.,-1.));
#484=DIRECTION('ref_axis',(-1.,0.,0.));
#485=DIRECTION('',(-1.,-2.88889491658085E-33,0.));
#486=DIRECTION('',(0.,1.,0.));
#487=DIRECTION('',(-1.,0.,0.));
#488=DIRECTION('center_axis',(1.,0.,-1.28721510101467E-16));
#489=DIRECTION('ref_axis',(-1.28721510101467E-16,0.,-1.));
#490=DIRECTION('',(-1.28721510101467E-16,-3.7186291618674E-49,-1.));
#491=DIRECTION('',(0.,1.,0.));
#492=DIRECTION('',(-1.28721510101467E-16,0.,-1.));
#493=DIRECTION('center_axis',(-1.,0.,1.28721510101467E-16));
#494=DIRECTION('ref_axis',(0.,1.,0.));
#495=DIRECTION('center_axis',(0.,0.,1.));
#496=DIRECTION('ref_axis',(1.,0.,0.));
#497=DIRECTION('',(1.,2.88889491658085E-33,0.));
#498=DIRECTION('',(1.,0.,0.));
#499=DIRECTION('center_axis',(0.,1.,0.));
#500=DIRECTION('ref_axis',(0.,0.,1.));
#501=DIRECTION('center_axis',(0.,-1.,0.));
#502=DIRECTION('ref_axis',(-1.,0.,0.));
#503=DIRECTION('center_axis',(-1.,0.,0.));
#504=DIRECTION('ref_axis',(0.,1.,0.));
#505=DIRECTION('center_axis',(-1.,0.,0.));
#506=DIRECTION('ref_axis',(0.,1.,0.));
#507=DIRECTION('',(-1.,0.,0.));
#508=DIRECTION('center_axis',(-1.,0.,0.));
#509=DIRECTION('ref_axis',(0.,1.,0.));
#510=DIRECTION('',(-1.,0.,0.));
#511=DIRECTION('center_axis',(1.,2.88889491658085E-33,0.));
#512=DIRECTION('ref_axis',(-2.88889491658085E-33,1.,0.));
#513=DIRECTION('center_axis',(0.,-1.,0.));
#514=DIRECTION('ref_axis',(-1.,0.,0.));
#515=DIRECTION('center_axis',(0.,-1.,0.));
#516=DIRECTION('ref_axis',(-1.,0.,0.));
#517=DIRECTION('',(0.,-1.,0.));
#518=DIRECTION('center_axis',(0.,1.,0.));
#519=DIRECTION('ref_axis',(-1.,0.,0.));
#520=DIRECTION('',(-1.,0.,0.));
#521=DIRECTION('',(0.,0.,1.));
#522=DIRECTION('',(-1.,0.,0.));
#523=DIRECTION('',(0.,0.,1.));
#524=DIRECTION('center_axis',(1.,0.,0.));
#525=DIRECTION('ref_axis',(0.,1.,0.));
#526=DIRECTION('',(0.,1.,0.));
#527=DIRECTION('',(0.,1.,0.));
#528=DIRECTION('',(0.,0.,1.));
#529=DIRECTION('center_axis',(2.88889491658085E-33,-1.,0.));
#530=DIRECTION('ref_axis',(1.,2.88889491658085E-33,0.));
#531=DIRECTION('',(1.,2.88889491658085E-33,0.));
#532=DIRECTION('',(1.,2.88889491658085E-33,0.));
#533=DIRECTION('',(0.,0.,1.));
#534=DIRECTION('center_axis',(-1.,-2.88889491658085E-33,0.));
#535=DIRECTION('ref_axis',(2.88889491658085E-33,-1.,0.));
#536=DIRECTION('',(2.88889491658085E-33,-1.,0.));
#537=DIRECTION('',(2.88889491658085E-33,-1.,0.));
#538=DIRECTION('',(2.88889491658085E-33,-1.,0.));
#539=DIRECTION('center_axis',(0.,0.,1.));
#540=DIRECTION('ref_axis',(1.,0.,0.));
#541=DIRECTION('center_axis',(0.,0.,1.));
#542=DIRECTION('ref_axis',(1.,0.,0.));
#543=CARTESIAN_POINT('',(0.,0.,0.));
#544=CARTESIAN_POINT('Origin',(-47.5,23.5,5.00000000000004));
#545=CARTESIAN_POINT('',(-44.25,23.5,5.00000000000004));
#546=CARTESIAN_POINT('Origin',(-47.5,23.4999999999999,5.00000000000004));
#547=CARTESIAN_POINT('',(-44.25,13.5,5.00000000000006));
#548=CARTESIAN_POINT('',(-44.25,23.5,5.00000000000004));
#549=CARTESIAN_POINT('Origin',(-47.5,13.5,5.00000000000006));
#550=CARTESIAN_POINT('Origin',(-72.5,23.5,5.00000000000003));
#551=CARTESIAN_POINT('',(-69.25,23.5,5.00000000000003));
#552=CARTESIAN_POINT('Origin',(-72.5,23.4999999999999,5.00000000000003));
#553=CARTESIAN_POINT('',(-69.25,13.5,5.00000000000005));
#554=CARTESIAN_POINT('',(-69.25,23.5,5.00000000000003));
#555=CARTESIAN_POINT('Origin',(-72.5,13.4999999999999,5.00000000000005));
#556=CARTESIAN_POINT('Origin',(-8.88178419700125E-15,13.5,10.));
#557=CARTESIAN_POINT('',(-8.88178419700125E-15,23.5,10.));
#558=CARTESIAN_POINT('',(-8.88178419700125E-15,13.5,10.));
#559=CARTESIAN_POINT('',(0.,26.75,10.));
#560=CARTESIAN_POINT('',(-80.,23.5,10.));
#561=CARTESIAN_POINT('',(-8.88178419700125E-15,23.5,10.));
#562=CARTESIAN_POINT('',(-80.,13.5,10.));
#563=CARTESIAN_POINT('',(-80.,23.5,10.));
#564=CARTESIAN_POINT('',(-8.88178419700125E-15,13.5,10.));
#565=CARTESIAN_POINT('Origin',(-8.88178419700125E-15,13.5,9.99200722162641E-15));
#566=CARTESIAN_POINT('',(-8.88178419700125E-15,13.5,8.88178419700126E-15));
#567=CARTESIAN_POINT('',(0.,13.5,7.93809462606987E-15));
#568=CARTESIAN_POINT('',(-80.,13.5,8.88178419700126E-15));
#569=CARTESIAN_POINT('',(-80.,13.5,10.));
#570=CARTESIAN_POINT('',(-8.88178419700125E-15,13.5,8.88178419700126E-15));
#571=CARTESIAN_POINT('Origin',(-8.88178419700125E-15,23.5,10.));
#572=CARTESIAN_POINT('',(-8.88178419700125E-15,23.5,8.88178419700126E-15));
#573=CARTESIAN_POINT('',(0.,23.5,5.));
#574=CARTESIAN_POINT('',(-80.,23.5,8.88178419700126E-15));
#575=CARTESIAN_POINT('',(-8.88178419700125E-15,23.5,8.88178419700126E-15));
#576=CARTESIAN_POINT('',(-80.,23.5,9.99200722162642E-15));
#577=CARTESIAN_POINT('Origin',(-80.,18.5,5.00000000000001));
#578=CARTESIAN_POINT('',(-80.,40.,8.88178419700127E-15));
#579=CARTESIAN_POINT('Origin',(2.25,0.,2.75));
#580=CARTESIAN_POINT('',(2.25,0.,2.75));
#581=CARTESIAN_POINT('',(2.24999999999999,0.,37.25));
#582=CARTESIAN_POINT('',(2.25,6.50001356230692E-33,1.375));
#583=CARTESIAN_POINT('',(2.25,30.,2.74999999999999));
#584=CARTESIAN_POINT('',(2.25,0.,2.75));
#585=CARTESIAN_POINT('',(2.24999999999999,30.,37.25));
#586=CARTESIAN_POINT('',(2.25,30.,2.75));
#587=CARTESIAN_POINT('',(2.24999999999999,0.,37.25));
#588=CARTESIAN_POINT('',(2.25,16.,18.5));
#589=CARTESIAN_POINT('Origin',(2.25,18.5,18.5));
#590=CARTESIAN_POINT('Origin',(37.75,0.,2.75));
#591=CARTESIAN_POINT('',(37.75,0.,2.74999999999999));
#592=CARTESIAN_POINT('',(18.875,5.45278915504636E-32,2.75));
#593=CARTESIAN_POINT('',(37.75,30.,2.74999999999999));
#594=CARTESIAN_POINT('',(37.75,0.,2.74999999999999));
#595=CARTESIAN_POINT('',(37.75,30.,2.75));
#596=CARTESIAN_POINT('Origin',(37.75,0.,37.25));
#597=CARTESIAN_POINT('',(37.75,0.,37.25));
#598=CARTESIAN_POINT('',(37.75,1.09055783100927E-31,18.625));
#599=CARTESIAN_POINT('',(37.75,30.,37.25));
#600=CARTESIAN_POINT('',(37.75,0.,37.25));
#601=CARTESIAN_POINT('',(37.75,30.,37.25));
#602=CARTESIAN_POINT('',(37.75,16.,18.5));
#603=CARTESIAN_POINT('Origin',(37.75,18.5,18.5));
#604=CARTESIAN_POINT('Origin',(2.24999999999999,0.,37.25));
#605=CARTESIAN_POINT('',(1.125,3.25000678115345E-33,37.25));
#606=CARTESIAN_POINT('',(2.24999999999999,30.,37.25));
#607=CARTESIAN_POINT('Origin',(20.,30.,20.));
#608=CARTESIAN_POINT('',(29.,30.,18.5));
#609=CARTESIAN_POINT('Origin',(20.,30.,18.5));
#610=CARTESIAN_POINT('Origin',(40.,18.5,18.5));
#611=CARTESIAN_POINT('',(40.,16.,18.5));
#612=CARTESIAN_POINT('Origin',(40.,18.5,18.5));
#613=CARTESIAN_POINT('',(40.,16.,18.5));
#614=CARTESIAN_POINT('Origin',(40.,18.5,18.5));
#615=CARTESIAN_POINT('',(0.,16.,18.5));
#616=CARTESIAN_POINT('',(40.,16.,18.5));
#617=CARTESIAN_POINT('Origin',(0.,18.5,18.5));
#618=CARTESIAN_POINT('Origin',(20.,40.,18.5));
#619=CARTESIAN_POINT('',(29.,40.,18.5));
#620=CARTESIAN_POINT('Origin',(20.,40.,18.5));
#621=CARTESIAN_POINT('',(29.,40.,18.5));
#622=CARTESIAN_POINT('Origin',(40.,40.,0.));
#623=CARTESIAN_POINT('',(40.,40.,0.));
#624=CARTESIAN_POINT('',(-1.15555796663234E-31,40.,0.));
#625=CARTESIAN_POINT('',(40.,40.,0.));
#626=CARTESIAN_POINT('',(-1.15555796663234E-31,40.,40.));
#627=CARTESIAN_POINT('',(-1.15555796663234E-31,40.,0.));
#628=CARTESIAN_POINT('',(40.,40.,40.));
#629=CARTESIAN_POINT('',(40.,40.,40.));
#630=CARTESIAN_POINT('',(40.,40.,0.));
#631=CARTESIAN_POINT('Origin',(40.,1.15555796663234E-31,0.));
#632=CARTESIAN_POINT('',(40.,1.15555796663234E-31,0.));
#633=CARTESIAN_POINT('',(40.,1.15555796663234E-31,0.));
#634=CARTESIAN_POINT('',(40.,0.,40.));
#635=CARTESIAN_POINT('',(40.,1.15555796663234E-31,40.));
#636=CARTESIAN_POINT('',(40.,1.15555796663234E-31,0.));
#637=CARTESIAN_POINT('Origin',(0.,0.,0.));
#638=CARTESIAN_POINT('',(0.,0.,0.));
#639=CARTESIAN_POINT('',(0.,0.,0.));
#640=CARTESIAN_POINT('',(0.,0.,40.));
#641=CARTESIAN_POINT('',(0.,0.,40.));
#642=CARTESIAN_POINT('',(0.,0.,0.));
#643=CARTESIAN_POINT('Origin',(-1.15555796663234E-31,40.,0.));
#644=CARTESIAN_POINT('',(-1.15555796663234E-31,40.,0.));
#645=CARTESIAN_POINT('',(-1.15555796663234E-31,40.,40.));
#646=CARTESIAN_POINT('',(-1.15555796663234E-31,40.,0.));
#647=CARTESIAN_POINT('Origin',(20.,20.,40.));
#648=CARTESIAN_POINT('Origin',(20.,20.,0.));
#649=UNCERTAINTY_MEASURE_WITH_UNIT(LENGTH_MEASURE(0.01),#653,
'DISTANCE_ACCURACY_VALUE',
'Maximum model space distance between geometric entities at asserted c
onnectivities');
#650=UNCERTAINTY_MEASURE_WITH_UNIT(LENGTH_MEASURE(0.01),#653,
'DISTANCE_ACCURACY_VALUE',
'Maximum model space distance between geometric entities at asserted c
onnectivities');
#651=(
GEOMETRIC_REPRESENTATION_CONTEXT(3)
GLOBAL_UNCERTAINTY_ASSIGNED_CONTEXT((#649))
GLOBAL_UNIT_ASSIGNED_CONTEXT((#653,#655,#656))
REPRESENTATION_CONTEXT('','3D')
);
#652=(
GEOMETRIC_REPRESENTATION_CONTEXT(3)
GLOBAL_UNCERTAINTY_ASSIGNED_CONTEXT((#650))
GLOBAL_UNIT_ASSIGNED_CONTEXT((#653,#655,#656))
REPRESENTATION_CONTEXT('','3D')
);
#653=(
LENGTH_UNIT()
NAMED_UNIT(*)
SI_UNIT(.MILLI.,.METRE.)
);
#654=(
LENGTH_UNIT()
NAMED_UNIT(*)
SI_UNIT($,.METRE.)
);
#655=(
NAMED_UNIT(*)
PLANE_ANGLE_UNIT()
SI_UNIT($,.RADIAN.)
);
#656=(
NAMED_UNIT(*)
SI_UNIT($,.STERADIAN.)
SOLID_ANGLE_UNIT()
);
#657=SHAPE_DEFINITION_REPRESENTATION(#658,#659);
#658=PRODUCT_DEFINITION_SHAPE('',$,#661);
#659=SHAPE_REPRESENTATION('',(#409),#651);
#660=PRODUCT_DEFINITION_CONTEXT('part definition',#665,'design');
#661=PRODUCT_DEFINITION('camera mount','camera mount',#662,#660);
#662=PRODUCT_DEFINITION_FORMATION('',$,#667);
#663=PRODUCT_RELATED_PRODUCT_CATEGORY('camera mount','camera mount',(#667));
#664=APPLICATION_PROTOCOL_DEFINITION('international standard',
'automotive_design',2009,#665);
#665=APPLICATION_CONTEXT(
'Core Data for Automotive Mechanical Design Process');
#666=PRODUCT_CONTEXT('part definition',#665,'mechanical');
#667=PRODUCT('camera mount','camera mount',$,(#666));
#668=PRESENTATION_STYLE_ASSIGNMENT((#670));
#669=PRESENTATION_STYLE_ASSIGNMENT((#671));
#670=SURFACE_STYLE_USAGE(.BOTH.,#672);
#671=SURFACE_STYLE_USAGE(.BOTH.,#673);
#672=SURFACE_SIDE_STYLE('',(#674));
#673=SURFACE_SIDE_STYLE('',(#675));
#674=SURFACE_STYLE_FILL_AREA(#676);
#675=SURFACE_STYLE_FILL_AREA(#677);
#676=FILL_AREA_STYLE('Steel - Satin',(#678));
#677=FILL_AREA_STYLE('Opaque(246,246,243)',(#679));
#678=FILL_AREA_STYLE_COLOUR('Steel - Satin',#680);
#679=FILL_AREA_STYLE_COLOUR('Opaque(246,246,243)',#681);
#680=COLOUR_RGB('Steel - Satin',0.627450980392157,0.627450980392157,0.627450980392157);
#681=COLOUR_RGB('Opaque(246,246,243)',0.964705882352941,0.964705882352941,
0.952941176470588);
ENDSEC;
END-ISO-10303-21;
