ISO-10303-21;
HEADER;
/* Generated by software containing ST-Developer
 * from STEP Tools, Inc. (www.steptools.com) 
 */

FILE_DESCRIPTION(
/* description */ (''),
/* implementation_level */ '2;1');

FILE_NAME(
/* name */ 'Pipette Holder for 1000microliter tips.step',
/* time_stamp */ '2026-09-15T03:03:33+08:00',
/* author */ (''),
/* organization */ (''),
/* preprocessor_version */ 'ST-DEVELOPER v20.1',
/* originating_system */ 'Autodesk Translation Framework v15.8.0.0',
/* authorisation */ '');

FILE_SCHEMA (('AUTOMOTIVE_DESIGN { 1 0 10303 214 3 1 1 }'));
ENDSEC;

DATA;
#10=MECHANICAL_DESIGN_GEOMETRIC_PRESENTATION_REPRESENTATION('',(#13),#2086);
#11=SHAPE_REPRESENTATION_RELATIONSHIP('SRR','None',#2093,#12);
#12=ADVANCED_BREP_SHAPE_REPRESENTATION('',(#14),#2085);
#13=STYLED_ITEM('',(#2103),#14);
#14=MANIFOLD_SOLID_BREP('Body1',#1254);
#15=CYLINDRICAL_SURFACE('',#1324,4.25);
#16=CYLINDRICAL_SURFACE('',#1326,4.25);
#17=CYLINDRICAL_SURFACE('',#1328,4.25);
#18=CYLINDRICAL_SURFACE('',#1330,4.25);
#19=CYLINDRICAL_SURFACE('',#1332,4.25);
#20=CYLINDRICAL_SURFACE('',#1334,4.25);
#21=CYLINDRICAL_SURFACE('',#1336,4.25);
#22=CYLINDRICAL_SURFACE('',#1338,4.25);
#23=CYLINDRICAL_SURFACE('',#1340,4.25);
#24=CYLINDRICAL_SURFACE('',#1342,4.25);
#25=CYLINDRICAL_SURFACE('',#1344,4.25);
#26=CYLINDRICAL_SURFACE('',#1346,4.25);
#27=CYLINDRICAL_SURFACE('',#1348,4.25);
#28=CYLINDRICAL_SURFACE('',#1350,4.25);
#29=CYLINDRICAL_SURFACE('',#1352,4.25);
#30=CYLINDRICAL_SURFACE('',#1354,4.25);
#31=CYLINDRICAL_SURFACE('',#1356,4.25);
#32=CYLINDRICAL_SURFACE('',#1358,4.25);
#33=CYLINDRICAL_SURFACE('',#1360,4.25);
#34=CYLINDRICAL_SURFACE('',#1362,4.25);
#35=CYLINDRICAL_SURFACE('',#1364,4.25);
#36=CYLINDRICAL_SURFACE('',#1366,4.25);
#37=CYLINDRICAL_SURFACE('',#1368,4.25);
#38=CYLINDRICAL_SURFACE('',#1370,4.25);
#39=CYLINDRICAL_SURFACE('',#1372,4.25);
#40=CYLINDRICAL_SURFACE('',#1374,4.25);
#41=CYLINDRICAL_SURFACE('',#1376,4.25);
#42=CYLINDRICAL_SURFACE('',#1378,4.25);
#43=CYLINDRICAL_SURFACE('',#1380,4.25);
#44=CYLINDRICAL_SURFACE('',#1382,4.25);
#45=CYLINDRICAL_SURFACE('',#1384,4.25);
#46=CYLINDRICAL_SURFACE('',#1386,4.25);
#47=CYLINDRICAL_SURFACE('',#1388,4.25);
#48=CYLINDRICAL_SURFACE('',#1390,4.25);
#49=CYLINDRICAL_SURFACE('',#1392,4.25);
#50=CIRCLE('',#1288,4.25);
#51=CIRCLE('',#1289,4.25);
#52=CIRCLE('',#1290,4.25);
#53=CIRCLE('',#1291,4.25);
#54=CIRCLE('',#1292,4.25);
#55=CIRCLE('',#1293,4.25);
#56=CIRCLE('',#1294,4.25);
#57=CIRCLE('',#1295,4.25);
#58=CIRCLE('',#1296,4.25);
#59=CIRCLE('',#1297,4.25);
#60=CIRCLE('',#1298,4.25);
#61=CIRCLE('',#1299,4.25);
#62=CIRCLE('',#1300,4.25);
#63=CIRCLE('',#1301,4.25);
#64=CIRCLE('',#1302,4.25);
#65=CIRCLE('',#1303,4.25);
#66=CIRCLE('',#1304,4.25);
#67=CIRCLE('',#1305,4.25);
#68=CIRCLE('',#1306,4.25);
#69=CIRCLE('',#1307,4.25);
#70=CIRCLE('',#1308,4.25);
#71=CIRCLE('',#1309,4.25);
#72=CIRCLE('',#1310,4.25);
#73=CIRCLE('',#1311,4.25);
#74=CIRCLE('',#1312,4.25);
#75=CIRCLE('',#1313,4.25);
#76=CIRCLE('',#1314,4.25);
#77=CIRCLE('',#1315,4.25);
#78=CIRCLE('',#1316,4.25);
#79=CIRCLE('',#1317,4.25);
#80=CIRCLE('',#1318,4.25);
#81=CIRCLE('',#1319,4.25);
#82=CIRCLE('',#1320,4.25);
#83=CIRCLE('',#1321,4.25);
#84=CIRCLE('',#1322,4.25);
#85=CIRCLE('',#1325,4.25);
#86=CIRCLE('',#1327,4.25);
#87=CIRCLE('',#1329,4.25);
#88=CIRCLE('',#1331,4.25);
#89=CIRCLE('',#1333,4.25);
#90=CIRCLE('',#1335,4.25);
#91=CIRCLE('',#1337,4.25);
#92=CIRCLE('',#1339,4.25);
#93=CIRCLE('',#1341,4.25);
#94=CIRCLE('',#1343,4.25);
#95=CIRCLE('',#1345,4.25);
#96=CIRCLE('',#1347,4.25);
#97=CIRCLE('',#1349,4.25);
#98=CIRCLE('',#1351,4.25);
#99=CIRCLE('',#1353,4.25);
#100=CIRCLE('',#1355,4.25);
#101=CIRCLE('',#1357,4.25);
#102=CIRCLE('',#1359,4.25);
#103=CIRCLE('',#1361,4.25);
#104=CIRCLE('',#1363,4.25);
#105=CIRCLE('',#1365,4.25);
#106=CIRCLE('',#1367,4.25);
#107=CIRCLE('',#1369,4.25);
#108=CIRCLE('',#1371,4.25);
#109=CIRCLE('',#1373,4.25);
#110=CIRCLE('',#1375,4.25);
#111=CIRCLE('',#1377,4.25);
#112=CIRCLE('',#1379,4.25);
#113=CIRCLE('',#1381,4.25);
#114=CIRCLE('',#1383,4.25);
#115=CIRCLE('',#1385,4.25);
#116=CIRCLE('',#1387,4.25);
#117=CIRCLE('',#1389,4.25);
#118=CIRCLE('',#1391,4.25);
#119=CIRCLE('',#1393,4.25);
#120=FACE_BOUND('',#268,.T.);
#121=FACE_BOUND('',#270,.T.);
#122=FACE_BOUND('',#271,.T.);
#123=FACE_BOUND('',#272,.T.);
#124=FACE_BOUND('',#273,.T.);
#125=FACE_BOUND('',#274,.T.);
#126=FACE_BOUND('',#275,.T.);
#127=FACE_BOUND('',#276,.T.);
#128=FACE_BOUND('',#277,.T.);
#129=FACE_BOUND('',#278,.T.);
#130=FACE_BOUND('',#279,.T.);
#131=FACE_BOUND('',#280,.T.);
#132=FACE_BOUND('',#281,.T.);
#133=FACE_BOUND('',#282,.T.);
#134=FACE_BOUND('',#283,.T.);
#135=FACE_BOUND('',#284,.T.);
#136=FACE_BOUND('',#285,.T.);
#137=FACE_BOUND('',#286,.T.);
#138=FACE_BOUND('',#287,.T.);
#139=FACE_BOUND('',#288,.T.);
#140=FACE_BOUND('',#289,.T.);
#141=FACE_BOUND('',#290,.T.);
#142=FACE_BOUND('',#291,.T.);
#143=FACE_BOUND('',#292,.T.);
#144=FACE_BOUND('',#293,.T.);
#145=FACE_BOUND('',#294,.T.);
#146=FACE_BOUND('',#295,.T.);
#147=FACE_BOUND('',#296,.T.);
#148=FACE_BOUND('',#297,.T.);
#149=FACE_BOUND('',#298,.T.);
#150=FACE_BOUND('',#299,.T.);
#151=FACE_BOUND('',#300,.T.);
#152=FACE_BOUND('',#301,.T.);
#153=FACE_BOUND('',#302,.T.);
#154=FACE_BOUND('',#303,.T.);
#155=FACE_BOUND('',#304,.T.);
#156=FACE_BOUND('',#343,.T.);
#157=FACE_BOUND('',#344,.T.);
#158=FACE_BOUND('',#345,.T.);
#159=FACE_BOUND('',#346,.T.);
#160=FACE_BOUND('',#347,.T.);
#161=FACE_BOUND('',#348,.T.);
#162=FACE_BOUND('',#349,.T.);
#163=FACE_BOUND('',#350,.T.);
#164=FACE_BOUND('',#351,.T.);
#165=FACE_BOUND('',#352,.T.);
#166=FACE_BOUND('',#353,.T.);
#167=FACE_BOUND('',#354,.T.);
#168=FACE_BOUND('',#355,.T.);
#169=FACE_BOUND('',#356,.T.);
#170=FACE_BOUND('',#357,.T.);
#171=FACE_BOUND('',#358,.T.);
#172=FACE_BOUND('',#359,.T.);
#173=FACE_BOUND('',#360,.T.);
#174=FACE_BOUND('',#361,.T.);
#175=FACE_BOUND('',#362,.T.);
#176=FACE_BOUND('',#363,.T.);
#177=FACE_BOUND('',#364,.T.);
#178=FACE_BOUND('',#365,.T.);
#179=FACE_BOUND('',#366,.T.);
#180=FACE_BOUND('',#367,.T.);
#181=FACE_BOUND('',#368,.T.);
#182=FACE_BOUND('',#369,.T.);
#183=FACE_BOUND('',#370,.T.);
#184=FACE_BOUND('',#371,.T.);
#185=FACE_BOUND('',#372,.T.);
#186=FACE_BOUND('',#373,.T.);
#187=FACE_BOUND('',#374,.T.);
#188=FACE_BOUND('',#375,.T.);
#189=FACE_BOUND('',#376,.T.);
#190=FACE_BOUND('',#377,.T.);
#191=FACE_OUTER_BOUND('',#249,.T.);
#192=FACE_OUTER_BOUND('',#250,.T.);
#193=FACE_OUTER_BOUND('',#251,.T.);
#194=FACE_OUTER_BOUND('',#252,.T.);
#195=FACE_OUTER_BOUND('',#253,.T.);
#196=FACE_OUTER_BOUND('',#254,.T.);
#197=FACE_OUTER_BOUND('',#255,.T.);
#198=FACE_OUTER_BOUND('',#256,.T.);
#199=FACE_OUTER_BOUND('',#257,.T.);
#200=FACE_OUTER_BOUND('',#258,.T.);
#201=FACE_OUTER_BOUND('',#259,.T.);
#202=FACE_OUTER_BOUND('',#260,.T.);
#203=FACE_OUTER_BOUND('',#261,.T.);
#204=FACE_OUTER_BOUND('',#262,.T.);
#205=FACE_OUTER_BOUND('',#263,.T.);
#206=FACE_OUTER_BOUND('',#264,.T.);
#207=FACE_OUTER_BOUND('',#265,.T.);
#208=FACE_OUTER_BOUND('',#266,.T.);
#209=FACE_OUTER_BOUND('',#267,.T.);
#210=FACE_OUTER_BOUND('',#269,.T.);
#211=FACE_OUTER_BOUND('',#305,.T.);
#212=FACE_OUTER_BOUND('',#306,.T.);
#213=FACE_OUTER_BOUND('',#307,.T.);
#214=FACE_OUTER_BOUND('',#308,.T.);
#215=FACE_OUTER_BOUND('',#309,.T.);
#216=FACE_OUTER_BOUND('',#310,.T.);
#217=FACE_OUTER_BOUND('',#311,.T.);
#218=FACE_OUTER_BOUND('',#312,.T.);
#219=FACE_OUTER_BOUND('',#313,.T.);
#220=FACE_OUTER_BOUND('',#314,.T.);
#221=FACE_OUTER_BOUND('',#315,.T.);
#222=FACE_OUTER_BOUND('',#316,.T.);
#223=FACE_OUTER_BOUND('',#317,.T.);
#224=FACE_OUTER_BOUND('',#318,.T.);
#225=FACE_OUTER_BOUND('',#319,.T.);
#226=FACE_OUTER_BOUND('',#320,.T.);
#227=FACE_OUTER_BOUND('',#321,.T.);
#228=FACE_OUTER_BOUND('',#322,.T.);
#229=FACE_OUTER_BOUND('',#323,.T.);
#230=FACE_OUTER_BOUND('',#324,.T.);
#231=FACE_OUTER_BOUND('',#325,.T.);
#232=FACE_OUTER_BOUND('',#326,.T.);
#233=FACE_OUTER_BOUND('',#327,.T.);
#234=FACE_OUTER_BOUND('',#328,.T.);
#235=FACE_OUTER_BOUND('',#329,.T.);
#236=FACE_OUTER_BOUND('',#330,.T.);
#237=FACE_OUTER_BOUND('',#331,.T.);
#238=FACE_OUTER_BOUND('',#332,.T.);
#239=FACE_OUTER_BOUND('',#333,.T.);
#240=FACE_OUTER_BOUND('',#334,.T.);
#241=FACE_OUTER_BOUND('',#335,.T.);
#242=FACE_OUTER_BOUND('',#336,.T.);
#243=FACE_OUTER_BOUND('',#337,.T.);
#244=FACE_OUTER_BOUND('',#338,.T.);
#245=FACE_OUTER_BOUND('',#339,.T.);
#246=FACE_OUTER_BOUND('',#340,.T.);
#247=FACE_OUTER_BOUND('',#341,.T.);
#248=FACE_OUTER_BOUND('',#342,.T.);
#249=EDGE_LOOP('',(#843,#844,#845,#846));
#250=EDGE_LOOP('',(#847,#848,#849,#850,#851,#852));
#251=EDGE_LOOP('',(#853,#854,#855,#856,#857,#858));
#252=EDGE_LOOP('',(#859,#860,#861,#862));
#253=EDGE_LOOP('',(#863,#864,#865,#866));
#254=EDGE_LOOP('',(#867,#868,#869,#870));
#255=EDGE_LOOP('',(#871,#872,#873,#874));
#256=EDGE_LOOP('',(#875,#876,#877,#878));
#257=EDGE_LOOP('',(#879,#880,#881,#882,#883,#884));
#258=EDGE_LOOP('',(#885,#886,#887,#888,#889,#890));
#259=EDGE_LOOP('',(#891,#892,#893,#894));
#260=EDGE_LOOP('',(#895,#896,#897,#898));
#261=EDGE_LOOP('',(#899,#900,#901,#902));
#262=EDGE_LOOP('',(#903,#904,#905,#906));
#263=EDGE_LOOP('',(#907,#908,#909,#910));
#264=EDGE_LOOP('',(#911,#912,#913,#914));
#265=EDGE_LOOP('',(#915,#916,#917,#918));
#266=EDGE_LOOP('',(#919,#920,#921,#922));
#267=EDGE_LOOP('',(#923,#924,#925,#926));
#268=EDGE_LOOP('',(#927,#928,#929,#930));
#269=EDGE_LOOP('',(#931,#932,#933,#934));
#270=EDGE_LOOP('',(#935));
#271=EDGE_LOOP('',(#936));
#272=EDGE_LOOP('',(#937));
#273=EDGE_LOOP('',(#938));
#274=EDGE_LOOP('',(#939));
#275=EDGE_LOOP('',(#940));
#276=EDGE_LOOP('',(#941));
#277=EDGE_LOOP('',(#942));
#278=EDGE_LOOP('',(#943));
#279=EDGE_LOOP('',(#944));
#280=EDGE_LOOP('',(#945));
#281=EDGE_LOOP('',(#946));
#282=EDGE_LOOP('',(#947));
#283=EDGE_LOOP('',(#948));
#284=EDGE_LOOP('',(#949));
#285=EDGE_LOOP('',(#950));
#286=EDGE_LOOP('',(#951));
#287=EDGE_LOOP('',(#952));
#288=EDGE_LOOP('',(#953));
#289=EDGE_LOOP('',(#954));
#290=EDGE_LOOP('',(#955));
#291=EDGE_LOOP('',(#956));
#292=EDGE_LOOP('',(#957));
#293=EDGE_LOOP('',(#958));
#294=EDGE_LOOP('',(#959));
#295=EDGE_LOOP('',(#960));
#296=EDGE_LOOP('',(#961));
#297=EDGE_LOOP('',(#962));
#298=EDGE_LOOP('',(#963));
#299=EDGE_LOOP('',(#964));
#300=EDGE_LOOP('',(#965));
#301=EDGE_LOOP('',(#966));
#302=EDGE_LOOP('',(#967));
#303=EDGE_LOOP('',(#968));
#304=EDGE_LOOP('',(#969));
#305=EDGE_LOOP('',(#970,#971,#972,#973,#974,#975,#976,#977,#978,#979,#980,
#981));
#306=EDGE_LOOP('',(#982,#983,#984,#985));
#307=EDGE_LOOP('',(#986,#987,#988,#989));
#308=EDGE_LOOP('',(#990,#991,#992,#993));
#309=EDGE_LOOP('',(#994,#995,#996,#997));
#310=EDGE_LOOP('',(#998,#999,#1000,#1001));
#311=EDGE_LOOP('',(#1002,#1003,#1004,#1005));
#312=EDGE_LOOP('',(#1006,#1007,#1008,#1009));
#313=EDGE_LOOP('',(#1010,#1011,#1012,#1013));
#314=EDGE_LOOP('',(#1014,#1015,#1016,#1017));
#315=EDGE_LOOP('',(#1018,#1019,#1020,#1021));
#316=EDGE_LOOP('',(#1022,#1023,#1024,#1025));
#317=EDGE_LOOP('',(#1026,#1027,#1028,#1029));
#318=EDGE_LOOP('',(#1030,#1031,#1032,#1033));
#319=EDGE_LOOP('',(#1034,#1035,#1036,#1037));
#320=EDGE_LOOP('',(#1038,#1039,#1040,#1041));
#321=EDGE_LOOP('',(#1042,#1043,#1044,#1045));
#322=EDGE_LOOP('',(#1046,#1047,#1048,#1049));
#323=EDGE_LOOP('',(#1050,#1051,#1052,#1053));
#324=EDGE_LOOP('',(#1054,#1055,#1056,#1057));
#325=EDGE_LOOP('',(#1058,#1059,#1060,#1061));
#326=EDGE_LOOP('',(#1062,#1063,#1064,#1065));
#327=EDGE_LOOP('',(#1066,#1067,#1068,#1069));
#328=EDGE_LOOP('',(#1070,#1071,#1072,#1073));
#329=EDGE_LOOP('',(#1074,#1075,#1076,#1077));
#330=EDGE_LOOP('',(#1078,#1079,#1080,#1081));
#331=EDGE_LOOP('',(#1082,#1083,#1084,#1085));
#332=EDGE_LOOP('',(#1086,#1087,#1088,#1089));
#333=EDGE_LOOP('',(#1090,#1091,#1092,#1093));
#334=EDGE_LOOP('',(#1094,#1095,#1096,#1097));
#335=EDGE_LOOP('',(#1098,#1099,#1100,#1101));
#336=EDGE_LOOP('',(#1102,#1103,#1104,#1105));
#337=EDGE_LOOP('',(#1106,#1107,#1108,#1109));
#338=EDGE_LOOP('',(#1110,#1111,#1112,#1113));
#339=EDGE_LOOP('',(#1114,#1115,#1116,#1117));
#340=EDGE_LOOP('',(#1118,#1119,#1120,#1121));
#341=EDGE_LOOP('',(#1122,#1123,#1124,#1125,#1126,#1127,#1128,#1129,#1130,
#1131,#1132,#1133));
#342=EDGE_LOOP('',(#1134,#1135,#1136,#1137));
#343=EDGE_LOOP('',(#1138));
#344=EDGE_LOOP('',(#1139));
#345=EDGE_LOOP('',(#1140));
#346=EDGE_LOOP('',(#1141));
#347=EDGE_LOOP('',(#1142));
#348=EDGE_LOOP('',(#1143));
#349=EDGE_LOOP('',(#1144));
#350=EDGE_LOOP('',(#1145));
#351=EDGE_LOOP('',(#1146));
#352=EDGE_LOOP('',(#1147));
#353=EDGE_LOOP('',(#1148));
#354=EDGE_LOOP('',(#1149));
#355=EDGE_LOOP('',(#1150));
#356=EDGE_LOOP('',(#1151));
#357=EDGE_LOOP('',(#1152));
#358=EDGE_LOOP('',(#1153));
#359=EDGE_LOOP('',(#1154));
#360=EDGE_LOOP('',(#1155));
#361=EDGE_LOOP('',(#1156));
#362=EDGE_LOOP('',(#1157));
#363=EDGE_LOOP('',(#1158));
#364=EDGE_LOOP('',(#1159));
#365=EDGE_LOOP('',(#1160));
#366=EDGE_LOOP('',(#1161));
#367=EDGE_LOOP('',(#1162));
#368=EDGE_LOOP('',(#1163));
#369=EDGE_LOOP('',(#1164));
#370=EDGE_LOOP('',(#1165));
#371=EDGE_LOOP('',(#1166));
#372=EDGE_LOOP('',(#1167));
#373=EDGE_LOOP('',(#1168));
#374=EDGE_LOOP('',(#1169));
#375=EDGE_LOOP('',(#1170));
#376=EDGE_LOOP('',(#1171));
#377=EDGE_LOOP('',(#1172));
#378=LINE('',#1753,#473);
#379=LINE('',#1755,#474);
#380=LINE('',#1757,#475);
#381=LINE('',#1758,#476);
#382=LINE('',#1762,#477);
#383=LINE('',#1764,#478);
#384=LINE('',#1765,#479);
#385=LINE('',#1767,#480);
#386=LINE('',#1768,#481);
#387=LINE('',#1772,#482);
#388=LINE('',#1774,#483);
#389=LINE('',#1775,#484);
#390=LINE('',#1777,#485);
#391=LINE('',#1778,#486);
#392=LINE('',#1780,#487);
#393=LINE('',#1781,#488);
#394=LINE('',#1785,#489);
#395=LINE('',#1787,#490);
#396=LINE('',#1788,#491);
#397=LINE('',#1791,#492);
#398=LINE('',#1793,#493);
#399=LINE('',#1794,#494);
#400=LINE('',#1798,#495);
#401=LINE('',#1800,#496);
#402=LINE('',#1802,#497);
#403=LINE('',#1803,#498);
#404=LINE('',#1807,#499);
#405=LINE('',#1809,#500);
#406=LINE('',#1810,#501);
#407=LINE('',#1812,#502);
#408=LINE('',#1813,#503);
#409=LINE('',#1817,#504);
#410=LINE('',#1819,#505);
#411=LINE('',#1820,#506);
#412=LINE('',#1822,#507);
#413=LINE('',#1823,#508);
#414=LINE('',#1825,#509);
#415=LINE('',#1826,#510);
#416=LINE('',#1830,#511);
#417=LINE('',#1832,#512);
#418=LINE('',#1833,#513);
#419=LINE('',#1836,#514);
#420=LINE('',#1838,#515);
#421=LINE('',#1839,#516);
#422=LINE('',#1843,#517);
#423=LINE('',#1845,#518);
#424=LINE('',#1847,#519);
#425=LINE('',#1848,#520);
#426=LINE('',#1851,#521);
#427=LINE('',#1853,#522);
#428=LINE('',#1854,#523);
#429=LINE('',#1857,#524);
#430=LINE('',#1859,#525);
#431=LINE('',#1860,#526);
#432=LINE('',#1862,#527);
#433=LINE('',#1863,#528);
#434=LINE('',#1865,#529);
#435=LINE('',#1866,#530);
#436=LINE('',#1939,#531);
#437=LINE('',#1942,#532);
#438=LINE('',#1946,#533);
#439=LINE('',#1950,#534);
#440=LINE('',#1954,#535);
#441=LINE('',#1958,#536);
#442=LINE('',#1962,#537);
#443=LINE('',#1966,#538);
#444=LINE('',#1970,#539);
#445=LINE('',#1974,#540);
#446=LINE('',#1978,#541);
#447=LINE('',#1982,#542);
#448=LINE('',#1986,#543);
#449=LINE('',#1990,#544);
#450=LINE('',#1994,#545);
#451=LINE('',#1998,#546);
#452=LINE('',#2002,#547);
#453=LINE('',#2006,#548);
#454=LINE('',#2010,#549);
#455=LINE('',#2014,#550);
#456=LINE('',#2018,#551);
#457=LINE('',#2022,#552);
#458=LINE('',#2026,#553);
#459=LINE('',#2030,#554);
#460=LINE('',#2034,#555);
#461=LINE('',#2038,#556);
#462=LINE('',#2042,#557);
#463=LINE('',#2046,#558);
#464=LINE('',#2050,#559);
#465=LINE('',#2054,#560);
#466=LINE('',#2058,#561);
#467=LINE('',#2062,#562);
#468=LINE('',#2066,#563);
#469=LINE('',#2070,#564);
#470=LINE('',#2074,#565);
#471=LINE('',#2078,#566);
#472=LINE('',#2081,#567);
#473=VECTOR('',#1400,10.);
#474=VECTOR('',#1401,10.);
#475=VECTOR('',#1402,10.);
#476=VECTOR('',#1403,10.);
#477=VECTOR('',#1406,10.);
#478=VECTOR('',#1407,10.);
#479=VECTOR('',#1408,10.);
#480=VECTOR('',#1409,10.);
#481=VECTOR('',#1410,10.);
#482=VECTOR('',#1413,10.);
#483=VECTOR('',#1414,10.);
#484=VECTOR('',#1415,10.);
#485=VECTOR('',#1416,10.);
#486=VECTOR('',#1417,10.);
#487=VECTOR('',#1420,10.);
#488=VECTOR('',#1421,10.);
#489=VECTOR('',#1426,10.);
#490=VECTOR('',#1427,10.);
#491=VECTOR('',#1428,10.);
#492=VECTOR('',#1431,10.);
#493=VECTOR('',#1432,10.);
#494=VECTOR('',#1433,10.);
#495=VECTOR('',#1436,10.);
#496=VECTOR('',#1437,10.);
#497=VECTOR('',#1438,10.);
#498=VECTOR('',#1439,10.);
#499=VECTOR('',#1442,10.);
#500=VECTOR('',#1443,10.);
#501=VECTOR('',#1444,10.);
#502=VECTOR('',#1445,10.);
#503=VECTOR('',#1446,10.);
#504=VECTOR('',#1449,10.);
#505=VECTOR('',#1450,10.);
#506=VECTOR('',#1451,10.);
#507=VECTOR('',#1452,10.);
#508=VECTOR('',#1453,10.);
#509=VECTOR('',#1456,10.);
#510=VECTOR('',#1457,10.);
#511=VECTOR('',#1462,10.);
#512=VECTOR('',#1463,10.);
#513=VECTOR('',#1464,10.);
#514=VECTOR('',#1467,10.);
#515=VECTOR('',#1468,10.);
#516=VECTOR('',#1469,10.);
#517=VECTOR('',#1472,10.);
#518=VECTOR('',#1473,10.);
#519=VECTOR('',#1474,10.);
#520=VECTOR('',#1475,10.);
#521=VECTOR('',#1478,10.);
#522=VECTOR('',#1479,10.);
#523=VECTOR('',#1480,10.);
#524=VECTOR('',#1483,10.);
#525=VECTOR('',#1484,10.);
#526=VECTOR('',#1485,10.);
#527=VECTOR('',#1488,10.);
#528=VECTOR('',#1489,10.);
#529=VECTOR('',#1492,10.);
#530=VECTOR('',#1493,10.);
#531=VECTOR('',#1568,10.);
#532=VECTOR('',#1571,4.25);
#533=VECTOR('',#1576,4.25);
#534=VECTOR('',#1581,4.25);
#535=VECTOR('',#1586,4.25);
#536=VECTOR('',#1591,4.25);
#537=VECTOR('',#1596,4.25);
#538=VECTOR('',#1601,4.25);
#539=VECTOR('',#1606,4.25);
#540=VECTOR('',#1611,4.25);
#541=VECTOR('',#1616,4.25);
#542=VECTOR('',#1621,4.25);
#543=VECTOR('',#1626,4.25);
#544=VECTOR('',#1631,4.25);
#545=VECTOR('',#1636,4.25);
#546=VECTOR('',#1641,4.25);
#547=VECTOR('',#1646,4.25);
#548=VECTOR('',#1651,4.25);
#549=VECTOR('',#1656,4.25);
#550=VECTOR('',#1661,4.25);
#551=VECTOR('',#1666,4.25);
#552=VECTOR('',#1671,4.25);
#553=VECTOR('',#1676,4.25);
#554=VECTOR('',#1681,4.25);
#555=VECTOR('',#1686,4.25);
#556=VECTOR('',#1691,4.25);
#557=VECTOR('',#1696,4.25);
#558=VECTOR('',#1701,4.25);
#559=VECTOR('',#1706,4.25);
#560=VECTOR('',#1711,4.25);
#561=VECTOR('',#1716,4.25);
#562=VECTOR('',#1721,4.25);
#563=VECTOR('',#1726,4.25);
#564=VECTOR('',#1731,4.25);
#565=VECTOR('',#1736,4.25);
#566=VECTOR('',#1741,4.25);
#567=VECTOR('',#1746,10.);
#568=VERTEX_POINT('',#1751);
#569=VERTEX_POINT('',#1752);
#570=VERTEX_POINT('',#1754);
#571=VERTEX_POINT('',#1756);
#572=VERTEX_POINT('',#1760);
#573=VERTEX_POINT('',#1761);
#574=VERTEX_POINT('',#1763);
#575=VERTEX_POINT('',#1766);
#576=VERTEX_POINT('',#1770);
#577=VERTEX_POINT('',#1771);
#578=VERTEX_POINT('',#1773);
#579=VERTEX_POINT('',#1776);
#580=VERTEX_POINT('',#1784);
#581=VERTEX_POINT('',#1786);
#582=VERTEX_POINT('',#1790);
#583=VERTEX_POINT('',#1792);
#584=VERTEX_POINT('',#1796);
#585=VERTEX_POINT('',#1797);
#586=VERTEX_POINT('',#1799);
#587=VERTEX_POINT('',#1801);
#588=VERTEX_POINT('',#1805);
#589=VERTEX_POINT('',#1806);
#590=VERTEX_POINT('',#1808);
#591=VERTEX_POINT('',#1811);
#592=VERTEX_POINT('',#1815);
#593=VERTEX_POINT('',#1816);
#594=VERTEX_POINT('',#1818);
#595=VERTEX_POINT('',#1821);
#596=VERTEX_POINT('',#1829);
#597=VERTEX_POINT('',#1831);
#598=VERTEX_POINT('',#1835);
#599=VERTEX_POINT('',#1837);
#600=VERTEX_POINT('',#1841);
#601=VERTEX_POINT('',#1842);
#602=VERTEX_POINT('',#1844);
#603=VERTEX_POINT('',#1846);
#604=VERTEX_POINT('',#1850);
#605=VERTEX_POINT('',#1852);
#606=VERTEX_POINT('',#1856);
#607=VERTEX_POINT('',#1858);
#608=VERTEX_POINT('',#1868);
#609=VERTEX_POINT('',#1870);
#610=VERTEX_POINT('',#1872);
#611=VERTEX_POINT('',#1874);
#612=VERTEX_POINT('',#1876);
#613=VERTEX_POINT('',#1878);
#614=VERTEX_POINT('',#1880);
#615=VERTEX_POINT('',#1882);
#616=VERTEX_POINT('',#1884);
#617=VERTEX_POINT('',#1886);
#618=VERTEX_POINT('',#1888);
#619=VERTEX_POINT('',#1890);
#620=VERTEX_POINT('',#1892);
#621=VERTEX_POINT('',#1894);
#622=VERTEX_POINT('',#1896);
#623=VERTEX_POINT('',#1898);
#624=VERTEX_POINT('',#1900);
#625=VERTEX_POINT('',#1902);
#626=VERTEX_POINT('',#1904);
#627=VERTEX_POINT('',#1906);
#628=VERTEX_POINT('',#1908);
#629=VERTEX_POINT('',#1910);
#630=VERTEX_POINT('',#1912);
#631=VERTEX_POINT('',#1914);
#632=VERTEX_POINT('',#1916);
#633=VERTEX_POINT('',#1918);
#634=VERTEX_POINT('',#1920);
#635=VERTEX_POINT('',#1922);
#636=VERTEX_POINT('',#1924);
#637=VERTEX_POINT('',#1926);
#638=VERTEX_POINT('',#1928);
#639=VERTEX_POINT('',#1930);
#640=VERTEX_POINT('',#1932);
#641=VERTEX_POINT('',#1934);
#642=VERTEX_POINT('',#1936);
#643=VERTEX_POINT('',#1941);
#644=VERTEX_POINT('',#1945);
#645=VERTEX_POINT('',#1949);
#646=VERTEX_POINT('',#1953);
#647=VERTEX_POINT('',#1957);
#648=VERTEX_POINT('',#1961);
#649=VERTEX_POINT('',#1965);
#650=VERTEX_POINT('',#1969);
#651=VERTEX_POINT('',#1973);
#652=VERTEX_POINT('',#1977);
#653=VERTEX_POINT('',#1981);
#654=VERTEX_POINT('',#1985);
#655=VERTEX_POINT('',#1989);
#656=VERTEX_POINT('',#1993);
#657=VERTEX_POINT('',#1997);
#658=VERTEX_POINT('',#2001);
#659=VERTEX_POINT('',#2005);
#660=VERTEX_POINT('',#2009);
#661=VERTEX_POINT('',#2013);
#662=VERTEX_POINT('',#2017);
#663=VERTEX_POINT('',#2021);
#664=VERTEX_POINT('',#2025);
#665=VERTEX_POINT('',#2029);
#666=VERTEX_POINT('',#2033);
#667=VERTEX_POINT('',#2037);
#668=VERTEX_POINT('',#2041);
#669=VERTEX_POINT('',#2045);
#670=VERTEX_POINT('',#2049);
#671=VERTEX_POINT('',#2053);
#672=VERTEX_POINT('',#2057);
#673=VERTEX_POINT('',#2061);
#674=VERTEX_POINT('',#2065);
#675=VERTEX_POINT('',#2069);
#676=VERTEX_POINT('',#2073);
#677=VERTEX_POINT('',#2077);
#678=EDGE_CURVE('',#568,#569,#378,.T.);
#679=EDGE_CURVE('',#568,#570,#379,.T.);
#680=EDGE_CURVE('',#571,#570,#380,.T.);
#681=EDGE_CURVE('',#569,#571,#381,.T.);
#682=EDGE_CURVE('',#572,#573,#382,.T.);
#683=EDGE_CURVE('',#573,#574,#383,.T.);
#684=EDGE_CURVE('',#570,#574,#384,.T.);
#685=EDGE_CURVE('',#568,#575,#385,.T.);
#686=EDGE_CURVE('',#572,#575,#386,.F.);
#687=EDGE_CURVE('',#576,#577,#387,.T.);
#688=EDGE_CURVE('',#578,#577,#388,.F.);
#689=EDGE_CURVE('',#569,#578,#389,.T.);
#690=EDGE_CURVE('',#579,#571,#390,.T.);
#691=EDGE_CURVE('',#576,#579,#391,.T.);
#692=EDGE_CURVE('',#573,#576,#392,.T.);
#693=EDGE_CURVE('',#574,#579,#393,.T.);
#694=EDGE_CURVE('',#580,#575,#394,.F.);
#695=EDGE_CURVE('',#581,#580,#395,.F.);
#696=EDGE_CURVE('',#581,#572,#396,.T.);
#697=EDGE_CURVE('',#577,#582,#397,.T.);
#698=EDGE_CURVE('',#583,#582,#398,.F.);
#699=EDGE_CURVE('',#578,#583,#399,.F.);
#700=EDGE_CURVE('',#584,#585,#400,.T.);
#701=EDGE_CURVE('',#585,#586,#401,.T.);
#702=EDGE_CURVE('',#587,#586,#402,.T.);
#703=EDGE_CURVE('',#584,#587,#403,.T.);
#704=EDGE_CURVE('',#588,#589,#404,.T.);
#705=EDGE_CURVE('',#589,#590,#405,.T.);
#706=EDGE_CURVE('',#586,#590,#406,.T.);
#707=EDGE_CURVE('',#585,#591,#407,.T.);
#708=EDGE_CURVE('',#588,#591,#408,.F.);
#709=EDGE_CURVE('',#592,#593,#409,.T.);
#710=EDGE_CURVE('',#594,#593,#410,.F.);
#711=EDGE_CURVE('',#584,#594,#411,.T.);
#712=EDGE_CURVE('',#595,#587,#412,.T.);
#713=EDGE_CURVE('',#592,#595,#413,.T.);
#714=EDGE_CURVE('',#589,#592,#414,.T.);
#715=EDGE_CURVE('',#590,#595,#415,.T.);
#716=EDGE_CURVE('',#591,#596,#416,.T.);
#717=EDGE_CURVE('',#597,#596,#417,.F.);
#718=EDGE_CURVE('',#588,#597,#418,.F.);
#719=EDGE_CURVE('',#598,#593,#419,.F.);
#720=EDGE_CURVE('',#599,#598,#420,.F.);
#721=EDGE_CURVE('',#599,#594,#421,.T.);
#722=EDGE_CURVE('',#600,#601,#422,.T.);
#723=EDGE_CURVE('',#600,#602,#423,.T.);
#724=EDGE_CURVE('',#603,#602,#424,.T.);
#725=EDGE_CURVE('',#601,#603,#425,.T.);
#726=EDGE_CURVE('',#601,#604,#426,.T.);
#727=EDGE_CURVE('',#605,#603,#427,.T.);
#728=EDGE_CURVE('',#604,#605,#428,.T.);
#729=EDGE_CURVE('',#604,#606,#429,.T.);
#730=EDGE_CURVE('',#607,#605,#430,.T.);
#731=EDGE_CURVE('',#606,#607,#431,.T.);
#732=EDGE_CURVE('',#606,#600,#432,.T.);
#733=EDGE_CURVE('',#602,#607,#433,.T.);
#734=EDGE_CURVE('',#598,#581,#434,.T.);
#735=EDGE_CURVE('',#580,#599,#435,.T.);
#736=EDGE_CURVE('',#608,#608,#50,.T.);
#737=EDGE_CURVE('',#609,#609,#51,.T.);
#738=EDGE_CURVE('',#610,#610,#52,.T.);
#739=EDGE_CURVE('',#611,#611,#53,.T.);
#740=EDGE_CURVE('',#612,#612,#54,.T.);
#741=EDGE_CURVE('',#613,#613,#55,.T.);
#742=EDGE_CURVE('',#614,#614,#56,.T.);
#743=EDGE_CURVE('',#615,#615,#57,.T.);
#744=EDGE_CURVE('',#616,#616,#58,.T.);
#745=EDGE_CURVE('',#617,#617,#59,.T.);
#746=EDGE_CURVE('',#618,#618,#60,.T.);
#747=EDGE_CURVE('',#619,#619,#61,.T.);
#748=EDGE_CURVE('',#620,#620,#62,.T.);
#749=EDGE_CURVE('',#621,#621,#63,.T.);
#750=EDGE_CURVE('',#622,#622,#64,.T.);
#751=EDGE_CURVE('',#623,#623,#65,.T.);
#752=EDGE_CURVE('',#624,#624,#66,.T.);
#753=EDGE_CURVE('',#625,#625,#67,.T.);
#754=EDGE_CURVE('',#626,#626,#68,.T.);
#755=EDGE_CURVE('',#627,#627,#69,.T.);
#756=EDGE_CURVE('',#628,#628,#70,.T.);
#757=EDGE_CURVE('',#629,#629,#71,.T.);
#758=EDGE_CURVE('',#630,#630,#72,.T.);
#759=EDGE_CURVE('',#631,#631,#73,.T.);
#760=EDGE_CURVE('',#632,#632,#74,.T.);
#761=EDGE_CURVE('',#633,#633,#75,.T.);
#762=EDGE_CURVE('',#634,#634,#76,.T.);
#763=EDGE_CURVE('',#635,#635,#77,.T.);
#764=EDGE_CURVE('',#636,#636,#78,.T.);
#765=EDGE_CURVE('',#637,#637,#79,.T.);
#766=EDGE_CURVE('',#638,#638,#80,.T.);
#767=EDGE_CURVE('',#639,#639,#81,.T.);
#768=EDGE_CURVE('',#640,#640,#82,.T.);
#769=EDGE_CURVE('',#641,#641,#83,.T.);
#770=EDGE_CURVE('',#642,#642,#84,.T.);
#771=EDGE_CURVE('',#596,#583,#436,.T.);
#772=EDGE_CURVE('',#642,#643,#437,.T.);
#773=EDGE_CURVE('',#643,#643,#85,.T.);
#774=EDGE_CURVE('',#641,#644,#438,.T.);
#775=EDGE_CURVE('',#644,#644,#86,.T.);
#776=EDGE_CURVE('',#640,#645,#439,.T.);
#777=EDGE_CURVE('',#645,#645,#87,.T.);
#778=EDGE_CURVE('',#639,#646,#440,.T.);
#779=EDGE_CURVE('',#646,#646,#88,.T.);
#780=EDGE_CURVE('',#638,#647,#441,.T.);
#781=EDGE_CURVE('',#647,#647,#89,.T.);
#782=EDGE_CURVE('',#637,#648,#442,.T.);
#783=EDGE_CURVE('',#648,#648,#90,.T.);
#784=EDGE_CURVE('',#636,#649,#443,.T.);
#785=EDGE_CURVE('',#649,#649,#91,.T.);
#786=EDGE_CURVE('',#635,#650,#444,.T.);
#787=EDGE_CURVE('',#650,#650,#92,.T.);
#788=EDGE_CURVE('',#634,#651,#445,.T.);
#789=EDGE_CURVE('',#651,#651,#93,.T.);
#790=EDGE_CURVE('',#633,#652,#446,.T.);
#791=EDGE_CURVE('',#652,#652,#94,.T.);
#792=EDGE_CURVE('',#632,#653,#447,.T.);
#793=EDGE_CURVE('',#653,#653,#95,.T.);
#794=EDGE_CURVE('',#631,#654,#448,.T.);
#795=EDGE_CURVE('',#654,#654,#96,.T.);
#796=EDGE_CURVE('',#630,#655,#449,.T.);
#797=EDGE_CURVE('',#655,#655,#97,.T.);
#798=EDGE_CURVE('',#629,#656,#450,.T.);
#799=EDGE_CURVE('',#656,#656,#98,.T.);
#800=EDGE_CURVE('',#628,#657,#451,.T.);
#801=EDGE_CURVE('',#657,#657,#99,.T.);
#802=EDGE_CURVE('',#627,#658,#452,.T.);
#803=EDGE_CURVE('',#658,#658,#100,.T.);
#804=EDGE_CURVE('',#626,#659,#453,.T.);
#805=EDGE_CURVE('',#659,#659,#101,.T.);
#806=EDGE_CURVE('',#625,#660,#454,.T.);
#807=EDGE_CURVE('',#660,#660,#102,.T.);
#808=EDGE_CURVE('',#624,#661,#455,.T.);
#809=EDGE_CURVE('',#661,#661,#103,.T.);
#810=EDGE_CURVE('',#623,#662,#456,.T.);
#811=EDGE_CURVE('',#662,#662,#104,.T.);
#812=EDGE_CURVE('',#622,#663,#457,.T.);
#813=EDGE_CURVE('',#663,#663,#105,.T.);
#814=EDGE_CURVE('',#621,#664,#458,.T.);
#815=EDGE_CURVE('',#664,#664,#106,.T.);
#816=EDGE_CURVE('',#620,#665,#459,.T.);
#817=EDGE_CURVE('',#665,#665,#107,.T.);
#818=EDGE_CURVE('',#619,#666,#460,.T.);
#819=EDGE_CURVE('',#666,#666,#108,.T.);
#820=EDGE_CURVE('',#618,#667,#461,.T.);
#821=EDGE_CURVE('',#667,#667,#109,.T.);
#822=EDGE_CURVE('',#617,#668,#462,.T.);
#823=EDGE_CURVE('',#668,#668,#110,.T.);
#824=EDGE_CURVE('',#616,#669,#463,.T.);
#825=EDGE_CURVE('',#669,#669,#111,.T.);
#826=EDGE_CURVE('',#615,#670,#464,.T.);
#827=EDGE_CURVE('',#670,#670,#112,.T.);
#828=EDGE_CURVE('',#614,#671,#465,.T.);
#829=EDGE_CURVE('',#671,#671,#113,.T.);
#830=EDGE_CURVE('',#613,#672,#466,.T.);
#831=EDGE_CURVE('',#672,#672,#114,.T.);
#832=EDGE_CURVE('',#612,#673,#467,.T.);
#833=EDGE_CURVE('',#673,#673,#115,.T.);
#834=EDGE_CURVE('',#611,#674,#468,.T.);
#835=EDGE_CURVE('',#674,#674,#116,.T.);
#836=EDGE_CURVE('',#610,#675,#469,.T.);
#837=EDGE_CURVE('',#675,#675,#117,.T.);
#838=EDGE_CURVE('',#609,#676,#470,.T.);
#839=EDGE_CURVE('',#676,#676,#118,.T.);
#840=EDGE_CURVE('',#608,#677,#471,.T.);
#841=EDGE_CURVE('',#677,#677,#119,.T.);
#842=EDGE_CURVE('',#582,#597,#472,.T.);
#843=ORIENTED_EDGE('',*,*,#678,.F.);
#844=ORIENTED_EDGE('',*,*,#679,.T.);
#845=ORIENTED_EDGE('',*,*,#680,.F.);
#846=ORIENTED_EDGE('',*,*,#681,.F.);
#847=ORIENTED_EDGE('',*,*,#682,.T.);
#848=ORIENTED_EDGE('',*,*,#683,.T.);
#849=ORIENTED_EDGE('',*,*,#684,.F.);
#850=ORIENTED_EDGE('',*,*,#679,.F.);
#851=ORIENTED_EDGE('',*,*,#685,.T.);
#852=ORIENTED_EDGE('',*,*,#686,.F.);
#853=ORIENTED_EDGE('',*,*,#687,.T.);
#854=ORIENTED_EDGE('',*,*,#688,.F.);
#855=ORIENTED_EDGE('',*,*,#689,.F.);
#856=ORIENTED_EDGE('',*,*,#681,.T.);
#857=ORIENTED_EDGE('',*,*,#690,.F.);
#858=ORIENTED_EDGE('',*,*,#691,.F.);
#859=ORIENTED_EDGE('',*,*,#692,.T.);
#860=ORIENTED_EDGE('',*,*,#691,.T.);
#861=ORIENTED_EDGE('',*,*,#693,.F.);
#862=ORIENTED_EDGE('',*,*,#683,.F.);
#863=ORIENTED_EDGE('',*,*,#693,.T.);
#864=ORIENTED_EDGE('',*,*,#690,.T.);
#865=ORIENTED_EDGE('',*,*,#680,.T.);
#866=ORIENTED_EDGE('',*,*,#684,.T.);
#867=ORIENTED_EDGE('',*,*,#686,.T.);
#868=ORIENTED_EDGE('',*,*,#694,.F.);
#869=ORIENTED_EDGE('',*,*,#695,.F.);
#870=ORIENTED_EDGE('',*,*,#696,.T.);
#871=ORIENTED_EDGE('',*,*,#697,.T.);
#872=ORIENTED_EDGE('',*,*,#698,.F.);
#873=ORIENTED_EDGE('',*,*,#699,.F.);
#874=ORIENTED_EDGE('',*,*,#688,.T.);
#875=ORIENTED_EDGE('',*,*,#700,.T.);
#876=ORIENTED_EDGE('',*,*,#701,.T.);
#877=ORIENTED_EDGE('',*,*,#702,.F.);
#878=ORIENTED_EDGE('',*,*,#703,.F.);
#879=ORIENTED_EDGE('',*,*,#704,.T.);
#880=ORIENTED_EDGE('',*,*,#705,.T.);
#881=ORIENTED_EDGE('',*,*,#706,.F.);
#882=ORIENTED_EDGE('',*,*,#701,.F.);
#883=ORIENTED_EDGE('',*,*,#707,.T.);
#884=ORIENTED_EDGE('',*,*,#708,.F.);
#885=ORIENTED_EDGE('',*,*,#709,.T.);
#886=ORIENTED_EDGE('',*,*,#710,.F.);
#887=ORIENTED_EDGE('',*,*,#711,.F.);
#888=ORIENTED_EDGE('',*,*,#703,.T.);
#889=ORIENTED_EDGE('',*,*,#712,.F.);
#890=ORIENTED_EDGE('',*,*,#713,.F.);
#891=ORIENTED_EDGE('',*,*,#714,.T.);
#892=ORIENTED_EDGE('',*,*,#713,.T.);
#893=ORIENTED_EDGE('',*,*,#715,.F.);
#894=ORIENTED_EDGE('',*,*,#705,.F.);
#895=ORIENTED_EDGE('',*,*,#715,.T.);
#896=ORIENTED_EDGE('',*,*,#712,.T.);
#897=ORIENTED_EDGE('',*,*,#702,.T.);
#898=ORIENTED_EDGE('',*,*,#706,.T.);
#899=ORIENTED_EDGE('',*,*,#708,.T.);
#900=ORIENTED_EDGE('',*,*,#716,.T.);
#901=ORIENTED_EDGE('',*,*,#717,.F.);
#902=ORIENTED_EDGE('',*,*,#718,.F.);
#903=ORIENTED_EDGE('',*,*,#719,.F.);
#904=ORIENTED_EDGE('',*,*,#720,.F.);
#905=ORIENTED_EDGE('',*,*,#721,.T.);
#906=ORIENTED_EDGE('',*,*,#710,.T.);
#907=ORIENTED_EDGE('',*,*,#722,.F.);
#908=ORIENTED_EDGE('',*,*,#723,.T.);
#909=ORIENTED_EDGE('',*,*,#724,.F.);
#910=ORIENTED_EDGE('',*,*,#725,.F.);
#911=ORIENTED_EDGE('',*,*,#726,.F.);
#912=ORIENTED_EDGE('',*,*,#725,.T.);
#913=ORIENTED_EDGE('',*,*,#727,.F.);
#914=ORIENTED_EDGE('',*,*,#728,.F.);
#915=ORIENTED_EDGE('',*,*,#729,.F.);
#916=ORIENTED_EDGE('',*,*,#728,.T.);
#917=ORIENTED_EDGE('',*,*,#730,.F.);
#918=ORIENTED_EDGE('',*,*,#731,.F.);
#919=ORIENTED_EDGE('',*,*,#732,.F.);
#920=ORIENTED_EDGE('',*,*,#731,.T.);
#921=ORIENTED_EDGE('',*,*,#733,.F.);
#922=ORIENTED_EDGE('',*,*,#723,.F.);
#923=ORIENTED_EDGE('',*,*,#734,.T.);
#924=ORIENTED_EDGE('',*,*,#695,.T.);
#925=ORIENTED_EDGE('',*,*,#735,.T.);
#926=ORIENTED_EDGE('',*,*,#720,.T.);
#927=ORIENTED_EDGE('',*,*,#733,.T.);
#928=ORIENTED_EDGE('',*,*,#730,.T.);
#929=ORIENTED_EDGE('',*,*,#727,.T.);
#930=ORIENTED_EDGE('',*,*,#724,.T.);
#931=ORIENTED_EDGE('',*,*,#722,.T.);
#932=ORIENTED_EDGE('',*,*,#726,.T.);
#933=ORIENTED_EDGE('',*,*,#729,.T.);
#934=ORIENTED_EDGE('',*,*,#732,.T.);
#935=ORIENTED_EDGE('',*,*,#736,.F.);
#936=ORIENTED_EDGE('',*,*,#737,.F.);
#937=ORIENTED_EDGE('',*,*,#738,.F.);
#938=ORIENTED_EDGE('',*,*,#739,.F.);
#939=ORIENTED_EDGE('',*,*,#740,.F.);
#940=ORIENTED_EDGE('',*,*,#741,.F.);
#941=ORIENTED_EDGE('',*,*,#742,.F.);
#942=ORIENTED_EDGE('',*,*,#743,.F.);
#943=ORIENTED_EDGE('',*,*,#744,.F.);
#944=ORIENTED_EDGE('',*,*,#745,.F.);
#945=ORIENTED_EDGE('',*,*,#746,.F.);
#946=ORIENTED_EDGE('',*,*,#747,.F.);
#947=ORIENTED_EDGE('',*,*,#748,.F.);
#948=ORIENTED_EDGE('',*,*,#749,.F.);
#949=ORIENTED_EDGE('',*,*,#750,.F.);
#950=ORIENTED_EDGE('',*,*,#751,.F.);
#951=ORIENTED_EDGE('',*,*,#752,.F.);
#952=ORIENTED_EDGE('',*,*,#753,.F.);
#953=ORIENTED_EDGE('',*,*,#754,.F.);
#954=ORIENTED_EDGE('',*,*,#755,.F.);
#955=ORIENTED_EDGE('',*,*,#756,.F.);
#956=ORIENTED_EDGE('',*,*,#757,.F.);
#957=ORIENTED_EDGE('',*,*,#758,.F.);
#958=ORIENTED_EDGE('',*,*,#759,.F.);
#959=ORIENTED_EDGE('',*,*,#760,.F.);
#960=ORIENTED_EDGE('',*,*,#761,.F.);
#961=ORIENTED_EDGE('',*,*,#762,.F.);
#962=ORIENTED_EDGE('',*,*,#763,.F.);
#963=ORIENTED_EDGE('',*,*,#764,.F.);
#964=ORIENTED_EDGE('',*,*,#765,.F.);
#965=ORIENTED_EDGE('',*,*,#766,.F.);
#966=ORIENTED_EDGE('',*,*,#767,.F.);
#967=ORIENTED_EDGE('',*,*,#768,.F.);
#968=ORIENTED_EDGE('',*,*,#769,.F.);
#969=ORIENTED_EDGE('',*,*,#770,.F.);
#970=ORIENTED_EDGE('',*,*,#694,.T.);
#971=ORIENTED_EDGE('',*,*,#685,.F.);
#972=ORIENTED_EDGE('',*,*,#678,.T.);
#973=ORIENTED_EDGE('',*,*,#689,.T.);
#974=ORIENTED_EDGE('',*,*,#699,.T.);
#975=ORIENTED_EDGE('',*,*,#771,.F.);
#976=ORIENTED_EDGE('',*,*,#716,.F.);
#977=ORIENTED_EDGE('',*,*,#707,.F.);
#978=ORIENTED_EDGE('',*,*,#700,.F.);
#979=ORIENTED_EDGE('',*,*,#711,.T.);
#980=ORIENTED_EDGE('',*,*,#721,.F.);
#981=ORIENTED_EDGE('',*,*,#735,.F.);
#982=ORIENTED_EDGE('',*,*,#770,.T.);
#983=ORIENTED_EDGE('',*,*,#772,.T.);
#984=ORIENTED_EDGE('',*,*,#773,.F.);
#985=ORIENTED_EDGE('',*,*,#772,.F.);
#986=ORIENTED_EDGE('',*,*,#769,.T.);
#987=ORIENTED_EDGE('',*,*,#774,.T.);
#988=ORIENTED_EDGE('',*,*,#775,.F.);
#989=ORIENTED_EDGE('',*,*,#774,.F.);
#990=ORIENTED_EDGE('',*,*,#768,.T.);
#991=ORIENTED_EDGE('',*,*,#776,.T.);
#992=ORIENTED_EDGE('',*,*,#777,.F.);
#993=ORIENTED_EDGE('',*,*,#776,.F.);
#994=ORIENTED_EDGE('',*,*,#767,.T.);
#995=ORIENTED_EDGE('',*,*,#778,.T.);
#996=ORIENTED_EDGE('',*,*,#779,.F.);
#997=ORIENTED_EDGE('',*,*,#778,.F.);
#998=ORIENTED_EDGE('',*,*,#766,.T.);
#999=ORIENTED_EDGE('',*,*,#780,.T.);
#1000=ORIENTED_EDGE('',*,*,#781,.F.);
#1001=ORIENTED_EDGE('',*,*,#780,.F.);
#1002=ORIENTED_EDGE('',*,*,#765,.T.);
#1003=ORIENTED_EDGE('',*,*,#782,.T.);
#1004=ORIENTED_EDGE('',*,*,#783,.F.);
#1005=ORIENTED_EDGE('',*,*,#782,.F.);
#1006=ORIENTED_EDGE('',*,*,#764,.T.);
#1007=ORIENTED_EDGE('',*,*,#784,.T.);
#1008=ORIENTED_EDGE('',*,*,#785,.F.);
#1009=ORIENTED_EDGE('',*,*,#784,.F.);
#1010=ORIENTED_EDGE('',*,*,#763,.T.);
#1011=ORIENTED_EDGE('',*,*,#786,.T.);
#1012=ORIENTED_EDGE('',*,*,#787,.F.);
#1013=ORIENTED_EDGE('',*,*,#786,.F.);
#1014=ORIENTED_EDGE('',*,*,#762,.T.);
#1015=ORIENTED_EDGE('',*,*,#788,.T.);
#1016=ORIENTED_EDGE('',*,*,#789,.F.);
#1017=ORIENTED_EDGE('',*,*,#788,.F.);
#1018=ORIENTED_EDGE('',*,*,#761,.T.);
#1019=ORIENTED_EDGE('',*,*,#790,.T.);
#1020=ORIENTED_EDGE('',*,*,#791,.F.);
#1021=ORIENTED_EDGE('',*,*,#790,.F.);
#1022=ORIENTED_EDGE('',*,*,#760,.T.);
#1023=ORIENTED_EDGE('',*,*,#792,.T.);
#1024=ORIENTED_EDGE('',*,*,#793,.F.);
#1025=ORIENTED_EDGE('',*,*,#792,.F.);
#1026=ORIENTED_EDGE('',*,*,#759,.T.);
#1027=ORIENTED_EDGE('',*,*,#794,.T.);
#1028=ORIENTED_EDGE('',*,*,#795,.F.);
#1029=ORIENTED_EDGE('',*,*,#794,.F.);
#1030=ORIENTED_EDGE('',*,*,#758,.T.);
#1031=ORIENTED_EDGE('',*,*,#796,.T.);
#1032=ORIENTED_EDGE('',*,*,#797,.F.);
#1033=ORIENTED_EDGE('',*,*,#796,.F.);
#1034=ORIENTED_EDGE('',*,*,#757,.T.);
#1035=ORIENTED_EDGE('',*,*,#798,.T.);
#1036=ORIENTED_EDGE('',*,*,#799,.F.);
#1037=ORIENTED_EDGE('',*,*,#798,.F.);
#1038=ORIENTED_EDGE('',*,*,#756,.T.);
#1039=ORIENTED_EDGE('',*,*,#800,.T.);
#1040=ORIENTED_EDGE('',*,*,#801,.F.);
#1041=ORIENTED_EDGE('',*,*,#800,.F.);
#1042=ORIENTED_EDGE('',*,*,#755,.T.);
#1043=ORIENTED_EDGE('',*,*,#802,.T.);
#1044=ORIENTED_EDGE('',*,*,#803,.F.);
#1045=ORIENTED_EDGE('',*,*,#802,.F.);
#1046=ORIENTED_EDGE('',*,*,#754,.T.);
#1047=ORIENTED_EDGE('',*,*,#804,.T.);
#1048=ORIENTED_EDGE('',*,*,#805,.F.);
#1049=ORIENTED_EDGE('',*,*,#804,.F.);
#1050=ORIENTED_EDGE('',*,*,#753,.T.);
#1051=ORIENTED_EDGE('',*,*,#806,.T.);
#1052=ORIENTED_EDGE('',*,*,#807,.F.);
#1053=ORIENTED_EDGE('',*,*,#806,.F.);
#1054=ORIENTED_EDGE('',*,*,#752,.T.);
#1055=ORIENTED_EDGE('',*,*,#808,.T.);
#1056=ORIENTED_EDGE('',*,*,#809,.F.);
#1057=ORIENTED_EDGE('',*,*,#808,.F.);
#1058=ORIENTED_EDGE('',*,*,#751,.T.);
#1059=ORIENTED_EDGE('',*,*,#810,.T.);
#1060=ORIENTED_EDGE('',*,*,#811,.F.);
#1061=ORIENTED_EDGE('',*,*,#810,.F.);
#1062=ORIENTED_EDGE('',*,*,#750,.T.);
#1063=ORIENTED_EDGE('',*,*,#812,.T.);
#1064=ORIENTED_EDGE('',*,*,#813,.F.);
#1065=ORIENTED_EDGE('',*,*,#812,.F.);
#1066=ORIENTED_EDGE('',*,*,#749,.T.);
#1067=ORIENTED_EDGE('',*,*,#814,.T.);
#1068=ORIENTED_EDGE('',*,*,#815,.F.);
#1069=ORIENTED_EDGE('',*,*,#814,.F.);
#1070=ORIENTED_EDGE('',*,*,#748,.T.);
#1071=ORIENTED_EDGE('',*,*,#816,.T.);
#1072=ORIENTED_EDGE('',*,*,#817,.F.);
#1073=ORIENTED_EDGE('',*,*,#816,.F.);
#1074=ORIENTED_EDGE('',*,*,#747,.T.);
#1075=ORIENTED_EDGE('',*,*,#818,.T.);
#1076=ORIENTED_EDGE('',*,*,#819,.F.);
#1077=ORIENTED_EDGE('',*,*,#818,.F.);
#1078=ORIENTED_EDGE('',*,*,#746,.T.);
#1079=ORIENTED_EDGE('',*,*,#820,.T.);
#1080=ORIENTED_EDGE('',*,*,#821,.F.);
#1081=ORIENTED_EDGE('',*,*,#820,.F.);
#1082=ORIENTED_EDGE('',*,*,#745,.T.);
#1083=ORIENTED_EDGE('',*,*,#822,.T.);
#1084=ORIENTED_EDGE('',*,*,#823,.F.);
#1085=ORIENTED_EDGE('',*,*,#822,.F.);
#1086=ORIENTED_EDGE('',*,*,#744,.T.);
#1087=ORIENTED_EDGE('',*,*,#824,.T.);
#1088=ORIENTED_EDGE('',*,*,#825,.F.);
#1089=ORIENTED_EDGE('',*,*,#824,.F.);
#1090=ORIENTED_EDGE('',*,*,#743,.T.);
#1091=ORIENTED_EDGE('',*,*,#826,.T.);
#1092=ORIENTED_EDGE('',*,*,#827,.F.);
#1093=ORIENTED_EDGE('',*,*,#826,.F.);
#1094=ORIENTED_EDGE('',*,*,#742,.T.);
#1095=ORIENTED_EDGE('',*,*,#828,.T.);
#1096=ORIENTED_EDGE('',*,*,#829,.F.);
#1097=ORIENTED_EDGE('',*,*,#828,.F.);
#1098=ORIENTED_EDGE('',*,*,#741,.T.);
#1099=ORIENTED_EDGE('',*,*,#830,.T.);
#1100=ORIENTED_EDGE('',*,*,#831,.F.);
#1101=ORIENTED_EDGE('',*,*,#830,.F.);
#1102=ORIENTED_EDGE('',*,*,#740,.T.);
#1103=ORIENTED_EDGE('',*,*,#832,.T.);
#1104=ORIENTED_EDGE('',*,*,#833,.F.);
#1105=ORIENTED_EDGE('',*,*,#832,.F.);
#1106=ORIENTED_EDGE('',*,*,#739,.T.);
#1107=ORIENTED_EDGE('',*,*,#834,.T.);
#1108=ORIENTED_EDGE('',*,*,#835,.F.);
#1109=ORIENTED_EDGE('',*,*,#834,.F.);
#1110=ORIENTED_EDGE('',*,*,#738,.T.);
#1111=ORIENTED_EDGE('',*,*,#836,.T.);
#1112=ORIENTED_EDGE('',*,*,#837,.F.);
#1113=ORIENTED_EDGE('',*,*,#836,.F.);
#1114=ORIENTED_EDGE('',*,*,#737,.T.);
#1115=ORIENTED_EDGE('',*,*,#838,.T.);
#1116=ORIENTED_EDGE('',*,*,#839,.F.);
#1117=ORIENTED_EDGE('',*,*,#838,.F.);
#1118=ORIENTED_EDGE('',*,*,#736,.T.);
#1119=ORIENTED_EDGE('',*,*,#840,.T.);
#1120=ORIENTED_EDGE('',*,*,#841,.F.);
#1121=ORIENTED_EDGE('',*,*,#840,.F.);
#1122=ORIENTED_EDGE('',*,*,#719,.T.);
#1123=ORIENTED_EDGE('',*,*,#709,.F.);
#1124=ORIENTED_EDGE('',*,*,#714,.F.);
#1125=ORIENTED_EDGE('',*,*,#704,.F.);
#1126=ORIENTED_EDGE('',*,*,#718,.T.);
#1127=ORIENTED_EDGE('',*,*,#842,.F.);
#1128=ORIENTED_EDGE('',*,*,#697,.F.);
#1129=ORIENTED_EDGE('',*,*,#687,.F.);
#1130=ORIENTED_EDGE('',*,*,#692,.F.);
#1131=ORIENTED_EDGE('',*,*,#682,.F.);
#1132=ORIENTED_EDGE('',*,*,#696,.F.);
#1133=ORIENTED_EDGE('',*,*,#734,.F.);
#1134=ORIENTED_EDGE('',*,*,#698,.T.);
#1135=ORIENTED_EDGE('',*,*,#842,.T.);
#1136=ORIENTED_EDGE('',*,*,#717,.T.);
#1137=ORIENTED_EDGE('',*,*,#771,.T.);
#1138=ORIENTED_EDGE('',*,*,#841,.T.);
#1139=ORIENTED_EDGE('',*,*,#839,.T.);
#1140=ORIENTED_EDGE('',*,*,#837,.T.);
#1141=ORIENTED_EDGE('',*,*,#835,.T.);
#1142=ORIENTED_EDGE('',*,*,#833,.T.);
#1143=ORIENTED_EDGE('',*,*,#831,.T.);
#1144=ORIENTED_EDGE('',*,*,#829,.T.);
#1145=ORIENTED_EDGE('',*,*,#827,.T.);
#1146=ORIENTED_EDGE('',*,*,#825,.T.);
#1147=ORIENTED_EDGE('',*,*,#823,.T.);
#1148=ORIENTED_EDGE('',*,*,#821,.T.);
#1149=ORIENTED_EDGE('',*,*,#819,.T.);
#1150=ORIENTED_EDGE('',*,*,#817,.T.);
#1151=ORIENTED_EDGE('',*,*,#815,.T.);
#1152=ORIENTED_EDGE('',*,*,#813,.T.);
#1153=ORIENTED_EDGE('',*,*,#811,.T.);
#1154=ORIENTED_EDGE('',*,*,#809,.T.);
#1155=ORIENTED_EDGE('',*,*,#807,.T.);
#1156=ORIENTED_EDGE('',*,*,#805,.T.);
#1157=ORIENTED_EDGE('',*,*,#803,.T.);
#1158=ORIENTED_EDGE('',*,*,#801,.T.);
#1159=ORIENTED_EDGE('',*,*,#799,.T.);
#1160=ORIENTED_EDGE('',*,*,#797,.T.);
#1161=ORIENTED_EDGE('',*,*,#795,.T.);
#1162=ORIENTED_EDGE('',*,*,#793,.T.);
#1163=ORIENTED_EDGE('',*,*,#791,.T.);
#1164=ORIENTED_EDGE('',*,*,#789,.T.);
#1165=ORIENTED_EDGE('',*,*,#787,.T.);
#1166=ORIENTED_EDGE('',*,*,#785,.T.);
#1167=ORIENTED_EDGE('',*,*,#783,.T.);
#1168=ORIENTED_EDGE('',*,*,#781,.T.);
#1169=ORIENTED_EDGE('',*,*,#779,.T.);
#1170=ORIENTED_EDGE('',*,*,#777,.T.);
#1171=ORIENTED_EDGE('',*,*,#775,.T.);
#1172=ORIENTED_EDGE('',*,*,#773,.T.);
#1173=PLANE('',#1268);
#1174=PLANE('',#1269);
#1175=PLANE('',#1270);
#1176=PLANE('',#1271);
#1177=PLANE('',#1272);
#1178=PLANE('',#1273);
#1179=PLANE('',#1274);
#1180=PLANE('',#1275);
#1181=PLANE('',#1276);
#1182=PLANE('',#1277);
#1183=PLANE('',#1278);
#1184=PLANE('',#1279);
#1185=PLANE('',#1280);
#1186=PLANE('',#1281);
#1187=PLANE('',#1282);
#1188=PLANE('',#1283);
#1189=PLANE('',#1284);
#1190=PLANE('',#1285);
#1191=PLANE('',#1286);
#1192=PLANE('',#1287);
#1193=PLANE('',#1323);
#1194=PLANE('',#1394);
#1195=PLANE('',#1395);
#1196=ADVANCED_FACE('',(#191),#1173,.T.);
#1197=ADVANCED_FACE('',(#192),#1174,.T.);
#1198=ADVANCED_FACE('',(#193),#1175,.T.);
#1199=ADVANCED_FACE('',(#194),#1176,.T.);
#1200=ADVANCED_FACE('',(#195),#1177,.T.);
#1201=ADVANCED_FACE('',(#196),#1178,.T.);
#1202=ADVANCED_FACE('',(#197),#1179,.T.);
#1203=ADVANCED_FACE('',(#198),#1180,.T.);
#1204=ADVANCED_FACE('',(#199),#1181,.T.);
#1205=ADVANCED_FACE('',(#200),#1182,.T.);
#1206=ADVANCED_FACE('',(#201),#1183,.T.);
#1207=ADVANCED_FACE('',(#202),#1184,.T.);
#1208=ADVANCED_FACE('',(#203),#1185,.T.);
#1209=ADVANCED_FACE('',(#204),#1186,.T.);
#1210=ADVANCED_FACE('',(#205),#1187,.T.);
#1211=ADVANCED_FACE('',(#206),#1188,.T.);
#1212=ADVANCED_FACE('',(#207),#1189,.T.);
#1213=ADVANCED_FACE('',(#208),#1190,.T.);
#1214=ADVANCED_FACE('',(#209,#120),#1191,.T.);
#1215=ADVANCED_FACE('',(#210,#121,#122,#123,#124,#125,#126,#127,#128,#129,
#130,#131,#132,#133,#134,#135,#136,#137,#138,#139,#140,#141,#142,#143,#144,
#145,#146,#147,#148,#149,#150,#151,#152,#153,#154,#155),#1192,.F.);
#1216=ADVANCED_FACE('',(#211),#1193,.T.);
#1217=ADVANCED_FACE('',(#212),#15,.F.);
#1218=ADVANCED_FACE('',(#213),#16,.F.);
#1219=ADVANCED_FACE('',(#214),#17,.F.);
#1220=ADVANCED_FACE('',(#215),#18,.F.);
#1221=ADVANCED_FACE('',(#216),#19,.F.);
#1222=ADVANCED_FACE('',(#217),#20,.F.);
#1223=ADVANCED_FACE('',(#218),#21,.F.);
#1224=ADVANCED_FACE('',(#219),#22,.F.);
#1225=ADVANCED_FACE('',(#220),#23,.F.);
#1226=ADVANCED_FACE('',(#221),#24,.F.);
#1227=ADVANCED_FACE('',(#222),#25,.F.);
#1228=ADVANCED_FACE('',(#223),#26,.F.);
#1229=ADVANCED_FACE('',(#224),#27,.F.);
#1230=ADVANCED_FACE('',(#225),#28,.F.);
#1231=ADVANCED_FACE('',(#226),#29,.F.);
#1232=ADVANCED_FACE('',(#227),#30,.F.);
#1233=ADVANCED_FACE('',(#228),#31,.F.);
#1234=ADVANCED_FACE('',(#229),#32,.F.);
#1235=ADVANCED_FACE('',(#230),#33,.F.);
#1236=ADVANCED_FACE('',(#231),#34,.F.);
#1237=ADVANCED_FACE('',(#232),#35,.F.);
#1238=ADVANCED_FACE('',(#233),#36,.F.);
#1239=ADVANCED_FACE('',(#234),#37,.F.);
#1240=ADVANCED_FACE('',(#235),#38,.F.);
#1241=ADVANCED_FACE('',(#236),#39,.F.);
#1242=ADVANCED_FACE('',(#237),#40,.F.);
#1243=ADVANCED_FACE('',(#238),#41,.F.);
#1244=ADVANCED_FACE('',(#239),#42,.F.);
#1245=ADVANCED_FACE('',(#240),#43,.F.);
#1246=ADVANCED_FACE('',(#241),#44,.F.);
#1247=ADVANCED_FACE('',(#242),#45,.F.);
#1248=ADVANCED_FACE('',(#243),#46,.F.);
#1249=ADVANCED_FACE('',(#244),#47,.F.);
#1250=ADVANCED_FACE('',(#245),#48,.F.);
#1251=ADVANCED_FACE('',(#246),#49,.F.);
#1252=ADVANCED_FACE('',(#247),#1194,.T.);
#1253=ADVANCED_FACE('',(#248,#156,#157,#158,#159,#160,#161,#162,#163,#164,
#165,#166,#167,#168,#169,#170,#171,#172,#173,#174,#175,#176,#177,#178,#179,
#180,#181,#182,#183,#184,#185,#186,#187,#188,#189,#190),#1195,.T.);
#1254=CLOSED_SHELL('',(#1196,#1197,#1198,#1199,#1200,#1201,#1202,#1203,
#1204,#1205,#1206,#1207,#1208,#1209,#1210,#1211,#1212,#1213,#1214,#1215,
#1216,#1217,#1218,#1219,#1220,#1221,#1222,#1223,#1224,#1225,#1226,#1227,
#1228,#1229,#1230,#1231,#1232,#1233,#1234,#1235,#1236,#1237,#1238,#1239,
#1240,#1241,#1242,#1243,#1244,#1245,#1246,#1247,#1248,#1249,#1250,#1251,
#1252,#1253));
#1255=DERIVED_UNIT_ELEMENT(#1257,1.);
#1256=DERIVED_UNIT_ELEMENT(#2088,-3.);
#1257=(
MASS_UNIT()
NAMED_UNIT(*)
SI_UNIT(.KILO.,.GRAM.)
);
#1258=DERIVED_UNIT((#1255,#1256));
#1259=MEASURE_REPRESENTATION_ITEM('density measure',
POSITIVE_RATIO_MEASURE(7850.),#1258);
#1260=PROPERTY_DEFINITION_REPRESENTATION(#1265,#1262);
#1261=PROPERTY_DEFINITION_REPRESENTATION(#1266,#1263);
#1262=REPRESENTATION('material name',(#1264),#2085);
#1263=REPRESENTATION('density',(#1259),#2085);
#1264=DESCRIPTIVE_REPRESENTATION_ITEM('Steel','Steel');
#1265=PROPERTY_DEFINITION('material property','material name',#2095);
#1266=PROPERTY_DEFINITION('material property','density of part',#2095);
#1267=AXIS2_PLACEMENT_3D('',#1749,#1396,#1397);
#1268=AXIS2_PLACEMENT_3D('',#1750,#1398,#1399);
#1269=AXIS2_PLACEMENT_3D('',#1759,#1404,#1405);
#1270=AXIS2_PLACEMENT_3D('',#1769,#1411,#1412);
#1271=AXIS2_PLACEMENT_3D('',#1779,#1418,#1419);
#1272=AXIS2_PLACEMENT_3D('',#1782,#1422,#1423);
#1273=AXIS2_PLACEMENT_3D('',#1783,#1424,#1425);
#1274=AXIS2_PLACEMENT_3D('',#1789,#1429,#1430);
#1275=AXIS2_PLACEMENT_3D('',#1795,#1434,#1435);
#1276=AXIS2_PLACEMENT_3D('',#1804,#1440,#1441);
#1277=AXIS2_PLACEMENT_3D('',#1814,#1447,#1448);
#1278=AXIS2_PLACEMENT_3D('',#1824,#1454,#1455);
#1279=AXIS2_PLACEMENT_3D('',#1827,#1458,#1459);
#1280=AXIS2_PLACEMENT_3D('',#1828,#1460,#1461);
#1281=AXIS2_PLACEMENT_3D('',#1834,#1465,#1466);
#1282=AXIS2_PLACEMENT_3D('',#1840,#1470,#1471);
#1283=AXIS2_PLACEMENT_3D('',#1849,#1476,#1477);
#1284=AXIS2_PLACEMENT_3D('',#1855,#1481,#1482);
#1285=AXIS2_PLACEMENT_3D('',#1861,#1486,#1487);
#1286=AXIS2_PLACEMENT_3D('',#1864,#1490,#1491);
#1287=AXIS2_PLACEMENT_3D('',#1867,#1494,#1495);
#1288=AXIS2_PLACEMENT_3D('',#1869,#1496,#1497);
#1289=AXIS2_PLACEMENT_3D('',#1871,#1498,#1499);
#1290=AXIS2_PLACEMENT_3D('',#1873,#1500,#1501);
#1291=AXIS2_PLACEMENT_3D('',#1875,#1502,#1503);
#1292=AXIS2_PLACEMENT_3D('',#1877,#1504,#1505);
#1293=AXIS2_PLACEMENT_3D('',#1879,#1506,#1507);
#1294=AXIS2_PLACEMENT_3D('',#1881,#1508,#1509);
#1295=AXIS2_PLACEMENT_3D('',#1883,#1510,#1511);
#1296=AXIS2_PLACEMENT_3D('',#1885,#1512,#1513);
#1297=AXIS2_PLACEMENT_3D('',#1887,#1514,#1515);
#1298=AXIS2_PLACEMENT_3D('',#1889,#1516,#1517);
#1299=AXIS2_PLACEMENT_3D('',#1891,#1518,#1519);
#1300=AXIS2_PLACEMENT_3D('',#1893,#1520,#1521);
#1301=AXIS2_PLACEMENT_3D('',#1895,#1522,#1523);
#1302=AXIS2_PLACEMENT_3D('',#1897,#1524,#1525);
#1303=AXIS2_PLACEMENT_3D('',#1899,#1526,#1527);
#1304=AXIS2_PLACEMENT_3D('',#1901,#1528,#1529);
#1305=AXIS2_PLACEMENT_3D('',#1903,#1530,#1531);
#1306=AXIS2_PLACEMENT_3D('',#1905,#1532,#1533);
#1307=AXIS2_PLACEMENT_3D('',#1907,#1534,#1535);
#1308=AXIS2_PLACEMENT_3D('',#1909,#1536,#1537);
#1309=AXIS2_PLACEMENT_3D('',#1911,#1538,#1539);
#1310=AXIS2_PLACEMENT_3D('',#1913,#1540,#1541);
#1311=AXIS2_PLACEMENT_3D('',#1915,#1542,#1543);
#1312=AXIS2_PLACEMENT_3D('',#1917,#1544,#1545);
#1313=AXIS2_PLACEMENT_3D('',#1919,#1546,#1547);
#1314=AXIS2_PLACEMENT_3D('',#1921,#1548,#1549);
#1315=AXIS2_PLACEMENT_3D('',#1923,#1550,#1551);
#1316=AXIS2_PLACEMENT_3D('',#1925,#1552,#1553);
#1317=AXIS2_PLACEMENT_3D('',#1927,#1554,#1555);
#1318=AXIS2_PLACEMENT_3D('',#1929,#1556,#1557);
#1319=AXIS2_PLACEMENT_3D('',#1931,#1558,#1559);
#1320=AXIS2_PLACEMENT_3D('',#1933,#1560,#1561);
#1321=AXIS2_PLACEMENT_3D('',#1935,#1562,#1563);
#1322=AXIS2_PLACEMENT_3D('',#1937,#1564,#1565);
#1323=AXIS2_PLACEMENT_3D('',#1938,#1566,#1567);
#1324=AXIS2_PLACEMENT_3D('',#1940,#1569,#1570);
#1325=AXIS2_PLACEMENT_3D('',#1943,#1572,#1573);
#1326=AXIS2_PLACEMENT_3D('',#1944,#1574,#1575);
#1327=AXIS2_PLACEMENT_3D('',#1947,#1577,#1578);
#1328=AXIS2_PLACEMENT_3D('',#1948,#1579,#1580);
#1329=AXIS2_PLACEMENT_3D('',#1951,#1582,#1583);
#1330=AXIS2_PLACEMENT_3D('',#1952,#1584,#1585);
#1331=AXIS2_PLACEMENT_3D('',#1955,#1587,#1588);
#1332=AXIS2_PLACEMENT_3D('',#1956,#1589,#1590);
#1333=AXIS2_PLACEMENT_3D('',#1959,#1592,#1593);
#1334=AXIS2_PLACEMENT_3D('',#1960,#1594,#1595);
#1335=AXIS2_PLACEMENT_3D('',#1963,#1597,#1598);
#1336=AXIS2_PLACEMENT_3D('',#1964,#1599,#1600);
#1337=AXIS2_PLACEMENT_3D('',#1967,#1602,#1603);
#1338=AXIS2_PLACEMENT_3D('',#1968,#1604,#1605);
#1339=AXIS2_PLACEMENT_3D('',#1971,#1607,#1608);
#1340=AXIS2_PLACEMENT_3D('',#1972,#1609,#1610);
#1341=AXIS2_PLACEMENT_3D('',#1975,#1612,#1613);
#1342=AXIS2_PLACEMENT_3D('',#1976,#1614,#1615);
#1343=AXIS2_PLACEMENT_3D('',#1979,#1617,#1618);
#1344=AXIS2_PLACEMENT_3D('',#1980,#1619,#1620);
#1345=AXIS2_PLACEMENT_3D('',#1983,#1622,#1623);
#1346=AXIS2_PLACEMENT_3D('',#1984,#1624,#1625);
#1347=AXIS2_PLACEMENT_3D('',#1987,#1627,#1628);
#1348=AXIS2_PLACEMENT_3D('',#1988,#1629,#1630);
#1349=AXIS2_PLACEMENT_3D('',#1991,#1632,#1633);
#1350=AXIS2_PLACEMENT_3D('',#1992,#1634,#1635);
#1351=AXIS2_PLACEMENT_3D('',#1995,#1637,#1638);
#1352=AXIS2_PLACEMENT_3D('',#1996,#1639,#1640);
#1353=AXIS2_PLACEMENT_3D('',#1999,#1642,#1643);
#1354=AXIS2_PLACEMENT_3D('',#2000,#1644,#1645);
#1355=AXIS2_PLACEMENT_3D('',#2003,#1647,#1648);
#1356=AXIS2_PLACEMENT_3D('',#2004,#1649,#1650);
#1357=AXIS2_PLACEMENT_3D('',#2007,#1652,#1653);
#1358=AXIS2_PLACEMENT_3D('',#2008,#1654,#1655);
#1359=AXIS2_PLACEMENT_3D('',#2011,#1657,#1658);
#1360=AXIS2_PLACEMENT_3D('',#2012,#1659,#1660);
#1361=AXIS2_PLACEMENT_3D('',#2015,#1662,#1663);
#1362=AXIS2_PLACEMENT_3D('',#2016,#1664,#1665);
#1363=AXIS2_PLACEMENT_3D('',#2019,#1667,#1668);
#1364=AXIS2_PLACEMENT_3D('',#2020,#1669,#1670);
#1365=AXIS2_PLACEMENT_3D('',#2023,#1672,#1673);
#1366=AXIS2_PLACEMENT_3D('',#2024,#1674,#1675);
#1367=AXIS2_PLACEMENT_3D('',#2027,#1677,#1678);
#1368=AXIS2_PLACEMENT_3D('',#2028,#1679,#1680);
#1369=AXIS2_PLACEMENT_3D('',#2031,#1682,#1683);
#1370=AXIS2_PLACEMENT_3D('',#2032,#1684,#1685);
#1371=AXIS2_PLACEMENT_3D('',#2035,#1687,#1688);
#1372=AXIS2_PLACEMENT_3D('',#2036,#1689,#1690);
#1373=AXIS2_PLACEMENT_3D('',#2039,#1692,#1693);
#1374=AXIS2_PLACEMENT_3D('',#2040,#1694,#1695);
#1375=AXIS2_PLACEMENT_3D('',#2043,#1697,#1698);
#1376=AXIS2_PLACEMENT_3D('',#2044,#1699,#1700);
#1377=AXIS2_PLACEMENT_3D('',#2047,#1702,#1703);
#1378=AXIS2_PLACEMENT_3D('',#2048,#1704,#1705);
#1379=AXIS2_PLACEMENT_3D('',#2051,#1707,#1708);
#1380=AXIS2_PLACEMENT_3D('',#2052,#1709,#1710);
#1381=AXIS2_PLACEMENT_3D('',#2055,#1712,#1713);
#1382=AXIS2_PLACEMENT_3D('',#2056,#1714,#1715);
#1383=AXIS2_PLACEMENT_3D('',#2059,#1717,#1718);
#1384=AXIS2_PLACEMENT_3D('',#2060,#1719,#1720);
#1385=AXIS2_PLACEMENT_3D('',#2063,#1722,#1723);
#1386=AXIS2_PLACEMENT_3D('',#2064,#1724,#1725);
#1387=AXIS2_PLACEMENT_3D('',#2067,#1727,#1728);
#1388=AXIS2_PLACEMENT_3D('',#2068,#1729,#1730);
#1389=AXIS2_PLACEMENT_3D('',#2071,#1732,#1733);
#1390=AXIS2_PLACEMENT_3D('',#2072,#1734,#1735);
#1391=AXIS2_PLACEMENT_3D('',#2075,#1737,#1738);
#1392=AXIS2_PLACEMENT_3D('',#2076,#1739,#1740);
#1393=AXIS2_PLACEMENT_3D('',#2079,#1742,#1743);
#1394=AXIS2_PLACEMENT_3D('',#2080,#1744,#1745);
#1395=AXIS2_PLACEMENT_3D('',#2082,#1747,#1748);
#1396=DIRECTION('axis',(0.,0.,1.));
#1397=DIRECTION('refdir',(1.,0.,0.));
#1398=DIRECTION('center_axis',(1.,0.,0.));
#1399=DIRECTION('ref_axis',(0.,0.,-1.));
#1400=DIRECTION('',(0.,0.,1.));
#1401=DIRECTION('',(0.,1.,0.));
#1402=DIRECTION('',(0.,0.,-1.));
#1403=DIRECTION('',(0.,1.,0.));
#1404=DIRECTION('center_axis',(-0.707106781186552,0.,-0.707106781186543));
#1405=DIRECTION('ref_axis',(-0.707106781186543,0.,0.707106781186552));
#1406=DIRECTION('',(-0.707106781186543,0.,0.707106781186552));
#1407=DIRECTION('',(0.,1.,0.));
#1408=DIRECTION('',(-0.707106781186543,0.,0.707106781186552));
#1409=DIRECTION('',(0.707106781186543,0.,-0.707106781186552));
#1410=DIRECTION('',(0.,-1.,0.));
#1411=DIRECTION('center_axis',(-0.70710678118656,0.,0.707106781186535));
#1412=DIRECTION('ref_axis',(0.707106781186535,0.,0.70710678118656));
#1413=DIRECTION('',(0.707106781186535,0.,0.70710678118656));
#1414=DIRECTION('',(0.,1.,0.));
#1415=DIRECTION('',(0.707106781186535,0.,0.70710678118656));
#1416=DIRECTION('',(0.707106781186535,0.,0.70710678118656));
#1417=DIRECTION('',(0.,1.,0.));
#1418=DIRECTION('center_axis',(-1.,0.,0.));
#1419=DIRECTION('ref_axis',(0.,0.,1.));
#1420=DIRECTION('',(0.,0.,1.));
#1421=DIRECTION('',(0.,0.,1.));
#1422=DIRECTION('center_axis',(0.,1.,0.));
#1423=DIRECTION('ref_axis',(0.,0.,1.));
#1424=DIRECTION('center_axis',(-1.,0.,0.));
#1425=DIRECTION('ref_axis',(0.,-1.,0.));
#1426=DIRECTION('',(0.,0.,-1.));
#1427=DIRECTION('',(0.,-1.,0.));
#1428=DIRECTION('',(0.,0.,1.));
#1429=DIRECTION('center_axis',(-1.,0.,0.));
#1430=DIRECTION('ref_axis',(0.,-1.,0.));
#1431=DIRECTION('',(0.,0.,1.));
#1432=DIRECTION('',(0.,1.,0.));
#1433=DIRECTION('',(0.,0.,-1.));
#1434=DIRECTION('center_axis',(-1.,0.,0.));
#1435=DIRECTION('ref_axis',(0.,0.,1.));
#1436=DIRECTION('',(0.,0.,1.));
#1437=DIRECTION('',(0.,1.,0.));
#1438=DIRECTION('',(0.,0.,1.));
#1439=DIRECTION('',(0.,1.,0.));
#1440=DIRECTION('center_axis',(0.707106781186548,0.,0.707106781186547));
#1441=DIRECTION('ref_axis',(0.707106781186547,0.,-0.707106781186548));
#1442=DIRECTION('',(0.707106781186547,0.,-0.707106781186548));
#1443=DIRECTION('',(0.,1.,0.));
#1444=DIRECTION('',(0.707106781186547,0.,-0.707106781186548));
#1445=DIRECTION('',(-0.707106781186547,0.,0.707106781186548));
#1446=DIRECTION('',(6.87444597291118E-17,-1.,-6.87444597291119E-17));
#1447=DIRECTION('center_axis',(0.707106781186549,0.,-0.707106781186546));
#1448=DIRECTION('ref_axis',(-0.707106781186546,0.,-0.707106781186549));
#1449=DIRECTION('',(-0.707106781186546,0.,-0.707106781186549));
#1450=DIRECTION('',(-6.87444597291118E-17,1.,-6.87444597291121E-17));
#1451=DIRECTION('',(-0.707106781186546,0.,-0.707106781186549));
#1452=DIRECTION('',(-0.707106781186546,0.,-0.707106781186549));
#1453=DIRECTION('',(0.,1.,0.));
#1454=DIRECTION('center_axis',(1.,0.,-2.21718266106701E-15));
#1455=DIRECTION('ref_axis',(-2.21718266106701E-15,0.,-1.));
#1456=DIRECTION('',(-2.21718266106701E-15,0.,-1.));
#1457=DIRECTION('',(-2.21718266106701E-15,0.,-1.));
#1458=DIRECTION('center_axis',(0.,1.,0.));
#1459=DIRECTION('ref_axis',(0.,0.,1.));
#1460=DIRECTION('center_axis',(1.,6.87444597291118E-17,0.));
#1461=DIRECTION('ref_axis',(-6.87444597291118E-17,1.,0.));
#1462=DIRECTION('',(0.,0.,1.));
#1463=DIRECTION('',(6.87444597291118E-17,-1.,0.));
#1464=DIRECTION('',(0.,0.,-1.));
#1465=DIRECTION('center_axis',(1.,6.87444597291118E-17,0.));
#1466=DIRECTION('ref_axis',(-6.87444597291118E-17,1.,0.));
#1467=DIRECTION('',(0.,0.,-1.));
#1468=DIRECTION('',(-6.87444597291118E-17,1.,0.));
#1469=DIRECTION('',(0.,0.,1.));
#1470=DIRECTION('center_axis',(1.,-3.127388801761E-16,0.));
#1471=DIRECTION('ref_axis',(-3.127388801761E-16,-1.,0.));
#1472=DIRECTION('',(3.127388801761E-16,1.,0.));
#1473=DIRECTION('',(0.,0.,-1.));
#1474=DIRECTION('',(-3.127388801761E-16,-1.,0.));
#1475=DIRECTION('',(0.,0.,-1.));
#1476=DIRECTION('center_axis',(9.61232054867414E-17,-1.,0.));
#1477=DIRECTION('ref_axis',(-1.,-9.61232054867414E-17,0.));
#1478=DIRECTION('',(1.,9.61232054867414E-17,0.));
#1479=DIRECTION('',(-1.,-9.61232054867414E-17,0.));
#1480=DIRECTION('',(0.,0.,-1.));
#1481=DIRECTION('center_axis',(-1.,-6.06699359469242E-17,0.));
#1482=DIRECTION('ref_axis',(-6.06699359469242E-17,1.,0.));
#1483=DIRECTION('',(6.06699359469242E-17,-1.,0.));
#1484=DIRECTION('',(-6.06699359469242E-17,1.,0.));
#1485=DIRECTION('',(0.,0.,-1.));
#1486=DIRECTION('center_axis',(0.,1.,0.));
#1487=DIRECTION('ref_axis',(1.,0.,0.));
#1488=DIRECTION('',(-1.,0.,0.));
#1489=DIRECTION('',(1.,0.,0.));
#1490=DIRECTION('center_axis',(0.,0.,-1.));
#1491=DIRECTION('ref_axis',(-1.,0.,0.));
#1492=DIRECTION('',(-1.,0.,0.));
#1493=DIRECTION('',(1.,0.,0.));
#1494=DIRECTION('center_axis',(0.,0.,1.));
#1495=DIRECTION('ref_axis',(1.,0.,0.));
#1496=DIRECTION('center_axis',(0.,0.,-1.));
#1497=DIRECTION('ref_axis',(1.,0.,0.));
#1498=DIRECTION('center_axis',(0.,0.,-1.));
#1499=DIRECTION('ref_axis',(1.,0.,0.));
#1500=DIRECTION('center_axis',(0.,0.,-1.));
#1501=DIRECTION('ref_axis',(1.,0.,0.));
#1502=DIRECTION('center_axis',(0.,0.,-1.));
#1503=DIRECTION('ref_axis',(1.,0.,0.));
#1504=DIRECTION('center_axis',(0.,0.,-1.));
#1505=DIRECTION('ref_axis',(1.,0.,0.));
#1506=DIRECTION('center_axis',(0.,0.,-1.));
#1507=DIRECTION('ref_axis',(1.,0.,0.));
#1508=DIRECTION('center_axis',(0.,0.,-1.));
#1509=DIRECTION('ref_axis',(1.,0.,0.));
#1510=DIRECTION('center_axis',(0.,0.,-1.));
#1511=DIRECTION('ref_axis',(1.,0.,0.));
#1512=DIRECTION('center_axis',(0.,0.,-1.));
#1513=DIRECTION('ref_axis',(1.,0.,0.));
#1514=DIRECTION('center_axis',(0.,0.,-1.));
#1515=DIRECTION('ref_axis',(1.,0.,0.));
#1516=DIRECTION('center_axis',(0.,0.,-1.));
#1517=DIRECTION('ref_axis',(1.,0.,0.));
#1518=DIRECTION('center_axis',(0.,0.,-1.));
#1519=DIRECTION('ref_axis',(1.,0.,0.));
#1520=DIRECTION('center_axis',(0.,0.,-1.));
#1521=DIRECTION('ref_axis',(1.,0.,0.));
#1522=DIRECTION('center_axis',(0.,0.,-1.));
#1523=DIRECTION('ref_axis',(1.,0.,0.));
#1524=DIRECTION('center_axis',(0.,0.,-1.));
#1525=DIRECTION('ref_axis',(1.,0.,0.));
#1526=DIRECTION('center_axis',(0.,0.,-1.));
#1527=DIRECTION('ref_axis',(1.,0.,0.));
#1528=DIRECTION('center_axis',(0.,0.,-1.));
#1529=DIRECTION('ref_axis',(1.,0.,0.));
#1530=DIRECTION('center_axis',(0.,0.,-1.));
#1531=DIRECTION('ref_axis',(1.,0.,0.));
#1532=DIRECTION('center_axis',(0.,0.,-1.));
#1533=DIRECTION('ref_axis',(1.,0.,0.));
#1534=DIRECTION('center_axis',(0.,0.,-1.));
#1535=DIRECTION('ref_axis',(1.,0.,0.));
#1536=DIRECTION('center_axis',(0.,0.,-1.));
#1537=DIRECTION('ref_axis',(1.,0.,0.));
#1538=DIRECTION('center_axis',(0.,0.,-1.));
#1539=DIRECTION('ref_axis',(1.,0.,0.));
#1540=DIRECTION('center_axis',(0.,0.,-1.));
#1541=DIRECTION('ref_axis',(1.,0.,0.));
#1542=DIRECTION('center_axis',(0.,0.,-1.));
#1543=DIRECTION('ref_axis',(1.,0.,0.));
#1544=DIRECTION('center_axis',(0.,0.,-1.));
#1545=DIRECTION('ref_axis',(1.,0.,0.));
#1546=DIRECTION('center_axis',(0.,0.,-1.));
#1547=DIRECTION('ref_axis',(1.,0.,0.));
#1548=DIRECTION('center_axis',(0.,0.,-1.));
#1549=DIRECTION('ref_axis',(1.,0.,0.));
#1550=DIRECTION('center_axis',(0.,0.,-1.));
#1551=DIRECTION('ref_axis',(1.,0.,0.));
#1552=DIRECTION('center_axis',(0.,0.,-1.));
#1553=DIRECTION('ref_axis',(1.,0.,0.));
#1554=DIRECTION('center_axis',(0.,0.,-1.));
#1555=DIRECTION('ref_axis',(1.,0.,0.));
#1556=DIRECTION('center_axis',(0.,0.,-1.));
#1557=DIRECTION('ref_axis',(1.,0.,0.));
#1558=DIRECTION('center_axis',(0.,0.,-1.));
#1559=DIRECTION('ref_axis',(1.,0.,0.));
#1560=DIRECTION('center_axis',(0.,0.,-1.));
#1561=DIRECTION('ref_axis',(1.,0.,0.));
#1562=DIRECTION('center_axis',(0.,0.,-1.));
#1563=DIRECTION('ref_axis',(1.,0.,0.));
#1564=DIRECTION('center_axis',(0.,0.,-1.));
#1565=DIRECTION('ref_axis',(1.,0.,0.));
#1566=DIRECTION('center_axis',(0.,1.,0.));
#1567=DIRECTION('ref_axis',(-1.,0.,0.));
#1568=DIRECTION('',(-1.,0.,0.));
#1569=DIRECTION('center_axis',(0.,0.,1.));
#1570=DIRECTION('ref_axis',(1.,0.,0.));
#1571=DIRECTION('',(0.,0.,1.));
#1572=DIRECTION('center_axis',(0.,0.,-1.));
#1573=DIRECTION('ref_axis',(1.,0.,0.));
#1574=DIRECTION('center_axis',(0.,0.,1.));
#1575=DIRECTION('ref_axis',(1.,0.,0.));
#1576=DIRECTION('',(0.,0.,1.));
#1577=DIRECTION('center_axis',(0.,0.,-1.));
#1578=DIRECTION('ref_axis',(1.,0.,0.));
#1579=DIRECTION('center_axis',(0.,0.,1.));
#1580=DIRECTION('ref_axis',(1.,0.,0.));
#1581=DIRECTION('',(0.,0.,1.));
#1582=DIRECTION('center_axis',(0.,0.,-1.));
#1583=DIRECTION('ref_axis',(1.,0.,0.));
#1584=DIRECTION('center_axis',(0.,0.,1.));
#1585=DIRECTION('ref_axis',(1.,0.,0.));
#1586=DIRECTION('',(0.,0.,1.));
#1587=DIRECTION('center_axis',(0.,0.,-1.));
#1588=DIRECTION('ref_axis',(1.,0.,0.));
#1589=DIRECTION('center_axis',(0.,0.,1.));
#1590=DIRECTION('ref_axis',(1.,0.,0.));
#1591=DIRECTION('',(0.,0.,1.));
#1592=DIRECTION('center_axis',(0.,0.,-1.));
#1593=DIRECTION('ref_axis',(1.,0.,0.));
#1594=DIRECTION('center_axis',(0.,0.,1.));
#1595=DIRECTION('ref_axis',(1.,0.,0.));
#1596=DIRECTION('',(0.,0.,1.));
#1597=DIRECTION('center_axis',(0.,0.,-1.));
#1598=DIRECTION('ref_axis',(1.,0.,0.));
#1599=DIRECTION('center_axis',(0.,0.,1.));
#1600=DIRECTION('ref_axis',(1.,0.,0.));
#1601=DIRECTION('',(0.,0.,1.));
#1602=DIRECTION('center_axis',(0.,0.,-1.));
#1603=DIRECTION('ref_axis',(1.,0.,0.));
#1604=DIRECTION('center_axis',(0.,0.,1.));
#1605=DIRECTION('ref_axis',(1.,0.,0.));
#1606=DIRECTION('',(0.,0.,1.));
#1607=DIRECTION('center_axis',(0.,0.,-1.));
#1608=DIRECTION('ref_axis',(1.,0.,0.));
#1609=DIRECTION('center_axis',(0.,0.,1.));
#1610=DIRECTION('ref_axis',(1.,0.,0.));
#1611=DIRECTION('',(0.,0.,1.));
#1612=DIRECTION('center_axis',(0.,0.,-1.));
#1613=DIRECTION('ref_axis',(1.,0.,0.));
#1614=DIRECTION('center_axis',(0.,0.,1.));
#1615=DIRECTION('ref_axis',(1.,0.,0.));
#1616=DIRECTION('',(0.,0.,1.));
#1617=DIRECTION('center_axis',(0.,0.,-1.));
#1618=DIRECTION('ref_axis',(1.,0.,0.));
#1619=DIRECTION('center_axis',(0.,0.,1.));
#1620=DIRECTION('ref_axis',(1.,0.,0.));
#1621=DIRECTION('',(0.,0.,1.));
#1622=DIRECTION('center_axis',(0.,0.,-1.));
#1623=DIRECTION('ref_axis',(1.,0.,0.));
#1624=DIRECTION('center_axis',(0.,0.,1.));
#1625=DIRECTION('ref_axis',(1.,0.,0.));
#1626=DIRECTION('',(0.,0.,1.));
#1627=DIRECTION('center_axis',(0.,0.,-1.));
#1628=DIRECTION('ref_axis',(1.,0.,0.));
#1629=DIRECTION('center_axis',(0.,0.,1.));
#1630=DIRECTION('ref_axis',(1.,0.,0.));
#1631=DIRECTION('',(0.,0.,1.));
#1632=DIRECTION('center_axis',(0.,0.,-1.));
#1633=DIRECTION('ref_axis',(1.,0.,0.));
#1634=DIRECTION('center_axis',(0.,0.,1.));
#1635=DIRECTION('ref_axis',(1.,0.,0.));
#1636=DIRECTION('',(0.,0.,1.));
#1637=DIRECTION('center_axis',(0.,0.,-1.));
#1638=DIRECTION('ref_axis',(1.,0.,0.));
#1639=DIRECTION('center_axis',(0.,0.,1.));
#1640=DIRECTION('ref_axis',(1.,0.,0.));
#1641=DIRECTION('',(0.,0.,1.));
#1642=DIRECTION('center_axis',(0.,0.,-1.));
#1643=DIRECTION('ref_axis',(1.,0.,0.));
#1644=DIRECTION('center_axis',(0.,0.,1.));
#1645=DIRECTION('ref_axis',(1.,0.,0.));
#1646=DIRECTION('',(0.,0.,1.));
#1647=DIRECTION('center_axis',(0.,0.,-1.));
#1648=DIRECTION('ref_axis',(1.,0.,0.));
#1649=DIRECTION('center_axis',(0.,0.,1.));
#1650=DIRECTION('ref_axis',(1.,0.,0.));
#1651=DIRECTION('',(0.,0.,1.));
#1652=DIRECTION('center_axis',(0.,0.,-1.));
#1653=DIRECTION('ref_axis',(1.,0.,0.));
#1654=DIRECTION('center_axis',(0.,0.,1.));
#1655=DIRECTION('ref_axis',(1.,0.,0.));
#1656=DIRECTION('',(0.,0.,1.));
#1657=DIRECTION('center_axis',(0.,0.,-1.));
#1658=DIRECTION('ref_axis',(1.,0.,0.));
#1659=DIRECTION('center_axis',(0.,0.,1.));
#1660=DIRECTION('ref_axis',(1.,0.,0.));
#1661=DIRECTION('',(0.,0.,1.));
#1662=DIRECTION('center_axis',(0.,0.,-1.));
#1663=DIRECTION('ref_axis',(1.,0.,0.));
#1664=DIRECTION('center_axis',(0.,0.,1.));
#1665=DIRECTION('ref_axis',(1.,0.,0.));
#1666=DIRECTION('',(0.,0.,1.));
#1667=DIRECTION('center_axis',(0.,0.,-1.));
#1668=DIRECTION('ref_axis',(1.,0.,0.));
#1669=DIRECTION('center_axis',(0.,0.,1.));
#1670=DIRECTION('ref_axis',(1.,0.,0.));
#1671=DIRECTION('',(0.,0.,1.));
#1672=DIRECTION('center_axis',(0.,0.,-1.));
#1673=DIRECTION('ref_axis',(1.,0.,0.));
#1674=DIRECTION('center_axis',(0.,0.,1.));
#1675=DIRECTION('ref_axis',(1.,0.,0.));
#1676=DIRECTION('',(0.,0.,1.));
#1677=DIRECTION('center_axis',(0.,0.,-1.));
#1678=DIRECTION('ref_axis',(1.,0.,0.));
#1679=DIRECTION('center_axis',(0.,0.,1.));
#1680=DIRECTION('ref_axis',(1.,0.,0.));
#1681=DIRECTION('',(0.,0.,1.));
#1682=DIRECTION('center_axis',(0.,0.,-1.));
#1683=DIRECTION('ref_axis',(1.,0.,0.));
#1684=DIRECTION('center_axis',(0.,0.,1.));
#1685=DIRECTION('ref_axis',(1.,0.,0.));
#1686=DIRECTION('',(0.,0.,1.));
#1687=DIRECTION('center_axis',(0.,0.,-1.));
#1688=DIRECTION('ref_axis',(1.,0.,0.));
#1689=DIRECTION('center_axis',(0.,0.,1.));
#1690=DIRECTION('ref_axis',(1.,0.,0.));
#1691=DIRECTION('',(0.,0.,1.));
#1692=DIRECTION('center_axis',(0.,0.,-1.));
#1693=DIRECTION('ref_axis',(1.,0.,0.));
#1694=DIRECTION('center_axis',(0.,0.,1.));
#1695=DIRECTION('ref_axis',(1.,0.,0.));
#1696=DIRECTION('',(0.,0.,1.));
#1697=DIRECTION('center_axis',(0.,0.,-1.));
#1698=DIRECTION('ref_axis',(1.,0.,0.));
#1699=DIRECTION('center_axis',(0.,0.,1.));
#1700=DIRECTION('ref_axis',(1.,0.,0.));
#1701=DIRECTION('',(0.,0.,1.));
#1702=DIRECTION('center_axis',(0.,0.,-1.));
#1703=DIRECTION('ref_axis',(1.,0.,0.));
#1704=DIRECTION('center_axis',(0.,0.,1.));
#1705=DIRECTION('ref_axis',(1.,0.,0.));
#1706=DIRECTION('',(0.,0.,1.));
#1707=DIRECTION('center_axis',(0.,0.,-1.));
#1708=DIRECTION('ref_axis',(1.,0.,0.));
#1709=DIRECTION('center_axis',(0.,0.,1.));
#1710=DIRECTION('ref_axis',(1.,0.,0.));
#1711=DIRECTION('',(0.,0.,1.));
#1712=DIRECTION('center_axis',(0.,0.,-1.));
#1713=DIRECTION('ref_axis',(1.,0.,0.));
#1714=DIRECTION('center_axis',(0.,0.,1.));
#1715=DIRECTION('ref_axis',(1.,0.,0.));
#1716=DIRECTION('',(0.,0.,1.));
#1717=DIRECTION('center_axis',(0.,0.,-1.));
#1718=DIRECTION('ref_axis',(1.,0.,0.));
#1719=DIRECTION('center_axis',(0.,0.,1.));
#1720=DIRECTION('ref_axis',(1.,0.,0.));
#1721=DIRECTION('',(0.,0.,1.));
#1722=DIRECTION('center_axis',(0.,0.,-1.));
#1723=DIRECTION('ref_axis',(1.,0.,0.));
#1724=DIRECTION('center_axis',(0.,0.,1.));
#1725=DIRECTION('ref_axis',(1.,0.,0.));
#1726=DIRECTION('',(0.,0.,1.));
#1727=DIRECTION('center_axis',(0.,0.,-1.));
#1728=DIRECTION('ref_axis',(1.,0.,0.));
#1729=DIRECTION('center_axis',(0.,0.,1.));
#1730=DIRECTION('ref_axis',(1.,0.,0.));
#1731=DIRECTION('',(0.,0.,1.));
#1732=DIRECTION('center_axis',(0.,0.,-1.));
#1733=DIRECTION('ref_axis',(1.,0.,0.));
#1734=DIRECTION('center_axis',(0.,0.,1.));
#1735=DIRECTION('ref_axis',(1.,0.,0.));
#1736=DIRECTION('',(0.,0.,1.));
#1737=DIRECTION('center_axis',(0.,0.,-1.));
#1738=DIRECTION('ref_axis',(1.,0.,0.));
#1739=DIRECTION('center_axis',(0.,0.,1.));
#1740=DIRECTION('ref_axis',(1.,0.,0.));
#1741=DIRECTION('',(0.,0.,1.));
#1742=DIRECTION('center_axis',(0.,0.,-1.));
#1743=DIRECTION('ref_axis',(1.,0.,0.));
#1744=DIRECTION('center_axis',(0.,-1.,0.));
#1745=DIRECTION('ref_axis',(1.,0.,0.));
#1746=DIRECTION('',(1.,0.,0.));
#1747=DIRECTION('center_axis',(0.,0.,1.));
#1748=DIRECTION('ref_axis',(1.,0.,0.));
#1749=CARTESIAN_POINT('',(0.,0.,0.));
#1750=CARTESIAN_POINT('Origin',(-93.1999999999991,-112.122803025151,10.8514718625761));
#1751=CARTESIAN_POINT('',(-93.1999999999991,-47.5228030251515,5.40588745030457));
#1752=CARTESIAN_POINT('',(-93.1999999999991,-47.5228030251515,10.8514718625761));
#1753=CARTESIAN_POINT('',(-93.1999999999991,-47.5228030251515,1.5));
#1754=CARTESIAN_POINT('',(-93.1999999999991,-47.3228030251515,5.40588745030456));
#1755=CARTESIAN_POINT('',(-93.1999999999991,-112.122803025151,5.40588745030456));
#1756=CARTESIAN_POINT('',(-93.1999999999991,-47.3228030251515,10.8514718625761));
#1757=CARTESIAN_POINT('',(-93.1999999999991,-47.3228030251515,66.5));
#1758=CARTESIAN_POINT('',(-93.1999999999991,-112.122803025151,10.8514718625761));
#1759=CARTESIAN_POINT('Origin',(-93.1999999999991,-112.122803025151,5.40588745030456));
#1760=CARTESIAN_POINT('',(-93.0499999999991,-112.122803025151,5.25588745030456));
#1761=CARTESIAN_POINT('',(-94.9213203435587,-112.122803025151,7.12720779386421));
#1762=CARTESIAN_POINT('',(-92.9757359312872,-112.122803025151,5.18162338159262));
#1763=CARTESIAN_POINT('',(-94.9213203435587,-47.3228030251515,7.12720779386421));
#1764=CARTESIAN_POINT('',(-94.9213203435587,-112.122803025151,7.12720779386421));
#1765=CARTESIAN_POINT('',(-92.9757359312872,-47.3228030251515,5.18162338159262));
#1766=CARTESIAN_POINT('',(-93.0499999999991,-47.5228030251515,5.25588745030456));
#1767=CARTESIAN_POINT('',(-66.5735281374233,-47.5228030251515,-21.2205844122716));
#1768=CARTESIAN_POINT('',(-93.0499999999991,-79.8228030251515,5.25588745030456));
#1769=CARTESIAN_POINT('Origin',(-94.9213203435587,-112.122803025151,9.13015151901643));
#1770=CARTESIAN_POINT('',(-94.9213203435587,-112.122803025151,9.13015151901643));
#1771=CARTESIAN_POINT('',(-93.0499999999991,-112.122803025151,11.0014718625761));
#1772=CARTESIAN_POINT('',(-94.9213203435587,-112.122803025151,9.13015151901643));
#1773=CARTESIAN_POINT('',(-93.0499999999991,-47.5228030251515,11.0014718625761));
#1774=CARTESIAN_POINT('',(-93.0499999999991,-79.8228030251515,11.0014718625761));
#1775=CARTESIAN_POINT('',(-70.7485281374239,-47.5228030251515,33.3029437251522));
#1776=CARTESIAN_POINT('',(-94.9213203435587,-47.3228030251515,9.13015151901643));
#1777=CARTESIAN_POINT('',(-94.9213203435587,-47.3228030251515,9.13015151901643));
#1778=CARTESIAN_POINT('',(-94.9213203435587,-112.122803025151,9.13015151901643));
#1779=CARTESIAN_POINT('Origin',(-94.9213203435587,-112.122803025151,7.12720779386421));
#1780=CARTESIAN_POINT('',(-94.9213203435587,-112.122803025151,7.12720779386421));
#1781=CARTESIAN_POINT('',(-94.9213203435587,-47.3228030251515,7.12720779386421));
#1782=CARTESIAN_POINT('Origin',(-94.0606601717789,-47.3228030251515,8.12867965644034));
#1783=CARTESIAN_POINT('Origin',(-93.0499999999991,-47.5228030251515,1.5));
#1784=CARTESIAN_POINT('',(-93.0499999999991,-47.5228030251515,1.5));
#1785=CARTESIAN_POINT('',(-93.0499999999991,-47.5228030251515,1.5));
#1786=CARTESIAN_POINT('',(-93.0499999999991,-112.122803025151,1.5));
#1787=CARTESIAN_POINT('',(-93.0499999999991,-63.6728030251515,1.5));
#1788=CARTESIAN_POINT('',(-93.0499999999991,-112.122803025151,1.5));
#1789=CARTESIAN_POINT('Origin',(-93.0499999999991,-47.5228030251515,1.5));
#1790=CARTESIAN_POINT('',(-93.0499999999991,-112.122803025151,66.5));
#1791=CARTESIAN_POINT('',(-93.0499999999991,-112.122803025151,1.5));
#1792=CARTESIAN_POINT('',(-93.0499999999991,-47.5228030251515,66.5));
#1793=CARTESIAN_POINT('',(-93.0499999999991,-63.6728030251515,66.5));
#1794=CARTESIAN_POINT('',(-93.0499999999991,-47.5228030251515,1.5));
#1795=CARTESIAN_POINT('Origin',(9.4000000000009,-112.122803025151,5.4058874503046));
#1796=CARTESIAN_POINT('',(9.4000000000009,-47.5228030251515,5.4058874503046));
#1797=CARTESIAN_POINT('',(9.4000000000009,-47.5228030251515,10.8514718625761));
#1798=CARTESIAN_POINT('',(9.4000000000009,-47.5228030251515,1.5));
#1799=CARTESIAN_POINT('',(9.4000000000009,-47.3228030251515,10.8514718625761));
#1800=CARTESIAN_POINT('',(9.4000000000009,-112.122803025151,10.8514718625761));
#1801=CARTESIAN_POINT('',(9.4000000000009,-47.3228030251515,5.4058874503046));
#1802=CARTESIAN_POINT('',(9.4000000000009,-47.3228030251515,1.5));
#1803=CARTESIAN_POINT('',(9.4000000000009,-112.122803025151,5.4058874503046));
#1804=CARTESIAN_POINT('Origin',(9.4000000000009,-112.122803025151,10.8514718625761));
#1805=CARTESIAN_POINT('',(9.2500000000009,-112.122803025151,11.0014718625761));
#1806=CARTESIAN_POINT('',(11.1213203435605,-112.122803025151,9.1301515190165));
#1807=CARTESIAN_POINT('',(9.17573593128895,-112.122803025151,11.0757359312881));
#1808=CARTESIAN_POINT('',(11.1213203435605,-47.3228030251515,9.1301515190165));
#1809=CARTESIAN_POINT('',(11.1213203435605,-112.122803025151,9.1301515190165));
#1810=CARTESIAN_POINT('',(9.17573593128895,-47.3228030251515,11.0757359312881));
#1811=CARTESIAN_POINT('',(9.2500000000009,-47.5228030251515,11.0014718625761));
#1812=CARTESIAN_POINT('',(11.7378679656449,-47.5228030251515,8.51360389693209));
#1813=CARTESIAN_POINT('',(9.2500000000009,-112.122803025151,11.0014718625761));
#1814=CARTESIAN_POINT('Origin',(11.1213203435605,-112.122803025151,7.12720779386421));
#1815=CARTESIAN_POINT('',(11.1213203435605,-112.122803025151,7.12720779386421));
#1816=CARTESIAN_POINT('',(9.2500000000009,-112.122803025151,5.2558874503046));
#1817=CARTESIAN_POINT('',(11.1213203435605,-112.122803025151,7.12720779386421));
#1818=CARTESIAN_POINT('',(9.2500000000009,-47.5228030251515,5.25588745030459));
#1819=CARTESIAN_POINT('',(9.2500000000009,-112.122803025151,5.2558874503046));
#1820=CARTESIAN_POINT('',(9.28418830920456,-47.5228030251515,5.29007575950825));
#1821=CARTESIAN_POINT('',(11.1213203435605,-47.3228030251515,7.12720779386421));
#1822=CARTESIAN_POINT('',(11.1213203435605,-47.3228030251515,7.12720779386421));
#1823=CARTESIAN_POINT('',(11.1213203435605,-112.122803025151,7.12720779386421));
#1824=CARTESIAN_POINT('Origin',(11.1213203435605,-112.122803025151,9.1301515190165));
#1825=CARTESIAN_POINT('',(11.1213203435605,-112.122803025151,9.1301515190165));
#1826=CARTESIAN_POINT('',(11.1213203435605,-47.3228030251515,9.1301515190165));
#1827=CARTESIAN_POINT('Origin',(10.2606601717807,-47.3228030251515,8.12867965644036));
#1828=CARTESIAN_POINT('Origin',(9.2500000000009,-112.122803025151,1.5));
#1829=CARTESIAN_POINT('',(9.2500000000009,-47.5228030251515,66.5));
#1830=CARTESIAN_POINT('',(9.2500000000009,-47.5228030251515,1.5));
#1831=CARTESIAN_POINT('',(9.2500000000009,-112.122803025151,66.5));
#1832=CARTESIAN_POINT('',(9.2500000000009,-95.9728030251515,66.5));
#1833=CARTESIAN_POINT('',(9.2500000000009,-112.122803025151,1.5));
#1834=CARTESIAN_POINT('Origin',(9.2500000000009,-112.122803025151,1.5));
#1835=CARTESIAN_POINT('',(9.2500000000009,-112.122803025151,1.5));
#1836=CARTESIAN_POINT('',(9.2500000000009,-112.122803025151,1.5));
#1837=CARTESIAN_POINT('',(9.2500000000009,-47.5228030251515,1.5));
#1838=CARTESIAN_POINT('',(9.2500000000009,-95.9728030251515,1.5));
#1839=CARTESIAN_POINT('',(9.2500000000009,-47.5228030251515,1.5));
#1840=CARTESIAN_POINT('Origin',(-85.3999999999991,-49.4246228657191,55.5));
#1841=CARTESIAN_POINT('',(-85.3999999999991,-104.322803025151,55.5));
#1842=CARTESIAN_POINT('',(-85.3999999999991,-49.4246228657191,55.5));
#1843=CARTESIAN_POINT('',(-85.3999999999991,-64.6237129454353,55.5));
#1844=CARTESIAN_POINT('',(-85.3999999999991,-104.322803025151,1.5));
#1845=CARTESIAN_POINT('',(-85.3999999999991,-104.322803025151,55.5));
#1846=CARTESIAN_POINT('',(-85.3999999999991,-49.4246228657191,1.5));
#1847=CARTESIAN_POINT('',(-85.3999999999991,-104.322803025151,1.5));
#1848=CARTESIAN_POINT('',(-85.3999999999991,-49.4246228657191,55.5));
#1849=CARTESIAN_POINT('Origin',(7.00000010430813,-49.4246228657191,55.5));
#1850=CARTESIAN_POINT('',(7.00000010430812,-49.4246228657191,55.5));
#1851=CARTESIAN_POINT('',(-17.4499999478455,-49.4246228657191,55.5));
#1852=CARTESIAN_POINT('',(7.00000010430813,-49.4246228657191,1.5));
#1853=CARTESIAN_POINT('',(-85.3999999999991,-49.4246228657191,1.5));
#1854=CARTESIAN_POINT('',(7.00000010430812,-49.4246228657191,55.5));
#1855=CARTESIAN_POINT('Origin',(7.00000010430813,-104.322803025151,55.5));
#1856=CARTESIAN_POINT('',(7.00000010430813,-104.322803025151,55.5));
#1857=CARTESIAN_POINT('',(7.00000010430813,-92.0728030251515,55.5));
#1858=CARTESIAN_POINT('',(7.00000010430813,-104.322803025151,1.5));
#1859=CARTESIAN_POINT('',(7.00000010430812,-49.4246228657191,1.5));
#1860=CARTESIAN_POINT('',(7.00000010430813,-104.322803025151,55.5));
#1861=CARTESIAN_POINT('Origin',(-85.3999999999991,-104.322803025151,55.5));
#1862=CARTESIAN_POINT('',(-63.6499999999991,-104.322803025152,55.5));
#1863=CARTESIAN_POINT('',(9.4000000000009,-104.322803025151,1.5));
#1864=CARTESIAN_POINT('Origin',(-41.8999999999991,-79.8228030251515,1.5));
#1865=CARTESIAN_POINT('',(9.40000000000091,-112.122803025151,1.5));
#1866=CARTESIAN_POINT('',(-93.1999999999991,-47.5228030251515,1.5));
#1867=CARTESIAN_POINT('Origin',(-41.8999999999991,-79.8228030251515,55.5));
#1868=CARTESIAN_POINT('',(-23.6499999999991,-76.3228030251515,55.5));
#1869=CARTESIAN_POINT('Origin',(-19.3999999999991,-76.3228030251515,55.5));
#1870=CARTESIAN_POINT('',(-23.6499999999991,-87.3228030251515,55.5));
#1871=CARTESIAN_POINT('Origin',(-19.3999999999991,-87.3228030251515,55.5));
#1872=CARTESIAN_POINT('',(-56.6499999999991,-87.3228030251515,55.5));
#1873=CARTESIAN_POINT('Origin',(-52.3999999999991,-87.3228030251515,55.5));
#1874=CARTESIAN_POINT('',(-45.6499999999991,-87.3228030251515,55.5));
#1875=CARTESIAN_POINT('Origin',(-41.3999999999991,-87.3228030251515,55.5));
#1876=CARTESIAN_POINT('',(-12.6499999999991,-87.3228030251515,55.5));
#1877=CARTESIAN_POINT('Origin',(-8.3999999999991,-87.3228030251515,55.5));
#1878=CARTESIAN_POINT('',(-12.6499999999991,-98.3228030251515,55.5));
#1879=CARTESIAN_POINT('Origin',(-8.3999999999991,-98.3228030251515,55.5));
#1880=CARTESIAN_POINT('',(-23.6499999999991,-54.3228030251515,55.5));
#1881=CARTESIAN_POINT('Origin',(-19.3999999999991,-54.3228030251515,55.5));
#1882=CARTESIAN_POINT('',(-45.6499999999991,-98.3228030251515,55.5));
#1883=CARTESIAN_POINT('Origin',(-41.3999999999991,-98.3228030251515,55.5));
#1884=CARTESIAN_POINT('',(-34.6499999999991,-76.3228030251515,55.5));
#1885=CARTESIAN_POINT('Origin',(-30.3999999999991,-76.3228030251515,55.5));
#1886=CARTESIAN_POINT('',(-67.6499999999991,-76.3228030251515,55.5));
#1887=CARTESIAN_POINT('Origin',(-63.3999999999991,-76.3228030251515,55.5));
#1888=CARTESIAN_POINT('',(-67.6499999999991,-87.3228030251515,55.5));
#1889=CARTESIAN_POINT('Origin',(-63.3999999999991,-87.3228030251515,55.5));
#1890=CARTESIAN_POINT('',(-45.6499999999991,-76.3228030251515,55.5));
#1891=CARTESIAN_POINT('Origin',(-41.3999999999991,-76.3228030251515,55.5));
#1892=CARTESIAN_POINT('',(-78.6499999999991,-65.3228030251515,55.5));
#1893=CARTESIAN_POINT('Origin',(-74.3999999999991,-65.3228030251515,55.5));
#1894=CARTESIAN_POINT('',(-56.6499999999991,-76.3228030251515,55.5));
#1895=CARTESIAN_POINT('Origin',(-52.3999999999991,-76.3228030251515,55.5));
#1896=CARTESIAN_POINT('',(-34.6499999999991,-54.3228030251515,55.5));
#1897=CARTESIAN_POINT('Origin',(-30.3999999999991,-54.3228030251515,55.5));
#1898=CARTESIAN_POINT('',(-78.6499999999991,-87.3228030251515,55.5));
#1899=CARTESIAN_POINT('Origin',(-74.3999999999991,-87.3228030251515,55.5));
#1900=CARTESIAN_POINT('',(-67.6499999999991,-98.3228030251515,55.5));
#1901=CARTESIAN_POINT('Origin',(-63.3999999999991,-98.3228030251515,55.5));
#1902=CARTESIAN_POINT('',(-78.6499999999991,-76.3228030251515,55.5));
#1903=CARTESIAN_POINT('Origin',(-74.3999999999991,-76.3228030251515,55.5));
#1904=CARTESIAN_POINT('',(-67.6499999999991,-54.3228030251515,55.5));
#1905=CARTESIAN_POINT('Origin',(-63.3999999999991,-54.3228030251515,55.5));
#1906=CARTESIAN_POINT('',(-78.6499999999991,-98.3228030251515,55.5));
#1907=CARTESIAN_POINT('Origin',(-74.3999999999991,-98.3228030251515,55.5));
#1908=CARTESIAN_POINT('',(-56.6499999999991,-65.3228030251515,55.5));
#1909=CARTESIAN_POINT('Origin',(-52.3999999999991,-65.3228030251515,55.5));
#1910=CARTESIAN_POINT('',(-12.6499999999991,-54.3228030251515,55.5));
#1911=CARTESIAN_POINT('Origin',(-8.3999999999991,-54.3228030251515,55.5));
#1912=CARTESIAN_POINT('',(-78.6499999999991,-54.3228030251515,55.5));
#1913=CARTESIAN_POINT('Origin',(-74.3999999999991,-54.3228030251515,55.5));
#1914=CARTESIAN_POINT('',(-56.6499999999991,-54.3228030251515,55.5));
#1915=CARTESIAN_POINT('Origin',(-52.3999999999991,-54.3228030251515,55.5));
#1916=CARTESIAN_POINT('',(-23.6499999999991,-98.3228030251515,55.5));
#1917=CARTESIAN_POINT('Origin',(-19.3999999999991,-98.3228030251515,55.5));
#1918=CARTESIAN_POINT('',(-67.6499999999991,-65.3228030251515,55.5));
#1919=CARTESIAN_POINT('Origin',(-63.3999999999991,-65.3228030251515,55.5));
#1920=CARTESIAN_POINT('',(-12.6499999999991,-65.3228030251515,55.5));
#1921=CARTESIAN_POINT('Origin',(-8.3999999999991,-65.3228030251515,55.5));
#1922=CARTESIAN_POINT('',(-12.6499999999991,-76.3228030251515,55.5));
#1923=CARTESIAN_POINT('Origin',(-8.3999999999991,-76.3228030251515,55.5));
#1924=CARTESIAN_POINT('',(-34.6499999999991,-98.3228030251515,55.5));
#1925=CARTESIAN_POINT('Origin',(-30.3999999999991,-98.3228030251515,55.5));
#1926=CARTESIAN_POINT('',(-45.6499999999991,-54.3228030251515,55.5));
#1927=CARTESIAN_POINT('Origin',(-41.3999999999991,-54.3228030251515,55.5));
#1928=CARTESIAN_POINT('',(-34.6499999999991,-87.3228030251515,55.5));
#1929=CARTESIAN_POINT('Origin',(-30.3999999999991,-87.3228030251515,55.5));
#1930=CARTESIAN_POINT('',(-23.6499999999991,-65.3228030251515,55.5));
#1931=CARTESIAN_POINT('Origin',(-19.3999999999991,-65.3228030251515,55.5));
#1932=CARTESIAN_POINT('',(-45.6499999999991,-65.3228030251515,55.5));
#1933=CARTESIAN_POINT('Origin',(-41.3999999999991,-65.3228030251515,55.5));
#1934=CARTESIAN_POINT('',(-34.6499999999991,-65.3228030251515,55.5));
#1935=CARTESIAN_POINT('Origin',(-30.3999999999991,-65.3228030251515,55.5));
#1936=CARTESIAN_POINT('',(-56.6499999999991,-98.3228030251515,55.5));
#1937=CARTESIAN_POINT('Origin',(-52.3999999999991,-98.3228030251515,55.5));
#1938=CARTESIAN_POINT('Origin',(9.4000000000009,-47.5228030251515,1.5));
#1939=CARTESIAN_POINT('',(9.4000000000009,-47.5228030251515,66.5));
#1940=CARTESIAN_POINT('Origin',(-52.3999999999991,-98.3228030251515,1.5));
#1941=CARTESIAN_POINT('',(-56.6499999999991,-98.3228030251515,66.5));
#1942=CARTESIAN_POINT('',(-56.6499999999991,-98.3228030251515,1.5));
#1943=CARTESIAN_POINT('Origin',(-52.3999999999991,-98.3228030251515,66.5));
#1944=CARTESIAN_POINT('Origin',(-30.3999999999991,-65.3228030251515,1.5));
#1945=CARTESIAN_POINT('',(-34.6499999999991,-65.3228030251515,66.5));
#1946=CARTESIAN_POINT('',(-34.6499999999991,-65.3228030251515,1.5));
#1947=CARTESIAN_POINT('Origin',(-30.3999999999991,-65.3228030251515,66.5));
#1948=CARTESIAN_POINT('Origin',(-41.3999999999991,-65.3228030251515,1.5));
#1949=CARTESIAN_POINT('',(-45.6499999999991,-65.3228030251515,66.5));
#1950=CARTESIAN_POINT('',(-45.6499999999991,-65.3228030251515,1.5));
#1951=CARTESIAN_POINT('Origin',(-41.3999999999991,-65.3228030251515,66.5));
#1952=CARTESIAN_POINT('Origin',(-19.3999999999991,-65.3228030251515,1.5));
#1953=CARTESIAN_POINT('',(-23.6499999999991,-65.3228030251515,66.5));
#1954=CARTESIAN_POINT('',(-23.6499999999991,-65.3228030251515,1.5));
#1955=CARTESIAN_POINT('Origin',(-19.3999999999991,-65.3228030251515,66.5));
#1956=CARTESIAN_POINT('Origin',(-30.3999999999991,-87.3228030251515,1.5));
#1957=CARTESIAN_POINT('',(-34.6499999999991,-87.3228030251515,66.5));
#1958=CARTESIAN_POINT('',(-34.6499999999991,-87.3228030251515,1.5));
#1959=CARTESIAN_POINT('Origin',(-30.3999999999991,-87.3228030251515,66.5));
#1960=CARTESIAN_POINT('Origin',(-41.3999999999991,-54.3228030251515,1.5));
#1961=CARTESIAN_POINT('',(-45.6499999999991,-54.3228030251515,66.5));
#1962=CARTESIAN_POINT('',(-45.6499999999991,-54.3228030251515,1.5));
#1963=CARTESIAN_POINT('Origin',(-41.3999999999991,-54.3228030251515,66.5));
#1964=CARTESIAN_POINT('Origin',(-30.3999999999991,-98.3228030251515,1.5));
#1965=CARTESIAN_POINT('',(-34.6499999999991,-98.3228030251515,66.5));
#1966=CARTESIAN_POINT('',(-34.6499999999991,-98.3228030251515,1.5));
#1967=CARTESIAN_POINT('Origin',(-30.3999999999991,-98.3228030251515,66.5));
#1968=CARTESIAN_POINT('Origin',(-8.3999999999991,-76.3228030251515,1.5));
#1969=CARTESIAN_POINT('',(-12.6499999999991,-76.3228030251515,66.5));
#1970=CARTESIAN_POINT('',(-12.6499999999991,-76.3228030251515,1.5));
#1971=CARTESIAN_POINT('Origin',(-8.3999999999991,-76.3228030251515,66.5));
#1972=CARTESIAN_POINT('Origin',(-8.3999999999991,-65.3228030251515,1.5));
#1973=CARTESIAN_POINT('',(-12.6499999999991,-65.3228030251515,66.5));
#1974=CARTESIAN_POINT('',(-12.6499999999991,-65.3228030251515,1.5));
#1975=CARTESIAN_POINT('Origin',(-8.3999999999991,-65.3228030251515,66.5));
#1976=CARTESIAN_POINT('Origin',(-63.3999999999991,-65.3228030251515,1.5));
#1977=CARTESIAN_POINT('',(-67.6499999999991,-65.3228030251515,66.5));
#1978=CARTESIAN_POINT('',(-67.6499999999991,-65.3228030251515,1.5));
#1979=CARTESIAN_POINT('Origin',(-63.3999999999991,-65.3228030251515,66.5));
#1980=CARTESIAN_POINT('Origin',(-19.3999999999991,-98.3228030251515,1.5));
#1981=CARTESIAN_POINT('',(-23.6499999999991,-98.3228030251515,66.5));
#1982=CARTESIAN_POINT('',(-23.6499999999991,-98.3228030251515,1.5));
#1983=CARTESIAN_POINT('Origin',(-19.3999999999991,-98.3228030251515,66.5));
#1984=CARTESIAN_POINT('Origin',(-52.3999999999991,-54.3228030251515,1.5));
#1985=CARTESIAN_POINT('',(-56.6499999999991,-54.3228030251515,66.5));
#1986=CARTESIAN_POINT('',(-56.6499999999991,-54.3228030251515,1.5));
#1987=CARTESIAN_POINT('Origin',(-52.3999999999991,-54.3228030251515,66.5));
#1988=CARTESIAN_POINT('Origin',(-74.3999999999991,-54.3228030251515,1.5));
#1989=CARTESIAN_POINT('',(-78.6499999999991,-54.3228030251515,66.5));
#1990=CARTESIAN_POINT('',(-78.6499999999991,-54.3228030251515,1.5));
#1991=CARTESIAN_POINT('Origin',(-74.3999999999991,-54.3228030251515,66.5));
#1992=CARTESIAN_POINT('Origin',(-8.3999999999991,-54.3228030251515,1.5));
#1993=CARTESIAN_POINT('',(-12.6499999999991,-54.3228030251515,66.5));
#1994=CARTESIAN_POINT('',(-12.6499999999991,-54.3228030251515,1.5));
#1995=CARTESIAN_POINT('Origin',(-8.3999999999991,-54.3228030251515,66.5));
#1996=CARTESIAN_POINT('Origin',(-52.3999999999991,-65.3228030251515,1.5));
#1997=CARTESIAN_POINT('',(-56.6499999999991,-65.3228030251515,66.5));
#1998=CARTESIAN_POINT('',(-56.6499999999991,-65.3228030251515,1.5));
#1999=CARTESIAN_POINT('Origin',(-52.3999999999991,-65.3228030251515,66.5));
#2000=CARTESIAN_POINT('Origin',(-74.3999999999991,-98.3228030251515,1.5));
#2001=CARTESIAN_POINT('',(-78.6499999999991,-98.3228030251515,66.5));
#2002=CARTESIAN_POINT('',(-78.6499999999991,-98.3228030251515,1.5));
#2003=CARTESIAN_POINT('Origin',(-74.3999999999991,-98.3228030251515,66.5));
#2004=CARTESIAN_POINT('Origin',(-63.3999999999991,-54.3228030251515,1.5));
#2005=CARTESIAN_POINT('',(-67.6499999999991,-54.3228030251515,66.5));
#2006=CARTESIAN_POINT('',(-67.6499999999991,-54.3228030251515,1.5));
#2007=CARTESIAN_POINT('Origin',(-63.3999999999991,-54.3228030251515,66.5));
#2008=CARTESIAN_POINT('Origin',(-74.3999999999991,-76.3228030251515,1.5));
#2009=CARTESIAN_POINT('',(-78.6499999999991,-76.3228030251515,66.5));
#2010=CARTESIAN_POINT('',(-78.6499999999991,-76.3228030251515,1.5));
#2011=CARTESIAN_POINT('Origin',(-74.3999999999991,-76.3228030251515,66.5));
#2012=CARTESIAN_POINT('Origin',(-63.3999999999991,-98.3228030251515,1.5));
#2013=CARTESIAN_POINT('',(-67.6499999999991,-98.3228030251515,66.5));
#2014=CARTESIAN_POINT('',(-67.6499999999991,-98.3228030251515,1.5));
#2015=CARTESIAN_POINT('Origin',(-63.3999999999991,-98.3228030251515,66.5));
#2016=CARTESIAN_POINT('Origin',(-74.3999999999991,-87.3228030251515,1.5));
#2017=CARTESIAN_POINT('',(-78.6499999999991,-87.3228030251515,66.5));
#2018=CARTESIAN_POINT('',(-78.6499999999991,-87.3228030251515,1.5));
#2019=CARTESIAN_POINT('Origin',(-74.3999999999991,-87.3228030251515,66.5));
#2020=CARTESIAN_POINT('Origin',(-30.3999999999991,-54.3228030251515,1.5));
#2021=CARTESIAN_POINT('',(-34.6499999999991,-54.3228030251515,66.5));
#2022=CARTESIAN_POINT('',(-34.6499999999991,-54.3228030251515,1.5));
#2023=CARTESIAN_POINT('Origin',(-30.3999999999991,-54.3228030251515,66.5));
#2024=CARTESIAN_POINT('Origin',(-52.3999999999991,-76.3228030251515,1.5));
#2025=CARTESIAN_POINT('',(-56.6499999999991,-76.3228030251515,66.5));
#2026=CARTESIAN_POINT('',(-56.6499999999991,-76.3228030251515,1.5));
#2027=CARTESIAN_POINT('Origin',(-52.3999999999991,-76.3228030251515,66.5));
#2028=CARTESIAN_POINT('Origin',(-74.3999999999991,-65.3228030251515,1.5));
#2029=CARTESIAN_POINT('',(-78.6499999999991,-65.3228030251515,66.5));
#2030=CARTESIAN_POINT('',(-78.6499999999991,-65.3228030251515,1.5));
#2031=CARTESIAN_POINT('Origin',(-74.3999999999991,-65.3228030251515,66.5));
#2032=CARTESIAN_POINT('Origin',(-41.3999999999991,-76.3228030251515,1.5));
#2033=CARTESIAN_POINT('',(-45.6499999999991,-76.3228030251515,66.5));
#2034=CARTESIAN_POINT('',(-45.6499999999991,-76.3228030251515,1.5));
#2035=CARTESIAN_POINT('Origin',(-41.3999999999991,-76.3228030251515,66.5));
#2036=CARTESIAN_POINT('Origin',(-63.3999999999991,-87.3228030251515,1.5));
#2037=CARTESIAN_POINT('',(-67.6499999999991,-87.3228030251515,66.5));
#2038=CARTESIAN_POINT('',(-67.6499999999991,-87.3228030251515,1.5));
#2039=CARTESIAN_POINT('Origin',(-63.3999999999991,-87.3228030251515,66.5));
#2040=CARTESIAN_POINT('Origin',(-63.3999999999991,-76.3228030251515,1.5));
#2041=CARTESIAN_POINT('',(-67.6499999999991,-76.3228030251515,66.5));
#2042=CARTESIAN_POINT('',(-67.6499999999991,-76.3228030251515,1.5));
#2043=CARTESIAN_POINT('Origin',(-63.3999999999991,-76.3228030251515,66.5));
#2044=CARTESIAN_POINT('Origin',(-30.3999999999991,-76.3228030251515,1.5));
#2045=CARTESIAN_POINT('',(-34.6499999999991,-76.3228030251515,66.5));
#2046=CARTESIAN_POINT('',(-34.6499999999991,-76.3228030251515,1.5));
#2047=CARTESIAN_POINT('Origin',(-30.3999999999991,-76.3228030251515,66.5));
#2048=CARTESIAN_POINT('Origin',(-41.3999999999991,-98.3228030251515,1.5));
#2049=CARTESIAN_POINT('',(-45.6499999999991,-98.3228030251515,66.5));
#2050=CARTESIAN_POINT('',(-45.6499999999991,-98.3228030251515,1.5));
#2051=CARTESIAN_POINT('Origin',(-41.3999999999991,-98.3228030251515,66.5));
#2052=CARTESIAN_POINT('Origin',(-19.3999999999991,-54.3228030251515,1.5));
#2053=CARTESIAN_POINT('',(-23.6499999999991,-54.3228030251515,66.5));
#2054=CARTESIAN_POINT('',(-23.6499999999991,-54.3228030251515,1.5));
#2055=CARTESIAN_POINT('Origin',(-19.3999999999991,-54.3228030251515,66.5));
#2056=CARTESIAN_POINT('Origin',(-8.3999999999991,-98.3228030251515,1.5));
#2057=CARTESIAN_POINT('',(-12.6499999999991,-98.3228030251515,66.5));
#2058=CARTESIAN_POINT('',(-12.6499999999991,-98.3228030251515,1.5));
#2059=CARTESIAN_POINT('Origin',(-8.3999999999991,-98.3228030251515,66.5));
#2060=CARTESIAN_POINT('Origin',(-8.3999999999991,-87.3228030251515,1.5));
#2061=CARTESIAN_POINT('',(-12.6499999999991,-87.3228030251515,66.5));
#2062=CARTESIAN_POINT('',(-12.6499999999991,-87.3228030251515,1.5));
#2063=CARTESIAN_POINT('Origin',(-8.3999999999991,-87.3228030251515,66.5));
#2064=CARTESIAN_POINT('Origin',(-41.3999999999991,-87.3228030251515,1.5));
#2065=CARTESIAN_POINT('',(-45.6499999999991,-87.3228030251515,66.5));
#2066=CARTESIAN_POINT('',(-45.6499999999991,-87.3228030251515,1.5));
#2067=CARTESIAN_POINT('Origin',(-41.3999999999991,-87.3228030251515,66.5));
#2068=CARTESIAN_POINT('Origin',(-52.3999999999991,-87.3228030251515,1.5));
#2069=CARTESIAN_POINT('',(-56.6499999999991,-87.3228030251515,66.5));
#2070=CARTESIAN_POINT('',(-56.6499999999991,-87.3228030251515,1.5));
#2071=CARTESIAN_POINT('Origin',(-52.3999999999991,-87.3228030251515,66.5));
#2072=CARTESIAN_POINT('Origin',(-19.3999999999991,-87.3228030251515,1.5));
#2073=CARTESIAN_POINT('',(-23.6499999999991,-87.3228030251515,66.5));
#2074=CARTESIAN_POINT('',(-23.6499999999991,-87.3228030251515,1.5));
#2075=CARTESIAN_POINT('Origin',(-19.3999999999991,-87.3228030251515,66.5));
#2076=CARTESIAN_POINT('Origin',(-19.3999999999991,-76.3228030251515,1.5));
#2077=CARTESIAN_POINT('',(-23.6499999999991,-76.3228030251515,66.5));
#2078=CARTESIAN_POINT('',(-23.6499999999991,-76.3228030251515,1.5));
#2079=CARTESIAN_POINT('Origin',(-19.3999999999991,-76.3228030251515,66.5));
#2080=CARTESIAN_POINT('Origin',(-93.1999999999991,-112.122803025151,1.5));
#2081=CARTESIAN_POINT('',(-93.1999999999991,-112.122803025151,66.5));
#2082=CARTESIAN_POINT('Origin',(-41.8999999999991,-79.8228030251515,66.5));
#2083=UNCERTAINTY_MEASURE_WITH_UNIT(LENGTH_MEASURE(0.01),#2087,
'DISTANCE_ACCURACY_VALUE',
'Maximum model space distance between geometric entities at asserted c
onnectivities');
#2084=UNCERTAINTY_MEASURE_WITH_UNIT(LENGTH_MEASURE(0.01),#2087,
'DISTANCE_ACCURACY_VALUE',
'Maximum model space distance between geometric entities at asserted c
onnectivities');
#2085=(
GEOMETRIC_REPRESENTATION_CONTEXT(3)
GLOBAL_UNCERTAINTY_ASSIGNED_CONTEXT((#2083))
GLOBAL_UNIT_ASSIGNED_CONTEXT((#2087,#2089,#2090))
REPRESENTATION_CONTEXT('','3D')
);
#2086=(
GEOMETRIC_REPRESENTATION_CONTEXT(3)
GLOBAL_UNCERTAINTY_ASSIGNED_CONTEXT((#2084))
GLOBAL_UNIT_ASSIGNED_CONTEXT((#2087,#2089,#2090))
REPRESENTATION_CONTEXT('','3D')
);
#2087=(
LENGTH_UNIT()
NAMED_UNIT(*)
SI_UNIT(.MILLI.,.METRE.)
);
#2088=(
LENGTH_UNIT()
NAMED_UNIT(*)
SI_UNIT($,.METRE.)
);
#2089=(
NAMED_UNIT(*)
PLANE_ANGLE_UNIT()
SI_UNIT($,.RADIAN.)
);
#2090=(
NAMED_UNIT(*)
SI_UNIT($,.STERADIAN.)
SOLID_ANGLE_UNIT()
);
#2091=SHAPE_DEFINITION_REPRESENTATION(#2092,#2093);
#2092=PRODUCT_DEFINITION_SHAPE('',$,#2095);
#2093=SHAPE_REPRESENTATION('',(#1267),#2085);
#2094=PRODUCT_DEFINITION_CONTEXT('part definition',#2099,'design');
#2095=PRODUCT_DEFINITION('2026-04-27-14-52-22-631','Pipette Holder',#2096,
#2094);
#2096=PRODUCT_DEFINITION_FORMATION('',$,#2101);
#2097=PRODUCT_RELATED_PRODUCT_CATEGORY('Pipette Holder',
'Pipette Holder',(#2101));
#2098=APPLICATION_PROTOCOL_DEFINITION('international standard',
'automotive_design',2009,#2099);
#2099=APPLICATION_CONTEXT(
'Core Data for Automotive Mechanical Design Process');
#2100=PRODUCT_CONTEXT('part definition',#2099,'mechanical');
#2101=PRODUCT('2026-04-27-14-52-22-631','Pipette Holder',$,(#2100));
#2102=PRESENTATION_STYLE_ASSIGNMENT((#2104));
#2103=PRESENTATION_STYLE_ASSIGNMENT((#2105));
#2104=SURFACE_STYLE_USAGE(.BOTH.,#2106);
#2105=SURFACE_STYLE_USAGE(.BOTH.,#2107);
#2106=SURFACE_SIDE_STYLE('',(#2108));
#2107=SURFACE_SIDE_STYLE('',(#2109));
#2108=SURFACE_STYLE_FILL_AREA(#2110);
#2109=SURFACE_STYLE_FILL_AREA(#2111);
#2110=FILL_AREA_STYLE('Steel - Satin',(#2112));
#2111=FILL_AREA_STYLE('Opaque(160,160,160)',(#2113));
#2112=FILL_AREA_STYLE_COLOUR('Steel - Satin',#2114);
#2113=FILL_AREA_STYLE_COLOUR('Opaque(160,160,160)',#2115);
#2114=COLOUR_RGB('Steel - Satin',0.627450980392157,0.627450980392157,0.627450980392157);
#2115=COLOUR_RGB('Opaque(160,160,160)',0.627450980392157,0.627450980392157,
0.627450980392157);
ENDSEC;
END-ISO-10303-21;
