ISO-10303-21;
HEADER;
/* Generated by software containing ST-Developer
 * from STEP Tools, Inc. (www.steptools.com) 
 */

FILE_DESCRIPTION(
/* description */ (''),
/* implementation_level */ '2;1');

FILE_NAME(
/* name */ 'Pipette Tip Disposal Chamber Unit.step',
/* time_stamp */ '2026-09-15T03:19:54+08:00',
/* author */ (''),
/* organization */ (''),
/* preprocessor_version */ 'ST-DEVELOPER v20.1',
/* originating_system */ 'Autodesk Translation Framework v15.8.0.0',
/* authorisation */ '');

FILE_SCHEMA (('AUTOMOTIVE_DESIGN { 1 0 10303 214 3 1 1 }'));
ENDSEC;

DATA;
#10=MECHANICAL_DESIGN_GEOMETRIC_PRESENTATION_REPRESENTATION('',(#23,#24),
#1422);
#11=ITEM_DEFINED_TRANSFORMATION($,$,#876,#949);
#12=ITEM_DEFINED_TRANSFORMATION($,$,#909,#950);
#13=(
REPRESENTATION_RELATIONSHIP($,$,#1436,#1435)
REPRESENTATION_RELATIONSHIP_WITH_TRANSFORMATION(#11)
SHAPE_REPRESENTATION_RELATIONSHIP()
);
#14=(
REPRESENTATION_RELATIONSHIP($,$,#1437,#1435)
REPRESENTATION_RELATIONSHIP_WITH_TRANSFORMATION(#12)
SHAPE_REPRESENTATION_RELATIONSHIP()
);
#15=CONTEXT_DEPENDENT_SHAPE_REPRESENTATION(#13,#1433);
#16=CONTEXT_DEPENDENT_SHAPE_REPRESENTATION(#14,#1434);
#17=NEXT_ASSEMBLY_USAGE_OCCURRENCE('Tip ejector part :1',
'Tip ejector part :1','Tip ejector part :1',#1439,#1440,
'Tip ejector part :1');
#18=NEXT_ASSEMBLY_USAGE_OCCURRENCE('Disposal chamber :1',
'Disposal chamber :1','Disposal chamber :1',#1439,#1441,
'Disposal chamber :1');
#19=SHAPE_REPRESENTATION_RELATIONSHIP('SRR','None',#1436,#21);
#20=SHAPE_REPRESENTATION_RELATIONSHIP('SRR','None',#1437,#22);
#21=ADVANCED_BREP_SHAPE_REPRESENTATION('',(#25),#1420);
#22=ADVANCED_BREP_SHAPE_REPRESENTATION('',(#26),#1421);
#23=STYLED_ITEM('',(#1455),#25);
#24=STYLED_ITEM('',(#1456),#26);
#25=MANIFOLD_SOLID_BREP('Body1',#850);
#26=MANIFOLD_SOLID_BREP('Body1',#851);
#27=FACE_BOUND('',#130,.T.);
#28=FACE_BOUND('',#131,.T.);
#29=FACE_BOUND('',#132,.T.);
#30=FACE_BOUND('',#133,.T.);
#31=FACE_BOUND('',#134,.T.);
#32=FACE_BOUND('',#135,.T.);
#33=FACE_BOUND('',#136,.T.);
#34=FACE_BOUND('',#137,.T.);
#35=FACE_BOUND('',#148,.T.);
#36=FACE_BOUND('',#149,.T.);
#37=FACE_BOUND('',#150,.T.);
#38=FACE_BOUND('',#151,.T.);
#39=FACE_BOUND('',#152,.T.);
#40=FACE_BOUND('',#153,.T.);
#41=FACE_BOUND('',#154,.T.);
#42=FACE_BOUND('',#155,.T.);
#43=FACE_BOUND('',#174,.T.);
#44=FACE_BOUND('',#177,.T.);
#45=FACE_BOUND('',#178,.T.);
#46=FACE_BOUND('',#179,.T.);
#47=FACE_BOUND('',#180,.T.);
#48=FACE_BOUND('',#181,.T.);
#49=FACE_BOUND('',#182,.T.);
#50=FACE_BOUND('',#186,.T.);
#51=FACE_BOUND('',#188,.T.);
#52=FACE_BOUND('',#189,.T.);
#53=FACE_BOUND('',#190,.T.);
#54=FACE_BOUND('',#191,.T.);
#55=FACE_BOUND('',#192,.T.);
#56=FACE_BOUND('',#193,.T.);
#57=PLANE('',#883);
#58=PLANE('',#884);
#59=PLANE('',#885);
#60=PLANE('',#886);
#61=PLANE('',#905);
#62=PLANE('',#906);
#63=PLANE('',#907);
#64=PLANE('',#908);
#65=PLANE('',#931);
#66=PLANE('',#932);
#67=PLANE('',#933);
#68=PLANE('',#934);
#69=PLANE('',#935);
#70=PLANE('',#936);
#71=PLANE('',#937);
#72=PLANE('',#938);
#73=PLANE('',#939);
#74=PLANE('',#940);
#75=PLANE('',#941);
#76=PLANE('',#942);
#77=PLANE('',#943);
#78=PLANE('',#944);
#79=PLANE('',#945);
#80=PLANE('',#946);
#81=PLANE('',#947);
#82=PLANE('',#948);
#83=FACE_OUTER_BOUND('',#124,.T.);
#84=FACE_OUTER_BOUND('',#125,.T.);
#85=FACE_OUTER_BOUND('',#126,.T.);
#86=FACE_OUTER_BOUND('',#127,.T.);
#87=FACE_OUTER_BOUND('',#128,.T.);
#88=FACE_OUTER_BOUND('',#129,.T.);
#89=FACE_OUTER_BOUND('',#138,.T.);
#90=FACE_OUTER_BOUND('',#139,.T.);
#91=FACE_OUTER_BOUND('',#140,.T.);
#92=FACE_OUTER_BOUND('',#141,.T.);
#93=FACE_OUTER_BOUND('',#142,.T.);
#94=FACE_OUTER_BOUND('',#143,.T.);
#95=FACE_OUTER_BOUND('',#144,.T.);
#96=FACE_OUTER_BOUND('',#145,.T.);
#97=FACE_OUTER_BOUND('',#146,.T.);
#98=FACE_OUTER_BOUND('',#147,.T.);
#99=FACE_OUTER_BOUND('',#156,.T.);
#100=FACE_OUTER_BOUND('',#157,.T.);
#101=FACE_OUTER_BOUND('',#158,.T.);
#102=FACE_OUTER_BOUND('',#159,.T.);
#103=FACE_OUTER_BOUND('',#160,.T.);
#104=FACE_OUTER_BOUND('',#161,.T.);
#105=FACE_OUTER_BOUND('',#162,.T.);
#106=FACE_OUTER_BOUND('',#163,.T.);
#107=FACE_OUTER_BOUND('',#164,.T.);
#108=FACE_OUTER_BOUND('',#165,.T.);
#109=FACE_OUTER_BOUND('',#166,.T.);
#110=FACE_OUTER_BOUND('',#167,.T.);
#111=FACE_OUTER_BOUND('',#168,.T.);
#112=FACE_OUTER_BOUND('',#169,.T.);
#113=FACE_OUTER_BOUND('',#170,.T.);
#114=FACE_OUTER_BOUND('',#171,.T.);
#115=FACE_OUTER_BOUND('',#172,.T.);
#116=FACE_OUTER_BOUND('',#173,.T.);
#117=FACE_OUTER_BOUND('',#175,.T.);
#118=FACE_OUTER_BOUND('',#176,.T.);
#119=FACE_OUTER_BOUND('',#183,.T.);
#120=FACE_OUTER_BOUND('',#184,.T.);
#121=FACE_OUTER_BOUND('',#185,.T.);
#122=FACE_OUTER_BOUND('',#187,.T.);
#123=FACE_OUTER_BOUND('',#194,.T.);
#124=EDGE_LOOP('',(#572,#573,#574,#575));
#125=EDGE_LOOP('',(#576,#577,#578,#579));
#126=EDGE_LOOP('',(#580,#581,#582,#583));
#127=EDGE_LOOP('',(#584,#585,#586,#587,#588,#589));
#128=EDGE_LOOP('',(#590,#591,#592,#593));
#129=EDGE_LOOP('',(#594,#595,#596,#597));
#130=EDGE_LOOP('',(#598));
#131=EDGE_LOOP('',(#599));
#132=EDGE_LOOP('',(#600));
#133=EDGE_LOOP('',(#601));
#134=EDGE_LOOP('',(#602));
#135=EDGE_LOOP('',(#603));
#136=EDGE_LOOP('',(#604));
#137=EDGE_LOOP('',(#605));
#138=EDGE_LOOP('',(#606,#607,#608,#609));
#139=EDGE_LOOP('',(#610,#611,#612,#613));
#140=EDGE_LOOP('',(#614,#615,#616,#617));
#141=EDGE_LOOP('',(#618,#619,#620,#621));
#142=EDGE_LOOP('',(#622,#623,#624,#625));
#143=EDGE_LOOP('',(#626,#627,#628,#629));
#144=EDGE_LOOP('',(#630,#631,#632,#633));
#145=EDGE_LOOP('',(#634,#635,#636,#637,#638,#639));
#146=EDGE_LOOP('',(#640,#641,#642,#643));
#147=EDGE_LOOP('',(#644,#645,#646,#647));
#148=EDGE_LOOP('',(#648));
#149=EDGE_LOOP('',(#649));
#150=EDGE_LOOP('',(#650));
#151=EDGE_LOOP('',(#651));
#152=EDGE_LOOP('',(#652));
#153=EDGE_LOOP('',(#653));
#154=EDGE_LOOP('',(#654));
#155=EDGE_LOOP('',(#655));
#156=EDGE_LOOP('',(#656,#657,#658,#659));
#157=EDGE_LOOP('',(#660,#661,#662,#663));
#158=EDGE_LOOP('',(#664,#665,#666,#667));
#159=EDGE_LOOP('',(#668,#669,#670,#671));
#160=EDGE_LOOP('',(#672,#673,#674,#675));
#161=EDGE_LOOP('',(#676,#677,#678,#679));
#162=EDGE_LOOP('',(#680,#681,#682,#683));
#163=EDGE_LOOP('',(#684,#685,#686,#687));
#164=EDGE_LOOP('',(#688,#689,#690,#691));
#165=EDGE_LOOP('',(#692,#693,#694,#695));
#166=EDGE_LOOP('',(#696,#697,#698,#699,#700,#701,#702,#703));
#167=EDGE_LOOP('',(#704,#705,#706,#707,#708,#709));
#168=EDGE_LOOP('',(#710,#711,#712,#713));
#169=EDGE_LOOP('',(#714,#715,#716,#717));
#170=EDGE_LOOP('',(#718,#719,#720,#721,#722,#723));
#171=EDGE_LOOP('',(#724,#725,#726,#727,#728,#729));
#172=EDGE_LOOP('',(#730,#731,#732,#733,#734,#735));
#173=EDGE_LOOP('',(#736,#737,#738,#739));
#174=EDGE_LOOP('',(#740));
#175=EDGE_LOOP('',(#741,#742,#743,#744,#745,#746,#747,#748));
#176=EDGE_LOOP('',(#749,#750,#751,#752));
#177=EDGE_LOOP('',(#753));
#178=EDGE_LOOP('',(#754));
#179=EDGE_LOOP('',(#755));
#180=EDGE_LOOP('',(#756));
#181=EDGE_LOOP('',(#757));
#182=EDGE_LOOP('',(#758));
#183=EDGE_LOOP('',(#759,#760,#761,#762,#763,#764));
#184=EDGE_LOOP('',(#765,#766,#767,#768,#769,#770,#771,#772));
#185=EDGE_LOOP('',(#773,#774,#775,#776));
#186=EDGE_LOOP('',(#777));
#187=EDGE_LOOP('',(#778,#779,#780,#781));
#188=EDGE_LOOP('',(#782));
#189=EDGE_LOOP('',(#783));
#190=EDGE_LOOP('',(#784));
#191=EDGE_LOOP('',(#785));
#192=EDGE_LOOP('',(#786));
#193=EDGE_LOOP('',(#787));
#194=EDGE_LOOP('',(#788,#789,#790,#791,#792,#793));
#195=LINE('',#1190,#276);
#196=LINE('',#1196,#277);
#197=LINE('',#1201,#278);
#198=LINE('',#1203,#279);
#199=LINE('',#1205,#280);
#200=LINE('',#1206,#281);
#201=LINE('',#1209,#282);
#202=LINE('',#1211,#283);
#203=LINE('',#1213,#284);
#204=LINE('',#1215,#285);
#205=LINE('',#1216,#286);
#206=LINE('',#1219,#287);
#207=LINE('',#1220,#288);
#208=LINE('',#1223,#289);
#209=LINE('',#1224,#290);
#210=LINE('',#1239,#291);
#211=LINE('',#1243,#292);
#212=LINE('',#1247,#293);
#213=LINE('',#1251,#294);
#214=LINE('',#1255,#295);
#215=LINE('',#1259,#296);
#216=LINE('',#1263,#297);
#217=LINE('',#1264,#298);
#218=LINE('',#1267,#299);
#219=LINE('',#1268,#300);
#220=LINE('',#1270,#301);
#221=LINE('',#1277,#302);
#222=LINE('',#1283,#303);
#223=LINE('',#1289,#304);
#224=LINE('',#1295,#305);
#225=LINE('',#1301,#306);
#226=LINE('',#1307,#307);
#227=LINE('',#1313,#308);
#228=LINE('',#1318,#309);
#229=LINE('',#1320,#310);
#230=LINE('',#1322,#311);
#231=LINE('',#1323,#312);
#232=LINE('',#1327,#313);
#233=LINE('',#1329,#314);
#234=LINE('',#1331,#315);
#235=LINE('',#1332,#316);
#236=LINE('',#1334,#317);
#237=LINE('',#1335,#318);
#238=LINE('',#1338,#319);
#239=LINE('',#1340,#320);
#240=LINE('',#1342,#321);
#241=LINE('',#1344,#322);
#242=LINE('',#1345,#323);
#243=LINE('',#1348,#324);
#244=LINE('',#1350,#325);
#245=LINE('',#1352,#326);
#246=LINE('',#1353,#327);
#247=LINE('',#1356,#328);
#248=LINE('',#1358,#329);
#249=LINE('',#1359,#330);
#250=LINE('',#1363,#331);
#251=LINE('',#1365,#332);
#252=LINE('',#1367,#333);
#253=LINE('',#1368,#334);
#254=LINE('',#1370,#335);
#255=LINE('',#1372,#336);
#256=LINE('',#1373,#337);
#257=LINE('',#1376,#338);
#258=LINE('',#1378,#339);
#259=LINE('',#1379,#340);
#260=LINE('',#1382,#341);
#261=LINE('',#1384,#342);
#262=LINE('',#1386,#343);
#263=LINE('',#1387,#344);
#264=LINE('',#1391,#345);
#265=LINE('',#1392,#346);
#266=LINE('',#1393,#347);
#267=LINE('',#1395,#348);
#268=LINE('',#1398,#349);
#269=LINE('',#1399,#350);
#270=LINE('',#1401,#351);
#271=LINE('',#1404,#352);
#272=LINE('',#1405,#353);
#273=LINE('',#1408,#354);
#274=LINE('',#1409,#355);
#275=LINE('',#1411,#356);
#276=VECTOR('',#959,3.25000000000002);
#277=VECTOR('',#966,3.25);
#278=VECTOR('',#971,10.);
#279=VECTOR('',#972,10.);
#280=VECTOR('',#973,10.);
#281=VECTOR('',#974,10.);
#282=VECTOR('',#977,10.);
#283=VECTOR('',#978,10.);
#284=VECTOR('',#979,10.);
#285=VECTOR('',#980,10.);
#286=VECTOR('',#981,10.);
#287=VECTOR('',#984,10.);
#288=VECTOR('',#985,10.);
#289=VECTOR('',#988,10.);
#290=VECTOR('',#989,10.);
#291=VECTOR('',#1004,3.25);
#292=VECTOR('',#1009,3.24999999999999);
#293=VECTOR('',#1014,3.25);
#294=VECTOR('',#1019,3.25);
#295=VECTOR('',#1024,3.25);
#296=VECTOR('',#1029,3.25);
#297=VECTOR('',#1034,10.);
#298=VECTOR('',#1035,10.);
#299=VECTOR('',#1038,10.);
#300=VECTOR('',#1039,10.);
#301=VECTOR('',#1042,10.);
#302=VECTOR('',#1051,2.5);
#303=VECTOR('',#1058,3.25);
#304=VECTOR('',#1065,3.25);
#305=VECTOR('',#1072,3.25);
#306=VECTOR('',#1079,3.25);
#307=VECTOR('',#1086,3.25);
#308=VECTOR('',#1093,3.24999999999999);
#309=VECTOR('',#1098,10.);
#310=VECTOR('',#1099,10.);
#311=VECTOR('',#1100,10.);
#312=VECTOR('',#1101,10.);
#313=VECTOR('',#1104,10.);
#314=VECTOR('',#1105,10.);
#315=VECTOR('',#1106,10.);
#316=VECTOR('',#1107,10.);
#317=VECTOR('',#1110,10.);
#318=VECTOR('',#1111,10.);
#319=VECTOR('',#1114,10.);
#320=VECTOR('',#1115,10.);
#321=VECTOR('',#1116,10.);
#322=VECTOR('',#1117,10.);
#323=VECTOR('',#1118,10.);
#324=VECTOR('',#1121,10.);
#325=VECTOR('',#1122,10.);
#326=VECTOR('',#1123,10.);
#327=VECTOR('',#1124,10.);
#328=VECTOR('',#1127,10.);
#329=VECTOR('',#1128,10.);
#330=VECTOR('',#1129,10.);
#331=VECTOR('',#1132,10.);
#332=VECTOR('',#1133,10.);
#333=VECTOR('',#1134,10.);
#334=VECTOR('',#1135,10.);
#335=VECTOR('',#1138,10.);
#336=VECTOR('',#1139,10.);
#337=VECTOR('',#1140,10.);
#338=VECTOR('',#1143,10.);
#339=VECTOR('',#1144,10.);
#340=VECTOR('',#1145,10.);
#341=VECTOR('',#1148,10.);
#342=VECTOR('',#1149,10.);
#343=VECTOR('',#1150,10.);
#344=VECTOR('',#1151,10.);
#345=VECTOR('',#1154,10.);
#346=VECTOR('',#1155,10.);
#347=VECTOR('',#1156,10.);
#348=VECTOR('',#1159,10.);
#349=VECTOR('',#1162,10.);
#350=VECTOR('',#1163,10.);
#351=VECTOR('',#1166,10.);
#352=VECTOR('',#1169,10.);
#353=VECTOR('',#1170,10.);
#354=VECTOR('',#1173,10.);
#355=VECTOR('',#1174,10.);
#356=VECTOR('',#1177,10.);
#357=CIRCLE('',#878,3.25000000000002);
#358=CIRCLE('',#879,3.25000000000002);
#359=CIRCLE('',#881,3.25);
#360=CIRCLE('',#882,3.25);
#361=CIRCLE('',#887,3.25);
#362=CIRCLE('',#888,3.25);
#363=CIRCLE('',#889,3.25);
#364=CIRCLE('',#890,3.25);
#365=CIRCLE('',#891,3.24999999999999);
#366=CIRCLE('',#892,3.25);
#367=CIRCLE('',#894,3.25);
#368=CIRCLE('',#896,3.24999999999999);
#369=CIRCLE('',#898,3.25);
#370=CIRCLE('',#900,3.25);
#371=CIRCLE('',#902,3.25);
#372=CIRCLE('',#904,3.25);
#373=CIRCLE('',#911,2.5);
#374=CIRCLE('',#912,2.5);
#375=CIRCLE('',#914,3.25);
#376=CIRCLE('',#915,3.25);
#377=CIRCLE('',#917,3.25);
#378=CIRCLE('',#918,3.25);
#379=CIRCLE('',#920,3.25);
#380=CIRCLE('',#921,3.25);
#381=CIRCLE('',#923,3.25);
#382=CIRCLE('',#924,3.25);
#383=CIRCLE('',#926,3.25);
#384=CIRCLE('',#927,3.25);
#385=CIRCLE('',#929,3.24999999999999);
#386=CIRCLE('',#930,3.24999999999999);
#387=VERTEX_POINT('',#1187);
#388=VERTEX_POINT('',#1189);
#389=VERTEX_POINT('',#1193);
#390=VERTEX_POINT('',#1195);
#391=VERTEX_POINT('',#1199);
#392=VERTEX_POINT('',#1200);
#393=VERTEX_POINT('',#1202);
#394=VERTEX_POINT('',#1204);
#395=VERTEX_POINT('',#1208);
#396=VERTEX_POINT('',#1210);
#397=VERTEX_POINT('',#1212);
#398=VERTEX_POINT('',#1214);
#399=VERTEX_POINT('',#1218);
#400=VERTEX_POINT('',#1222);
#401=VERTEX_POINT('',#1225);
#402=VERTEX_POINT('',#1227);
#403=VERTEX_POINT('',#1229);
#404=VERTEX_POINT('',#1231);
#405=VERTEX_POINT('',#1233);
#406=VERTEX_POINT('',#1235);
#407=VERTEX_POINT('',#1238);
#408=VERTEX_POINT('',#1242);
#409=VERTEX_POINT('',#1246);
#410=VERTEX_POINT('',#1250);
#411=VERTEX_POINT('',#1254);
#412=VERTEX_POINT('',#1258);
#413=VERTEX_POINT('',#1262);
#414=VERTEX_POINT('',#1266);
#415=VERTEX_POINT('',#1274);
#416=VERTEX_POINT('',#1276);
#417=VERTEX_POINT('',#1280);
#418=VERTEX_POINT('',#1282);
#419=VERTEX_POINT('',#1286);
#420=VERTEX_POINT('',#1288);
#421=VERTEX_POINT('',#1292);
#422=VERTEX_POINT('',#1294);
#423=VERTEX_POINT('',#1298);
#424=VERTEX_POINT('',#1300);
#425=VERTEX_POINT('',#1304);
#426=VERTEX_POINT('',#1306);
#427=VERTEX_POINT('',#1310);
#428=VERTEX_POINT('',#1312);
#429=VERTEX_POINT('',#1316);
#430=VERTEX_POINT('',#1317);
#431=VERTEX_POINT('',#1319);
#432=VERTEX_POINT('',#1321);
#433=VERTEX_POINT('',#1325);
#434=VERTEX_POINT('',#1326);
#435=VERTEX_POINT('',#1328);
#436=VERTEX_POINT('',#1330);
#437=VERTEX_POINT('',#1337);
#438=VERTEX_POINT('',#1339);
#439=VERTEX_POINT('',#1341);
#440=VERTEX_POINT('',#1343);
#441=VERTEX_POINT('',#1347);
#442=VERTEX_POINT('',#1349);
#443=VERTEX_POINT('',#1351);
#444=VERTEX_POINT('',#1355);
#445=VERTEX_POINT('',#1357);
#446=VERTEX_POINT('',#1361);
#447=VERTEX_POINT('',#1362);
#448=VERTEX_POINT('',#1364);
#449=VERTEX_POINT('',#1366);
#450=VERTEX_POINT('',#1371);
#451=VERTEX_POINT('',#1375);
#452=VERTEX_POINT('',#1377);
#453=VERTEX_POINT('',#1381);
#454=VERTEX_POINT('',#1383);
#455=VERTEX_POINT('',#1385);
#456=VERTEX_POINT('',#1389);
#457=VERTEX_POINT('',#1390);
#458=VERTEX_POINT('',#1397);
#459=VERTEX_POINT('',#1403);
#460=VERTEX_POINT('',#1407);
#461=EDGE_CURVE('',#387,#387,#357,.T.);
#462=EDGE_CURVE('',#387,#388,#195,.T.);
#463=EDGE_CURVE('',#388,#388,#358,.T.);
#464=EDGE_CURVE('',#389,#389,#359,.T.);
#465=EDGE_CURVE('',#389,#390,#196,.T.);
#466=EDGE_CURVE('',#390,#390,#360,.T.);
#467=EDGE_CURVE('',#391,#392,#197,.T.);
#468=EDGE_CURVE('',#393,#392,#198,.T.);
#469=EDGE_CURVE('',#394,#393,#199,.T.);
#470=EDGE_CURVE('',#391,#394,#200,.T.);
#471=EDGE_CURVE('',#392,#395,#201,.T.);
#472=EDGE_CURVE('',#395,#396,#202,.T.);
#473=EDGE_CURVE('',#397,#396,#203,.T.);
#474=EDGE_CURVE('',#397,#398,#204,.T.);
#475=EDGE_CURVE('',#393,#398,#205,.T.);
#476=EDGE_CURVE('',#398,#399,#206,.T.);
#477=EDGE_CURVE('',#399,#394,#207,.T.);
#478=EDGE_CURVE('',#400,#391,#208,.T.);
#479=EDGE_CURVE('',#395,#400,#209,.T.);
#480=EDGE_CURVE('',#401,#401,#361,.T.);
#481=EDGE_CURVE('',#402,#402,#362,.T.);
#482=EDGE_CURVE('',#403,#403,#363,.T.);
#483=EDGE_CURVE('',#404,#404,#364,.T.);
#484=EDGE_CURVE('',#405,#405,#365,.T.);
#485=EDGE_CURVE('',#406,#406,#366,.T.);
#486=EDGE_CURVE('',#406,#407,#210,.T.);
#487=EDGE_CURVE('',#407,#407,#367,.T.);
#488=EDGE_CURVE('',#405,#408,#211,.T.);
#489=EDGE_CURVE('',#408,#408,#368,.T.);
#490=EDGE_CURVE('',#404,#409,#212,.T.);
#491=EDGE_CURVE('',#409,#409,#369,.T.);
#492=EDGE_CURVE('',#403,#410,#213,.T.);
#493=EDGE_CURVE('',#410,#410,#370,.T.);
#494=EDGE_CURVE('',#402,#411,#214,.T.);
#495=EDGE_CURVE('',#411,#411,#371,.T.);
#496=EDGE_CURVE('',#401,#412,#215,.T.);
#497=EDGE_CURVE('',#412,#412,#372,.T.);
#498=EDGE_CURVE('',#413,#397,#216,.T.);
#499=EDGE_CURVE('',#399,#413,#217,.T.);
#500=EDGE_CURVE('',#414,#413,#218,.T.);
#501=EDGE_CURVE('',#400,#414,#219,.T.);
#502=EDGE_CURVE('',#396,#414,#220,.T.);
#503=EDGE_CURVE('',#415,#415,#373,.T.);
#504=EDGE_CURVE('',#415,#416,#221,.T.);
#505=EDGE_CURVE('',#416,#416,#374,.T.);
#506=EDGE_CURVE('',#417,#417,#375,.T.);
#507=EDGE_CURVE('',#417,#418,#222,.T.);
#508=EDGE_CURVE('',#418,#418,#376,.T.);
#509=EDGE_CURVE('',#419,#419,#377,.T.);
#510=EDGE_CURVE('',#419,#420,#223,.T.);
#511=EDGE_CURVE('',#420,#420,#378,.T.);
#512=EDGE_CURVE('',#421,#421,#379,.T.);
#513=EDGE_CURVE('',#421,#422,#224,.T.);
#514=EDGE_CURVE('',#422,#422,#380,.T.);
#515=EDGE_CURVE('',#423,#423,#381,.T.);
#516=EDGE_CURVE('',#423,#424,#225,.T.);
#517=EDGE_CURVE('',#424,#424,#382,.T.);
#518=EDGE_CURVE('',#425,#425,#383,.T.);
#519=EDGE_CURVE('',#425,#426,#226,.T.);
#520=EDGE_CURVE('',#426,#426,#384,.T.);
#521=EDGE_CURVE('',#427,#427,#385,.T.);
#522=EDGE_CURVE('',#427,#428,#227,.T.);
#523=EDGE_CURVE('',#428,#428,#386,.T.);
#524=EDGE_CURVE('',#429,#430,#228,.T.);
#525=EDGE_CURVE('',#431,#429,#229,.T.);
#526=EDGE_CURVE('',#431,#432,#230,.T.);
#527=EDGE_CURVE('',#430,#432,#231,.T.);
#528=EDGE_CURVE('',#433,#434,#232,.T.);
#529=EDGE_CURVE('',#435,#433,#233,.T.);
#530=EDGE_CURVE('',#435,#436,#234,.T.);
#531=EDGE_CURVE('',#434,#436,#235,.T.);
#532=EDGE_CURVE('',#432,#435,#236,.T.);
#533=EDGE_CURVE('',#436,#431,#237,.T.);
#534=EDGE_CURVE('',#429,#437,#238,.T.);
#535=EDGE_CURVE('',#437,#438,#239,.T.);
#536=EDGE_CURVE('',#439,#438,#240,.T.);
#537=EDGE_CURVE('',#440,#439,#241,.T.);
#538=EDGE_CURVE('',#440,#434,#242,.T.);
#539=EDGE_CURVE('',#441,#430,#243,.T.);
#540=EDGE_CURVE('',#442,#441,#244,.T.);
#541=EDGE_CURVE('',#443,#442,#245,.T.);
#542=EDGE_CURVE('',#437,#443,#246,.T.);
#543=EDGE_CURVE('',#444,#442,#247,.T.);
#544=EDGE_CURVE('',#445,#444,#248,.T.);
#545=EDGE_CURVE('',#443,#445,#249,.T.);
#546=EDGE_CURVE('',#446,#447,#250,.T.);
#547=EDGE_CURVE('',#446,#448,#251,.T.);
#548=EDGE_CURVE('',#449,#448,#252,.T.);
#549=EDGE_CURVE('',#447,#449,#253,.T.);
#550=EDGE_CURVE('',#448,#440,#254,.T.);
#551=EDGE_CURVE('',#450,#446,#255,.T.);
#552=EDGE_CURVE('',#433,#450,#256,.T.);
#553=EDGE_CURVE('',#451,#445,#257,.T.);
#554=EDGE_CURVE('',#451,#452,#258,.T.);
#555=EDGE_CURVE('',#438,#452,#259,.T.);
#556=EDGE_CURVE('',#441,#453,#260,.T.);
#557=EDGE_CURVE('',#453,#454,#261,.T.);
#558=EDGE_CURVE('',#455,#454,#262,.T.);
#559=EDGE_CURVE('',#444,#455,#263,.T.);
#560=EDGE_CURVE('',#456,#457,#264,.T.);
#561=EDGE_CURVE('',#454,#456,#265,.T.);
#562=EDGE_CURVE('',#457,#453,#266,.T.);
#563=EDGE_CURVE('',#450,#457,#267,.F.);
#564=EDGE_CURVE('',#458,#456,#268,.T.);
#565=EDGE_CURVE('',#455,#458,#269,.T.);
#566=EDGE_CURVE('',#458,#447,#270,.T.);
#567=EDGE_CURVE('',#449,#459,#271,.T.);
#568=EDGE_CURVE('',#459,#451,#272,.T.);
#569=EDGE_CURVE('',#460,#439,#273,.T.);
#570=EDGE_CURVE('',#452,#460,#274,.T.);
#571=EDGE_CURVE('',#459,#460,#275,.T.);
#572=ORIENTED_EDGE('',*,*,#461,.F.);
#573=ORIENTED_EDGE('',*,*,#462,.T.);
#574=ORIENTED_EDGE('',*,*,#463,.F.);
#575=ORIENTED_EDGE('',*,*,#462,.F.);
#576=ORIENTED_EDGE('',*,*,#464,.F.);
#577=ORIENTED_EDGE('',*,*,#465,.T.);
#578=ORIENTED_EDGE('',*,*,#466,.F.);
#579=ORIENTED_EDGE('',*,*,#465,.F.);
#580=ORIENTED_EDGE('',*,*,#467,.T.);
#581=ORIENTED_EDGE('',*,*,#468,.F.);
#582=ORIENTED_EDGE('',*,*,#469,.F.);
#583=ORIENTED_EDGE('',*,*,#470,.F.);
#584=ORIENTED_EDGE('',*,*,#468,.T.);
#585=ORIENTED_EDGE('',*,*,#471,.T.);
#586=ORIENTED_EDGE('',*,*,#472,.T.);
#587=ORIENTED_EDGE('',*,*,#473,.F.);
#588=ORIENTED_EDGE('',*,*,#474,.T.);
#589=ORIENTED_EDGE('',*,*,#475,.F.);
#590=ORIENTED_EDGE('',*,*,#469,.T.);
#591=ORIENTED_EDGE('',*,*,#475,.T.);
#592=ORIENTED_EDGE('',*,*,#476,.T.);
#593=ORIENTED_EDGE('',*,*,#477,.T.);
#594=ORIENTED_EDGE('',*,*,#478,.F.);
#595=ORIENTED_EDGE('',*,*,#479,.F.);
#596=ORIENTED_EDGE('',*,*,#471,.F.);
#597=ORIENTED_EDGE('',*,*,#467,.F.);
#598=ORIENTED_EDGE('',*,*,#480,.F.);
#599=ORIENTED_EDGE('',*,*,#481,.F.);
#600=ORIENTED_EDGE('',*,*,#482,.F.);
#601=ORIENTED_EDGE('',*,*,#483,.F.);
#602=ORIENTED_EDGE('',*,*,#484,.F.);
#603=ORIENTED_EDGE('',*,*,#485,.F.);
#604=ORIENTED_EDGE('',*,*,#464,.T.);
#605=ORIENTED_EDGE('',*,*,#461,.T.);
#606=ORIENTED_EDGE('',*,*,#485,.T.);
#607=ORIENTED_EDGE('',*,*,#486,.T.);
#608=ORIENTED_EDGE('',*,*,#487,.F.);
#609=ORIENTED_EDGE('',*,*,#486,.F.);
#610=ORIENTED_EDGE('',*,*,#484,.T.);
#611=ORIENTED_EDGE('',*,*,#488,.T.);
#612=ORIENTED_EDGE('',*,*,#489,.F.);
#613=ORIENTED_EDGE('',*,*,#488,.F.);
#614=ORIENTED_EDGE('',*,*,#483,.T.);
#615=ORIENTED_EDGE('',*,*,#490,.T.);
#616=ORIENTED_EDGE('',*,*,#491,.F.);
#617=ORIENTED_EDGE('',*,*,#490,.F.);
#618=ORIENTED_EDGE('',*,*,#482,.T.);
#619=ORIENTED_EDGE('',*,*,#492,.T.);
#620=ORIENTED_EDGE('',*,*,#493,.F.);
#621=ORIENTED_EDGE('',*,*,#492,.F.);
#622=ORIENTED_EDGE('',*,*,#481,.T.);
#623=ORIENTED_EDGE('',*,*,#494,.T.);
#624=ORIENTED_EDGE('',*,*,#495,.F.);
#625=ORIENTED_EDGE('',*,*,#494,.F.);
#626=ORIENTED_EDGE('',*,*,#480,.T.);
#627=ORIENTED_EDGE('',*,*,#496,.T.);
#628=ORIENTED_EDGE('',*,*,#497,.F.);
#629=ORIENTED_EDGE('',*,*,#496,.F.);
#630=ORIENTED_EDGE('',*,*,#474,.F.);
#631=ORIENTED_EDGE('',*,*,#498,.F.);
#632=ORIENTED_EDGE('',*,*,#499,.F.);
#633=ORIENTED_EDGE('',*,*,#476,.F.);
#634=ORIENTED_EDGE('',*,*,#470,.T.);
#635=ORIENTED_EDGE('',*,*,#477,.F.);
#636=ORIENTED_EDGE('',*,*,#499,.T.);
#637=ORIENTED_EDGE('',*,*,#500,.F.);
#638=ORIENTED_EDGE('',*,*,#501,.F.);
#639=ORIENTED_EDGE('',*,*,#478,.T.);
#640=ORIENTED_EDGE('',*,*,#479,.T.);
#641=ORIENTED_EDGE('',*,*,#501,.T.);
#642=ORIENTED_EDGE('',*,*,#502,.F.);
#643=ORIENTED_EDGE('',*,*,#472,.F.);
#644=ORIENTED_EDGE('',*,*,#473,.T.);
#645=ORIENTED_EDGE('',*,*,#502,.T.);
#646=ORIENTED_EDGE('',*,*,#500,.T.);
#647=ORIENTED_EDGE('',*,*,#498,.T.);
#648=ORIENTED_EDGE('',*,*,#487,.T.);
#649=ORIENTED_EDGE('',*,*,#489,.T.);
#650=ORIENTED_EDGE('',*,*,#491,.T.);
#651=ORIENTED_EDGE('',*,*,#493,.T.);
#652=ORIENTED_EDGE('',*,*,#495,.T.);
#653=ORIENTED_EDGE('',*,*,#497,.T.);
#654=ORIENTED_EDGE('',*,*,#466,.T.);
#655=ORIENTED_EDGE('',*,*,#463,.T.);
#656=ORIENTED_EDGE('',*,*,#503,.F.);
#657=ORIENTED_EDGE('',*,*,#504,.T.);
#658=ORIENTED_EDGE('',*,*,#505,.F.);
#659=ORIENTED_EDGE('',*,*,#504,.F.);
#660=ORIENTED_EDGE('',*,*,#506,.F.);
#661=ORIENTED_EDGE('',*,*,#507,.T.);
#662=ORIENTED_EDGE('',*,*,#508,.F.);
#663=ORIENTED_EDGE('',*,*,#507,.F.);
#664=ORIENTED_EDGE('',*,*,#509,.F.);
#665=ORIENTED_EDGE('',*,*,#510,.T.);
#666=ORIENTED_EDGE('',*,*,#511,.F.);
#667=ORIENTED_EDGE('',*,*,#510,.F.);
#668=ORIENTED_EDGE('',*,*,#512,.F.);
#669=ORIENTED_EDGE('',*,*,#513,.T.);
#670=ORIENTED_EDGE('',*,*,#514,.F.);
#671=ORIENTED_EDGE('',*,*,#513,.F.);
#672=ORIENTED_EDGE('',*,*,#515,.F.);
#673=ORIENTED_EDGE('',*,*,#516,.T.);
#674=ORIENTED_EDGE('',*,*,#517,.F.);
#675=ORIENTED_EDGE('',*,*,#516,.F.);
#676=ORIENTED_EDGE('',*,*,#518,.F.);
#677=ORIENTED_EDGE('',*,*,#519,.T.);
#678=ORIENTED_EDGE('',*,*,#520,.F.);
#679=ORIENTED_EDGE('',*,*,#519,.F.);
#680=ORIENTED_EDGE('',*,*,#521,.F.);
#681=ORIENTED_EDGE('',*,*,#522,.T.);
#682=ORIENTED_EDGE('',*,*,#523,.F.);
#683=ORIENTED_EDGE('',*,*,#522,.F.);
#684=ORIENTED_EDGE('',*,*,#524,.F.);
#685=ORIENTED_EDGE('',*,*,#525,.F.);
#686=ORIENTED_EDGE('',*,*,#526,.T.);
#687=ORIENTED_EDGE('',*,*,#527,.F.);
#688=ORIENTED_EDGE('',*,*,#528,.F.);
#689=ORIENTED_EDGE('',*,*,#529,.F.);
#690=ORIENTED_EDGE('',*,*,#530,.T.);
#691=ORIENTED_EDGE('',*,*,#531,.F.);
#692=ORIENTED_EDGE('',*,*,#532,.F.);
#693=ORIENTED_EDGE('',*,*,#526,.F.);
#694=ORIENTED_EDGE('',*,*,#533,.F.);
#695=ORIENTED_EDGE('',*,*,#530,.F.);
#696=ORIENTED_EDGE('',*,*,#531,.T.);
#697=ORIENTED_EDGE('',*,*,#533,.T.);
#698=ORIENTED_EDGE('',*,*,#525,.T.);
#699=ORIENTED_EDGE('',*,*,#534,.T.);
#700=ORIENTED_EDGE('',*,*,#535,.T.);
#701=ORIENTED_EDGE('',*,*,#536,.F.);
#702=ORIENTED_EDGE('',*,*,#537,.F.);
#703=ORIENTED_EDGE('',*,*,#538,.T.);
#704=ORIENTED_EDGE('',*,*,#524,.T.);
#705=ORIENTED_EDGE('',*,*,#539,.F.);
#706=ORIENTED_EDGE('',*,*,#540,.F.);
#707=ORIENTED_EDGE('',*,*,#541,.F.);
#708=ORIENTED_EDGE('',*,*,#542,.F.);
#709=ORIENTED_EDGE('',*,*,#534,.F.);
#710=ORIENTED_EDGE('',*,*,#543,.F.);
#711=ORIENTED_EDGE('',*,*,#544,.F.);
#712=ORIENTED_EDGE('',*,*,#545,.F.);
#713=ORIENTED_EDGE('',*,*,#541,.T.);
#714=ORIENTED_EDGE('',*,*,#546,.F.);
#715=ORIENTED_EDGE('',*,*,#547,.T.);
#716=ORIENTED_EDGE('',*,*,#548,.F.);
#717=ORIENTED_EDGE('',*,*,#549,.F.);
#718=ORIENTED_EDGE('',*,*,#528,.T.);
#719=ORIENTED_EDGE('',*,*,#538,.F.);
#720=ORIENTED_EDGE('',*,*,#550,.F.);
#721=ORIENTED_EDGE('',*,*,#547,.F.);
#722=ORIENTED_EDGE('',*,*,#551,.F.);
#723=ORIENTED_EDGE('',*,*,#552,.F.);
#724=ORIENTED_EDGE('',*,*,#542,.T.);
#725=ORIENTED_EDGE('',*,*,#545,.T.);
#726=ORIENTED_EDGE('',*,*,#553,.F.);
#727=ORIENTED_EDGE('',*,*,#554,.T.);
#728=ORIENTED_EDGE('',*,*,#555,.F.);
#729=ORIENTED_EDGE('',*,*,#535,.F.);
#730=ORIENTED_EDGE('',*,*,#543,.T.);
#731=ORIENTED_EDGE('',*,*,#540,.T.);
#732=ORIENTED_EDGE('',*,*,#556,.T.);
#733=ORIENTED_EDGE('',*,*,#557,.T.);
#734=ORIENTED_EDGE('',*,*,#558,.F.);
#735=ORIENTED_EDGE('',*,*,#559,.F.);
#736=ORIENTED_EDGE('',*,*,#560,.F.);
#737=ORIENTED_EDGE('',*,*,#561,.F.);
#738=ORIENTED_EDGE('',*,*,#557,.F.);
#739=ORIENTED_EDGE('',*,*,#562,.F.);
#740=ORIENTED_EDGE('',*,*,#505,.T.);
#741=ORIENTED_EDGE('',*,*,#529,.T.);
#742=ORIENTED_EDGE('',*,*,#552,.T.);
#743=ORIENTED_EDGE('',*,*,#563,.T.);
#744=ORIENTED_EDGE('',*,*,#562,.T.);
#745=ORIENTED_EDGE('',*,*,#556,.F.);
#746=ORIENTED_EDGE('',*,*,#539,.T.);
#747=ORIENTED_EDGE('',*,*,#527,.T.);
#748=ORIENTED_EDGE('',*,*,#532,.T.);
#749=ORIENTED_EDGE('',*,*,#564,.F.);
#750=ORIENTED_EDGE('',*,*,#565,.F.);
#751=ORIENTED_EDGE('',*,*,#558,.T.);
#752=ORIENTED_EDGE('',*,*,#561,.T.);
#753=ORIENTED_EDGE('',*,*,#508,.T.);
#754=ORIENTED_EDGE('',*,*,#511,.T.);
#755=ORIENTED_EDGE('',*,*,#514,.T.);
#756=ORIENTED_EDGE('',*,*,#517,.T.);
#757=ORIENTED_EDGE('',*,*,#520,.T.);
#758=ORIENTED_EDGE('',*,*,#523,.T.);
#759=ORIENTED_EDGE('',*,*,#546,.T.);
#760=ORIENTED_EDGE('',*,*,#566,.F.);
#761=ORIENTED_EDGE('',*,*,#564,.T.);
#762=ORIENTED_EDGE('',*,*,#560,.T.);
#763=ORIENTED_EDGE('',*,*,#563,.F.);
#764=ORIENTED_EDGE('',*,*,#551,.T.);
#765=ORIENTED_EDGE('',*,*,#549,.T.);
#766=ORIENTED_EDGE('',*,*,#567,.T.);
#767=ORIENTED_EDGE('',*,*,#568,.T.);
#768=ORIENTED_EDGE('',*,*,#553,.T.);
#769=ORIENTED_EDGE('',*,*,#544,.T.);
#770=ORIENTED_EDGE('',*,*,#559,.T.);
#771=ORIENTED_EDGE('',*,*,#565,.T.);
#772=ORIENTED_EDGE('',*,*,#566,.T.);
#773=ORIENTED_EDGE('',*,*,#569,.T.);
#774=ORIENTED_EDGE('',*,*,#536,.T.);
#775=ORIENTED_EDGE('',*,*,#555,.T.);
#776=ORIENTED_EDGE('',*,*,#570,.T.);
#777=ORIENTED_EDGE('',*,*,#503,.T.);
#778=ORIENTED_EDGE('',*,*,#571,.T.);
#779=ORIENTED_EDGE('',*,*,#570,.F.);
#780=ORIENTED_EDGE('',*,*,#554,.F.);
#781=ORIENTED_EDGE('',*,*,#568,.F.);
#782=ORIENTED_EDGE('',*,*,#506,.T.);
#783=ORIENTED_EDGE('',*,*,#509,.T.);
#784=ORIENTED_EDGE('',*,*,#512,.T.);
#785=ORIENTED_EDGE('',*,*,#515,.T.);
#786=ORIENTED_EDGE('',*,*,#518,.T.);
#787=ORIENTED_EDGE('',*,*,#521,.T.);
#788=ORIENTED_EDGE('',*,*,#550,.T.);
#789=ORIENTED_EDGE('',*,*,#537,.T.);
#790=ORIENTED_EDGE('',*,*,#569,.F.);
#791=ORIENTED_EDGE('',*,*,#571,.F.);
#792=ORIENTED_EDGE('',*,*,#567,.F.);
#793=ORIENTED_EDGE('',*,*,#548,.T.);
#794=CYLINDRICAL_SURFACE('',#877,3.25000000000002);
#795=CYLINDRICAL_SURFACE('',#880,3.25);
#796=CYLINDRICAL_SURFACE('',#893,3.25);
#797=CYLINDRICAL_SURFACE('',#895,3.24999999999999);
#798=CYLINDRICAL_SURFACE('',#897,3.25);
#799=CYLINDRICAL_SURFACE('',#899,3.25);
#800=CYLINDRICAL_SURFACE('',#901,3.25);
#801=CYLINDRICAL_SURFACE('',#903,3.25);
#802=CYLINDRICAL_SURFACE('',#910,2.5);
#803=CYLINDRICAL_SURFACE('',#913,3.25);
#804=CYLINDRICAL_SURFACE('',#916,3.25);
#805=CYLINDRICAL_SURFACE('',#919,3.25);
#806=CYLINDRICAL_SURFACE('',#922,3.25);
#807=CYLINDRICAL_SURFACE('',#925,3.25);
#808=CYLINDRICAL_SURFACE('',#928,3.24999999999999);
#809=ADVANCED_FACE('',(#83),#794,.F.);
#810=ADVANCED_FACE('',(#84),#795,.F.);
#811=ADVANCED_FACE('',(#85),#57,.F.);
#812=ADVANCED_FACE('',(#86),#58,.T.);
#813=ADVANCED_FACE('',(#87),#59,.T.);
#814=ADVANCED_FACE('',(#88,#27,#28,#29,#30,#31,#32,#33,#34),#60,.F.);
#815=ADVANCED_FACE('',(#89),#796,.F.);
#816=ADVANCED_FACE('',(#90),#797,.F.);
#817=ADVANCED_FACE('',(#91),#798,.F.);
#818=ADVANCED_FACE('',(#92),#799,.F.);
#819=ADVANCED_FACE('',(#93),#800,.F.);
#820=ADVANCED_FACE('',(#94),#801,.F.);
#821=ADVANCED_FACE('',(#95),#61,.T.);
#822=ADVANCED_FACE('',(#96),#62,.T.);
#823=ADVANCED_FACE('',(#97),#63,.T.);
#824=ADVANCED_FACE('',(#98,#35,#36,#37,#38,#39,#40,#41,#42),#64,.T.);
#825=ADVANCED_FACE('',(#99),#802,.F.);
#826=ADVANCED_FACE('',(#100),#803,.F.);
#827=ADVANCED_FACE('',(#101),#804,.F.);
#828=ADVANCED_FACE('',(#102),#805,.F.);
#829=ADVANCED_FACE('',(#103),#806,.F.);
#830=ADVANCED_FACE('',(#104),#807,.F.);
#831=ADVANCED_FACE('',(#105),#808,.F.);
#832=ADVANCED_FACE('',(#106),#65,.F.);
#833=ADVANCED_FACE('',(#107),#66,.F.);
#834=ADVANCED_FACE('',(#108),#67,.F.);
#835=ADVANCED_FACE('',(#109),#68,.F.);
#836=ADVANCED_FACE('',(#110),#69,.F.);
#837=ADVANCED_FACE('',(#111),#70,.F.);
#838=ADVANCED_FACE('',(#112),#71,.F.);
#839=ADVANCED_FACE('',(#113),#72,.F.);
#840=ADVANCED_FACE('',(#114),#73,.F.);
#841=ADVANCED_FACE('',(#115),#74,.T.);
#842=ADVANCED_FACE('',(#116,#43),#75,.T.);
#843=ADVANCED_FACE('',(#117),#76,.T.);
#844=ADVANCED_FACE('',(#118,#44,#45,#46,#47,#48,#49),#77,.T.);
#845=ADVANCED_FACE('',(#119),#78,.T.);
#846=ADVANCED_FACE('',(#120),#79,.T.);
#847=ADVANCED_FACE('',(#121,#50),#80,.F.);
#848=ADVANCED_FACE('',(#122,#51,#52,#53,#54,#55,#56),#81,.F.);
#849=ADVANCED_FACE('',(#123),#82,.F.);
#850=CLOSED_SHELL('',(#809,#810,#811,#812,#813,#814,#815,#816,#817,#818,
#819,#820,#821,#822,#823,#824));
#851=CLOSED_SHELL('',(#825,#826,#827,#828,#829,#830,#831,#832,#833,#834,
#835,#836,#837,#838,#839,#840,#841,#842,#843,#844,#845,#846,#847,#848,#849));
#852=DERIVED_UNIT_ELEMENT(#856,1.);
#853=DERIVED_UNIT_ELEMENT(#1424,-3.);
#854=DERIVED_UNIT_ELEMENT(#856,1.);
#855=DERIVED_UNIT_ELEMENT(#1424,-3.);
#856=(
MASS_UNIT()
NAMED_UNIT(*)
SI_UNIT(.KILO.,.GRAM.)
);
#857=DERIVED_UNIT((#852,#853));
#858=DERIVED_UNIT((#854,#855));
#859=MEASURE_REPRESENTATION_ITEM('density measure',
POSITIVE_RATIO_MEASURE(7850.),#857);
#860=MEASURE_REPRESENTATION_ITEM('density measure',
POSITIVE_RATIO_MEASURE(7850.),#858);
#861=PROPERTY_DEFINITION_REPRESENTATION(#871,#865);
#862=PROPERTY_DEFINITION_REPRESENTATION(#872,#866);
#863=PROPERTY_DEFINITION_REPRESENTATION(#873,#867);
#864=PROPERTY_DEFINITION_REPRESENTATION(#874,#868);
#865=REPRESENTATION('material name',(#869),#1420);
#866=REPRESENTATION('density',(#859),#1420);
#867=REPRESENTATION('material name',(#870),#1421);
#868=REPRESENTATION('density',(#860),#1421);
#869=DESCRIPTIVE_REPRESENTATION_ITEM('Steel','Steel');
#870=DESCRIPTIVE_REPRESENTATION_ITEM('Steel','Steel');
#871=PROPERTY_DEFINITION('material property','material name',#1440);
#872=PROPERTY_DEFINITION('material property','density of part',#1440);
#873=PROPERTY_DEFINITION('material property','material name',#1441);
#874=PROPERTY_DEFINITION('material property','density of part',#1441);
#875=AXIS2_PLACEMENT_3D('',#1184,#951,#952);
#876=AXIS2_PLACEMENT_3D('',#1185,#953,#954);
#877=AXIS2_PLACEMENT_3D('',#1186,#955,#956);
#878=AXIS2_PLACEMENT_3D('',#1188,#957,#958);
#879=AXIS2_PLACEMENT_3D('',#1191,#960,#961);
#880=AXIS2_PLACEMENT_3D('',#1192,#962,#963);
#881=AXIS2_PLACEMENT_3D('',#1194,#964,#965);
#882=AXIS2_PLACEMENT_3D('',#1197,#967,#968);
#883=AXIS2_PLACEMENT_3D('',#1198,#969,#970);
#884=AXIS2_PLACEMENT_3D('',#1207,#975,#976);
#885=AXIS2_PLACEMENT_3D('',#1217,#982,#983);
#886=AXIS2_PLACEMENT_3D('',#1221,#986,#987);
#887=AXIS2_PLACEMENT_3D('',#1226,#990,#991);
#888=AXIS2_PLACEMENT_3D('',#1228,#992,#993);
#889=AXIS2_PLACEMENT_3D('',#1230,#994,#995);
#890=AXIS2_PLACEMENT_3D('',#1232,#996,#997);
#891=AXIS2_PLACEMENT_3D('',#1234,#998,#999);
#892=AXIS2_PLACEMENT_3D('',#1236,#1000,#1001);
#893=AXIS2_PLACEMENT_3D('',#1237,#1002,#1003);
#894=AXIS2_PLACEMENT_3D('',#1240,#1005,#1006);
#895=AXIS2_PLACEMENT_3D('',#1241,#1007,#1008);
#896=AXIS2_PLACEMENT_3D('',#1244,#1010,#1011);
#897=AXIS2_PLACEMENT_3D('',#1245,#1012,#1013);
#898=AXIS2_PLACEMENT_3D('',#1248,#1015,#1016);
#899=AXIS2_PLACEMENT_3D('',#1249,#1017,#1018);
#900=AXIS2_PLACEMENT_3D('',#1252,#1020,#1021);
#901=AXIS2_PLACEMENT_3D('',#1253,#1022,#1023);
#902=AXIS2_PLACEMENT_3D('',#1256,#1025,#1026);
#903=AXIS2_PLACEMENT_3D('',#1257,#1027,#1028);
#904=AXIS2_PLACEMENT_3D('',#1260,#1030,#1031);
#905=AXIS2_PLACEMENT_3D('',#1261,#1032,#1033);
#906=AXIS2_PLACEMENT_3D('',#1265,#1036,#1037);
#907=AXIS2_PLACEMENT_3D('',#1269,#1040,#1041);
#908=AXIS2_PLACEMENT_3D('',#1271,#1043,#1044);
#909=AXIS2_PLACEMENT_3D('',#1272,#1045,#1046);
#910=AXIS2_PLACEMENT_3D('',#1273,#1047,#1048);
#911=AXIS2_PLACEMENT_3D('',#1275,#1049,#1050);
#912=AXIS2_PLACEMENT_3D('',#1278,#1052,#1053);
#913=AXIS2_PLACEMENT_3D('',#1279,#1054,#1055);
#914=AXIS2_PLACEMENT_3D('',#1281,#1056,#1057);
#915=AXIS2_PLACEMENT_3D('',#1284,#1059,#1060);
#916=AXIS2_PLACEMENT_3D('',#1285,#1061,#1062);
#917=AXIS2_PLACEMENT_3D('',#1287,#1063,#1064);
#918=AXIS2_PLACEMENT_3D('',#1290,#1066,#1067);
#919=AXIS2_PLACEMENT_3D('',#1291,#1068,#1069);
#920=AXIS2_PLACEMENT_3D('',#1293,#1070,#1071);
#921=AXIS2_PLACEMENT_3D('',#1296,#1073,#1074);
#922=AXIS2_PLACEMENT_3D('',#1297,#1075,#1076);
#923=AXIS2_PLACEMENT_3D('',#1299,#1077,#1078);
#924=AXIS2_PLACEMENT_3D('',#1302,#1080,#1081);
#925=AXIS2_PLACEMENT_3D('',#1303,#1082,#1083);
#926=AXIS2_PLACEMENT_3D('',#1305,#1084,#1085);
#927=AXIS2_PLACEMENT_3D('',#1308,#1087,#1088);
#928=AXIS2_PLACEMENT_3D('',#1309,#1089,#1090);
#929=AXIS2_PLACEMENT_3D('',#1311,#1091,#1092);
#930=AXIS2_PLACEMENT_3D('',#1314,#1094,#1095);
#931=AXIS2_PLACEMENT_3D('',#1315,#1096,#1097);
#932=AXIS2_PLACEMENT_3D('',#1324,#1102,#1103);
#933=AXIS2_PLACEMENT_3D('',#1333,#1108,#1109);
#934=AXIS2_PLACEMENT_3D('',#1336,#1112,#1113);
#935=AXIS2_PLACEMENT_3D('',#1346,#1119,#1120);
#936=AXIS2_PLACEMENT_3D('',#1354,#1125,#1126);
#937=AXIS2_PLACEMENT_3D('',#1360,#1130,#1131);
#938=AXIS2_PLACEMENT_3D('',#1369,#1136,#1137);
#939=AXIS2_PLACEMENT_3D('',#1374,#1141,#1142);
#940=AXIS2_PLACEMENT_3D('',#1380,#1146,#1147);
#941=AXIS2_PLACEMENT_3D('',#1388,#1152,#1153);
#942=AXIS2_PLACEMENT_3D('',#1394,#1157,#1158);
#943=AXIS2_PLACEMENT_3D('',#1396,#1160,#1161);
#944=AXIS2_PLACEMENT_3D('',#1400,#1164,#1165);
#945=AXIS2_PLACEMENT_3D('',#1402,#1167,#1168);
#946=AXIS2_PLACEMENT_3D('',#1406,#1171,#1172);
#947=AXIS2_PLACEMENT_3D('',#1410,#1175,#1176);
#948=AXIS2_PLACEMENT_3D('',#1412,#1178,#1179);
#949=AXIS2_PLACEMENT_3D('',#1413,#1180,#1181);
#950=AXIS2_PLACEMENT_3D('',#1414,#1182,#1183);
#951=DIRECTION('axis',(0.,0.,1.));
#952=DIRECTION('refdir',(1.,0.,0.));
#953=DIRECTION('axis',(0.,0.,1.));
#954=DIRECTION('refdir',(1.,0.,0.));
#955=DIRECTION('center_axis',(-1.,0.,0.));
#956=DIRECTION('ref_axis',(0.,-1.,0.));
#957=DIRECTION('center_axis',(-1.,0.,0.));
#958=DIRECTION('ref_axis',(0.,-1.,0.));
#959=DIRECTION('',(-1.,0.,0.));
#960=DIRECTION('center_axis',(1.,0.,0.));
#961=DIRECTION('ref_axis',(0.,-1.,0.));
#962=DIRECTION('center_axis',(-1.,0.,0.));
#963=DIRECTION('ref_axis',(0.,-1.,0.));
#964=DIRECTION('center_axis',(-1.,0.,0.));
#965=DIRECTION('ref_axis',(0.,-1.,0.));
#966=DIRECTION('',(-1.,0.,0.));
#967=DIRECTION('center_axis',(1.,0.,0.));
#968=DIRECTION('ref_axis',(0.,-1.,0.));
#969=DIRECTION('center_axis',(0.,0.,1.));
#970=DIRECTION('ref_axis',(0.,1.,0.));
#971=DIRECTION('',(0.,1.,0.));
#972=DIRECTION('',(-1.,0.,0.));
#973=DIRECTION('',(0.,1.,0.));
#974=DIRECTION('',(1.,0.,0.));
#975=DIRECTION('center_axis',(0.,1.,0.));
#976=DIRECTION('ref_axis',(0.,0.,-1.));
#977=DIRECTION('',(0.,0.,-1.));
#978=DIRECTION('',(-1.,0.,0.));
#979=DIRECTION('',(0.,0.,-1.));
#980=DIRECTION('',(1.,0.,0.));
#981=DIRECTION('',(0.,0.,1.));
#982=DIRECTION('center_axis',(1.,0.,0.));
#983=DIRECTION('ref_axis',(0.,0.,-1.));
#984=DIRECTION('',(0.,-1.,0.));
#985=DIRECTION('',(0.,0.,-1.));
#986=DIRECTION('center_axis',(-1.,0.,0.));
#987=DIRECTION('ref_axis',(0.,-1.,0.));
#988=DIRECTION('',(0.,2.22044604925031E-17,1.));
#989=DIRECTION('',(0.,-1.,0.));
#990=DIRECTION('center_axis',(1.,0.,0.));
#991=DIRECTION('ref_axis',(0.,-1.,0.));
#992=DIRECTION('center_axis',(1.,0.,0.));
#993=DIRECTION('ref_axis',(0.,-1.,0.));
#994=DIRECTION('center_axis',(1.,0.,0.));
#995=DIRECTION('ref_axis',(0.,-1.,0.));
#996=DIRECTION('center_axis',(1.,0.,0.));
#997=DIRECTION('ref_axis',(0.,-1.,0.));
#998=DIRECTION('center_axis',(1.,0.,0.));
#999=DIRECTION('ref_axis',(0.,-1.,0.));
#1000=DIRECTION('center_axis',(1.,0.,0.));
#1001=DIRECTION('ref_axis',(0.,-1.,0.));
#1002=DIRECTION('center_axis',(-1.,0.,0.));
#1003=DIRECTION('ref_axis',(0.,-1.,0.));
#1004=DIRECTION('',(-1.,0.,0.));
#1005=DIRECTION('center_axis',(1.,0.,0.));
#1006=DIRECTION('ref_axis',(0.,-1.,0.));
#1007=DIRECTION('center_axis',(-1.,0.,0.));
#1008=DIRECTION('ref_axis',(0.,-1.,0.));
#1009=DIRECTION('',(-1.,0.,0.));
#1010=DIRECTION('center_axis',(1.,0.,0.));
#1011=DIRECTION('ref_axis',(0.,-1.,0.));
#1012=DIRECTION('center_axis',(-1.,0.,0.));
#1013=DIRECTION('ref_axis',(0.,-1.,0.));
#1014=DIRECTION('',(-1.,0.,0.));
#1015=DIRECTION('center_axis',(1.,0.,0.));
#1016=DIRECTION('ref_axis',(0.,-1.,0.));
#1017=DIRECTION('center_axis',(-1.,0.,0.));
#1018=DIRECTION('ref_axis',(0.,-1.,0.));
#1019=DIRECTION('',(-1.,0.,0.));
#1020=DIRECTION('center_axis',(1.,0.,0.));
#1021=DIRECTION('ref_axis',(0.,-1.,0.));
#1022=DIRECTION('center_axis',(-1.,0.,0.));
#1023=DIRECTION('ref_axis',(0.,-1.,0.));
#1024=DIRECTION('',(-1.,0.,0.));
#1025=DIRECTION('center_axis',(1.,0.,0.));
#1026=DIRECTION('ref_axis',(0.,-1.,0.));
#1027=DIRECTION('center_axis',(-1.,0.,0.));
#1028=DIRECTION('ref_axis',(0.,-1.,0.));
#1029=DIRECTION('',(-1.,0.,0.));
#1030=DIRECTION('center_axis',(1.,0.,0.));
#1031=DIRECTION('ref_axis',(0.,-1.,0.));
#1032=DIRECTION('center_axis',(0.,0.,1.));
#1033=DIRECTION('ref_axis',(0.,1.,0.));
#1034=DIRECTION('',(0.,1.,0.));
#1035=DIRECTION('',(-1.,0.,0.));
#1036=DIRECTION('center_axis',(0.,-1.,2.22044604925031E-17));
#1037=DIRECTION('ref_axis',(0.,2.22044604925031E-17,1.));
#1038=DIRECTION('',(0.,2.22044604925031E-17,1.));
#1039=DIRECTION('',(-1.,0.,0.));
#1040=DIRECTION('center_axis',(0.,0.,-1.));
#1041=DIRECTION('ref_axis',(0.,-1.,0.));
#1042=DIRECTION('',(0.,-1.,0.));
#1043=DIRECTION('center_axis',(-1.,0.,0.));
#1044=DIRECTION('ref_axis',(0.,-1.,0.));
#1045=DIRECTION('axis',(0.,0.,1.));
#1046=DIRECTION('refdir',(1.,0.,0.));
#1047=DIRECTION('center_axis',(-1.77635683940025E-15,0.,1.));
#1048=DIRECTION('ref_axis',(1.,3.33961560522465E-31,1.77635683940025E-15));
#1049=DIRECTION('center_axis',(0.,0.,1.));
#1050=DIRECTION('ref_axis',(1.,3.33961560522465E-31,0.));
#1051=DIRECTION('',(-1.77635683940025E-15,0.,1.));
#1052=DIRECTION('center_axis',(0.,0.,-1.));
#1053=DIRECTION('ref_axis',(1.,3.33961560522465E-31,0.));
#1054=DIRECTION('center_axis',(1.,0.,0.));
#1055=DIRECTION('ref_axis',(0.,-1.,0.));
#1056=DIRECTION('center_axis',(1.,0.,0.));
#1057=DIRECTION('ref_axis',(0.,-1.,0.));
#1058=DIRECTION('',(1.,0.,0.));
#1059=DIRECTION('center_axis',(-1.,0.,0.));
#1060=DIRECTION('ref_axis',(0.,-1.,0.));
#1061=DIRECTION('center_axis',(1.,0.,0.));
#1062=DIRECTION('ref_axis',(0.,-1.,0.));
#1063=DIRECTION('center_axis',(1.,0.,0.));
#1064=DIRECTION('ref_axis',(0.,-1.,0.));
#1065=DIRECTION('',(1.,0.,0.));
#1066=DIRECTION('center_axis',(-1.,0.,0.));
#1067=DIRECTION('ref_axis',(0.,-1.,0.));
#1068=DIRECTION('center_axis',(1.,0.,0.));
#1069=DIRECTION('ref_axis',(0.,-1.,0.));
#1070=DIRECTION('center_axis',(1.,0.,0.));
#1071=DIRECTION('ref_axis',(0.,-1.,0.));
#1072=DIRECTION('',(1.,0.,0.));
#1073=DIRECTION('center_axis',(-1.,0.,0.));
#1074=DIRECTION('ref_axis',(0.,-1.,0.));
#1075=DIRECTION('center_axis',(1.,0.,0.));
#1076=DIRECTION('ref_axis',(0.,-1.,0.));
#1077=DIRECTION('center_axis',(1.,0.,0.));
#1078=DIRECTION('ref_axis',(0.,-1.,0.));
#1079=DIRECTION('',(1.,0.,0.));
#1080=DIRECTION('center_axis',(-1.,0.,0.));
#1081=DIRECTION('ref_axis',(0.,-1.,0.));
#1082=DIRECTION('center_axis',(1.,0.,0.));
#1083=DIRECTION('ref_axis',(0.,-1.,0.));
#1084=DIRECTION('center_axis',(1.,0.,0.));
#1085=DIRECTION('ref_axis',(0.,-1.,0.));
#1086=DIRECTION('',(1.,0.,0.));
#1087=DIRECTION('center_axis',(-1.,0.,0.));
#1088=DIRECTION('ref_axis',(0.,-1.,0.));
#1089=DIRECTION('center_axis',(1.,0.,0.));
#1090=DIRECTION('ref_axis',(0.,-1.,0.));
#1091=DIRECTION('center_axis',(1.,0.,0.));
#1092=DIRECTION('ref_axis',(0.,-1.,0.));
#1093=DIRECTION('',(1.,0.,0.));
#1094=DIRECTION('center_axis',(-1.,0.,0.));
#1095=DIRECTION('ref_axis',(0.,-1.,0.));
#1096=DIRECTION('center_axis',(0.,-1.,0.));
#1097=DIRECTION('ref_axis',(-1.,0.,0.));
#1098=DIRECTION('',(-1.,0.,0.));
#1099=DIRECTION('',(0.,0.,1.));
#1100=DIRECTION('',(-1.,0.,0.));
#1101=DIRECTION('',(0.,0.,-1.));
#1102=DIRECTION('center_axis',(0.,1.,0.));
#1103=DIRECTION('ref_axis',(1.,0.,0.));
#1104=DIRECTION('',(1.,0.,0.));
#1105=DIRECTION('',(0.,0.,1.));
#1106=DIRECTION('',(1.,0.,0.));
#1107=DIRECTION('',(0.,0.,-1.));
#1108=DIRECTION('center_axis',(0.,0.,-1.));
#1109=DIRECTION('ref_axis',(-1.,0.,0.));
#1110=DIRECTION('',(0.,1.,0.));
#1111=DIRECTION('',(0.,-1.,0.));
#1112=DIRECTION('center_axis',(-1.,0.,0.));
#1113=DIRECTION('ref_axis',(0.,0.,1.));
#1114=DIRECTION('',(0.,-1.,0.));
#1115=DIRECTION('',(0.,0.,-1.));
#1116=DIRECTION('',(0.,-1.,0.));
#1117=DIRECTION('',(0.,0.,-1.));
#1118=DIRECTION('',(0.,-1.,0.));
#1119=DIRECTION('center_axis',(0.,0.,-1.));
#1120=DIRECTION('ref_axis',(-1.,0.,0.));
#1121=DIRECTION('',(0.,1.,0.));
#1122=DIRECTION('',(1.,0.,0.));
#1123=DIRECTION('',(0.,1.,0.));
#1124=DIRECTION('',(-1.,0.,0.));
#1125=DIRECTION('center_axis',(-1.,0.,0.));
#1126=DIRECTION('ref_axis',(0.,1.,0.));
#1127=DIRECTION('',(0.,0.,-1.));
#1128=DIRECTION('',(0.,1.,0.));
#1129=DIRECTION('',(0.,0.,1.));
#1130=DIRECTION('center_axis',(-1.,0.,0.));
#1131=DIRECTION('ref_axis',(0.,1.,0.));
#1132=DIRECTION('',(0.,0.,1.));
#1133=DIRECTION('',(0.,1.,0.));
#1134=DIRECTION('',(0.,0.,-1.));
#1135=DIRECTION('',(0.,1.,0.));
#1136=DIRECTION('center_axis',(0.,0.,-1.));
#1137=DIRECTION('ref_axis',(-1.,0.,0.));
#1138=DIRECTION('',(1.,0.,0.));
#1139=DIRECTION('',(-1.,0.,0.));
#1140=DIRECTION('',(0.,1.,0.));
#1141=DIRECTION('center_axis',(0.,1.,0.));
#1142=DIRECTION('ref_axis',(0.,0.,-1.));
#1143=DIRECTION('',(1.,0.,0.));
#1144=DIRECTION('',(0.,0.,-1.));
#1145=DIRECTION('',(-1.,0.,0.));
#1146=DIRECTION('center_axis',(0.,1.,0.));
#1147=DIRECTION('ref_axis',(0.,0.,-1.));
#1148=DIRECTION('',(0.,0.,-1.));
#1149=DIRECTION('',(-1.,0.,0.));
#1150=DIRECTION('',(0.,0.,-1.));
#1151=DIRECTION('',(-1.,0.,0.));
#1152=DIRECTION('center_axis',(0.,0.,1.));
#1153=DIRECTION('ref_axis',(0.,1.,0.));
#1154=DIRECTION('',(1.,0.,0.));
#1155=DIRECTION('',(0.,1.,0.));
#1156=DIRECTION('',(0.,-1.,0.));
#1157=DIRECTION('center_axis',(-1.,0.,0.));
#1158=DIRECTION('ref_axis',(0.,0.,1.));
#1159=DIRECTION('',(0.,0.,1.));
#1160=DIRECTION('center_axis',(1.,0.,0.));
#1161=DIRECTION('ref_axis',(0.,0.,-1.));
#1162=DIRECTION('',(0.,0.,-1.));
#1163=DIRECTION('',(0.,1.,0.));
#1164=DIRECTION('center_axis',(0.,-1.,0.));
#1165=DIRECTION('ref_axis',(0.,0.,1.));
#1166=DIRECTION('',(1.,0.,0.));
#1167=DIRECTION('center_axis',(0.,0.,1.));
#1168=DIRECTION('ref_axis',(0.,1.,0.));
#1169=DIRECTION('',(-1.,0.,0.));
#1170=DIRECTION('',(0.,-1.,0.));
#1171=DIRECTION('center_axis',(0.,0.,1.));
#1172=DIRECTION('ref_axis',(0.,1.,0.));
#1173=DIRECTION('',(1.,0.,0.));
#1174=DIRECTION('',(0.,1.,0.));
#1175=DIRECTION('center_axis',(1.,0.,0.));
#1176=DIRECTION('ref_axis',(0.,0.,-1.));
#1177=DIRECTION('',(0.,0.,-1.));
#1178=DIRECTION('center_axis',(0.,-1.,0.));
#1179=DIRECTION('ref_axis',(0.,0.,1.));
#1180=DIRECTION('',(0.,0.,1.));
#1181=DIRECTION('',(1.,0.,0.));
#1182=DIRECTION('',(0.,0.,1.));
#1183=DIRECTION('',(1.,0.,0.));
#1184=CARTESIAN_POINT('',(0.,0.,0.));
#1185=CARTESIAN_POINT('',(0.,0.,0.));
#1186=CARTESIAN_POINT('Origin',(-140.,32.5,250.));
#1187=CARTESIAN_POINT('',(-140.,35.75,250.));
#1188=CARTESIAN_POINT('Origin',(-140.,32.5,250.));
#1189=CARTESIAN_POINT('',(-150.,35.75,250.));
#1190=CARTESIAN_POINT('',(-140.,35.75,250.));
#1191=CARTESIAN_POINT('Origin',(-150.,32.5,250.));
#1192=CARTESIAN_POINT('Origin',(-140.,57.5,250.));
#1193=CARTESIAN_POINT('',(-140.,60.75,250.));
#1194=CARTESIAN_POINT('Origin',(-140.,57.5,250.));
#1195=CARTESIAN_POINT('',(-150.,60.75,250.));
#1196=CARTESIAN_POINT('',(-140.,60.75,250.));
#1197=CARTESIAN_POINT('Origin',(-150.,57.5,250.));
#1198=CARTESIAN_POINT('Origin',(-120.,25.,284.));
#1199=CARTESIAN_POINT('',(-140.,25.,284.));
#1200=CARTESIAN_POINT('',(-140.,65.,284.));
#1201=CARTESIAN_POINT('',(-140.,35.,284.));
#1202=CARTESIAN_POINT('',(-120.,65.,284.));
#1203=CARTESIAN_POINT('',(-130.,65.,284.));
#1204=CARTESIAN_POINT('',(-120.,25.,284.));
#1205=CARTESIAN_POINT('',(-120.,35.,284.));
#1206=CARTESIAN_POINT('',(-130.,25.,284.));
#1207=CARTESIAN_POINT('Origin',(-140.,65.,300.));
#1208=CARTESIAN_POINT('',(-140.,65.,100.));
#1209=CARTESIAN_POINT('',(-140.,65.,300.));
#1210=CARTESIAN_POINT('',(-150.,65.,100.));
#1211=CARTESIAN_POINT('',(-140.,65.,100.));
#1212=CARTESIAN_POINT('',(-150.,65.,300.));
#1213=CARTESIAN_POINT('',(-150.,65.,300.));
#1214=CARTESIAN_POINT('',(-120.,65.,300.));
#1215=CARTESIAN_POINT('',(-140.,65.,300.));
#1216=CARTESIAN_POINT('',(-120.,65.,300.));
#1217=CARTESIAN_POINT('Origin',(-120.,45.,290.));
#1218=CARTESIAN_POINT('',(-120.,25.,300.));
#1219=CARTESIAN_POINT('',(-120.,25.,300.));
#1220=CARTESIAN_POINT('',(-120.,25.,280.));
#1221=CARTESIAN_POINT('Origin',(-140.,45.,200.));
#1222=CARTESIAN_POINT('',(-140.,25.,100.));
#1223=CARTESIAN_POINT('',(-140.,25.,191.));
#1224=CARTESIAN_POINT('',(-140.,65.,100.));
#1225=CARTESIAN_POINT('',(-140.,35.75,137.5));
#1226=CARTESIAN_POINT('Origin',(-140.,32.5,137.5));
#1227=CARTESIAN_POINT('',(-140.,60.75,160.));
#1228=CARTESIAN_POINT('Origin',(-140.,57.5,160.));
#1229=CARTESIAN_POINT('',(-140.,35.75,115.));
#1230=CARTESIAN_POINT('Origin',(-140.,32.5,115.));
#1231=CARTESIAN_POINT('',(-140.,60.75,115.));
#1232=CARTESIAN_POINT('Origin',(-140.,57.5,115.));
#1233=CARTESIAN_POINT('',(-140.,35.75,160.));
#1234=CARTESIAN_POINT('Origin',(-140.,32.5,160.));
#1235=CARTESIAN_POINT('',(-140.,60.75,137.5));
#1236=CARTESIAN_POINT('Origin',(-140.,57.5,137.5));
#1237=CARTESIAN_POINT('Origin',(-140.,57.5,137.5));
#1238=CARTESIAN_POINT('',(-150.,60.75,137.5));
#1239=CARTESIAN_POINT('',(-140.,60.75,137.5));
#1240=CARTESIAN_POINT('Origin',(-150.,57.5,137.5));
#1241=CARTESIAN_POINT('Origin',(-140.,32.5,160.));
#1242=CARTESIAN_POINT('',(-150.,35.75,160.));
#1243=CARTESIAN_POINT('',(-140.,35.75,160.));
#1244=CARTESIAN_POINT('Origin',(-150.,32.5,160.));
#1245=CARTESIAN_POINT('Origin',(-140.,57.5,115.));
#1246=CARTESIAN_POINT('',(-150.,60.75,115.));
#1247=CARTESIAN_POINT('',(-140.,60.75,115.));
#1248=CARTESIAN_POINT('Origin',(-150.,57.5,115.));
#1249=CARTESIAN_POINT('Origin',(-140.,32.5,115.));
#1250=CARTESIAN_POINT('',(-150.,35.75,115.));
#1251=CARTESIAN_POINT('',(-140.,35.75,115.));
#1252=CARTESIAN_POINT('Origin',(-150.,32.5,115.));
#1253=CARTESIAN_POINT('Origin',(-140.,57.5,160.));
#1254=CARTESIAN_POINT('',(-150.,60.75,160.));
#1255=CARTESIAN_POINT('',(-140.,60.75,160.));
#1256=CARTESIAN_POINT('Origin',(-150.,57.5,160.));
#1257=CARTESIAN_POINT('Origin',(-140.,32.5,137.5));
#1258=CARTESIAN_POINT('',(-150.,35.75,137.5));
#1259=CARTESIAN_POINT('',(-140.,35.75,137.5));
#1260=CARTESIAN_POINT('Origin',(-150.,32.5,137.5));
#1261=CARTESIAN_POINT('Origin',(-140.,25.,300.));
#1262=CARTESIAN_POINT('',(-150.,25.,300.));
#1263=CARTESIAN_POINT('',(-150.,25.,300.));
#1264=CARTESIAN_POINT('',(-140.,25.,300.));
#1265=CARTESIAN_POINT('Origin',(-140.,25.,100.));
#1266=CARTESIAN_POINT('',(-150.,25.,100.));
#1267=CARTESIAN_POINT('',(-150.,25.,100.));
#1268=CARTESIAN_POINT('',(-140.,25.,100.));
#1269=CARTESIAN_POINT('Origin',(-140.,65.,100.));
#1270=CARTESIAN_POINT('',(-150.,65.,100.));
#1271=CARTESIAN_POINT('Origin',(-150.,45.,200.));
#1272=CARTESIAN_POINT('',(0.,0.,0.));
#1273=CARTESIAN_POINT('Origin',(-102.499999999999,37.5,-1.80604247478667E-15));
#1274=CARTESIAN_POINT('',(-104.999999999999,37.5,-4.98860881323967E-15));
#1275=CARTESIAN_POINT('Origin',(-102.499999999999,37.5,1.33226762955035E-14));
#1276=CARTESIAN_POINT('',(-104.999999999999,37.5,10.));
#1277=CARTESIAN_POINT('',(-104.999999999999,37.5,-6.2469345732873E-15));
#1278=CARTESIAN_POINT('Origin',(-102.499999999999,37.5,10.));
#1279=CARTESIAN_POINT('Origin',(-140.,32.5,115.));
#1280=CARTESIAN_POINT('',(-140.,35.75,115.));
#1281=CARTESIAN_POINT('Origin',(-140.,32.5,115.));
#1282=CARTESIAN_POINT('',(-130.,35.75,115.));
#1283=CARTESIAN_POINT('',(-140.,35.75,115.));
#1284=CARTESIAN_POINT('Origin',(-130.,32.5,115.));
#1285=CARTESIAN_POINT('Origin',(-140.,57.5,160.));
#1286=CARTESIAN_POINT('',(-140.,60.75,160.));
#1287=CARTESIAN_POINT('Origin',(-140.,57.5,160.));
#1288=CARTESIAN_POINT('',(-130.,60.75,160.));
#1289=CARTESIAN_POINT('',(-140.,60.75,160.));
#1290=CARTESIAN_POINT('Origin',(-130.,57.5,160.));
#1291=CARTESIAN_POINT('Origin',(-140.,32.5,137.5));
#1292=CARTESIAN_POINT('',(-140.,35.75,137.5));
#1293=CARTESIAN_POINT('Origin',(-140.,32.5,137.5));
#1294=CARTESIAN_POINT('',(-130.,35.75,137.5));
#1295=CARTESIAN_POINT('',(-140.,35.75,137.5));
#1296=CARTESIAN_POINT('Origin',(-130.,32.5,137.5));
#1297=CARTESIAN_POINT('Origin',(-140.,57.5,115.));
#1298=CARTESIAN_POINT('',(-140.,60.75,115.));
#1299=CARTESIAN_POINT('Origin',(-140.,57.5,115.));
#1300=CARTESIAN_POINT('',(-130.,60.75,115.));
#1301=CARTESIAN_POINT('',(-140.,60.75,115.));
#1302=CARTESIAN_POINT('Origin',(-130.,57.5,115.));
#1303=CARTESIAN_POINT('Origin',(-140.,57.5,137.5));
#1304=CARTESIAN_POINT('',(-140.,60.75,137.5));
#1305=CARTESIAN_POINT('Origin',(-140.,57.5,137.5));
#1306=CARTESIAN_POINT('',(-130.,60.75,137.5));
#1307=CARTESIAN_POINT('',(-140.,60.75,137.5));
#1308=CARTESIAN_POINT('Origin',(-130.,57.5,137.5));
#1309=CARTESIAN_POINT('Origin',(-140.,32.5,160.));
#1310=CARTESIAN_POINT('',(-140.,35.75,160.));
#1311=CARTESIAN_POINT('Origin',(-140.,32.5,160.));
#1312=CARTESIAN_POINT('',(-130.,35.75,160.));
#1313=CARTESIAN_POINT('',(-140.,35.75,160.));
#1314=CARTESIAN_POINT('Origin',(-130.,32.5,160.));
#1315=CARTESIAN_POINT('Origin',(-80.,32.5,100.));
#1316=CARTESIAN_POINT('',(-80.,32.5,100.));
#1317=CARTESIAN_POINT('',(-90.,32.5,100.));
#1318=CARTESIAN_POINT('',(-85.,32.5,100.));
#1319=CARTESIAN_POINT('',(-80.,32.5,20.));
#1320=CARTESIAN_POINT('',(-80.,32.5,95.));
#1321=CARTESIAN_POINT('',(-90.,32.5,20.));
#1322=CARTESIAN_POINT('',(-90.,32.5,20.));
#1323=CARTESIAN_POINT('',(-90.,32.5,95.));
#1324=CARTESIAN_POINT('Origin',(-90.,57.5,100.));
#1325=CARTESIAN_POINT('',(-90.,57.5,100.));
#1326=CARTESIAN_POINT('',(-80.,57.5,100.));
#1327=CARTESIAN_POINT('',(-90.,57.5,100.));
#1328=CARTESIAN_POINT('',(-90.,57.5,20.));
#1329=CARTESIAN_POINT('',(-90.,57.5,95.));
#1330=CARTESIAN_POINT('',(-80.,57.5,20.));
#1331=CARTESIAN_POINT('',(-90.,57.5,20.));
#1332=CARTESIAN_POINT('',(-80.,57.5,95.));
#1333=CARTESIAN_POINT('Origin',(-85.,45.,20.));
#1334=CARTESIAN_POINT('',(-90.,45.,20.));
#1335=CARTESIAN_POINT('',(-80.,45.,20.));
#1336=CARTESIAN_POINT('Origin',(-80.,45.,90.));
#1337=CARTESIAN_POINT('',(-80.,0.,100.));
#1338=CARTESIAN_POINT('',(-80.,45.,100.));
#1339=CARTESIAN_POINT('',(-80.,0.,0.));
#1340=CARTESIAN_POINT('',(-80.,0.,90.));
#1341=CARTESIAN_POINT('',(-80.,90.,0.));
#1342=CARTESIAN_POINT('',(-80.,45.,0.));
#1343=CARTESIAN_POINT('',(-80.,90.,100.));
#1344=CARTESIAN_POINT('',(-80.,90.,90.));
#1345=CARTESIAN_POINT('',(-80.,45.,100.));
#1346=CARTESIAN_POINT('Origin',(-90.,45.,100.));
#1347=CARTESIAN_POINT('',(-90.,10.,100.));
#1348=CARTESIAN_POINT('',(-90.,45.,100.));
#1349=CARTESIAN_POINT('',(-100.,10.,100.));
#1350=CARTESIAN_POINT('',(-100.,10.,100.));
#1351=CARTESIAN_POINT('',(-100.,0.,100.));
#1352=CARTESIAN_POINT('',(-100.,0.,100.));
#1353=CARTESIAN_POINT('',(-100.,0.,100.));
#1354=CARTESIAN_POINT('Origin',(-100.,0.,180.));
#1355=CARTESIAN_POINT('',(-100.,10.,180.));
#1356=CARTESIAN_POINT('',(-100.,10.,135.));
#1357=CARTESIAN_POINT('',(-100.,0.,180.));
#1358=CARTESIAN_POINT('',(-100.,22.5,180.));
#1359=CARTESIAN_POINT('',(-100.,0.,135.));
#1360=CARTESIAN_POINT('Origin',(-100.,0.,180.));
#1361=CARTESIAN_POINT('',(-100.,80.,100.));
#1362=CARTESIAN_POINT('',(-100.,80.,180.));
#1363=CARTESIAN_POINT('',(-100.,80.,135.));
#1364=CARTESIAN_POINT('',(-100.,90.,100.));
#1365=CARTESIAN_POINT('',(-100.,0.,100.));
#1366=CARTESIAN_POINT('',(-100.,90.,180.));
#1367=CARTESIAN_POINT('',(-100.,90.,135.));
#1368=CARTESIAN_POINT('',(-100.,22.5,180.));
#1369=CARTESIAN_POINT('Origin',(-90.,45.,100.));
#1370=CARTESIAN_POINT('',(-100.,90.,100.));
#1371=CARTESIAN_POINT('',(-90.,80.,100.));
#1372=CARTESIAN_POINT('',(-100.,80.,100.));
#1373=CARTESIAN_POINT('',(-90.,45.,100.));
#1374=CARTESIAN_POINT('Origin',(-110.,0.,90.));
#1375=CARTESIAN_POINT('',(-140.,0.,180.));
#1376=CARTESIAN_POINT('',(-110.,0.,180.));
#1377=CARTESIAN_POINT('',(-140.,0.,0.));
#1378=CARTESIAN_POINT('',(-140.,0.,90.));
#1379=CARTESIAN_POINT('',(-110.,0.,0.));
#1380=CARTESIAN_POINT('Origin',(-110.,10.,90.));
#1381=CARTESIAN_POINT('',(-90.,10.,10.));
#1382=CARTESIAN_POINT('',(-90.,10.,90.));
#1383=CARTESIAN_POINT('',(-130.,10.,10.));
#1384=CARTESIAN_POINT('',(-110.,10.,10.));
#1385=CARTESIAN_POINT('',(-130.,10.,180.));
#1386=CARTESIAN_POINT('',(-130.,10.,90.));
#1387=CARTESIAN_POINT('',(-110.,10.,180.));
#1388=CARTESIAN_POINT('Origin',(-110.,45.,10.));
#1389=CARTESIAN_POINT('',(-130.,80.,10.));
#1390=CARTESIAN_POINT('',(-90.,80.,10.));
#1391=CARTESIAN_POINT('',(-110.,80.,10.));
#1392=CARTESIAN_POINT('',(-130.,45.,10.));
#1393=CARTESIAN_POINT('',(-90.,45.,10.));
#1394=CARTESIAN_POINT('Origin',(-90.,45.,90.));
#1395=CARTESIAN_POINT('',(-90.,80.,90.));
#1396=CARTESIAN_POINT('Origin',(-130.,45.,90.));
#1397=CARTESIAN_POINT('',(-130.,80.,180.));
#1398=CARTESIAN_POINT('',(-130.,80.,90.));
#1399=CARTESIAN_POINT('',(-130.,45.,180.));
#1400=CARTESIAN_POINT('Origin',(-110.,80.,90.));
#1401=CARTESIAN_POINT('',(-110.,80.,180.));
#1402=CARTESIAN_POINT('Origin',(-110.,45.,180.));
#1403=CARTESIAN_POINT('',(-140.,90.,180.));
#1404=CARTESIAN_POINT('',(-110.,90.,180.));
#1405=CARTESIAN_POINT('',(-140.,45.,180.));
#1406=CARTESIAN_POINT('Origin',(-110.,45.,0.));
#1407=CARTESIAN_POINT('',(-140.,90.,0.));
#1408=CARTESIAN_POINT('',(-110.,90.,0.));
#1409=CARTESIAN_POINT('',(-140.,45.,0.));
#1410=CARTESIAN_POINT('Origin',(-140.,45.,90.));
#1411=CARTESIAN_POINT('',(-140.,90.,90.));
#1412=CARTESIAN_POINT('Origin',(-110.,90.,90.));
#1413=CARTESIAN_POINT('',(0.,0.,0.));
#1414=CARTESIAN_POINT('',(0.,0.,0.));
#1415=UNCERTAINTY_MEASURE_WITH_UNIT(LENGTH_MEASURE(0.01),#1423,
'DISTANCE_ACCURACY_VALUE',
'Maximum model space distance between geometric entities at asserted c
onnectivities');
#1416=UNCERTAINTY_MEASURE_WITH_UNIT(LENGTH_MEASURE(0.01),#1423,
'DISTANCE_ACCURACY_VALUE',
'Maximum model space distance between geometric entities at asserted c
onnectivities');
#1417=UNCERTAINTY_MEASURE_WITH_UNIT(LENGTH_MEASURE(0.01),#1423,
'DISTANCE_ACCURACY_VALUE',
'Maximum model space distance between geometric entities at asserted c
onnectivities');
#1418=UNCERTAINTY_MEASURE_WITH_UNIT(LENGTH_MEASURE(0.01),#1423,
'DISTANCE_ACCURACY_VALUE',
'Maximum model space distance between geometric entities at asserted c
onnectivities');
#1419=(
GEOMETRIC_REPRESENTATION_CONTEXT(3)
GLOBAL_UNCERTAINTY_ASSIGNED_CONTEXT((#1415))
GLOBAL_UNIT_ASSIGNED_CONTEXT((#1423,#1425,#1426))
REPRESENTATION_CONTEXT('','3D')
);
#1420=(
GEOMETRIC_REPRESENTATION_CONTEXT(3)
GLOBAL_UNCERTAINTY_ASSIGNED_CONTEXT((#1416))
GLOBAL_UNIT_ASSIGNED_CONTEXT((#1423,#1425,#1426))
REPRESENTATION_CONTEXT('','3D')
);
#1421=(
GEOMETRIC_REPRESENTATION_CONTEXT(3)
GLOBAL_UNCERTAINTY_ASSIGNED_CONTEXT((#1417))
GLOBAL_UNIT_ASSIGNED_CONTEXT((#1423,#1425,#1426))
REPRESENTATION_CONTEXT('','3D')
);
#1422=(
GEOMETRIC_REPRESENTATION_CONTEXT(3)
GLOBAL_UNCERTAINTY_ASSIGNED_CONTEXT((#1418))
GLOBAL_UNIT_ASSIGNED_CONTEXT((#1423,#1425,#1426))
REPRESENTATION_CONTEXT('','3D')
);
#1423=(
LENGTH_UNIT()
NAMED_UNIT(*)
SI_UNIT(.MILLI.,.METRE.)
);
#1424=(
LENGTH_UNIT()
NAMED_UNIT(*)
SI_UNIT($,.METRE.)
);
#1425=(
NAMED_UNIT(*)
PLANE_ANGLE_UNIT()
SI_UNIT($,.RADIAN.)
);
#1426=(
NAMED_UNIT(*)
SI_UNIT($,.STERADIAN.)
SOLID_ANGLE_UNIT()
);
#1427=SHAPE_DEFINITION_REPRESENTATION(#1430,#1435);
#1428=SHAPE_DEFINITION_REPRESENTATION(#1431,#1436);
#1429=SHAPE_DEFINITION_REPRESENTATION(#1432,#1437);
#1430=PRODUCT_DEFINITION_SHAPE('',$,#1439);
#1431=PRODUCT_DEFINITION_SHAPE('',$,#1440);
#1432=PRODUCT_DEFINITION_SHAPE('',$,#1441);
#1433=PRODUCT_DEFINITION_SHAPE($,$,#17);
#1434=PRODUCT_DEFINITION_SHAPE($,$,#18);
#1435=SHAPE_REPRESENTATION('',(#875,#949,#950),#1419);
#1436=SHAPE_REPRESENTATION('',(#876),#1420);
#1437=SHAPE_REPRESENTATION('',(#909),#1421);
#1438=PRODUCT_DEFINITION_CONTEXT('part definition',#1449,'design');
#1439=PRODUCT_DEFINITION('Tip Disposal Chamber Unit','(Unsaved)',#1442,
#1438);
#1440=PRODUCT_DEFINITION('Tip ejector part ','Tip ejector part ',#1443,
#1438);
#1441=PRODUCT_DEFINITION('Disposal chamber ','Disposal chamber ',#1444,
#1438);
#1442=PRODUCT_DEFINITION_FORMATION('',$,#1451);
#1443=PRODUCT_DEFINITION_FORMATION('',$,#1452);
#1444=PRODUCT_DEFINITION_FORMATION('',$,#1453);
#1445=PRODUCT_RELATED_PRODUCT_CATEGORY('(Unsaved)','(Unsaved)',(#1451));
#1446=PRODUCT_RELATED_PRODUCT_CATEGORY('Tip ejector part ',
'Tip ejector part ',(#1452));
#1447=PRODUCT_RELATED_PRODUCT_CATEGORY('Disposal chamber ',
'Disposal chamber ',(#1453));
#1448=APPLICATION_PROTOCOL_DEFINITION('international standard',
'automotive_design',2009,#1449);
#1449=APPLICATION_CONTEXT(
'Core Data for Automotive Mechanical Design Process');
#1450=PRODUCT_CONTEXT('part definition',#1449,'mechanical');
#1451=PRODUCT('Tip Disposal Chamber Unit','(Unsaved)',$,(#1450));
#1452=PRODUCT('Tip ejector part ','Tip ejector part ',$,(#1450));
#1453=PRODUCT('Disposal chamber ','Disposal chamber ',$,(#1450));
#1454=PRESENTATION_STYLE_ASSIGNMENT((#1457));
#1455=PRESENTATION_STYLE_ASSIGNMENT((#1458));
#1456=PRESENTATION_STYLE_ASSIGNMENT((#1459));
#1457=SURFACE_STYLE_USAGE(.BOTH.,#1460);
#1458=SURFACE_STYLE_USAGE(.BOTH.,#1461);
#1459=SURFACE_STYLE_USAGE(.BOTH.,#1462);
#1460=SURFACE_SIDE_STYLE('',(#1463));
#1461=SURFACE_SIDE_STYLE('',(#1464));
#1462=SURFACE_SIDE_STYLE('',(#1465));
#1463=SURFACE_STYLE_FILL_AREA(#1466);
#1464=SURFACE_STYLE_FILL_AREA(#1467);
#1465=SURFACE_STYLE_FILL_AREA(#1468);
#1466=FILL_AREA_STYLE('Steel - Satin',(#1469));
#1467=FILL_AREA_STYLE('Opaque(68,150,72)',(#1470));
#1468=FILL_AREA_STYLE('Opaque(63,63,63)',(#1471));
#1469=FILL_AREA_STYLE_COLOUR('Steel - Satin',#1472);
#1470=FILL_AREA_STYLE_COLOUR('Opaque(68,150,72)',#1473);
#1471=FILL_AREA_STYLE_COLOUR('Opaque(63,63,63)',#1474);
#1472=COLOUR_RGB('Steel - Satin',0.627450980392157,0.627450980392157,0.627450980392157);
#1473=COLOUR_RGB('Opaque(68,150,72)',0.266666666666667,0.588235294117647,
0.282352941176471);
#1474=COLOUR_RGB('Opaque(63,63,63)',0.247058823529412,0.247058823529412,
0.247058823529412);
ENDSEC;
END-ISO-10303-21;
