ISO-10303-21;
HEADER;
/* Generated by software containing ST-Developer
 * from STEP Tools, Inc. (www.steptools.com) 
 */

FILE_DESCRIPTION(
/* description */ (''),
/* implementation_level */ '2;1');

FILE_NAME(
/* name */ 'Stock Solution Holder.step',
/* time_stamp */ '2026-09-15T02:59:28+08:00',
/* author */ (''),
/* organization */ (''),
/* preprocessor_version */ 'ST-DEVELOPER v20.1',
/* originating_system */ 'Autodesk Translation Framework v15.8.0.0',
/* authorisation */ '');

FILE_SCHEMA (('AUTOMOTIVE_DESIGN { 1 0 10303 214 3 1 1 }'));
ENDSEC;

DATA;
#10=MECHANICAL_DESIGN_GEOMETRIC_PRESENTATION_REPRESENTATION('',(#13),#683);
#11=SHAPE_REPRESENTATION_RELATIONSHIP('SRR','None',#690,#12);
#12=ADVANCED_BREP_SHAPE_REPRESENTATION('',(#14),#682);
#13=STYLED_ITEM('',(#700),#14);
#14=MANIFOLD_SOLID_BREP('Body1',#383);
#15=FACE_BOUND('',#65,.T.);
#16=FACE_BOUND('',#66,.T.);
#17=FACE_BOUND('',#67,.T.);
#18=FACE_BOUND('',#68,.T.);
#19=FACE_BOUND('',#69,.T.);
#20=FACE_BOUND('',#70,.T.);
#21=FACE_BOUND('',#71,.T.);
#22=FACE_BOUND('',#72,.T.);
#23=PLANE('',#400);
#24=PLANE('',#412);
#25=PLANE('',#417);
#26=PLANE('',#419);
#27=PLANE('',#423);
#28=PLANE('',#426);
#29=PLANE('',#429);
#30=PLANE('',#432);
#31=PLANE('',#435);
#32=PLANE('',#438);
#33=PLANE('',#441);
#34=PLANE('',#444);
#35=PLANE('',#445);
#36=PLANE('',#446);
#37=FACE_OUTER_BOUND('',#63,.T.);
#38=FACE_OUTER_BOUND('',#64,.T.);
#39=FACE_OUTER_BOUND('',#73,.T.);
#40=FACE_OUTER_BOUND('',#74,.T.);
#41=FACE_OUTER_BOUND('',#75,.T.);
#42=FACE_OUTER_BOUND('',#76,.T.);
#43=FACE_OUTER_BOUND('',#77,.T.);
#44=FACE_OUTER_BOUND('',#78,.T.);
#45=FACE_OUTER_BOUND('',#79,.T.);
#46=FACE_OUTER_BOUND('',#80,.T.);
#47=FACE_OUTER_BOUND('',#81,.T.);
#48=FACE_OUTER_BOUND('',#82,.T.);
#49=FACE_OUTER_BOUND('',#83,.T.);
#50=FACE_OUTER_BOUND('',#84,.T.);
#51=FACE_OUTER_BOUND('',#85,.T.);
#52=FACE_OUTER_BOUND('',#86,.T.);
#53=FACE_OUTER_BOUND('',#87,.T.);
#54=FACE_OUTER_BOUND('',#88,.T.);
#55=FACE_OUTER_BOUND('',#89,.T.);
#56=FACE_OUTER_BOUND('',#90,.T.);
#57=FACE_OUTER_BOUND('',#91,.T.);
#58=FACE_OUTER_BOUND('',#92,.T.);
#59=FACE_OUTER_BOUND('',#93,.T.);
#60=FACE_OUTER_BOUND('',#94,.T.);
#61=FACE_OUTER_BOUND('',#95,.T.);
#62=FACE_OUTER_BOUND('',#96,.T.);
#63=EDGE_LOOP('',(#249,#250,#251,#252));
#64=EDGE_LOOP('',(#253,#254,#255,#256,#257,#258,#259,#260));
#65=EDGE_LOOP('',(#261));
#66=EDGE_LOOP('',(#262));
#67=EDGE_LOOP('',(#263));
#68=EDGE_LOOP('',(#264));
#69=EDGE_LOOP('',(#265));
#70=EDGE_LOOP('',(#266));
#71=EDGE_LOOP('',(#267));
#72=EDGE_LOOP('',(#268));
#73=EDGE_LOOP('',(#269,#270,#271,#272));
#74=EDGE_LOOP('',(#273,#274,#275,#276));
#75=EDGE_LOOP('',(#277,#278,#279,#280));
#76=EDGE_LOOP('',(#281,#282,#283,#284,#285,#286,#287,#288));
#77=EDGE_LOOP('',(#289,#290,#291,#292));
#78=EDGE_LOOP('',(#293,#294,#295,#296));
#79=EDGE_LOOP('',(#297,#298,#299,#300));
#80=EDGE_LOOP('',(#301));
#81=EDGE_LOOP('',(#302,#303,#304,#305));
#82=EDGE_LOOP('',(#306));
#83=EDGE_LOOP('',(#307,#308,#309,#310));
#84=EDGE_LOOP('',(#311));
#85=EDGE_LOOP('',(#312,#313,#314,#315));
#86=EDGE_LOOP('',(#316));
#87=EDGE_LOOP('',(#317,#318,#319,#320));
#88=EDGE_LOOP('',(#321));
#89=EDGE_LOOP('',(#322,#323,#324,#325));
#90=EDGE_LOOP('',(#326));
#91=EDGE_LOOP('',(#327,#328,#329,#330));
#92=EDGE_LOOP('',(#331));
#93=EDGE_LOOP('',(#332,#333,#334,#335));
#94=EDGE_LOOP('',(#336));
#95=EDGE_LOOP('',(#337,#338,#339,#340));
#96=EDGE_LOOP('',(#341,#342,#343,#344));
#97=LINE('',#579,#121);
#98=LINE('',#582,#122);
#99=LINE('',#585,#123);
#100=LINE('',#589,#124);
#101=LINE('',#593,#125);
#102=LINE('',#596,#126);
#103=LINE('',#615,#127);
#104=LINE('',#616,#128);
#105=LINE('',#620,#129);
#106=LINE('',#625,#130);
#107=LINE('',#626,#131);
#108=LINE('',#628,#132);
#109=LINE('',#630,#133);
#110=LINE('',#633,#134);
#111=LINE('',#635,#135);
#112=LINE('',#637,#136);
#113=LINE('',#640,#137);
#114=LINE('',#645,#138);
#115=LINE('',#650,#139);
#116=LINE('',#655,#140);
#117=LINE('',#660,#141);
#118=LINE('',#665,#142);
#119=LINE('',#670,#143);
#120=LINE('',#675,#144);
#121=VECTOR('',#453,10.);
#122=VECTOR('',#456,10.);
#123=VECTOR('',#459,10.);
#124=VECTOR('',#462,10.);
#125=VECTOR('',#465,10.);
#126=VECTOR('',#468,10.);
#127=VECTOR('',#487,10.);
#128=VECTOR('',#488,10.);
#129=VECTOR('',#493,10.);
#130=VECTOR('',#498,10.);
#131=VECTOR('',#499,10.);
#132=VECTOR('',#502,10.);
#133=VECTOR('',#503,10.);
#134=VECTOR('',#506,10.);
#135=VECTOR('',#509,10.);
#136=VECTOR('',#512,10.);
#137=VECTOR('',#515,14.25);
#138=VECTOR('',#522,14.25);
#139=VECTOR('',#529,9.5);
#140=VECTOR('',#536,9.5);
#141=VECTOR('',#543,9.5);
#142=VECTOR('',#550,9.5);
#143=VECTOR('',#557,9.5);
#144=VECTOR('',#564,9.5);
#145=CIRCLE('',#398,1.);
#146=CIRCLE('',#399,1.);
#147=CIRCLE('',#401,1.);
#148=CIRCLE('',#402,1.);
#149=CIRCLE('',#403,1.);
#150=CIRCLE('',#404,14.25);
#151=CIRCLE('',#405,14.25);
#152=CIRCLE('',#406,9.5);
#153=CIRCLE('',#407,9.5);
#154=CIRCLE('',#408,9.5);
#155=CIRCLE('',#409,9.5);
#156=CIRCLE('',#410,9.5);
#157=CIRCLE('',#411,9.5);
#158=CIRCLE('',#414,1.);
#159=CIRCLE('',#416,1.);
#160=CIRCLE('',#418,1.);
#161=CIRCLE('',#422,14.25);
#162=CIRCLE('',#425,14.25);
#163=CIRCLE('',#428,9.5);
#164=CIRCLE('',#431,9.5);
#165=CIRCLE('',#434,9.5);
#166=CIRCLE('',#437,9.5);
#167=CIRCLE('',#440,9.5);
#168=CIRCLE('',#443,9.5);
#169=VERTEX_POINT('',#575);
#170=VERTEX_POINT('',#576);
#171=VERTEX_POINT('',#578);
#172=VERTEX_POINT('',#580);
#173=VERTEX_POINT('',#584);
#174=VERTEX_POINT('',#586);
#175=VERTEX_POINT('',#588);
#176=VERTEX_POINT('',#590);
#177=VERTEX_POINT('',#592);
#178=VERTEX_POINT('',#594);
#179=VERTEX_POINT('',#597);
#180=VERTEX_POINT('',#599);
#181=VERTEX_POINT('',#601);
#182=VERTEX_POINT('',#603);
#183=VERTEX_POINT('',#605);
#184=VERTEX_POINT('',#607);
#185=VERTEX_POINT('',#609);
#186=VERTEX_POINT('',#611);
#187=VERTEX_POINT('',#614);
#188=VERTEX_POINT('',#618);
#189=VERTEX_POINT('',#622);
#190=VERTEX_POINT('',#623);
#191=VERTEX_POINT('',#629);
#192=VERTEX_POINT('',#631);
#193=VERTEX_POINT('',#639);
#194=VERTEX_POINT('',#644);
#195=VERTEX_POINT('',#649);
#196=VERTEX_POINT('',#654);
#197=VERTEX_POINT('',#659);
#198=VERTEX_POINT('',#664);
#199=VERTEX_POINT('',#669);
#200=VERTEX_POINT('',#674);
#201=EDGE_CURVE('',#169,#170,#145,.T.);
#202=EDGE_CURVE('',#170,#171,#97,.T.);
#203=EDGE_CURVE('',#171,#172,#146,.T.);
#204=EDGE_CURVE('',#172,#169,#98,.T.);
#205=EDGE_CURVE('',#171,#173,#99,.T.);
#206=EDGE_CURVE('',#174,#173,#147,.T.);
#207=EDGE_CURVE('',#174,#175,#100,.T.);
#208=EDGE_CURVE('',#176,#175,#148,.T.);
#209=EDGE_CURVE('',#176,#177,#101,.T.);
#210=EDGE_CURVE('',#178,#177,#149,.T.);
#211=EDGE_CURVE('',#178,#172,#102,.T.);
#212=EDGE_CURVE('',#179,#179,#150,.T.);
#213=EDGE_CURVE('',#180,#180,#151,.T.);
#214=EDGE_CURVE('',#181,#181,#152,.T.);
#215=EDGE_CURVE('',#182,#182,#153,.T.);
#216=EDGE_CURVE('',#183,#183,#154,.T.);
#217=EDGE_CURVE('',#184,#184,#155,.T.);
#218=EDGE_CURVE('',#185,#185,#156,.T.);
#219=EDGE_CURVE('',#186,#186,#157,.T.);
#220=EDGE_CURVE('',#187,#170,#103,.T.);
#221=EDGE_CURVE('',#173,#187,#104,.T.);
#222=EDGE_CURVE('',#187,#188,#158,.T.);
#223=EDGE_CURVE('',#188,#174,#105,.T.);
#224=EDGE_CURVE('',#189,#190,#159,.T.);
#225=EDGE_CURVE('',#190,#178,#106,.T.);
#226=EDGE_CURVE('',#177,#189,#107,.T.);
#227=EDGE_CURVE('',#169,#190,#108,.T.);
#228=EDGE_CURVE('',#189,#191,#109,.T.);
#229=EDGE_CURVE('',#192,#191,#160,.T.);
#230=EDGE_CURVE('',#192,#188,#110,.T.);
#231=EDGE_CURVE('',#191,#176,#111,.T.);
#232=EDGE_CURVE('',#175,#192,#112,.T.);
#233=EDGE_CURVE('',#179,#193,#113,.T.);
#234=EDGE_CURVE('',#193,#193,#161,.T.);
#235=EDGE_CURVE('',#180,#194,#114,.T.);
#236=EDGE_CURVE('',#194,#194,#162,.T.);
#237=EDGE_CURVE('',#181,#195,#115,.T.);
#238=EDGE_CURVE('',#195,#195,#163,.T.);
#239=EDGE_CURVE('',#182,#196,#116,.T.);
#240=EDGE_CURVE('',#196,#196,#164,.T.);
#241=EDGE_CURVE('',#183,#197,#117,.T.);
#242=EDGE_CURVE('',#197,#197,#165,.T.);
#243=EDGE_CURVE('',#184,#198,#118,.T.);
#244=EDGE_CURVE('',#198,#198,#166,.T.);
#245=EDGE_CURVE('',#185,#199,#119,.T.);
#246=EDGE_CURVE('',#199,#199,#167,.T.);
#247=EDGE_CURVE('',#186,#200,#120,.T.);
#248=EDGE_CURVE('',#200,#200,#168,.T.);
#249=ORIENTED_EDGE('',*,*,#201,.T.);
#250=ORIENTED_EDGE('',*,*,#202,.T.);
#251=ORIENTED_EDGE('',*,*,#203,.T.);
#252=ORIENTED_EDGE('',*,*,#204,.T.);
#253=ORIENTED_EDGE('',*,*,#203,.F.);
#254=ORIENTED_EDGE('',*,*,#205,.T.);
#255=ORIENTED_EDGE('',*,*,#206,.F.);
#256=ORIENTED_EDGE('',*,*,#207,.T.);
#257=ORIENTED_EDGE('',*,*,#208,.F.);
#258=ORIENTED_EDGE('',*,*,#209,.T.);
#259=ORIENTED_EDGE('',*,*,#210,.F.);
#260=ORIENTED_EDGE('',*,*,#211,.T.);
#261=ORIENTED_EDGE('',*,*,#212,.T.);
#262=ORIENTED_EDGE('',*,*,#213,.T.);
#263=ORIENTED_EDGE('',*,*,#214,.T.);
#264=ORIENTED_EDGE('',*,*,#215,.T.);
#265=ORIENTED_EDGE('',*,*,#216,.T.);
#266=ORIENTED_EDGE('',*,*,#217,.T.);
#267=ORIENTED_EDGE('',*,*,#218,.T.);
#268=ORIENTED_EDGE('',*,*,#219,.T.);
#269=ORIENTED_EDGE('',*,*,#202,.F.);
#270=ORIENTED_EDGE('',*,*,#220,.F.);
#271=ORIENTED_EDGE('',*,*,#221,.F.);
#272=ORIENTED_EDGE('',*,*,#205,.F.);
#273=ORIENTED_EDGE('',*,*,#222,.T.);
#274=ORIENTED_EDGE('',*,*,#223,.T.);
#275=ORIENTED_EDGE('',*,*,#206,.T.);
#276=ORIENTED_EDGE('',*,*,#221,.T.);
#277=ORIENTED_EDGE('',*,*,#224,.T.);
#278=ORIENTED_EDGE('',*,*,#225,.T.);
#279=ORIENTED_EDGE('',*,*,#210,.T.);
#280=ORIENTED_EDGE('',*,*,#226,.T.);
#281=ORIENTED_EDGE('',*,*,#201,.F.);
#282=ORIENTED_EDGE('',*,*,#227,.T.);
#283=ORIENTED_EDGE('',*,*,#224,.F.);
#284=ORIENTED_EDGE('',*,*,#228,.T.);
#285=ORIENTED_EDGE('',*,*,#229,.F.);
#286=ORIENTED_EDGE('',*,*,#230,.T.);
#287=ORIENTED_EDGE('',*,*,#222,.F.);
#288=ORIENTED_EDGE('',*,*,#220,.T.);
#289=ORIENTED_EDGE('',*,*,#226,.F.);
#290=ORIENTED_EDGE('',*,*,#209,.F.);
#291=ORIENTED_EDGE('',*,*,#231,.F.);
#292=ORIENTED_EDGE('',*,*,#228,.F.);
#293=ORIENTED_EDGE('',*,*,#229,.T.);
#294=ORIENTED_EDGE('',*,*,#231,.T.);
#295=ORIENTED_EDGE('',*,*,#208,.T.);
#296=ORIENTED_EDGE('',*,*,#232,.T.);
#297=ORIENTED_EDGE('',*,*,#212,.F.);
#298=ORIENTED_EDGE('',*,*,#233,.T.);
#299=ORIENTED_EDGE('',*,*,#234,.T.);
#300=ORIENTED_EDGE('',*,*,#233,.F.);
#301=ORIENTED_EDGE('',*,*,#234,.F.);
#302=ORIENTED_EDGE('',*,*,#213,.F.);
#303=ORIENTED_EDGE('',*,*,#235,.T.);
#304=ORIENTED_EDGE('',*,*,#236,.T.);
#305=ORIENTED_EDGE('',*,*,#235,.F.);
#306=ORIENTED_EDGE('',*,*,#236,.F.);
#307=ORIENTED_EDGE('',*,*,#214,.F.);
#308=ORIENTED_EDGE('',*,*,#237,.T.);
#309=ORIENTED_EDGE('',*,*,#238,.T.);
#310=ORIENTED_EDGE('',*,*,#237,.F.);
#311=ORIENTED_EDGE('',*,*,#238,.F.);
#312=ORIENTED_EDGE('',*,*,#215,.F.);
#313=ORIENTED_EDGE('',*,*,#239,.T.);
#314=ORIENTED_EDGE('',*,*,#240,.T.);
#315=ORIENTED_EDGE('',*,*,#239,.F.);
#316=ORIENTED_EDGE('',*,*,#240,.F.);
#317=ORIENTED_EDGE('',*,*,#216,.F.);
#318=ORIENTED_EDGE('',*,*,#241,.T.);
#319=ORIENTED_EDGE('',*,*,#242,.T.);
#320=ORIENTED_EDGE('',*,*,#241,.F.);
#321=ORIENTED_EDGE('',*,*,#242,.F.);
#322=ORIENTED_EDGE('',*,*,#217,.F.);
#323=ORIENTED_EDGE('',*,*,#243,.T.);
#324=ORIENTED_EDGE('',*,*,#244,.T.);
#325=ORIENTED_EDGE('',*,*,#243,.F.);
#326=ORIENTED_EDGE('',*,*,#244,.F.);
#327=ORIENTED_EDGE('',*,*,#218,.F.);
#328=ORIENTED_EDGE('',*,*,#245,.T.);
#329=ORIENTED_EDGE('',*,*,#246,.T.);
#330=ORIENTED_EDGE('',*,*,#245,.F.);
#331=ORIENTED_EDGE('',*,*,#246,.F.);
#332=ORIENTED_EDGE('',*,*,#219,.F.);
#333=ORIENTED_EDGE('',*,*,#247,.T.);
#334=ORIENTED_EDGE('',*,*,#248,.T.);
#335=ORIENTED_EDGE('',*,*,#247,.F.);
#336=ORIENTED_EDGE('',*,*,#248,.F.);
#337=ORIENTED_EDGE('',*,*,#223,.F.);
#338=ORIENTED_EDGE('',*,*,#230,.F.);
#339=ORIENTED_EDGE('',*,*,#232,.F.);
#340=ORIENTED_EDGE('',*,*,#207,.F.);
#341=ORIENTED_EDGE('',*,*,#204,.F.);
#342=ORIENTED_EDGE('',*,*,#211,.F.);
#343=ORIENTED_EDGE('',*,*,#225,.F.);
#344=ORIENTED_EDGE('',*,*,#227,.F.);
#345=CYLINDRICAL_SURFACE('',#397,1.);
#346=CYLINDRICAL_SURFACE('',#413,1.);
#347=CYLINDRICAL_SURFACE('',#415,1.);
#348=CYLINDRICAL_SURFACE('',#420,1.);
#349=CYLINDRICAL_SURFACE('',#421,14.25);
#350=CYLINDRICAL_SURFACE('',#424,14.25);
#351=CYLINDRICAL_SURFACE('',#427,9.5);
#352=CYLINDRICAL_SURFACE('',#430,9.5);
#353=CYLINDRICAL_SURFACE('',#433,9.5);
#354=CYLINDRICAL_SURFACE('',#436,9.5);
#355=CYLINDRICAL_SURFACE('',#439,9.5);
#356=CYLINDRICAL_SURFACE('',#442,9.5);
#357=ADVANCED_FACE('',(#37),#345,.T.);
#358=ADVANCED_FACE('',(#38,#15,#16,#17,#18,#19,#20,#21,#22),#23,.T.);
#359=ADVANCED_FACE('',(#39),#24,.F.);
#360=ADVANCED_FACE('',(#40),#346,.T.);
#361=ADVANCED_FACE('',(#41),#347,.T.);
#362=ADVANCED_FACE('',(#42),#25,.F.);
#363=ADVANCED_FACE('',(#43),#26,.F.);
#364=ADVANCED_FACE('',(#44),#348,.T.);
#365=ADVANCED_FACE('',(#45),#349,.F.);
#366=ADVANCED_FACE('',(#46),#27,.T.);
#367=ADVANCED_FACE('',(#47),#350,.F.);
#368=ADVANCED_FACE('',(#48),#28,.T.);
#369=ADVANCED_FACE('',(#49),#351,.F.);
#370=ADVANCED_FACE('',(#50),#29,.T.);
#371=ADVANCED_FACE('',(#51),#352,.F.);
#372=ADVANCED_FACE('',(#52),#30,.T.);
#373=ADVANCED_FACE('',(#53),#353,.F.);
#374=ADVANCED_FACE('',(#54),#31,.T.);
#375=ADVANCED_FACE('',(#55),#354,.F.);
#376=ADVANCED_FACE('',(#56),#32,.T.);
#377=ADVANCED_FACE('',(#57),#355,.F.);
#378=ADVANCED_FACE('',(#58),#33,.T.);
#379=ADVANCED_FACE('',(#59),#356,.F.);
#380=ADVANCED_FACE('',(#60),#34,.T.);
#381=ADVANCED_FACE('',(#61),#35,.F.);
#382=ADVANCED_FACE('',(#62),#36,.F.);
#383=CLOSED_SHELL('',(#357,#358,#359,#360,#361,#362,#363,#364,#365,#366,
#367,#368,#369,#370,#371,#372,#373,#374,#375,#376,#377,#378,#379,#380,#381,
#382));
#384=DERIVED_UNIT_ELEMENT(#386,1.);
#385=DERIVED_UNIT_ELEMENT(#685,-3.);
#386=(
MASS_UNIT()
NAMED_UNIT(*)
SI_UNIT(.KILO.,.GRAM.)
);
#387=DERIVED_UNIT((#384,#385));
#388=MEASURE_REPRESENTATION_ITEM('density measure',
POSITIVE_RATIO_MEASURE(7850.),#387);
#389=PROPERTY_DEFINITION_REPRESENTATION(#394,#391);
#390=PROPERTY_DEFINITION_REPRESENTATION(#395,#392);
#391=REPRESENTATION('material name',(#393),#682);
#392=REPRESENTATION('density',(#388),#682);
#393=DESCRIPTIVE_REPRESENTATION_ITEM('Steel','Steel');
#394=PROPERTY_DEFINITION('material property','material name',#692);
#395=PROPERTY_DEFINITION('material property','density of part',#692);
#396=AXIS2_PLACEMENT_3D('',#573,#447,#448);
#397=AXIS2_PLACEMENT_3D('',#574,#449,#450);
#398=AXIS2_PLACEMENT_3D('',#577,#451,#452);
#399=AXIS2_PLACEMENT_3D('',#581,#454,#455);
#400=AXIS2_PLACEMENT_3D('',#583,#457,#458);
#401=AXIS2_PLACEMENT_3D('',#587,#460,#461);
#402=AXIS2_PLACEMENT_3D('',#591,#463,#464);
#403=AXIS2_PLACEMENT_3D('',#595,#466,#467);
#404=AXIS2_PLACEMENT_3D('',#598,#469,#470);
#405=AXIS2_PLACEMENT_3D('',#600,#471,#472);
#406=AXIS2_PLACEMENT_3D('',#602,#473,#474);
#407=AXIS2_PLACEMENT_3D('',#604,#475,#476);
#408=AXIS2_PLACEMENT_3D('',#606,#477,#478);
#409=AXIS2_PLACEMENT_3D('',#608,#479,#480);
#410=AXIS2_PLACEMENT_3D('',#610,#481,#482);
#411=AXIS2_PLACEMENT_3D('',#612,#483,#484);
#412=AXIS2_PLACEMENT_3D('',#613,#485,#486);
#413=AXIS2_PLACEMENT_3D('',#617,#489,#490);
#414=AXIS2_PLACEMENT_3D('',#619,#491,#492);
#415=AXIS2_PLACEMENT_3D('',#621,#494,#495);
#416=AXIS2_PLACEMENT_3D('',#624,#496,#497);
#417=AXIS2_PLACEMENT_3D('',#627,#500,#501);
#418=AXIS2_PLACEMENT_3D('',#632,#504,#505);
#419=AXIS2_PLACEMENT_3D('',#634,#507,#508);
#420=AXIS2_PLACEMENT_3D('',#636,#510,#511);
#421=AXIS2_PLACEMENT_3D('',#638,#513,#514);
#422=AXIS2_PLACEMENT_3D('',#641,#516,#517);
#423=AXIS2_PLACEMENT_3D('',#642,#518,#519);
#424=AXIS2_PLACEMENT_3D('',#643,#520,#521);
#425=AXIS2_PLACEMENT_3D('',#646,#523,#524);
#426=AXIS2_PLACEMENT_3D('',#647,#525,#526);
#427=AXIS2_PLACEMENT_3D('',#648,#527,#528);
#428=AXIS2_PLACEMENT_3D('',#651,#530,#531);
#429=AXIS2_PLACEMENT_3D('',#652,#532,#533);
#430=AXIS2_PLACEMENT_3D('',#653,#534,#535);
#431=AXIS2_PLACEMENT_3D('',#656,#537,#538);
#432=AXIS2_PLACEMENT_3D('',#657,#539,#540);
#433=AXIS2_PLACEMENT_3D('',#658,#541,#542);
#434=AXIS2_PLACEMENT_3D('',#661,#544,#545);
#435=AXIS2_PLACEMENT_3D('',#662,#546,#547);
#436=AXIS2_PLACEMENT_3D('',#663,#548,#549);
#437=AXIS2_PLACEMENT_3D('',#666,#551,#552);
#438=AXIS2_PLACEMENT_3D('',#667,#553,#554);
#439=AXIS2_PLACEMENT_3D('',#668,#555,#556);
#440=AXIS2_PLACEMENT_3D('',#671,#558,#559);
#441=AXIS2_PLACEMENT_3D('',#672,#560,#561);
#442=AXIS2_PLACEMENT_3D('',#673,#562,#563);
#443=AXIS2_PLACEMENT_3D('',#676,#565,#566);
#444=AXIS2_PLACEMENT_3D('',#677,#567,#568);
#445=AXIS2_PLACEMENT_3D('',#678,#569,#570);
#446=AXIS2_PLACEMENT_3D('',#679,#571,#572);
#447=DIRECTION('axis',(0.,0.,1.));
#448=DIRECTION('refdir',(1.,0.,0.));
#449=DIRECTION('center_axis',(0.,0.,-1.));
#450=DIRECTION('ref_axis',(0.707106781186541,0.707106781186554,0.));
#451=DIRECTION('center_axis',(0.,0.,1.));
#452=DIRECTION('ref_axis',(0.707106781186541,0.707106781186554,0.));
#453=DIRECTION('',(0.,0.,1.));
#454=DIRECTION('center_axis',(0.,0.,-1.));
#455=DIRECTION('ref_axis',(0.707106781186541,0.707106781186554,0.));
#456=DIRECTION('',(0.,0.,-1.));
#457=DIRECTION('center_axis',(0.,0.,1.));
#458=DIRECTION('ref_axis',(0.,-1.,0.));
#459=DIRECTION('',(-1.,0.,0.));
#460=DIRECTION('center_axis',(0.,0.,-1.));
#461=DIRECTION('ref_axis',(-0.707106781186548,0.707106781186548,0.));
#462=DIRECTION('',(0.,-1.,0.));
#463=DIRECTION('center_axis',(0.,0.,-1.));
#464=DIRECTION('ref_axis',(-0.707106781186543,-0.707106781186552,0.));
#465=DIRECTION('',(1.,0.,0.));
#466=DIRECTION('center_axis',(0.,0.,-1.));
#467=DIRECTION('ref_axis',(0.707106781186548,-0.707106781186548,0.));
#468=DIRECTION('',(0.,1.,0.));
#469=DIRECTION('center_axis',(0.,0.,-1.));
#470=DIRECTION('ref_axis',(-1.,0.,0.));
#471=DIRECTION('center_axis',(0.,0.,-1.));
#472=DIRECTION('ref_axis',(-1.,0.,0.));
#473=DIRECTION('center_axis',(0.,0.,-1.));
#474=DIRECTION('ref_axis',(-1.,0.,0.));
#475=DIRECTION('center_axis',(0.,0.,-1.));
#476=DIRECTION('ref_axis',(-1.,0.,0.));
#477=DIRECTION('center_axis',(0.,0.,-1.));
#478=DIRECTION('ref_axis',(-1.,0.,0.));
#479=DIRECTION('center_axis',(0.,0.,-1.));
#480=DIRECTION('ref_axis',(-1.,0.,0.));
#481=DIRECTION('center_axis',(0.,0.,-1.));
#482=DIRECTION('ref_axis',(-1.,0.,0.));
#483=DIRECTION('center_axis',(0.,0.,-1.));
#484=DIRECTION('ref_axis',(-1.,0.,0.));
#485=DIRECTION('center_axis',(0.,-1.,0.));
#486=DIRECTION('ref_axis',(0.,0.,-1.));
#487=DIRECTION('',(1.,0.,0.));
#488=DIRECTION('',(0.,0.,-1.));
#489=DIRECTION('center_axis',(0.,0.,-1.));
#490=DIRECTION('ref_axis',(-0.707106781186548,0.707106781186548,0.));
#491=DIRECTION('center_axis',(0.,0.,1.));
#492=DIRECTION('ref_axis',(-0.707106781186548,0.707106781186548,0.));
#493=DIRECTION('',(0.,0.,1.));
#494=DIRECTION('center_axis',(0.,0.,-1.));
#495=DIRECTION('ref_axis',(0.707106781186548,-0.707106781186548,0.));
#496=DIRECTION('center_axis',(0.,0.,1.));
#497=DIRECTION('ref_axis',(0.707106781186548,-0.707106781186548,0.));
#498=DIRECTION('',(0.,0.,1.));
#499=DIRECTION('',(0.,0.,-1.));
#500=DIRECTION('center_axis',(0.,0.,1.));
#501=DIRECTION('ref_axis',(0.,-1.,0.));
#502=DIRECTION('',(0.,-1.,0.));
#503=DIRECTION('',(-1.,0.,0.));
#504=DIRECTION('center_axis',(0.,0.,1.));
#505=DIRECTION('ref_axis',(-0.707106781186543,-0.707106781186552,0.));
#506=DIRECTION('',(0.,1.,0.));
#507=DIRECTION('center_axis',(0.,1.,0.));
#508=DIRECTION('ref_axis',(0.,0.,1.));
#509=DIRECTION('',(0.,0.,1.));
#510=DIRECTION('center_axis',(0.,0.,-1.));
#511=DIRECTION('ref_axis',(-0.707106781186543,-0.707106781186552,0.));
#512=DIRECTION('',(0.,0.,-1.));
#513=DIRECTION('center_axis',(0.,0.,-1.));
#514=DIRECTION('ref_axis',(-1.,0.,0.));
#515=DIRECTION('',(0.,0.,-1.));
#516=DIRECTION('center_axis',(0.,0.,-1.));
#517=DIRECTION('ref_axis',(-1.,0.,0.));
#518=DIRECTION('center_axis',(0.,0.,1.));
#519=DIRECTION('ref_axis',(-1.,0.,0.));
#520=DIRECTION('center_axis',(0.,0.,-1.));
#521=DIRECTION('ref_axis',(-1.,0.,0.));
#522=DIRECTION('',(0.,0.,-1.));
#523=DIRECTION('center_axis',(0.,0.,-1.));
#524=DIRECTION('ref_axis',(-1.,0.,0.));
#525=DIRECTION('center_axis',(0.,0.,1.));
#526=DIRECTION('ref_axis',(-1.,0.,0.));
#527=DIRECTION('center_axis',(0.,0.,-1.));
#528=DIRECTION('ref_axis',(-1.,0.,0.));
#529=DIRECTION('',(0.,0.,-1.));
#530=DIRECTION('center_axis',(0.,0.,-1.));
#531=DIRECTION('ref_axis',(-1.,0.,0.));
#532=DIRECTION('center_axis',(0.,0.,1.));
#533=DIRECTION('ref_axis',(-1.,0.,0.));
#534=DIRECTION('center_axis',(0.,0.,-1.));
#535=DIRECTION('ref_axis',(-1.,0.,0.));
#536=DIRECTION('',(0.,0.,-1.));
#537=DIRECTION('center_axis',(0.,0.,-1.));
#538=DIRECTION('ref_axis',(-1.,0.,0.));
#539=DIRECTION('center_axis',(0.,0.,1.));
#540=DIRECTION('ref_axis',(-1.,0.,0.));
#541=DIRECTION('center_axis',(0.,0.,-1.));
#542=DIRECTION('ref_axis',(-1.,0.,0.));
#543=DIRECTION('',(0.,0.,-1.));
#544=DIRECTION('center_axis',(0.,0.,-1.));
#545=DIRECTION('ref_axis',(-1.,0.,0.));
#546=DIRECTION('center_axis',(0.,0.,1.));
#547=DIRECTION('ref_axis',(-1.,0.,0.));
#548=DIRECTION('center_axis',(0.,0.,-1.));
#549=DIRECTION('ref_axis',(-1.,0.,0.));
#550=DIRECTION('',(0.,0.,-1.));
#551=DIRECTION('center_axis',(0.,0.,-1.));
#552=DIRECTION('ref_axis',(-1.,0.,0.));
#553=DIRECTION('center_axis',(0.,0.,1.));
#554=DIRECTION('ref_axis',(-1.,0.,0.));
#555=DIRECTION('center_axis',(0.,0.,-1.));
#556=DIRECTION('ref_axis',(-1.,0.,0.));
#557=DIRECTION('',(0.,0.,-1.));
#558=DIRECTION('center_axis',(0.,0.,-1.));
#559=DIRECTION('ref_axis',(-1.,0.,0.));
#560=DIRECTION('center_axis',(0.,0.,1.));
#561=DIRECTION('ref_axis',(-1.,0.,0.));
#562=DIRECTION('center_axis',(0.,0.,-1.));
#563=DIRECTION('ref_axis',(-1.,0.,0.));
#564=DIRECTION('',(0.,0.,-1.));
#565=DIRECTION('center_axis',(0.,0.,-1.));
#566=DIRECTION('ref_axis',(-1.,0.,0.));
#567=DIRECTION('center_axis',(0.,0.,1.));
#568=DIRECTION('ref_axis',(-1.,0.,0.));
#569=DIRECTION('center_axis',(1.,0.,0.));
#570=DIRECTION('ref_axis',(0.,0.,1.));
#571=DIRECTION('center_axis',(-1.,0.,0.));
#572=DIRECTION('ref_axis',(0.,0.,-1.));
#573=CARTESIAN_POINT('',(0.,0.,0.));
#574=CARTESIAN_POINT('Origin',(84.,-0.999999999999996,25.));
#575=CARTESIAN_POINT('',(85.,-0.999999999999996,10.));
#576=CARTESIAN_POINT('',(84.,0.,10.));
#577=CARTESIAN_POINT('Origin',(84.,-0.999999999999996,10.));
#578=CARTESIAN_POINT('',(84.,0.,40.));
#579=CARTESIAN_POINT('',(84.,0.,25.));
#580=CARTESIAN_POINT('',(85.,-0.999999999999996,40.));
#581=CARTESIAN_POINT('Origin',(84.,-0.999999999999996,40.));
#582=CARTESIAN_POINT('',(85.,-0.999999999999996,25.));
#583=CARTESIAN_POINT('Origin',(49.5,-60.,40.));
#584=CARTESIAN_POINT('',(15.,0.,40.));
#585=CARTESIAN_POINT('',(49.5,0.,40.));
#586=CARTESIAN_POINT('',(14.,-0.999999999999996,40.));
#587=CARTESIAN_POINT('Origin',(15.,-1.,40.));
#588=CARTESIAN_POINT('',(14.,-119.,40.));
#589=CARTESIAN_POINT('',(14.,-60.,40.));
#590=CARTESIAN_POINT('',(15.,-120.,40.));
#591=CARTESIAN_POINT('Origin',(15.,-119.,40.));
#592=CARTESIAN_POINT('',(84.,-120.,40.));
#593=CARTESIAN_POINT('',(49.5,-120.,40.));
#594=CARTESIAN_POINT('',(85.,-119.,40.));
#595=CARTESIAN_POINT('Origin',(84.,-119.,40.));
#596=CARTESIAN_POINT('',(85.,-60.,40.));
#597=CARTESIAN_POINT('',(47.25,-91.,40.));
#598=CARTESIAN_POINT('Origin',(33.,-91.,40.));
#599=CARTESIAN_POINT('',(80.2500000000001,-91.,40.));
#600=CARTESIAN_POINT('Origin',(66.0000000000001,-91.,40.));
#601=CARTESIAN_POINT('',(75.5,-38.5,40.));
#602=CARTESIAN_POINT('Origin',(66.,-38.5,40.));
#603=CARTESIAN_POINT('',(42.5,-14.5,40.));
#604=CARTESIAN_POINT('Origin',(33.,-14.5,40.));
#605=CARTESIAN_POINT('',(42.5,-62.5,40.));
#606=CARTESIAN_POINT('Origin',(33.,-62.5,40.));
#607=CARTESIAN_POINT('',(42.5,-38.5,40.));
#608=CARTESIAN_POINT('Origin',(33.,-38.5,40.));
#609=CARTESIAN_POINT('',(75.5,-14.5,40.));
#610=CARTESIAN_POINT('Origin',(66.,-14.5,40.));
#611=CARTESIAN_POINT('',(75.5,-62.5,40.));
#612=CARTESIAN_POINT('Origin',(66.,-62.5,40.));
#613=CARTESIAN_POINT('Origin',(49.5,0.,25.));
#614=CARTESIAN_POINT('',(15.,0.,10.));
#615=CARTESIAN_POINT('',(49.5,0.,10.));
#616=CARTESIAN_POINT('',(15.,0.,25.));
#617=CARTESIAN_POINT('Origin',(15.,-1.,25.));
#618=CARTESIAN_POINT('',(14.,-0.999999999999996,10.));
#619=CARTESIAN_POINT('Origin',(15.,-1.,10.));
#620=CARTESIAN_POINT('',(14.,-1.,25.));
#621=CARTESIAN_POINT('Origin',(84.,-119.,25.));
#622=CARTESIAN_POINT('',(84.,-120.,10.));
#623=CARTESIAN_POINT('',(85.,-119.,10.));
#624=CARTESIAN_POINT('Origin',(84.,-119.,10.));
#625=CARTESIAN_POINT('',(85.,-119.,25.));
#626=CARTESIAN_POINT('',(84.,-120.,25.));
#627=CARTESIAN_POINT('Origin',(49.5,-60.,10.));
#628=CARTESIAN_POINT('',(85.,-60.,10.));
#629=CARTESIAN_POINT('',(15.,-120.,10.));
#630=CARTESIAN_POINT('',(49.5,-120.,10.));
#631=CARTESIAN_POINT('',(14.,-119.,10.));
#632=CARTESIAN_POINT('Origin',(15.,-119.,10.));
#633=CARTESIAN_POINT('',(14.,-60.,10.));
#634=CARTESIAN_POINT('Origin',(49.5,-120.,25.));
#635=CARTESIAN_POINT('',(15.,-120.,25.));
#636=CARTESIAN_POINT('Origin',(15.,-119.,25.));
#637=CARTESIAN_POINT('',(14.,-119.,25.));
#638=CARTESIAN_POINT('Origin',(33.,-91.,40.));
#639=CARTESIAN_POINT('',(47.25,-91.,18.));
#640=CARTESIAN_POINT('',(47.25,-91.,40.));
#641=CARTESIAN_POINT('Origin',(33.,-91.,18.));
#642=CARTESIAN_POINT('Origin',(33.,-91.,18.));
#643=CARTESIAN_POINT('Origin',(66.0000000000001,-91.,40.));
#644=CARTESIAN_POINT('',(80.2500000000001,-91.,18.));
#645=CARTESIAN_POINT('',(80.2500000000001,-91.,40.));
#646=CARTESIAN_POINT('Origin',(66.0000000000001,-91.,18.));
#647=CARTESIAN_POINT('Origin',(66.0000000000001,-91.,18.));
#648=CARTESIAN_POINT('Origin',(66.,-38.5,40.));
#649=CARTESIAN_POINT('',(75.5,-38.5,25.));
#650=CARTESIAN_POINT('',(75.5,-38.5,40.));
#651=CARTESIAN_POINT('Origin',(66.,-38.5,25.));
#652=CARTESIAN_POINT('Origin',(66.,-38.5,25.));
#653=CARTESIAN_POINT('Origin',(33.,-14.5,40.));
#654=CARTESIAN_POINT('',(42.5,-14.5,25.));
#655=CARTESIAN_POINT('',(42.5,-14.5,40.));
#656=CARTESIAN_POINT('Origin',(33.,-14.5,25.));
#657=CARTESIAN_POINT('Origin',(33.,-14.5,25.));
#658=CARTESIAN_POINT('Origin',(33.,-62.5,40.));
#659=CARTESIAN_POINT('',(42.5,-62.5,25.));
#660=CARTESIAN_POINT('',(42.5,-62.5,40.));
#661=CARTESIAN_POINT('Origin',(33.,-62.5,25.));
#662=CARTESIAN_POINT('Origin',(33.,-62.5,25.));
#663=CARTESIAN_POINT('Origin',(33.,-38.5,40.));
#664=CARTESIAN_POINT('',(42.5,-38.5,25.));
#665=CARTESIAN_POINT('',(42.5,-38.5,40.));
#666=CARTESIAN_POINT('Origin',(33.,-38.5,25.));
#667=CARTESIAN_POINT('Origin',(33.,-38.5,25.));
#668=CARTESIAN_POINT('Origin',(66.,-14.5,40.));
#669=CARTESIAN_POINT('',(75.5,-14.5,25.));
#670=CARTESIAN_POINT('',(75.5,-14.5,40.));
#671=CARTESIAN_POINT('Origin',(66.,-14.5,25.));
#672=CARTESIAN_POINT('Origin',(66.,-14.5,25.));
#673=CARTESIAN_POINT('Origin',(66.,-62.5,40.));
#674=CARTESIAN_POINT('',(75.5,-62.5,25.));
#675=CARTESIAN_POINT('',(75.5,-62.5,40.));
#676=CARTESIAN_POINT('Origin',(66.,-62.5,25.));
#677=CARTESIAN_POINT('Origin',(66.,-62.5,25.));
#678=CARTESIAN_POINT('Origin',(14.,-60.,25.));
#679=CARTESIAN_POINT('Origin',(85.,-60.,25.));
#680=UNCERTAINTY_MEASURE_WITH_UNIT(LENGTH_MEASURE(0.01),#684,
'DISTANCE_ACCURACY_VALUE',
'Maximum model space distance between geometric entities at asserted c
onnectivities');
#681=UNCERTAINTY_MEASURE_WITH_UNIT(LENGTH_MEASURE(0.01),#684,
'DISTANCE_ACCURACY_VALUE',
'Maximum model space distance between geometric entities at asserted c
onnectivities');
#682=(
GEOMETRIC_REPRESENTATION_CONTEXT(3)
GLOBAL_UNCERTAINTY_ASSIGNED_CONTEXT((#680))
GLOBAL_UNIT_ASSIGNED_CONTEXT((#684,#686,#687))
REPRESENTATION_CONTEXT('','3D')
);
#683=(
GEOMETRIC_REPRESENTATION_CONTEXT(3)
GLOBAL_UNCERTAINTY_ASSIGNED_CONTEXT((#681))
GLOBAL_UNIT_ASSIGNED_CONTEXT((#684,#686,#687))
REPRESENTATION_CONTEXT('','3D')
);
#684=(
LENGTH_UNIT()
NAMED_UNIT(*)
SI_UNIT(.MILLI.,.METRE.)
);
#685=(
LENGTH_UNIT()
NAMED_UNIT(*)
SI_UNIT($,.METRE.)
);
#686=(
NAMED_UNIT(*)
PLANE_ANGLE_UNIT()
SI_UNIT($,.RADIAN.)
);
#687=(
NAMED_UNIT(*)
SI_UNIT($,.STERADIAN.)
SOLID_ANGLE_UNIT()
);
#688=SHAPE_DEFINITION_REPRESENTATION(#689,#690);
#689=PRODUCT_DEFINITION_SHAPE('',$,#692);
#690=SHAPE_REPRESENTATION('',(#396),#682);
#691=PRODUCT_DEFINITION_CONTEXT('part definition',#696,'design');
#692=PRODUCT_DEFINITION('2026-05-06-02-11-17-822',
'Compartments for stock chemical solutions',#693,#691);
#693=PRODUCT_DEFINITION_FORMATION('',$,#698);
#694=PRODUCT_RELATED_PRODUCT_CATEGORY(
'Compartments for stock chemical solutions',
'Compartments for stock chemical solutions',(#698));
#695=APPLICATION_PROTOCOL_DEFINITION('international standard',
'automotive_design',2009,#696);
#696=APPLICATION_CONTEXT(
'Core Data for Automotive Mechanical Design Process');
#697=PRODUCT_CONTEXT('part definition',#696,'mechanical');
#698=PRODUCT('2026-05-06-02-11-17-822',
'Compartments for stock chemical solutions',$,(#697));
#699=PRESENTATION_STYLE_ASSIGNMENT((#701));
#700=PRESENTATION_STYLE_ASSIGNMENT((#702));
#701=SURFACE_STYLE_USAGE(.BOTH.,#703);
#702=SURFACE_STYLE_USAGE(.BOTH.,#704);
#703=SURFACE_SIDE_STYLE('',(#705));
#704=SURFACE_SIDE_STYLE('',(#706));
#705=SURFACE_STYLE_FILL_AREA(#707);
#706=SURFACE_STYLE_FILL_AREA(#708);
#707=FILL_AREA_STYLE('Steel - Satin',(#709));
#708=FILL_AREA_STYLE('Opaque(68,150,72)',(#710));
#709=FILL_AREA_STYLE_COLOUR('Steel - Satin',#711);
#710=FILL_AREA_STYLE_COLOUR('Opaque(68,150,72)',#712);
#711=COLOUR_RGB('Steel - Satin',0.627450980392157,0.627450980392157,0.627450980392157);
#712=COLOUR_RGB('Opaque(68,150,72)',0.266666666666667,0.588235294117647,
0.282352941176471);
ENDSEC;
END-ISO-10303-21;
