ISO-10303-21;
HEADER;
/* Generated by software containing ST-Developer
 * from STEP Tools, Inc. (www.steptools.com) 
 */

FILE_DESCRIPTION(
/* description */ (''),
/* implementation_level */ '2;1');

FILE_NAME(
/* name */ 'Top Mounting Plate.step',
/* time_stamp */ '2026-09-15T03:18:34+08:00',
/* author */ (''),
/* organization */ (''),
/* preprocessor_version */ 'ST-DEVELOPER v20.1',
/* originating_system */ 'Autodesk Translation Framework v15.8.0.0',
/* authorisation */ '');

FILE_SCHEMA (('AUTOMOTIVE_DESIGN { 1 0 10303 214 3 1 1 }'));
ENDSEC;

DATA;
#10=MECHANICAL_DESIGN_GEOMETRIC_PRESENTATION_REPRESENTATION('',(#13),#522);
#11=SHAPE_REPRESENTATION_RELATIONSHIP('SRR','None',#529,#12);
#12=ADVANCED_BREP_SHAPE_REPRESENTATION('',(#14),#521);
#13=STYLED_ITEM('',(#539),#14);
#14=MANIFOLD_SOLID_BREP('Body1',#310);
#15=FACE_BOUND('',#60,.T.);
#16=FACE_BOUND('',#61,.T.);
#17=FACE_BOUND('',#66,.T.);
#18=FACE_BOUND('',#67,.T.);
#19=FACE_BOUND('',#70,.T.);
#20=FACE_BOUND('',#71,.T.);
#21=FACE_BOUND('',#72,.T.);
#22=FACE_BOUND('',#73,.T.);
#23=FACE_BOUND('',#74,.T.);
#24=FACE_BOUND('',#76,.T.);
#25=FACE_BOUND('',#77,.T.);
#26=FACE_BOUND('',#78,.T.);
#27=FACE_BOUND('',#79,.T.);
#28=FACE_BOUND('',#80,.T.);
#29=PLANE('',#345);
#30=PLANE('',#346);
#31=PLANE('',#347);
#32=PLANE('',#348);
#33=PLANE('',#349);
#34=PLANE('',#350);
#35=PLANE('',#351);
#36=PLANE('',#352);
#37=FACE_OUTER_BOUND('',#52,.T.);
#38=FACE_OUTER_BOUND('',#53,.T.);
#39=FACE_OUTER_BOUND('',#54,.T.);
#40=FACE_OUTER_BOUND('',#55,.T.);
#41=FACE_OUTER_BOUND('',#56,.T.);
#42=FACE_OUTER_BOUND('',#57,.T.);
#43=FACE_OUTER_BOUND('',#58,.T.);
#44=FACE_OUTER_BOUND('',#59,.T.);
#45=FACE_OUTER_BOUND('',#62,.T.);
#46=FACE_OUTER_BOUND('',#63,.T.);
#47=FACE_OUTER_BOUND('',#64,.T.);
#48=FACE_OUTER_BOUND('',#65,.T.);
#49=FACE_OUTER_BOUND('',#68,.T.);
#50=FACE_OUTER_BOUND('',#69,.T.);
#51=FACE_OUTER_BOUND('',#75,.T.);
#52=EDGE_LOOP('',(#210,#211,#212,#213));
#53=EDGE_LOOP('',(#214,#215,#216,#217));
#54=EDGE_LOOP('',(#218,#219,#220,#221));
#55=EDGE_LOOP('',(#222,#223,#224,#225));
#56=EDGE_LOOP('',(#226,#227,#228,#229));
#57=EDGE_LOOP('',(#230,#231,#232,#233));
#58=EDGE_LOOP('',(#234,#235,#236,#237));
#59=EDGE_LOOP('',(#238,#239,#240,#241));
#60=EDGE_LOOP('',(#242));
#61=EDGE_LOOP('',(#243));
#62=EDGE_LOOP('',(#244,#245,#246,#247));
#63=EDGE_LOOP('',(#248,#249,#250,#251));
#64=EDGE_LOOP('',(#252,#253,#254,#255,#256,#257));
#65=EDGE_LOOP('',(#258,#259,#260,#261));
#66=EDGE_LOOP('',(#262));
#67=EDGE_LOOP('',(#263));
#68=EDGE_LOOP('',(#264,#265,#266,#267,#268,#269));
#69=EDGE_LOOP('',(#270,#271,#272,#273));
#70=EDGE_LOOP('',(#274));
#71=EDGE_LOOP('',(#275));
#72=EDGE_LOOP('',(#276));
#73=EDGE_LOOP('',(#277));
#74=EDGE_LOOP('',(#278));
#75=EDGE_LOOP('',(#279,#280,#281,#282));
#76=EDGE_LOOP('',(#283));
#77=EDGE_LOOP('',(#284));
#78=EDGE_LOOP('',(#285));
#79=EDGE_LOOP('',(#286));
#80=EDGE_LOOP('',(#287));
#81=LINE('',#443,#106);
#82=LINE('',#449,#107);
#83=LINE('',#455,#108);
#84=LINE('',#461,#109);
#85=LINE('',#467,#110);
#86=LINE('',#473,#111);
#87=LINE('',#479,#112);
#88=LINE('',#484,#113);
#89=LINE('',#486,#114);
#90=LINE('',#488,#115);
#91=LINE('',#489,#116);
#92=LINE('',#493,#117);
#93=LINE('',#494,#118);
#94=LINE('',#495,#119);
#95=LINE('',#499,#120);
#96=LINE('',#501,#121);
#97=LINE('',#503,#122);
#98=LINE('',#504,#123);
#99=LINE('',#507,#124);
#100=LINE('',#508,#125);
#101=LINE('',#509,#126);
#102=LINE('',#512,#127);
#103=LINE('',#513,#128);
#104=LINE('',#515,#129);
#105=LINE('',#516,#130);
#106=VECTOR('',#359,11.5);
#107=VECTOR('',#366,1.75);
#108=VECTOR('',#373,1.75);
#109=VECTOR('',#380,1.75);
#110=VECTOR('',#387,1.75);
#111=VECTOR('',#394,2.75);
#112=VECTOR('',#401,2.75);
#113=VECTOR('',#406,10.);
#114=VECTOR('',#407,10.);
#115=VECTOR('',#408,10.);
#116=VECTOR('',#409,10.);
#117=VECTOR('',#412,10.);
#118=VECTOR('',#413,10.);
#119=VECTOR('',#414,10.);
#120=VECTOR('',#417,10.);
#121=VECTOR('',#418,10.);
#122=VECTOR('',#419,10.);
#123=VECTOR('',#420,10.);
#124=VECTOR('',#423,10.);
#125=VECTOR('',#424,10.);
#126=VECTOR('',#425,10.);
#127=VECTOR('',#428,10.);
#128=VECTOR('',#429,10.);
#129=VECTOR('',#432,10.);
#130=VECTOR('',#433,10.);
#131=CIRCLE('',#325,11.5);
#132=CIRCLE('',#326,11.5);
#133=CIRCLE('',#328,1.75);
#134=CIRCLE('',#329,1.75);
#135=CIRCLE('',#331,1.75);
#136=CIRCLE('',#332,1.75);
#137=CIRCLE('',#334,1.75);
#138=CIRCLE('',#335,1.75);
#139=CIRCLE('',#337,1.75);
#140=CIRCLE('',#338,1.75);
#141=CIRCLE('',#340,2.75);
#142=CIRCLE('',#341,2.75);
#143=CIRCLE('',#343,2.75);
#144=CIRCLE('',#344,2.75);
#145=VERTEX_POINT('',#440);
#146=VERTEX_POINT('',#442);
#147=VERTEX_POINT('',#446);
#148=VERTEX_POINT('',#448);
#149=VERTEX_POINT('',#452);
#150=VERTEX_POINT('',#454);
#151=VERTEX_POINT('',#458);
#152=VERTEX_POINT('',#460);
#153=VERTEX_POINT('',#464);
#154=VERTEX_POINT('',#466);
#155=VERTEX_POINT('',#470);
#156=VERTEX_POINT('',#472);
#157=VERTEX_POINT('',#476);
#158=VERTEX_POINT('',#478);
#159=VERTEX_POINT('',#482);
#160=VERTEX_POINT('',#483);
#161=VERTEX_POINT('',#485);
#162=VERTEX_POINT('',#487);
#163=VERTEX_POINT('',#491);
#164=VERTEX_POINT('',#492);
#165=VERTEX_POINT('',#497);
#166=VERTEX_POINT('',#498);
#167=VERTEX_POINT('',#500);
#168=VERTEX_POINT('',#502);
#169=VERTEX_POINT('',#506);
#170=VERTEX_POINT('',#511);
#171=EDGE_CURVE('',#145,#145,#131,.T.);
#172=EDGE_CURVE('',#145,#146,#81,.T.);
#173=EDGE_CURVE('',#146,#146,#132,.T.);
#174=EDGE_CURVE('',#147,#147,#133,.T.);
#175=EDGE_CURVE('',#147,#148,#82,.T.);
#176=EDGE_CURVE('',#148,#148,#134,.T.);
#177=EDGE_CURVE('',#149,#149,#135,.T.);
#178=EDGE_CURVE('',#149,#150,#83,.T.);
#179=EDGE_CURVE('',#150,#150,#136,.T.);
#180=EDGE_CURVE('',#151,#151,#137,.T.);
#181=EDGE_CURVE('',#151,#152,#84,.T.);
#182=EDGE_CURVE('',#152,#152,#138,.T.);
#183=EDGE_CURVE('',#153,#153,#139,.T.);
#184=EDGE_CURVE('',#153,#154,#85,.T.);
#185=EDGE_CURVE('',#154,#154,#140,.T.);
#186=EDGE_CURVE('',#155,#155,#141,.T.);
#187=EDGE_CURVE('',#155,#156,#86,.T.);
#188=EDGE_CURVE('',#156,#156,#142,.T.);
#189=EDGE_CURVE('',#157,#157,#143,.T.);
#190=EDGE_CURVE('',#157,#158,#87,.T.);
#191=EDGE_CURVE('',#158,#158,#144,.T.);
#192=EDGE_CURVE('',#159,#160,#88,.T.);
#193=EDGE_CURVE('',#159,#161,#89,.T.);
#194=EDGE_CURVE('',#162,#161,#90,.T.);
#195=EDGE_CURVE('',#160,#162,#91,.T.);
#196=EDGE_CURVE('',#163,#164,#92,.T.);
#197=EDGE_CURVE('',#164,#162,#93,.T.);
#198=EDGE_CURVE('',#161,#163,#94,.T.);
#199=EDGE_CURVE('',#165,#166,#95,.T.);
#200=EDGE_CURVE('',#165,#167,#96,.T.);
#201=EDGE_CURVE('',#168,#167,#97,.T.);
#202=EDGE_CURVE('',#166,#168,#98,.T.);
#203=EDGE_CURVE('',#166,#169,#99,.T.);
#204=EDGE_CURVE('',#160,#168,#100,.T.);
#205=EDGE_CURVE('',#169,#164,#101,.T.);
#206=EDGE_CURVE('',#169,#170,#102,.T.);
#207=EDGE_CURVE('',#170,#163,#103,.T.);
#208=EDGE_CURVE('',#170,#165,#104,.T.);
#209=EDGE_CURVE('',#167,#159,#105,.T.);
#210=ORIENTED_EDGE('',*,*,#171,.F.);
#211=ORIENTED_EDGE('',*,*,#172,.T.);
#212=ORIENTED_EDGE('',*,*,#173,.F.);
#213=ORIENTED_EDGE('',*,*,#172,.F.);
#214=ORIENTED_EDGE('',*,*,#174,.F.);
#215=ORIENTED_EDGE('',*,*,#175,.T.);
#216=ORIENTED_EDGE('',*,*,#176,.F.);
#217=ORIENTED_EDGE('',*,*,#175,.F.);
#218=ORIENTED_EDGE('',*,*,#177,.F.);
#219=ORIENTED_EDGE('',*,*,#178,.T.);
#220=ORIENTED_EDGE('',*,*,#179,.F.);
#221=ORIENTED_EDGE('',*,*,#178,.F.);
#222=ORIENTED_EDGE('',*,*,#180,.F.);
#223=ORIENTED_EDGE('',*,*,#181,.T.);
#224=ORIENTED_EDGE('',*,*,#182,.F.);
#225=ORIENTED_EDGE('',*,*,#181,.F.);
#226=ORIENTED_EDGE('',*,*,#183,.F.);
#227=ORIENTED_EDGE('',*,*,#184,.T.);
#228=ORIENTED_EDGE('',*,*,#185,.F.);
#229=ORIENTED_EDGE('',*,*,#184,.F.);
#230=ORIENTED_EDGE('',*,*,#186,.F.);
#231=ORIENTED_EDGE('',*,*,#187,.T.);
#232=ORIENTED_EDGE('',*,*,#188,.F.);
#233=ORIENTED_EDGE('',*,*,#187,.F.);
#234=ORIENTED_EDGE('',*,*,#189,.F.);
#235=ORIENTED_EDGE('',*,*,#190,.T.);
#236=ORIENTED_EDGE('',*,*,#191,.F.);
#237=ORIENTED_EDGE('',*,*,#190,.F.);
#238=ORIENTED_EDGE('',*,*,#192,.F.);
#239=ORIENTED_EDGE('',*,*,#193,.T.);
#240=ORIENTED_EDGE('',*,*,#194,.F.);
#241=ORIENTED_EDGE('',*,*,#195,.F.);
#242=ORIENTED_EDGE('',*,*,#188,.T.);
#243=ORIENTED_EDGE('',*,*,#191,.T.);
#244=ORIENTED_EDGE('',*,*,#196,.T.);
#245=ORIENTED_EDGE('',*,*,#197,.T.);
#246=ORIENTED_EDGE('',*,*,#194,.T.);
#247=ORIENTED_EDGE('',*,*,#198,.T.);
#248=ORIENTED_EDGE('',*,*,#199,.F.);
#249=ORIENTED_EDGE('',*,*,#200,.T.);
#250=ORIENTED_EDGE('',*,*,#201,.F.);
#251=ORIENTED_EDGE('',*,*,#202,.F.);
#252=ORIENTED_EDGE('',*,*,#203,.F.);
#253=ORIENTED_EDGE('',*,*,#202,.T.);
#254=ORIENTED_EDGE('',*,*,#204,.F.);
#255=ORIENTED_EDGE('',*,*,#195,.T.);
#256=ORIENTED_EDGE('',*,*,#197,.F.);
#257=ORIENTED_EDGE('',*,*,#205,.F.);
#258=ORIENTED_EDGE('',*,*,#206,.F.);
#259=ORIENTED_EDGE('',*,*,#205,.T.);
#260=ORIENTED_EDGE('',*,*,#196,.F.);
#261=ORIENTED_EDGE('',*,*,#207,.F.);
#262=ORIENTED_EDGE('',*,*,#186,.T.);
#263=ORIENTED_EDGE('',*,*,#189,.T.);
#264=ORIENTED_EDGE('',*,*,#208,.F.);
#265=ORIENTED_EDGE('',*,*,#207,.T.);
#266=ORIENTED_EDGE('',*,*,#198,.F.);
#267=ORIENTED_EDGE('',*,*,#193,.F.);
#268=ORIENTED_EDGE('',*,*,#209,.F.);
#269=ORIENTED_EDGE('',*,*,#200,.F.);
#270=ORIENTED_EDGE('',*,*,#192,.T.);
#271=ORIENTED_EDGE('',*,*,#204,.T.);
#272=ORIENTED_EDGE('',*,*,#201,.T.);
#273=ORIENTED_EDGE('',*,*,#209,.T.);
#274=ORIENTED_EDGE('',*,*,#171,.T.);
#275=ORIENTED_EDGE('',*,*,#174,.T.);
#276=ORIENTED_EDGE('',*,*,#177,.T.);
#277=ORIENTED_EDGE('',*,*,#180,.T.);
#278=ORIENTED_EDGE('',*,*,#183,.T.);
#279=ORIENTED_EDGE('',*,*,#208,.T.);
#280=ORIENTED_EDGE('',*,*,#199,.T.);
#281=ORIENTED_EDGE('',*,*,#203,.T.);
#282=ORIENTED_EDGE('',*,*,#206,.T.);
#283=ORIENTED_EDGE('',*,*,#173,.T.);
#284=ORIENTED_EDGE('',*,*,#176,.T.);
#285=ORIENTED_EDGE('',*,*,#179,.T.);
#286=ORIENTED_EDGE('',*,*,#182,.T.);
#287=ORIENTED_EDGE('',*,*,#185,.T.);
#288=CYLINDRICAL_SURFACE('',#324,11.5);
#289=CYLINDRICAL_SURFACE('',#327,1.75);
#290=CYLINDRICAL_SURFACE('',#330,1.75);
#291=CYLINDRICAL_SURFACE('',#333,1.75);
#292=CYLINDRICAL_SURFACE('',#336,1.75);
#293=CYLINDRICAL_SURFACE('',#339,2.75);
#294=CYLINDRICAL_SURFACE('',#342,2.75);
#295=ADVANCED_FACE('',(#37),#288,.F.);
#296=ADVANCED_FACE('',(#38),#289,.F.);
#297=ADVANCED_FACE('',(#39),#290,.F.);
#298=ADVANCED_FACE('',(#40),#291,.F.);
#299=ADVANCED_FACE('',(#41),#292,.F.);
#300=ADVANCED_FACE('',(#42),#293,.F.);
#301=ADVANCED_FACE('',(#43),#294,.F.);
#302=ADVANCED_FACE('',(#44,#15,#16),#29,.T.);
#303=ADVANCED_FACE('',(#45),#30,.T.);
#304=ADVANCED_FACE('',(#46),#31,.T.);
#305=ADVANCED_FACE('',(#47),#32,.T.);
#306=ADVANCED_FACE('',(#48,#17,#18),#33,.T.);
#307=ADVANCED_FACE('',(#49),#34,.T.);
#308=ADVANCED_FACE('',(#50,#19,#20,#21,#22,#23),#35,.T.);
#309=ADVANCED_FACE('',(#51,#24,#25,#26,#27,#28),#36,.F.);
#310=CLOSED_SHELL('',(#295,#296,#297,#298,#299,#300,#301,#302,#303,#304,
#305,#306,#307,#308,#309));
#311=DERIVED_UNIT_ELEMENT(#313,1.);
#312=DERIVED_UNIT_ELEMENT(#524,-3.);
#313=(
MASS_UNIT()
NAMED_UNIT(*)
SI_UNIT(.KILO.,.GRAM.)
);
#314=DERIVED_UNIT((#311,#312));
#315=MEASURE_REPRESENTATION_ITEM('density measure',
POSITIVE_RATIO_MEASURE(7850.),#314);
#316=PROPERTY_DEFINITION_REPRESENTATION(#321,#318);
#317=PROPERTY_DEFINITION_REPRESENTATION(#322,#319);
#318=REPRESENTATION('material name',(#320),#521);
#319=REPRESENTATION('density',(#315),#521);
#320=DESCRIPTIVE_REPRESENTATION_ITEM('Steel','Steel');
#321=PROPERTY_DEFINITION('material property','material name',#531);
#322=PROPERTY_DEFINITION('material property','density of part',#531);
#323=AXIS2_PLACEMENT_3D('',#438,#353,#354);
#324=AXIS2_PLACEMENT_3D('',#439,#355,#356);
#325=AXIS2_PLACEMENT_3D('',#441,#357,#358);
#326=AXIS2_PLACEMENT_3D('',#444,#360,#361);
#327=AXIS2_PLACEMENT_3D('',#445,#362,#363);
#328=AXIS2_PLACEMENT_3D('',#447,#364,#365);
#329=AXIS2_PLACEMENT_3D('',#450,#367,#368);
#330=AXIS2_PLACEMENT_3D('',#451,#369,#370);
#331=AXIS2_PLACEMENT_3D('',#453,#371,#372);
#332=AXIS2_PLACEMENT_3D('',#456,#374,#375);
#333=AXIS2_PLACEMENT_3D('',#457,#376,#377);
#334=AXIS2_PLACEMENT_3D('',#459,#378,#379);
#335=AXIS2_PLACEMENT_3D('',#462,#381,#382);
#336=AXIS2_PLACEMENT_3D('',#463,#383,#384);
#337=AXIS2_PLACEMENT_3D('',#465,#385,#386);
#338=AXIS2_PLACEMENT_3D('',#468,#388,#389);
#339=AXIS2_PLACEMENT_3D('',#469,#390,#391);
#340=AXIS2_PLACEMENT_3D('',#471,#392,#393);
#341=AXIS2_PLACEMENT_3D('',#474,#395,#396);
#342=AXIS2_PLACEMENT_3D('',#475,#397,#398);
#343=AXIS2_PLACEMENT_3D('',#477,#399,#400);
#344=AXIS2_PLACEMENT_3D('',#480,#402,#403);
#345=AXIS2_PLACEMENT_3D('',#481,#404,#405);
#346=AXIS2_PLACEMENT_3D('',#490,#410,#411);
#347=AXIS2_PLACEMENT_3D('',#496,#415,#416);
#348=AXIS2_PLACEMENT_3D('',#505,#421,#422);
#349=AXIS2_PLACEMENT_3D('',#510,#426,#427);
#350=AXIS2_PLACEMENT_3D('',#514,#430,#431);
#351=AXIS2_PLACEMENT_3D('',#517,#434,#435);
#352=AXIS2_PLACEMENT_3D('',#518,#436,#437);
#353=DIRECTION('axis',(0.,0.,1.));
#354=DIRECTION('refdir',(1.,0.,0.));
#355=DIRECTION('center_axis',(0.,0.,-1.));
#356=DIRECTION('ref_axis',(-1.,0.,0.));
#357=DIRECTION('center_axis',(0.,0.,-1.));
#358=DIRECTION('ref_axis',(-1.,0.,0.));
#359=DIRECTION('',(0.,0.,-1.));
#360=DIRECTION('center_axis',(0.,0.,1.));
#361=DIRECTION('ref_axis',(-1.,0.,0.));
#362=DIRECTION('center_axis',(0.,0.,-1.));
#363=DIRECTION('ref_axis',(-1.,0.,0.));
#364=DIRECTION('center_axis',(0.,0.,-1.));
#365=DIRECTION('ref_axis',(-1.,0.,0.));
#366=DIRECTION('',(0.,0.,-1.));
#367=DIRECTION('center_axis',(0.,0.,1.));
#368=DIRECTION('ref_axis',(-1.,0.,0.));
#369=DIRECTION('center_axis',(0.,0.,-1.));
#370=DIRECTION('ref_axis',(-1.,0.,0.));
#371=DIRECTION('center_axis',(0.,0.,-1.));
#372=DIRECTION('ref_axis',(-1.,0.,0.));
#373=DIRECTION('',(0.,0.,-1.));
#374=DIRECTION('center_axis',(0.,0.,1.));
#375=DIRECTION('ref_axis',(-1.,0.,0.));
#376=DIRECTION('center_axis',(0.,0.,-1.));
#377=DIRECTION('ref_axis',(-1.,0.,0.));
#378=DIRECTION('center_axis',(0.,0.,-1.));
#379=DIRECTION('ref_axis',(-1.,0.,0.));
#380=DIRECTION('',(0.,0.,-1.));
#381=DIRECTION('center_axis',(0.,0.,1.));
#382=DIRECTION('ref_axis',(-1.,0.,0.));
#383=DIRECTION('center_axis',(0.,0.,-1.));
#384=DIRECTION('ref_axis',(-1.,0.,0.));
#385=DIRECTION('center_axis',(0.,0.,-1.));
#386=DIRECTION('ref_axis',(-1.,0.,0.));
#387=DIRECTION('',(0.,0.,-1.));
#388=DIRECTION('center_axis',(0.,0.,1.));
#389=DIRECTION('ref_axis',(-1.,0.,0.));
#390=DIRECTION('center_axis',(-1.,0.,0.));
#391=DIRECTION('ref_axis',(0.,1.,0.));
#392=DIRECTION('center_axis',(-1.,0.,0.));
#393=DIRECTION('ref_axis',(0.,1.,0.));
#394=DIRECTION('',(-1.,0.,0.));
#395=DIRECTION('center_axis',(1.,0.,0.));
#396=DIRECTION('ref_axis',(0.,1.,0.));
#397=DIRECTION('center_axis',(-1.,0.,0.));
#398=DIRECTION('ref_axis',(0.,1.,0.));
#399=DIRECTION('center_axis',(-1.,0.,0.));
#400=DIRECTION('ref_axis',(0.,1.,0.));
#401=DIRECTION('',(-1.,0.,0.));
#402=DIRECTION('center_axis',(1.,0.,0.));
#403=DIRECTION('ref_axis',(0.,1.,0.));
#404=DIRECTION('center_axis',(-1.,0.,0.));
#405=DIRECTION('ref_axis',(0.,-1.,0.));
#406=DIRECTION('',(0.,1.,0.));
#407=DIRECTION('',(0.,0.,1.));
#408=DIRECTION('',(0.,-1.,0.));
#409=DIRECTION('',(0.,0.,1.));
#410=DIRECTION('center_axis',(0.,0.,1.));
#411=DIRECTION('ref_axis',(1.,0.,0.));
#412=DIRECTION('',(6.93889390390723E-17,1.,0.));
#413=DIRECTION('',(-1.,0.,0.));
#414=DIRECTION('',(1.,0.,0.));
#415=DIRECTION('center_axis',(-1.,1.38777878078145E-16,0.));
#416=DIRECTION('ref_axis',(-1.38777878078145E-16,-1.,0.));
#417=DIRECTION('',(1.38777878078145E-16,1.,0.));
#418=DIRECTION('',(0.,0.,1.));
#419=DIRECTION('',(-1.38777878078145E-16,-1.,0.));
#420=DIRECTION('',(0.,0.,1.));
#421=DIRECTION('center_axis',(0.,1.,0.));
#422=DIRECTION('ref_axis',(-1.,0.,0.));
#423=DIRECTION('',(1.,0.,0.));
#424=DIRECTION('',(-1.,0.,0.));
#425=DIRECTION('',(0.,0.,1.));
#426=DIRECTION('center_axis',(1.,0.,0.));
#427=DIRECTION('ref_axis',(0.,1.,0.));
#428=DIRECTION('',(0.,-1.,0.));
#429=DIRECTION('',(0.,0.,1.));
#430=DIRECTION('center_axis',(0.,-1.,0.));
#431=DIRECTION('ref_axis',(1.,0.,0.));
#432=DIRECTION('',(-1.,0.,0.));
#433=DIRECTION('',(1.,0.,0.));
#434=DIRECTION('center_axis',(0.,0.,1.));
#435=DIRECTION('ref_axis',(1.,0.,0.));
#436=DIRECTION('center_axis',(0.,0.,1.));
#437=DIRECTION('ref_axis',(-1.,0.,0.));
#438=CARTESIAN_POINT('',(0.,0.,0.));
#439=CARTESIAN_POINT('Origin',(-30.,96.,184.));
#440=CARTESIAN_POINT('',(-18.5,96.,184.));
#441=CARTESIAN_POINT('Origin',(-30.,96.,184.));
#442=CARTESIAN_POINT('',(-18.5,96.,172.));
#443=CARTESIAN_POINT('',(-18.5,96.,184.));
#444=CARTESIAN_POINT('Origin',(-30.,96.,172.));
#445=CARTESIAN_POINT('Origin',(-45.5,111.5,184.));
#446=CARTESIAN_POINT('',(-43.75,111.5,184.));
#447=CARTESIAN_POINT('Origin',(-45.5,111.5,184.));
#448=CARTESIAN_POINT('',(-43.75,111.5,172.));
#449=CARTESIAN_POINT('',(-43.75,111.5,184.));
#450=CARTESIAN_POINT('Origin',(-45.5,111.5,172.));
#451=CARTESIAN_POINT('Origin',(-45.5,80.5,184.));
#452=CARTESIAN_POINT('',(-43.75,80.5,184.));
#453=CARTESIAN_POINT('Origin',(-45.5,80.5,184.));
#454=CARTESIAN_POINT('',(-43.75,80.5,172.));
#455=CARTESIAN_POINT('',(-43.75,80.5,184.));
#456=CARTESIAN_POINT('Origin',(-45.5,80.5,172.));
#457=CARTESIAN_POINT('Origin',(-14.5,111.5,184.));
#458=CARTESIAN_POINT('',(-12.75,111.5,184.));
#459=CARTESIAN_POINT('Origin',(-14.5,111.5,184.));
#460=CARTESIAN_POINT('',(-12.75,111.5,172.));
#461=CARTESIAN_POINT('',(-12.75,111.5,184.));
#462=CARTESIAN_POINT('Origin',(-14.5,111.5,172.));
#463=CARTESIAN_POINT('Origin',(-14.5,80.5,184.));
#464=CARTESIAN_POINT('',(-12.75,80.5,184.));
#465=CARTESIAN_POINT('Origin',(-14.5,80.5,184.));
#466=CARTESIAN_POINT('',(-12.75,80.5,172.));
#467=CARTESIAN_POINT('',(-12.75,80.5,184.));
#468=CARTESIAN_POINT('Origin',(-14.5,80.5,172.));
#469=CARTESIAN_POINT('Origin',(21.,81.4,189.5));
#470=CARTESIAN_POINT('',(21.,78.65,189.5));
#471=CARTESIAN_POINT('Origin',(21.,81.4,189.5));
#472=CARTESIAN_POINT('',(3.00000000000003,78.65,189.5));
#473=CARTESIAN_POINT('',(21.,78.65,189.5));
#474=CARTESIAN_POINT('Origin',(3.00000000000003,81.4,189.5));
#475=CARTESIAN_POINT('Origin',(21.,110.6,189.5));
#476=CARTESIAN_POINT('',(21.,107.85,189.5));
#477=CARTESIAN_POINT('Origin',(21.,110.6,189.5));
#478=CARTESIAN_POINT('',(3.00000000000003,107.85,189.5));
#479=CARTESIAN_POINT('',(21.,107.85,189.5));
#480=CARTESIAN_POINT('Origin',(3.00000000000003,110.6,189.5));
#481=CARTESIAN_POINT('Origin',(3.00000000000003,128.,184.));
#482=CARTESIAN_POINT('',(3.00000000000003,64.,184.));
#483=CARTESIAN_POINT('',(3.00000000000003,128.,184.));
#484=CARTESIAN_POINT('',(3.00000000000003,112.,184.));
#485=CARTESIAN_POINT('',(3.00000000000003,64.,202.));
#486=CARTESIAN_POINT('',(3.00000000000003,64.,184.));
#487=CARTESIAN_POINT('',(3.00000000000003,128.,202.));
#488=CARTESIAN_POINT('',(3.00000000000003,128.,202.));
#489=CARTESIAN_POINT('',(3.00000000000003,128.,184.));
#490=CARTESIAN_POINT('Origin',(12.,96.,202.));
#491=CARTESIAN_POINT('',(21.,64.,202.));
#492=CARTESIAN_POINT('',(21.,128.,202.));
#493=CARTESIAN_POINT('',(21.,64.,202.));
#494=CARTESIAN_POINT('',(21.,128.,202.));
#495=CARTESIAN_POINT('',(3.00000000000003,64.,202.));
#496=CARTESIAN_POINT('Origin',(-75.,128.,172.));
#497=CARTESIAN_POINT('',(-75.,64.,172.));
#498=CARTESIAN_POINT('',(-75.,128.,172.));
#499=CARTESIAN_POINT('',(-75.,64.,172.));
#500=CARTESIAN_POINT('',(-75.,64.,184.));
#501=CARTESIAN_POINT('',(-75.,64.,172.));
#502=CARTESIAN_POINT('',(-75.,128.,184.));
#503=CARTESIAN_POINT('',(-75.,64.,184.));
#504=CARTESIAN_POINT('',(-75.,128.,172.));
#505=CARTESIAN_POINT('Origin',(21.,128.,172.));
#506=CARTESIAN_POINT('',(21.,128.,172.));
#507=CARTESIAN_POINT('',(-75.,128.,172.));
#508=CARTESIAN_POINT('',(-75.,128.,184.));
#509=CARTESIAN_POINT('',(21.,128.,172.));
#510=CARTESIAN_POINT('Origin',(21.,64.,172.));
#511=CARTESIAN_POINT('',(21.,64.,172.));
#512=CARTESIAN_POINT('',(21.,128.,172.));
#513=CARTESIAN_POINT('',(21.,64.,172.));
#514=CARTESIAN_POINT('Origin',(-75.,64.,172.));
#515=CARTESIAN_POINT('',(21.,64.,172.));
#516=CARTESIAN_POINT('',(21.,64.,184.));
#517=CARTESIAN_POINT('Origin',(-27.,96.,184.));
#518=CARTESIAN_POINT('Origin',(-27.,96.,172.));
#519=UNCERTAINTY_MEASURE_WITH_UNIT(LENGTH_MEASURE(0.01),#523,
'DISTANCE_ACCURACY_VALUE',
'Maximum model space distance between geometric entities at asserted c
onnectivities');
#520=UNCERTAINTY_MEASURE_WITH_UNIT(LENGTH_MEASURE(0.01),#523,
'DISTANCE_ACCURACY_VALUE',
'Maximum model space distance between geometric entities at asserted c
onnectivities');
#521=(
GEOMETRIC_REPRESENTATION_CONTEXT(3)
GLOBAL_UNCERTAINTY_ASSIGNED_CONTEXT((#519))
GLOBAL_UNIT_ASSIGNED_CONTEXT((#523,#525,#526))
REPRESENTATION_CONTEXT('','3D')
);
#522=(
GEOMETRIC_REPRESENTATION_CONTEXT(3)
GLOBAL_UNCERTAINTY_ASSIGNED_CONTEXT((#520))
GLOBAL_UNIT_ASSIGNED_CONTEXT((#523,#525,#526))
REPRESENTATION_CONTEXT('','3D')
);
#523=(
LENGTH_UNIT()
NAMED_UNIT(*)
SI_UNIT(.MILLI.,.METRE.)
);
#524=(
LENGTH_UNIT()
NAMED_UNIT(*)
SI_UNIT($,.METRE.)
);
#525=(
NAMED_UNIT(*)
PLANE_ANGLE_UNIT()
SI_UNIT($,.RADIAN.)
);
#526=(
NAMED_UNIT(*)
SI_UNIT($,.STERADIAN.)
SOLID_ANGLE_UNIT()
);
#527=SHAPE_DEFINITION_REPRESENTATION(#528,#529);
#528=PRODUCT_DEFINITION_SHAPE('',$,#531);
#529=SHAPE_REPRESENTATION('',(#323),#521);
#530=PRODUCT_DEFINITION_CONTEXT('part definition',#535,'design');
#531=PRODUCT_DEFINITION('MOUNTING PLATE','MOUNTING PLATE',#532,#530);
#532=PRODUCT_DEFINITION_FORMATION('',$,#537);
#533=PRODUCT_RELATED_PRODUCT_CATEGORY('MOUNTING PLATE','MOUNTING PLATE',
(#537));
#534=APPLICATION_PROTOCOL_DEFINITION('international standard',
'automotive_design',2009,#535);
#535=APPLICATION_CONTEXT(
'Core Data for Automotive Mechanical Design Process');
#536=PRODUCT_CONTEXT('part definition',#535,'mechanical');
#537=PRODUCT('MOUNTING PLATE','MOUNTING PLATE',$,(#536));
#538=PRESENTATION_STYLE_ASSIGNMENT((#540));
#539=PRESENTATION_STYLE_ASSIGNMENT((#541));
#540=SURFACE_STYLE_USAGE(.BOTH.,#542);
#541=SURFACE_STYLE_USAGE(.BOTH.,#543);
#542=SURFACE_SIDE_STYLE('',(#544));
#543=SURFACE_SIDE_STYLE('',(#545));
#544=SURFACE_STYLE_FILL_AREA(#546);
#545=SURFACE_STYLE_FILL_AREA(#547);
#546=FILL_AREA_STYLE('Steel - Satin',(#548));
#547=FILL_AREA_STYLE('Opaque(196,53,39)',(#549));
#548=FILL_AREA_STYLE_COLOUR('Steel - Satin',#550);
#549=FILL_AREA_STYLE_COLOUR('Opaque(196,53,39)',#551);
#550=COLOUR_RGB('Steel - Satin',0.627450980392157,0.627450980392157,0.627450980392157);
#551=COLOUR_RGB('Opaque(196,53,39)',0.768627450980392,0.207843137254902,
0.152941176470588);
ENDSEC;
END-ISO-10303-21;
