ISO-10303-21;
HEADER;
/* Generated by software containing ST-Developer
 * from STEP Tools, Inc. (www.steptools.com) 
 */

FILE_DESCRIPTION(
/* description */ ('STEP AP242 Edition 2'),
/* implementation_level */ '2;1');

FILE_NAME(
/* name */ 'X axis Limit Switch Holder.step',
/* time_stamp */ '2026-09-15T02:53:13+08:00',
/* author */ (''),
/* organization */ (''),
/* preprocessor_version */ 'ST-DEVELOPER v20.1',
/* originating_system */ 'Autodesk Translation Framework v15.8.0.0',
/* authorisation */ '');

FILE_SCHEMA (('AUTOMOTIVE_DESIGN { 1 0 10303 214 3 1 1 }'));
ENDSEC;

DATA;
#10=MECHANICAL_DESIGN_GEOMETRIC_PRESENTATION_REPRESENTATION('',(#13),#2180);
#11=SHAPE_REPRESENTATION_RELATIONSHIP('SRR','None',#2186,#12);
#12=ADVANCED_BREP_SHAPE_REPRESENTATION('',(#14),#2179);
#13=STYLED_ITEM('',(#2196),#14);
#14=MANIFOLD_SOLID_BREP('Body1',#1346);
#15=LINE('',#1808,#178);
#16=LINE('',#1814,#179);
#17=LINE('',#1824,#180);
#18=LINE('',#1826,#181);
#19=LINE('',#1828,#182);
#20=LINE('',#1830,#183);
#21=LINE('',#1832,#184);
#22=LINE('',#1833,#185);
#23=LINE('',#1836,#186);
#24=LINE('',#1841,#187);
#25=LINE('',#1843,#188);
#26=LINE('',#1845,#189);
#27=LINE('',#1847,#190);
#28=LINE('',#1849,#191);
#29=LINE('',#1850,#192);
#30=LINE('',#1854,#193);
#31=LINE('',#1858,#194);
#32=LINE('',#1861,#195);
#33=LINE('',#1863,#196);
#34=LINE('',#1865,#197);
#35=LINE('',#1866,#198);
#36=LINE('',#1869,#199);
#37=LINE('',#1870,#200);
#38=LINE('',#1873,#201);
#39=LINE('',#1875,#202);
#40=LINE('',#1876,#203);
#41=LINE('',#1879,#204);
#42=LINE('',#1881,#205);
#43=LINE('',#1882,#206);
#44=LINE('',#1886,#207);
#45=LINE('',#1887,#208);
#46=LINE('',#1888,#209);
#47=LINE('',#1891,#210);
#48=LINE('',#1893,#211);
#49=LINE('',#1894,#212);
#50=LINE('',#1897,#213);
#51=LINE('',#1901,#214);
#52=LINE('',#1903,#215);
#53=LINE('',#1905,#216);
#54=LINE('',#1909,#217);
#55=LINE('',#1911,#218);
#56=LINE('',#1913,#219);
#57=LINE('',#1915,#220);
#58=LINE('',#1917,#221);
#59=LINE('',#1919,#222);
#60=LINE('',#1921,#223);
#61=LINE('',#1923,#224);
#62=LINE('',#1924,#225);
#63=LINE('',#1929,#226);
#64=LINE('',#1931,#227);
#65=LINE('',#1933,#228);
#66=LINE('',#1935,#229);
#67=LINE('',#1937,#230);
#68=LINE('',#1938,#231);
#69=LINE('',#1940,#232);
#70=LINE('',#1942,#233);
#71=LINE('',#1944,#234);
#72=LINE('',#1946,#235);
#73=LINE('',#1948,#236);
#74=LINE('',#1950,#237);
#75=LINE('',#1952,#238);
#76=LINE('',#1953,#239);
#77=LINE('',#1956,#240);
#78=LINE('',#1957,#241);
#79=LINE('',#1962,#242);
#80=LINE('',#1964,#243);
#81=LINE('',#1966,#244);
#82=LINE('',#1968,#245);
#83=LINE('',#1970,#246);
#84=LINE('',#1972,#247);
#85=LINE('',#1976,#248);
#86=LINE('',#1978,#249);
#87=LINE('',#1979,#250);
#88=LINE('',#1982,#251);
#89=LINE('',#1984,#252);
#90=LINE('',#1986,#253);
#91=LINE('',#1988,#254);
#92=LINE('',#1990,#255);
#93=LINE('',#1991,#256);
#94=LINE('',#1994,#257);
#95=LINE('',#1995,#258);
#96=LINE('',#1998,#259);
#97=LINE('',#1999,#260);
#98=LINE('',#2002,#261);
#99=LINE('',#2003,#262);
#100=LINE('',#2006,#263);
#101=LINE('',#2007,#264);
#102=LINE('',#2010,#265);
#103=LINE('',#2011,#266);
#104=LINE('',#2014,#267);
#105=LINE('',#2015,#268);
#106=LINE('',#2017,#269);
#107=LINE('',#2019,#270);
#108=LINE('',#2021,#271);
#109=LINE('',#2023,#272);
#110=LINE('',#2024,#273);
#111=LINE('',#2027,#274);
#112=LINE('',#2028,#275);
#113=LINE('',#2030,#276);
#114=LINE('',#2031,#277);
#115=LINE('',#2034,#278);
#116=LINE('',#2036,#279);
#117=LINE('',#2037,#280);
#118=LINE('',#2040,#281);
#119=LINE('',#2042,#282);
#120=LINE('',#2043,#283);
#121=LINE('',#2045,#284);
#122=LINE('',#2047,#285);
#123=LINE('',#2049,#286);
#124=LINE('',#2050,#287);
#125=LINE('',#2056,#288);
#126=LINE('',#2057,#289);
#127=LINE('',#2060,#290);
#128=LINE('',#2061,#291);
#129=LINE('',#2064,#292);
#130=LINE('',#2066,#293);
#131=LINE('',#2067,#294);
#132=LINE('',#2069,#295);
#133=LINE('',#2070,#296);
#134=LINE('',#2072,#297);
#135=LINE('',#2074,#298);
#136=LINE('',#2076,#299);
#137=LINE('',#2078,#300);
#138=LINE('',#2080,#301);
#139=LINE('',#2081,#302);
#140=LINE('',#2083,#303);
#141=LINE('',#2084,#304);
#142=LINE('',#2086,#305);
#143=LINE('',#2090,#306);
#144=LINE('',#2092,#307);
#145=LINE('',#2094,#308);
#146=LINE('',#2095,#309);
#147=LINE('',#2099,#310);
#148=LINE('',#2101,#311);
#149=LINE('',#2103,#312);
#150=LINE('',#2105,#313);
#151=LINE('',#2107,#314);
#152=LINE('',#2108,#315);
#153=LINE('',#2114,#316);
#154=LINE('',#2115,#317);
#155=LINE('',#2118,#318);
#156=LINE('',#2120,#319);
#157=LINE('',#2121,#320);
#158=LINE('',#2126,#321);
#159=LINE('',#2131,#322);
#160=LINE('',#2134,#323);
#161=LINE('',#2135,#324);
#162=LINE('',#2137,#325);
#163=LINE('',#2139,#326);
#164=LINE('',#2141,#327);
#165=LINE('',#2142,#328);
#166=LINE('',#2145,#329);
#167=LINE('',#2146,#330);
#168=LINE('',#2148,#331);
#169=LINE('',#2150,#332);
#170=LINE('',#2151,#333);
#171=LINE('',#2154,#334);
#172=LINE('',#2158,#335);
#173=LINE('',#2159,#336);
#174=LINE('',#2161,#337);
#175=LINE('',#2164,#338);
#176=LINE('',#2169,#339);
#177=LINE('',#2174,#340);
#178=VECTOR('',#1463,0.001425);
#179=VECTOR('',#1470,0.001425);
#180=VECTOR('',#1481,1.);
#181=VECTOR('',#1482,1.);
#182=VECTOR('',#1483,1.);
#183=VECTOR('',#1484,1.);
#184=VECTOR('',#1485,1.);
#185=VECTOR('',#1486,1.);
#186=VECTOR('',#1489,0.003);
#187=VECTOR('',#1494,1.);
#188=VECTOR('',#1495,1.);
#189=VECTOR('',#1496,1.);
#190=VECTOR('',#1497,1.);
#191=VECTOR('',#1498,1.);
#192=VECTOR('',#1499,1.);
#193=VECTOR('',#1504,0.003);
#194=VECTOR('',#1509,0.0015);
#195=VECTOR('',#1512,1.);
#196=VECTOR('',#1513,1.);
#197=VECTOR('',#1514,1.);
#198=VECTOR('',#1515,1.);
#199=VECTOR('',#1518,1.);
#200=VECTOR('',#1519,1.);
#201=VECTOR('',#1522,1.);
#202=VECTOR('',#1523,1.);
#203=VECTOR('',#1524,1.);
#204=VECTOR('',#1527,1.);
#205=VECTOR('',#1528,1.);
#206=VECTOR('',#1529,1.);
#207=VECTOR('',#1532,1.);
#208=VECTOR('',#1533,1.);
#209=VECTOR('',#1534,1.);
#210=VECTOR('',#1537,1.);
#211=VECTOR('',#1538,1.);
#212=VECTOR('',#1539,1.);
#213=VECTOR('',#1542,0.0015);
#214=VECTOR('',#1547,1.);
#215=VECTOR('',#1548,1.);
#216=VECTOR('',#1549,1.);
#217=VECTOR('',#1552,1.);
#218=VECTOR('',#1553,1.);
#219=VECTOR('',#1554,1.);
#220=VECTOR('',#1555,1.);
#221=VECTOR('',#1556,1.);
#222=VECTOR('',#1557,1.);
#223=VECTOR('',#1558,1.);
#224=VECTOR('',#1559,1.);
#225=VECTOR('',#1560,1.);
#226=VECTOR('',#1565,1.);
#227=VECTOR('',#1566,1.);
#228=VECTOR('',#1567,1.);
#229=VECTOR('',#1568,1.);
#230=VECTOR('',#1569,1.);
#231=VECTOR('',#1570,1.);
#232=VECTOR('',#1571,1.);
#233=VECTOR('',#1572,1.);
#234=VECTOR('',#1573,1.);
#235=VECTOR('',#1574,1.);
#236=VECTOR('',#1575,1.);
#237=VECTOR('',#1576,1.);
#238=VECTOR('',#1577,1.);
#239=VECTOR('',#1578,1.);
#240=VECTOR('',#1581,1.);
#241=VECTOR('',#1582,1.);
#242=VECTOR('',#1587,1.);
#243=VECTOR('',#1588,1.);
#244=VECTOR('',#1589,1.);
#245=VECTOR('',#1590,1.);
#246=VECTOR('',#1591,1.);
#247=VECTOR('',#1592,1.);
#248=VECTOR('',#1595,1.);
#249=VECTOR('',#1596,1.);
#250=VECTOR('',#1597,1.);
#251=VECTOR('',#1600,1.);
#252=VECTOR('',#1601,1.);
#253=VECTOR('',#1602,1.);
#254=VECTOR('',#1603,1.);
#255=VECTOR('',#1604,1.);
#256=VECTOR('',#1605,1.);
#257=VECTOR('',#1608,1.);
#258=VECTOR('',#1609,1.);
#259=VECTOR('',#1612,1.);
#260=VECTOR('',#1613,1.);
#261=VECTOR('',#1616,1.);
#262=VECTOR('',#1617,1.);
#263=VECTOR('',#1620,1.);
#264=VECTOR('',#1621,1.);
#265=VECTOR('',#1624,1.);
#266=VECTOR('',#1625,1.);
#267=VECTOR('',#1628,1.);
#268=VECTOR('',#1629,1.);
#269=VECTOR('',#1632,1.);
#270=VECTOR('',#1635,1.);
#271=VECTOR('',#1636,1.);
#272=VECTOR('',#1637,1.);
#273=VECTOR('',#1638,1.);
#274=VECTOR('',#1641,1.);
#275=VECTOR('',#1642,1.);
#276=VECTOR('',#1643,1.);
#277=VECTOR('',#1644,1.);
#278=VECTOR('',#1647,1.);
#279=VECTOR('',#1648,1.);
#280=VECTOR('',#1649,1.);
#281=VECTOR('',#1652,1.);
#282=VECTOR('',#1653,1.);
#283=VECTOR('',#1654,1.);
#284=VECTOR('',#1655,1.);
#285=VECTOR('',#1656,1.);
#286=VECTOR('',#1657,1.);
#287=VECTOR('',#1658,1.);
#288=VECTOR('',#1665,1.);
#289=VECTOR('',#1666,1.);
#290=VECTOR('',#1669,1.);
#291=VECTOR('',#1670,1.);
#292=VECTOR('',#1673,1.);
#293=VECTOR('',#1674,1.);
#294=VECTOR('',#1675,1.);
#295=VECTOR('',#1678,1.);
#296=VECTOR('',#1679,1.);
#297=VECTOR('',#1682,1.);
#298=VECTOR('',#1685,1.);
#299=VECTOR('',#1688,1.);
#300=VECTOR('',#1691,1.);
#301=VECTOR('',#1692,1.);
#302=VECTOR('',#1693,1.);
#303=VECTOR('',#1696,1.);
#304=VECTOR('',#1697,1.);
#305=VECTOR('',#1700,1.);
#306=VECTOR('',#1703,1.);
#307=VECTOR('',#1704,1.);
#308=VECTOR('',#1705,1.);
#309=VECTOR('',#1706,1.);
#310=VECTOR('',#1709,1.);
#311=VECTOR('',#1710,1.);
#312=VECTOR('',#1711,1.);
#313=VECTOR('',#1712,1.);
#314=VECTOR('',#1713,1.);
#315=VECTOR('',#1714,1.);
#316=VECTOR('',#1721,1.);
#317=VECTOR('',#1722,1.);
#318=VECTOR('',#1725,1.);
#319=VECTOR('',#1726,1.);
#320=VECTOR('',#1727,1.);
#321=VECTOR('',#1734,0.00095);
#322=VECTOR('',#1741,0.000903132849337399);
#323=VECTOR('',#1746,1.);
#324=VECTOR('',#1747,1.);
#325=VECTOR('',#1748,1.);
#326=VECTOR('',#1749,1.);
#327=VECTOR('',#1750,1.);
#328=VECTOR('',#1751,1.);
#329=VECTOR('',#1754,1.);
#330=VECTOR('',#1755,1.);
#331=VECTOR('',#1758,1.);
#332=VECTOR('',#1759,1.);
#333=VECTOR('',#1760,1.);
#334=VECTOR('',#1765,1.);
#335=VECTOR('',#1770,1.);
#336=VECTOR('',#1771,1.);
#337=VECTOR('',#1774,1.);
#338=VECTOR('',#1779,1.);
#339=VECTOR('',#1786,0.003);
#340=VECTOR('',#1793,0.003);
#341=CYLINDRICAL_SURFACE('',#1363,0.001425);
#342=CYLINDRICAL_SURFACE('',#1366,0.001425);
#343=CYLINDRICAL_SURFACE('',#1373,0.003);
#344=CYLINDRICAL_SURFACE('',#1376,0.003);
#345=CYLINDRICAL_SURFACE('',#1378,0.0015);
#346=CYLINDRICAL_SURFACE('',#1386,0.0015);
#347=CYLINDRICAL_SURFACE('',#1426,0.00095);
#348=CYLINDRICAL_SURFACE('',#1429,0.000903132849337399);
#349=CYLINDRICAL_SURFACE('',#1443,0.0024031328493374);
#350=CYLINDRICAL_SURFACE('',#1445,0.003);
#351=CYLINDRICAL_SURFACE('',#1448,0.003);
#352=FACE_BOUND('',#432,.T.);
#353=FACE_BOUND('',#436,.T.);
#354=FACE_BOUND('',#444,.T.);
#355=FACE_BOUND('',#445,.T.);
#356=FACE_BOUND('',#448,.T.);
#357=FACE_BOUND('',#449,.T.);
#358=FACE_BOUND('',#454,.T.);
#359=FACE_BOUND('',#457,.T.);
#360=FACE_BOUND('',#459,.T.);
#361=FACE_BOUND('',#464,.T.);
#362=FACE_BOUND('',#473,.T.);
#363=FACE_BOUND('',#474,.T.);
#364=FACE_BOUND('',#506,.T.);
#365=FACE_BOUND('',#509,.T.);
#366=FACE_OUTER_BOUND('',#431,.T.);
#367=FACE_OUTER_BOUND('',#433,.T.);
#368=FACE_OUTER_BOUND('',#434,.T.);
#369=FACE_OUTER_BOUND('',#435,.T.);
#370=FACE_OUTER_BOUND('',#437,.T.);
#371=FACE_OUTER_BOUND('',#438,.T.);
#372=FACE_OUTER_BOUND('',#439,.T.);
#373=FACE_OUTER_BOUND('',#440,.T.);
#374=FACE_OUTER_BOUND('',#441,.T.);
#375=FACE_OUTER_BOUND('',#442,.T.);
#376=FACE_OUTER_BOUND('',#443,.T.);
#377=FACE_OUTER_BOUND('',#446,.T.);
#378=FACE_OUTER_BOUND('',#447,.T.);
#379=FACE_OUTER_BOUND('',#450,.T.);
#380=FACE_OUTER_BOUND('',#451,.T.);
#381=FACE_OUTER_BOUND('',#452,.T.);
#382=FACE_OUTER_BOUND('',#453,.T.);
#383=FACE_OUTER_BOUND('',#455,.T.);
#384=FACE_OUTER_BOUND('',#456,.T.);
#385=FACE_OUTER_BOUND('',#458,.T.);
#386=FACE_OUTER_BOUND('',#460,.T.);
#387=FACE_OUTER_BOUND('',#461,.T.);
#388=FACE_OUTER_BOUND('',#462,.T.);
#389=FACE_OUTER_BOUND('',#463,.T.);
#390=FACE_OUTER_BOUND('',#465,.T.);
#391=FACE_OUTER_BOUND('',#466,.T.);
#392=FACE_OUTER_BOUND('',#467,.T.);
#393=FACE_OUTER_BOUND('',#468,.T.);
#394=FACE_OUTER_BOUND('',#469,.T.);
#395=FACE_OUTER_BOUND('',#470,.T.);
#396=FACE_OUTER_BOUND('',#471,.T.);
#397=FACE_OUTER_BOUND('',#472,.T.);
#398=FACE_OUTER_BOUND('',#475,.T.);
#399=FACE_OUTER_BOUND('',#476,.T.);
#400=FACE_OUTER_BOUND('',#477,.T.);
#401=FACE_OUTER_BOUND('',#478,.T.);
#402=FACE_OUTER_BOUND('',#479,.T.);
#403=FACE_OUTER_BOUND('',#480,.T.);
#404=FACE_OUTER_BOUND('',#481,.T.);
#405=FACE_OUTER_BOUND('',#482,.T.);
#406=FACE_OUTER_BOUND('',#483,.T.);
#407=FACE_OUTER_BOUND('',#484,.T.);
#408=FACE_OUTER_BOUND('',#485,.T.);
#409=FACE_OUTER_BOUND('',#486,.T.);
#410=FACE_OUTER_BOUND('',#487,.T.);
#411=FACE_OUTER_BOUND('',#488,.T.);
#412=FACE_OUTER_BOUND('',#489,.T.);
#413=FACE_OUTER_BOUND('',#490,.T.);
#414=FACE_OUTER_BOUND('',#491,.T.);
#415=FACE_OUTER_BOUND('',#492,.T.);
#416=FACE_OUTER_BOUND('',#493,.T.);
#417=FACE_OUTER_BOUND('',#494,.T.);
#418=FACE_OUTER_BOUND('',#495,.T.);
#419=FACE_OUTER_BOUND('',#496,.T.);
#420=FACE_OUTER_BOUND('',#497,.T.);
#421=FACE_OUTER_BOUND('',#498,.T.);
#422=FACE_OUTER_BOUND('',#499,.T.);
#423=FACE_OUTER_BOUND('',#500,.T.);
#424=FACE_OUTER_BOUND('',#501,.T.);
#425=FACE_OUTER_BOUND('',#502,.T.);
#426=FACE_OUTER_BOUND('',#503,.T.);
#427=FACE_OUTER_BOUND('',#504,.T.);
#428=FACE_OUTER_BOUND('',#505,.T.);
#429=FACE_OUTER_BOUND('',#507,.T.);
#430=FACE_OUTER_BOUND('',#508,.T.);
#431=EDGE_LOOP('',(#849));
#432=EDGE_LOOP('',(#850));
#433=EDGE_LOOP('',(#851,#852,#853,#854));
#434=EDGE_LOOP('',(#855,#856,#857,#858));
#435=EDGE_LOOP('',(#859));
#436=EDGE_LOOP('',(#860));
#437=EDGE_LOOP('',(#861,#862,#863,#864,#865,#866));
#438=EDGE_LOOP('',(#867,#868,#869,#870));
#439=EDGE_LOOP('',(#871,#872,#873,#874,#875,#876));
#440=EDGE_LOOP('',(#877,#878,#879,#880));
#441=EDGE_LOOP('',(#881,#882,#883,#884));
#442=EDGE_LOOP('',(#885,#886,#887,#888,#889));
#443=EDGE_LOOP('',(#890,#891,#892,#893));
#444=EDGE_LOOP('',(#894));
#445=EDGE_LOOP('',(#895));
#446=EDGE_LOOP('',(#896,#897,#898,#899,#900));
#447=EDGE_LOOP('',(#901,#902,#903,#904));
#448=EDGE_LOOP('',(#905));
#449=EDGE_LOOP('',(#906));
#450=EDGE_LOOP('',(#907,#908,#909,#910,#911));
#451=EDGE_LOOP('',(#912,#913,#914,#915,#916));
#452=EDGE_LOOP('',(#917,#918,#919,#920));
#453=EDGE_LOOP('',(#921,#922,#923,#924,#925,#926,#927,#928,#929,#930,#931,
#932,#933,#934));
#454=EDGE_LOOP('',(#935));
#455=EDGE_LOOP('',(#936,#937,#938,#939,#940,#941,#942,#943,#944,#945,#946,
#947,#948,#949,#950,#951,#952,#953,#954,#955,#956));
#456=EDGE_LOOP('',(#957,#958,#959,#960));
#457=EDGE_LOOP('',(#961));
#458=EDGE_LOOP('',(#962,#963,#964,#965,#966,#967,#968,#969,#970,#971,#972,
#973));
#459=EDGE_LOOP('',(#974));
#460=EDGE_LOOP('',(#975,#976,#977,#978,#979,#980,#981,#982,#983));
#461=EDGE_LOOP('',(#984,#985,#986,#987));
#462=EDGE_LOOP('',(#988,#989,#990,#991,#992,#993));
#463=EDGE_LOOP('',(#994,#995,#996,#997));
#464=EDGE_LOOP('',(#998));
#465=EDGE_LOOP('',(#999,#1000,#1001,#1002,#1003));
#466=EDGE_LOOP('',(#1004,#1005,#1006,#1007));
#467=EDGE_LOOP('',(#1008,#1009,#1010,#1011,#1012,#1013));
#468=EDGE_LOOP('',(#1014,#1015,#1016,#1017));
#469=EDGE_LOOP('',(#1018,#1019,#1020,#1021,#1022,#1023));
#470=EDGE_LOOP('',(#1024,#1025,#1026,#1027,#1028,#1029));
#471=EDGE_LOOP('',(#1030,#1031,#1032,#1033,#1034,#1035));
#472=EDGE_LOOP('',(#1036,#1037,#1038,#1039,#1040,#1041,#1042,#1043,#1044));
#473=EDGE_LOOP('',(#1045));
#474=EDGE_LOOP('',(#1046));
#475=EDGE_LOOP('',(#1047,#1048,#1049,#1050));
#476=EDGE_LOOP('',(#1051,#1052,#1053,#1054,#1055,#1056));
#477=EDGE_LOOP('',(#1057,#1058,#1059,#1060,#1061));
#478=EDGE_LOOP('',(#1062,#1063,#1064,#1065));
#479=EDGE_LOOP('',(#1066,#1067,#1068,#1069));
#480=EDGE_LOOP('',(#1070,#1071,#1072,#1073));
#481=EDGE_LOOP('',(#1074,#1075,#1076,#1077));
#482=EDGE_LOOP('',(#1078,#1079,#1080,#1081,#1082,#1083));
#483=EDGE_LOOP('',(#1084,#1085,#1086,#1087,#1088,#1089));
#484=EDGE_LOOP('',(#1090,#1091,#1092,#1093));
#485=EDGE_LOOP('',(#1094,#1095,#1096,#1097));
#486=EDGE_LOOP('',(#1098,#1099,#1100,#1101,#1102,#1103));
#487=EDGE_LOOP('',(#1104,#1105,#1106,#1107,#1108,#1109));
#488=EDGE_LOOP('',(#1110,#1111,#1112,#1113));
#489=EDGE_LOOP('',(#1114,#1115,#1116,#1117,#1118,#1119,#1120,#1121));
#490=EDGE_LOOP('',(#1122,#1123,#1124,#1125,#1126,#1127,#1128,#1129));
#491=EDGE_LOOP('',(#1130,#1131,#1132,#1133,#1134,#1135));
#492=EDGE_LOOP('',(#1136,#1137,#1138,#1139,#1140,#1141,#1142,#1143,#1144,
#1145,#1146,#1147,#1148,#1149,#1150,#1151,#1152,#1153,#1154));
#493=EDGE_LOOP('',(#1155,#1156,#1157,#1158,#1159,#1160));
#494=EDGE_LOOP('',(#1161,#1162,#1163,#1164,#1165,#1166));
#495=EDGE_LOOP('',(#1167,#1168,#1169,#1170));
#496=EDGE_LOOP('',(#1171,#1172,#1173,#1174));
#497=EDGE_LOOP('',(#1175,#1176,#1177,#1178));
#498=EDGE_LOOP('',(#1179,#1180,#1181,#1182,#1183,#1184,#1185,#1186,#1187,
#1188,#1189,#1190,#1191,#1192,#1193,#1194));
#499=EDGE_LOOP('',(#1195,#1196,#1197,#1198));
#500=EDGE_LOOP('',(#1199,#1200,#1201,#1202));
#501=EDGE_LOOP('',(#1203,#1204,#1205,#1206));
#502=EDGE_LOOP('',(#1207,#1208,#1209,#1210));
#503=EDGE_LOOP('',(#1211,#1212,#1213,#1214));
#504=EDGE_LOOP('',(#1215,#1216,#1217,#1218));
#505=EDGE_LOOP('',(#1219));
#506=EDGE_LOOP('',(#1220));
#507=EDGE_LOOP('',(#1221,#1222,#1223,#1224));
#508=EDGE_LOOP('',(#1225));
#509=EDGE_LOOP('',(#1226));
#510=CIRCLE('',#1361,0.003);
#511=CIRCLE('',#1362,0.0015);
#512=CIRCLE('',#1364,0.001425);
#513=CIRCLE('',#1365,0.001425);
#514=CIRCLE('',#1367,0.001425);
#515=CIRCLE('',#1368,0.001425);
#516=CIRCLE('',#1370,0.003);
#517=CIRCLE('',#1371,0.0015);
#518=CIRCLE('',#1374,0.003);
#519=CIRCLE('',#1377,0.003);
#520=CIRCLE('',#1379,0.0015);
#521=CIRCLE('',#1387,0.0015);
#522=CIRCLE('',#1389,0.0024031328493374);
#523=CIRCLE('',#1390,0.003);
#524=CIRCLE('',#1393,0.003);
#525=CIRCLE('',#1395,0.0024031328493374);
#526=CIRCLE('',#1408,0.00095);
#527=CIRCLE('',#1409,0.000903132849337399);
#528=CIRCLE('',#1423,0.000903132849337399);
#529=CIRCLE('',#1424,0.00095);
#530=CIRCLE('',#1427,0.00095);
#531=CIRCLE('',#1428,0.00095);
#532=CIRCLE('',#1430,0.000903132849337399);
#533=CIRCLE('',#1431,0.000903132849337399);
#534=CIRCLE('',#1446,0.003);
#535=CIRCLE('',#1449,0.003);
#536=VERTEX_POINT('',#1800);
#537=VERTEX_POINT('',#1802);
#538=VERTEX_POINT('',#1805);
#539=VERTEX_POINT('',#1807);
#540=VERTEX_POINT('',#1811);
#541=VERTEX_POINT('',#1813);
#542=VERTEX_POINT('',#1817);
#543=VERTEX_POINT('',#1819);
#544=VERTEX_POINT('',#1822);
#545=VERTEX_POINT('',#1823);
#546=VERTEX_POINT('',#1825);
#547=VERTEX_POINT('',#1827);
#548=VERTEX_POINT('',#1829);
#549=VERTEX_POINT('',#1831);
#550=VERTEX_POINT('',#1835);
#551=VERTEX_POINT('',#1839);
#552=VERTEX_POINT('',#1840);
#553=VERTEX_POINT('',#1842);
#554=VERTEX_POINT('',#1844);
#555=VERTEX_POINT('',#1846);
#556=VERTEX_POINT('',#1848);
#557=VERTEX_POINT('',#1852);
#558=VERTEX_POINT('',#1856);
#559=VERTEX_POINT('',#1860);
#560=VERTEX_POINT('',#1862);
#561=VERTEX_POINT('',#1864);
#562=VERTEX_POINT('',#1868);
#563=VERTEX_POINT('',#1872);
#564=VERTEX_POINT('',#1874);
#565=VERTEX_POINT('',#1878);
#566=VERTEX_POINT('',#1880);
#567=VERTEX_POINT('',#1884);
#568=VERTEX_POINT('',#1885);
#569=VERTEX_POINT('',#1890);
#570=VERTEX_POINT('',#1892);
#571=VERTEX_POINT('',#1896);
#572=VERTEX_POINT('',#1900);
#573=VERTEX_POINT('',#1902);
#574=VERTEX_POINT('',#1904);
#575=VERTEX_POINT('',#1906);
#576=VERTEX_POINT('',#1908);
#577=VERTEX_POINT('',#1910);
#578=VERTEX_POINT('',#1912);
#579=VERTEX_POINT('',#1914);
#580=VERTEX_POINT('',#1916);
#581=VERTEX_POINT('',#1918);
#582=VERTEX_POINT('',#1920);
#583=VERTEX_POINT('',#1922);
#584=VERTEX_POINT('',#1925);
#585=VERTEX_POINT('',#1928);
#586=VERTEX_POINT('',#1930);
#587=VERTEX_POINT('',#1932);
#588=VERTEX_POINT('',#1934);
#589=VERTEX_POINT('',#1936);
#590=VERTEX_POINT('',#1939);
#591=VERTEX_POINT('',#1941);
#592=VERTEX_POINT('',#1943);
#593=VERTEX_POINT('',#1945);
#594=VERTEX_POINT('',#1947);
#595=VERTEX_POINT('',#1949);
#596=VERTEX_POINT('',#1951);
#597=VERTEX_POINT('',#1955);
#598=VERTEX_POINT('',#1958);
#599=VERTEX_POINT('',#1961);
#600=VERTEX_POINT('',#1963);
#601=VERTEX_POINT('',#1965);
#602=VERTEX_POINT('',#1967);
#603=VERTEX_POINT('',#1969);
#604=VERTEX_POINT('',#1971);
#605=VERTEX_POINT('',#1973);
#606=VERTEX_POINT('',#1975);
#607=VERTEX_POINT('',#1977);
#608=VERTEX_POINT('',#1981);
#609=VERTEX_POINT('',#1983);
#610=VERTEX_POINT('',#1985);
#611=VERTEX_POINT('',#1987);
#612=VERTEX_POINT('',#1989);
#613=VERTEX_POINT('',#1993);
#614=VERTEX_POINT('',#1997);
#615=VERTEX_POINT('',#2001);
#616=VERTEX_POINT('',#2005);
#617=VERTEX_POINT('',#2009);
#618=VERTEX_POINT('',#2013);
#619=VERTEX_POINT('',#2020);
#620=VERTEX_POINT('',#2022);
#621=VERTEX_POINT('',#2026);
#622=VERTEX_POINT('',#2029);
#623=VERTEX_POINT('',#2033);
#624=VERTEX_POINT('',#2035);
#625=VERTEX_POINT('',#2039);
#626=VERTEX_POINT('',#2041);
#627=VERTEX_POINT('',#2044);
#628=VERTEX_POINT('',#2046);
#629=VERTEX_POINT('',#2048);
#630=VERTEX_POINT('',#2051);
#631=VERTEX_POINT('',#2053);
#632=VERTEX_POINT('',#2059);
#633=VERTEX_POINT('',#2063);
#634=VERTEX_POINT('',#2065);
#635=VERTEX_POINT('',#2079);
#636=VERTEX_POINT('',#2088);
#637=VERTEX_POINT('',#2089);
#638=VERTEX_POINT('',#2091);
#639=VERTEX_POINT('',#2093);
#640=VERTEX_POINT('',#2097);
#641=VERTEX_POINT('',#2098);
#642=VERTEX_POINT('',#2100);
#643=VERTEX_POINT('',#2102);
#644=VERTEX_POINT('',#2104);
#645=VERTEX_POINT('',#2106);
#646=VERTEX_POINT('',#2110);
#647=VERTEX_POINT('',#2113);
#648=VERTEX_POINT('',#2117);
#649=VERTEX_POINT('',#2119);
#650=VERTEX_POINT('',#2123);
#651=VERTEX_POINT('',#2128);
#652=VERTEX_POINT('',#2136);
#653=VERTEX_POINT('',#2138);
#654=VERTEX_POINT('',#2140);
#655=VERTEX_POINT('',#2144);
#656=VERTEX_POINT('',#2149);
#657=VERTEX_POINT('',#2157);
#658=VERTEX_POINT('',#2168);
#659=VERTEX_POINT('',#2173);
#660=EDGE_CURVE('',#536,#536,#510,.T.);
#661=EDGE_CURVE('',#537,#537,#511,.T.);
#662=EDGE_CURVE('',#538,#538,#512,.T.);
#663=EDGE_CURVE('',#538,#539,#15,.T.);
#664=EDGE_CURVE('',#539,#539,#513,.T.);
#665=EDGE_CURVE('',#540,#540,#514,.T.);
#666=EDGE_CURVE('',#540,#541,#16,.T.);
#667=EDGE_CURVE('',#541,#541,#515,.T.);
#668=EDGE_CURVE('',#542,#542,#516,.T.);
#669=EDGE_CURVE('',#543,#543,#517,.T.);
#670=EDGE_CURVE('',#544,#545,#17,.T.);
#671=EDGE_CURVE('',#546,#544,#18,.T.);
#672=EDGE_CURVE('',#547,#546,#19,.T.);
#673=EDGE_CURVE('',#548,#547,#20,.T.);
#674=EDGE_CURVE('',#549,#548,#21,.T.);
#675=EDGE_CURVE('',#545,#549,#22,.T.);
#676=EDGE_CURVE('',#536,#550,#23,.T.);
#677=EDGE_CURVE('',#550,#550,#518,.T.);
#678=EDGE_CURVE('',#551,#552,#24,.T.);
#679=EDGE_CURVE('',#553,#551,#25,.T.);
#680=EDGE_CURVE('',#554,#553,#26,.T.);
#681=EDGE_CURVE('',#555,#554,#27,.T.);
#682=EDGE_CURVE('',#556,#555,#28,.T.);
#683=EDGE_CURVE('',#556,#552,#29,.T.);
#684=EDGE_CURVE('',#557,#557,#519,.T.);
#685=EDGE_CURVE('',#557,#542,#30,.T.);
#686=EDGE_CURVE('',#558,#558,#520,.T.);
#687=EDGE_CURVE('',#558,#537,#31,.T.);
#688=EDGE_CURVE('',#545,#559,#32,.T.);
#689=EDGE_CURVE('',#559,#560,#33,.T.);
#690=EDGE_CURVE('',#561,#560,#34,.T.);
#691=EDGE_CURVE('',#544,#561,#35,.T.);
#692=EDGE_CURVE('',#562,#561,#36,.T.);
#693=EDGE_CURVE('',#546,#562,#37,.T.);
#694=EDGE_CURVE('',#563,#562,#38,.T.);
#695=EDGE_CURVE('',#564,#563,#39,.T.);
#696=EDGE_CURVE('',#564,#547,#40,.T.);
#697=EDGE_CURVE('',#552,#565,#41,.T.);
#698=EDGE_CURVE('',#566,#556,#42,.T.);
#699=EDGE_CURVE('',#565,#566,#43,.T.);
#700=EDGE_CURVE('',#567,#568,#44,.T.);
#701=EDGE_CURVE('',#568,#551,#45,.T.);
#702=EDGE_CURVE('',#567,#565,#46,.T.);
#703=EDGE_CURVE('',#555,#569,#47,.T.);
#704=EDGE_CURVE('',#569,#570,#48,.T.);
#705=EDGE_CURVE('',#566,#570,#49,.T.);
#706=EDGE_CURVE('',#543,#571,#50,.T.);
#707=EDGE_CURVE('',#571,#571,#521,.T.);
#708=EDGE_CURVE('',#572,#569,#51,.T.);
#709=EDGE_CURVE('',#573,#572,#52,.T.);
#710=EDGE_CURVE('',#573,#574,#53,.T.);
#711=EDGE_CURVE('',#574,#575,#522,.T.);
#712=EDGE_CURVE('',#575,#576,#54,.T.);
#713=EDGE_CURVE('',#576,#577,#55,.T.);
#714=EDGE_CURVE('',#577,#578,#56,.T.);
#715=EDGE_CURVE('',#578,#579,#57,.T.);
#716=EDGE_CURVE('',#579,#580,#58,.T.);
#717=EDGE_CURVE('',#580,#581,#59,.T.);
#718=EDGE_CURVE('',#581,#582,#60,.T.);
#719=EDGE_CURVE('',#582,#583,#61,.T.);
#720=EDGE_CURVE('',#570,#583,#62,.T.);
#721=EDGE_CURVE('',#584,#584,#523,.F.);
#722=EDGE_CURVE('',#560,#585,#63,.T.);
#723=EDGE_CURVE('',#585,#586,#64,.T.);
#724=EDGE_CURVE('',#586,#587,#65,.T.);
#725=EDGE_CURVE('',#587,#588,#66,.T.);
#726=EDGE_CURVE('',#588,#589,#67,.T.);
#727=EDGE_CURVE('',#589,#567,#68,.T.);
#728=EDGE_CURVE('',#590,#583,#69,.T.);
#729=EDGE_CURVE('',#590,#591,#70,.T.);
#730=EDGE_CURVE('',#591,#592,#71,.T.);
#731=EDGE_CURVE('',#592,#593,#72,.T.);
#732=EDGE_CURVE('',#593,#594,#73,.T.);
#733=EDGE_CURVE('',#595,#594,#74,.T.);
#734=EDGE_CURVE('',#595,#596,#75,.T.);
#735=EDGE_CURVE('',#596,#563,#76,.T.);
#736=EDGE_CURVE('',#597,#589,#77,.T.);
#737=EDGE_CURVE('',#568,#597,#78,.T.);
#738=EDGE_CURVE('',#598,#598,#524,.F.);
#739=EDGE_CURVE('',#596,#599,#79,.T.);
#740=EDGE_CURVE('',#599,#600,#80,.T.);
#741=EDGE_CURVE('',#600,#601,#81,.T.);
#742=EDGE_CURVE('',#601,#602,#82,.T.);
#743=EDGE_CURVE('',#602,#603,#83,.T.);
#744=EDGE_CURVE('',#603,#604,#84,.T.);
#745=EDGE_CURVE('',#604,#605,#525,.T.);
#746=EDGE_CURVE('',#605,#606,#85,.T.);
#747=EDGE_CURVE('',#607,#606,#86,.T.);
#748=EDGE_CURVE('',#607,#564,#87,.T.);
#749=EDGE_CURVE('',#608,#554,#88,.T.);
#750=EDGE_CURVE('',#609,#608,#89,.T.);
#751=EDGE_CURVE('',#609,#610,#90,.T.);
#752=EDGE_CURVE('',#610,#611,#91,.T.);
#753=EDGE_CURVE('',#611,#612,#92,.T.);
#754=EDGE_CURVE('',#572,#612,#93,.T.);
#755=EDGE_CURVE('',#613,#553,#94,.T.);
#756=EDGE_CURVE('',#608,#613,#95,.T.);
#757=EDGE_CURVE('',#614,#597,#96,.T.);
#758=EDGE_CURVE('',#613,#614,#97,.T.);
#759=EDGE_CURVE('',#615,#559,#98,.T.);
#760=EDGE_CURVE('',#615,#585,#99,.T.);
#761=EDGE_CURVE('',#616,#607,#100,.T.);
#762=EDGE_CURVE('',#548,#616,#101,.T.);
#763=EDGE_CURVE('',#616,#617,#102,.T.);
#764=EDGE_CURVE('',#617,#549,#103,.T.);
#765=EDGE_CURVE('',#618,#617,#104,.T.);
#766=EDGE_CURVE('',#615,#618,#105,.T.);
#767=EDGE_CURVE('',#586,#618,#106,.T.);
#768=EDGE_CURVE('',#605,#574,#107,.T.);
#769=EDGE_CURVE('',#619,#573,#108,.T.);
#770=EDGE_CURVE('',#619,#620,#109,.T.);
#771=EDGE_CURVE('',#606,#620,#110,.T.);
#772=EDGE_CURVE('',#577,#621,#111,.T.);
#773=EDGE_CURVE('',#576,#603,#112,.T.);
#774=EDGE_CURVE('',#602,#622,#113,.T.);
#775=EDGE_CURVE('',#622,#621,#114,.T.);
#776=EDGE_CURVE('',#623,#619,#115,.T.);
#777=EDGE_CURVE('',#612,#624,#116,.T.);
#778=EDGE_CURVE('',#624,#623,#117,.T.);
#779=EDGE_CURVE('',#625,#609,#118,.T.);
#780=EDGE_CURVE('',#625,#626,#119,.T.);
#781=EDGE_CURVE('',#591,#626,#120,.T.);
#782=EDGE_CURVE('',#590,#627,#121,.T.);
#783=EDGE_CURVE('',#627,#628,#122,.T.);
#784=EDGE_CURVE('',#628,#629,#123,.T.);
#785=EDGE_CURVE('',#629,#610,#124,.T.);
#786=EDGE_CURVE('',#630,#630,#526,.T.);
#787=EDGE_CURVE('',#631,#631,#527,.T.);
#788=EDGE_CURVE('',#629,#621,#125,.T.);
#789=EDGE_CURVE('',#621,#611,#126,.T.);
#790=EDGE_CURVE('',#632,#625,#127,.T.);
#791=EDGE_CURVE('',#614,#632,#128,.T.);
#792=EDGE_CURVE('',#633,#632,#129,.T.);
#793=EDGE_CURVE('',#634,#633,#130,.T.);
#794=EDGE_CURVE('',#626,#634,#131,.T.);
#795=EDGE_CURVE('',#634,#587,#132,.T.);
#796=EDGE_CURVE('',#588,#633,#133,.T.);
#797=EDGE_CURVE('',#629,#578,#134,.T.);
#798=EDGE_CURVE('',#582,#627,#135,.T.);
#799=EDGE_CURVE('',#628,#579,#136,.T.);
#800=EDGE_CURVE('',#600,#581,#137,.T.);
#801=EDGE_CURVE('',#635,#599,#138,.T.);
#802=EDGE_CURVE('',#635,#627,#139,.T.);
#803=EDGE_CURVE('',#622,#628,#140,.T.);
#804=EDGE_CURVE('',#601,#580,#141,.T.);
#805=EDGE_CURVE('',#635,#622,#142,.T.);
#806=EDGE_CURVE('',#636,#637,#143,.T.);
#807=EDGE_CURVE('',#638,#637,#144,.T.);
#808=EDGE_CURVE('',#638,#639,#145,.T.);
#809=EDGE_CURVE('',#639,#636,#146,.T.);
#810=EDGE_CURVE('',#640,#641,#147,.T.);
#811=EDGE_CURVE('',#641,#642,#148,.T.);
#812=EDGE_CURVE('',#642,#643,#149,.T.);
#813=EDGE_CURVE('',#643,#644,#150,.T.);
#814=EDGE_CURVE('',#645,#644,#151,.T.);
#815=EDGE_CURVE('',#645,#640,#152,.T.);
#816=EDGE_CURVE('',#646,#636,#528,.T.);
#817=EDGE_CURVE('',#639,#643,#529,.T.);
#818=EDGE_CURVE('',#647,#642,#153,.T.);
#819=EDGE_CURVE('',#646,#647,#154,.T.);
#820=EDGE_CURVE('',#648,#646,#155,.T.);
#821=EDGE_CURVE('',#649,#647,#156,.T.);
#822=EDGE_CURVE('',#648,#649,#157,.T.);
#823=EDGE_CURVE('',#644,#650,#530,.T.);
#824=EDGE_CURVE('',#650,#638,#531,.T.);
#825=EDGE_CURVE('',#650,#630,#158,.T.);
#826=EDGE_CURVE('',#637,#651,#532,.T.);
#827=EDGE_CURVE('',#651,#648,#533,.T.);
#828=EDGE_CURVE('',#651,#631,#159,.T.);
#829=EDGE_CURVE('',#595,#635,#160,.T.);
#830=EDGE_CURVE('',#594,#645,#161,.T.);
#831=EDGE_CURVE('',#649,#652,#162,.T.);
#832=EDGE_CURVE('',#652,#653,#163,.T.);
#833=EDGE_CURVE('',#654,#653,#164,.T.);
#834=EDGE_CURVE('',#654,#624,#165,.T.);
#835=EDGE_CURVE('',#641,#655,#166,.T.);
#836=EDGE_CURVE('',#655,#652,#167,.T.);
#837=EDGE_CURVE('',#593,#640,#168,.T.);
#838=EDGE_CURVE('',#656,#592,#169,.T.);
#839=EDGE_CURVE('',#656,#655,#170,.T.);
#840=EDGE_CURVE('',#653,#656,#171,.T.);
#841=EDGE_CURVE('',#620,#657,#172,.T.);
#842=EDGE_CURVE('',#657,#654,#173,.T.);
#843=EDGE_CURVE('',#623,#657,#174,.T.);
#844=EDGE_CURVE('',#575,#604,#175,.T.);
#845=EDGE_CURVE('',#598,#658,#176,.T.);
#846=EDGE_CURVE('',#658,#658,#534,.T.);
#847=EDGE_CURVE('',#584,#659,#177,.T.);
#848=EDGE_CURVE('',#659,#659,#535,.T.);
#849=ORIENTED_EDGE('',*,*,#660,.F.);
#850=ORIENTED_EDGE('',*,*,#661,.F.);
#851=ORIENTED_EDGE('',*,*,#662,.F.);
#852=ORIENTED_EDGE('',*,*,#663,.T.);
#853=ORIENTED_EDGE('',*,*,#664,.F.);
#854=ORIENTED_EDGE('',*,*,#663,.F.);
#855=ORIENTED_EDGE('',*,*,#665,.F.);
#856=ORIENTED_EDGE('',*,*,#666,.T.);
#857=ORIENTED_EDGE('',*,*,#667,.F.);
#858=ORIENTED_EDGE('',*,*,#666,.F.);
#859=ORIENTED_EDGE('',*,*,#668,.F.);
#860=ORIENTED_EDGE('',*,*,#669,.F.);
#861=ORIENTED_EDGE('',*,*,#670,.F.);
#862=ORIENTED_EDGE('',*,*,#671,.F.);
#863=ORIENTED_EDGE('',*,*,#672,.F.);
#864=ORIENTED_EDGE('',*,*,#673,.F.);
#865=ORIENTED_EDGE('',*,*,#674,.F.);
#866=ORIENTED_EDGE('',*,*,#675,.F.);
#867=ORIENTED_EDGE('',*,*,#660,.T.);
#868=ORIENTED_EDGE('',*,*,#676,.T.);
#869=ORIENTED_EDGE('',*,*,#677,.F.);
#870=ORIENTED_EDGE('',*,*,#676,.F.);
#871=ORIENTED_EDGE('',*,*,#678,.F.);
#872=ORIENTED_EDGE('',*,*,#679,.F.);
#873=ORIENTED_EDGE('',*,*,#680,.F.);
#874=ORIENTED_EDGE('',*,*,#681,.F.);
#875=ORIENTED_EDGE('',*,*,#682,.F.);
#876=ORIENTED_EDGE('',*,*,#683,.T.);
#877=ORIENTED_EDGE('',*,*,#684,.F.);
#878=ORIENTED_EDGE('',*,*,#685,.T.);
#879=ORIENTED_EDGE('',*,*,#668,.T.);
#880=ORIENTED_EDGE('',*,*,#685,.F.);
#881=ORIENTED_EDGE('',*,*,#686,.F.);
#882=ORIENTED_EDGE('',*,*,#687,.T.);
#883=ORIENTED_EDGE('',*,*,#661,.T.);
#884=ORIENTED_EDGE('',*,*,#687,.F.);
#885=ORIENTED_EDGE('',*,*,#670,.T.);
#886=ORIENTED_EDGE('',*,*,#688,.T.);
#887=ORIENTED_EDGE('',*,*,#689,.T.);
#888=ORIENTED_EDGE('',*,*,#690,.F.);
#889=ORIENTED_EDGE('',*,*,#691,.F.);
#890=ORIENTED_EDGE('',*,*,#671,.T.);
#891=ORIENTED_EDGE('',*,*,#691,.T.);
#892=ORIENTED_EDGE('',*,*,#692,.F.);
#893=ORIENTED_EDGE('',*,*,#693,.F.);
#894=ORIENTED_EDGE('',*,*,#665,.T.);
#895=ORIENTED_EDGE('',*,*,#662,.T.);
#896=ORIENTED_EDGE('',*,*,#672,.T.);
#897=ORIENTED_EDGE('',*,*,#693,.T.);
#898=ORIENTED_EDGE('',*,*,#694,.F.);
#899=ORIENTED_EDGE('',*,*,#695,.F.);
#900=ORIENTED_EDGE('',*,*,#696,.T.);
#901=ORIENTED_EDGE('',*,*,#697,.F.);
#902=ORIENTED_EDGE('',*,*,#683,.F.);
#903=ORIENTED_EDGE('',*,*,#698,.F.);
#904=ORIENTED_EDGE('',*,*,#699,.F.);
#905=ORIENTED_EDGE('',*,*,#667,.T.);
#906=ORIENTED_EDGE('',*,*,#664,.T.);
#907=ORIENTED_EDGE('',*,*,#700,.T.);
#908=ORIENTED_EDGE('',*,*,#701,.T.);
#909=ORIENTED_EDGE('',*,*,#678,.T.);
#910=ORIENTED_EDGE('',*,*,#697,.T.);
#911=ORIENTED_EDGE('',*,*,#702,.F.);
#912=ORIENTED_EDGE('',*,*,#698,.T.);
#913=ORIENTED_EDGE('',*,*,#682,.T.);
#914=ORIENTED_EDGE('',*,*,#703,.T.);
#915=ORIENTED_EDGE('',*,*,#704,.T.);
#916=ORIENTED_EDGE('',*,*,#705,.F.);
#917=ORIENTED_EDGE('',*,*,#669,.T.);
#918=ORIENTED_EDGE('',*,*,#706,.T.);
#919=ORIENTED_EDGE('',*,*,#707,.F.);
#920=ORIENTED_EDGE('',*,*,#706,.F.);
#921=ORIENTED_EDGE('',*,*,#708,.F.);
#922=ORIENTED_EDGE('',*,*,#709,.F.);
#923=ORIENTED_EDGE('',*,*,#710,.T.);
#924=ORIENTED_EDGE('',*,*,#711,.T.);
#925=ORIENTED_EDGE('',*,*,#712,.T.);
#926=ORIENTED_EDGE('',*,*,#713,.T.);
#927=ORIENTED_EDGE('',*,*,#714,.T.);
#928=ORIENTED_EDGE('',*,*,#715,.T.);
#929=ORIENTED_EDGE('',*,*,#716,.T.);
#930=ORIENTED_EDGE('',*,*,#717,.T.);
#931=ORIENTED_EDGE('',*,*,#718,.T.);
#932=ORIENTED_EDGE('',*,*,#719,.T.);
#933=ORIENTED_EDGE('',*,*,#720,.F.);
#934=ORIENTED_EDGE('',*,*,#704,.F.);
#935=ORIENTED_EDGE('',*,*,#721,.F.);
#936=ORIENTED_EDGE('',*,*,#722,.T.);
#937=ORIENTED_EDGE('',*,*,#723,.T.);
#938=ORIENTED_EDGE('',*,*,#724,.T.);
#939=ORIENTED_EDGE('',*,*,#725,.T.);
#940=ORIENTED_EDGE('',*,*,#726,.T.);
#941=ORIENTED_EDGE('',*,*,#727,.T.);
#942=ORIENTED_EDGE('',*,*,#702,.T.);
#943=ORIENTED_EDGE('',*,*,#699,.T.);
#944=ORIENTED_EDGE('',*,*,#705,.T.);
#945=ORIENTED_EDGE('',*,*,#720,.T.);
#946=ORIENTED_EDGE('',*,*,#728,.F.);
#947=ORIENTED_EDGE('',*,*,#729,.T.);
#948=ORIENTED_EDGE('',*,*,#730,.T.);
#949=ORIENTED_EDGE('',*,*,#731,.T.);
#950=ORIENTED_EDGE('',*,*,#732,.T.);
#951=ORIENTED_EDGE('',*,*,#733,.F.);
#952=ORIENTED_EDGE('',*,*,#734,.T.);
#953=ORIENTED_EDGE('',*,*,#735,.T.);
#954=ORIENTED_EDGE('',*,*,#694,.T.);
#955=ORIENTED_EDGE('',*,*,#692,.T.);
#956=ORIENTED_EDGE('',*,*,#690,.T.);
#957=ORIENTED_EDGE('',*,*,#727,.F.);
#958=ORIENTED_EDGE('',*,*,#736,.F.);
#959=ORIENTED_EDGE('',*,*,#737,.F.);
#960=ORIENTED_EDGE('',*,*,#700,.F.);
#961=ORIENTED_EDGE('',*,*,#738,.F.);
#962=ORIENTED_EDGE('',*,*,#735,.F.);
#963=ORIENTED_EDGE('',*,*,#739,.T.);
#964=ORIENTED_EDGE('',*,*,#740,.T.);
#965=ORIENTED_EDGE('',*,*,#741,.T.);
#966=ORIENTED_EDGE('',*,*,#742,.T.);
#967=ORIENTED_EDGE('',*,*,#743,.T.);
#968=ORIENTED_EDGE('',*,*,#744,.T.);
#969=ORIENTED_EDGE('',*,*,#745,.T.);
#970=ORIENTED_EDGE('',*,*,#746,.T.);
#971=ORIENTED_EDGE('',*,*,#747,.F.);
#972=ORIENTED_EDGE('',*,*,#748,.T.);
#973=ORIENTED_EDGE('',*,*,#695,.T.);
#974=ORIENTED_EDGE('',*,*,#684,.T.);
#975=ORIENTED_EDGE('',*,*,#749,.F.);
#976=ORIENTED_EDGE('',*,*,#750,.F.);
#977=ORIENTED_EDGE('',*,*,#751,.T.);
#978=ORIENTED_EDGE('',*,*,#752,.T.);
#979=ORIENTED_EDGE('',*,*,#753,.T.);
#980=ORIENTED_EDGE('',*,*,#754,.F.);
#981=ORIENTED_EDGE('',*,*,#708,.T.);
#982=ORIENTED_EDGE('',*,*,#703,.F.);
#983=ORIENTED_EDGE('',*,*,#681,.T.);
#984=ORIENTED_EDGE('',*,*,#755,.F.);
#985=ORIENTED_EDGE('',*,*,#756,.F.);
#986=ORIENTED_EDGE('',*,*,#749,.T.);
#987=ORIENTED_EDGE('',*,*,#680,.T.);
#988=ORIENTED_EDGE('',*,*,#737,.T.);
#989=ORIENTED_EDGE('',*,*,#757,.F.);
#990=ORIENTED_EDGE('',*,*,#758,.F.);
#991=ORIENTED_EDGE('',*,*,#755,.T.);
#992=ORIENTED_EDGE('',*,*,#679,.T.);
#993=ORIENTED_EDGE('',*,*,#701,.F.);
#994=ORIENTED_EDGE('',*,*,#759,.F.);
#995=ORIENTED_EDGE('',*,*,#760,.T.);
#996=ORIENTED_EDGE('',*,*,#722,.F.);
#997=ORIENTED_EDGE('',*,*,#689,.F.);
#998=ORIENTED_EDGE('',*,*,#677,.T.);
#999=ORIENTED_EDGE('',*,*,#748,.F.);
#1000=ORIENTED_EDGE('',*,*,#761,.F.);
#1001=ORIENTED_EDGE('',*,*,#762,.F.);
#1002=ORIENTED_EDGE('',*,*,#673,.T.);
#1003=ORIENTED_EDGE('',*,*,#696,.F.);
#1004=ORIENTED_EDGE('',*,*,#762,.T.);
#1005=ORIENTED_EDGE('',*,*,#763,.T.);
#1006=ORIENTED_EDGE('',*,*,#764,.T.);
#1007=ORIENTED_EDGE('',*,*,#674,.T.);
#1008=ORIENTED_EDGE('',*,*,#764,.F.);
#1009=ORIENTED_EDGE('',*,*,#765,.F.);
#1010=ORIENTED_EDGE('',*,*,#766,.F.);
#1011=ORIENTED_EDGE('',*,*,#759,.T.);
#1012=ORIENTED_EDGE('',*,*,#688,.F.);
#1013=ORIENTED_EDGE('',*,*,#675,.T.);
#1014=ORIENTED_EDGE('',*,*,#766,.T.);
#1015=ORIENTED_EDGE('',*,*,#767,.F.);
#1016=ORIENTED_EDGE('',*,*,#723,.F.);
#1017=ORIENTED_EDGE('',*,*,#760,.F.);
#1018=ORIENTED_EDGE('',*,*,#768,.T.);
#1019=ORIENTED_EDGE('',*,*,#710,.F.);
#1020=ORIENTED_EDGE('',*,*,#769,.F.);
#1021=ORIENTED_EDGE('',*,*,#770,.T.);
#1022=ORIENTED_EDGE('',*,*,#771,.F.);
#1023=ORIENTED_EDGE('',*,*,#746,.F.);
#1024=ORIENTED_EDGE('',*,*,#772,.F.);
#1025=ORIENTED_EDGE('',*,*,#713,.F.);
#1026=ORIENTED_EDGE('',*,*,#773,.T.);
#1027=ORIENTED_EDGE('',*,*,#743,.F.);
#1028=ORIENTED_EDGE('',*,*,#774,.T.);
#1029=ORIENTED_EDGE('',*,*,#775,.T.);
#1030=ORIENTED_EDGE('',*,*,#776,.T.);
#1031=ORIENTED_EDGE('',*,*,#769,.T.);
#1032=ORIENTED_EDGE('',*,*,#709,.T.);
#1033=ORIENTED_EDGE('',*,*,#754,.T.);
#1034=ORIENTED_EDGE('',*,*,#777,.T.);
#1035=ORIENTED_EDGE('',*,*,#778,.T.);
#1036=ORIENTED_EDGE('',*,*,#751,.F.);
#1037=ORIENTED_EDGE('',*,*,#779,.F.);
#1038=ORIENTED_EDGE('',*,*,#780,.T.);
#1039=ORIENTED_EDGE('',*,*,#781,.F.);
#1040=ORIENTED_EDGE('',*,*,#729,.F.);
#1041=ORIENTED_EDGE('',*,*,#782,.T.);
#1042=ORIENTED_EDGE('',*,*,#783,.T.);
#1043=ORIENTED_EDGE('',*,*,#784,.T.);
#1044=ORIENTED_EDGE('',*,*,#785,.T.);
#1045=ORIENTED_EDGE('',*,*,#786,.T.);
#1046=ORIENTED_EDGE('',*,*,#787,.T.);
#1047=ORIENTED_EDGE('',*,*,#788,.T.);
#1048=ORIENTED_EDGE('',*,*,#789,.T.);
#1049=ORIENTED_EDGE('',*,*,#752,.F.);
#1050=ORIENTED_EDGE('',*,*,#785,.F.);
#1051=ORIENTED_EDGE('',*,*,#790,.T.);
#1052=ORIENTED_EDGE('',*,*,#779,.T.);
#1053=ORIENTED_EDGE('',*,*,#750,.T.);
#1054=ORIENTED_EDGE('',*,*,#756,.T.);
#1055=ORIENTED_EDGE('',*,*,#758,.T.);
#1056=ORIENTED_EDGE('',*,*,#791,.T.);
#1057=ORIENTED_EDGE('',*,*,#780,.F.);
#1058=ORIENTED_EDGE('',*,*,#790,.F.);
#1059=ORIENTED_EDGE('',*,*,#792,.F.);
#1060=ORIENTED_EDGE('',*,*,#793,.F.);
#1061=ORIENTED_EDGE('',*,*,#794,.F.);
#1062=ORIENTED_EDGE('',*,*,#725,.F.);
#1063=ORIENTED_EDGE('',*,*,#795,.F.);
#1064=ORIENTED_EDGE('',*,*,#793,.T.);
#1065=ORIENTED_EDGE('',*,*,#796,.F.);
#1066=ORIENTED_EDGE('',*,*,#714,.F.);
#1067=ORIENTED_EDGE('',*,*,#772,.T.);
#1068=ORIENTED_EDGE('',*,*,#788,.F.);
#1069=ORIENTED_EDGE('',*,*,#797,.T.);
#1070=ORIENTED_EDGE('',*,*,#798,.T.);
#1071=ORIENTED_EDGE('',*,*,#782,.F.);
#1072=ORIENTED_EDGE('',*,*,#728,.T.);
#1073=ORIENTED_EDGE('',*,*,#719,.F.);
#1074=ORIENTED_EDGE('',*,*,#799,.T.);
#1075=ORIENTED_EDGE('',*,*,#715,.F.);
#1076=ORIENTED_EDGE('',*,*,#797,.F.);
#1077=ORIENTED_EDGE('',*,*,#784,.F.);
#1078=ORIENTED_EDGE('',*,*,#798,.F.);
#1079=ORIENTED_EDGE('',*,*,#718,.F.);
#1080=ORIENTED_EDGE('',*,*,#800,.F.);
#1081=ORIENTED_EDGE('',*,*,#740,.F.);
#1082=ORIENTED_EDGE('',*,*,#801,.F.);
#1083=ORIENTED_EDGE('',*,*,#802,.T.);
#1084=ORIENTED_EDGE('',*,*,#799,.F.);
#1085=ORIENTED_EDGE('',*,*,#803,.F.);
#1086=ORIENTED_EDGE('',*,*,#774,.F.);
#1087=ORIENTED_EDGE('',*,*,#742,.F.);
#1088=ORIENTED_EDGE('',*,*,#804,.T.);
#1089=ORIENTED_EDGE('',*,*,#716,.F.);
#1090=ORIENTED_EDGE('',*,*,#805,.T.);
#1091=ORIENTED_EDGE('',*,*,#803,.T.);
#1092=ORIENTED_EDGE('',*,*,#783,.F.);
#1093=ORIENTED_EDGE('',*,*,#802,.F.);
#1094=ORIENTED_EDGE('',*,*,#806,.T.);
#1095=ORIENTED_EDGE('',*,*,#807,.F.);
#1096=ORIENTED_EDGE('',*,*,#808,.T.);
#1097=ORIENTED_EDGE('',*,*,#809,.T.);
#1098=ORIENTED_EDGE('',*,*,#810,.T.);
#1099=ORIENTED_EDGE('',*,*,#811,.T.);
#1100=ORIENTED_EDGE('',*,*,#812,.T.);
#1101=ORIENTED_EDGE('',*,*,#813,.T.);
#1102=ORIENTED_EDGE('',*,*,#814,.F.);
#1103=ORIENTED_EDGE('',*,*,#815,.T.);
#1104=ORIENTED_EDGE('',*,*,#816,.T.);
#1105=ORIENTED_EDGE('',*,*,#809,.F.);
#1106=ORIENTED_EDGE('',*,*,#817,.T.);
#1107=ORIENTED_EDGE('',*,*,#812,.F.);
#1108=ORIENTED_EDGE('',*,*,#818,.F.);
#1109=ORIENTED_EDGE('',*,*,#819,.F.);
#1110=ORIENTED_EDGE('',*,*,#820,.T.);
#1111=ORIENTED_EDGE('',*,*,#819,.T.);
#1112=ORIENTED_EDGE('',*,*,#821,.F.);
#1113=ORIENTED_EDGE('',*,*,#822,.F.);
#1114=ORIENTED_EDGE('',*,*,#823,.F.);
#1115=ORIENTED_EDGE('',*,*,#813,.F.);
#1116=ORIENTED_EDGE('',*,*,#817,.F.);
#1117=ORIENTED_EDGE('',*,*,#808,.F.);
#1118=ORIENTED_EDGE('',*,*,#824,.F.);
#1119=ORIENTED_EDGE('',*,*,#825,.T.);
#1120=ORIENTED_EDGE('',*,*,#786,.F.);
#1121=ORIENTED_EDGE('',*,*,#825,.F.);
#1122=ORIENTED_EDGE('',*,*,#826,.F.);
#1123=ORIENTED_EDGE('',*,*,#806,.F.);
#1124=ORIENTED_EDGE('',*,*,#816,.F.);
#1125=ORIENTED_EDGE('',*,*,#820,.F.);
#1126=ORIENTED_EDGE('',*,*,#827,.F.);
#1127=ORIENTED_EDGE('',*,*,#828,.T.);
#1128=ORIENTED_EDGE('',*,*,#787,.F.);
#1129=ORIENTED_EDGE('',*,*,#828,.F.);
#1130=ORIENTED_EDGE('',*,*,#796,.T.);
#1131=ORIENTED_EDGE('',*,*,#792,.T.);
#1132=ORIENTED_EDGE('',*,*,#791,.F.);
#1133=ORIENTED_EDGE('',*,*,#757,.T.);
#1134=ORIENTED_EDGE('',*,*,#736,.T.);
#1135=ORIENTED_EDGE('',*,*,#726,.F.);
#1136=ORIENTED_EDGE('',*,*,#777,.F.);
#1137=ORIENTED_EDGE('',*,*,#753,.F.);
#1138=ORIENTED_EDGE('',*,*,#789,.F.);
#1139=ORIENTED_EDGE('',*,*,#775,.F.);
#1140=ORIENTED_EDGE('',*,*,#805,.F.);
#1141=ORIENTED_EDGE('',*,*,#829,.F.);
#1142=ORIENTED_EDGE('',*,*,#733,.T.);
#1143=ORIENTED_EDGE('',*,*,#830,.T.);
#1144=ORIENTED_EDGE('',*,*,#814,.T.);
#1145=ORIENTED_EDGE('',*,*,#823,.T.);
#1146=ORIENTED_EDGE('',*,*,#824,.T.);
#1147=ORIENTED_EDGE('',*,*,#807,.T.);
#1148=ORIENTED_EDGE('',*,*,#826,.T.);
#1149=ORIENTED_EDGE('',*,*,#827,.T.);
#1150=ORIENTED_EDGE('',*,*,#822,.T.);
#1151=ORIENTED_EDGE('',*,*,#831,.T.);
#1152=ORIENTED_EDGE('',*,*,#832,.T.);
#1153=ORIENTED_EDGE('',*,*,#833,.F.);
#1154=ORIENTED_EDGE('',*,*,#834,.T.);
#1155=ORIENTED_EDGE('',*,*,#835,.T.);
#1156=ORIENTED_EDGE('',*,*,#836,.T.);
#1157=ORIENTED_EDGE('',*,*,#831,.F.);
#1158=ORIENTED_EDGE('',*,*,#821,.T.);
#1159=ORIENTED_EDGE('',*,*,#818,.T.);
#1160=ORIENTED_EDGE('',*,*,#811,.F.);
#1161=ORIENTED_EDGE('',*,*,#835,.F.);
#1162=ORIENTED_EDGE('',*,*,#810,.F.);
#1163=ORIENTED_EDGE('',*,*,#837,.F.);
#1164=ORIENTED_EDGE('',*,*,#731,.F.);
#1165=ORIENTED_EDGE('',*,*,#838,.F.);
#1166=ORIENTED_EDGE('',*,*,#839,.T.);
#1167=ORIENTED_EDGE('',*,*,#815,.F.);
#1168=ORIENTED_EDGE('',*,*,#830,.F.);
#1169=ORIENTED_EDGE('',*,*,#732,.F.);
#1170=ORIENTED_EDGE('',*,*,#837,.T.);
#1171=ORIENTED_EDGE('',*,*,#836,.F.);
#1172=ORIENTED_EDGE('',*,*,#839,.F.);
#1173=ORIENTED_EDGE('',*,*,#840,.F.);
#1174=ORIENTED_EDGE('',*,*,#832,.F.);
#1175=ORIENTED_EDGE('',*,*,#801,.T.);
#1176=ORIENTED_EDGE('',*,*,#739,.F.);
#1177=ORIENTED_EDGE('',*,*,#734,.F.);
#1178=ORIENTED_EDGE('',*,*,#829,.T.);
#1179=ORIENTED_EDGE('',*,*,#841,.T.);
#1180=ORIENTED_EDGE('',*,*,#842,.T.);
#1181=ORIENTED_EDGE('',*,*,#833,.T.);
#1182=ORIENTED_EDGE('',*,*,#840,.T.);
#1183=ORIENTED_EDGE('',*,*,#838,.T.);
#1184=ORIENTED_EDGE('',*,*,#730,.F.);
#1185=ORIENTED_EDGE('',*,*,#781,.T.);
#1186=ORIENTED_EDGE('',*,*,#794,.T.);
#1187=ORIENTED_EDGE('',*,*,#795,.T.);
#1188=ORIENTED_EDGE('',*,*,#724,.F.);
#1189=ORIENTED_EDGE('',*,*,#767,.T.);
#1190=ORIENTED_EDGE('',*,*,#765,.T.);
#1191=ORIENTED_EDGE('',*,*,#763,.F.);
#1192=ORIENTED_EDGE('',*,*,#761,.T.);
#1193=ORIENTED_EDGE('',*,*,#747,.T.);
#1194=ORIENTED_EDGE('',*,*,#771,.T.);
#1195=ORIENTED_EDGE('',*,*,#778,.F.);
#1196=ORIENTED_EDGE('',*,*,#834,.F.);
#1197=ORIENTED_EDGE('',*,*,#842,.F.);
#1198=ORIENTED_EDGE('',*,*,#843,.F.);
#1199=ORIENTED_EDGE('',*,*,#770,.F.);
#1200=ORIENTED_EDGE('',*,*,#776,.F.);
#1201=ORIENTED_EDGE('',*,*,#843,.T.);
#1202=ORIENTED_EDGE('',*,*,#841,.F.);
#1203=ORIENTED_EDGE('',*,*,#844,.T.);
#1204=ORIENTED_EDGE('',*,*,#744,.F.);
#1205=ORIENTED_EDGE('',*,*,#773,.F.);
#1206=ORIENTED_EDGE('',*,*,#712,.F.);
#1207=ORIENTED_EDGE('',*,*,#711,.F.);
#1208=ORIENTED_EDGE('',*,*,#768,.F.);
#1209=ORIENTED_EDGE('',*,*,#745,.F.);
#1210=ORIENTED_EDGE('',*,*,#844,.F.);
#1211=ORIENTED_EDGE('',*,*,#804,.F.);
#1212=ORIENTED_EDGE('',*,*,#741,.F.);
#1213=ORIENTED_EDGE('',*,*,#800,.T.);
#1214=ORIENTED_EDGE('',*,*,#717,.F.);
#1215=ORIENTED_EDGE('',*,*,#738,.T.);
#1216=ORIENTED_EDGE('',*,*,#845,.T.);
#1217=ORIENTED_EDGE('',*,*,#846,.F.);
#1218=ORIENTED_EDGE('',*,*,#845,.F.);
#1219=ORIENTED_EDGE('',*,*,#846,.T.);
#1220=ORIENTED_EDGE('',*,*,#686,.T.);
#1221=ORIENTED_EDGE('',*,*,#721,.T.);
#1222=ORIENTED_EDGE('',*,*,#847,.T.);
#1223=ORIENTED_EDGE('',*,*,#848,.F.);
#1224=ORIENTED_EDGE('',*,*,#847,.F.);
#1225=ORIENTED_EDGE('',*,*,#848,.T.);
#1226=ORIENTED_EDGE('',*,*,#707,.T.);
#1227=PLANE('',#1360);
#1228=PLANE('',#1369);
#1229=PLANE('',#1372);
#1230=PLANE('',#1375);
#1231=PLANE('',#1380);
#1232=PLANE('',#1381);
#1233=PLANE('',#1382);
#1234=PLANE('',#1383);
#1235=PLANE('',#1384);
#1236=PLANE('',#1385);
#1237=PLANE('',#1388);
#1238=PLANE('',#1391);
#1239=PLANE('',#1392);
#1240=PLANE('',#1394);
#1241=PLANE('',#1396);
#1242=PLANE('',#1397);
#1243=PLANE('',#1398);
#1244=PLANE('',#1399);
#1245=PLANE('',#1400);
#1246=PLANE('',#1401);
#1247=PLANE('',#1402);
#1248=PLANE('',#1403);
#1249=PLANE('',#1404);
#1250=PLANE('',#1405);
#1251=PLANE('',#1406);
#1252=PLANE('',#1407);
#1253=PLANE('',#1410);
#1254=PLANE('',#1411);
#1255=PLANE('',#1412);
#1256=PLANE('',#1413);
#1257=PLANE('',#1414);
#1258=PLANE('',#1415);
#1259=PLANE('',#1416);
#1260=PLANE('',#1417);
#1261=PLANE('',#1418);
#1262=PLANE('',#1419);
#1263=PLANE('',#1420);
#1264=PLANE('',#1421);
#1265=PLANE('',#1422);
#1266=PLANE('',#1425);
#1267=PLANE('',#1432);
#1268=PLANE('',#1433);
#1269=PLANE('',#1434);
#1270=PLANE('',#1435);
#1271=PLANE('',#1436);
#1272=PLANE('',#1437);
#1273=PLANE('',#1438);
#1274=PLANE('',#1439);
#1275=PLANE('',#1440);
#1276=PLANE('',#1441);
#1277=PLANE('',#1442);
#1278=PLANE('',#1444);
#1279=PLANE('',#1447);
#1280=PLANE('',#1450);
#1281=ADVANCED_FACE('',(#366,#352),#1227,.T.);
#1282=ADVANCED_FACE('',(#367),#341,.F.);
#1283=ADVANCED_FACE('',(#368),#342,.F.);
#1284=ADVANCED_FACE('',(#369,#353),#1228,.T.);
#1285=ADVANCED_FACE('',(#370),#1229,.T.);
#1286=ADVANCED_FACE('',(#371),#343,.F.);
#1287=ADVANCED_FACE('',(#372),#1230,.F.);
#1288=ADVANCED_FACE('',(#373),#344,.F.);
#1289=ADVANCED_FACE('',(#374),#345,.F.);
#1290=ADVANCED_FACE('',(#375),#1231,.T.);
#1291=ADVANCED_FACE('',(#376,#354,#355),#1232,.T.);
#1292=ADVANCED_FACE('',(#377),#1233,.T.);
#1293=ADVANCED_FACE('',(#378,#356,#357),#1234,.F.);
#1294=ADVANCED_FACE('',(#379),#1235,.F.);
#1295=ADVANCED_FACE('',(#380),#1236,.F.);
#1296=ADVANCED_FACE('',(#381),#346,.F.);
#1297=ADVANCED_FACE('',(#382,#358),#1237,.F.);
#1298=ADVANCED_FACE('',(#383),#1238,.T.);
#1299=ADVANCED_FACE('',(#384,#359),#1239,.F.);
#1300=ADVANCED_FACE('',(#385,#360),#1240,.T.);
#1301=ADVANCED_FACE('',(#386),#1241,.F.);
#1302=ADVANCED_FACE('',(#387),#1242,.F.);
#1303=ADVANCED_FACE('',(#388),#1243,.F.);
#1304=ADVANCED_FACE('',(#389,#361),#1244,.T.);
#1305=ADVANCED_FACE('',(#390),#1245,.T.);
#1306=ADVANCED_FACE('',(#391),#1246,.T.);
#1307=ADVANCED_FACE('',(#392),#1247,.T.);
#1308=ADVANCED_FACE('',(#393),#1248,.T.);
#1309=ADVANCED_FACE('',(#394),#1249,.F.);
#1310=ADVANCED_FACE('',(#395),#1250,.F.);
#1311=ADVANCED_FACE('',(#396),#1251,.F.);
#1312=ADVANCED_FACE('',(#397,#362,#363),#1252,.T.);
#1313=ADVANCED_FACE('',(#398),#1253,.T.);
#1314=ADVANCED_FACE('',(#399),#1254,.F.);
#1315=ADVANCED_FACE('',(#400),#1255,.F.);
#1316=ADVANCED_FACE('',(#401),#1256,.F.);
#1317=ADVANCED_FACE('',(#402),#1257,.T.);
#1318=ADVANCED_FACE('',(#403),#1258,.T.);
#1319=ADVANCED_FACE('',(#404),#1259,.T.);
#1320=ADVANCED_FACE('',(#405),#1260,.F.);
#1321=ADVANCED_FACE('',(#406),#1261,.F.);
#1322=ADVANCED_FACE('',(#407),#1262,.T.);
#1323=ADVANCED_FACE('',(#408),#1263,.F.);
#1324=ADVANCED_FACE('',(#409),#1264,.F.);
#1325=ADVANCED_FACE('',(#410),#1265,.F.);
#1326=ADVANCED_FACE('',(#411),#1266,.F.);
#1327=ADVANCED_FACE('',(#412),#347,.F.);
#1328=ADVANCED_FACE('',(#413),#348,.F.);
#1329=ADVANCED_FACE('',(#414),#1267,.F.);
#1330=ADVANCED_FACE('',(#415),#1268,.F.);
#1331=ADVANCED_FACE('',(#416),#1269,.F.);
#1332=ADVANCED_FACE('',(#417),#1270,.F.);
#1333=ADVANCED_FACE('',(#418),#1271,.T.);
#1334=ADVANCED_FACE('',(#419),#1272,.F.);
#1335=ADVANCED_FACE('',(#420),#1273,.F.);
#1336=ADVANCED_FACE('',(#421),#1274,.T.);
#1337=ADVANCED_FACE('',(#422),#1275,.F.);
#1338=ADVANCED_FACE('',(#423),#1276,.F.);
#1339=ADVANCED_FACE('',(#424),#1277,.F.);
#1340=ADVANCED_FACE('',(#425),#349,.F.);
#1341=ADVANCED_FACE('',(#426),#1278,.T.);
#1342=ADVANCED_FACE('',(#427),#350,.T.);
#1343=ADVANCED_FACE('',(#428,#364),#1279,.F.);
#1344=ADVANCED_FACE('',(#429),#351,.T.);
#1345=ADVANCED_FACE('',(#430,#365),#1280,.F.);
#1346=CLOSED_SHELL('',(#1281,#1282,#1283,#1284,#1285,#1286,#1287,#1288,
#1289,#1290,#1291,#1292,#1293,#1294,#1295,#1296,#1297,#1298,#1299,#1300,
#1301,#1302,#1303,#1304,#1305,#1306,#1307,#1308,#1309,#1310,#1311,#1312,
#1313,#1314,#1315,#1316,#1317,#1318,#1319,#1320,#1321,#1322,#1323,#1324,
#1325,#1326,#1327,#1328,#1329,#1330,#1331,#1332,#1333,#1334,#1335,#1336,
#1337,#1338,#1339,#1340,#1341,#1342,#1343,#1344,#1345));
#1347=DERIVED_UNIT_ELEMENT(#1349,1.);
#1348=DERIVED_UNIT_ELEMENT(#2181,-3.);
#1349=(
MASS_UNIT()
NAMED_UNIT(*)
SI_UNIT(.KILO.,.GRAM.)
);
#1350=DERIVED_UNIT((#1347,#1348));
#1351=MEASURE_REPRESENTATION_ITEM('density measure',
POSITIVE_RATIO_MEASURE(7850.),#1350);
#1352=PROPERTY_DEFINITION_REPRESENTATION(#1357,#1354);
#1353=PROPERTY_DEFINITION_REPRESENTATION(#1358,#1355);
#1354=REPRESENTATION('material name',(#1356),#2179);
#1355=REPRESENTATION('density',(#1351),#2179);
#1356=DESCRIPTIVE_REPRESENTATION_ITEM('Steel','Steel');
#1357=PROPERTY_DEFINITION('material property','material name',#2188);
#1358=PROPERTY_DEFINITION('material property','density of part',#2188);
#1359=AXIS2_PLACEMENT_3D('',#1798,#1451,#1452);
#1360=AXIS2_PLACEMENT_3D('',#1799,#1453,#1454);
#1361=AXIS2_PLACEMENT_3D('',#1801,#1455,#1456);
#1362=AXIS2_PLACEMENT_3D('',#1803,#1457,#1458);
#1363=AXIS2_PLACEMENT_3D('',#1804,#1459,#1460);
#1364=AXIS2_PLACEMENT_3D('',#1806,#1461,#1462);
#1365=AXIS2_PLACEMENT_3D('',#1809,#1464,#1465);
#1366=AXIS2_PLACEMENT_3D('',#1810,#1466,#1467);
#1367=AXIS2_PLACEMENT_3D('',#1812,#1468,#1469);
#1368=AXIS2_PLACEMENT_3D('',#1815,#1471,#1472);
#1369=AXIS2_PLACEMENT_3D('',#1816,#1473,#1474);
#1370=AXIS2_PLACEMENT_3D('',#1818,#1475,#1476);
#1371=AXIS2_PLACEMENT_3D('',#1820,#1477,#1478);
#1372=AXIS2_PLACEMENT_3D('',#1821,#1479,#1480);
#1373=AXIS2_PLACEMENT_3D('',#1834,#1487,#1488);
#1374=AXIS2_PLACEMENT_3D('',#1837,#1490,#1491);
#1375=AXIS2_PLACEMENT_3D('',#1838,#1492,#1493);
#1376=AXIS2_PLACEMENT_3D('',#1851,#1500,#1501);
#1377=AXIS2_PLACEMENT_3D('',#1853,#1502,#1503);
#1378=AXIS2_PLACEMENT_3D('',#1855,#1505,#1506);
#1379=AXIS2_PLACEMENT_3D('',#1857,#1507,#1508);
#1380=AXIS2_PLACEMENT_3D('',#1859,#1510,#1511);
#1381=AXIS2_PLACEMENT_3D('',#1867,#1516,#1517);
#1382=AXIS2_PLACEMENT_3D('',#1871,#1520,#1521);
#1383=AXIS2_PLACEMENT_3D('',#1877,#1525,#1526);
#1384=AXIS2_PLACEMENT_3D('',#1883,#1530,#1531);
#1385=AXIS2_PLACEMENT_3D('',#1889,#1535,#1536);
#1386=AXIS2_PLACEMENT_3D('',#1895,#1540,#1541);
#1387=AXIS2_PLACEMENT_3D('',#1898,#1543,#1544);
#1388=AXIS2_PLACEMENT_3D('',#1899,#1545,#1546);
#1389=AXIS2_PLACEMENT_3D('',#1907,#1550,#1551);
#1390=AXIS2_PLACEMENT_3D('',#1926,#1561,#1562);
#1391=AXIS2_PLACEMENT_3D('',#1927,#1563,#1564);
#1392=AXIS2_PLACEMENT_3D('',#1954,#1579,#1580);
#1393=AXIS2_PLACEMENT_3D('',#1959,#1583,#1584);
#1394=AXIS2_PLACEMENT_3D('',#1960,#1585,#1586);
#1395=AXIS2_PLACEMENT_3D('',#1974,#1593,#1594);
#1396=AXIS2_PLACEMENT_3D('',#1980,#1598,#1599);
#1397=AXIS2_PLACEMENT_3D('',#1992,#1606,#1607);
#1398=AXIS2_PLACEMENT_3D('',#1996,#1610,#1611);
#1399=AXIS2_PLACEMENT_3D('',#2000,#1614,#1615);
#1400=AXIS2_PLACEMENT_3D('',#2004,#1618,#1619);
#1401=AXIS2_PLACEMENT_3D('',#2008,#1622,#1623);
#1402=AXIS2_PLACEMENT_3D('',#2012,#1626,#1627);
#1403=AXIS2_PLACEMENT_3D('',#2016,#1630,#1631);
#1404=AXIS2_PLACEMENT_3D('',#2018,#1633,#1634);
#1405=AXIS2_PLACEMENT_3D('',#2025,#1639,#1640);
#1406=AXIS2_PLACEMENT_3D('',#2032,#1645,#1646);
#1407=AXIS2_PLACEMENT_3D('',#2038,#1650,#1651);
#1408=AXIS2_PLACEMENT_3D('',#2052,#1659,#1660);
#1409=AXIS2_PLACEMENT_3D('',#2054,#1661,#1662);
#1410=AXIS2_PLACEMENT_3D('',#2055,#1663,#1664);
#1411=AXIS2_PLACEMENT_3D('',#2058,#1667,#1668);
#1412=AXIS2_PLACEMENT_3D('',#2062,#1671,#1672);
#1413=AXIS2_PLACEMENT_3D('',#2068,#1676,#1677);
#1414=AXIS2_PLACEMENT_3D('',#2071,#1680,#1681);
#1415=AXIS2_PLACEMENT_3D('',#2073,#1683,#1684);
#1416=AXIS2_PLACEMENT_3D('',#2075,#1686,#1687);
#1417=AXIS2_PLACEMENT_3D('',#2077,#1689,#1690);
#1418=AXIS2_PLACEMENT_3D('',#2082,#1694,#1695);
#1419=AXIS2_PLACEMENT_3D('',#2085,#1698,#1699);
#1420=AXIS2_PLACEMENT_3D('',#2087,#1701,#1702);
#1421=AXIS2_PLACEMENT_3D('',#2096,#1707,#1708);
#1422=AXIS2_PLACEMENT_3D('',#2109,#1715,#1716);
#1423=AXIS2_PLACEMENT_3D('',#2111,#1717,#1718);
#1424=AXIS2_PLACEMENT_3D('',#2112,#1719,#1720);
#1425=AXIS2_PLACEMENT_3D('',#2116,#1723,#1724);
#1426=AXIS2_PLACEMENT_3D('',#2122,#1728,#1729);
#1427=AXIS2_PLACEMENT_3D('',#2124,#1730,#1731);
#1428=AXIS2_PLACEMENT_3D('',#2125,#1732,#1733);
#1429=AXIS2_PLACEMENT_3D('',#2127,#1735,#1736);
#1430=AXIS2_PLACEMENT_3D('',#2129,#1737,#1738);
#1431=AXIS2_PLACEMENT_3D('',#2130,#1739,#1740);
#1432=AXIS2_PLACEMENT_3D('',#2132,#1742,#1743);
#1433=AXIS2_PLACEMENT_3D('',#2133,#1744,#1745);
#1434=AXIS2_PLACEMENT_3D('',#2143,#1752,#1753);
#1435=AXIS2_PLACEMENT_3D('',#2147,#1756,#1757);
#1436=AXIS2_PLACEMENT_3D('',#2152,#1761,#1762);
#1437=AXIS2_PLACEMENT_3D('',#2153,#1763,#1764);
#1438=AXIS2_PLACEMENT_3D('',#2155,#1766,#1767);
#1439=AXIS2_PLACEMENT_3D('',#2156,#1768,#1769);
#1440=AXIS2_PLACEMENT_3D('',#2160,#1772,#1773);
#1441=AXIS2_PLACEMENT_3D('',#2162,#1775,#1776);
#1442=AXIS2_PLACEMENT_3D('',#2163,#1777,#1778);
#1443=AXIS2_PLACEMENT_3D('',#2165,#1780,#1781);
#1444=AXIS2_PLACEMENT_3D('',#2166,#1782,#1783);
#1445=AXIS2_PLACEMENT_3D('',#2167,#1784,#1785);
#1446=AXIS2_PLACEMENT_3D('',#2170,#1787,#1788);
#1447=AXIS2_PLACEMENT_3D('',#2171,#1789,#1790);
#1448=AXIS2_PLACEMENT_3D('',#2172,#1791,#1792);
#1449=AXIS2_PLACEMENT_3D('',#2175,#1794,#1795);
#1450=AXIS2_PLACEMENT_3D('',#2176,#1796,#1797);
#1451=DIRECTION('axis',(0.,0.,1.));
#1452=DIRECTION('refdir',(1.,0.,0.));
#1453=DIRECTION('center_axis',(1.,0.,0.));
#1454=DIRECTION('ref_axis',(0.,1.,0.));
#1455=DIRECTION('center_axis',(-1.,0.,0.));
#1456=DIRECTION('ref_axis',(0.,1.,0.));
#1457=DIRECTION('center_axis',(1.,0.,0.));
#1458=DIRECTION('ref_axis',(0.,-1.,0.));
#1459=DIRECTION('center_axis',(0.,0.,1.));
#1460=DIRECTION('ref_axis',(1.,0.,0.));
#1461=DIRECTION('center_axis',(5.67642509924659E-33,0.,1.));
#1462=DIRECTION('ref_axis',(1.,0.,-5.67642509924659E-33));
#1463=DIRECTION('',(0.,0.,1.));
#1464=DIRECTION('center_axis',(-5.67642509924659E-33,0.,-1.));
#1465=DIRECTION('ref_axis',(1.,0.,-5.67642509924659E-33));
#1466=DIRECTION('center_axis',(0.,0.,1.));
#1467=DIRECTION('ref_axis',(1.,0.,0.));
#1468=DIRECTION('center_axis',(5.67642509924659E-33,0.,1.));
#1469=DIRECTION('ref_axis',(1.,0.,-5.67642509924659E-33));
#1470=DIRECTION('',(0.,0.,1.));
#1471=DIRECTION('center_axis',(-5.67642509924659E-33,0.,-1.));
#1472=DIRECTION('ref_axis',(1.,0.,-5.67642509924659E-33));
#1473=DIRECTION('center_axis',(-1.,0.,0.));
#1474=DIRECTION('ref_axis',(0.,-1.,0.));
#1475=DIRECTION('center_axis',(1.,0.,0.));
#1476=DIRECTION('ref_axis',(0.,-1.,0.));
#1477=DIRECTION('center_axis',(-1.,0.,0.));
#1478=DIRECTION('ref_axis',(0.,-1.,0.));
#1479=DIRECTION('center_axis',(0.,0.997990452628816,-0.063364473182782));
#1480=DIRECTION('ref_axis',(1.,0.,0.));
#1481=DIRECTION('',(0.706395227012677,0.0448504906039795,0.706395227012677));
#1482=DIRECTION('',(1.,0.,-5.67642509924659E-33));
#1483=DIRECTION('',(0.706395227012677,-0.0448504906039795,-0.706395227012677));
#1484=DIRECTION('',(-0.571814476298779,-0.0519831342089799,-0.818734363791434));
#1485=DIRECTION('',(-1.,0.,0.));
#1486=DIRECTION('',(-0.571814476298779,0.0519831342089799,0.818734363791434));
#1487=DIRECTION('center_axis',(1.,0.,0.));
#1488=DIRECTION('ref_axis',(0.,-1.,0.));
#1489=DIRECTION('',(1.,0.,0.));
#1490=DIRECTION('center_axis',(-1.,0.,0.));
#1491=DIRECTION('ref_axis',(0.,1.,0.));
#1492=DIRECTION('center_axis',(0.,0.997990452628816,-0.063364473182782));
#1493=DIRECTION('ref_axis',(1.,0.,0.));
#1494=DIRECTION('',(-0.706395227012677,-0.0448504906039795,-0.706395227012677));
#1495=DIRECTION('',(0.571814476298779,-0.0519831342089799,-0.818734363791434));
#1496=DIRECTION('',(1.,0.,0.));
#1497=DIRECTION('',(0.571814476298779,0.0519831342089799,0.818734363791434));
#1498=DIRECTION('',(-0.706395227012677,0.0448504906039795,0.706395227012677));
#1499=DIRECTION('',(1.,-3.60407942809307E-34,-5.67642509924659E-33));
#1500=DIRECTION('center_axis',(1.,0.,0.));
#1501=DIRECTION('ref_axis',(0.,-1.,0.));
#1502=DIRECTION('center_axis',(1.,0.,0.));
#1503=DIRECTION('ref_axis',(0.,-1.,0.));
#1504=DIRECTION('',(1.,0.,0.));
#1505=DIRECTION('center_axis',(1.,0.,0.));
#1506=DIRECTION('ref_axis',(0.,-1.,0.));
#1507=DIRECTION('center_axis',(1.,0.,0.));
#1508=DIRECTION('ref_axis',(0.,-1.,0.));
#1509=DIRECTION('',(1.,0.,0.));
#1510=DIRECTION('center_axis',(0.707106781186548,0.,-0.707106781186548));
#1511=DIRECTION('ref_axis',(-0.707106781186548,0.,-0.707106781186548));
#1512=DIRECTION('',(0.705650329009542,-0.0641500299099584,0.705650329009543));
#1513=DIRECTION('',(0.,-1.,0.));
#1514=DIRECTION('',(0.707106781186547,0.,0.707106781186548));
#1515=DIRECTION('',(0.,-1.,0.));
#1516=DIRECTION('center_axis',(-5.67642509924659E-33,0.,-1.));
#1517=DIRECTION('ref_axis',(1.,0.,-5.67642509924659E-33));
#1518=DIRECTION('',(1.,0.,-5.67642509924659E-33));
#1519=DIRECTION('',(0.,-1.,0.));
#1520=DIRECTION('center_axis',(-0.707106781186548,0.,-0.707106781186548));
#1521=DIRECTION('ref_axis',(-0.707106781186548,0.,0.707106781186548));
#1522=DIRECTION('',(0.707106781186548,0.,-0.707106781186548));
#1523=DIRECTION('',(0.,-1.,0.));
#1524=DIRECTION('',(0.705650329009543,0.0641500299099584,-0.705650329009543));
#1525=DIRECTION('center_axis',(-5.67642509924659E-33,0.,-1.));
#1526=DIRECTION('ref_axis',(1.,0.,-5.67642509924659E-33));
#1527=DIRECTION('',(0.,-1.,0.));
#1528=DIRECTION('',(0.,1.,0.));
#1529=DIRECTION('',(-1.,0.,5.67642509924659E-33));
#1530=DIRECTION('center_axis',(0.707106781186548,0.,-0.707106781186548));
#1531=DIRECTION('ref_axis',(-0.707106781186548,0.,-0.707106781186548));
#1532=DIRECTION('',(0.,1.,0.));
#1533=DIRECTION('',(-0.705650329009542,0.0641500299099584,-0.705650329009543));
#1534=DIRECTION('',(-0.707106781186547,0.,-0.707106781186548));
#1535=DIRECTION('center_axis',(-0.707106781186548,0.,-0.707106781186548));
#1536=DIRECTION('ref_axis',(-0.707106781186548,0.,0.707106781186548));
#1537=DIRECTION('',(-0.705650329009543,-0.0641500299099584,0.705650329009543));
#1538=DIRECTION('',(0.,-1.,0.));
#1539=DIRECTION('',(-0.707106781186548,0.,0.707106781186548));
#1540=DIRECTION('center_axis',(1.,0.,0.));
#1541=DIRECTION('ref_axis',(0.,-1.,0.));
#1542=DIRECTION('',(1.,0.,0.));
#1543=DIRECTION('center_axis',(-1.,0.,0.));
#1544=DIRECTION('ref_axis',(0.,-1.,0.));
#1545=DIRECTION('center_axis',(-1.,0.,0.));
#1546=DIRECTION('ref_axis',(0.,0.,-1.));
#1547=DIRECTION('',(0.,0.,-1.));
#1548=DIRECTION('',(0.,1.,0.));
#1549=DIRECTION('',(0.,0.,-1.));
#1550=DIRECTION('center_axis',(-1.,0.,0.));
#1551=DIRECTION('ref_axis',(0.,-1.,0.));
#1552=DIRECTION('',(0.,0.,-1.));
#1553=DIRECTION('',(0.,1.,0.));
#1554=DIRECTION('',(0.,0.,-1.));
#1555=DIRECTION('',(0.,-1.,0.));
#1556=DIRECTION('',(0.,0.,-1.));
#1557=DIRECTION('',(0.,-1.,0.));
#1558=DIRECTION('',(0.,0.,1.));
#1559=DIRECTION('',(0.,-1.,0.));
#1560=DIRECTION('',(0.,0.,1.));
#1561=DIRECTION('center_axis',(-1.,0.,0.));
#1562=DIRECTION('ref_axis',(0.,0.,1.));
#1563=DIRECTION('center_axis',(0.,-1.,0.));
#1564=DIRECTION('ref_axis',(0.,0.,-1.));
#1565=DIRECTION('',(0.,0.,1.));
#1566=DIRECTION('',(-0.615661475325659,0.,0.788010753606722));
#1567=DIRECTION('',(-1.,0.,0.));
#1568=DIRECTION('',(0.,0.,-1.));
#1569=DIRECTION('',(0.615661475325659,0.,-0.788010753606722));
#1570=DIRECTION('',(0.,0.,-1.));
#1571=DIRECTION('',(-0.699255333616785,0.,-0.714872001415973));
#1572=DIRECTION('',(0.,0.,1.));
#1573=DIRECTION('',(-1.,0.,0.));
#1574=DIRECTION('',(0.,0.,-1.));
#1575=DIRECTION('',(-1.,0.,0.));
#1576=DIRECTION('',(0.,0.,1.));
#1577=DIRECTION('',(-1.,0.,0.));
#1578=DIRECTION('',(0.,0.,-1.));
#1579=DIRECTION('center_axis',(1.,0.,0.));
#1580=DIRECTION('ref_axis',(0.,0.,1.));
#1581=DIRECTION('',(0.,-1.,0.));
#1582=DIRECTION('',(0.,0.,1.));
#1583=DIRECTION('center_axis',(1.,0.,0.));
#1584=DIRECTION('ref_axis',(0.,0.,-1.));
#1585=DIRECTION('center_axis',(-1.,0.,0.));
#1586=DIRECTION('ref_axis',(0.,0.,-1.));
#1587=DIRECTION('',(0.,1.,0.));
#1588=DIRECTION('',(0.,0.,-1.));
#1589=DIRECTION('',(0.,1.,0.));
#1590=DIRECTION('',(0.,0.,1.));
#1591=DIRECTION('',(0.,1.,0.));
#1592=DIRECTION('',(0.,0.,1.));
#1593=DIRECTION('center_axis',(1.,0.,0.));
#1594=DIRECTION('ref_axis',(0.,-1.,0.));
#1595=DIRECTION('',(0.,0.,1.));
#1596=DIRECTION('',(0.,-1.,0.));
#1597=DIRECTION('',(0.,0.,-1.));
#1598=DIRECTION('center_axis',(-0.0905357460425185,0.995893206467704,0.));
#1599=DIRECTION('ref_axis',(0.995893206467704,0.0905357460425185,0.));
#1600=DIRECTION('',(0.,0.,-1.));
#1601=DIRECTION('',(0.995893206467704,0.0905357460425185,0.));
#1602=DIRECTION('',(0.,0.,-1.));
#1603=DIRECTION('',(-0.995893206467704,-0.0905357460425185,0.));
#1604=DIRECTION('',(0.,0.,1.));
#1605=DIRECTION('',(0.995893206467704,0.0905357460425185,0.));
#1606=DIRECTION('center_axis',(0.,1.,0.));
#1607=DIRECTION('ref_axis',(0.,0.,1.));
#1608=DIRECTION('',(0.,0.,-1.));
#1609=DIRECTION('',(1.,0.,0.));
#1610=DIRECTION('center_axis',(0.0905357460425185,0.995893206467704,0.));
#1611=DIRECTION('ref_axis',(0.995893206467704,-0.0905357460425185,0.));
#1612=DIRECTION('',(0.614699438505991,-0.0558817671369083,-0.786779402629527));
#1613=DIRECTION('',(0.995893206467704,-0.0905357460425185,0.));
#1614=DIRECTION('center_axis',(1.,0.,0.));
#1615=DIRECTION('ref_axis',(0.,0.,1.));
#1616=DIRECTION('',(0.,0.,-1.));
#1617=DIRECTION('',(0.,-1.,0.));
#1618=DIRECTION('center_axis',(-0.0905357460425185,0.995893206467704,0.));
#1619=DIRECTION('ref_axis',(0.995893206467704,0.0905357460425185,0.));
#1620=DIRECTION('',(-0.995893206467704,-0.0905357460425185,0.));
#1621=DIRECTION('',(0.,0.,1.));
#1622=DIRECTION('center_axis',(0.,1.,0.));
#1623=DIRECTION('ref_axis',(0.,0.,1.));
#1624=DIRECTION('',(1.,0.,0.));
#1625=DIRECTION('',(0.,0.,-1.));
#1626=DIRECTION('center_axis',(0.0905357460425185,0.995893206467704,0.));
#1627=DIRECTION('ref_axis',(0.995893206467704,-0.0905357460425185,0.));
#1628=DIRECTION('',(-0.995893206467704,0.0905357460425185,0.));
#1629=DIRECTION('',(-0.614699438505991,0.0558817671369083,0.786779402629527));
#1630=DIRECTION('center_axis',(0.788010753606722,0.,0.615661475325659));
#1631=DIRECTION('ref_axis',(0.615661475325659,0.,-0.788010753606722));
#1632=DIRECTION('',(0.,1.,0.));
#1633=DIRECTION('center_axis',(0.,1.,0.));
#1634=DIRECTION('ref_axis',(0.,0.,1.));
#1635=DIRECTION('',(1.,0.,0.));
#1636=DIRECTION('',(-1.,0.,0.));
#1637=DIRECTION('',(0.,0.,1.));
#1638=DIRECTION('',(1.,0.,0.));
#1639=DIRECTION('center_axis',(0.,0.,-1.));
#1640=DIRECTION('ref_axis',(-1.,0.,0.));
#1641=DIRECTION('',(1.,0.,0.));
#1642=DIRECTION('',(-1.,0.,0.));
#1643=DIRECTION('',(1.,0.,0.));
#1644=DIRECTION('',(0.,1.,0.));
#1645=DIRECTION('center_axis',(0.,0.,1.));
#1646=DIRECTION('ref_axis',(1.,0.,0.));
#1647=DIRECTION('',(0.,-1.,0.));
#1648=DIRECTION('',(0.,-1.,0.));
#1649=DIRECTION('',(-1.,0.,0.));
#1650=DIRECTION('center_axis',(1.,0.,0.));
#1651=DIRECTION('ref_axis',(0.,0.,-1.));
#1652=DIRECTION('',(0.,1.,0.));
#1653=DIRECTION('',(0.,0.,1.));
#1654=DIRECTION('',(0.,1.,0.));
#1655=DIRECTION('',(0.,1.,0.));
#1656=DIRECTION('',(0.,1.,0.));
#1657=DIRECTION('',(0.,1.,0.));
#1658=DIRECTION('',(0.,1.,0.));
#1659=DIRECTION('center_axis',(-1.,0.,0.));
#1660=DIRECTION('ref_axis',(0.,-1.,0.));
#1661=DIRECTION('center_axis',(-1.,0.,0.));
#1662=DIRECTION('ref_axis',(0.,-1.,0.));
#1663=DIRECTION('center_axis',(0.,0.,-1.));
#1664=DIRECTION('ref_axis',(-1.,0.,0.));
#1665=DIRECTION('',(-1.,0.,0.));
#1666=DIRECTION('',(0.,1.,0.));
#1667=DIRECTION('center_axis',(0.,0.,1.));
#1668=DIRECTION('ref_axis',(1.,0.,0.));
#1669=DIRECTION('',(-1.,0.,0.));
#1670=DIRECTION('',(0.,-1.,0.));
#1671=DIRECTION('center_axis',(0.,1.,0.));
#1672=DIRECTION('ref_axis',(0.,0.,1.));
#1673=DIRECTION('',(-0.615661475325659,0.,0.788010753606722));
#1674=DIRECTION('',(0.,0.,-1.));
#1675=DIRECTION('',(1.,0.,0.));
#1676=DIRECTION('center_axis',(1.,0.,0.));
#1677=DIRECTION('ref_axis',(0.,0.,-1.));
#1678=DIRECTION('',(0.,-1.,0.));
#1679=DIRECTION('',(0.,1.,0.));
#1680=DIRECTION('center_axis',(0.,1.,0.));
#1681=DIRECTION('ref_axis',(0.,0.,1.));
#1682=DIRECTION('',(-0.699255333616785,0.,-0.714872001415973));
#1683=DIRECTION('center_axis',(0.714872001415973,0.,-0.699255333616785));
#1684=DIRECTION('ref_axis',(-0.699255333616785,0.,-0.714872001415973));
#1685=DIRECTION('',(0.699255333616785,0.,0.714872001415973));
#1686=DIRECTION('center_axis',(0.714872001415973,0.,-0.699255333616785));
#1687=DIRECTION('ref_axis',(-0.699255333616785,0.,-0.714872001415973));
#1688=DIRECTION('',(-0.699255333616785,0.,-0.714872001415973));
#1689=DIRECTION('center_axis',(0.,-1.,0.));
#1690=DIRECTION('ref_axis',(0.,0.,-1.));
#1691=DIRECTION('',(1.,0.,0.));
#1692=DIRECTION('',(-1.,0.,0.));
#1693=DIRECTION('',(1.,0.,0.));
#1694=DIRECTION('center_axis',(0.,1.,0.));
#1695=DIRECTION('ref_axis',(0.,0.,1.));
#1696=DIRECTION('',(1.,0.,0.));
#1697=DIRECTION('',(1.,0.,0.));
#1698=DIRECTION('center_axis',(0.,0.,-1.));
#1699=DIRECTION('ref_axis',(-1.,0.,0.));
#1700=DIRECTION('',(0.,1.,0.));
#1701=DIRECTION('center_axis',(0.,0.,-1.));
#1702=DIRECTION('ref_axis',(0.,1.,0.));
#1703=DIRECTION('',(-1.,0.,0.));
#1704=DIRECTION('',(0.,1.,0.));
#1705=DIRECTION('',(1.,0.,0.));
#1706=DIRECTION('',(0.,1.,0.));
#1707=DIRECTION('center_axis',(0.,-1.,0.));
#1708=DIRECTION('ref_axis',(0.,0.,-1.));
#1709=DIRECTION('',(0.,0.,1.));
#1710=DIRECTION('',(1.,0.,0.));
#1711=DIRECTION('',(0.,0.,-1.));
#1712=DIRECTION('',(-1.,0.,0.));
#1713=DIRECTION('',(0.,0.,-1.));
#1714=DIRECTION('',(1.,0.,0.));
#1715=DIRECTION('center_axis',(1.,0.,0.));
#1716=DIRECTION('ref_axis',(0.,0.,-1.));
#1717=DIRECTION('center_axis',(1.,0.,0.));
#1718=DIRECTION('ref_axis',(0.,-1.,0.));
#1719=DIRECTION('center_axis',(1.,0.,0.));
#1720=DIRECTION('ref_axis',(0.,-1.,0.));
#1721=DIRECTION('',(0.,-1.,0.));
#1722=DIRECTION('',(0.,0.,1.));
#1723=DIRECTION('center_axis',(0.,1.,0.));
#1724=DIRECTION('ref_axis',(0.,0.,1.));
#1725=DIRECTION('',(1.,0.,0.));
#1726=DIRECTION('',(1.,0.,0.));
#1727=DIRECTION('',(0.,0.,1.));
#1728=DIRECTION('center_axis',(1.,0.,0.));
#1729=DIRECTION('ref_axis',(0.,-1.,0.));
#1730=DIRECTION('center_axis',(1.,0.,0.));
#1731=DIRECTION('ref_axis',(0.,-1.,0.));
#1732=DIRECTION('center_axis',(1.,0.,0.));
#1733=DIRECTION('ref_axis',(0.,-1.,0.));
#1734=DIRECTION('',(1.,0.,0.));
#1735=DIRECTION('center_axis',(1.,0.,0.));
#1736=DIRECTION('ref_axis',(0.,-1.,0.));
#1737=DIRECTION('center_axis',(1.,0.,0.));
#1738=DIRECTION('ref_axis',(0.,-1.,0.));
#1739=DIRECTION('center_axis',(1.,0.,0.));
#1740=DIRECTION('ref_axis',(0.,-1.,0.));
#1741=DIRECTION('',(1.,0.,0.));
#1742=DIRECTION('center_axis',(0.788010753606722,0.,0.615661475325659));
#1743=DIRECTION('ref_axis',(0.615661475325659,0.,-0.788010753606722));
#1744=DIRECTION('center_axis',(1.,0.,0.));
#1745=DIRECTION('ref_axis',(0.,0.,-1.));
#1746=DIRECTION('',(0.,1.,0.));
#1747=DIRECTION('',(0.,1.,0.));
#1748=DIRECTION('',(0.,-1.,0.));
#1749=DIRECTION('',(0.,0.,1.));
#1750=DIRECTION('',(0.,-1.,0.));
#1751=DIRECTION('',(0.,0.,-1.));
#1752=DIRECTION('center_axis',(0.,0.,1.));
#1753=DIRECTION('ref_axis',(0.,-1.,0.));
#1754=DIRECTION('',(0.,1.,0.));
#1755=DIRECTION('',(-1.,0.,0.));
#1756=DIRECTION('center_axis',(1.,0.,0.));
#1757=DIRECTION('ref_axis',(0.,0.,-1.));
#1758=DIRECTION('',(0.,1.,0.));
#1759=DIRECTION('',(0.,-1.,0.));
#1760=DIRECTION('',(0.,0.,-1.));
#1761=DIRECTION('center_axis',(0.,0.,1.));
#1762=DIRECTION('ref_axis',(1.,0.,0.));
#1763=DIRECTION('center_axis',(0.,1.,0.));
#1764=DIRECTION('ref_axis',(0.,0.,1.));
#1765=DIRECTION('',(1.,0.,0.));
#1766=DIRECTION('center_axis',(0.,0.,-1.));
#1767=DIRECTION('ref_axis',(-1.,0.,0.));
#1768=DIRECTION('center_axis',(0.,0.,1.));
#1769=DIRECTION('ref_axis',(1.,0.,0.));
#1770=DIRECTION('',(0.,1.,0.));
#1771=DIRECTION('',(1.,0.,0.));
#1772=DIRECTION('center_axis',(0.,1.,0.));
#1773=DIRECTION('ref_axis',(0.,0.,1.));
#1774=DIRECTION('',(0.,0.,1.));
#1775=DIRECTION('center_axis',(-1.,0.,0.));
#1776=DIRECTION('ref_axis',(0.,0.,1.));
#1777=DIRECTION('center_axis',(0.,1.,0.));
#1778=DIRECTION('ref_axis',(0.,0.,1.));
#1779=DIRECTION('',(-1.,0.,0.));
#1780=DIRECTION('center_axis',(1.,0.,0.));
#1781=DIRECTION('ref_axis',(0.,1.,-1.22464679914735E-16));
#1782=DIRECTION('center_axis',(0.,0.,1.));
#1783=DIRECTION('ref_axis',(1.,0.,0.));
#1784=DIRECTION('center_axis',(1.,0.,0.));
#1785=DIRECTION('ref_axis',(0.,0.,-1.));
#1786=DIRECTION('',(-1.,0.,0.));
#1787=DIRECTION('center_axis',(-1.,0.,0.));
#1788=DIRECTION('ref_axis',(0.,1.,0.));
#1789=DIRECTION('center_axis',(1.,0.,0.));
#1790=DIRECTION('ref_axis',(0.,1.,0.));
#1791=DIRECTION('center_axis',(-1.,0.,0.));
#1792=DIRECTION('ref_axis',(0.,0.,1.));
#1793=DIRECTION('',(1.,0.,0.));
#1794=DIRECTION('center_axis',(1.,0.,0.));
#1795=DIRECTION('ref_axis',(0.,-1.,0.));
#1796=DIRECTION('center_axis',(-1.,0.,0.));
#1797=DIRECTION('ref_axis',(0.,-1.,0.));
#1798=CARTESIAN_POINT('',(0.,0.,0.));
#1799=CARTESIAN_POINT('Origin',(0.043,-0.02,0.022));
#1800=CARTESIAN_POINT('',(0.043,-0.017,0.022));
#1801=CARTESIAN_POINT('Origin',(0.043,-0.02,0.022));
#1802=CARTESIAN_POINT('',(0.043,-0.0185,0.022));
#1803=CARTESIAN_POINT('Origin',(0.043,-0.02,0.022));
#1804=CARTESIAN_POINT('Origin',(0.016,-0.0135,-7.37935262902057E-35));
#1805=CARTESIAN_POINT('',(0.014575,-0.0135,-8.0889057664264E-36));
#1806=CARTESIAN_POINT('Origin',(0.016,-0.0135,0.));
#1807=CARTESIAN_POINT('',(0.014575,-0.0135,0.002));
#1808=CARTESIAN_POINT('',(0.014575,-0.0135,-7.37935262902057E-35));
#1809=CARTESIAN_POINT('Origin',(0.016,-0.0135,0.002));
#1810=CARTESIAN_POINT('Origin',(0.028,-0.0135,-1.41910627481165E-34));
#1811=CARTESIAN_POINT('',(0.026575,-0.0135,-8.0889057664264E-36));
#1812=CARTESIAN_POINT('Origin',(0.028,-0.0135,0.));
#1813=CARTESIAN_POINT('',(0.026575,-0.0135,0.002));
#1814=CARTESIAN_POINT('',(0.026575,-0.0135,-1.41910627481165E-34));
#1815=CARTESIAN_POINT('Origin',(0.028,-0.0135,0.002));
#1816=CARTESIAN_POINT('Origin',(0.001,-0.02,0.022));
#1817=CARTESIAN_POINT('',(0.001,-0.017,0.022));
#1818=CARTESIAN_POINT('Origin',(0.001,-0.02,0.022));
#1819=CARTESIAN_POINT('',(0.001,-0.0185,0.022));
#1820=CARTESIAN_POINT('Origin',(0.001,-0.02,0.022));
#1821=CARTESIAN_POINT('Origin',(0.022,0.001,0.01575));
#1822=CARTESIAN_POINT('',(0.041,3.3881317890172E-20,5.96311194867027E-19));
#1823=CARTESIAN_POINT('',(0.0427663551401867,0.000112149532710283,0.0017663551401867));
#1824=CARTESIAN_POINT('',(0.0417019581342721,4.45687704299725E-5,0.000701958134272067));
#1825=CARTESIAN_POINT('',(0.003,0.,0.));
#1826=CARTESIAN_POINT('',(0.003,0.,0.));
#1827=CARTESIAN_POINT('',(0.00123364485981309,0.00011214953271028,0.00176635514018691));
#1828=CARTESIAN_POINT('',(0.00379502451596681,-5.04777470455117E-5,-0.00079502451596681));
#1829=CARTESIAN_POINT('',(0.0165,0.0015,0.023625));
#1830=CARTESIAN_POINT('',(0.016485137645668,0.00149864887687891,0.0236037198108428));
#1831=CARTESIAN_POINT('',(0.0275,0.0015,0.023625));
#1832=CARTESIAN_POINT('',(0.022,0.0015,0.023625));
#1833=CARTESIAN_POINT('',(0.027514862354332,0.00149864887687891,0.0236037198108428));
#1834=CARTESIAN_POINT('Origin',(0.,-0.02,0.022));
#1835=CARTESIAN_POINT('',(0.044,-0.017,0.022));
#1836=CARTESIAN_POINT('',(0.,-0.017,0.022));
#1837=CARTESIAN_POINT('Origin',(0.044,-0.02,0.022));
#1838=CARTESIAN_POINT('Origin',(0.022,-0.000995980905257632,0.0158767289463656));
#1839=CARTESIAN_POINT('',(0.0415759304610206,-0.00178787749958137,0.00340435758576678));
#1840=CARTESIAN_POINT('',(0.0401715728752538,-0.00187704306058243,0.002));
#1841=CARTESIAN_POINT('',(0.0403483917222974,-0.00186581646711935,0.00217681884704355));
#1842=CARTESIAN_POINT('',(0.0274092779656255,-0.0005,0.0236884282041733));
#1843=CARTESIAN_POINT('',(0.0274240492611021,-0.000501342845043333,0.0236672783947408));
#1844=CARTESIAN_POINT('',(0.0165907220343745,-0.0005,0.0236884282041733));
#1845=CARTESIAN_POINT('',(0.022,-0.0005,0.0236884282041733));
#1846=CARTESIAN_POINT('',(0.00242406953897947,-0.00178787749958137,0.00340435758576672));
#1847=CARTESIAN_POINT('',(0.0165759507388979,-0.000501342845043334,0.0236672783947408));
#1848=CARTESIAN_POINT('',(0.00382842712474619,-0.00187704306058243,0.002));
#1849=CARTESIAN_POINT('',(0.00514859092794151,-0.00196086298459483,0.000679836196804677));
#1850=CARTESIAN_POINT('',(0.0125,-0.00187704306058243,0.002));
#1851=CARTESIAN_POINT('Origin',(0.,-0.02,0.022));
#1852=CARTESIAN_POINT('',(0.,-0.017,0.022));
#1853=CARTESIAN_POINT('Origin',(0.,-0.02,0.022));
#1854=CARTESIAN_POINT('',(0.,-0.017,0.022));
#1855=CARTESIAN_POINT('Origin',(0.,-0.02,0.022));
#1856=CARTESIAN_POINT('',(0.04,-0.0185,0.022));
#1857=CARTESIAN_POINT('Origin',(0.04,-0.02,0.022));
#1858=CARTESIAN_POINT('',(0.,-0.0185,0.022));
#1859=CARTESIAN_POINT('Origin',(0.044,0.,0.003));
#1860=CARTESIAN_POINT('',(0.044,1.0842021724855E-19,0.003));
#1861=CARTESIAN_POINT('',(0.0483343621399177,-0.0003940329218107,0.0073343621399177));
#1862=CARTESIAN_POINT('',(0.044,-0.027,0.003));
#1863=CARTESIAN_POINT('',(0.044,0.,0.003));
#1864=CARTESIAN_POINT('',(0.041,-0.027,1.34922937020418E-18));
#1865=CARTESIAN_POINT('',(0.041,-0.027,-2.1570415377137E-34));
#1866=CARTESIAN_POINT('',(0.041,0.,-2.1570415377137E-34));
#1867=CARTESIAN_POINT('Origin',(0.003,0.,0.));
#1868=CARTESIAN_POINT('',(0.003,-0.027,0.));
#1869=CARTESIAN_POINT('',(0.003,-0.027,0.));
#1870=CARTESIAN_POINT('',(0.003,0.,0.));
#1871=CARTESIAN_POINT('Origin',(0.003,0.,0.));
#1872=CARTESIAN_POINT('',(0.,-0.027,0.003));
#1873=CARTESIAN_POINT('',(0.,-0.027,0.003));
#1874=CARTESIAN_POINT('',(0.,0.,0.003));
#1875=CARTESIAN_POINT('',(0.,0.,0.003));
#1876=CARTESIAN_POINT('',(-0.00284053497942387,-0.000258230452674897,0.00584053497942387));
#1877=CARTESIAN_POINT('Origin',(0.003,0.,0.002));
#1878=CARTESIAN_POINT('',(0.0401715728752538,-0.027,0.002));
#1879=CARTESIAN_POINT('',(0.0401715728752538,0.,0.002));
#1880=CARTESIAN_POINT('',(0.00382842712474619,-0.027,0.002));
#1881=CARTESIAN_POINT('',(0.00382842712474619,0.,0.002));
#1882=CARTESIAN_POINT('',(0.0125,-0.027,0.002));
#1883=CARTESIAN_POINT('Origin',(0.0425857864376269,0.,0.00441421356237309));
#1884=CARTESIAN_POINT('',(0.042,-0.027,0.0038284271247462));
#1885=CARTESIAN_POINT('',(0.042,-0.00182642927585223,0.00382842712474616));
#1886=CARTESIAN_POINT('',(0.042,0.,0.00382842712474619));
#1887=CARTESIAN_POINT('',(0.0468350600653142,-0.00226598019088079,0.00866348719006034));
#1888=CARTESIAN_POINT('',(0.0442107864376269,-0.027,0.0060392135623731));
#1889=CARTESIAN_POINT('Origin',(0.0044142135623731,0.,0.0014142135623731));
#1890=CARTESIAN_POINT('',(0.002,-0.00182642927585223,0.00382842712474619));
#1891=CARTESIAN_POINT('',(-0.00134123290482031,-0.00213017772174499,0.00716966002956651));
#1892=CARTESIAN_POINT('',(0.002,-0.027,0.00382842712474619));
#1893=CARTESIAN_POINT('',(0.002,0.,0.00382842712474619));
#1894=CARTESIAN_POINT('',(0.00128921356237309,-0.027,0.00453921356237309));
#1895=CARTESIAN_POINT('Origin',(0.,-0.02,0.022));
#1896=CARTESIAN_POINT('',(0.004,-0.0185,0.022));
#1897=CARTESIAN_POINT('',(0.,-0.0185,0.022));
#1898=CARTESIAN_POINT('Origin',(0.004,-0.02,0.022));
#1899=CARTESIAN_POINT('Origin',(0.002,0.,0.063));
#1900=CARTESIAN_POINT('',(0.002,-0.00182642927585223,0.131));
#1901=CARTESIAN_POINT('',(0.002,-0.00182642927585223,0.04725));
#1902=CARTESIAN_POINT('',(0.002,-0.0035,0.131));
#1903=CARTESIAN_POINT('',(0.002,0.,0.131));
#1904=CARTESIAN_POINT('',(0.002,-0.0035,0.117877511609003));
#1905=CARTESIAN_POINT('',(0.002,-0.0035,0.128));
#1906=CARTESIAN_POINT('',(0.002,-0.0035,0.114122489761904));
#1907=CARTESIAN_POINT('Origin',(0.002,-0.00500000007450581,0.116000000685453));
#1908=CARTESIAN_POINT('',(0.002,-0.0035,0.113000000408879));
#1909=CARTESIAN_POINT('',(0.002,-0.0035,0.128));
#1910=CARTESIAN_POINT('',(0.002,-0.002,0.113000000408879));
#1911=CARTESIAN_POINT('',(0.002,0.,0.113000000409336));
#1912=CARTESIAN_POINT('',(0.002,-0.002,0.103287834444806));
#1913=CARTESIAN_POINT('',(0.002,-0.002,0.120861945005388));
#1914=CARTESIAN_POINT('',(0.002,-0.006,0.103287834444806));
#1915=CARTESIAN_POINT('',(0.002,-0.0135,0.103287834444806));
#1916=CARTESIAN_POINT('',(0.002,-0.006,0.0980000004172325));
#1917=CARTESIAN_POINT('',(0.002,-0.006,0.115500000208616));
#1918=CARTESIAN_POINT('',(0.002,-0.018,0.0980000004172325));
#1919=CARTESIAN_POINT('',(0.002,-0.009,0.0980000004172325));
#1920=CARTESIAN_POINT('',(0.002,-0.018,0.103287834444806));
#1921=CARTESIAN_POINT('',(0.002,-0.018,0.123));
#1922=CARTESIAN_POINT('',(0.002,-0.027,0.103287834444806));
#1923=CARTESIAN_POINT('',(0.002,-0.0135,0.103287834444806));
#1924=CARTESIAN_POINT('',(0.002,-0.027,0.04725));
#1925=CARTESIAN_POINT('',(0.002,-0.02,0.019));
#1926=CARTESIAN_POINT('Origin',(0.002,-0.02,0.022));
#1927=CARTESIAN_POINT('Origin',(0.022,-0.027,0.0315));
#1928=CARTESIAN_POINT('',(0.044,-0.027,0.12001));
#1929=CARTESIAN_POINT('',(0.044,-0.027,0.05001));
#1930=CARTESIAN_POINT('',(0.0338510997116777,-0.027,0.133));
#1931=CARTESIAN_POINT('',(0.044,-0.027,0.12001));
#1932=CARTESIAN_POINT('',(0.0335,-0.027,0.133));
#1933=CARTESIAN_POINT('',(0.022,-0.027,0.133));
#1934=CARTESIAN_POINT('',(0.0335,-0.027,0.130200848647062));
#1935=CARTESIAN_POINT('',(0.0335,-0.027,0.11725));
#1936=CARTESIAN_POINT('',(0.042,-0.027,0.119321344773421));
#1937=CARTESIAN_POINT('',(0.0376701422477658,-0.027,0.124863309971979));
#1938=CARTESIAN_POINT('',(0.042,-0.027,0.01725));
#1939=CARTESIAN_POINT('',(0.0114999999245051,-0.027,0.113000000219577));
#1940=CARTESIAN_POINT('',(0.0115,-0.027,0.1130000006407));
#1941=CARTESIAN_POINT('',(0.0115,-0.027,0.133));
#1942=CARTESIAN_POINT('',(0.0115,-0.027,0.11625));
#1943=CARTESIAN_POINT('',(0.0090001,-0.027,0.133));
#1944=CARTESIAN_POINT('',(0.022,-0.027,0.133));
#1945=CARTESIAN_POINT('',(0.0090001,-0.027,0.131));
#1946=CARTESIAN_POINT('',(0.0090001,-0.027,0.11725));
#1947=CARTESIAN_POINT('',(0.009,-0.027,0.131));
#1948=CARTESIAN_POINT('',(0.01550005,-0.027,0.131));
#1949=CARTESIAN_POINT('',(0.009,-0.027,0.11300000040993));
#1950=CARTESIAN_POINT('',(0.009,-0.027,0.1130000006407));
#1951=CARTESIAN_POINT('',(0.,-0.027,0.113000000408869));
#1952=CARTESIAN_POINT('',(0.022,-0.027,0.113000000409336));
#1953=CARTESIAN_POINT('',(0.,-0.027,0.063));
#1954=CARTESIAN_POINT('Origin',(0.042,0.,0.003));
#1955=CARTESIAN_POINT('',(0.042,-0.00182642927585223,0.119321344773421));
#1956=CARTESIAN_POINT('',(0.042,0.,0.119321344773421));
#1957=CARTESIAN_POINT('',(0.042,-0.00182642927585223,0.01725));
#1958=CARTESIAN_POINT('',(0.042,-0.02,0.025));
#1959=CARTESIAN_POINT('Origin',(0.042,-0.02,0.022));
#1960=CARTESIAN_POINT('Origin',(0.,0.,0.063));
#1961=CARTESIAN_POINT('',(0.,-0.018,0.113000000408869));
#1962=CARTESIAN_POINT('',(0.,0.,0.113000000409336));
#1963=CARTESIAN_POINT('',(0.,-0.018,0.0980000004172325));
#1964=CARTESIAN_POINT('',(0.,-0.018,0.123));
#1965=CARTESIAN_POINT('',(0.,-0.006,0.0980000004172325));
#1966=CARTESIAN_POINT('',(0.,-0.009,0.0980000004172325));
#1967=CARTESIAN_POINT('',(0.,-0.006,0.113000000408869));
#1968=CARTESIAN_POINT('',(0.,-0.006,0.115500000208616));
#1969=CARTESIAN_POINT('',(0.,-0.0035,0.113000000408869));
#1970=CARTESIAN_POINT('',(0.,0.,0.113000000409336));
#1971=CARTESIAN_POINT('',(0.,-0.0035,0.114122489761904));
#1972=CARTESIAN_POINT('',(0.,-0.0035,0.128));
#1973=CARTESIAN_POINT('',(0.,-0.0035,0.117877511609003));
#1974=CARTESIAN_POINT('Origin',(0.,-0.00500000007450581,0.116000000685453));
#1975=CARTESIAN_POINT('',(0.,-0.0035,0.133));
#1976=CARTESIAN_POINT('',(0.,-0.0035,0.128));
#1977=CARTESIAN_POINT('',(0.,0.,0.133));
#1978=CARTESIAN_POINT('',(0.,0.,0.133));
#1979=CARTESIAN_POINT('',(0.,0.,0.063));
#1980=CARTESIAN_POINT('Origin',(0.011181071492085,-0.000991786412935408,
0.0315));
#1981=CARTESIAN_POINT('',(0.0165907220343745,-0.0005,0.131));
#1982=CARTESIAN_POINT('',(0.0165907220343745,-0.0005,0.0315));
#1983=CARTESIAN_POINT('',(0.0115,-0.000962792912215864,0.131));
#1984=CARTESIAN_POINT('',(0.00568107149208504,-0.00149178641293541,0.131));
#1985=CARTESIAN_POINT('',(0.0115,-0.000962792912215864,0.113000000408856));
#1986=CARTESIAN_POINT('',(0.0115,-0.000962792912215866,0.11625));
#1987=CARTESIAN_POINT('',(0.009,-0.00119006563948859,0.11300000040993));
#1988=CARTESIAN_POINT('',(0.011181071492085,-0.000991786412935408,0.113000000409336));
#1989=CARTESIAN_POINT('',(0.009,-0.00119006563948859,0.131));
#1990=CARTESIAN_POINT('',(0.009,-0.00119006563948859,0.10725000032035));
#1991=CARTESIAN_POINT('',(0.00568107149208504,-0.00149178641293541,0.131));
#1992=CARTESIAN_POINT('Origin',(0.022,-0.0005,0.0315));
#1993=CARTESIAN_POINT('',(0.0274092779656255,-0.0005,0.131));
#1994=CARTESIAN_POINT('',(0.0274092779656255,-0.0005,0.0315));
#1995=CARTESIAN_POINT('',(0.011,-0.0005,0.131));
#1996=CARTESIAN_POINT('Origin',(0.032818928507915,-0.000991786412935408,
0.0315));
#1997=CARTESIAN_POINT('',(0.032875634534546,-0.000996941506265504,0.131));
#1998=CARTESIAN_POINT('',(0.0396819541165987,-0.00161569783190666,0.12228830820492));
#1999=CARTESIAN_POINT('',(0.0164992563767674,0.000491820144441641,0.131));
#2000=CARTESIAN_POINT('Origin',(0.044,0.,0.003));
#2001=CARTESIAN_POINT('',(0.044,0.,0.12001));
#2002=CARTESIAN_POINT('',(0.044,0.,0.05001));
#2003=CARTESIAN_POINT('',(0.044,0.,0.12001));
#2004=CARTESIAN_POINT('Origin',(0.011,0.001,0.0315));
#2005=CARTESIAN_POINT('',(0.0165,0.0015,0.133));
#2006=CARTESIAN_POINT('',(0.0055,0.0005,0.133));
#2007=CARTESIAN_POINT('',(0.0165,0.0015,0.0315));
#2008=CARTESIAN_POINT('Origin',(0.022,0.0015,0.0315));
#2009=CARTESIAN_POINT('',(0.0275,0.0015,0.133));
#2010=CARTESIAN_POINT('',(0.022,0.0015,0.133));
#2011=CARTESIAN_POINT('',(0.0275,0.0015,0.0315));
#2012=CARTESIAN_POINT('Origin',(0.033,0.001,0.0315));
#2013=CARTESIAN_POINT('',(0.0338510997116777,0.000922627298938388,0.133));
#2014=CARTESIAN_POINT('',(0.0166803278688525,0.00248360655737705,0.133));
#2015=CARTESIAN_POINT('',(0.0413220383541213,0.000243451058716246,0.123437634599976));
#2016=CARTESIAN_POINT('Origin',(0.0338510997116777,0.,0.133));
#2017=CARTESIAN_POINT('',(0.0338510997116777,0.,0.133));
#2018=CARTESIAN_POINT('Origin',(0.0045,-0.0035,0.123));
#2019=CARTESIAN_POINT('',(0.,-0.0035,0.117877511609003));
#2020=CARTESIAN_POINT('',(0.0078001,-0.0035,0.131));
#2021=CARTESIAN_POINT('',(0.00225,-0.0035,0.131));
#2022=CARTESIAN_POINT('',(0.0078001,-0.0035,0.133));
#2023=CARTESIAN_POINT('',(0.0078001,-0.0035,0.118));
#2024=CARTESIAN_POINT('',(0.00225,-0.0035,0.133));
#2025=CARTESIAN_POINT('Origin',(0.009,-0.027,0.113000000409336));
#2026=CARTESIAN_POINT('',(0.009,-0.002,0.11300000041024));
#2027=CARTESIAN_POINT('',(0.00675,-0.002,0.113000000409336));
#2028=CARTESIAN_POINT('',(0.009,-0.0035,0.113000000409336));
#2029=CARTESIAN_POINT('',(0.009,-0.006,0.113000000409892));
#2030=CARTESIAN_POINT('',(0.009,-0.006,0.113000000409336));
#2031=CARTESIAN_POINT('',(0.009,-0.027,0.113000000409336));
#2032=CARTESIAN_POINT('Origin',(0.,0.,0.131));
#2033=CARTESIAN_POINT('',(0.0078001,-0.002,0.131));
#2034=CARTESIAN_POINT('',(0.0078001,-0.0135,0.131));
#2035=CARTESIAN_POINT('',(0.009,-0.002,0.131));
#2036=CARTESIAN_POINT('',(0.009,-0.0135,0.131));
#2037=CARTESIAN_POINT('',(0.004200025,-0.002,0.131));
#2038=CARTESIAN_POINT('Origin',(0.0115,-0.027,0.131));
#2039=CARTESIAN_POINT('',(0.0115,-0.006,0.131));
#2040=CARTESIAN_POINT('',(0.0115,-0.0135,0.131));
#2041=CARTESIAN_POINT('',(0.0115,-0.006,0.133));
#2042=CARTESIAN_POINT('',(0.0115,-0.006,0.113));
#2043=CARTESIAN_POINT('',(0.0115,-0.0135,0.133));
#2044=CARTESIAN_POINT('',(0.011499999936737,-0.018,0.113000000315806));
#2045=CARTESIAN_POINT('',(0.0115,-0.027,0.113));
#2046=CARTESIAN_POINT('',(0.011499999936737,-0.006,0.113000000315806));
#2047=CARTESIAN_POINT('',(0.0115,-0.027,0.113000000409336));
#2048=CARTESIAN_POINT('',(0.011499999936738,-0.002,0.113000000315807));
#2049=CARTESIAN_POINT('',(0.0115,-0.027,0.113));
#2050=CARTESIAN_POINT('',(0.0115,-0.027,0.113000000409336));
#2051=CARTESIAN_POINT('',(0.0115,-0.01855,0.116));
#2052=CARTESIAN_POINT('Origin',(0.0115,-0.0195,0.116));
#2053=CARTESIAN_POINT('',(0.0115,-0.00409686722516841,0.116000000685453));
#2054=CARTESIAN_POINT('Origin',(0.0115,-0.00500000007450581,0.116000000685453));
#2055=CARTESIAN_POINT('Origin',(0.009,-0.027,0.113000000409336));
#2056=CARTESIAN_POINT('',(0.009,-0.002,0.113000000409336));
#2057=CARTESIAN_POINT('',(0.009,-0.027,0.113000000409336));
#2058=CARTESIAN_POINT('Origin',(0.,0.,0.131));
#2059=CARTESIAN_POINT('',(0.032875634534546,-0.006,0.131));
#2060=CARTESIAN_POINT('',(0.01125,-0.006,0.131));
#2061=CARTESIAN_POINT('',(0.032875634534546,0.,0.131));
#2062=CARTESIAN_POINT('Origin',(0.0225,-0.006,0.131600424323531));
#2063=CARTESIAN_POINT('',(0.0335,-0.006,0.130200848647062));
#2064=CARTESIAN_POINT('',(0.0304633237407618,-0.006,0.134087617014753));
#2065=CARTESIAN_POINT('',(0.0335,-0.006,0.133));
#2066=CARTESIAN_POINT('',(0.0335,-0.006,0.133));
#2067=CARTESIAN_POINT('',(0.01125,-0.006,0.133));
#2068=CARTESIAN_POINT('Origin',(0.0335,-0.027,0.133));
#2069=CARTESIAN_POINT('',(0.0335,-0.0135,0.133));
#2070=CARTESIAN_POINT('',(0.0335,-0.0135,0.130200848647062));
#2071=CARTESIAN_POINT('Origin',(0.00675,-0.002,0.108143917542753));
#2072=CARTESIAN_POINT('',(0.0115,-0.002,0.1130000006407));
#2073=CARTESIAN_POINT('Origin',(0.0115,-0.027,0.1130000006407));
#2074=CARTESIAN_POINT('',(0.00868849121571282,-0.018,0.110125701632888));
#2075=CARTESIAN_POINT('Origin',(0.0115,-0.027,0.1130000006407));
#2076=CARTESIAN_POINT('',(0.00493940587116982,-0.006,0.106292886901436));
#2077=CARTESIAN_POINT('Origin',(0.,-0.018,0.113));
#2078=CARTESIAN_POINT('',(0.,-0.018,0.0980000004172325));
#2079=CARTESIAN_POINT('',(0.009,-0.018,0.113000000409892));
#2080=CARTESIAN_POINT('',(0.009,-0.018,0.113000000409336));
#2081=CARTESIAN_POINT('',(0.,-0.018,0.113000000409336));
#2082=CARTESIAN_POINT('Origin',(0.0225,-0.006,0.131600424323531));
#2083=CARTESIAN_POINT('',(0.009,-0.006,0.113000000409336));
#2084=CARTESIAN_POINT('',(0.,-0.006,0.0980000004172325));
#2085=CARTESIAN_POINT('Origin',(0.009,-0.027,0.113000000409336));
#2086=CARTESIAN_POINT('',(0.009,-0.027,0.113000000409336));
#2087=CARTESIAN_POINT('Origin',(0.,-0.0195,0.1165));
#2088=CARTESIAN_POINT('',(0.01075,-0.00575209689606884,0.1165));
#2089=CARTESIAN_POINT('',(0.009,-0.00575209689606884,0.1165));
#2090=CARTESIAN_POINT('',(0.,-0.00575209689606884,0.1165));
#2091=CARTESIAN_POINT('',(0.009,-0.0186922252789298,0.1165));
#2092=CARTESIAN_POINT('',(0.009,-0.02325,0.1165));
#2093=CARTESIAN_POINT('',(0.01075,-0.0186922252789298,0.1165));
#2094=CARTESIAN_POINT('',(0.,-0.0186922252789298,0.1165));
#2095=CARTESIAN_POINT('',(0.01075,-0.0195,0.1165));
#2096=CARTESIAN_POINT('Origin',(0.,-0.0195,0.132));
#2097=CARTESIAN_POINT('',(0.0090001,-0.0195,0.131));
#2098=CARTESIAN_POINT('',(0.0090001,-0.0195,0.132));
#2099=CARTESIAN_POINT('',(0.0090001,-0.0195,0.1325));
#2100=CARTESIAN_POINT('',(0.01075,-0.0195,0.132));
#2101=CARTESIAN_POINT('',(0.,-0.0195,0.132));
#2102=CARTESIAN_POINT('',(0.01075,-0.0195,0.11695));
#2103=CARTESIAN_POINT('',(0.01075,-0.0195,0.132));
#2104=CARTESIAN_POINT('',(0.009,-0.0195,0.11695));
#2105=CARTESIAN_POINT('',(0.,-0.0195,0.11695));
#2106=CARTESIAN_POINT('',(0.009,-0.0195,0.131));
#2107=CARTESIAN_POINT('',(0.009,-0.0195,0.1325));
#2108=CARTESIAN_POINT('',(0.00450005,-0.0195,0.131));
#2109=CARTESIAN_POINT('Origin',(0.01075,-0.01225,0.12425));
#2110=CARTESIAN_POINT('',(0.01075,-0.005,0.116903133534791));
#2111=CARTESIAN_POINT('Origin',(0.01075,-0.00500000007450581,0.116000000685453));
#2112=CARTESIAN_POINT('Origin',(0.01075,-0.0195,0.116));
#2113=CARTESIAN_POINT('',(0.01075,-0.005,0.132));
#2114=CARTESIAN_POINT('',(0.01075,-0.005,0.132));
#2115=CARTESIAN_POINT('',(0.01075,-0.005,0.1165));
#2116=CARTESIAN_POINT('Origin',(0.,-0.005,0.1165));
#2117=CARTESIAN_POINT('',(0.009,-0.005,0.116903133534791));
#2118=CARTESIAN_POINT('',(0.,-0.005,0.116903133534791));
#2119=CARTESIAN_POINT('',(0.009,-0.005,0.132));
#2120=CARTESIAN_POINT('',(0.,-0.005,0.132));
#2121=CARTESIAN_POINT('',(0.009,-0.005,0.12475));
#2122=CARTESIAN_POINT('Origin',(0.,-0.0195,0.116));
#2123=CARTESIAN_POINT('',(0.009,-0.01855,0.116));
#2124=CARTESIAN_POINT('Origin',(0.009,-0.0195,0.116));
#2125=CARTESIAN_POINT('Origin',(0.009,-0.0195,0.116));
#2126=CARTESIAN_POINT('',(0.,-0.01855,0.116));
#2127=CARTESIAN_POINT('Origin',(0.,-0.00500000007450581,0.116000000685453));
#2128=CARTESIAN_POINT('',(0.009,-0.00409686722516841,0.116000000685453));
#2129=CARTESIAN_POINT('Origin',(0.009,-0.00500000007450581,0.116000000685453));
#2130=CARTESIAN_POINT('Origin',(0.009,-0.00500000007450581,0.116000000685453));
#2131=CARTESIAN_POINT('',(0.,-0.00409686722516841,0.116000000685453));
#2132=CARTESIAN_POINT('Origin',(0.0322750782044643,0.,0.131768677049349));
#2133=CARTESIAN_POINT('Origin',(0.009,-0.027,0.133));
#2134=CARTESIAN_POINT('',(0.009,-0.027,0.113000000409336));
#2135=CARTESIAN_POINT('',(0.009,-0.027,0.131));
#2136=CARTESIAN_POINT('',(0.009,-0.017,0.132));
#2137=CARTESIAN_POINT('',(0.009,-0.016,0.132));
#2138=CARTESIAN_POINT('',(0.009,-0.017,0.133));
#2139=CARTESIAN_POINT('',(0.009,-0.017,0.1325));
#2140=CARTESIAN_POINT('',(0.009,-0.002,0.133));
#2141=CARTESIAN_POINT('',(0.009,-0.0135,0.133));
#2142=CARTESIAN_POINT('',(0.009,-0.002,0.113));
#2143=CARTESIAN_POINT('Origin',(0.,-0.005,0.132));
#2144=CARTESIAN_POINT('',(0.0090001,-0.017,0.132));
#2145=CARTESIAN_POINT('',(0.0090001,-0.016,0.132));
#2146=CARTESIAN_POINT('',(0.004500025,-0.017,0.132));
#2147=CARTESIAN_POINT('Origin',(0.0090001,-0.027,0.133));
#2148=CARTESIAN_POINT('',(0.0090001,-0.027,0.131));
#2149=CARTESIAN_POINT('',(0.0090001,-0.017,0.133));
#2150=CARTESIAN_POINT('',(0.0090001,-0.0135,0.133));
#2151=CARTESIAN_POINT('',(0.0090001,-0.017,0.133));
#2152=CARTESIAN_POINT('Origin',(0.,0.,0.131));
#2153=CARTESIAN_POINT('Origin',(0.00900005,-0.017,0.132));
#2154=CARTESIAN_POINT('',(0.004500025,-0.017,0.133));
#2155=CARTESIAN_POINT('Origin',(0.009,-0.027,0.113000000409336));
#2156=CARTESIAN_POINT('Origin',(0.,0.,0.133));
#2157=CARTESIAN_POINT('',(0.0078001,-0.002,0.133));
#2158=CARTESIAN_POINT('',(0.0078001,-0.0135,0.133));
#2159=CARTESIAN_POINT('',(0.004200025,-0.002,0.133));
#2160=CARTESIAN_POINT('Origin',(0.00675,-0.002,0.108143917542753));
#2161=CARTESIAN_POINT('',(0.0078001,-0.002,0.133));
#2162=CARTESIAN_POINT('Origin',(0.0078001,-0.027,0.113));
#2163=CARTESIAN_POINT('Origin',(0.0045,-0.0035,0.123));
#2164=CARTESIAN_POINT('',(0.,-0.0035,0.114122489761904));
#2165=CARTESIAN_POINT('Origin',(0.,-0.00500000007450581,0.116000000685453));
#2166=CARTESIAN_POINT('Origin',(0.,-0.006,0.0980000004172325));
#2167=CARTESIAN_POINT('Origin',(0.04,-0.02,0.022));
#2168=CARTESIAN_POINT('',(0.04,-0.02,0.025));
#2169=CARTESIAN_POINT('',(0.04,-0.02,0.025));
#2170=CARTESIAN_POINT('Origin',(0.04,-0.02,0.022));
#2171=CARTESIAN_POINT('Origin',(0.04,-0.02,0.022));
#2172=CARTESIAN_POINT('Origin',(0.004,-0.02,0.022));
#2173=CARTESIAN_POINT('',(0.004,-0.02,0.019));
#2174=CARTESIAN_POINT('',(0.004,-0.02,0.019));
#2175=CARTESIAN_POINT('Origin',(0.004,-0.02,0.022));
#2176=CARTESIAN_POINT('Origin',(0.004,-0.02,0.022));
#2177=UNCERTAINTY_MEASURE_WITH_UNIT(LENGTH_MEASURE(1.E-5),#2181,
'DISTANCE_ACCURACY_VALUE',
'Maximum model space distance between geometric entities at asserted c
onnectivities');
#2178=UNCERTAINTY_MEASURE_WITH_UNIT(LENGTH_MEASURE(1.E-5),#2181,
'DISTANCE_ACCURACY_VALUE',
'Maximum model space distance between geometric entities at asserted c
onnectivities');
#2179=(
GEOMETRIC_REPRESENTATION_CONTEXT(3)
GLOBAL_UNCERTAINTY_ASSIGNED_CONTEXT((#2177))
GLOBAL_UNIT_ASSIGNED_CONTEXT((#2181,#2182,#2183))
REPRESENTATION_CONTEXT('','3D')
);
#2180=(
GEOMETRIC_REPRESENTATION_CONTEXT(3)
GLOBAL_UNCERTAINTY_ASSIGNED_CONTEXT((#2178))
GLOBAL_UNIT_ASSIGNED_CONTEXT((#2181,#2182,#2183))
REPRESENTATION_CONTEXT('','3D')
);
#2181=(
LENGTH_UNIT()
NAMED_UNIT(*)
SI_UNIT($,.METRE.)
);
#2182=(
NAMED_UNIT(*)
PLANE_ANGLE_UNIT()
SI_UNIT($,.RADIAN.)
);
#2183=(
NAMED_UNIT(*)
SI_UNIT($,.STERADIAN.)
SOLID_ANGLE_UNIT()
);
#2184=SHAPE_DEFINITION_REPRESENTATION(#2185,#2186);
#2185=PRODUCT_DEFINITION_SHAPE('',$,#2188);
#2186=SHAPE_REPRESENTATION('',(#1359),#2179);
#2187=PRODUCT_DEFINITION_CONTEXT('part definition',#2192,'design');
#2188=PRODUCT_DEFINITION('X Axis Pulley Cover',
'X axis Limit Switch Holder v2',#2189,#2187);
#2189=PRODUCT_DEFINITION_FORMATION('',$,#2194);
#2190=PRODUCT_RELATED_PRODUCT_CATEGORY('X axis Limit Switch Holder v2',
'X axis Limit Switch Holder v2',(#2194));
#2191=APPLICATION_PROTOCOL_DEFINITION('international standard',
'automotive_design',2009,#2192);
#2192=APPLICATION_CONTEXT(
'Core Data for Automotive Mechanical Design Process');
#2193=PRODUCT_CONTEXT('part definition',#2192,'mechanical');
#2194=PRODUCT('X Axis Pulley Cover','X axis Limit Switch Holder v2',
'STEP AP242 Edition 2',(#2193));
#2195=PRESENTATION_STYLE_ASSIGNMENT((#2197));
#2196=PRESENTATION_STYLE_ASSIGNMENT((#2198));
#2197=SURFACE_STYLE_USAGE(.BOTH.,#2199);
#2198=SURFACE_STYLE_USAGE(.BOTH.,#2200);
#2199=SURFACE_SIDE_STYLE('',(#2201));
#2200=SURFACE_SIDE_STYLE('',(#2202));
#2201=SURFACE_STYLE_FILL_AREA(#2203);
#2202=SURFACE_STYLE_FILL_AREA(#2204);
#2203=FILL_AREA_STYLE('Steel - Satin',(#2205));
#2204=FILL_AREA_STYLE('Opaque(196,53,39)',(#2206));
#2205=FILL_AREA_STYLE_COLOUR('Steel - Satin',#2207);
#2206=FILL_AREA_STYLE_COLOUR('Opaque(196,53,39)',#2208);
#2207=COLOUR_RGB('Steel - Satin',0.627450980392157,0.627450980392157,0.627450980392157);
#2208=COLOUR_RGB('Opaque(196,53,39)',0.768627450980392,0.207843137254902,
0.152941176470588);
ENDSEC;
END-ISO-10303-21;
