ISO-10303-21;
HEADER;
/* Generated by software containing ST-Developer
 * from STEP Tools, Inc. (www.steptools.com) 
 */

FILE_DESCRIPTION(
/* description */ ('STEP AP242 Edition 2'),
/* implementation_level */ '2;1');

FILE_NAME(
/* name */ 'Z axis Limit Switch Holder.step',
/* time_stamp */ '2026-09-15T02:51:56+08:00',
/* author */ (''),
/* organization */ (''),
/* preprocessor_version */ 'ST-DEVELOPER v20.1',
/* originating_system */ 'Autodesk Translation Framework v15.8.0.0',
/* authorisation */ '');

FILE_SCHEMA (('AUTOMOTIVE_DESIGN { 1 0 10303 214 3 1 1 }'));
ENDSEC;

DATA;
#10=MECHANICAL_DESIGN_GEOMETRIC_PRESENTATION_REPRESENTATION('',(#13),#1152);
#11=SHAPE_REPRESENTATION_RELATIONSHIP('SRR','None',#1159,#12);
#12=ADVANCED_BREP_SHAPE_REPRESENTATION('',(#14),#1151);
#13=STYLED_ITEM('',(#1169),#14);
#14=MANIFOLD_SOLID_BREP('Body1',#683);
#15=FACE_BOUND('',#83,.T.);
#16=FACE_BOUND('',#84,.T.);
#17=FACE_BOUND('',#88,.T.);
#18=FACE_BOUND('',#89,.T.);
#19=FACE_BOUND('',#90,.T.);
#20=FACE_BOUND('',#93,.T.);
#21=FACE_BOUND('',#94,.T.);
#22=FACE_BOUND('',#96,.T.);
#23=FACE_BOUND('',#97,.T.);
#24=PLANE('',#703);
#25=PLANE('',#706);
#26=PLANE('',#707);
#27=PLANE('',#708);
#28=PLANE('',#719);
#29=PLANE('',#720);
#30=PLANE('',#723);
#31=PLANE('',#728);
#32=PLANE('',#729);
#33=PLANE('',#730);
#34=PLANE('',#731);
#35=PLANE('',#732);
#36=PLANE('',#733);
#37=PLANE('',#736);
#38=PLANE('',#739);
#39=PLANE('',#742);
#40=PLANE('',#745);
#41=PLANE('',#748);
#42=PLANE('',#751);
#43=PLANE('',#754);
#44=PLANE('',#757);
#45=FACE_OUTER_BOUND('',#80,.T.);
#46=FACE_OUTER_BOUND('',#81,.T.);
#47=FACE_OUTER_BOUND('',#82,.T.);
#48=FACE_OUTER_BOUND('',#85,.T.);
#49=FACE_OUTER_BOUND('',#86,.T.);
#50=FACE_OUTER_BOUND('',#87,.T.);
#51=FACE_OUTER_BOUND('',#91,.T.);
#52=FACE_OUTER_BOUND('',#92,.T.);
#53=FACE_OUTER_BOUND('',#95,.T.);
#54=FACE_OUTER_BOUND('',#98,.T.);
#55=FACE_OUTER_BOUND('',#99,.T.);
#56=FACE_OUTER_BOUND('',#100,.T.);
#57=FACE_OUTER_BOUND('',#101,.T.);
#58=FACE_OUTER_BOUND('',#102,.T.);
#59=FACE_OUTER_BOUND('',#103,.T.);
#60=FACE_OUTER_BOUND('',#104,.T.);
#61=FACE_OUTER_BOUND('',#105,.T.);
#62=FACE_OUTER_BOUND('',#106,.T.);
#63=FACE_OUTER_BOUND('',#107,.T.);
#64=FACE_OUTER_BOUND('',#108,.T.);
#65=FACE_OUTER_BOUND('',#109,.T.);
#66=FACE_OUTER_BOUND('',#110,.T.);
#67=FACE_OUTER_BOUND('',#111,.T.);
#68=FACE_OUTER_BOUND('',#112,.T.);
#69=FACE_OUTER_BOUND('',#113,.T.);
#70=FACE_OUTER_BOUND('',#114,.T.);
#71=FACE_OUTER_BOUND('',#115,.T.);
#72=FACE_OUTER_BOUND('',#116,.T.);
#73=FACE_OUTER_BOUND('',#117,.T.);
#74=FACE_OUTER_BOUND('',#118,.T.);
#75=FACE_OUTER_BOUND('',#119,.T.);
#76=FACE_OUTER_BOUND('',#120,.T.);
#77=FACE_OUTER_BOUND('',#121,.T.);
#78=FACE_OUTER_BOUND('',#122,.T.);
#79=FACE_OUTER_BOUND('',#123,.T.);
#80=EDGE_LOOP('',(#444,#445,#446,#447));
#81=EDGE_LOOP('',(#448,#449,#450,#451));
#82=EDGE_LOOP('',(#452,#453,#454,#455,#456,#457,#458,#459));
#83=EDGE_LOOP('',(#460));
#84=EDGE_LOOP('',(#461));
#85=EDGE_LOOP('',(#462,#463,#464,#465));
#86=EDGE_LOOP('',(#466,#467,#468,#469));
#87=EDGE_LOOP('',(#470,#471,#472,#473,#474,#475,#476,#477));
#88=EDGE_LOOP('',(#478));
#89=EDGE_LOOP('',(#479));
#90=EDGE_LOOP('',(#480,#481,#482,#483,#484,#485,#486,#487,#488,#489,#490,
#491,#492,#493,#494,#495));
#91=EDGE_LOOP('',(#496,#497,#498,#499));
#92=EDGE_LOOP('',(#500,#501,#502,#503,#504,#505,#506));
#93=EDGE_LOOP('',(#507));
#94=EDGE_LOOP('',(#508));
#95=EDGE_LOOP('',(#509,#510,#511,#512,#513,#514,#515));
#96=EDGE_LOOP('',(#516));
#97=EDGE_LOOP('',(#517));
#98=EDGE_LOOP('',(#518,#519,#520,#521));
#99=EDGE_LOOP('',(#522,#523,#524,#525));
#100=EDGE_LOOP('',(#526,#527,#528,#529));
#101=EDGE_LOOP('',(#530,#531,#532,#533));
#102=EDGE_LOOP('',(#534,#535,#536,#537));
#103=EDGE_LOOP('',(#538,#539,#540,#541));
#104=EDGE_LOOP('',(#542,#543,#544,#545));
#105=EDGE_LOOP('',(#546,#547,#548,#549));
#106=EDGE_LOOP('',(#550,#551,#552,#553));
#107=EDGE_LOOP('',(#554,#555,#556,#557));
#108=EDGE_LOOP('',(#558,#559,#560,#561));
#109=EDGE_LOOP('',(#562,#563,#564,#565));
#110=EDGE_LOOP('',(#566,#567,#568,#569));
#111=EDGE_LOOP('',(#570,#571,#572,#573));
#112=EDGE_LOOP('',(#574,#575,#576,#577));
#113=EDGE_LOOP('',(#578,#579,#580,#581));
#114=EDGE_LOOP('',(#582,#583,#584,#585));
#115=EDGE_LOOP('',(#586,#587,#588,#589));
#116=EDGE_LOOP('',(#590,#591,#592,#593));
#117=EDGE_LOOP('',(#594,#595,#596,#597));
#118=EDGE_LOOP('',(#598,#599,#600,#601));
#119=EDGE_LOOP('',(#602,#603,#604,#605));
#120=EDGE_LOOP('',(#606,#607,#608,#609));
#121=EDGE_LOOP('',(#610,#611,#612,#613,#614,#615,#616,#617,#618,#619,#620,
#621,#622,#623,#624,#625));
#122=EDGE_LOOP('',(#626,#627,#628,#629));
#123=EDGE_LOOP('',(#630,#631,#632,#633));
#124=LINE('',#960,#191);
#125=LINE('',#966,#192);
#126=LINE('',#971,#193);
#127=LINE('',#973,#194);
#128=LINE('',#975,#195);
#129=LINE('',#977,#196);
#130=LINE('',#979,#197);
#131=LINE('',#981,#198);
#132=LINE('',#983,#199);
#133=LINE('',#984,#200);
#134=LINE('',#991,#201);
#135=LINE('',#993,#202);
#136=LINE('',#994,#203);
#137=LINE('',#997,#204);
#138=LINE('',#998,#205);
#139=LINE('',#1001,#206);
#140=LINE('',#1005,#207);
#141=LINE('',#1009,#208);
#142=LINE('',#1010,#209);
#143=LINE('',#1015,#210);
#144=LINE('',#1019,#211);
#145=LINE('',#1023,#212);
#146=LINE('',#1027,#213);
#147=LINE('',#1031,#214);
#148=LINE('',#1035,#215);
#149=LINE('',#1039,#216);
#150=LINE('',#1042,#217);
#151=LINE('',#1045,#218);
#152=LINE('',#1046,#219);
#153=LINE('',#1049,#220);
#154=LINE('',#1051,#221);
#155=LINE('',#1053,#222);
#156=LINE('',#1054,#223);
#157=LINE('',#1060,#224);
#158=LINE('',#1062,#225);
#159=LINE('',#1066,#226);
#160=LINE('',#1069,#227);
#161=LINE('',#1071,#228);
#162=LINE('',#1073,#229);
#163=LINE('',#1075,#230);
#164=LINE('',#1078,#231);
#165=LINE('',#1080,#232);
#166=LINE('',#1081,#233);
#167=LINE('',#1084,#234);
#168=LINE('',#1086,#235);
#169=LINE('',#1087,#236);
#170=LINE('',#1090,#237);
#171=LINE('',#1094,#238);
#172=LINE('',#1095,#239);
#173=LINE('',#1098,#240);
#174=LINE('',#1102,#241);
#175=LINE('',#1103,#242);
#176=LINE('',#1106,#243);
#177=LINE('',#1110,#244);
#178=LINE('',#1111,#245);
#179=LINE('',#1114,#246);
#180=LINE('',#1118,#247);
#181=LINE('',#1119,#248);
#182=LINE('',#1122,#249);
#183=LINE('',#1126,#250);
#184=LINE('',#1127,#251);
#185=LINE('',#1130,#252);
#186=LINE('',#1134,#253);
#187=LINE('',#1135,#254);
#188=LINE('',#1138,#255);
#189=LINE('',#1142,#256);
#190=LINE('',#1143,#257);
#191=VECTOR('',#766,1.4);
#192=VECTOR('',#773,1.4);
#193=VECTOR('',#778,10.);
#194=VECTOR('',#779,10.);
#195=VECTOR('',#780,10.);
#196=VECTOR('',#781,10.);
#197=VECTOR('',#782,10.);
#198=VECTOR('',#783,10.);
#199=VECTOR('',#784,10.);
#200=VECTOR('',#785,10.);
#201=VECTOR('',#792,10.);
#202=VECTOR('',#793,10.);
#203=VECTOR('',#794,10.);
#204=VECTOR('',#797,10.);
#205=VECTOR('',#798,10.);
#206=VECTOR('',#801,1000.);
#207=VECTOR('',#804,1000.);
#208=VECTOR('',#807,10.);
#209=VECTOR('',#808,10.);
#210=VECTOR('',#811,1000.);
#211=VECTOR('',#814,1000.);
#212=VECTOR('',#817,1000.);
#213=VECTOR('',#820,1000.);
#214=VECTOR('',#823,1000.);
#215=VECTOR('',#826,1000.);
#216=VECTOR('',#829,1000.);
#217=VECTOR('',#832,1000.);
#218=VECTOR('',#835,1000.);
#219=VECTOR('',#836,1000.);
#220=VECTOR('',#839,10.);
#221=VECTOR('',#840,10.);
#222=VECTOR('',#841,10.);
#223=VECTOR('',#842,10.);
#224=VECTOR('',#849,1000.);
#225=VECTOR('',#850,1000.);
#226=VECTOR('',#853,1000.);
#227=VECTOR('',#858,2.35);
#228=VECTOR('',#861,2.35);
#229=VECTOR('',#864,10.);
#230=VECTOR('',#867,10.);
#231=VECTOR('',#872,1000.);
#232=VECTOR('',#875,1000.);
#233=VECTOR('',#876,1000.);
#234=VECTOR('',#879,1000.);
#235=VECTOR('',#880,1000.);
#236=VECTOR('',#881,1000.);
#237=VECTOR('',#884,1000.);
#238=VECTOR('',#889,1000.);
#239=VECTOR('',#890,1000.);
#240=VECTOR('',#893,1000.);
#241=VECTOR('',#898,1000.);
#242=VECTOR('',#899,1000.);
#243=VECTOR('',#902,1000.);
#244=VECTOR('',#907,1000.);
#245=VECTOR('',#908,1000.);
#246=VECTOR('',#911,1000.);
#247=VECTOR('',#916,1000.);
#248=VECTOR('',#917,1000.);
#249=VECTOR('',#920,1000.);
#250=VECTOR('',#925,1000.);
#251=VECTOR('',#926,1000.);
#252=VECTOR('',#929,1000.);
#253=VECTOR('',#934,1000.);
#254=VECTOR('',#935,1000.);
#255=VECTOR('',#938,1000.);
#256=VECTOR('',#943,1000.);
#257=VECTOR('',#944,1000.);
#258=CIRCLE('',#698,1.4);
#259=CIRCLE('',#699,1.4);
#260=CIRCLE('',#701,1.4);
#261=CIRCLE('',#702,1.4);
#262=CIRCLE('',#704,2.35);
#263=CIRCLE('',#705,2.35);
#264=CIRCLE('',#709,1.5);
#265=CIRCLE('',#710,1.5);
#266=CIRCLE('',#711,0.800000503659382);
#267=CIRCLE('',#712,0.800000037997961);
#268=CIRCLE('',#713,0.800000503659785);
#269=CIRCLE('',#714,0.800001202152842);
#270=CIRCLE('',#715,0.800000503659557);
#271=CIRCLE('',#716,0.800000503659255);
#272=CIRCLE('',#717,0.800000503659797);
#273=CIRCLE('',#718,0.799999572336677);
#274=CIRCLE('',#721,2.35);
#275=CIRCLE('',#722,2.35);
#276=CIRCLE('',#724,1.5);
#277=CIRCLE('',#725,1.5);
#278=CIRCLE('',#735,0.800000503659382);
#279=CIRCLE('',#738,0.799999572336677);
#280=CIRCLE('',#741,0.800000503659797);
#281=CIRCLE('',#744,0.800000503659255);
#282=CIRCLE('',#747,0.800000503659557);
#283=CIRCLE('',#750,0.800001202152842);
#284=CIRCLE('',#753,0.800000503659785);
#285=CIRCLE('',#756,0.800000037997961);
#286=VERTEX_POINT('',#957);
#287=VERTEX_POINT('',#959);
#288=VERTEX_POINT('',#963);
#289=VERTEX_POINT('',#965);
#290=VERTEX_POINT('',#969);
#291=VERTEX_POINT('',#970);
#292=VERTEX_POINT('',#972);
#293=VERTEX_POINT('',#974);
#294=VERTEX_POINT('',#976);
#295=VERTEX_POINT('',#978);
#296=VERTEX_POINT('',#980);
#297=VERTEX_POINT('',#982);
#298=VERTEX_POINT('',#985);
#299=VERTEX_POINT('',#987);
#300=VERTEX_POINT('',#990);
#301=VERTEX_POINT('',#992);
#302=VERTEX_POINT('',#996);
#303=VERTEX_POINT('',#1000);
#304=VERTEX_POINT('',#1002);
#305=VERTEX_POINT('',#1004);
#306=VERTEX_POINT('',#1006);
#307=VERTEX_POINT('',#1008);
#308=VERTEX_POINT('',#1011);
#309=VERTEX_POINT('',#1012);
#310=VERTEX_POINT('',#1014);
#311=VERTEX_POINT('',#1016);
#312=VERTEX_POINT('',#1018);
#313=VERTEX_POINT('',#1020);
#314=VERTEX_POINT('',#1022);
#315=VERTEX_POINT('',#1024);
#316=VERTEX_POINT('',#1026);
#317=VERTEX_POINT('',#1028);
#318=VERTEX_POINT('',#1030);
#319=VERTEX_POINT('',#1032);
#320=VERTEX_POINT('',#1034);
#321=VERTEX_POINT('',#1036);
#322=VERTEX_POINT('',#1038);
#323=VERTEX_POINT('',#1040);
#324=VERTEX_POINT('',#1044);
#325=VERTEX_POINT('',#1048);
#326=VERTEX_POINT('',#1050);
#327=VERTEX_POINT('',#1052);
#328=VERTEX_POINT('',#1055);
#329=VERTEX_POINT('',#1057);
#330=VERTEX_POINT('',#1061);
#331=VERTEX_POINT('',#1063);
#332=VERTEX_POINT('',#1065);
#333=VERTEX_POINT('',#1083);
#334=VERTEX_POINT('',#1085);
#335=VERTEX_POINT('',#1089);
#336=VERTEX_POINT('',#1093);
#337=VERTEX_POINT('',#1097);
#338=VERTEX_POINT('',#1101);
#339=VERTEX_POINT('',#1105);
#340=VERTEX_POINT('',#1109);
#341=VERTEX_POINT('',#1113);
#342=VERTEX_POINT('',#1117);
#343=VERTEX_POINT('',#1121);
#344=VERTEX_POINT('',#1125);
#345=VERTEX_POINT('',#1129);
#346=VERTEX_POINT('',#1133);
#347=VERTEX_POINT('',#1137);
#348=VERTEX_POINT('',#1141);
#349=EDGE_CURVE('',#286,#286,#258,.T.);
#350=EDGE_CURVE('',#286,#287,#124,.T.);
#351=EDGE_CURVE('',#287,#287,#259,.T.);
#352=EDGE_CURVE('',#288,#288,#260,.T.);
#353=EDGE_CURVE('',#288,#289,#125,.T.);
#354=EDGE_CURVE('',#289,#289,#261,.T.);
#355=EDGE_CURVE('',#290,#291,#126,.T.);
#356=EDGE_CURVE('',#292,#290,#127,.T.);
#357=EDGE_CURVE('',#293,#292,#128,.T.);
#358=EDGE_CURVE('',#294,#293,#129,.T.);
#359=EDGE_CURVE('',#295,#294,#130,.T.);
#360=EDGE_CURVE('',#296,#295,#131,.T.);
#361=EDGE_CURVE('',#297,#296,#132,.T.);
#362=EDGE_CURVE('',#291,#297,#133,.T.);
#363=EDGE_CURVE('',#298,#298,#262,.T.);
#364=EDGE_CURVE('',#299,#299,#263,.T.);
#365=EDGE_CURVE('',#293,#300,#134,.T.);
#366=EDGE_CURVE('',#301,#300,#135,.T.);
#367=EDGE_CURVE('',#301,#294,#136,.T.);
#368=EDGE_CURVE('',#302,#292,#137,.T.);
#369=EDGE_CURVE('',#300,#302,#138,.T.);
#370=EDGE_CURVE('',#290,#303,#139,.T.);
#371=EDGE_CURVE('',#303,#304,#264,.T.);
#372=EDGE_CURVE('',#304,#305,#140,.T.);
#373=EDGE_CURVE('',#305,#306,#265,.T.);
#374=EDGE_CURVE('',#306,#307,#141,.T.);
#375=EDGE_CURVE('',#302,#307,#142,.T.);
#376=EDGE_CURVE('',#308,#309,#266,.T.);
#377=EDGE_CURVE('',#310,#308,#143,.T.);
#378=EDGE_CURVE('',#311,#310,#267,.T.);
#379=EDGE_CURVE('',#312,#311,#144,.T.);
#380=EDGE_CURVE('',#312,#313,#268,.T.);
#381=EDGE_CURVE('',#314,#313,#145,.T.);
#382=EDGE_CURVE('',#315,#314,#269,.T.);
#383=EDGE_CURVE('',#316,#315,#146,.T.);
#384=EDGE_CURVE('',#317,#316,#270,.T.);
#385=EDGE_CURVE('',#318,#317,#147,.T.);
#386=EDGE_CURVE('',#319,#318,#271,.T.);
#387=EDGE_CURVE('',#320,#319,#148,.T.);
#388=EDGE_CURVE('',#321,#320,#272,.T.);
#389=EDGE_CURVE('',#322,#321,#149,.T.);
#390=EDGE_CURVE('',#322,#323,#273,.T.);
#391=EDGE_CURVE('',#309,#323,#150,.T.);
#392=EDGE_CURVE('',#291,#324,#151,.T.);
#393=EDGE_CURVE('',#324,#303,#152,.T.);
#394=EDGE_CURVE('',#325,#307,#153,.T.);
#395=EDGE_CURVE('',#325,#326,#154,.T.);
#396=EDGE_CURVE('',#326,#327,#155,.T.);
#397=EDGE_CURVE('',#327,#301,#156,.T.);
#398=EDGE_CURVE('',#328,#328,#274,.T.);
#399=EDGE_CURVE('',#329,#329,#275,.T.);
#400=EDGE_CURVE('',#297,#325,#157,.T.);
#401=EDGE_CURVE('',#325,#330,#158,.T.);
#402=EDGE_CURVE('',#330,#331,#276,.F.);
#403=EDGE_CURVE('',#332,#331,#159,.T.);
#404=EDGE_CURVE('',#332,#324,#277,.F.);
#405=EDGE_CURVE('',#298,#329,#160,.T.);
#406=EDGE_CURVE('',#299,#328,#161,.T.);
#407=EDGE_CURVE('',#296,#326,#162,.T.);
#408=EDGE_CURVE('',#327,#295,#163,.T.);
#409=EDGE_CURVE('',#306,#330,#164,.T.);
#410=EDGE_CURVE('',#304,#332,#165,.F.);
#411=EDGE_CURVE('',#331,#305,#166,.F.);
#412=EDGE_CURVE('',#333,#308,#167,.T.);
#413=EDGE_CURVE('',#334,#333,#168,.T.);
#414=EDGE_CURVE('',#334,#310,#169,.T.);
#415=EDGE_CURVE('',#335,#309,#170,.T.);
#416=EDGE_CURVE('',#333,#335,#278,.T.);
#417=EDGE_CURVE('',#336,#323,#171,.T.);
#418=EDGE_CURVE('',#335,#336,#172,.T.);
#419=EDGE_CURVE('',#337,#322,#173,.T.);
#420=EDGE_CURVE('',#337,#336,#279,.T.);
#421=EDGE_CURVE('',#338,#321,#174,.T.);
#422=EDGE_CURVE('',#337,#338,#175,.T.);
#423=EDGE_CURVE('',#339,#320,#176,.T.);
#424=EDGE_CURVE('',#338,#339,#280,.T.);
#425=EDGE_CURVE('',#340,#319,#177,.T.);
#426=EDGE_CURVE('',#339,#340,#178,.T.);
#427=EDGE_CURVE('',#341,#318,#179,.T.);
#428=EDGE_CURVE('',#340,#341,#281,.T.);
#429=EDGE_CURVE('',#342,#317,#180,.T.);
#430=EDGE_CURVE('',#341,#342,#181,.T.);
#431=EDGE_CURVE('',#343,#316,#182,.T.);
#432=EDGE_CURVE('',#342,#343,#282,.T.);
#433=EDGE_CURVE('',#344,#315,#183,.T.);
#434=EDGE_CURVE('',#343,#344,#184,.T.);
#435=EDGE_CURVE('',#345,#314,#185,.T.);
#436=EDGE_CURVE('',#344,#345,#283,.T.);
#437=EDGE_CURVE('',#346,#313,#186,.T.);
#438=EDGE_CURVE('',#345,#346,#187,.T.);
#439=EDGE_CURVE('',#347,#312,#188,.T.);
#440=EDGE_CURVE('',#347,#346,#284,.T.);
#441=EDGE_CURVE('',#348,#311,#189,.T.);
#442=EDGE_CURVE('',#347,#348,#190,.T.);
#443=EDGE_CURVE('',#348,#334,#285,.T.);
#444=ORIENTED_EDGE('',*,*,#349,.F.);
#445=ORIENTED_EDGE('',*,*,#350,.T.);
#446=ORIENTED_EDGE('',*,*,#351,.F.);
#447=ORIENTED_EDGE('',*,*,#350,.F.);
#448=ORIENTED_EDGE('',*,*,#352,.F.);
#449=ORIENTED_EDGE('',*,*,#353,.T.);
#450=ORIENTED_EDGE('',*,*,#354,.F.);
#451=ORIENTED_EDGE('',*,*,#353,.F.);
#452=ORIENTED_EDGE('',*,*,#355,.F.);
#453=ORIENTED_EDGE('',*,*,#356,.F.);
#454=ORIENTED_EDGE('',*,*,#357,.F.);
#455=ORIENTED_EDGE('',*,*,#358,.F.);
#456=ORIENTED_EDGE('',*,*,#359,.F.);
#457=ORIENTED_EDGE('',*,*,#360,.F.);
#458=ORIENTED_EDGE('',*,*,#361,.F.);
#459=ORIENTED_EDGE('',*,*,#362,.F.);
#460=ORIENTED_EDGE('',*,*,#363,.F.);
#461=ORIENTED_EDGE('',*,*,#364,.F.);
#462=ORIENTED_EDGE('',*,*,#358,.T.);
#463=ORIENTED_EDGE('',*,*,#365,.T.);
#464=ORIENTED_EDGE('',*,*,#366,.F.);
#465=ORIENTED_EDGE('',*,*,#367,.T.);
#466=ORIENTED_EDGE('',*,*,#357,.T.);
#467=ORIENTED_EDGE('',*,*,#368,.F.);
#468=ORIENTED_EDGE('',*,*,#369,.F.);
#469=ORIENTED_EDGE('',*,*,#365,.F.);
#470=ORIENTED_EDGE('',*,*,#356,.T.);
#471=ORIENTED_EDGE('',*,*,#370,.T.);
#472=ORIENTED_EDGE('',*,*,#371,.T.);
#473=ORIENTED_EDGE('',*,*,#372,.T.);
#474=ORIENTED_EDGE('',*,*,#373,.T.);
#475=ORIENTED_EDGE('',*,*,#374,.T.);
#476=ORIENTED_EDGE('',*,*,#375,.F.);
#477=ORIENTED_EDGE('',*,*,#368,.T.);
#478=ORIENTED_EDGE('',*,*,#349,.T.);
#479=ORIENTED_EDGE('',*,*,#352,.T.);
#480=ORIENTED_EDGE('',*,*,#376,.F.);
#481=ORIENTED_EDGE('',*,*,#377,.F.);
#482=ORIENTED_EDGE('',*,*,#378,.F.);
#483=ORIENTED_EDGE('',*,*,#379,.F.);
#484=ORIENTED_EDGE('',*,*,#380,.T.);
#485=ORIENTED_EDGE('',*,*,#381,.F.);
#486=ORIENTED_EDGE('',*,*,#382,.F.);
#487=ORIENTED_EDGE('',*,*,#383,.F.);
#488=ORIENTED_EDGE('',*,*,#384,.F.);
#489=ORIENTED_EDGE('',*,*,#385,.F.);
#490=ORIENTED_EDGE('',*,*,#386,.F.);
#491=ORIENTED_EDGE('',*,*,#387,.F.);
#492=ORIENTED_EDGE('',*,*,#388,.F.);
#493=ORIENTED_EDGE('',*,*,#389,.F.);
#494=ORIENTED_EDGE('',*,*,#390,.T.);
#495=ORIENTED_EDGE('',*,*,#391,.F.);
#496=ORIENTED_EDGE('',*,*,#355,.T.);
#497=ORIENTED_EDGE('',*,*,#392,.T.);
#498=ORIENTED_EDGE('',*,*,#393,.T.);
#499=ORIENTED_EDGE('',*,*,#370,.F.);
#500=ORIENTED_EDGE('',*,*,#394,.F.);
#501=ORIENTED_EDGE('',*,*,#395,.T.);
#502=ORIENTED_EDGE('',*,*,#396,.T.);
#503=ORIENTED_EDGE('',*,*,#397,.T.);
#504=ORIENTED_EDGE('',*,*,#366,.T.);
#505=ORIENTED_EDGE('',*,*,#369,.T.);
#506=ORIENTED_EDGE('',*,*,#375,.T.);
#507=ORIENTED_EDGE('',*,*,#398,.T.);
#508=ORIENTED_EDGE('',*,*,#399,.T.);
#509=ORIENTED_EDGE('',*,*,#362,.T.);
#510=ORIENTED_EDGE('',*,*,#400,.T.);
#511=ORIENTED_EDGE('',*,*,#401,.T.);
#512=ORIENTED_EDGE('',*,*,#402,.T.);
#513=ORIENTED_EDGE('',*,*,#403,.F.);
#514=ORIENTED_EDGE('',*,*,#404,.T.);
#515=ORIENTED_EDGE('',*,*,#392,.F.);
#516=ORIENTED_EDGE('',*,*,#351,.T.);
#517=ORIENTED_EDGE('',*,*,#354,.T.);
#518=ORIENTED_EDGE('',*,*,#363,.T.);
#519=ORIENTED_EDGE('',*,*,#405,.T.);
#520=ORIENTED_EDGE('',*,*,#399,.F.);
#521=ORIENTED_EDGE('',*,*,#405,.F.);
#522=ORIENTED_EDGE('',*,*,#364,.T.);
#523=ORIENTED_EDGE('',*,*,#406,.T.);
#524=ORIENTED_EDGE('',*,*,#398,.F.);
#525=ORIENTED_EDGE('',*,*,#406,.F.);
#526=ORIENTED_EDGE('',*,*,#361,.T.);
#527=ORIENTED_EDGE('',*,*,#407,.T.);
#528=ORIENTED_EDGE('',*,*,#395,.F.);
#529=ORIENTED_EDGE('',*,*,#400,.F.);
#530=ORIENTED_EDGE('',*,*,#359,.T.);
#531=ORIENTED_EDGE('',*,*,#367,.F.);
#532=ORIENTED_EDGE('',*,*,#397,.F.);
#533=ORIENTED_EDGE('',*,*,#408,.T.);
#534=ORIENTED_EDGE('',*,*,#360,.T.);
#535=ORIENTED_EDGE('',*,*,#408,.F.);
#536=ORIENTED_EDGE('',*,*,#396,.F.);
#537=ORIENTED_EDGE('',*,*,#407,.F.);
#538=ORIENTED_EDGE('',*,*,#394,.T.);
#539=ORIENTED_EDGE('',*,*,#374,.F.);
#540=ORIENTED_EDGE('',*,*,#409,.T.);
#541=ORIENTED_EDGE('',*,*,#401,.F.);
#542=ORIENTED_EDGE('',*,*,#372,.F.);
#543=ORIENTED_EDGE('',*,*,#410,.T.);
#544=ORIENTED_EDGE('',*,*,#403,.T.);
#545=ORIENTED_EDGE('',*,*,#411,.T.);
#546=ORIENTED_EDGE('',*,*,#377,.T.);
#547=ORIENTED_EDGE('',*,*,#412,.F.);
#548=ORIENTED_EDGE('',*,*,#413,.F.);
#549=ORIENTED_EDGE('',*,*,#414,.T.);
#550=ORIENTED_EDGE('',*,*,#376,.T.);
#551=ORIENTED_EDGE('',*,*,#415,.F.);
#552=ORIENTED_EDGE('',*,*,#416,.F.);
#553=ORIENTED_EDGE('',*,*,#412,.T.);
#554=ORIENTED_EDGE('',*,*,#391,.T.);
#555=ORIENTED_EDGE('',*,*,#417,.F.);
#556=ORIENTED_EDGE('',*,*,#418,.F.);
#557=ORIENTED_EDGE('',*,*,#415,.T.);
#558=ORIENTED_EDGE('',*,*,#390,.F.);
#559=ORIENTED_EDGE('',*,*,#419,.F.);
#560=ORIENTED_EDGE('',*,*,#420,.T.);
#561=ORIENTED_EDGE('',*,*,#417,.T.);
#562=ORIENTED_EDGE('',*,*,#389,.T.);
#563=ORIENTED_EDGE('',*,*,#421,.F.);
#564=ORIENTED_EDGE('',*,*,#422,.F.);
#565=ORIENTED_EDGE('',*,*,#419,.T.);
#566=ORIENTED_EDGE('',*,*,#388,.T.);
#567=ORIENTED_EDGE('',*,*,#423,.F.);
#568=ORIENTED_EDGE('',*,*,#424,.F.);
#569=ORIENTED_EDGE('',*,*,#421,.T.);
#570=ORIENTED_EDGE('',*,*,#387,.T.);
#571=ORIENTED_EDGE('',*,*,#425,.F.);
#572=ORIENTED_EDGE('',*,*,#426,.F.);
#573=ORIENTED_EDGE('',*,*,#423,.T.);
#574=ORIENTED_EDGE('',*,*,#386,.T.);
#575=ORIENTED_EDGE('',*,*,#427,.F.);
#576=ORIENTED_EDGE('',*,*,#428,.F.);
#577=ORIENTED_EDGE('',*,*,#425,.T.);
#578=ORIENTED_EDGE('',*,*,#385,.T.);
#579=ORIENTED_EDGE('',*,*,#429,.F.);
#580=ORIENTED_EDGE('',*,*,#430,.F.);
#581=ORIENTED_EDGE('',*,*,#427,.T.);
#582=ORIENTED_EDGE('',*,*,#384,.T.);
#583=ORIENTED_EDGE('',*,*,#431,.F.);
#584=ORIENTED_EDGE('',*,*,#432,.F.);
#585=ORIENTED_EDGE('',*,*,#429,.T.);
#586=ORIENTED_EDGE('',*,*,#383,.T.);
#587=ORIENTED_EDGE('',*,*,#433,.F.);
#588=ORIENTED_EDGE('',*,*,#434,.F.);
#589=ORIENTED_EDGE('',*,*,#431,.T.);
#590=ORIENTED_EDGE('',*,*,#382,.T.);
#591=ORIENTED_EDGE('',*,*,#435,.F.);
#592=ORIENTED_EDGE('',*,*,#436,.F.);
#593=ORIENTED_EDGE('',*,*,#433,.T.);
#594=ORIENTED_EDGE('',*,*,#381,.T.);
#595=ORIENTED_EDGE('',*,*,#437,.F.);
#596=ORIENTED_EDGE('',*,*,#438,.F.);
#597=ORIENTED_EDGE('',*,*,#435,.T.);
#598=ORIENTED_EDGE('',*,*,#380,.F.);
#599=ORIENTED_EDGE('',*,*,#439,.F.);
#600=ORIENTED_EDGE('',*,*,#440,.T.);
#601=ORIENTED_EDGE('',*,*,#437,.T.);
#602=ORIENTED_EDGE('',*,*,#379,.T.);
#603=ORIENTED_EDGE('',*,*,#441,.F.);
#604=ORIENTED_EDGE('',*,*,#442,.F.);
#605=ORIENTED_EDGE('',*,*,#439,.T.);
#606=ORIENTED_EDGE('',*,*,#378,.T.);
#607=ORIENTED_EDGE('',*,*,#414,.F.);
#608=ORIENTED_EDGE('',*,*,#443,.F.);
#609=ORIENTED_EDGE('',*,*,#441,.T.);
#610=ORIENTED_EDGE('',*,*,#413,.T.);
#611=ORIENTED_EDGE('',*,*,#416,.T.);
#612=ORIENTED_EDGE('',*,*,#418,.T.);
#613=ORIENTED_EDGE('',*,*,#420,.F.);
#614=ORIENTED_EDGE('',*,*,#422,.T.);
#615=ORIENTED_EDGE('',*,*,#424,.T.);
#616=ORIENTED_EDGE('',*,*,#426,.T.);
#617=ORIENTED_EDGE('',*,*,#428,.T.);
#618=ORIENTED_EDGE('',*,*,#430,.T.);
#619=ORIENTED_EDGE('',*,*,#432,.T.);
#620=ORIENTED_EDGE('',*,*,#434,.T.);
#621=ORIENTED_EDGE('',*,*,#436,.T.);
#622=ORIENTED_EDGE('',*,*,#438,.T.);
#623=ORIENTED_EDGE('',*,*,#440,.F.);
#624=ORIENTED_EDGE('',*,*,#442,.T.);
#625=ORIENTED_EDGE('',*,*,#443,.T.);
#626=ORIENTED_EDGE('',*,*,#404,.F.);
#627=ORIENTED_EDGE('',*,*,#410,.F.);
#628=ORIENTED_EDGE('',*,*,#371,.F.);
#629=ORIENTED_EDGE('',*,*,#393,.F.);
#630=ORIENTED_EDGE('',*,*,#373,.F.);
#631=ORIENTED_EDGE('',*,*,#411,.F.);
#632=ORIENTED_EDGE('',*,*,#402,.F.);
#633=ORIENTED_EDGE('',*,*,#409,.F.);
#634=CYLINDRICAL_SURFACE('',#697,1.4);
#635=CYLINDRICAL_SURFACE('',#700,1.4);
#636=CYLINDRICAL_SURFACE('',#726,2.35);
#637=CYLINDRICAL_SURFACE('',#727,2.35);
#638=CYLINDRICAL_SURFACE('',#734,0.800000503659382);
#639=CYLINDRICAL_SURFACE('',#737,0.799999572336677);
#640=CYLINDRICAL_SURFACE('',#740,0.800000503659797);
#641=CYLINDRICAL_SURFACE('',#743,0.800000503659255);
#642=CYLINDRICAL_SURFACE('',#746,0.800000503659557);
#643=CYLINDRICAL_SURFACE('',#749,0.800001202152842);
#644=CYLINDRICAL_SURFACE('',#752,0.800000503659785);
#645=CYLINDRICAL_SURFACE('',#755,0.800000037997961);
#646=CYLINDRICAL_SURFACE('',#758,1.5);
#647=CYLINDRICAL_SURFACE('',#759,1.5);
#648=ADVANCED_FACE('',(#45),#634,.F.);
#649=ADVANCED_FACE('',(#46),#635,.F.);
#650=ADVANCED_FACE('',(#47,#15,#16),#24,.T.);
#651=ADVANCED_FACE('',(#48),#25,.F.);
#652=ADVANCED_FACE('',(#49),#26,.F.);
#653=ADVANCED_FACE('',(#50,#17,#18,#19),#27,.T.);
#654=ADVANCED_FACE('',(#51),#28,.T.);
#655=ADVANCED_FACE('',(#52,#20,#21),#29,.F.);
#656=ADVANCED_FACE('',(#53,#22,#23),#30,.F.);
#657=ADVANCED_FACE('',(#54),#636,.F.);
#658=ADVANCED_FACE('',(#55),#637,.F.);
#659=ADVANCED_FACE('',(#56),#31,.T.);
#660=ADVANCED_FACE('',(#57),#32,.T.);
#661=ADVANCED_FACE('',(#58),#33,.F.);
#662=ADVANCED_FACE('',(#59),#34,.T.);
#663=ADVANCED_FACE('',(#60),#35,.T.);
#664=ADVANCED_FACE('',(#61),#36,.F.);
#665=ADVANCED_FACE('',(#62),#638,.F.);
#666=ADVANCED_FACE('',(#63),#37,.F.);
#667=ADVANCED_FACE('',(#64),#639,.T.);
#668=ADVANCED_FACE('',(#65),#38,.F.);
#669=ADVANCED_FACE('',(#66),#640,.F.);
#670=ADVANCED_FACE('',(#67),#39,.F.);
#671=ADVANCED_FACE('',(#68),#641,.F.);
#672=ADVANCED_FACE('',(#69),#40,.F.);
#673=ADVANCED_FACE('',(#70),#642,.F.);
#674=ADVANCED_FACE('',(#71),#41,.F.);
#675=ADVANCED_FACE('',(#72),#643,.F.);
#676=ADVANCED_FACE('',(#73),#42,.F.);
#677=ADVANCED_FACE('',(#74),#644,.T.);
#678=ADVANCED_FACE('',(#75),#43,.F.);
#679=ADVANCED_FACE('',(#76),#645,.F.);
#680=ADVANCED_FACE('',(#77),#44,.T.);
#681=ADVANCED_FACE('',(#78),#646,.T.);
#682=ADVANCED_FACE('',(#79),#647,.T.);
#683=CLOSED_SHELL('',(#648,#649,#650,#651,#652,#653,#654,#655,#656,#657,
#658,#659,#660,#661,#662,#663,#664,#665,#666,#667,#668,#669,#670,#671,#672,
#673,#674,#675,#676,#677,#678,#679,#680,#681,#682));
#684=DERIVED_UNIT_ELEMENT(#686,1.);
#685=DERIVED_UNIT_ELEMENT(#1154,-3.);
#686=(
MASS_UNIT()
NAMED_UNIT(*)
SI_UNIT(.KILO.,.GRAM.)
);
#687=DERIVED_UNIT((#684,#685));
#688=MEASURE_REPRESENTATION_ITEM('density measure',
POSITIVE_RATIO_MEASURE(7850.),#687);
#689=PROPERTY_DEFINITION_REPRESENTATION(#694,#691);
#690=PROPERTY_DEFINITION_REPRESENTATION(#695,#692);
#691=REPRESENTATION('material name',(#693),#1151);
#692=REPRESENTATION('density',(#688),#1151);
#693=DESCRIPTIVE_REPRESENTATION_ITEM('Steel','Steel');
#694=PROPERTY_DEFINITION('material property','material name',#1161);
#695=PROPERTY_DEFINITION('material property','density of part',#1161);
#696=AXIS2_PLACEMENT_3D('',#955,#760,#761);
#697=AXIS2_PLACEMENT_3D('',#956,#762,#763);
#698=AXIS2_PLACEMENT_3D('',#958,#764,#765);
#699=AXIS2_PLACEMENT_3D('',#961,#767,#768);
#700=AXIS2_PLACEMENT_3D('',#962,#769,#770);
#701=AXIS2_PLACEMENT_3D('',#964,#771,#772);
#702=AXIS2_PLACEMENT_3D('',#967,#774,#775);
#703=AXIS2_PLACEMENT_3D('',#968,#776,#777);
#704=AXIS2_PLACEMENT_3D('',#986,#786,#787);
#705=AXIS2_PLACEMENT_3D('',#988,#788,#789);
#706=AXIS2_PLACEMENT_3D('',#989,#790,#791);
#707=AXIS2_PLACEMENT_3D('',#995,#795,#796);
#708=AXIS2_PLACEMENT_3D('',#999,#799,#800);
#709=AXIS2_PLACEMENT_3D('',#1003,#802,#803);
#710=AXIS2_PLACEMENT_3D('',#1007,#805,#806);
#711=AXIS2_PLACEMENT_3D('',#1013,#809,#810);
#712=AXIS2_PLACEMENT_3D('',#1017,#812,#813);
#713=AXIS2_PLACEMENT_3D('',#1021,#815,#816);
#714=AXIS2_PLACEMENT_3D('',#1025,#818,#819);
#715=AXIS2_PLACEMENT_3D('',#1029,#821,#822);
#716=AXIS2_PLACEMENT_3D('',#1033,#824,#825);
#717=AXIS2_PLACEMENT_3D('',#1037,#827,#828);
#718=AXIS2_PLACEMENT_3D('',#1041,#830,#831);
#719=AXIS2_PLACEMENT_3D('',#1043,#833,#834);
#720=AXIS2_PLACEMENT_3D('',#1047,#837,#838);
#721=AXIS2_PLACEMENT_3D('',#1056,#843,#844);
#722=AXIS2_PLACEMENT_3D('',#1058,#845,#846);
#723=AXIS2_PLACEMENT_3D('',#1059,#847,#848);
#724=AXIS2_PLACEMENT_3D('',#1064,#851,#852);
#725=AXIS2_PLACEMENT_3D('',#1067,#854,#855);
#726=AXIS2_PLACEMENT_3D('',#1068,#856,#857);
#727=AXIS2_PLACEMENT_3D('',#1070,#859,#860);
#728=AXIS2_PLACEMENT_3D('',#1072,#862,#863);
#729=AXIS2_PLACEMENT_3D('',#1074,#865,#866);
#730=AXIS2_PLACEMENT_3D('',#1076,#868,#869);
#731=AXIS2_PLACEMENT_3D('',#1077,#870,#871);
#732=AXIS2_PLACEMENT_3D('',#1079,#873,#874);
#733=AXIS2_PLACEMENT_3D('',#1082,#877,#878);
#734=AXIS2_PLACEMENT_3D('',#1088,#882,#883);
#735=AXIS2_PLACEMENT_3D('',#1091,#885,#886);
#736=AXIS2_PLACEMENT_3D('',#1092,#887,#888);
#737=AXIS2_PLACEMENT_3D('',#1096,#891,#892);
#738=AXIS2_PLACEMENT_3D('',#1099,#894,#895);
#739=AXIS2_PLACEMENT_3D('',#1100,#896,#897);
#740=AXIS2_PLACEMENT_3D('',#1104,#900,#901);
#741=AXIS2_PLACEMENT_3D('',#1107,#903,#904);
#742=AXIS2_PLACEMENT_3D('',#1108,#905,#906);
#743=AXIS2_PLACEMENT_3D('',#1112,#909,#910);
#744=AXIS2_PLACEMENT_3D('',#1115,#912,#913);
#745=AXIS2_PLACEMENT_3D('',#1116,#914,#915);
#746=AXIS2_PLACEMENT_3D('',#1120,#918,#919);
#747=AXIS2_PLACEMENT_3D('',#1123,#921,#922);
#748=AXIS2_PLACEMENT_3D('',#1124,#923,#924);
#749=AXIS2_PLACEMENT_3D('',#1128,#927,#928);
#750=AXIS2_PLACEMENT_3D('',#1131,#930,#931);
#751=AXIS2_PLACEMENT_3D('',#1132,#932,#933);
#752=AXIS2_PLACEMENT_3D('',#1136,#936,#937);
#753=AXIS2_PLACEMENT_3D('',#1139,#939,#940);
#754=AXIS2_PLACEMENT_3D('',#1140,#941,#942);
#755=AXIS2_PLACEMENT_3D('',#1144,#945,#946);
#756=AXIS2_PLACEMENT_3D('',#1145,#947,#948);
#757=AXIS2_PLACEMENT_3D('',#1146,#949,#950);
#758=AXIS2_PLACEMENT_3D('',#1147,#951,#952);
#759=AXIS2_PLACEMENT_3D('',#1148,#953,#954);
#760=DIRECTION('axis',(0.,0.,1.));
#761=DIRECTION('refdir',(1.,0.,0.));
#762=DIRECTION('center_axis',(-1.,0.,0.));
#763=DIRECTION('ref_axis',(0.,1.,0.));
#764=DIRECTION('center_axis',(-1.,3.07996375208927E-16,0.));
#765=DIRECTION('ref_axis',(3.07996375208927E-16,1.,0.));
#766=DIRECTION('',(-1.,0.,0.));
#767=DIRECTION('center_axis',(1.,0.,0.));
#768=DIRECTION('ref_axis',(0.,1.,0.));
#769=DIRECTION('center_axis',(-1.,0.,0.));
#770=DIRECTION('ref_axis',(0.,1.,0.));
#771=DIRECTION('center_axis',(-1.,0.,0.));
#772=DIRECTION('ref_axis',(0.,1.,0.));
#773=DIRECTION('',(-1.,0.,0.));
#774=DIRECTION('center_axis',(1.,0.,0.));
#775=DIRECTION('ref_axis',(0.,1.,0.));
#776=DIRECTION('center_axis',(0.,1.,0.));
#777=DIRECTION('ref_axis',(0.,0.,1.));
#778=DIRECTION('',(-1.,0.,0.));
#779=DIRECTION('',(0.,0.,1.));
#780=DIRECTION('',(1.,0.,0.));
#781=DIRECTION('',(0.,0.,1.));
#782=DIRECTION('',(1.,0.,0.));
#783=DIRECTION('',(0.,0.,-1.));
#784=DIRECTION('',(-1.,0.,0.));
#785=DIRECTION('',(0.,0.,-1.));
#786=DIRECTION('center_axis',(0.,1.,0.));
#787=DIRECTION('ref_axis',(-1.,0.,0.));
#788=DIRECTION('center_axis',(0.,1.,0.));
#789=DIRECTION('ref_axis',(-1.,0.,0.));
#790=DIRECTION('center_axis',(-1.,0.,0.));
#791=DIRECTION('ref_axis',(0.,0.,1.));
#792=DIRECTION('',(0.,-1.,0.));
#793=DIRECTION('',(0.,0.,1.));
#794=DIRECTION('',(0.,1.,0.));
#795=DIRECTION('center_axis',(0.,0.,1.));
#796=DIRECTION('ref_axis',(1.,0.,0.));
#797=DIRECTION('',(0.,1.,0.));
#798=DIRECTION('',(1.,0.,0.));
#799=DIRECTION('center_axis',(1.,-3.07996375208927E-16,0.));
#800=DIRECTION('ref_axis',(3.07996375208927E-16,1.,0.));
#801=DIRECTION('',(-3.07996375208927E-16,-1.,0.));
#802=DIRECTION('center_axis',(1.,-3.07996375208927E-16,0.));
#803=DIRECTION('ref_axis',(3.07996375208927E-16,1.,0.));
#804=DIRECTION('',(0.,0.,-1.));
#805=DIRECTION('center_axis',(1.,-3.07996375208927E-16,0.));
#806=DIRECTION('ref_axis',(3.07996375208927E-16,1.,0.));
#807=DIRECTION('',(3.07996375208927E-16,1.,0.));
#808=DIRECTION('',(0.,0.,1.));
#809=DIRECTION('center_axis',(1.,-3.07996375208927E-16,0.));
#810=DIRECTION('ref_axis',(3.07996375208927E-16,1.,0.));
#811=DIRECTION('',(0.,0.,1.));
#812=DIRECTION('center_axis',(1.,-3.07996375208927E-16,0.));
#813=DIRECTION('ref_axis',(3.07996375208927E-16,1.,0.));
#814=DIRECTION('',(3.07996375208927E-16,1.,0.));
#815=DIRECTION('center_axis',(1.,-3.07996375208927E-16,0.));
#816=DIRECTION('ref_axis',(3.07996375208927E-16,1.,0.));
#817=DIRECTION('',(0.,0.,1.));
#818=DIRECTION('center_axis',(1.,-3.07996375208927E-16,0.));
#819=DIRECTION('ref_axis',(3.07996375208927E-16,1.,0.));
#820=DIRECTION('',(3.07996375208927E-16,1.,0.));
#821=DIRECTION('center_axis',(1.,-3.07996375208927E-16,0.));
#822=DIRECTION('ref_axis',(3.07996375208927E-16,1.,0.));
#823=DIRECTION('',(0.,0.,-1.));
#824=DIRECTION('center_axis',(1.,-3.07996375208927E-16,0.));
#825=DIRECTION('ref_axis',(3.07996375208927E-16,1.,0.));
#826=DIRECTION('',(-3.07996375208927E-16,-1.,0.));
#827=DIRECTION('center_axis',(1.,-3.07996375208927E-16,0.));
#828=DIRECTION('ref_axis',(3.07996375208927E-16,1.,0.));
#829=DIRECTION('',(0.,0.,1.));
#830=DIRECTION('center_axis',(1.,-3.07996375208927E-16,0.));
#831=DIRECTION('ref_axis',(3.07996375208927E-16,1.,0.));
#832=DIRECTION('',(-3.07996375208927E-16,-1.,0.));
#833=DIRECTION('center_axis',(0.,0.,1.));
#834=DIRECTION('ref_axis',(1.,0.,0.));
#835=DIRECTION('',(0.,-1.,0.));
#836=DIRECTION('',(1.,0.,0.));
#837=DIRECTION('center_axis',(0.,1.,0.));
#838=DIRECTION('ref_axis',(0.,0.,1.));
#839=DIRECTION('',(1.,0.,0.));
#840=DIRECTION('',(-1.,0.,0.));
#841=DIRECTION('',(0.,0.,-1.));
#842=DIRECTION('',(1.,0.,0.));
#843=DIRECTION('center_axis',(0.,1.,0.));
#844=DIRECTION('ref_axis',(-1.,0.,0.));
#845=DIRECTION('center_axis',(0.,1.,0.));
#846=DIRECTION('ref_axis',(-1.,0.,0.));
#847=DIRECTION('center_axis',(1.,0.,0.));
#848=DIRECTION('ref_axis',(0.,0.,-1.));
#849=DIRECTION('',(0.,-1.,0.));
#850=DIRECTION('',(0.,-1.,0.));
#851=DIRECTION('center_axis',(1.,0.,0.));
#852=DIRECTION('ref_axis',(0.,0.,-1.));
#853=DIRECTION('',(0.,0.,-1.));
#854=DIRECTION('center_axis',(1.,0.,0.));
#855=DIRECTION('ref_axis',(0.,0.,-1.));
#856=DIRECTION('center_axis',(0.,-1.,0.));
#857=DIRECTION('ref_axis',(-1.,0.,0.));
#858=DIRECTION('',(0.,-1.,0.));
#859=DIRECTION('center_axis',(0.,-1.,0.));
#860=DIRECTION('ref_axis',(-1.,0.,0.));
#861=DIRECTION('',(0.,-1.,0.));
#862=DIRECTION('center_axis',(0.,0.,1.));
#863=DIRECTION('ref_axis',(1.,0.,0.));
#864=DIRECTION('',(0.,-1.,0.));
#865=DIRECTION('center_axis',(0.,0.,-1.));
#866=DIRECTION('ref_axis',(-1.,0.,0.));
#867=DIRECTION('',(-3.25311192380407E-16,1.,0.));
#868=DIRECTION('center_axis',(1.,0.,0.));
#869=DIRECTION('ref_axis',(0.,0.,-1.));
#870=DIRECTION('center_axis',(0.,0.,-1.));
#871=DIRECTION('ref_axis',(-1.,0.,0.));
#872=DIRECTION('',(-1.,0.,0.));
#873=DIRECTION('center_axis',(0.,-1.,0.));
#874=DIRECTION('ref_axis',(1.,0.,0.));
#875=DIRECTION('',(1.,0.,0.));
#876=DIRECTION('',(-1.,0.,0.));
#877=DIRECTION('center_axis',(3.07996375208927E-16,1.,0.));
#878=DIRECTION('ref_axis',(-1.,3.07996375208927E-16,0.));
#879=DIRECTION('',(1.,-3.07996375208927E-16,0.));
#880=DIRECTION('',(0.,0.,1.));
#881=DIRECTION('',(1.,-3.07996375208927E-16,0.));
#882=DIRECTION('center_axis',(1.,-3.07996375208927E-16,0.));
#883=DIRECTION('ref_axis',(3.07996375208927E-16,1.,0.));
#884=DIRECTION('',(1.,-3.07996375208927E-16,0.));
#885=DIRECTION('center_axis',(1.,-3.07996375208927E-16,0.));
#886=DIRECTION('ref_axis',(3.07996375208927E-16,1.,0.));
#887=DIRECTION('center_axis',(0.,0.,1.));
#888=DIRECTION('ref_axis',(1.,0.,0.));
#889=DIRECTION('',(1.,-3.07996375208927E-16,0.));
#890=DIRECTION('',(-3.07996375208927E-16,-1.,0.));
#891=DIRECTION('center_axis',(1.,-3.07996375208927E-16,0.));
#892=DIRECTION('ref_axis',(3.07996375208927E-16,1.,0.));
#893=DIRECTION('',(1.,-3.07996375208927E-16,0.));
#894=DIRECTION('center_axis',(1.,-3.07996375208927E-16,0.));
#895=DIRECTION('ref_axis',(3.07996375208927E-16,1.,0.));
#896=DIRECTION('center_axis',(3.07996375208927E-16,1.,0.));
#897=DIRECTION('ref_axis',(-1.,3.07996375208927E-16,0.));
#898=DIRECTION('',(1.,-3.07996375208927E-16,0.));
#899=DIRECTION('',(0.,0.,1.));
#900=DIRECTION('center_axis',(1.,-3.07996375208927E-16,0.));
#901=DIRECTION('ref_axis',(3.07996375208927E-16,1.,0.));
#902=DIRECTION('',(1.,-3.07996375208927E-16,0.));
#903=DIRECTION('center_axis',(1.,-3.07996375208927E-16,0.));
#904=DIRECTION('ref_axis',(3.07996375208927E-16,1.,0.));
#905=DIRECTION('center_axis',(0.,0.,1.));
#906=DIRECTION('ref_axis',(1.,0.,0.));
#907=DIRECTION('',(1.,-3.07996375208927E-16,0.));
#908=DIRECTION('',(-3.07996375208927E-16,-1.,0.));
#909=DIRECTION('center_axis',(1.,-3.07996375208927E-16,0.));
#910=DIRECTION('ref_axis',(3.07996375208927E-16,1.,0.));
#911=DIRECTION('',(1.,-3.07996375208927E-16,0.));
#912=DIRECTION('center_axis',(1.,-3.07996375208927E-16,0.));
#913=DIRECTION('ref_axis',(3.07996375208927E-16,1.,0.));
#914=DIRECTION('center_axis',(-3.07996375208927E-16,-1.,0.));
#915=DIRECTION('ref_axis',(1.,-3.07996375208927E-16,0.));
#916=DIRECTION('',(1.,-3.07996375208927E-16,0.));
#917=DIRECTION('',(0.,0.,-1.));
#918=DIRECTION('center_axis',(1.,-3.07996375208927E-16,0.));
#919=DIRECTION('ref_axis',(-2.17786420567227E-16,-0.707107089878876,-0.707106472494084));
#920=DIRECTION('',(1.,-3.07996375208927E-16,0.));
#921=DIRECTION('center_axis',(1.,-3.07996375208927E-16,0.));
#922=DIRECTION('ref_axis',(3.07996375208927E-16,1.,0.));
#923=DIRECTION('center_axis',(0.,0.,-1.));
#924=DIRECTION('ref_axis',(-1.,0.,0.));
#925=DIRECTION('',(1.,-3.07996375208927E-16,0.));
#926=DIRECTION('',(3.07996375208927E-16,1.,0.));
#927=DIRECTION('center_axis',(1.,-3.07996375208927E-16,0.));
#928=DIRECTION('ref_axis',(3.07996375208927E-16,1.,0.));
#929=DIRECTION('',(1.,-3.07996375208927E-16,0.));
#930=DIRECTION('center_axis',(1.,-3.07996375208927E-16,0.));
#931=DIRECTION('ref_axis',(3.07996375208927E-16,1.,0.));
#932=DIRECTION('center_axis',(3.07996375208927E-16,1.,0.));
#933=DIRECTION('ref_axis',(-1.,3.07996375208927E-16,0.));
#934=DIRECTION('',(1.,-3.07996375208927E-16,0.));
#935=DIRECTION('',(0.,0.,1.));
#936=DIRECTION('center_axis',(1.,-3.07996375208927E-16,0.));
#937=DIRECTION('ref_axis',(3.07996375208927E-16,1.,0.));
#938=DIRECTION('',(1.,-3.07996375208927E-16,0.));
#939=DIRECTION('center_axis',(1.,-3.07996375208927E-16,0.));
#940=DIRECTION('ref_axis',(3.07996375208927E-16,1.,0.));
#941=DIRECTION('center_axis',(0.,0.,-1.));
#942=DIRECTION('ref_axis',(-1.,0.,0.));
#943=DIRECTION('',(1.,-3.07996375208927E-16,0.));
#944=DIRECTION('',(3.07996375208927E-16,1.,0.));
#945=DIRECTION('center_axis',(1.,-3.07996375208927E-16,0.));
#946=DIRECTION('ref_axis',(3.07996375208927E-16,1.,0.));
#947=DIRECTION('center_axis',(1.,-3.07996375208927E-16,0.));
#948=DIRECTION('ref_axis',(3.07996375208927E-16,1.,0.));
#949=DIRECTION('center_axis',(1.,-3.07996375208927E-16,0.));
#950=DIRECTION('ref_axis',(3.07996375208927E-16,1.,0.));
#951=DIRECTION('center_axis',(1.,0.,0.));
#952=DIRECTION('ref_axis',(0.,0.,-1.));
#953=DIRECTION('center_axis',(-1.,0.,0.));
#954=DIRECTION('ref_axis',(0.,0.,1.));
#955=CARTESIAN_POINT('',(0.,0.,0.));
#956=CARTESIAN_POINT('Origin',(15.1199538368184,-38.5014932785992,21.887222583155));
#957=CARTESIAN_POINT('',(15.1199538368184,-39.9014932785992,21.887222583155));
#958=CARTESIAN_POINT('Origin',(15.1199538368184,-38.5014932785992,21.887222583155));
#959=CARTESIAN_POINT('',(10.1199538368184,-39.9014932785992,21.887222583155));
#960=CARTESIAN_POINT('',(15.1199538368184,-39.9014932785992,21.887222583155));
#961=CARTESIAN_POINT('Origin',(10.1199538368185,-38.5014932785992,21.887222583155));
#962=CARTESIAN_POINT('Origin',(15.1199538368184,-38.5014932785992,36.8872225831549));
#963=CARTESIAN_POINT('',(15.1199538368184,-39.9014932785992,36.8872225831549));
#964=CARTESIAN_POINT('Origin',(15.1199538368184,-38.5014932785992,36.8872225831549));
#965=CARTESIAN_POINT('',(10.1199538368184,-39.9014932785992,36.8872225831549));
#966=CARTESIAN_POINT('',(15.1199538368184,-39.9014932785992,36.8872225831549));
#967=CARTESIAN_POINT('Origin',(10.1199538368184,-38.5014932785992,36.8872225831549));
#968=CARTESIAN_POINT('Origin',(-20.9734026195104,-8.10235470168051,12.4));
#969=CARTESIAN_POINT('',(15.1199538368184,-8.10235470168051,40.222));
#970=CARTESIAN_POINT('',(10.1199538368185,-8.10235470168051,40.222));
#971=CARTESIAN_POINT('',(-10.5317129921116,-8.10235470168051,40.222));
#972=CARTESIAN_POINT('',(15.1199538368184,-8.10235470168051,4.4));
#973=CARTESIAN_POINT('',(15.1199538368184,-8.10235470168051,26.311));
#974=CARTESIAN_POINT('',(-0.500000023748726,-8.10235470168051,4.4));
#975=CARTESIAN_POINT('',(-10.5317129921116,-8.10235470168051,4.4));
#976=CARTESIAN_POINT('',(-0.500000023748726,-8.10235470168051,-28.4));
#977=CARTESIAN_POINT('',(-0.500000023748726,-8.10235470168051,14.9));
#978=CARTESIAN_POINT('',(-20.5000005662441,-8.10235470168051,-28.4));
#979=CARTESIAN_POINT('',(-15.7367014572534,-8.10235470168051,-28.4));
#980=CARTESIAN_POINT('',(-20.5000005662441,-8.10235470168051,17.4));
#981=CARTESIAN_POINT('',(-20.5000005662441,-8.10235470168051,14.9));
#982=CARTESIAN_POINT('',(10.1199538368185,-8.10235470168051,17.4));
#983=CARTESIAN_POINT('',(-10.5317129921116,-8.10235470168051,17.4));
#984=CARTESIAN_POINT('',(10.1199538368185,-8.10235470168051,26.311));
#985=CARTESIAN_POINT('',(-8.25586689646762,-8.10235470168051,1.35636978424661));
#986=CARTESIAN_POINT('Origin',(-10.6058668964676,-8.10235470168051,1.35636978424661));
#987=CARTESIAN_POINT('',(-8.25586689646762,-8.10235470168051,-18.6436302157534));
#988=CARTESIAN_POINT('Origin',(-10.6058668964676,-8.10235470168051,-18.6436302157534));
#989=CARTESIAN_POINT('Origin',(-0.500000023748726,-24.7382260907579,17.4));
#990=CARTESIAN_POINT('',(-0.500000023748726,-13.1023547016805,4.4));
#991=CARTESIAN_POINT('',(-0.500000023748726,-12.3701194044526,4.4));
#992=CARTESIAN_POINT('',(-0.500000023748726,-13.1023547016805,-28.4));
#993=CARTESIAN_POINT('',(-0.500000023748725,-13.1023547016805,12.4));
#994=CARTESIAN_POINT('',(-0.500000023748725,-11.1023547016805,-28.4));
#995=CARTESIAN_POINT('Origin',(-0.0900233647128414,-0.0020127181472214,
4.4));
#996=CARTESIAN_POINT('',(15.1199538368184,-13.1023547016805,4.4));
#997=CARTESIAN_POINT('',(15.1199538368184,-11.1023547016805,4.4));
#998=CARTESIAN_POINT('',(-10.5317129921116,-13.1023547016805,4.4));
#999=CARTESIAN_POINT('Origin',(15.1199538368184,-11.2369254278786,40.222));
#1000=CARTESIAN_POINT('',(15.1199538368184,-53.5514961540767,40.222));
#1001=CARTESIAN_POINT('',(15.1199538368184,-11.2369254278786,40.222));
#1002=CARTESIAN_POINT('',(15.1199538368184,-55.0514961540767,38.722));
#1003=CARTESIAN_POINT('Origin',(15.1199538368184,-53.5514961540767,38.722));
#1004=CARTESIAN_POINT('',(15.1199538368184,-55.0514961540767,18.9));
#1005=CARTESIAN_POINT('',(15.1199538368184,-55.0514961540767,40.222));
#1006=CARTESIAN_POINT('',(15.1199538368184,-53.5514961540767,17.4));
#1007=CARTESIAN_POINT('Origin',(15.1199538368184,-53.5514961540767,18.9));
#1008=CARTESIAN_POINT('',(15.1199538368184,-13.1023547016805,17.4));
#1009=CARTESIAN_POINT('',(15.1199538368184,-16.8692107909777,17.4));
#1010=CARTESIAN_POINT('',(15.1199538368184,-13.1023547016805,26.311));
#1011=CARTESIAN_POINT('',(15.1199538368184,-38.5014932785992,32.6372221845489));
#1012=CARTESIAN_POINT('',(15.1199538368184,-39.3014933165971,33.4372226882081));
#1013=CARTESIAN_POINT('Origin',(15.1199538368184,-39.3014937822586,32.6372221845489));
#1014=CARTESIAN_POINT('',(15.1199538368184,-38.5014932785992,26.137222981761));
#1015=CARTESIAN_POINT('',(15.1199538368184,-38.5014932785992,29.387222583155));
#1016=CARTESIAN_POINT('',(15.1199538368184,-39.3014933165971,25.337222943763));
#1017=CARTESIAN_POINT('Origin',(15.1199538368184,-39.3014933165971,26.137222981761));
#1018=CARTESIAN_POINT('',(15.1199538368184,-45.5314937231008,25.337222943763));
#1019=CARTESIAN_POINT('',(15.1199538368184,-42.416493519849,25.337222943763));
#1020=CARTESIAN_POINT('',(15.1199538368184,-46.3314932954375,24.5372224401038));
#1021=CARTESIAN_POINT('Origin',(15.1199538368184,-45.5314927917777,24.5372224401038));
#1022=CARTESIAN_POINT('',(15.1199538368184,-46.3314932954375,23.137222955684));
#1023=CARTESIAN_POINT('',(15.1199538368184,-46.3314932954375,23.8372226978939));
#1024=CARTESIAN_POINT('',(15.1199538368184,-47.1314928677742,22.3372217535328));
#1025=CARTESIAN_POINT('Origin',(15.1199538368184,-47.1314944975904,23.137222955684));
#1026=CARTESIAN_POINT('',(15.1199538368184,-51.7044934627478,22.3372217535328));
#1027=CARTESIAN_POINT('',(15.1199538368184,-49.417993165261,22.3372217535328));
#1028=CARTESIAN_POINT('',(15.1199538368184,-52.504493966407,23.137222955684));
#1029=CARTESIAN_POINT('Origin',(15.1199538368184,-51.7044934627478,23.1372222571924));
#1030=CARTESIAN_POINT('',(15.1199538368184,-52.504493966407,37.1372229221564));
#1031=CARTESIAN_POINT('',(15.1199538368184,-52.504493966407,30.1372229389201));
#1032=CARTESIAN_POINT('',(15.1199538368184,-51.7044934627478,37.9372234258156));
#1033=CARTESIAN_POINT('Origin',(15.1199538368184,-51.7044934627477,37.1372229221564));
#1034=CARTESIAN_POINT('',(15.1199538368184,-47.1314928677742,37.9372234258156));
#1035=CARTESIAN_POINT('',(15.1199538368184,-49.417993165261,37.9372234258156));
#1036=CARTESIAN_POINT('',(15.1199538368184,-46.3314932954375,37.1372229221564));
#1037=CARTESIAN_POINT('Origin',(15.1199538368184,-47.1314937990973,37.1372229221564));
#1038=CARTESIAN_POINT('',(15.1199538368184,-46.3314932954375,34.2372222605448));
#1039=CARTESIAN_POINT('',(15.1199538368184,-46.3314932954375,35.6872225913506));
#1040=CARTESIAN_POINT('',(15.1199538368184,-45.5314937231008,33.4372226882081));
#1041=CARTESIAN_POINT('Origin',(15.1199538368184,-45.5314937231008,34.2372222605448));
#1042=CARTESIAN_POINT('',(15.1199538368184,-42.416493519849,33.4372226882081));
#1043=CARTESIAN_POINT('Origin',(-0.0900233647128414,-0.00178348758707661,
40.222));
#1044=CARTESIAN_POINT('',(10.1199538368185,-53.5514961540767,40.222));
#1045=CARTESIAN_POINT('',(10.1199538368185,-11.2369254278786,40.222));
#1046=CARTESIAN_POINT('',(-0.0900233647128414,-53.5514961540767,40.222));
#1047=CARTESIAN_POINT('Origin',(-20.9734026195104,-13.1023547016805,12.4));
#1048=CARTESIAN_POINT('',(10.1199538368185,-13.1023547016805,17.4));
#1049=CARTESIAN_POINT('',(-4.17672439134593,-13.1023547016805,17.4));
#1050=CARTESIAN_POINT('',(-20.5000005662441,-13.1023547016805,17.4));
#1051=CARTESIAN_POINT('',(-10.5317129921116,-13.1023547016805,17.4));
#1052=CARTESIAN_POINT('',(-20.5000005662441,-13.1023547016805,-28.4));
#1053=CARTESIAN_POINT('',(-20.5000005662441,-13.1023547016805,12.4));
#1054=CARTESIAN_POINT('',(-20.5000005662441,-13.1023547016805,-28.4));
#1055=CARTESIAN_POINT('',(-8.25586689646762,-13.1023547016805,-18.6436302157534));
#1056=CARTESIAN_POINT('Origin',(-10.6058668964676,-13.1023547016805,-18.6436302157534));
#1057=CARTESIAN_POINT('',(-8.25586689646762,-13.1023547016805,1.35636978424661));
#1058=CARTESIAN_POINT('Origin',(-10.6058668964676,-13.1023547016805,1.35636978424661));
#1059=CARTESIAN_POINT('Origin',(10.1199538368185,-11.2369254278786,40.222));
#1060=CARTESIAN_POINT('',(10.1199538368185,-11.2369254278786,17.4));
#1061=CARTESIAN_POINT('',(10.1199538368185,-53.5514961540767,17.4));
#1062=CARTESIAN_POINT('',(10.1199538368185,-11.2369254278786,17.4));
#1063=CARTESIAN_POINT('',(10.1199538368185,-55.0514961540767,18.9));
#1064=CARTESIAN_POINT('Origin',(10.1199538368185,-53.5514961540767,18.9));
#1065=CARTESIAN_POINT('',(10.1199538368185,-55.0514961540767,38.722));
#1066=CARTESIAN_POINT('',(10.1199538368185,-55.0514961540767,40.222));
#1067=CARTESIAN_POINT('Origin',(10.1199538368185,-53.5514961540767,38.722));
#1068=CARTESIAN_POINT('Origin',(-10.6058668964676,-3.10235470168051,1.35636978424661));
#1069=CARTESIAN_POINT('',(-8.2558668964676,-3.10235470168051,1.35636978424661));
#1070=CARTESIAN_POINT('Origin',(-10.6058668964676,-3.10235470168051,-18.6436302157534));
#1071=CARTESIAN_POINT('',(-8.2558668964676,-3.10235470168051,-18.6436302157534));
#1072=CARTESIAN_POINT('Origin',(-0.0900233647128414,-0.0020127181472214,
17.4));
#1073=CARTESIAN_POINT('',(-20.5000005662441,-3.10235470168051,17.4));
#1074=CARTESIAN_POINT('Origin',(-10.5000002949964,-23.2517831076075,-28.4));
#1075=CARTESIAN_POINT('',(-20.5000005662441,-24.7535668410637,-28.4));
#1076=CARTESIAN_POINT('Origin',(-20.5000005662441,1.00000016391277,17.4));
#1077=CARTESIAN_POINT('Origin',(12.6199538368185,-55.0514961540767,17.4));
#1078=CARTESIAN_POINT('',(12.6199538368185,-53.5514961540767,17.4));
#1079=CARTESIAN_POINT('Origin',(10.1599769184092,-55.0514961540767,26.311));
#1080=CARTESIAN_POINT('',(10.1599769184092,-55.0514961540767,38.722));
#1081=CARTESIAN_POINT('',(10.1599769184092,-55.0514961540767,18.9));
#1082=CARTESIAN_POINT('Origin',(12.6199538368184,-38.5014932785992,29.387222583155));
#1083=CARTESIAN_POINT('',(12.6199538368184,-38.5014932785992,32.6372221845489));
#1084=CARTESIAN_POINT('',(12.6199538368184,-38.5014932785992,32.6372221845489));
#1085=CARTESIAN_POINT('',(12.6199538368184,-38.5014932785992,26.137222981761));
#1086=CARTESIAN_POINT('',(12.6199538368184,-38.5014932785992,29.387222583155));
#1087=CARTESIAN_POINT('',(12.6199538368184,-38.5014932785992,26.137222981761));
#1088=CARTESIAN_POINT('Origin',(12.6199538368184,-39.3014937822586,32.6372221845489));
#1089=CARTESIAN_POINT('',(12.6199538368184,-39.3014933165971,33.4372226882081));
#1090=CARTESIAN_POINT('',(12.6199538368184,-39.3014933165971,33.4372226882081));
#1091=CARTESIAN_POINT('Origin',(12.6199538368184,-39.3014937822586,32.6372221845489));
#1092=CARTESIAN_POINT('Origin',(12.6199538368184,-42.416493519849,33.4372226882081));
#1093=CARTESIAN_POINT('',(12.6199538368184,-45.5314937231008,33.4372226882081));
#1094=CARTESIAN_POINT('',(12.6199538368184,-45.5314937231008,33.4372226882081));
#1095=CARTESIAN_POINT('',(12.6199538368184,-42.416493519849,33.4372226882081));
#1096=CARTESIAN_POINT('Origin',(12.6199538368184,-45.5314937231008,34.2372222605448));
#1097=CARTESIAN_POINT('',(12.6199538368184,-46.3314932954375,34.2372222605448));
#1098=CARTESIAN_POINT('',(12.6199538368184,-46.3314932954375,34.2372222605448));
#1099=CARTESIAN_POINT('Origin',(12.6199538368184,-45.5314937231008,34.2372222605448));
#1100=CARTESIAN_POINT('Origin',(12.6199538368184,-46.3314932954375,35.6872225913506));
#1101=CARTESIAN_POINT('',(12.6199538368184,-46.3314932954375,37.1372229221564));
#1102=CARTESIAN_POINT('',(12.6199538368184,-46.3314932954375,37.1372229221564));
#1103=CARTESIAN_POINT('',(12.6199538368184,-46.3314932954375,35.6872225913506));
#1104=CARTESIAN_POINT('Origin',(12.6199538368184,-47.1314937990973,37.1372229221564));
#1105=CARTESIAN_POINT('',(12.6199538368184,-47.1314928677742,37.9372234258156));
#1106=CARTESIAN_POINT('',(12.6199538368184,-47.1314928677742,37.9372234258156));
#1107=CARTESIAN_POINT('Origin',(12.6199538368184,-47.1314937990973,37.1372229221564));
#1108=CARTESIAN_POINT('Origin',(12.6199538368184,-49.417993165261,37.9372234258156));
#1109=CARTESIAN_POINT('',(12.6199538368184,-51.7044934627478,37.9372234258156));
#1110=CARTESIAN_POINT('',(12.6199538368184,-51.7044934627478,37.9372234258156));
#1111=CARTESIAN_POINT('',(12.6199538368184,-49.417993165261,37.9372234258156));
#1112=CARTESIAN_POINT('Origin',(12.6199538368184,-51.7044934627477,37.1372229221564));
#1113=CARTESIAN_POINT('',(12.6199538368184,-52.504493966407,37.1372229221564));
#1114=CARTESIAN_POINT('',(12.6199538368184,-52.504493966407,37.1372229221564));
#1115=CARTESIAN_POINT('Origin',(12.6199538368184,-51.7044934627477,37.1372229221564));
#1116=CARTESIAN_POINT('Origin',(12.6199538368184,-52.504493966407,30.1372229389201));
#1117=CARTESIAN_POINT('',(12.6199538368184,-52.504493966407,23.137222955684));
#1118=CARTESIAN_POINT('',(12.6199538368184,-52.504493966407,23.137222955684));
#1119=CARTESIAN_POINT('',(12.6199538368184,-52.504493966407,30.1372229389201));
#1120=CARTESIAN_POINT('Origin',(12.6199538368184,-51.7044934627478,23.1372222571924));
#1121=CARTESIAN_POINT('',(12.6199538368184,-51.7044934627478,22.3372217535328));
#1122=CARTESIAN_POINT('',(12.6199538368184,-51.7044934627478,22.3372217535328));
#1123=CARTESIAN_POINT('Origin',(12.6199538368184,-51.7044934627478,23.1372222571924));
#1124=CARTESIAN_POINT('Origin',(12.6199538368184,-49.417993165261,22.3372217535328));
#1125=CARTESIAN_POINT('',(12.6199538368184,-47.1314928677742,22.3372217535328));
#1126=CARTESIAN_POINT('',(12.6199538368184,-47.1314928677742,22.3372217535328));
#1127=CARTESIAN_POINT('',(12.6199538368184,-49.417993165261,22.3372217535328));
#1128=CARTESIAN_POINT('Origin',(12.6199538368184,-47.1314944975904,23.137222955684));
#1129=CARTESIAN_POINT('',(12.6199538368184,-46.3314932954375,23.137222955684));
#1130=CARTESIAN_POINT('',(12.6199538368184,-46.3314932954375,23.137222955684));
#1131=CARTESIAN_POINT('Origin',(12.6199538368184,-47.1314944975904,23.137222955684));
#1132=CARTESIAN_POINT('Origin',(12.6199538368184,-46.3314932954375,23.8372226978939));
#1133=CARTESIAN_POINT('',(12.6199538368184,-46.3314932954375,24.5372224401038));
#1134=CARTESIAN_POINT('',(12.6199538368184,-46.3314932954375,24.5372224401038));
#1135=CARTESIAN_POINT('',(12.6199538368184,-46.3314932954375,23.8372226978939));
#1136=CARTESIAN_POINT('Origin',(12.6199538368184,-45.5314927917777,24.5372224401038));
#1137=CARTESIAN_POINT('',(12.6199538368184,-45.5314937231008,25.337222943763));
#1138=CARTESIAN_POINT('',(12.6199538368184,-45.5314937231008,25.337222943763));
#1139=CARTESIAN_POINT('Origin',(12.6199538368184,-45.5314927917777,24.5372224401038));
#1140=CARTESIAN_POINT('Origin',(12.6199538368184,-42.416493519849,25.337222943763));
#1141=CARTESIAN_POINT('',(12.6199538368184,-39.3014933165971,25.337222943763));
#1142=CARTESIAN_POINT('',(12.6199538368184,-39.3014933165971,25.337222943763));
#1143=CARTESIAN_POINT('',(12.6199538368184,-42.416493519849,25.337222943763));
#1144=CARTESIAN_POINT('Origin',(12.6199538368184,-39.3014933165971,26.137222981761));
#1145=CARTESIAN_POINT('Origin',(12.6199538368184,-39.3014933165971,26.137222981761));
#1146=CARTESIAN_POINT('Origin',(12.6199538368185,-27.5119254278786,26.311));
#1147=CARTESIAN_POINT('Origin',(-0.0900233647128414,-53.5514961540767,38.722));
#1148=CARTESIAN_POINT('Origin',(12.6199538368185,-53.5514961540767,18.9));
#1149=UNCERTAINTY_MEASURE_WITH_UNIT(LENGTH_MEASURE(0.01),#1153,
'DISTANCE_ACCURACY_VALUE',
'Maximum model space distance between geometric entities at asserted c
onnectivities');
#1150=UNCERTAINTY_MEASURE_WITH_UNIT(LENGTH_MEASURE(0.01),#1153,
'DISTANCE_ACCURACY_VALUE',
'Maximum model space distance between geometric entities at asserted c
onnectivities');
#1151=(
GEOMETRIC_REPRESENTATION_CONTEXT(3)
GLOBAL_UNCERTAINTY_ASSIGNED_CONTEXT((#1149))
GLOBAL_UNIT_ASSIGNED_CONTEXT((#1153,#1155,#1156))
REPRESENTATION_CONTEXT('','3D')
);
#1152=(
GEOMETRIC_REPRESENTATION_CONTEXT(3)
GLOBAL_UNCERTAINTY_ASSIGNED_CONTEXT((#1150))
GLOBAL_UNIT_ASSIGNED_CONTEXT((#1153,#1155,#1156))
REPRESENTATION_CONTEXT('','3D')
);
#1153=(
LENGTH_UNIT()
NAMED_UNIT(*)
SI_UNIT(.MILLI.,.METRE.)
);
#1154=(
LENGTH_UNIT()
NAMED_UNIT(*)
SI_UNIT($,.METRE.)
);
#1155=(
NAMED_UNIT(*)
PLANE_ANGLE_UNIT()
SI_UNIT($,.RADIAN.)
);
#1156=(
NAMED_UNIT(*)
SI_UNIT($,.STERADIAN.)
SOLID_ANGLE_UNIT()
);
#1157=SHAPE_DEFINITION_REPRESENTATION(#1158,#1159);
#1158=PRODUCT_DEFINITION_SHAPE('',$,#1161);
#1159=SHAPE_REPRESENTATION('',(#696),#1151);
#1160=PRODUCT_DEFINITION_CONTEXT('part definition',#1165,'design');
#1161=PRODUCT_DEFINITION('Part 3','Z axis Limit Switch Holder v1',#1162,
#1160);
#1162=PRODUCT_DEFINITION_FORMATION('',$,#1167);
#1163=PRODUCT_RELATED_PRODUCT_CATEGORY('Z axis Limit Switch Holder v1',
'Z axis Limit Switch Holder v1',(#1167));
#1164=APPLICATION_PROTOCOL_DEFINITION('international standard',
'automotive_design',2009,#1165);
#1165=APPLICATION_CONTEXT(
'Core Data for Automotive Mechanical Design Process');
#1166=PRODUCT_CONTEXT('part definition',#1165,'mechanical');
#1167=PRODUCT('Part 3','Z axis Limit Switch Holder v1',
'STEP AP242 Edition 2',(#1166));
#1168=PRESENTATION_STYLE_ASSIGNMENT((#1170));
#1169=PRESENTATION_STYLE_ASSIGNMENT((#1171));
#1170=SURFACE_STYLE_USAGE(.BOTH.,#1172);
#1171=SURFACE_STYLE_USAGE(.BOTH.,#1173);
#1172=SURFACE_SIDE_STYLE('',(#1174));
#1173=SURFACE_SIDE_STYLE('',(#1175));
#1174=SURFACE_STYLE_FILL_AREA(#1176);
#1175=SURFACE_STYLE_FILL_AREA(#1177);
#1176=FILL_AREA_STYLE('Steel - Satin',(#1178));
#1177=FILL_AREA_STYLE('Opaque(196,53,39)',(#1179));
#1178=FILL_AREA_STYLE_COLOUR('Steel - Satin',#1180);
#1179=FILL_AREA_STYLE_COLOUR('Opaque(196,53,39)',#1181);
#1180=COLOUR_RGB('Steel - Satin',0.627450980392157,0.627450980392157,0.627450980392157);
#1181=COLOUR_RGB('Opaque(196,53,39)',0.768627450980392,0.207843137254902,
0.152941176470588);
ENDSEC;
END-ISO-10303-21;
